<?xml version="1.0" encoding="utf-8" standalone="no"?>
<!DOCTYPE svg PUBLIC "-//W3C//DTD SVG 1.1//EN"
  "http://www.w3.org/Graphics/SVG/1.1/DTD/svg11.dtd">
<svg xmlns:xlink="http://www.w3.org/1999/xlink" width="460.8pt" height="230.4pt" viewBox="0 0 460.8 230.4" xmlns="http://www.w3.org/2000/svg" version="1.1">
 <metadata>
  <rdf:RDF xmlns:dc="http://purl.org/dc/elements/1.1/" xmlns:cc="http://creativecommons.org/ns#" xmlns:rdf="http://www.w3.org/1999/02/22-rdf-syntax-ns#">
   <cc:Work>
    <dc:type rdf:resource="http://purl.org/dc/dcmitype/StillImage"/>
    <dc:date>2024-03-15T14:36:21.648656</dc:date>
    <dc:format>image/svg+xml</dc:format>
    <dc:creator>
     <cc:Agent>
      <dc:title>Matplotlib v3.8.3, https://matplotlib.org/</dc:title>
     </cc:Agent>
    </dc:creator>
   </cc:Work>
  </rdf:RDF>
 </metadata>
 <defs>
  <style type="text/css">*{stroke-linejoin: round; stroke-linecap: butt}</style>
 </defs>
 <g id="figure_1">
  <g id="patch_1">
   <path d="M 0 230.4 
L 460.8 230.4 
L 460.8 0 
L 0 0 
z
" style="fill: #ffffff; stroke: #569fd6; stroke-width: 2; stroke-linejoin: miter"/>
  </g>
  <g id="axes_1">
   <g id="patch_2">
    <path d="M 3.00024 213.457048 
L 457.79976 213.457048 
L 457.79976 3.00024 
L 3.00024 3.00024 
z
" style="fill: #ffffff"/>
   </g>
   <g id="patch_3">
    <path d="M 30.372433 213.457048 
L 32.565718 213.457048 
L 32.565718 130.425224 
L 30.372433 130.425224 
L 30.372433 213.457048 
z
" clip-path="url(#pc633c8437c)" style="fill: none; stroke: #808080; stroke-width: 0.5; stroke-linejoin: miter"/>
   </g>
   <g id="patch_4">
    <path d="M 32.565718 213.457048 
L 34.759003 213.457048 
L 34.759003 129.905784 
L 32.565718 129.905784 
L 32.565718 213.457048 
z
" clip-path="url(#pc633c8437c)" style="fill: none; stroke: #808080; stroke-width: 0.5; stroke-linejoin: miter"/>
   </g>
   <g id="patch_5">
    <path d="M 34.759003 213.457048 
L 36.952288 213.457048 
L 36.952288 129.385374 
L 34.759003 129.385374 
L 34.759003 213.457048 
z
" clip-path="url(#pc633c8437c)" style="fill: none; stroke: #808080; stroke-width: 0.5; stroke-linejoin: miter"/>
   </g>
   <g id="patch_6">
    <path d="M 36.952287 213.457048 
L 39.145572 213.457048 
L 39.145572 128.864018 
L 36.952287 128.864018 
L 36.952287 213.457048 
z
" clip-path="url(#pc633c8437c)" style="fill: none; stroke: #808080; stroke-width: 0.5; stroke-linejoin: miter"/>
   </g>
   <g id="patch_7">
    <path d="M 39.145572 213.457048 
L 41.338857 213.457048 
L 41.338857 128.341737 
L 39.145572 128.341737 
L 39.145572 213.457048 
z
" clip-path="url(#pc633c8437c)" style="fill: none; stroke: #808080; stroke-width: 0.5; stroke-linejoin: miter"/>
   </g>
   <g id="patch_8">
    <path d="M 41.338857 213.457048 
L 43.532142 213.457048 
L 43.532142 127.818555 
L 41.338857 127.818555 
L 41.338857 213.457048 
z
" clip-path="url(#pc633c8437c)" style="fill: none; stroke: #808080; stroke-width: 0.5; stroke-linejoin: miter"/>
   </g>
   <g id="patch_9">
    <path d="M 43.532142 213.457048 
L 45.725426 213.457048 
L 45.725426 127.294495 
L 43.532142 127.294495 
L 43.532142 213.457048 
z
" clip-path="url(#pc633c8437c)" style="fill: none; stroke: #808080; stroke-width: 0.5; stroke-linejoin: miter"/>
   </g>
   <g id="patch_10">
    <path d="M 45.725426 213.457048 
L 47.918711 213.457048 
L 47.918711 126.769579 
L 45.725426 126.769579 
L 45.725426 213.457048 
z
" clip-path="url(#pc633c8437c)" style="fill: none; stroke: #808080; stroke-width: 0.5; stroke-linejoin: miter"/>
   </g>
   <g id="patch_11">
    <path d="M 47.918711 213.457048 
L 50.111996 213.457048 
L 50.111996 126.243831 
L 47.918711 126.243831 
L 47.918711 213.457048 
z
" clip-path="url(#pc633c8437c)" style="fill: none; stroke: #808080; stroke-width: 0.5; stroke-linejoin: miter"/>
   </g>
   <g id="patch_12">
    <path d="M 50.111996 213.457048 
L 52.305281 213.457048 
L 52.305281 125.717274 
L 50.111996 125.717274 
L 50.111996 213.457048 
z
" clip-path="url(#pc633c8437c)" style="fill: none; stroke: #808080; stroke-width: 0.5; stroke-linejoin: miter"/>
   </g>
   <g id="patch_13">
    <path d="M 52.305281 213.457048 
L 54.498565 213.457048 
L 54.498565 125.189933 
L 52.305281 125.189933 
L 52.305281 213.457048 
z
" clip-path="url(#pc633c8437c)" style="fill: none; stroke: #808080; stroke-width: 0.5; stroke-linejoin: miter"/>
   </g>
   <g id="patch_14">
    <path d="M 54.498565 213.457048 
L 56.69185 213.457048 
L 56.69185 124.661831 
L 54.498565 124.661831 
L 54.498565 213.457048 
z
" clip-path="url(#pc633c8437c)" style="fill: none; stroke: #808080; stroke-width: 0.5; stroke-linejoin: miter"/>
   </g>
   <g id="patch_15">
    <path d="M 56.69185 213.457048 
L 58.885135 213.457048 
L 58.885135 124.132993 
L 56.69185 124.132993 
L 56.69185 213.457048 
z
" clip-path="url(#pc633c8437c)" style="fill: none; stroke: #808080; stroke-width: 0.5; stroke-linejoin: miter"/>
   </g>
   <g id="patch_16">
    <path d="M 58.885135 213.457048 
L 61.078419 213.457048 
L 61.078419 123.603442 
L 58.885135 123.603442 
L 58.885135 213.457048 
z
" clip-path="url(#pc633c8437c)" style="fill: none; stroke: #808080; stroke-width: 0.5; stroke-linejoin: miter"/>
   </g>
   <g id="patch_17">
    <path d="M 61.078419 213.457048 
L 63.271704 213.457048 
L 63.271704 123.073204 
L 61.078419 123.073204 
L 61.078419 213.457048 
z
" clip-path="url(#pc633c8437c)" style="fill: none; stroke: #808080; stroke-width: 0.5; stroke-linejoin: miter"/>
   </g>
   <g id="patch_18">
    <path d="M 63.271704 213.457048 
L 65.464989 213.457048 
L 65.464989 122.542304 
L 63.271704 122.542304 
L 63.271704 213.457048 
z
" clip-path="url(#pc633c8437c)" style="fill: none; stroke: #808080; stroke-width: 0.5; stroke-linejoin: miter"/>
   </g>
   <g id="patch_19">
    <path d="M 65.464989 213.457048 
L 67.658274 213.457048 
L 67.658274 122.010765 
L 65.464989 122.010765 
L 65.464989 213.457048 
z
" clip-path="url(#pc633c8437c)" style="fill: none; stroke: #808080; stroke-width: 0.5; stroke-linejoin: miter"/>
   </g>
   <g id="patch_20">
    <path d="M 67.658274 213.457048 
L 69.851558 213.457048 
L 69.851558 121.478614 
L 67.658274 121.478614 
L 67.658274 213.457048 
z
" clip-path="url(#pc633c8437c)" style="fill: none; stroke: #808080; stroke-width: 0.5; stroke-linejoin: miter"/>
   </g>
   <g id="patch_21">
    <path d="M 69.851558 213.457048 
L 72.044843 213.457048 
L 72.044843 120.945876 
L 69.851558 120.945876 
L 69.851558 213.457048 
z
" clip-path="url(#pc633c8437c)" style="fill: none; stroke: #808080; stroke-width: 0.5; stroke-linejoin: miter"/>
   </g>
   <g id="patch_22">
    <path d="M 72.044843 213.457048 
L 74.238128 213.457048 
L 74.238128 120.412576 
L 72.044843 120.412576 
L 72.044843 213.457048 
z
" clip-path="url(#pc633c8437c)" style="fill: none; stroke: #808080; stroke-width: 0.5; stroke-linejoin: miter"/>
   </g>
   <g id="patch_23">
    <path d="M 74.238128 213.457048 
L 76.431412 213.457048 
L 76.431412 119.87874 
L 74.238128 119.87874 
L 74.238128 213.457048 
z
" clip-path="url(#pc633c8437c)" style="fill: none; stroke: #808080; stroke-width: 0.5; stroke-linejoin: miter"/>
   </g>
   <g id="patch_24">
    <path d="M 76.431413 213.457048 
L 78.624697 213.457048 
L 78.624697 119.344395 
L 76.431413 119.344395 
L 76.431413 213.457048 
z
" clip-path="url(#pc633c8437c)" style="fill: none; stroke: #808080; stroke-width: 0.5; stroke-linejoin: miter"/>
   </g>
   <g id="patch_25">
    <path d="M 78.624697 213.457048 
L 80.817982 213.457048 
L 80.817982 118.809565 
L 78.624697 118.809565 
L 78.624697 213.457048 
z
" clip-path="url(#pc633c8437c)" style="fill: none; stroke: #808080; stroke-width: 0.5; stroke-linejoin: miter"/>
   </g>
   <g id="patch_26">
    <path d="M 80.817982 213.457048 
L 83.011267 213.457048 
L 83.011267 118.274279 
L 80.817982 118.274279 
L 80.817982 213.457048 
z
" clip-path="url(#pc633c8437c)" style="fill: none; stroke: #808080; stroke-width: 0.5; stroke-linejoin: miter"/>
   </g>
   <g id="patch_27">
    <path d="M 83.011267 213.457048 
L 85.204551 213.457048 
L 85.204551 117.738562 
L 83.011267 117.738562 
L 83.011267 213.457048 
z
" clip-path="url(#pc633c8437c)" style="fill: none; stroke: #808080; stroke-width: 0.5; stroke-linejoin: miter"/>
   </g>
   <g id="patch_28">
    <path d="M 85.204551 213.457048 
L 87.397836 213.457048 
L 87.397836 117.20244 
L 85.204551 117.20244 
L 85.204551 213.457048 
z
" clip-path="url(#pc633c8437c)" style="fill: none; stroke: #808080; stroke-width: 0.5; stroke-linejoin: miter"/>
   </g>
   <g id="patch_29">
    <path d="M 87.397836 213.457048 
L 89.591121 213.457048 
L 89.591121 116.665942 
L 87.397836 116.665942 
L 87.397836 213.457048 
z
" clip-path="url(#pc633c8437c)" style="fill: none; stroke: #808080; stroke-width: 0.5; stroke-linejoin: miter"/>
   </g>
   <g id="patch_30">
    <path d="M 89.591121 213.457048 
L 91.784406 213.457048 
L 91.784406 116.129093 
L 89.591121 116.129093 
L 89.591121 213.457048 
z
" clip-path="url(#pc633c8437c)" style="fill: none; stroke: #808080; stroke-width: 0.5; stroke-linejoin: miter"/>
   </g>
   <g id="patch_31">
    <path d="M 91.784406 213.457048 
L 93.97769 213.457048 
L 93.97769 115.591922 
L 91.784406 115.591922 
L 91.784406 213.457048 
z
" clip-path="url(#pc633c8437c)" style="fill: none; stroke: #808080; stroke-width: 0.5; stroke-linejoin: miter"/>
   </g>
   <g id="patch_32">
    <path d="M 93.97769 213.457048 
L 96.170975 213.457048 
L 96.170975 115.054455 
L 93.97769 115.054455 
L 93.97769 213.457048 
z
" clip-path="url(#pc633c8437c)" style="fill: none; stroke: #808080; stroke-width: 0.5; stroke-linejoin: miter"/>
   </g>
   <g id="patch_33">
    <path d="M 96.170975 213.457048 
L 98.36426 213.457048 
L 98.36426 114.51672 
L 96.170975 114.51672 
L 96.170975 213.457048 
z
" clip-path="url(#pc633c8437c)" style="fill: none; stroke: #808080; stroke-width: 0.5; stroke-linejoin: miter"/>
   </g>
   <g id="patch_34">
    <path d="M 98.36426 213.457048 
L 100.557544 213.457048 
L 100.557544 113.978746 
L 98.36426 113.978746 
L 98.36426 213.457048 
z
" clip-path="url(#pc633c8437c)" style="fill: none; stroke: #808080; stroke-width: 0.5; stroke-linejoin: miter"/>
   </g>
   <g id="patch_35">
    <path d="M 381.297989 213.457048 
L 383.491274 213.457048 
L 383.491274 53.963777 
L 381.297989 53.963777 
L 381.297989 213.457048 
z
" clip-path="url(#pc633c8437c)" style="fill: none; stroke: #808080; stroke-width: 0.5; stroke-linejoin: miter"/>
   </g>
   <g id="patch_36">
    <path d="M 383.491274 213.457048 
L 385.684558 213.457048 
L 385.684558 53.661066 
L 383.491274 53.661066 
L 383.491274 213.457048 
z
" clip-path="url(#pc633c8437c)" style="fill: none; stroke: #808080; stroke-width: 0.5; stroke-linejoin: miter"/>
   </g>
   <g id="patch_37">
    <path d="M 385.684558 213.457048 
L 387.877843 213.457048 
L 387.877843 53.362123 
L 385.684558 53.362123 
L 385.684558 213.457048 
z
" clip-path="url(#pc633c8437c)" style="fill: none; stroke: #808080; stroke-width: 0.5; stroke-linejoin: miter"/>
   </g>
   <g id="patch_38">
    <path d="M 387.877843 213.457048 
L 390.071128 213.457048 
L 390.071128 53.066971 
L 387.877843 53.066971 
L 387.877843 213.457048 
z
" clip-path="url(#pc633c8437c)" style="fill: none; stroke: #808080; stroke-width: 0.5; stroke-linejoin: miter"/>
   </g>
   <g id="patch_39">
    <path d="M 390.071128 213.457048 
L 392.264413 213.457048 
L 392.264413 52.775635 
L 390.071128 52.775635 
L 390.071128 213.457048 
z
" clip-path="url(#pc633c8437c)" style="fill: none; stroke: #808080; stroke-width: 0.5; stroke-linejoin: miter"/>
   </g>
   <g id="patch_40">
    <path d="M 392.264413 213.457048 
L 394.457697 213.457048 
L 394.457697 52.488135 
L 392.264413 52.488135 
L 392.264413 213.457048 
z
" clip-path="url(#pc633c8437c)" style="fill: none; stroke: #808080; stroke-width: 0.5; stroke-linejoin: miter"/>
   </g>
   <g id="patch_41">
    <path d="M 394.457697 213.457048 
L 396.650982 213.457048 
L 396.650982 52.204496 
L 394.457697 52.204496 
L 394.457697 213.457048 
z
" clip-path="url(#pc633c8437c)" style="fill: none; stroke: #808080; stroke-width: 0.5; stroke-linejoin: miter"/>
   </g>
   <g id="patch_42">
    <path d="M 396.650982 213.457048 
L 398.844267 213.457048 
L 398.844267 51.924739 
L 396.650982 51.924739 
L 396.650982 213.457048 
z
" clip-path="url(#pc633c8437c)" style="fill: none; stroke: #808080; stroke-width: 0.5; stroke-linejoin: miter"/>
   </g>
   <g id="patch_43">
    <path d="M 398.844267 213.457048 
L 401.037551 213.457048 
L 401.037551 51.648885 
L 398.844267 51.648885 
L 398.844267 213.457048 
z
" clip-path="url(#pc633c8437c)" style="fill: none; stroke: #808080; stroke-width: 0.5; stroke-linejoin: miter"/>
   </g>
   <g id="patch_44">
    <path d="M 401.037551 213.457048 
L 403.230836 213.457048 
L 403.230836 51.376958 
L 401.037551 51.376958 
L 401.037551 213.457048 
z
" clip-path="url(#pc633c8437c)" style="fill: none; stroke: #808080; stroke-width: 0.5; stroke-linejoin: miter"/>
   </g>
   <g id="patch_45">
    <path d="M 403.230836 213.457048 
L 405.424121 213.457048 
L 405.424121 51.108977 
L 403.230836 51.108977 
L 403.230836 213.457048 
z
" clip-path="url(#pc633c8437c)" style="fill: none; stroke: #808080; stroke-width: 0.5; stroke-linejoin: miter"/>
   </g>
   <g id="patch_46">
    <path d="M 405.424121 213.457048 
L 407.617406 213.457048 
L 407.617406 50.844965 
L 405.424121 50.844965 
L 405.424121 213.457048 
z
" clip-path="url(#pc633c8437c)" style="fill: none; stroke: #808080; stroke-width: 0.5; stroke-linejoin: miter"/>
   </g>
   <g id="patch_47">
    <path d="M 407.617406 213.457048 
L 409.81069 213.457048 
L 409.81069 50.584941 
L 407.617406 50.584941 
L 407.617406 213.457048 
z
" clip-path="url(#pc633c8437c)" style="fill: none; stroke: #808080; stroke-width: 0.5; stroke-linejoin: miter"/>
   </g>
   <g id="patch_48">
    <path d="M 409.81069 213.457048 
L 412.003975 213.457048 
L 412.003975 50.328927 
L 409.81069 50.328927 
L 409.81069 213.457048 
z
" clip-path="url(#pc633c8437c)" style="fill: none; stroke: #808080; stroke-width: 0.5; stroke-linejoin: miter"/>
   </g>
   <g id="patch_49">
    <path d="M 412.003975 213.457048 
L 414.19726 213.457048 
L 414.19726 50.076943 
L 412.003975 50.076943 
L 412.003975 213.457048 
z
" clip-path="url(#pc633c8437c)" style="fill: none; stroke: #808080; stroke-width: 0.5; stroke-linejoin: miter"/>
   </g>
   <g id="patch_50">
    <path d="M 414.19726 213.457048 
L 416.390544 213.457048 
L 416.390544 49.829008 
L 414.19726 49.829008 
L 414.19726 213.457048 
z
" clip-path="url(#pc633c8437c)" style="fill: none; stroke: #808080; stroke-width: 0.5; stroke-linejoin: miter"/>
   </g>
   <g id="patch_51">
    <path d="M 416.390544 213.457048 
L 418.583829 213.457048 
L 418.583829 49.585142 
L 416.390544 49.585142 
L 416.390544 213.457048 
z
" clip-path="url(#pc633c8437c)" style="fill: none; stroke: #808080; stroke-width: 0.5; stroke-linejoin: miter"/>
   </g>
   <g id="patch_52">
    <path d="M 418.583829 213.457048 
L 420.777114 213.457048 
L 420.777114 49.345364 
L 418.583829 49.345364 
L 418.583829 213.457048 
z
" clip-path="url(#pc633c8437c)" style="fill: none; stroke: #808080; stroke-width: 0.5; stroke-linejoin: miter"/>
   </g>
   <g id="patch_53">
    <path d="M 420.777114 213.457048 
L 422.970399 213.457048 
L 422.970399 49.109694 
L 420.777114 49.109694 
L 420.777114 213.457048 
z
" clip-path="url(#pc633c8437c)" style="fill: none; stroke: #808080; stroke-width: 0.5; stroke-linejoin: miter"/>
   </g>
   <g id="patch_54">
    <path d="M 422.970399 213.457048 
L 425.163683 213.457048 
L 425.163683 48.87815 
L 422.970399 48.87815 
L 422.970399 213.457048 
z
" clip-path="url(#pc633c8437c)" style="fill: none; stroke: #808080; stroke-width: 0.5; stroke-linejoin: miter"/>
   </g>
   <g id="patch_55">
    <path d="M 425.163683 213.457048 
L 427.356968 213.457048 
L 427.356968 48.650751 
L 425.163683 48.650751 
L 425.163683 213.457048 
z
" clip-path="url(#pc633c8437c)" style="fill: none; stroke: #808080; stroke-width: 0.5; stroke-linejoin: miter"/>
   </g>
   <g id="patch_56">
    <path d="M 427.356968 213.457048 
L 429.550253 213.457048 
L 429.550253 48.427514 
L 427.356968 48.427514 
L 427.356968 213.457048 
z
" clip-path="url(#pc633c8437c)" style="fill: none; stroke: #808080; stroke-width: 0.5; stroke-linejoin: miter"/>
   </g>
   <g id="patch_57">
    <path d="M 429.550253 213.457048 
L 431.743538 213.457048 
L 431.743538 48.208457 
L 429.550253 48.208457 
L 429.550253 213.457048 
z
" clip-path="url(#pc633c8437c)" style="fill: none; stroke: #808080; stroke-width: 0.5; stroke-linejoin: miter"/>
   </g>
   <g id="patch_58">
    <path d="M 431.743538 213.457048 
L 433.936822 213.457048 
L 433.936822 47.993599 
L 431.743538 47.993599 
L 431.743538 213.457048 
z
" clip-path="url(#pc633c8437c)" style="fill: none; stroke: #808080; stroke-width: 0.5; stroke-linejoin: miter"/>
   </g>
   <g id="patch_59">
    <path d="M 433.936822 213.457048 
L 436.130107 213.457048 
L 436.130107 47.782955 
L 433.936822 47.782955 
L 433.936822 213.457048 
z
" clip-path="url(#pc633c8437c)" style="fill: none; stroke: #808080; stroke-width: 0.5; stroke-linejoin: miter"/>
   </g>
   <g id="patch_60">
    <path d="M 436.130107 213.457048 
L 438.323392 213.457048 
L 438.323392 47.576543 
L 436.130107 47.576543 
L 436.130107 213.457048 
z
" clip-path="url(#pc633c8437c)" style="fill: none; stroke: #808080; stroke-width: 0.5; stroke-linejoin: miter"/>
   </g>
   <g id="patch_61">
    <path d="M 438.323392 213.457048 
L 440.516676 213.457048 
L 440.516676 47.374379 
L 438.323392 47.374379 
L 438.323392 213.457048 
z
" clip-path="url(#pc633c8437c)" style="fill: none; stroke: #808080; stroke-width: 0.5; stroke-linejoin: miter"/>
   </g>
   <g id="patch_62">
    <path d="M 440.516676 213.457048 
L 442.709961 213.457048 
L 442.709961 47.176479 
L 440.516676 47.176479 
L 440.516676 213.457048 
z
" clip-path="url(#pc633c8437c)" style="fill: none; stroke: #808080; stroke-width: 0.5; stroke-linejoin: miter"/>
   </g>
   <g id="patch_63">
    <path d="M 442.709961 213.457048 
L 444.903246 213.457048 
L 444.903246 46.98286 
L 442.709961 46.98286 
L 442.709961 213.457048 
z
" clip-path="url(#pc633c8437c)" style="fill: none; stroke: #808080; stroke-width: 0.5; stroke-linejoin: miter"/>
   </g>
   <g id="patch_64">
    <path d="M 444.903246 213.457048 
L 447.096531 213.457048 
L 447.096531 46.793536 
L 444.903246 46.793536 
L 444.903246 213.457048 
z
" clip-path="url(#pc633c8437c)" style="fill: none; stroke: #808080; stroke-width: 0.5; stroke-linejoin: miter"/>
   </g>
   <g id="patch_65">
    <path d="M 447.096531 213.457048 
L 449.289815 213.457048 
L 449.289815 46.608523 
L 447.096531 46.608523 
L 447.096531 213.457048 
z
" clip-path="url(#pc633c8437c)" style="fill: none; stroke: #808080; stroke-width: 0.5; stroke-linejoin: miter"/>
   </g>
   <g id="patch_66">
    <path d="M 449.289815 213.457048 
L 451.4831 213.457048 
L 451.4831 46.427835 
L 449.289815 46.427835 
L 449.289815 213.457048 
z
" clip-path="url(#pc633c8437c)" style="fill: none; stroke: #808080; stroke-width: 0.5; stroke-linejoin: miter"/>
   </g>
   <g id="patch_67">
    <path d="M 203.641926 213.457048 
L 205.835211 213.457048 
L 205.835211 88.455644 
L 203.641926 88.455644 
z
" clip-path="url(#pc633c8437c)" style="fill: #ed7807; opacity: 0.5"/>
   </g>
   <g id="matplotlib.axis_1">
    <g id="xtick_1">
     <g id="line2d_1">
      <defs>
       <path id="m002f1dac54" d="M 0 0 
L 0 8 
" style="stroke: #376eb5; stroke-width: 0.8"/>
      </defs>
      <g>
       <use xlink:href="#m002f1dac54" x="30.372433" y="213.457048" style="fill: #376eb5; stroke: #376eb5; stroke-width: 0.8"/>
      </g>
     </g>
    </g>
    <g id="xtick_2">
     <g id="line2d_2">
      <g>
       <use xlink:href="#m002f1dac54" x="100.557544" y="213.457048" style="fill: #376eb5; stroke: #376eb5; stroke-width: 0.8"/>
      </g>
     </g>
    </g>
    <g id="xtick_3">
     <g id="line2d_3">
      <g>
       <use xlink:href="#m002f1dac54" x="170.742656" y="213.457048" style="fill: #376eb5; stroke: #376eb5; stroke-width: 0.8"/>
      </g>
     </g>
    </g>
    <g id="xtick_4">
     <g id="line2d_4">
      <g>
       <use xlink:href="#m002f1dac54" x="240.927767" y="213.457048" style="fill: #376eb5; stroke: #376eb5; stroke-width: 0.8"/>
      </g>
     </g>
    </g>
    <g id="xtick_5">
     <g id="line2d_5">
      <g>
       <use xlink:href="#m002f1dac54" x="311.112878" y="213.457048" style="fill: #376eb5; stroke: #376eb5; stroke-width: 0.8"/>
      </g>
     </g>
    </g>
    <g id="xtick_6">
     <g id="line2d_6">
      <g>
       <use xlink:href="#m002f1dac54" x="381.297989" y="213.457048" style="fill: #376eb5; stroke: #376eb5; stroke-width: 0.8"/>
      </g>
     </g>
    </g>
    <g id="xtick_7">
     <g id="line2d_7">
      <g>
       <use xlink:href="#m002f1dac54" x="451.4831" y="213.457048" style="fill: #376eb5; stroke: #376eb5; stroke-width: 0.8"/>
      </g>
     </g>
    </g>
   </g>
   <g id="matplotlib.axis_2">
    <g id="ytick_1"/>
    <g id="ytick_2"/>
    <g id="ytick_3"/>
    <g id="ytick_4"/>
    <g id="ytick_5"/>
    <g id="ytick_6"/>
    <g id="ytick_7"/>
   </g>
   <g id="patch_68">
    <path d="M 100.557544 213.457048 
L 102.750829 213.457048 
L 102.750829 113.440559 
L 100.557544 113.440559 
L 100.557544 213.457048 
z
" clip-path="url(#pc633c8437c)" style="fill: none; stroke: #ed7807; stroke-width: 0.5; stroke-linejoin: miter"/>
   </g>
   <g id="patch_69">
    <path d="M 102.750829 213.457048 
L 104.944114 213.457048 
L 104.944114 112.902189 
L 102.750829 112.902189 
L 102.750829 213.457048 
z
" clip-path="url(#pc633c8437c)" style="fill: none; stroke: #ed7807; stroke-width: 0.5; stroke-linejoin: miter"/>
   </g>
   <g id="patch_70">
    <path d="M 104.944114 213.457048 
L 107.137399 213.457048 
L 107.137399 112.363663 
L 104.944114 112.363663 
L 104.944114 213.457048 
z
" clip-path="url(#pc633c8437c)" style="fill: none; stroke: #ed7807; stroke-width: 0.5; stroke-linejoin: miter"/>
   </g>
   <g id="patch_71">
    <path d="M 107.137399 213.457048 
L 109.330683 213.457048 
L 109.330683 111.825009 
L 107.137399 111.825009 
L 107.137399 213.457048 
z
" clip-path="url(#pc633c8437c)" style="fill: none; stroke: #ed7807; stroke-width: 0.5; stroke-linejoin: miter"/>
   </g>
   <g id="patch_72">
    <path d="M 109.330683 213.457048 
L 111.523968 213.457048 
L 111.523968 111.286258 
L 109.330683 111.286258 
L 109.330683 213.457048 
z
" clip-path="url(#pc633c8437c)" style="fill: none; stroke: #ed7807; stroke-width: 0.5; stroke-linejoin: miter"/>
   </g>
   <g id="patch_73">
    <path d="M 111.523968 213.457048 
L 113.717253 213.457048 
L 113.717253 110.747437 
L 111.523968 110.747437 
L 111.523968 213.457048 
z
" clip-path="url(#pc633c8437c)" style="fill: none; stroke: #ed7807; stroke-width: 0.5; stroke-linejoin: miter"/>
   </g>
   <g id="patch_74">
    <path d="M 113.717253 213.457048 
L 115.910538 213.457048 
L 115.910538 110.208574 
L 113.717253 110.208574 
L 113.717253 213.457048 
z
" clip-path="url(#pc633c8437c)" style="fill: none; stroke: #ed7807; stroke-width: 0.5; stroke-linejoin: miter"/>
   </g>
   <g id="patch_75">
    <path d="M 115.910538 213.457048 
L 118.103822 213.457048 
L 118.103822 109.669701 
L 115.910538 109.669701 
L 115.910538 213.457048 
z
" clip-path="url(#pc633c8437c)" style="fill: none; stroke: #ed7807; stroke-width: 0.5; stroke-linejoin: miter"/>
   </g>
   <g id="patch_76">
    <path d="M 118.103822 213.457048 
L 120.297107 213.457048 
L 120.297107 109.130845 
L 118.103822 109.130845 
L 118.103822 213.457048 
z
" clip-path="url(#pc633c8437c)" style="fill: none; stroke: #ed7807; stroke-width: 0.5; stroke-linejoin: miter"/>
   </g>
   <g id="patch_77">
    <path d="M 120.297107 213.457048 
L 122.490392 213.457048 
L 122.490392 108.592035 
L 120.297107 108.592035 
L 120.297107 213.457048 
z
" clip-path="url(#pc633c8437c)" style="fill: none; stroke: #ed7807; stroke-width: 0.5; stroke-linejoin: miter"/>
   </g>
   <g id="patch_78">
    <path d="M 122.490392 213.457048 
L 124.683676 213.457048 
L 124.683676 108.053303 
L 122.490392 108.053303 
L 122.490392 213.457048 
z
" clip-path="url(#pc633c8437c)" style="fill: none; stroke: #ed7807; stroke-width: 0.5; stroke-linejoin: miter"/>
   </g>
   <g id="patch_79">
    <path d="M 124.683676 213.457048 
L 126.876961 213.457048 
L 126.876961 107.514676 
L 124.683676 107.514676 
L 124.683676 213.457048 
z
" clip-path="url(#pc633c8437c)" style="fill: none; stroke: #ed7807; stroke-width: 0.5; stroke-linejoin: miter"/>
   </g>
   <g id="patch_80">
    <path d="M 126.876961 213.457048 
L 129.070246 213.457048 
L 129.070246 106.976186 
L 126.876961 106.976186 
L 126.876961 213.457048 
z
" clip-path="url(#pc633c8437c)" style="fill: none; stroke: #ed7807; stroke-width: 0.5; stroke-linejoin: miter"/>
   </g>
   <g id="patch_81">
    <path d="M 129.070246 213.457048 
L 131.263531 213.457048 
L 131.263531 106.437862 
L 129.070246 106.437862 
L 129.070246 213.457048 
z
" clip-path="url(#pc633c8437c)" style="fill: none; stroke: #ed7807; stroke-width: 0.5; stroke-linejoin: miter"/>
   </g>
   <g id="patch_82">
    <path d="M 131.263531 213.457048 
L 133.456815 213.457048 
L 133.456815 105.899733 
L 131.263531 105.899733 
L 131.263531 213.457048 
z
" clip-path="url(#pc633c8437c)" style="fill: none; stroke: #ed7807; stroke-width: 0.5; stroke-linejoin: miter"/>
   </g>
   <g id="patch_83">
    <path d="M 133.456815 213.457048 
L 135.6501 213.457048 
L 135.6501 105.361832 
L 133.456815 105.361832 
L 133.456815 213.457048 
z
" clip-path="url(#pc633c8437c)" style="fill: none; stroke: #ed7807; stroke-width: 0.5; stroke-linejoin: miter"/>
   </g>
   <g id="patch_84">
    <path d="M 135.6501 213.457048 
L 137.843385 213.457048 
L 137.843385 104.824187 
L 135.6501 104.824187 
L 135.6501 213.457048 
z
" clip-path="url(#pc633c8437c)" style="fill: none; stroke: #ed7807; stroke-width: 0.5; stroke-linejoin: miter"/>
   </g>
   <g id="patch_85">
    <path d="M 137.843385 213.457048 
L 140.036669 213.457048 
L 140.036669 104.286829 
L 137.843385 104.286829 
L 137.843385 213.457048 
z
" clip-path="url(#pc633c8437c)" style="fill: none; stroke: #ed7807; stroke-width: 0.5; stroke-linejoin: miter"/>
   </g>
   <g id="patch_86">
    <path d="M 140.036669 213.457048 
L 142.229954 213.457048 
L 142.229954 103.74979 
L 140.036669 103.74979 
L 140.036669 213.457048 
z
" clip-path="url(#pc633c8437c)" style="fill: none; stroke: #ed7807; stroke-width: 0.5; stroke-linejoin: miter"/>
   </g>
   <g id="patch_87">
    <path d="M 142.229954 213.457048 
L 144.423239 213.457048 
L 144.423239 103.213099 
L 142.229954 103.213099 
L 142.229954 213.457048 
z
" clip-path="url(#pc633c8437c)" style="fill: none; stroke: #ed7807; stroke-width: 0.5; stroke-linejoin: miter"/>
   </g>
   <g id="patch_88">
    <path d="M 144.423239 213.457048 
L 146.616524 213.457048 
L 146.616524 102.676787 
L 144.423239 102.676787 
L 144.423239 213.457048 
z
" clip-path="url(#pc633c8437c)" style="fill: none; stroke: #ed7807; stroke-width: 0.5; stroke-linejoin: miter"/>
   </g>
   <g id="patch_89">
    <path d="M 146.616524 213.457048 
L 148.809808 213.457048 
L 148.809808 102.140887 
L 146.616524 102.140887 
L 146.616524 213.457048 
z
" clip-path="url(#pc633c8437c)" style="fill: none; stroke: #ed7807; stroke-width: 0.5; stroke-linejoin: miter"/>
   </g>
   <g id="patch_90">
    <path d="M 148.809808 213.457048 
L 151.003093 213.457048 
L 151.003093 101.605428 
L 148.809808 101.605428 
L 148.809808 213.457048 
z
" clip-path="url(#pc633c8437c)" style="fill: none; stroke: #ed7807; stroke-width: 0.5; stroke-linejoin: miter"/>
   </g>
   <g id="patch_91">
    <path d="M 151.003093 213.457048 
L 153.196378 213.457048 
L 153.196378 101.070442 
L 151.003093 101.070442 
L 151.003093 213.457048 
z
" clip-path="url(#pc633c8437c)" style="fill: none; stroke: #ed7807; stroke-width: 0.5; stroke-linejoin: miter"/>
   </g>
   <g id="patch_92">
    <path d="M 153.196378 213.457048 
L 155.389663 213.457048 
L 155.389663 100.535961 
L 153.196378 100.535961 
L 153.196378 213.457048 
z
" clip-path="url(#pc633c8437c)" style="fill: none; stroke: #ed7807; stroke-width: 0.5; stroke-linejoin: miter"/>
   </g>
   <g id="patch_93">
    <path d="M 155.389663 213.457048 
L 157.582947 213.457048 
L 157.582947 100.002016 
L 155.389663 100.002016 
L 155.389663 213.457048 
z
" clip-path="url(#pc633c8437c)" style="fill: none; stroke: #ed7807; stroke-width: 0.5; stroke-linejoin: miter"/>
   </g>
   <g id="patch_94">
    <path d="M 157.582947 213.457048 
L 159.776232 213.457048 
L 159.776232 99.468637 
L 157.582947 99.468637 
L 157.582947 213.457048 
z
" clip-path="url(#pc633c8437c)" style="fill: none; stroke: #ed7807; stroke-width: 0.5; stroke-linejoin: miter"/>
   </g>
   <g id="patch_95">
    <path d="M 159.776232 213.457048 
L 161.969517 213.457048 
L 161.969517 98.935858 
L 159.776232 98.935858 
L 159.776232 213.457048 
z
" clip-path="url(#pc633c8437c)" style="fill: none; stroke: #ed7807; stroke-width: 0.5; stroke-linejoin: miter"/>
   </g>
   <g id="patch_96">
    <path d="M 161.969517 213.457048 
L 164.162801 213.457048 
L 164.162801 98.40371 
L 161.969517 98.40371 
L 161.969517 213.457048 
z
" clip-path="url(#pc633c8437c)" style="fill: none; stroke: #ed7807; stroke-width: 0.5; stroke-linejoin: miter"/>
   </g>
   <g id="patch_97">
    <path d="M 164.162801 213.457048 
L 166.356086 213.457048 
L 166.356086 97.872225 
L 164.162801 97.872225 
L 164.162801 213.457048 
z
" clip-path="url(#pc633c8437c)" style="fill: none; stroke: #ed7807; stroke-width: 0.5; stroke-linejoin: miter"/>
   </g>
   <g id="patch_98">
    <path d="M 166.356086 213.457048 
L 168.549371 213.457048 
L 168.549371 97.341434 
L 166.356086 97.341434 
L 166.356086 213.457048 
z
" clip-path="url(#pc633c8437c)" style="fill: none; stroke: #ed7807; stroke-width: 0.5; stroke-linejoin: miter"/>
   </g>
   <g id="patch_99">
    <path d="M 168.549371 213.457048 
L 170.742656 213.457048 
L 170.742656 96.81137 
L 168.549371 96.81137 
L 168.549371 213.457048 
z
" clip-path="url(#pc633c8437c)" style="fill: none; stroke: #ed7807; stroke-width: 0.5; stroke-linejoin: miter"/>
   </g>
   <g id="patch_100">
    <path d="M 170.742656 213.457048 
L 172.93594 213.457048 
L 172.93594 96.282065 
L 170.742656 96.282065 
L 170.742656 213.457048 
z
" clip-path="url(#pc633c8437c)" style="fill: none; stroke: #ed7807; stroke-width: 0.5; stroke-linejoin: miter"/>
   </g>
   <g id="patch_101">
    <path d="M 172.93594 213.457048 
L 175.129225 213.457048 
L 175.129225 95.753551 
L 172.93594 95.753551 
L 172.93594 213.457048 
z
" clip-path="url(#pc633c8437c)" style="fill: none; stroke: #ed7807; stroke-width: 0.5; stroke-linejoin: miter"/>
   </g>
   <g id="patch_102">
    <path d="M 175.129225 213.457048 
L 177.32251 213.457048 
L 177.32251 95.225861 
L 175.129225 95.225861 
L 175.129225 213.457048 
z
" clip-path="url(#pc633c8437c)" style="fill: none; stroke: #ed7807; stroke-width: 0.5; stroke-linejoin: miter"/>
   </g>
   <g id="patch_103">
    <path d="M 177.32251 213.457048 
L 179.515794 213.457048 
L 179.515794 94.699026 
L 177.32251 94.699026 
L 177.32251 213.457048 
z
" clip-path="url(#pc633c8437c)" style="fill: none; stroke: #ed7807; stroke-width: 0.5; stroke-linejoin: miter"/>
   </g>
   <g id="patch_104">
    <path d="M 179.515794 213.457048 
L 181.709079 213.457048 
L 181.709079 94.17308 
L 179.515794 94.17308 
L 179.515794 213.457048 
z
" clip-path="url(#pc633c8437c)" style="fill: none; stroke: #ed7807; stroke-width: 0.5; stroke-linejoin: miter"/>
   </g>
   <g id="patch_105">
    <path d="M 181.709079 213.457048 
L 183.902364 213.457048 
L 183.902364 93.648054 
L 181.709079 93.648054 
L 181.709079 213.457048 
z
" clip-path="url(#pc633c8437c)" style="fill: none; stroke: #ed7807; stroke-width: 0.5; stroke-linejoin: miter"/>
   </g>
   <g id="patch_106">
    <path d="M 183.902364 213.457048 
L 186.095649 213.457048 
L 186.095649 93.123982 
L 183.902364 93.123982 
L 183.902364 213.457048 
z
" clip-path="url(#pc633c8437c)" style="fill: none; stroke: #ed7807; stroke-width: 0.5; stroke-linejoin: miter"/>
   </g>
   <g id="patch_107">
    <path d="M 186.095649 213.457048 
L 188.288933 213.457048 
L 188.288933 92.600896 
L 186.095649 92.600896 
L 186.095649 213.457048 
z
" clip-path="url(#pc633c8437c)" style="fill: none; stroke: #ed7807; stroke-width: 0.5; stroke-linejoin: miter"/>
   </g>
   <g id="patch_108">
    <path d="M 188.288933 213.457048 
L 190.482218 213.457048 
L 190.482218 92.078828 
L 188.288933 92.078828 
L 188.288933 213.457048 
z
" clip-path="url(#pc633c8437c)" style="fill: none; stroke: #ed7807; stroke-width: 0.5; stroke-linejoin: miter"/>
   </g>
   <g id="patch_109">
    <path d="M 190.482218 213.457048 
L 192.675503 213.457048 
L 192.675503 91.557813 
L 190.482218 91.557813 
L 190.482218 213.457048 
z
" clip-path="url(#pc633c8437c)" style="fill: none; stroke: #ed7807; stroke-width: 0.5; stroke-linejoin: miter"/>
   </g>
   <g id="patch_110">
    <path d="M 192.675503 213.457048 
L 194.868788 213.457048 
L 194.868788 91.037881 
L 192.675503 91.037881 
L 192.675503 213.457048 
z
" clip-path="url(#pc633c8437c)" style="fill: none; stroke: #ed7807; stroke-width: 0.5; stroke-linejoin: miter"/>
   </g>
   <g id="patch_111">
    <path d="M 194.868788 213.457048 
L 197.062072 213.457048 
L 197.062072 90.519067 
L 194.868788 90.519067 
L 194.868788 213.457048 
z
" clip-path="url(#pc633c8437c)" style="fill: none; stroke: #ed7807; stroke-width: 0.5; stroke-linejoin: miter"/>
   </g>
   <g id="patch_112">
    <path d="M 197.062072 213.457048 
L 199.255357 213.457048 
L 199.255357 90.001403 
L 197.062072 90.001403 
L 197.062072 213.457048 
z
" clip-path="url(#pc633c8437c)" style="fill: none; stroke: #ed7807; stroke-width: 0.5; stroke-linejoin: miter"/>
   </g>
   <g id="patch_113">
    <path d="M 199.255357 213.457048 
L 201.448642 213.457048 
L 201.448642 89.484923 
L 199.255357 89.484923 
L 199.255357 213.457048 
z
" clip-path="url(#pc633c8437c)" style="fill: none; stroke: #ed7807; stroke-width: 0.5; stroke-linejoin: miter"/>
   </g>
   <g id="patch_114">
    <path d="M 201.448642 213.457048 
L 203.641926 213.457048 
L 203.641926 88.969659 
L 201.448642 88.969659 
L 201.448642 213.457048 
z
" clip-path="url(#pc633c8437c)" style="fill: none; stroke: #ed7807; stroke-width: 0.5; stroke-linejoin: miter"/>
   </g>
   <g id="patch_115">
    <path d="M 203.641926 213.457048 
L 205.835211 213.457048 
L 205.835211 88.455644 
L 203.641926 88.455644 
L 203.641926 213.457048 
z
" clip-path="url(#pc633c8437c)" style="fill: none; stroke: #ed7807; stroke-width: 0.5; stroke-linejoin: miter"/>
   </g>
   <g id="patch_116">
    <path d="M 205.835211 213.457048 
L 208.028496 213.457048 
L 208.028496 87.942911 
L 205.835211 87.942911 
L 205.835211 213.457048 
z
" clip-path="url(#pc633c8437c)" style="fill: none; stroke: #ed7807; stroke-width: 0.5; stroke-linejoin: miter"/>
   </g>
   <g id="patch_117">
    <path d="M 208.028496 213.457048 
L 210.221781 213.457048 
L 210.221781 87.431494 
L 208.028496 87.431494 
L 208.028496 213.457048 
z
" clip-path="url(#pc633c8437c)" style="fill: none; stroke: #ed7807; stroke-width: 0.5; stroke-linejoin: miter"/>
   </g>
   <g id="patch_118">
    <path d="M 210.221781 213.457048 
L 212.415065 213.457048 
L 212.415065 86.921426 
L 210.221781 86.921426 
L 210.221781 213.457048 
z
" clip-path="url(#pc633c8437c)" style="fill: none; stroke: #ed7807; stroke-width: 0.5; stroke-linejoin: miter"/>
   </g>
   <g id="patch_119">
    <path d="M 212.415065 213.457048 
L 214.60835 213.457048 
L 214.60835 86.41274 
L 212.415065 86.41274 
L 212.415065 213.457048 
z
" clip-path="url(#pc633c8437c)" style="fill: none; stroke: #ed7807; stroke-width: 0.5; stroke-linejoin: miter"/>
   </g>
   <g id="patch_120">
    <path d="M 214.60835 213.457048 
L 216.801635 213.457048 
L 216.801635 85.905469 
L 214.60835 85.905469 
L 214.60835 213.457048 
z
" clip-path="url(#pc633c8437c)" style="fill: none; stroke: #ed7807; stroke-width: 0.5; stroke-linejoin: miter"/>
   </g>
   <g id="patch_121">
    <path d="M 216.801635 213.457048 
L 218.994919 213.457048 
L 218.994919 85.399646 
L 216.801635 85.399646 
L 216.801635 213.457048 
z
" clip-path="url(#pc633c8437c)" style="fill: none; stroke: #ed7807; stroke-width: 0.5; stroke-linejoin: miter"/>
   </g>
   <g id="patch_122">
    <path d="M 218.994919 213.457048 
L 221.188204 213.457048 
L 221.188204 84.895305 
L 218.994919 84.895305 
L 218.994919 213.457048 
z
" clip-path="url(#pc633c8437c)" style="fill: none; stroke: #ed7807; stroke-width: 0.5; stroke-linejoin: miter"/>
   </g>
   <g id="patch_123">
    <path d="M 221.188204 213.457048 
L 223.381489 213.457048 
L 223.381489 84.392478 
L 221.188204 84.392478 
L 221.188204 213.457048 
z
" clip-path="url(#pc633c8437c)" style="fill: none; stroke: #ed7807; stroke-width: 0.5; stroke-linejoin: miter"/>
   </g>
   <g id="patch_124">
    <path d="M 223.381489 213.457048 
L 225.574774 213.457048 
L 225.574774 83.8912 
L 223.381489 83.8912 
L 223.381489 213.457048 
z
" clip-path="url(#pc633c8437c)" style="fill: none; stroke: #ed7807; stroke-width: 0.5; stroke-linejoin: miter"/>
   </g>
   <g id="patch_125">
    <path d="M 225.574774 213.457048 
L 227.768058 213.457048 
L 227.768058 83.391503 
L 225.574774 83.391503 
L 225.574774 213.457048 
z
" clip-path="url(#pc633c8437c)" style="fill: none; stroke: #ed7807; stroke-width: 0.5; stroke-linejoin: miter"/>
   </g>
   <g id="patch_126">
    <path d="M 227.768058 213.457048 
L 229.961343 213.457048 
L 229.961343 82.893421 
L 227.768058 82.893421 
L 227.768058 213.457048 
z
" clip-path="url(#pc633c8437c)" style="fill: none; stroke: #ed7807; stroke-width: 0.5; stroke-linejoin: miter"/>
   </g>
   <g id="patch_127">
    <path d="M 229.961343 213.457048 
L 232.154628 213.457048 
L 232.154628 82.396987 
L 229.961343 82.396987 
L 229.961343 213.457048 
z
" clip-path="url(#pc633c8437c)" style="fill: none; stroke: #ed7807; stroke-width: 0.5; stroke-linejoin: miter"/>
   </g>
   <g id="patch_128">
    <path d="M 232.154628 213.457048 
L 234.347913 213.457048 
L 234.347913 81.902234 
L 232.154628 81.902234 
L 232.154628 213.457048 
z
" clip-path="url(#pc633c8437c)" style="fill: none; stroke: #ed7807; stroke-width: 0.5; stroke-linejoin: miter"/>
   </g>
   <g id="patch_129">
    <path d="M 234.347913 213.457048 
L 236.541197 213.457048 
L 236.541197 81.409195 
L 234.347913 81.409195 
L 234.347913 213.457048 
z
" clip-path="url(#pc633c8437c)" style="fill: none; stroke: #ed7807; stroke-width: 0.5; stroke-linejoin: miter"/>
   </g>
   <g id="patch_130">
    <path d="M 236.541197 213.457048 
L 238.734482 213.457048 
L 238.734482 80.917903 
L 236.541197 80.917903 
L 236.541197 213.457048 
z
" clip-path="url(#pc633c8437c)" style="fill: none; stroke: #ed7807; stroke-width: 0.5; stroke-linejoin: miter"/>
   </g>
   <g id="patch_131">
    <path d="M 238.734482 213.457048 
L 240.927767 213.457048 
L 240.927767 80.428393 
L 238.734482 80.428393 
L 238.734482 213.457048 
z
" clip-path="url(#pc633c8437c)" style="fill: none; stroke: #ed7807; stroke-width: 0.5; stroke-linejoin: miter"/>
   </g>
   <g id="patch_132">
    <path d="M 240.927767 213.457048 
L 243.121051 213.457048 
L 243.121051 79.940697 
L 240.927767 79.940697 
L 240.927767 213.457048 
z
" clip-path="url(#pc633c8437c)" style="fill: none; stroke: #ed7807; stroke-width: 0.5; stroke-linejoin: miter"/>
   </g>
   <g id="patch_133">
    <path d="M 243.121051 213.457048 
L 245.314336 213.457048 
L 245.314336 79.454847 
L 243.121051 79.454847 
L 243.121051 213.457048 
z
" clip-path="url(#pc633c8437c)" style="fill: none; stroke: #ed7807; stroke-width: 0.5; stroke-linejoin: miter"/>
   </g>
   <g id="patch_134">
    <path d="M 245.314336 213.457048 
L 247.507621 213.457048 
L 247.507621 78.970878 
L 245.314336 78.970878 
L 245.314336 213.457048 
z
" clip-path="url(#pc633c8437c)" style="fill: none; stroke: #ed7807; stroke-width: 0.5; stroke-linejoin: miter"/>
   </g>
   <g id="patch_135">
    <path d="M 247.507621 213.457048 
L 249.700906 213.457048 
L 249.700906 78.488823 
L 247.507621 78.488823 
L 247.507621 213.457048 
z
" clip-path="url(#pc633c8437c)" style="fill: none; stroke: #ed7807; stroke-width: 0.5; stroke-linejoin: miter"/>
   </g>
   <g id="patch_136">
    <path d="M 249.700906 213.457048 
L 251.89419 213.457048 
L 251.89419 78.008714 
L 249.700906 78.008714 
L 249.700906 213.457048 
z
" clip-path="url(#pc633c8437c)" style="fill: none; stroke: #ed7807; stroke-width: 0.5; stroke-linejoin: miter"/>
   </g>
   <g id="patch_137">
    <path d="M 251.89419 213.457048 
L 254.087475 213.457048 
L 254.087475 77.530584 
L 251.89419 77.530584 
L 251.89419 213.457048 
z
" clip-path="url(#pc633c8437c)" style="fill: none; stroke: #ed7807; stroke-width: 0.5; stroke-linejoin: miter"/>
   </g>
   <g id="patch_138">
    <path d="M 254.087475 213.457048 
L 256.28076 213.457048 
L 256.28076 77.054467 
L 254.087475 77.054467 
L 254.087475 213.457048 
z
" clip-path="url(#pc633c8437c)" style="fill: none; stroke: #ed7807; stroke-width: 0.5; stroke-linejoin: miter"/>
   </g>
   <g id="patch_139">
    <path d="M 256.28076 213.457048 
L 258.474044 213.457048 
L 258.474044 76.580395 
L 256.28076 76.580395 
L 256.28076 213.457048 
z
" clip-path="url(#pc633c8437c)" style="fill: none; stroke: #ed7807; stroke-width: 0.5; stroke-linejoin: miter"/>
   </g>
   <g id="patch_140">
    <path d="M 258.474044 213.457048 
L 260.667329 213.457048 
L 260.667329 76.108401 
L 258.474044 76.108401 
L 258.474044 213.457048 
z
" clip-path="url(#pc633c8437c)" style="fill: none; stroke: #ed7807; stroke-width: 0.5; stroke-linejoin: miter"/>
   </g>
   <g id="patch_141">
    <path d="M 260.667329 213.457048 
L 262.860614 213.457048 
L 262.860614 75.638518 
L 260.667329 75.638518 
L 260.667329 213.457048 
z
" clip-path="url(#pc633c8437c)" style="fill: none; stroke: #ed7807; stroke-width: 0.5; stroke-linejoin: miter"/>
   </g>
   <g id="patch_142">
    <path d="M 262.860614 213.457048 
L 265.053899 213.457048 
L 265.053899 75.170779 
L 262.860614 75.170779 
L 262.860614 213.457048 
z
" clip-path="url(#pc633c8437c)" style="fill: none; stroke: #ed7807; stroke-width: 0.5; stroke-linejoin: miter"/>
   </g>
   <g id="patch_143">
    <path d="M 265.053899 213.457048 
L 267.247183 213.457048 
L 267.247183 74.705217 
L 265.053899 74.705217 
L 265.053899 213.457048 
z
" clip-path="url(#pc633c8437c)" style="fill: none; stroke: #ed7807; stroke-width: 0.5; stroke-linejoin: miter"/>
   </g>
   <g id="patch_144">
    <path d="M 267.247183 213.457048 
L 269.440468 213.457048 
L 269.440468 74.241863 
L 267.247183 74.241863 
L 267.247183 213.457048 
z
" clip-path="url(#pc633c8437c)" style="fill: none; stroke: #ed7807; stroke-width: 0.5; stroke-linejoin: miter"/>
   </g>
   <g id="patch_145">
    <path d="M 269.440468 213.457048 
L 271.633753 213.457048 
L 271.633753 73.780752 
L 269.440468 73.780752 
L 269.440468 213.457048 
z
" clip-path="url(#pc633c8437c)" style="fill: none; stroke: #ed7807; stroke-width: 0.5; stroke-linejoin: miter"/>
   </g>
   <g id="patch_146">
    <path d="M 271.633753 213.457048 
L 273.827038 213.457048 
L 273.827038 73.321914 
L 271.633753 73.321914 
L 271.633753 213.457048 
z
" clip-path="url(#pc633c8437c)" style="fill: none; stroke: #ed7807; stroke-width: 0.5; stroke-linejoin: miter"/>
   </g>
   <g id="patch_147">
    <path d="M 273.827038 213.457048 
L 276.020322 213.457048 
L 276.020322 72.865383 
L 273.827038 72.865383 
L 273.827038 213.457048 
z
" clip-path="url(#pc633c8437c)" style="fill: none; stroke: #ed7807; stroke-width: 0.5; stroke-linejoin: miter"/>
   </g>
   <g id="patch_148">
    <path d="M 276.020322 213.457048 
L 278.213607 213.457048 
L 278.213607 72.411191 
L 276.020322 72.411191 
L 276.020322 213.457048 
z
" clip-path="url(#pc633c8437c)" style="fill: none; stroke: #ed7807; stroke-width: 0.5; stroke-linejoin: miter"/>
   </g>
   <g id="patch_149">
    <path d="M 278.213607 213.457048 
L 280.406892 213.457048 
L 280.406892 71.95937 
L 278.213607 71.95937 
L 278.213607 213.457048 
z
" clip-path="url(#pc633c8437c)" style="fill: none; stroke: #ed7807; stroke-width: 0.5; stroke-linejoin: miter"/>
   </g>
   <g id="patch_150">
    <path d="M 280.406892 213.457048 
L 282.600176 213.457048 
L 282.600176 71.509953 
L 280.406892 71.509953 
L 280.406892 213.457048 
z
" clip-path="url(#pc633c8437c)" style="fill: none; stroke: #ed7807; stroke-width: 0.5; stroke-linejoin: miter"/>
   </g>
   <g id="patch_151">
    <path d="M 282.600176 213.457048 
L 284.793461 213.457048 
L 284.793461 71.06297 
L 282.600176 71.06297 
L 282.600176 213.457048 
z
" clip-path="url(#pc633c8437c)" style="fill: none; stroke: #ed7807; stroke-width: 0.5; stroke-linejoin: miter"/>
   </g>
   <g id="patch_152">
    <path d="M 284.793461 213.457048 
L 286.986746 213.457048 
L 286.986746 70.618455 
L 284.793461 70.618455 
L 284.793461 213.457048 
z
" clip-path="url(#pc633c8437c)" style="fill: none; stroke: #ed7807; stroke-width: 0.5; stroke-linejoin: miter"/>
   </g>
   <g id="patch_153">
    <path d="M 286.986746 213.457048 
L 289.180031 213.457048 
L 289.180031 70.176439 
L 286.986746 70.176439 
L 286.986746 213.457048 
z
" clip-path="url(#pc633c8437c)" style="fill: none; stroke: #ed7807; stroke-width: 0.5; stroke-linejoin: miter"/>
   </g>
   <g id="patch_154">
    <path d="M 289.180031 213.457048 
L 291.373315 213.457048 
L 291.373315 69.736954 
L 289.180031 69.736954 
L 289.180031 213.457048 
z
" clip-path="url(#pc633c8437c)" style="fill: none; stroke: #ed7807; stroke-width: 0.5; stroke-linejoin: miter"/>
   </g>
   <g id="patch_155">
    <path d="M 291.373315 213.457048 
L 293.5666 213.457048 
L 293.5666 69.300032 
L 291.373315 69.300032 
L 291.373315 213.457048 
z
" clip-path="url(#pc633c8437c)" style="fill: none; stroke: #ed7807; stroke-width: 0.5; stroke-linejoin: miter"/>
   </g>
   <g id="patch_156">
    <path d="M 293.5666 213.457048 
L 295.759885 213.457048 
L 295.759885 68.865703 
L 293.5666 68.865703 
L 293.5666 213.457048 
z
" clip-path="url(#pc633c8437c)" style="fill: none; stroke: #ed7807; stroke-width: 0.5; stroke-linejoin: miter"/>
   </g>
   <g id="patch_157">
    <path d="M 295.759885 213.457048 
L 297.953169 213.457048 
L 297.953169 68.434 
L 295.759885 68.434 
L 295.759885 213.457048 
z
" clip-path="url(#pc633c8437c)" style="fill: none; stroke: #ed7807; stroke-width: 0.5; stroke-linejoin: miter"/>
   </g>
   <g id="patch_158">
    <path d="M 297.953169 213.457048 
L 300.146454 213.457048 
L 300.146454 68.004954 
L 297.953169 68.004954 
L 297.953169 213.457048 
z
" clip-path="url(#pc633c8437c)" style="fill: none; stroke: #ed7807; stroke-width: 0.5; stroke-linejoin: miter"/>
   </g>
   <g id="patch_159">
    <path d="M 300.146454 213.457048 
L 302.339739 213.457048 
L 302.339739 67.578596 
L 300.146454 67.578596 
L 300.146454 213.457048 
z
" clip-path="url(#pc633c8437c)" style="fill: none; stroke: #ed7807; stroke-width: 0.5; stroke-linejoin: miter"/>
   </g>
   <g id="patch_160">
    <path d="M 302.339739 213.457048 
L 304.533024 213.457048 
L 304.533024 67.154956 
L 302.339739 67.154956 
L 302.339739 213.457048 
z
" clip-path="url(#pc633c8437c)" style="fill: none; stroke: #ed7807; stroke-width: 0.5; stroke-linejoin: miter"/>
   </g>
   <g id="patch_161">
    <path d="M 304.533024 213.457048 
L 306.726308 213.457048 
L 306.726308 66.734067 
L 304.533024 66.734067 
L 304.533024 213.457048 
z
" clip-path="url(#pc633c8437c)" style="fill: none; stroke: #ed7807; stroke-width: 0.5; stroke-linejoin: miter"/>
   </g>
   <g id="patch_162">
    <path d="M 306.726308 213.457048 
L 308.919593 213.457048 
L 308.919593 66.315958 
L 306.726308 66.315958 
L 306.726308 213.457048 
z
" clip-path="url(#pc633c8437c)" style="fill: none; stroke: #ed7807; stroke-width: 0.5; stroke-linejoin: miter"/>
   </g>
   <g id="patch_163">
    <path d="M 308.919593 213.457048 
L 311.112878 213.457048 
L 311.112878 65.900661 
L 308.919593 65.900661 
L 308.919593 213.457048 
z
" clip-path="url(#pc633c8437c)" style="fill: none; stroke: #ed7807; stroke-width: 0.5; stroke-linejoin: miter"/>
   </g>
   <g id="patch_164">
    <path d="M 311.112878 213.457048 
L 313.306163 213.457048 
L 313.306163 65.488205 
L 311.112878 65.488205 
L 311.112878 213.457048 
z
" clip-path="url(#pc633c8437c)" style="fill: none; stroke: #ed7807; stroke-width: 0.5; stroke-linejoin: miter"/>
   </g>
   <g id="patch_165">
    <path d="M 313.306163 213.457048 
L 315.499447 213.457048 
L 315.499447 65.078622 
L 313.306163 65.078622 
L 313.306163 213.457048 
z
" clip-path="url(#pc633c8437c)" style="fill: none; stroke: #ed7807; stroke-width: 0.5; stroke-linejoin: miter"/>
   </g>
   <g id="patch_166">
    <path d="M 315.499447 213.457048 
L 317.692732 213.457048 
L 317.692732 64.671941 
L 315.499447 64.671941 
L 315.499447 213.457048 
z
" clip-path="url(#pc633c8437c)" style="fill: none; stroke: #ed7807; stroke-width: 0.5; stroke-linejoin: miter"/>
   </g>
   <g id="patch_167">
    <path d="M 317.692732 213.457048 
L 319.886017 213.457048 
L 319.886017 64.268192 
L 317.692732 64.268192 
L 317.692732 213.457048 
z
" clip-path="url(#pc633c8437c)" style="fill: none; stroke: #ed7807; stroke-width: 0.5; stroke-linejoin: miter"/>
   </g>
   <g id="patch_168">
    <path d="M 319.886017 213.457048 
L 322.079301 213.457048 
L 322.079301 63.867406 
L 319.886017 63.867406 
L 319.886017 213.457048 
z
" clip-path="url(#pc633c8437c)" style="fill: none; stroke: #ed7807; stroke-width: 0.5; stroke-linejoin: miter"/>
   </g>
   <g id="patch_169">
    <path d="M 322.079301 213.457048 
L 324.272586 213.457048 
L 324.272586 63.469611 
L 322.079301 63.469611 
L 322.079301 213.457048 
z
" clip-path="url(#pc633c8437c)" style="fill: none; stroke: #ed7807; stroke-width: 0.5; stroke-linejoin: miter"/>
   </g>
   <g id="patch_170">
    <path d="M 324.272586 213.457048 
L 326.465871 213.457048 
L 326.465871 63.074839 
L 324.272586 63.074839 
L 324.272586 213.457048 
z
" clip-path="url(#pc633c8437c)" style="fill: none; stroke: #ed7807; stroke-width: 0.5; stroke-linejoin: miter"/>
   </g>
   <g id="patch_171">
    <path d="M 326.465871 213.457048 
L 328.659156 213.457048 
L 328.659156 62.683117 
L 326.465871 62.683117 
L 326.465871 213.457048 
z
" clip-path="url(#pc633c8437c)" style="fill: none; stroke: #ed7807; stroke-width: 0.5; stroke-linejoin: miter"/>
   </g>
   <g id="patch_172">
    <path d="M 328.659156 213.457048 
L 330.85244 213.457048 
L 330.85244 62.294475 
L 328.659156 62.294475 
L 328.659156 213.457048 
z
" clip-path="url(#pc633c8437c)" style="fill: none; stroke: #ed7807; stroke-width: 0.5; stroke-linejoin: miter"/>
   </g>
   <g id="patch_173">
    <path d="M 330.85244 213.457048 
L 333.045725 213.457048 
L 333.045725 61.908943 
L 330.85244 61.908943 
L 330.85244 213.457048 
z
" clip-path="url(#pc633c8437c)" style="fill: none; stroke: #ed7807; stroke-width: 0.5; stroke-linejoin: miter"/>
   </g>
   <g id="patch_174">
    <path d="M 333.045725 213.457048 
L 335.23901 213.457048 
L 335.23901 61.526549 
L 333.045725 61.526549 
L 333.045725 213.457048 
z
" clip-path="url(#pc633c8437c)" style="fill: none; stroke: #ed7807; stroke-width: 0.5; stroke-linejoin: miter"/>
   </g>
   <g id="patch_175">
    <path d="M 335.23901 213.457048 
L 337.432294 213.457048 
L 337.432294 61.147322 
L 335.23901 61.147322 
L 335.23901 213.457048 
z
" clip-path="url(#pc633c8437c)" style="fill: none; stroke: #ed7807; stroke-width: 0.5; stroke-linejoin: miter"/>
   </g>
   <g id="patch_176">
    <path d="M 337.432294 213.457048 
L 339.625579 213.457048 
L 339.625579 60.77129 
L 337.432294 60.77129 
L 337.432294 213.457048 
z
" clip-path="url(#pc633c8437c)" style="fill: none; stroke: #ed7807; stroke-width: 0.5; stroke-linejoin: miter"/>
   </g>
   <g id="patch_177">
    <path d="M 339.625579 213.457048 
L 341.818864 213.457048 
L 341.818864 60.398482 
L 339.625579 60.398482 
L 339.625579 213.457048 
z
" clip-path="url(#pc633c8437c)" style="fill: none; stroke: #ed7807; stroke-width: 0.5; stroke-linejoin: miter"/>
   </g>
   <g id="patch_178">
    <path d="M 341.818864 213.457048 
L 344.012149 213.457048 
L 344.012149 60.028926 
L 341.818864 60.028926 
L 341.818864 213.457048 
z
" clip-path="url(#pc633c8437c)" style="fill: none; stroke: #ed7807; stroke-width: 0.5; stroke-linejoin: miter"/>
   </g>
   <g id="patch_179">
    <path d="M 344.012149 213.457048 
L 346.205433 213.457048 
L 346.205433 59.662649 
L 344.012149 59.662649 
L 344.012149 213.457048 
z
" clip-path="url(#pc633c8437c)" style="fill: none; stroke: #ed7807; stroke-width: 0.5; stroke-linejoin: miter"/>
   </g>
   <g id="patch_180">
    <path d="M 346.205433 213.457048 
L 348.398718 213.457048 
L 348.398718 59.29968 
L 346.205433 59.29968 
L 346.205433 213.457048 
z
" clip-path="url(#pc633c8437c)" style="fill: none; stroke: #ed7807; stroke-width: 0.5; stroke-linejoin: miter"/>
   </g>
   <g id="patch_181">
    <path d="M 348.398718 213.457048 
L 350.592003 213.457048 
L 350.592003 58.940045 
L 348.398718 58.940045 
L 348.398718 213.457048 
z
" clip-path="url(#pc633c8437c)" style="fill: none; stroke: #ed7807; stroke-width: 0.5; stroke-linejoin: miter"/>
   </g>
   <g id="patch_182">
    <path d="M 350.592003 213.457048 
L 352.785288 213.457048 
L 352.785288 58.583773 
L 350.592003 58.583773 
L 350.592003 213.457048 
z
" clip-path="url(#pc633c8437c)" style="fill: none; stroke: #ed7807; stroke-width: 0.5; stroke-linejoin: miter"/>
   </g>
   <g id="patch_183">
    <path d="M 352.785288 213.457048 
L 354.978572 213.457048 
L 354.978572 58.230891 
L 352.785288 58.230891 
L 352.785288 213.457048 
z
" clip-path="url(#pc633c8437c)" style="fill: none; stroke: #ed7807; stroke-width: 0.5; stroke-linejoin: miter"/>
   </g>
   <g id="patch_184">
    <path d="M 354.978572 213.457048 
L 357.171857 213.457048 
L 357.171857 57.881424 
L 354.978572 57.881424 
L 354.978572 213.457048 
z
" clip-path="url(#pc633c8437c)" style="fill: none; stroke: #ed7807; stroke-width: 0.5; stroke-linejoin: miter"/>
   </g>
   <g id="patch_185">
    <path d="M 357.171857 213.457048 
L 359.365142 213.457048 
L 359.365142 57.535401 
L 357.171857 57.535401 
L 357.171857 213.457048 
z
" clip-path="url(#pc633c8437c)" style="fill: none; stroke: #ed7807; stroke-width: 0.5; stroke-linejoin: miter"/>
   </g>
   <g id="patch_186">
    <path d="M 359.365142 213.457048 
L 361.558426 213.457048 
L 361.558426 57.192847 
L 359.365142 57.192847 
L 359.365142 213.457048 
z
" clip-path="url(#pc633c8437c)" style="fill: none; stroke: #ed7807; stroke-width: 0.5; stroke-linejoin: miter"/>
   </g>
   <g id="patch_187">
    <path d="M 361.558426 213.457048 
L 363.751711 213.457048 
L 363.751711 56.853788 
L 361.558426 56.853788 
L 361.558426 213.457048 
z
" clip-path="url(#pc633c8437c)" style="fill: none; stroke: #ed7807; stroke-width: 0.5; stroke-linejoin: miter"/>
   </g>
   <g id="patch_188">
    <path d="M 363.751711 213.457048 
L 365.944996 213.457048 
L 365.944996 56.518252 
L 363.751711 56.518252 
L 363.751711 213.457048 
z
" clip-path="url(#pc633c8437c)" style="fill: none; stroke: #ed7807; stroke-width: 0.5; stroke-linejoin: miter"/>
   </g>
   <g id="patch_189">
    <path d="M 365.944996 213.457048 
L 368.138281 213.457048 
L 368.138281 56.186262 
L 365.944996 56.186262 
L 365.944996 213.457048 
z
" clip-path="url(#pc633c8437c)" style="fill: none; stroke: #ed7807; stroke-width: 0.5; stroke-linejoin: miter"/>
   </g>
   <g id="patch_190">
    <path d="M 368.138281 213.457048 
L 370.331565 213.457048 
L 370.331565 55.857846 
L 368.138281 55.857846 
L 368.138281 213.457048 
z
" clip-path="url(#pc633c8437c)" style="fill: none; stroke: #ed7807; stroke-width: 0.5; stroke-linejoin: miter"/>
   </g>
   <g id="patch_191">
    <path d="M 370.331565 213.457048 
L 372.52485 213.457048 
L 372.52485 55.533027 
L 370.331565 55.533027 
L 370.331565 213.457048 
z
" clip-path="url(#pc633c8437c)" style="fill: none; stroke: #ed7807; stroke-width: 0.5; stroke-linejoin: miter"/>
   </g>
   <g id="patch_192">
    <path d="M 372.52485 213.457048 
L 374.718135 213.457048 
L 374.718135 55.211832 
L 372.52485 55.211832 
L 372.52485 213.457048 
z
" clip-path="url(#pc633c8437c)" style="fill: none; stroke: #ed7807; stroke-width: 0.5; stroke-linejoin: miter"/>
   </g>
   <g id="patch_193">
    <path d="M 374.718135 213.457048 
L 376.911419 213.457048 
L 376.911419 54.894285 
L 374.718135 54.894285 
L 374.718135 213.457048 
z
" clip-path="url(#pc633c8437c)" style="fill: none; stroke: #ed7807; stroke-width: 0.5; stroke-linejoin: miter"/>
   </g>
   <g id="patch_194">
    <path d="M 376.911419 213.457048 
L 379.104704 213.457048 
L 379.104704 54.580411 
L 376.911419 54.580411 
L 376.911419 213.457048 
z
" clip-path="url(#pc633c8437c)" style="fill: none; stroke: #ed7807; stroke-width: 0.5; stroke-linejoin: miter"/>
   </g>
   <g id="patch_195">
    <path d="M 379.104704 213.457048 
L 381.297989 213.457048 
L 381.297989 54.270234 
L 379.104704 54.270234 
L 379.104704 213.457048 
z
" clip-path="url(#pc633c8437c)" style="fill: none; stroke: #ed7807; stroke-width: 0.5; stroke-linejoin: miter"/>
   </g>
   <g id="line2d_8">
    <path d="M 9.3169 88.455644 
L 451.4831 88.455644 
" clip-path="url(#pc633c8437c)" style="fill: none; stroke: #376eb5; stroke-width: 0.8; stroke-linecap: square"/>
   </g>
   <g id="line2d_9">
    <path d="M 9.3169 213.457048 
L 30.372433 213.457048 
" style="fill: none; stroke-dasharray: 2.96,1.28; stroke-dashoffset: 0; stroke: #376eb5; stroke-width: 0.8"/>
   </g>
   <g id="line2d_10">
    <path d="M 100.557544 7.209376 
L 100.557544 113.440559 
" clip-path="url(#pc633c8437c)" style="fill: none; stroke-dasharray: 2.96,1.28; stroke-dashoffset: 0; stroke: #376eb5; stroke-width: 0.8"/>
   </g>
   <g id="line2d_11">
    <path d="M 170.742656 46.427835 
L 170.742656 96.282065 
" clip-path="url(#pc633c8437c)" style="fill: none; stroke-dasharray: 2.96,1.28; stroke-dashoffset: 0; stroke: #376eb5; stroke-width: 0.8"/>
   </g>
   <g id="line2d_12">
    <path d="M 381.297989 7.209376 
L 381.297989 53.963777 
" clip-path="url(#pc633c8437c)" style="fill: none; stroke-dasharray: 2.96,1.28; stroke-dashoffset: 0; stroke: #376eb5; stroke-width: 0.8"/>
   </g>
   <g id="line2d_13">
    <path d="M 240.927767 46.427835 
L 240.927767 79.940697 
" clip-path="url(#pc633c8437c)" style="fill: none; stroke-dasharray: 2.96,1.28; stroke-dashoffset: 0; stroke: #376eb5; stroke-width: 0.8"/>
   </g>
   <g id="patch_196">
    <path d="M 19.844667 91.576416 
Q 19.844667 150.957375 19.844667 210.338334 
" style="fill: none; stroke: #376eb5; stroke-linecap: round"/>
    <path d="M 17.844667 95.576416 
L 19.844667 91.576416 
L 21.844667 95.576416 
" style="fill: none; stroke: #376eb5; stroke-linecap: round"/>
    <path d="M 21.844667 206.338334 
L 19.844667 210.338334 
L 17.844667 206.338334 
" style="fill: none; stroke: #376eb5; stroke-linecap: round"/>
   </g>
   <g id="text_1">
    <!-- threshold -->
    <g style="fill: #376eb5" transform="translate(15.659426 174.500877) rotate(-90) scale(0.1 -0.1)">
     <defs>
      <path id="DejaVuSans-74" d="M 1172 4494 
L 1172 3500 
L 2356 3500 
L 2356 3053 
L 1172 3053 
L 1172 1153 
Q 1172 725 1289 603 
Q 1406 481 1766 481 
L 2356 481 
L 2356 0 
L 1766 0 
Q 1100 0 847 248 
Q 594 497 594 1153 
L 594 3053 
L 172 3053 
L 172 3500 
L 594 3500 
L 594 4494 
L 1172 4494 
z
" transform="scale(0.015625)"/>
      <path id="DejaVuSans-68" d="M 3513 2113 
L 3513 0 
L 2938 0 
L 2938 2094 
Q 2938 2591 2744 2837 
Q 2550 3084 2163 3084 
Q 1697 3084 1428 2787 
Q 1159 2491 1159 1978 
L 1159 0 
L 581 0 
L 581 4863 
L 1159 4863 
L 1159 2956 
Q 1366 3272 1645 3428 
Q 1925 3584 2291 3584 
Q 2894 3584 3203 3211 
Q 3513 2838 3513 2113 
z
" transform="scale(0.015625)"/>
      <path id="DejaVuSans-72" d="M 2631 2963 
Q 2534 3019 2420 3045 
Q 2306 3072 2169 3072 
Q 1681 3072 1420 2755 
Q 1159 2438 1159 1844 
L 1159 0 
L 581 0 
L 581 3500 
L 1159 3500 
L 1159 2956 
Q 1341 3275 1631 3429 
Q 1922 3584 2338 3584 
Q 2397 3584 2469 3576 
Q 2541 3569 2628 3553 
L 2631 2963 
z
" transform="scale(0.015625)"/>
      <path id="DejaVuSans-65" d="M 3597 1894 
L 3597 1613 
L 953 1613 
Q 991 1019 1311 708 
Q 1631 397 2203 397 
Q 2534 397 2845 478 
Q 3156 559 3463 722 
L 3463 178 
Q 3153 47 2828 -22 
Q 2503 -91 2169 -91 
Q 1331 -91 842 396 
Q 353 884 353 1716 
Q 353 2575 817 3079 
Q 1281 3584 2069 3584 
Q 2775 3584 3186 3129 
Q 3597 2675 3597 1894 
z
M 3022 2063 
Q 3016 2534 2758 2815 
Q 2500 3097 2075 3097 
Q 1594 3097 1305 2825 
Q 1016 2553 972 2059 
L 3022 2063 
z
" transform="scale(0.015625)"/>
      <path id="DejaVuSans-73" d="M 2834 3397 
L 2834 2853 
Q 2591 2978 2328 3040 
Q 2066 3103 1784 3103 
Q 1356 3103 1142 2972 
Q 928 2841 928 2578 
Q 928 2378 1081 2264 
Q 1234 2150 1697 2047 
L 1894 2003 
Q 2506 1872 2764 1633 
Q 3022 1394 3022 966 
Q 3022 478 2636 193 
Q 2250 -91 1575 -91 
Q 1294 -91 989 -36 
Q 684 19 347 128 
L 347 722 
Q 666 556 975 473 
Q 1284 391 1588 391 
Q 1994 391 2212 530 
Q 2431 669 2431 922 
Q 2431 1156 2273 1281 
Q 2116 1406 1581 1522 
L 1381 1569 
Q 847 1681 609 1914 
Q 372 2147 372 2553 
Q 372 3047 722 3315 
Q 1072 3584 1716 3584 
Q 2034 3584 2315 3537 
Q 2597 3491 2834 3397 
z
" transform="scale(0.015625)"/>
      <path id="DejaVuSans-6f" d="M 1959 3097 
Q 1497 3097 1228 2736 
Q 959 2375 959 1747 
Q 959 1119 1226 758 
Q 1494 397 1959 397 
Q 2419 397 2687 759 
Q 2956 1122 2956 1747 
Q 2956 2369 2687 2733 
Q 2419 3097 1959 3097 
z
M 1959 3584 
Q 2709 3584 3137 3096 
Q 3566 2609 3566 1747 
Q 3566 888 3137 398 
Q 2709 -91 1959 -91 
Q 1206 -91 779 398 
Q 353 888 353 1747 
Q 353 2609 779 3096 
Q 1206 3584 1959 3584 
z
" transform="scale(0.015625)"/>
      <path id="DejaVuSans-6c" d="M 603 4863 
L 1178 4863 
L 1178 0 
L 603 0 
L 603 4863 
z
" transform="scale(0.015625)"/>
      <path id="DejaVuSans-64" d="M 2906 2969 
L 2906 4863 
L 3481 4863 
L 3481 0 
L 2906 0 
L 2906 525 
Q 2725 213 2448 61 
Q 2172 -91 1784 -91 
Q 1150 -91 751 415 
Q 353 922 353 1747 
Q 353 2572 751 3078 
Q 1150 3584 1784 3584 
Q 2172 3584 2448 3432 
Q 2725 3281 2906 2969 
z
M 947 1747 
Q 947 1113 1208 752 
Q 1469 391 1925 391 
Q 2381 391 2643 752 
Q 2906 1113 2906 1747 
Q 2906 2381 2643 2742 
Q 2381 3103 1925 3103 
Q 1469 3103 1208 2742 
Q 947 2381 947 1747 
z
" transform="scale(0.015625)"/>
     </defs>
     <use xlink:href="#DejaVuSans-74"/>
     <use xlink:href="#DejaVuSans-68" x="39.208984"/>
     <use xlink:href="#DejaVuSans-72" x="102.587891"/>
     <use xlink:href="#DejaVuSans-65" x="141.451172"/>
     <use xlink:href="#DejaVuSans-73" x="202.974609"/>
     <use xlink:href="#DejaVuSans-68" x="255.074219"/>
     <use xlink:href="#DejaVuSans-6f" x="318.453125"/>
     <use xlink:href="#DejaVuSans-6c" x="379.634766"/>
     <use xlink:href="#DejaVuSans-64" x="407.417969"/>
    </g>
   </g>
   <g id="text_2">
    <!-- 5000 ps -->
    <g style="fill: #376eb5" transform="translate(45.37202 225.320069) scale(0.1 -0.1)">
     <defs>
      <path id="DejaVuSans-35" d="M 691 4666 
L 3169 4666 
L 3169 4134 
L 1269 4134 
L 1269 2991 
Q 1406 3038 1543 3061 
Q 1681 3084 1819 3084 
Q 2600 3084 3056 2656 
Q 3513 2228 3513 1497 
Q 3513 744 3044 326 
Q 2575 -91 1722 -91 
Q 1428 -91 1123 -41 
Q 819 9 494 109 
L 494 744 
Q 775 591 1075 516 
Q 1375 441 1709 441 
Q 2250 441 2565 725 
Q 2881 1009 2881 1497 
Q 2881 1984 2565 2268 
Q 2250 2553 1709 2553 
Q 1456 2553 1204 2497 
Q 953 2441 691 2322 
L 691 4666 
z
" transform="scale(0.015625)"/>
      <path id="DejaVuSans-30" d="M 2034 4250 
Q 1547 4250 1301 3770 
Q 1056 3291 1056 2328 
Q 1056 1369 1301 889 
Q 1547 409 2034 409 
Q 2525 409 2770 889 
Q 3016 1369 3016 2328 
Q 3016 3291 2770 3770 
Q 2525 4250 2034 4250 
z
M 2034 4750 
Q 2819 4750 3233 4129 
Q 3647 3509 3647 2328 
Q 3647 1150 3233 529 
Q 2819 -91 2034 -91 
Q 1250 -91 836 529 
Q 422 1150 422 2328 
Q 422 3509 836 4129 
Q 1250 4750 2034 4750 
z
" transform="scale(0.015625)"/>
      <path id="DejaVuSans-20" transform="scale(0.015625)"/>
      <path id="DejaVuSans-70" d="M 1159 525 
L 1159 -1331 
L 581 -1331 
L 581 3500 
L 1159 3500 
L 1159 2969 
Q 1341 3281 1617 3432 
Q 1894 3584 2278 3584 
Q 2916 3584 3314 3078 
Q 3713 2572 3713 1747 
Q 3713 922 3314 415 
Q 2916 -91 2278 -91 
Q 1894 -91 1617 61 
Q 1341 213 1159 525 
z
M 3116 1747 
Q 3116 2381 2855 2742 
Q 2594 3103 2138 3103 
Q 1681 3103 1420 2742 
Q 1159 2381 1159 1747 
Q 1159 1113 1420 752 
Q 1681 391 2138 391 
Q 2594 391 2855 752 
Q 3116 1113 3116 1747 
z
" transform="scale(0.015625)"/>
     </defs>
     <use xlink:href="#DejaVuSans-35"/>
     <use xlink:href="#DejaVuSans-30" x="63.623047"/>
     <use xlink:href="#DejaVuSans-30" x="127.246094"/>
     <use xlink:href="#DejaVuSans-30" x="190.869141"/>
     <use xlink:href="#DejaVuSans-20" x="254.492188"/>
     <use xlink:href="#DejaVuSans-70" x="286.279297"/>
     <use xlink:href="#DejaVuSans-73" x="349.755859"/>
    </g>
   </g>
   <g id="patch_197">
    <path d="M 168.74214 48.133669 
Q 135.650721 48.133669 103.677336 48.133669 
" style="fill: none; stroke: #376eb5; stroke-linecap: round"/>
    <path d="M 107.677336 50.133669 
L 103.677336 48.133669 
L 107.677336 46.133669 
" style="fill: none; stroke: #376eb5; stroke-linecap: round"/>
   </g>
   <g id="text_3">
    <!--  precursor = 1 -->
    <g style="fill: #376eb5" transform="translate(100.557544 41.310335) scale(0.1 -0.1)">
     <defs>
      <path id="DejaVuSans-63" d="M 3122 3366 
L 3122 2828 
Q 2878 2963 2633 3030 
Q 2388 3097 2138 3097 
Q 1578 3097 1268 2742 
Q 959 2388 959 1747 
Q 959 1106 1268 751 
Q 1578 397 2138 397 
Q 2388 397 2633 464 
Q 2878 531 3122 666 
L 3122 134 
Q 2881 22 2623 -34 
Q 2366 -91 2075 -91 
Q 1284 -91 818 406 
Q 353 903 353 1747 
Q 353 2603 823 3093 
Q 1294 3584 2113 3584 
Q 2378 3584 2631 3529 
Q 2884 3475 3122 3366 
z
" transform="scale(0.015625)"/>
      <path id="DejaVuSans-75" d="M 544 1381 
L 544 3500 
L 1119 3500 
L 1119 1403 
Q 1119 906 1312 657 
Q 1506 409 1894 409 
Q 2359 409 2629 706 
Q 2900 1003 2900 1516 
L 2900 3500 
L 3475 3500 
L 3475 0 
L 2900 0 
L 2900 538 
Q 2691 219 2414 64 
Q 2138 -91 1772 -91 
Q 1169 -91 856 284 
Q 544 659 544 1381 
z
M 1991 3584 
L 1991 3584 
z
" transform="scale(0.015625)"/>
      <path id="DejaVuSans-3d" d="M 678 2906 
L 4684 2906 
L 4684 2381 
L 678 2381 
L 678 2906 
z
M 678 1631 
L 4684 1631 
L 4684 1100 
L 678 1100 
L 678 1631 
z
" transform="scale(0.015625)"/>
      <path id="DejaVuSans-31" d="M 794 531 
L 1825 531 
L 1825 4091 
L 703 3866 
L 703 4441 
L 1819 4666 
L 2450 4666 
L 2450 531 
L 3481 531 
L 3481 0 
L 794 0 
L 794 531 
z
" transform="scale(0.015625)"/>
     </defs>
     <use xlink:href="#DejaVuSans-20"/>
     <use xlink:href="#DejaVuSans-70" x="31.787109"/>
     <use xlink:href="#DejaVuSans-72" x="95.263672"/>
     <use xlink:href="#DejaVuSans-65" x="134.126953"/>
     <use xlink:href="#DejaVuSans-63" x="195.650391"/>
     <use xlink:href="#DejaVuSans-75" x="250.630859"/>
     <use xlink:href="#DejaVuSans-72" x="314.009766"/>
     <use xlink:href="#DejaVuSans-73" x="355.123047"/>
     <use xlink:href="#DejaVuSans-6f" x="407.222656"/>
     <use xlink:href="#DejaVuSans-72" x="468.404297"/>
     <use xlink:href="#DejaVuSans-20" x="509.517578"/>
     <use xlink:href="#DejaVuSans-3d" x="541.304688"/>
     <use xlink:href="#DejaVuSans-20" x="625.09375"/>
     <use xlink:href="#DejaVuSans-31" x="656.880859"/>
    </g>
   </g>
   <g id="patch_198">
    <path d="M 378.179439 48.133669 
Q 311.111291 48.133669 242.925108 48.133669 
" style="fill: none; stroke: #376eb5; stroke-linecap: round"/>
    <path d="M 374.179439 46.133669 
L 378.179439 48.133669 
L 374.179439 50.133669 
" style="fill: none; stroke: #376eb5; stroke-linecap: round"/>
   </g>
   <g id="text_4">
    <!--  length = 2 -->
    <g style="fill: #376eb5" transform="translate(240.927767 41.310335) scale(0.1 -0.1)">
     <defs>
      <path id="DejaVuSans-6e" d="M 3513 2113 
L 3513 0 
L 2938 0 
L 2938 2094 
Q 2938 2591 2744 2837 
Q 2550 3084 2163 3084 
Q 1697 3084 1428 2787 
Q 1159 2491 1159 1978 
L 1159 0 
L 581 0 
L 581 3500 
L 1159 3500 
L 1159 2956 
Q 1366 3272 1645 3428 
Q 1925 3584 2291 3584 
Q 2894 3584 3203 3211 
Q 3513 2838 3513 2113 
z
" transform="scale(0.015625)"/>
      <path id="DejaVuSans-67" d="M 2906 1791 
Q 2906 2416 2648 2759 
Q 2391 3103 1925 3103 
Q 1463 3103 1205 2759 
Q 947 2416 947 1791 
Q 947 1169 1205 825 
Q 1463 481 1925 481 
Q 2391 481 2648 825 
Q 2906 1169 2906 1791 
z
M 3481 434 
Q 3481 -459 3084 -895 
Q 2688 -1331 1869 -1331 
Q 1566 -1331 1297 -1286 
Q 1028 -1241 775 -1147 
L 775 -588 
Q 1028 -725 1275 -790 
Q 1522 -856 1778 -856 
Q 2344 -856 2625 -561 
Q 2906 -266 2906 331 
L 2906 616 
Q 2728 306 2450 153 
Q 2172 0 1784 0 
Q 1141 0 747 490 
Q 353 981 353 1791 
Q 353 2603 747 3093 
Q 1141 3584 1784 3584 
Q 2172 3584 2450 3431 
Q 2728 3278 2906 2969 
L 2906 3500 
L 3481 3500 
L 3481 434 
z
" transform="scale(0.015625)"/>
      <path id="DejaVuSans-32" d="M 1228 531 
L 3431 531 
L 3431 0 
L 469 0 
L 469 531 
Q 828 903 1448 1529 
Q 2069 2156 2228 2338 
Q 2531 2678 2651 2914 
Q 2772 3150 2772 3378 
Q 2772 3750 2511 3984 
Q 2250 4219 1831 4219 
Q 1534 4219 1204 4116 
Q 875 4013 500 3803 
L 500 4441 
Q 881 4594 1212 4672 
Q 1544 4750 1819 4750 
Q 2544 4750 2975 4387 
Q 3406 4025 3406 3419 
Q 3406 3131 3298 2873 
Q 3191 2616 2906 2266 
Q 2828 2175 2409 1742 
Q 1991 1309 1228 531 
z
" transform="scale(0.015625)"/>
     </defs>
     <use xlink:href="#DejaVuSans-20"/>
     <use xlink:href="#DejaVuSans-6c" x="31.787109"/>
     <use xlink:href="#DejaVuSans-65" x="59.570312"/>
     <use xlink:href="#DejaVuSans-6e" x="121.09375"/>
     <use xlink:href="#DejaVuSans-67" x="184.472656"/>
     <use xlink:href="#DejaVuSans-74" x="247.949219"/>
     <use xlink:href="#DejaVuSans-68" x="287.158203"/>
     <use xlink:href="#DejaVuSans-20" x="350.537109"/>
     <use xlink:href="#DejaVuSans-3d" x="382.324219"/>
     <use xlink:href="#DejaVuSans-20" x="466.113281"/>
     <use xlink:href="#DejaVuSans-32" x="497.900391"/>
    </g>
   </g>
   <g id="patch_199">
    <path d="M 378.179439 8.91521 
Q 240.929145 8.91521 103.678852 8.91521 
" style="fill: none; stroke: #376eb5; stroke-linecap: round"/>
    <path d="M 374.179439 6.91521 
L 378.179439 8.91521 
L 374.179439 10.91521 
" style="fill: none; stroke: #376eb5; stroke-linecap: round"/>
    <path d="M 107.678852 10.91521 
L 103.678852 8.91521 
L 107.678852 6.91521 
" style="fill: none; stroke: #376eb5; stroke-linecap: round"/>
   </g>
   <g id="text_5">
    <!-- total length = 4 -->
    <g style="fill: #376eb5" transform="translate(201.419173 23.336981) scale(0.1 -0.1)">
     <defs>
      <path id="DejaVuSans-61" d="M 2194 1759 
Q 1497 1759 1228 1600 
Q 959 1441 959 1056 
Q 959 750 1161 570 
Q 1363 391 1709 391 
Q 2188 391 2477 730 
Q 2766 1069 2766 1631 
L 2766 1759 
L 2194 1759 
z
M 3341 1997 
L 3341 0 
L 2766 0 
L 2766 531 
Q 2569 213 2275 61 
Q 1981 -91 1556 -91 
Q 1019 -91 701 211 
Q 384 513 384 1019 
Q 384 1609 779 1909 
Q 1175 2209 1959 2209 
L 2766 2209 
L 2766 2266 
Q 2766 2663 2505 2880 
Q 2244 3097 1772 3097 
Q 1472 3097 1187 3025 
Q 903 2953 641 2809 
L 641 3341 
Q 956 3463 1253 3523 
Q 1550 3584 1831 3584 
Q 2591 3584 2966 3190 
Q 3341 2797 3341 1997 
z
" transform="scale(0.015625)"/>
      <path id="DejaVuSans-34" d="M 2419 4116 
L 825 1625 
L 2419 1625 
L 2419 4116 
z
M 2253 4666 
L 3047 4666 
L 3047 1625 
L 3713 1625 
L 3713 1100 
L 3047 1100 
L 3047 0 
L 2419 0 
L 2419 1100 
L 313 1100 
L 313 1709 
L 2253 4666 
z
" transform="scale(0.015625)"/>
     </defs>
     <use xlink:href="#DejaVuSans-74"/>
     <use xlink:href="#DejaVuSans-6f" x="39.208984"/>
     <use xlink:href="#DejaVuSans-74" x="100.390625"/>
     <use xlink:href="#DejaVuSans-61" x="139.599609"/>
     <use xlink:href="#DejaVuSans-6c" x="200.878906"/>
     <use xlink:href="#DejaVuSans-20" x="228.662109"/>
     <use xlink:href="#DejaVuSans-6c" x="260.449219"/>
     <use xlink:href="#DejaVuSans-65" x="288.232422"/>
     <use xlink:href="#DejaVuSans-6e" x="349.755859"/>
     <use xlink:href="#DejaVuSans-67" x="413.134766"/>
     <use xlink:href="#DejaVuSans-74" x="476.611328"/>
     <use xlink:href="#DejaVuSans-68" x="515.820312"/>
     <use xlink:href="#DejaVuSans-20" x="579.199219"/>
     <use xlink:href="#DejaVuSans-3d" x="610.986328"/>
     <use xlink:href="#DejaVuSans-20" x="694.775391"/>
     <use xlink:href="#DejaVuSans-34" x="726.5625"/>
    </g>
   </g>
  </g>
 </g>
 <defs>
  <clipPath id="pc633c8437c">
   <rect x="3.00024" y="3.00024" width="454.79952" height="210.456808"/>
  </clipPath>
 </defs>
</svg>
