<?xml version="1.0" encoding="UTF-8" standalone="no"?>
<!-- Created with Inkscape (http://www.inkscape.org/) -->

<svg
   xmlns:dc="http://purl.org/dc/elements/1.1/"
   xmlns:cc="http://creativecommons.org/ns#"
   xmlns:rdf="http://www.w3.org/1999/02/22-rdf-syntax-ns#"
   xmlns:svg="http://www.w3.org/2000/svg"
   xmlns="http://www.w3.org/2000/svg"
   xmlns:sodipodi="http://sodipodi.sourceforge.net/DTD/sodipodi-0.dtd"
   xmlns:inkscape="http://www.inkscape.org/namespaces/inkscape"
   width="778.2666"
   height="321.13635"
   id="svg2"
   version="1.1"
   inkscape:version="0.48.4 r9939"
   sodipodi:docname="2ChannelMode.svg">
  <defs
     id="defs4">
    <filter
       id="filter3075"
       inkscape:label="Drop Shadow"
       color-interpolation-filters="sRGB">
      <feFlood
         id="feFlood3077"
         flood-opacity="0.5"
         flood-color="rgb(0,0,0)"
         result="flood" />
      <feComposite
         id="feComposite3079"
         in2="SourceGraphic"
         in="flood"
         operator="in"
         result="composite1" />
      <feGaussianBlur
         id="feGaussianBlur3081"
         stdDeviation="4"
         result="blur" />
      <feOffset
         id="feOffset3083"
         dx="4"
         dy="4"
         result="offset" />
      <feComposite
         id="feComposite3085"
         in2="offset"
         in="SourceGraphic"
         operator="over"
         result="composite2" />
    </filter>
  </defs>
  <sodipodi:namedview
     id="base"
     pagecolor="#ffffff"
     bordercolor="#666666"
     borderopacity="1.0"
     inkscape:pageopacity="0.0"
     inkscape:pageshadow="2"
     inkscape:zoom="1.4"
     inkscape:cx="516.87762"
     inkscape:cy="192.45477"
     inkscape:document-units="px"
     inkscape:current-layer="layer1"
     showgrid="false"
     fit-margin-top="0"
     fit-margin-left="0"
     fit-margin-right="0"
     fit-margin-bottom="0"
     inkscape:window-width="1680"
     inkscape:window-height="987"
     inkscape:window-x="-8"
     inkscape:window-y="-8"
     inkscape:window-maximized="1" />
  <metadata
     id="metadata7">
    <rdf:RDF>
      <cc:Work
         rdf:about="">
        <dc:format>image/svg+xml</dc:format>
        <dc:type
           rdf:resource="http://purl.org/dc/dcmitype/StillImage" />
        <dc:title />
      </cc:Work>
    </rdf:RDF>
  </metadata>
  <g
     inkscape:label="Ebene 1"
     inkscape:groupmode="layer"
     id="layer1"
     transform="translate(166.87762,-403.68058)">
    <rect
       style="fill:#ffffff;fill-opacity:1;stroke:#000000;stroke-width:1.51828432;stroke-linecap:round;stroke-linejoin:round;stroke-miterlimit:4;stroke-opacity:1;stroke-dasharray:none;filter:url(#filter3075)"
       id="rect3073"
       width="794.98175"
       height="327.12454"
       x="-97.337975"
       y="368.54004"
       transform="matrix(0.83699515,0,0,0.83699515,-28.973643,118.87748)" />
    <g
       id="g2989"
       transform="matrix(0.83699515,0,0,0.83699515,-107.39303,433.37436)">
      <text
         id="text2991"
         style="font-size:16.26599503px;font-style:normal;font-weight:normal;text-align:start;text-anchor:start;fill:#000000;font-family:Arial"
         y="103.85212"
         x="21.270916"
         xml:space="preserve">CLK</text>
      <text
         id="text2993"
         style="font-size:16.26599503px;font-style:normal;font-weight:normal;text-align:start;text-anchor:start;fill:#000000;font-family:Arial"
         y="123.87181"
         x="2.5024607"
         xml:space="preserve">(</text>
      <text
         id="text2995"
         style="font-size:16.26599503px;font-style:normal;font-weight:normal;text-align:start;text-anchor:start;fill:#000000;font-family:Arial"
         y="123.87181"
         x="7.5073824"
         xml:space="preserve">2.5</text>
      <text
         id="text2997"
         style="font-size:16.26599503px;font-style:normal;font-weight:normal;text-align:start;text-anchor:start;fill:#000000;font-family:Arial"
         y="123.87181"
         x="35.034451"
         xml:space="preserve">GHz</text>
      <text
         id="text2999"
         style="font-size:16.26599503px;font-style:normal;font-weight:normal;text-align:start;text-anchor:start;fill:#000000;font-family:Arial"
         y="123.87181"
         x="68.817673"
         xml:space="preserve">)</text>
      <path
         id="path3001"
         d="m 85.396472,109.32625 26.041228,0"
         style="fill:none;stroke:#000000;stroke-width:2.03324938px;stroke-linecap:round;stroke-linejoin:round;stroke-opacity:1;stroke-dasharray:none"
         inkscape:connector-curvature="0" />
      <path
         id="path3003"
         d="m 120.82193,109.32625 -12.4341,6.17795 c 1.95505,-3.91009 1.95505,-8.524 0,-12.3559 l 12.4341,6.17795 z"
         style="fill:#000000;fill-opacity:1;fill-rule:evenodd;stroke:none"
         inkscape:connector-curvature="0" />
      <path
         id="path3005"
         d="m 120.82193,85.70928 0,47.23395 82.73761,0 0,-47.23395 -82.73761,0 z"
         style="fill:#ffffff;fill-opacity:1;fill-rule:evenodd;stroke:none"
         inkscape:connector-curvature="0" />
      <path
         id="path3007"
         d="m 120.82193,132.94323 82.73761,0 0,-47.23395 -82.73761,0 0,47.23395 z"
         style="fill:none;stroke:#000000;stroke-width:2.03324938px;stroke-linecap:round;stroke-linejoin:round;stroke-opacity:1;stroke-dasharray:none"
         inkscape:connector-curvature="0" />
      <text
         id="text3009"
         style="font-size:16.26599503px;font-style:normal;font-weight:normal;text-align:start;text-anchor:start;fill:#000000;font-family:Arial"
         y="103.85212"
         x="138.88657"
         xml:space="preserve">Clock </text>
      <text
         id="text3011"
         style="font-size:16.26599503px;font-style:normal;font-weight:normal;text-align:start;text-anchor:start;fill:#000000;font-family:Arial"
         y="123.87181"
         x="140.1378"
         xml:space="preserve">circuit</text>
      <text
         id="text3013"
         style="font-size:16.26599503px;font-style:normal;font-weight:normal;text-align:start;text-anchor:start;fill:#0070c0;font-family:Arial"
         y="57.556599"
         x="150.14764"
         xml:space="preserve">Inverted</text>
      <text
         id="text3015"
         style="font-size:16.26599503px;font-style:normal;font-weight:normal;text-align:start;text-anchor:start;fill:#0070c0;font-family:Arial"
         y="77.576279"
         x="145.14272"
         xml:space="preserve">1.25</text>
      <text
         id="text3017"
         style="font-size:16.26599503px;font-style:normal;font-weight:normal;text-align:start;text-anchor:start;fill:#0070c0;font-family:Arial"
         y="77.576279"
         x="181.42841"
         xml:space="preserve">GHz</text>
      <path
         id="path3019"
         d="m 97.204959,274.80147 685.674241,0 0,-271.9079998 -685.674241,0 0,271.9079998 z"
         style="fill:none;stroke:#000000;stroke-width:2.03324938px;stroke-linecap:round;stroke-linejoin:round;stroke-opacity:1;stroke-dasharray:none"
         inkscape:connector-curvature="0" />
      <path
         id="path3021"
         d="m 203.55954,121.13474 61.54489,0"
         style="fill:none;stroke:#000000;stroke-width:2.03324938px;stroke-linecap:round;stroke-linejoin:round;stroke-opacity:1;stroke-dasharray:none"
         inkscape:connector-curvature="0" />
      <path
         id="path3023"
         d="m 274.48866,121.13474 -12.3559,6.17795 c 1.95505,-3.9101 1.95505,-8.44581 0,-12.3559 l 0,0 12.3559,6.17795 z"
         style="fill:#000000;fill-opacity:1;fill-rule:evenodd;stroke:none"
         inkscape:connector-curvature="0" />
      <path
         id="path3025"
         d="m 274.48866,73.822591 82.81581,0 0,80.391549 -41.3688,37.84972 -41.44701,-37.84972 0,-80.391549 z"
         style="fill:none;stroke:#000000;stroke-width:2.03324938px;stroke-linecap:round;stroke-linejoin:round;stroke-opacity:1;stroke-dasharray:none"
         inkscape:connector-curvature="0" />
      <text
         id="text3027"
         style="font-size:16.26599503px;font-style:normal;font-weight:normal;text-align:start;text-anchor:start;fill:#000000;font-family:Arial"
         y="121.36934"
         x="290.28543"
         xml:space="preserve">ADC A</text>
      <text
         id="text3029"
         style="font-size:16.26599503px;font-style:normal;font-weight:normal;text-align:start;text-anchor:start;fill:#000000;font-family:Arial"
         y="141.38902"
         x="277.77313"
         xml:space="preserve">1.25</text>
      <text
         id="text3031"
         style="font-size:16.26599503px;font-style:normal;font-weight:normal;text-align:start;text-anchor:start;fill:#000000;font-family:Arial"
         y="141.38902"
         x="315.31006"
         xml:space="preserve">Gsps</text>
      <path
         id="path3033"
         d="m 404.53842,73.822591 82.8158,0 0,80.391549 -41.3688,37.84972 -41.447,-37.84972 0,-80.391549 z"
         style="fill:none;stroke:#000000;stroke-width:2.03324938px;stroke-linecap:round;stroke-linejoin:round;stroke-opacity:1;stroke-dasharray:none"
         inkscape:connector-curvature="0" />
      <text
         id="text3035"
         style="font-size:16.26599503px;font-style:normal;font-weight:normal;text-align:start;text-anchor:start;fill:#000000;font-family:Arial"
         y="121.36934"
         x="420.41339"
         xml:space="preserve">ADC B</text>
      <text
         id="text3037"
         style="font-size:16.26599503px;font-style:normal;font-weight:normal;text-align:start;text-anchor:start;fill:#000000;font-family:Arial"
         y="141.38902"
         x="407.90109"
         xml:space="preserve">1.25</text>
      <text
         id="text3039"
         style="font-size:16.26599503px;font-style:normal;font-weight:normal;text-align:start;text-anchor:start;fill:#000000;font-family:Arial"
         y="141.38902"
         x="445.43802"
         xml:space="preserve">Gsps</text>
      <path
         id="path3041"
         d="m 534.58817,73.822591 82.81581,0 0,80.391549 -41.3688,37.84972 -41.44701,-37.84972 0,-80.391549 z"
         style="fill:none;stroke:#000000;stroke-width:2.03324938px;stroke-linecap:round;stroke-linejoin:round;stroke-opacity:1;stroke-dasharray:none"
         inkscape:connector-curvature="0" />
      <text
         id="text3043"
         style="font-size:16.26599503px;font-style:normal;font-weight:normal;text-align:start;text-anchor:start;fill:#000000;font-family:Arial"
         y="121.36934"
         x="550.54138"
         xml:space="preserve">ADC C</text>
      <text
         id="text3045"
         style="font-size:16.26599503px;font-style:normal;font-weight:normal;text-align:start;text-anchor:start;fill:#000000;font-family:Arial"
         y="141.38902"
         x="538.02905"
         xml:space="preserve">1.25</text>
      <text
         id="text3047"
         style="font-size:16.26599503px;font-style:normal;font-weight:normal;text-align:start;text-anchor:start;fill:#000000;font-family:Arial"
         y="141.38902"
         x="575.56598"
         xml:space="preserve">Gsps</text>
      <path
         id="path3049"
         d="m 664.63793,73.822591 82.81581,0 0,80.391549 -41.36881,37.84972 -41.447,-37.84972 0,-80.391549 z"
         style="fill:none;stroke:#000000;stroke-width:2.03324938px;stroke-linecap:round;stroke-linejoin:round;stroke-opacity:1;stroke-dasharray:none"
         inkscape:connector-curvature="0" />
      <text
         id="text3051"
         style="font-size:16.26599503px;font-style:normal;font-weight:normal;text-align:start;text-anchor:start;fill:#000000;font-family:Arial"
         y="121.36934"
         x="680.66931"
         xml:space="preserve">ADC D</text>
      <text
         id="text3053"
         style="font-size:16.26599503px;font-style:normal;font-weight:normal;text-align:start;text-anchor:start;fill:#000000;font-family:Arial"
         y="141.38902"
         x="668.15698"
         xml:space="preserve">1.25</text>
      <text
         id="text3055"
         style="font-size:16.26599503px;font-style:normal;font-weight:normal;text-align:start;text-anchor:start;fill:#000000;font-family:Arial"
         y="141.38902"
         x="705.69391"
         xml:space="preserve">Gsps</text>
      <path
         id="path3057"
         d="m 306.70784,286.68816 0,-81.64278"
         style="fill:none;stroke:#000000;stroke-width:2.03324938px;stroke-linecap:round;stroke-linejoin:round;stroke-opacity:1;stroke-dasharray:none"
         inkscape:connector-curvature="0" />
      <path
         id="path3059"
         d="m 306.70784,195.66115 6.17795,12.3559 c -3.91009,-1.95505 -8.52401,-1.95505 -12.4341,0 l 0,0 6.25615,-12.3559 z"
         style="fill:#000000;fill-opacity:1;fill-rule:evenodd;stroke:none"
         inkscape:connector-curvature="0" />
      <path
         id="path3061"
         d="m 325.6327,286.68816 0,-81.64278"
         style="fill:none;stroke:#000000;stroke-width:2.03324938px;stroke-linecap:round;stroke-linejoin:round;stroke-opacity:1;stroke-dasharray:none"
         inkscape:connector-curvature="0" />
      <path
         id="path3063"
         d="m 325.6327,195.66115 6.17795,12.3559 c -3.91009,-1.95505 -8.52401,-1.95505 -12.4341,0 l 0,0 6.25615,-12.3559 z"
         style="fill:#000000;fill-opacity:1;fill-rule:evenodd;stroke:none"
         inkscape:connector-curvature="0" />
      <path
         id="path3065"
         d="m 436.28839,227.56752 0,-22.52214"
         style="fill:none;stroke:#000000;stroke-width:2.03324938px;stroke-linecap:round;stroke-linejoin:round;stroke-opacity:1;stroke-dasharray:none"
         inkscape:connector-curvature="0" />
      <path
         id="path3067"
         d="m 436.28839,195.66115 6.17795,12.3559 c -3.9101,-1.95505 -8.52401,-1.95505 -12.43411,0 l 0,0 6.25616,-12.3559 z"
         style="fill:#000000;fill-opacity:1;fill-rule:evenodd;stroke:none"
         inkscape:connector-curvature="0" />
      <path
         id="path3069"
         d="m 455.13504,251.18449 0,-46.13911"
         style="fill:none;stroke:#000000;stroke-width:2.03324938px;stroke-linecap:round;stroke-linejoin:round;stroke-opacity:1;stroke-dasharray:none"
         inkscape:connector-curvature="0" />
      <path
         id="path3071"
         d="m 455.13504,195.66115 6.25615,12.3559 c -3.91009,-1.95505 -8.524,-1.95505 -12.4341,0 l 0,0 6.17795,-12.3559 z"
         style="fill:#000000;fill-opacity:1;fill-rule:evenodd;stroke:none"
         inkscape:connector-curvature="0" />
      <path
         id="path3073"
         d="m 566.80735,286.68816 0,-81.64278"
         style="fill:none;stroke:#000000;stroke-width:2.03324938px;stroke-linecap:round;stroke-linejoin:round;stroke-opacity:1;stroke-dasharray:none"
         inkscape:connector-curvature="0" />
      <path
         id="path3075"
         d="m 566.80735,195.66115 6.17795,12.3559 c -3.91009,-1.95505 -8.524,-1.95505 -12.4341,0 l 0,0 6.25615,-12.3559 z"
         style="fill:#000000;fill-opacity:1;fill-rule:evenodd;stroke:none"
         inkscape:connector-curvature="0" />
      <path
         id="path3077"
         d="m 585.73221,286.68816 0,-81.64278"
         style="fill:none;stroke:#000000;stroke-width:2.03324938px;stroke-linecap:round;stroke-linejoin:round;stroke-opacity:1;stroke-dasharray:none"
         inkscape:connector-curvature="0" />
      <path
         id="path3079"
         d="m 585.73221,195.66115 6.17795,12.3559 c -3.91009,-1.95505 -8.52401,-1.95505 -12.4341,0 l 0,0 6.25615,-12.3559 z"
         style="fill:#000000;fill-opacity:1;fill-rule:evenodd;stroke:none"
         inkscape:connector-curvature="0" />
      <text
         id="text3081"
         style="font-size:16.26599503px;font-style:normal;font-weight:normal;text-align:start;text-anchor:start;fill:#000000;font-family:Arial"
         y="309.05389"
         x="277.77313"
         xml:space="preserve">AAI</text>
      <text
         id="text3083"
         style="font-size:16.26599503px;font-style:normal;font-weight:normal;text-align:start;text-anchor:start;fill:#000000;font-family:Arial"
         y="309.05389"
         x="305.3002"
         xml:space="preserve">, </text>
      <text
         id="text3085"
         style="font-size:16.26599503px;font-style:normal;font-weight:normal;text-align:start;text-anchor:start;fill:#000000;font-family:Arial"
         y="309.05389"
         x="314.05881"
         xml:space="preserve">AAIN</text>
      <text
         id="text3087"
         style="font-size:16.26599503px;font-style:normal;font-weight:normal;text-align:start;text-anchor:start;fill:#000000;font-family:Arial"
         y="309.05389"
         x="539.28027"
         xml:space="preserve">DAI</text>
      <text
         id="text3089"
         style="font-size:16.26599503px;font-style:normal;font-weight:normal;text-align:start;text-anchor:start;fill:#000000;font-family:Arial"
         y="309.05389"
         x="566.80737"
         xml:space="preserve">, </text>
      <text
         id="text3091"
         style="font-size:16.26599503px;font-style:normal;font-weight:normal;text-align:start;text-anchor:start;fill:#000000;font-family:Arial"
         y="309.05389"
         x="575.56598"
         xml:space="preserve">DAIN</text>
      <path
         id="path3093"
         d="m 250.87169,50.205618 0,70.929122"
         style="fill:none;stroke:#000000;stroke-width:2.03324938px;stroke-linecap:round;stroke-linejoin:round;stroke-opacity:1;stroke-dasharray:none"
         inkscape:connector-curvature="0" />
      <path
         id="path3095"
         d="m 499.94473,50.205618 -249.07304,0"
         style="fill:none;stroke:#000000;stroke-width:2.03324938px;stroke-linecap:round;stroke-linejoin:round;stroke-opacity:1;stroke-dasharray:none"
         inkscape:connector-curvature="0" />
      <path
         id="path3097"
         d="m 369.89497,26.588645 0,94.546095"
         style="fill:none;stroke:#0070c0;stroke-width:2.03324938px;stroke-linecap:round;stroke-linejoin:round;stroke-opacity:1;stroke-dasharray:none"
         inkscape:connector-curvature="0" />
      <path
         id="path3099"
         d="m 369.89497,121.13474 25.25922,0"
         style="fill:none;stroke:#0070c0;stroke-width:2.03324938px;stroke-linecap:round;stroke-linejoin:round;stroke-opacity:1;stroke-dasharray:none"
         inkscape:connector-curvature="0" />
      <path
         id="path3101"
         d="m 404.53842,121.13474 -12.3559,6.17795 c 1.95504,-3.9101 1.95504,-8.44581 0,-12.3559 l 0,0 12.3559,6.17795 z"
         style="fill:#0070c0;fill-opacity:1;fill-rule:evenodd;stroke:none"
         inkscape:connector-curvature="0" />
      <path
         id="path3103"
         d="m 373.41406,26.588645 c 0,-1.955047 -1.56404,-3.519085 -3.51909,-3.519085 -1.95504,0 -3.51908,1.564038 -3.51908,3.519085 0,1.876846 1.56404,3.440884 3.51908,3.440884 1.95505,0 3.51909,-1.564038 3.51909,-3.440884"
         style="fill:#0070c0;fill-opacity:1;fill-rule:evenodd;stroke:none"
         inkscape:connector-curvature="0" />
      <path
         id="path3105"
         d="m 373.41406,26.588645 c 0,-1.955047 -1.56404,-3.519085 -3.51909,-3.519085 -1.95504,0 -3.51908,1.564038 -3.51908,3.519085 0,1.876846 1.56404,3.440884 3.51908,3.440884 1.95505,0 3.51909,-1.564038 3.51909,-3.440884"
         style="fill:none;stroke:#0070c0;stroke-width:0.39100948px;stroke-linecap:round;stroke-linejoin:round;stroke-opacity:1;stroke-dasharray:none"
         inkscape:connector-curvature="0" />
      <path
         id="path3107"
         d="m 499.94473,50.205618 0,70.929122"
         style="fill:none;stroke:#000000;stroke-width:2.03324938px;stroke-linecap:round;stroke-linejoin:round;stroke-opacity:1;stroke-dasharray:none"
         inkscape:connector-curvature="0" />
      <path
         id="path3109"
         d="m 499.94473,121.13474 25.25921,0"
         style="fill:none;stroke:#000000;stroke-width:2.03324938px;stroke-linecap:round;stroke-linejoin:round;stroke-opacity:1;stroke-dasharray:none"
         inkscape:connector-curvature="0" />
      <path
         id="path3111"
         d="m 534.58817,121.13474 -12.3559,6.17795 c 1.95505,-3.9101 1.95505,-8.44581 0,-12.3559 l 0,0 12.3559,6.17795 z"
         style="fill:#000000;fill-opacity:1;fill-rule:evenodd;stroke:none"
         inkscape:connector-curvature="0" />
      <path
         id="path3113"
         d="m 629.21247,26.588645 0,94.546095"
         style="fill:none;stroke:#0070c0;stroke-width:2.03324938px;stroke-linecap:round;stroke-linejoin:round;stroke-opacity:1;stroke-dasharray:none"
         inkscape:connector-curvature="0" />
      <path
         id="path3115"
         d="m 629.21247,121.13474 26.04123,0"
         style="fill:none;stroke:#0070c0;stroke-width:2.03324938px;stroke-linecap:round;stroke-linejoin:round;stroke-opacity:1;stroke-dasharray:none"
         inkscape:connector-curvature="0" />
      <path
         id="path3117"
         d="m 664.63793,121.13474 -12.3559,6.17795 c 1.95504,-3.9101 1.95504,-8.44581 0,-12.3559 l 0,0 12.3559,6.17795 z"
         style="fill:#0070c0;fill-opacity:1;fill-rule:evenodd;stroke:none"
         inkscape:connector-curvature="0" />
      <text
         id="text3119"
         style="font-size:16.26599503px;font-style:normal;font-weight:normal;text-align:start;text-anchor:start;fill:#000000;font-family:Arial"
         y="175.17226"
         x="171.41856"
         xml:space="preserve">In</text>
      <text
         id="text3121"
         style="font-size:16.26599503px;font-style:normal;font-weight:normal;text-align:start;text-anchor:start;fill:#000000;font-family:Arial"
         y="175.17226"
         x="185.18208"
         xml:space="preserve">-</text>
      <text
         id="text3123"
         style="font-size:16.26599503px;font-style:normal;font-weight:normal;text-align:start;text-anchor:start;fill:#000000;font-family:Arial"
         y="175.17226"
         x="190.18701"
         xml:space="preserve">phase</text>
      <text
         id="text3125"
         style="font-size:16.26599503px;font-style:normal;font-weight:normal;text-align:start;text-anchor:start;fill:#000000;font-family:Arial"
         y="195.19194"
         x="168.91611"
         xml:space="preserve">1.25</text>
      <text
         id="text3127"
         style="font-size:16.26599503px;font-style:normal;font-weight:normal;text-align:start;text-anchor:start;fill:#000000;font-family:Arial"
         y="195.19194"
         x="205.20178"
         xml:space="preserve">GHz</text>
      <path
         id="path3129"
         d="m 227.25471,26.588645 0,70.538112"
         style="fill:none;stroke:#0070c0;stroke-width:2.03324938px;stroke-linecap:round;stroke-linejoin:round;stroke-opacity:1;stroke-dasharray:none"
         inkscape:connector-curvature="0" />
      <path
         id="path3131"
         d="m 629.21247,26.588645 -401.95776,0"
         style="fill:none;stroke:#0070c0;stroke-width:2.03324938px;stroke-linecap:round;stroke-linejoin:round;stroke-opacity:1;stroke-dasharray:none"
         inkscape:connector-curvature="0" />
      <path
         id="path3133"
         d="m 306.70784,227.56752 129.58055,0"
         style="fill:none;stroke:#000000;stroke-width:2.03324938px;stroke-linecap:round;stroke-linejoin:round;stroke-opacity:1;stroke-dasharray:none"
         inkscape:connector-curvature="0" />
      <path
         id="path3135"
         d="m 306.70784,224.04844 c -1.95505,0 -3.51908,1.56403 -3.51908,3.51908 0,1.87685 1.56403,3.44089 3.51908,3.44089 1.87685,0 3.44089,-1.56404 3.44089,-3.44089 0,-1.95505 -1.56404,-3.51908 -3.44089,-3.51908"
         style="fill:#000000;fill-opacity:1;fill-rule:evenodd;stroke:none"
         inkscape:connector-curvature="0" />
      <path
         id="path3137"
         d="m 306.70784,224.04844 c -1.95505,0 -3.51908,1.56403 -3.51908,3.51908 0,1.87685 1.56403,3.44089 3.51908,3.44089 1.87685,0 3.44089,-1.56404 3.44089,-3.44089 0,-1.95505 -1.56404,-3.51908 -3.44089,-3.51908"
         style="fill:none;stroke:#000000;stroke-width:0.39100948px;stroke-linecap:round;stroke-linejoin:round;stroke-opacity:1;stroke-dasharray:none"
         inkscape:connector-curvature="0" />
      <path
         id="path3139"
         d="m 325.6327,251.18449 129.50234,0"
         style="fill:none;stroke:#000000;stroke-width:2.03324938px;stroke-linecap:round;stroke-linejoin:round;stroke-opacity:1;stroke-dasharray:none"
         inkscape:connector-curvature="0" />
      <path
         id="path3141"
         d="m 325.6327,247.66541 c -1.95505,0 -3.51908,1.56404 -3.51908,3.51908 0,1.95505 1.56403,3.51909 3.51908,3.51909 1.87685,0 3.44088,-1.56404 3.44088,-3.51909 0,-1.95504 -1.56403,-3.51908 -3.44088,-3.51908"
         style="fill:#000000;fill-opacity:1;fill-rule:evenodd;stroke:none"
         inkscape:connector-curvature="0" />
      <path
         id="path3143"
         d="m 325.6327,247.66541 c -1.95505,0 -3.51908,1.56404 -3.51908,3.51908 0,1.95505 1.56403,3.51909 3.51908,3.51909 1.87685,0 3.44088,-1.56404 3.44088,-3.51909 0,-1.95504 -1.56403,-3.51908 -3.44088,-3.51908"
         style="fill:none;stroke:#000000;stroke-width:0.39100948px;stroke-linecap:round;stroke-linejoin:round;stroke-opacity:1;stroke-dasharray:none"
         inkscape:connector-curvature="0" />
      <path
         id="path3145"
         d="m 696.3879,227.56752 0,-22.52214"
         style="fill:none;stroke:#000000;stroke-width:2.03324938px;stroke-linecap:round;stroke-linejoin:round;stroke-opacity:1;stroke-dasharray:none"
         inkscape:connector-curvature="0" />
      <path
         id="path3147"
         d="m 696.3879,195.66115 6.17795,12.4341 c -3.9101,-1.95505 -8.52401,-1.95505 -12.43411,0 l 0,0 6.25616,-12.4341 z"
         style="fill:#000000;fill-opacity:1;fill-rule:evenodd;stroke:none"
         inkscape:connector-curvature="0" />
      <path
         id="path3149"
         d="m 715.23455,251.18449 0,-46.13911"
         style="fill:none;stroke:#000000;stroke-width:2.03324938px;stroke-linecap:round;stroke-linejoin:round;stroke-opacity:1;stroke-dasharray:none"
         inkscape:connector-curvature="0" />
      <path
         id="path3151"
         d="m 715.23455,195.66115 6.25616,12.4341 c -3.9101,-1.95505 -8.52401,-1.95505 -12.43411,0 l 0,0 6.17795,-12.4341 z"
         style="fill:#000000;fill-opacity:1;fill-rule:evenodd;stroke:none"
         inkscape:connector-curvature="0" />
      <path
         id="path3153"
         d="m 566.80735,227.56752 129.58055,0"
         style="fill:none;stroke:#000000;stroke-width:2.03324938px;stroke-linecap:round;stroke-linejoin:round;stroke-opacity:1;stroke-dasharray:none"
         inkscape:connector-curvature="0" />
      <path
         id="path3155"
         d="m 566.80735,224.04844 c -1.95504,0 -3.51908,1.56403 -3.51908,3.51908 0,1.95505 1.56404,3.51909 3.51908,3.51909 1.87685,0 3.44089,-1.56404 3.44089,-3.51909 0,-1.95505 -1.56404,-3.51908 -3.44089,-3.51908"
         style="fill:#000000;fill-opacity:1;fill-rule:evenodd;stroke:none"
         inkscape:connector-curvature="0" />
      <path
         id="path3157"
         d="m 566.80735,224.04844 c -1.95504,0 -3.51908,1.56403 -3.51908,3.51908 0,1.95505 1.56404,3.51909 3.51908,3.51909 1.87685,0 3.44089,-1.56404 3.44089,-3.51909 0,-1.95505 -1.56404,-3.51908 -3.44089,-3.51908"
         style="fill:none;stroke:#000000;stroke-width:0.39100948px;stroke-linecap:round;stroke-linejoin:round;stroke-opacity:1;stroke-dasharray:none"
         inkscape:connector-curvature="0" />
      <path
         id="path3159"
         d="m 585.73221,251.18449 129.50234,0"
         style="fill:none;stroke:#000000;stroke-width:2.03324938px;stroke-linecap:round;stroke-linejoin:round;stroke-opacity:1;stroke-dasharray:none"
         inkscape:connector-curvature="0" />
      <path
         id="path3161"
         d="m 585.73221,247.74361 c -1.95505,0 -3.51908,1.56404 -3.51908,3.44088 0,1.95505 1.56403,3.51909 3.51908,3.51909 1.87685,0 3.44089,-1.56404 3.44089,-3.51909 0,-1.87684 -1.56404,-3.44088 -3.44089,-3.44088"
         style="fill:#000000;fill-opacity:1;fill-rule:evenodd;stroke:none"
         inkscape:connector-curvature="0" />
      <path
         id="path3163"
         d="m 585.73221,247.74361 c -1.95505,0 -3.51908,1.56404 -3.51908,3.44088 0,1.95505 1.56403,3.51909 3.51908,3.51909 1.87685,0 3.44089,-1.56404 3.44089,-3.51909 0,-1.87684 -1.56404,-3.44088 -3.44089,-3.44088"
         style="fill:none;stroke:#000000;stroke-width:0.39100948px;stroke-linecap:round;stroke-linejoin:round;stroke-opacity:1;stroke-dasharray:none"
         inkscape:connector-curvature="0" />
      <path
         id="path3165"
         d="m 227.25471,97.126757 -23.69517,0"
         style="fill:none;stroke:#0070c0;stroke-width:2.03324938px;stroke-linecap:round;stroke-linejoin:round;stroke-opacity:1;stroke-dasharray:none"
         inkscape:connector-curvature="0" />
      <path
         id="path3167"
         d="m 250.87169,117.61565 c -1.95505,0 -3.51909,1.56404 -3.51909,3.51909 0,1.95505 1.56404,3.51908 3.51909,3.51908 1.95504,0 3.51908,-1.56403 3.51908,-3.51908 0,-1.95505 -1.56404,-3.51909 -3.51908,-3.51909"
         style="fill:#000000;fill-opacity:1;fill-rule:evenodd;stroke:none"
         inkscape:connector-curvature="0" />
      <path
         id="path3169"
         d="m 250.87169,117.61565 c -1.95505,0 -3.51909,1.56404 -3.51909,3.51909 0,1.95505 1.56404,3.51908 3.51909,3.51908 1.95504,0 3.51908,-1.56403 3.51908,-3.51908 0,-1.95505 -1.56404,-3.51909 -3.51908,-3.51909"
         style="fill:none;stroke:#000000;stroke-width:0.39100948px;stroke-linecap:round;stroke-linejoin:round;stroke-opacity:1;stroke-dasharray:none"
         inkscape:connector-curvature="0" />
    </g>
  </g>
</svg>
