<?xml version="1.0" encoding="UTF-8" standalone="no"?>
<!-- Created with Inkscape (http://www.inkscape.org/) -->

<svg
   width="686.12854"
   height="360.41428"
   id="svg2"
   version="1.1"
   inkscape:version="1.3 (0e150ed6c4, 2023-07-21)"
   sodipodi:docname="2ChannelTriggering.svg"
   inkscape:export-filename="2ChannelTriggering.png"
   inkscape:export-xdpi="96"
   inkscape:export-ydpi="96"
   xmlns:inkscape="http://www.inkscape.org/namespaces/inkscape"
   xmlns:sodipodi="http://sodipodi.sourceforge.net/DTD/sodipodi-0.dtd"
   xmlns="http://www.w3.org/2000/svg"
   xmlns:svg="http://www.w3.org/2000/svg"
   xmlns:rdf="http://www.w3.org/1999/02/22-rdf-syntax-ns#"
   xmlns:cc="http://creativecommons.org/ns#"
   xmlns:dc="http://purl.org/dc/elements/1.1/">
  <defs
     id="defs4">
    <filter
       id="filter3858"
       inkscape:label="Drop Shadow"
       color-interpolation-filters="sRGB"
       x="-0.015679344"
       y="-0.03089347"
       width="1.0374066"
       height="1.0737033">
      <feFlood
         id="feFlood3860"
         flood-opacity="0.5"
         flood-color="rgb(0,0,0)"
         result="flood" />
      <feComposite
         id="feComposite3862"
         in2="SourceGraphic"
         in="flood"
         operator="in"
         result="composite1" />
      <feGaussianBlur
         id="feGaussianBlur3864"
         stdDeviation="4"
         result="blur" />
      <feOffset
         id="feOffset3866"
         dx="4"
         dy="4"
         result="offset" />
      <feComposite
         id="feComposite3868"
         in2="offset"
         in="SourceGraphic"
         operator="over"
         result="composite2" />
    </filter>
  </defs>
  <sodipodi:namedview
     id="base"
     pagecolor="#ffffff"
     bordercolor="#666666"
     borderopacity="1.0"
     inkscape:pageopacity="0.0"
     inkscape:pageshadow="2"
     inkscape:zoom="1.4"
     inkscape:cx="326.07143"
     inkscape:cy="157.5"
     inkscape:document-units="px"
     inkscape:current-layer="g2989"
     showgrid="false"
     fit-margin-top="0"
     fit-margin-left="0"
     fit-margin-right="0"
     fit-margin-bottom="0"
     inkscape:window-width="3440"
     inkscape:window-height="1369"
     inkscape:window-x="-8"
     inkscape:window-y="-8"
     inkscape:window-maximized="1"
     inkscape:showpageshadow="2"
     inkscape:pagecheckerboard="0"
     inkscape:deskcolor="#d1d1d1" />
  <metadata
     id="metadata7">
    <rdf:RDF>
      <cc:Work
         rdf:about="">
        <dc:format>image/svg+xml</dc:format>
        <dc:type
           rdf:resource="http://purl.org/dc/dcmitype/StillImage" />
        <dc:title />
      </cc:Work>
    </rdf:RDF>
  </metadata>
  <g
     inkscape:label="Ebene 1"
     inkscape:groupmode="layer"
     id="layer1"
     transform="translate(-6.4335556,-333.77738)">
    <g
       id="g2989"
       transform="translate(22.899627,346.11961)">
      <rect
         style="fill:#ffffff;fill-opacity:1;stroke:#000000;stroke-width:1.54027;stroke-linecap:round;stroke-linejoin:round;stroke-miterlimit:4;stroke-dasharray:none;stroke-opacity:1;filter:url(#filter3858)"
         id="rect3856"
         width="661.38831"
         height="335.67401"
         x="-6.0959363"
         y="-1.9720931" />
      <path
         id="path2991"
         d="m 149.05282,19.081263 v 8.758612 c 0,0.312808 -0.23461,0.625616 -0.62562,0.625616 -0.31281,0 -0.62561,-0.312808 -0.62561,-0.625616 v -8.758612 c 0,-0.39101 0.3128,-0.625615 0.62561,-0.625615 0.39101,0 0.62562,0.234605 0.62562,0.625615 z m 0,15.014764 v 8.758613 c 0,0.312807 -0.23461,0.625615 -0.62562,0.625615 -0.31281,0 -0.62561,-0.312808 -0.62561,-0.625615 v -8.758613 c 0,-0.391009 0.3128,-0.625615 0.62561,-0.625615 0.39101,0 0.62562,0.234606 0.62562,0.625615 z m 0,15.014765 v 8.758612 c 0,0.312808 -0.23461,0.625615 -0.62562,0.625615 -0.31281,0 -0.62561,-0.312807 -0.62561,-0.625615 v -8.758612 c 0,-0.39101 0.3128,-0.625616 0.62561,-0.625616 0.39101,0 0.62562,0.234606 0.62562,0.625616 z m 0,15.014764 v 8.758612 c 0,0.312808 -0.23461,0.625616 -0.62562,0.625616 -0.31281,0 -0.62561,-0.312808 -0.62561,-0.625616 v -8.758612 c 0,-0.39101 0.3128,-0.625615 0.62561,-0.625615 0.39101,0 0.62562,0.234605 0.62562,0.625615 z m 0,15.014764 v 8.758613 c 0,0.312807 -0.23461,0.625615 -0.62562,0.625615 -0.31281,0 -0.62561,-0.312808 -0.62561,-0.625615 V 79.14032 c 0,-0.391009 0.3128,-0.625615 0.62561,-0.625615 0.39101,0 0.62562,0.234606 0.62562,0.625615 z m 0,15.014765 v 8.758615 c 0,0.3128 -0.23461,0.62561 -0.62562,0.62561 -0.31281,0 -0.62561,-0.31281 -0.62561,-0.62561 v -8.758615 c 0,-0.39101 0.3128,-0.625616 0.62561,-0.625616 0.39101,0 0.62562,0.234606 0.62562,0.625616 z m 0,15.014765 v 8.75861 c 0,0.31281 -0.23461,0.62562 -0.62562,0.62562 -0.31281,0 -0.62561,-0.31281 -0.62561,-0.62562 v -8.75861 c 0,-0.39101 0.3128,-0.62562 0.62561,-0.62562 0.39101,0 0.62562,0.23461 0.62562,0.62562 z m 0,15.01476 v 8.75862 c 0,0.3128 -0.23461,0.62561 -0.62562,0.62561 -0.31281,0 -0.62561,-0.31281 -0.62561,-0.62561 v -8.75862 c 0,-0.39101 0.3128,-0.62561 0.62561,-0.62561 0.39101,0 0.62562,0.2346 0.62562,0.62561 z m 0,15.01477 v 3.28448 c 0,0.3128 -0.23461,0.62561 -0.62562,0.62561 -0.31281,0 -0.62561,-0.31281 -0.62561,-0.62561 v -3.28448 c 0,-0.39101 0.3128,-0.62562 0.62561,-0.62562 0.39101,0 0.62562,0.23461 0.62562,0.62562 z"
         style="fill:#3475cd;fill-opacity:1;fill-rule:nonzero;stroke:#3475cd;stroke-width:1.25123px;stroke-linecap:butt;stroke-linejoin:bevel;stroke-dasharray:none;stroke-opacity:1"
         inkscape:connector-curvature="0" />
      <path
         id="path2993"
         d="m 243.67711,79.609532 v 8.758612 c 0,0.312808 -0.31281,0.625615 -0.62561,0.625615 -0.39101,0 -0.62562,-0.312807 -0.62562,-0.625615 v -8.758612 c 0,-0.39101 0.23461,-0.625616 0.62562,-0.625616 0.3128,0 0.62561,0.234606 0.62561,0.625616 z m 0,15.014764 v 8.758614 c 0,0.31281 -0.31281,0.62561 -0.62561,0.62561 -0.39101,0 -0.62562,-0.3128 -0.62562,-0.62561 v -8.758614 c 0,-0.39101 0.23461,-0.625615 0.62562,-0.625615 0.3128,0 0.62561,0.234605 0.62561,0.625615 z m 0,15.014764 v 8.75861 c 0,0.31281 -0.31281,0.62562 -0.62561,0.62562 -0.39101,0 -0.62562,-0.31281 -0.62562,-0.62562 v -8.75861 c 0,-0.39101 0.23461,-0.62561 0.62562,-0.62561 0.3128,0 0.62561,0.2346 0.62561,0.62561 z m 0,15.01476 v 2.18966 c 0,0.39101 -0.31281,0.62561 -0.62561,0.62561 -0.39101,0 -0.62562,-0.2346 -0.62562,-0.62561 v -2.18966 c 0,-0.391 0.23461,-0.62561 0.62562,-0.62561 0.3128,0 0.62561,0.23461 0.62561,0.62561 z"
         style="fill:#3475cd;fill-opacity:1;fill-rule:nonzero;stroke:#3475cd;stroke-width:1.25123px;stroke-linecap:butt;stroke-linejoin:bevel;stroke-dasharray:none;stroke-opacity:1"
         inkscape:connector-curvature="0" />
      <path
         id="path2995"
         d="m 527.3936,15.718581 v 8.758613 c 0,0.391009 -0.23461,0.625615 -0.62562,0.625615 -0.31281,0 -0.62561,-0.234606 -0.62561,-0.625615 v -8.758613 c 0,-0.312807 0.3128,-0.625615 0.62561,-0.625615 0.39101,0 0.62562,0.312808 0.62562,0.625615 z m 0,15.014765 v 8.758612 c 0,0.39101 -0.23461,0.625615 -0.62562,0.625615 -0.31281,0 -0.62561,-0.234605 -0.62561,-0.625615 v -8.758612 c 0,-0.312808 0.3128,-0.625615 0.62561,-0.625615 0.39101,0 0.62562,0.312807 0.62562,0.625615 z m 0,15.014764 v 8.758613 c 0,0.391009 -0.23461,0.625615 -0.62562,0.625615 -0.31281,0 -0.62561,-0.234606 -0.62561,-0.625615 V 45.74811 c 0,-0.312808 0.3128,-0.625615 0.62561,-0.625615 0.39101,0 0.62562,0.312807 0.62562,0.625615 z m 0,15.014764 v 8.758613 c 0,0.391009 -0.23461,0.625615 -0.62562,0.625615 -0.31281,0 -0.62561,-0.234606 -0.62561,-0.625615 v -8.758613 c 0,-0.312807 0.3128,-0.625615 0.62561,-0.625615 0.39101,0 0.62562,0.312808 0.62562,0.625615 z m 0,15.014765 v 8.758612 c 0,0.39101 -0.23461,0.625615 -0.62562,0.625615 -0.31281,0 -0.62561,-0.234605 -0.62561,-0.625615 v -8.758612 c 0,-0.312808 0.3128,-0.625616 0.62561,-0.625616 0.39101,0 0.62562,0.312808 0.62562,0.625616 z"
         style="fill:#3475cd;fill-opacity:1;fill-rule:nonzero;stroke:#3475cd;stroke-width:1.25123px;stroke-linecap:butt;stroke-linejoin:bevel;stroke-dasharray:none;stroke-opacity:1"
         inkscape:connector-curvature="0" />
      <path
         id="path2997"
         d="M 53.881107,275.81809 H 65.689594 V 164.6932 H 53.881107 Z"
         style="fill:none;stroke:#a6a6a6;stroke-width:1.17303px;stroke-linecap:round;stroke-linejoin:round;stroke-dasharray:none;stroke-opacity:1"
         inkscape:connector-curvature="0" />
      <path
         id="path2999"
         d="M 65.689594,275.81809 H 77.49808 V 160.9395 H 65.689594 Z"
         style="fill:none;stroke:#a6a6a6;stroke-width:1.17303px;stroke-linecap:round;stroke-linejoin:round;stroke-dasharray:none;stroke-opacity:1"
         inkscape:connector-curvature="0" />
      <path
         id="path3001"
         d="M 77.49808,275.81809 H 89.306567 V 158.12424 H 77.49808 Z"
         style="fill:none;stroke:#a6a6a6;stroke-width:1.17303px;stroke-linecap:round;stroke-linejoin:round;stroke-dasharray:none;stroke-opacity:1"
         inkscape:connector-curvature="0" />
      <path
         id="path3003"
         d="M 89.306567,275.81809 H 101.19326 V 155.69998 H 89.306567 Z"
         style="fill:none;stroke:#a6a6a6;stroke-width:1.17303px;stroke-linecap:round;stroke-linejoin:round;stroke-dasharray:none;stroke-opacity:1"
         inkscape:connector-curvature="0" />
      <path
         id="path3005"
         d="M 337.28478,70.147102 H 517.61836"
         style="fill:none;stroke:#3475cd;stroke-width:1.17303px;stroke-linecap:round;stroke-linejoin:round;stroke-dasharray:none;stroke-opacity:1"
         inkscape:connector-curvature="0" />
      <path
         id="path3007"
         d="m 525.82956,70.147102 -10.79186,5.395931 c 1.72044,-3.440884 1.72044,-7.42918 0,-10.791862 v 0 z"
         style="fill:#3475cd;fill-opacity:1;fill-rule:evenodd;stroke:none"
         inkscape:connector-curvature="0" />
      <path
         id="path3009"
         d="m 337.28478,65.376786 v 9.46243"
         style="fill:none;stroke:#3475cd;stroke-width:1.17303px;stroke-linecap:round;stroke-linejoin:round;stroke-dasharray:none;stroke-opacity:1"
         inkscape:connector-curvature="0" />
      <path
         id="path3011"
         d="m 243.0515,65.376786 v 9.46243"
         style="fill:none;stroke:#3475cd;stroke-width:1.17303px;stroke-linecap:round;stroke-linejoin:round;stroke-dasharray:none;stroke-opacity:1"
         inkscape:connector-curvature="0" />
      <path
         id="path3013"
         d="M 157.57682,70.147102 H 243.0515"
         style="fill:none;stroke:#3475cd;stroke-width:1.17303px;stroke-linecap:round;stroke-linejoin:round;stroke-dasharray:none;stroke-opacity:1"
         inkscape:connector-curvature="0" />
      <path
         id="path3015"
         d="m 149.36562,70.147102 10.87007,-5.395931 c -1.72044,3.362682 -1.72044,7.350978 0,10.791862 v 0 z"
         style="fill:#3475cd;fill-opacity:1;fill-rule:evenodd;stroke:none"
         inkscape:connector-curvature="0" />
      <text
         id="text3017"
         style="font-style:normal;font-weight:normal;font-size:20.0197px;line-height:0%;font-family:Arial;text-align:start;text-anchor:start;fill:#3475cd"
         y="57.556599"
         x="151.39886"
         xml:space="preserve">precursor</text>
      <text
         id="text3019"
         style="font-style:normal;font-weight:normal;font-size:20.0197px;line-height:0%;font-family:Arial;text-align:start;text-anchor:start;fill:#3475cd"
         y="57.556599"
         x="235.23131"
         xml:space="preserve"> = </text>
      <text
         id="text3021"
         style="font-style:normal;font-weight:normal;font-size:20.0197px;line-height:0%;font-family:Arial;text-align:start;text-anchor:start;fill:#3475cd"
         y="57.556599"
         x="259.00467"
         xml:space="preserve">1</text>
      <text
         id="text3023"
         style="font-style:normal;font-weight:normal;font-size:20.0197px;line-height:0%;font-family:Arial;text-align:start;text-anchor:start;fill:#3475cd"
         y="58.807827"
         x="387.88141"
         xml:space="preserve">length </text>
      <text
         id="text3025"
         style="font-style:normal;font-weight:normal;font-size:20.0197px;line-height:0%;font-family:Arial;text-align:start;text-anchor:start;fill:#3475cd"
         y="58.807827"
         x="447.94046"
         xml:space="preserve">= </text>
      <text
         id="text3027"
         style="font-style:normal;font-weight:normal;font-size:20.0197px;line-height:0%;font-family:Arial;text-align:start;text-anchor:start;fill:#3475cd"
         y="58.807827"
         x="465.4577"
         xml:space="preserve">2</text>
      <path
         id="path3029"
         d="M 157.42042,34.643441 H 517.61836"
         style="fill:none;stroke:#3475cd;stroke-width:1.17303px;stroke-linecap:round;stroke-linejoin:round;stroke-dasharray:none;stroke-opacity:1"
         inkscape:connector-curvature="0" />
      <path
         id="path3031"
         d="m 149.20922,34.643441 10.87006,-5.395931 c -1.72044,3.440883 -1.72044,7.42918 0,10.791861 v 0 z"
         style="fill:#3475cd;fill-opacity:1;fill-rule:evenodd;stroke:none"
         inkscape:connector-curvature="0" />
      <path
         id="path3033"
         d="m 525.82956,34.643441 -10.79186,5.39593 c 1.72044,-3.362681 1.72044,-7.350978 0,-10.791861 v 0 z"
         style="fill:#3475cd;fill-opacity:1;fill-rule:evenodd;stroke:none"
         inkscape:connector-curvature="0" />
      <text
         id="text3035"
         style="font-style:normal;font-weight:normal;font-size:20.0197px;line-height:0%;font-family:Arial;text-align:start;text-anchor:start;fill:#3475cd"
         y="22.522146"
         x="271.517"
         xml:space="preserve">total length</text>
      <text
         id="text3037"
         style="font-style:normal;font-weight:normal;font-size:20.0197px;line-height:0%;font-family:Arial;text-align:start;text-anchor:start;fill:#3475cd"
         y="22.522146"
         x="369.11295"
         xml:space="preserve"> = </text>
      <text
         id="text3039"
         style="font-style:normal;font-weight:normal;font-size:20.0197px;line-height:0%;font-family:Arial;text-align:start;text-anchor:start;fill:#3475cd"
         y="22.522146"
         x="392.88632"
         xml:space="preserve">4</text>
      <path
         id="path3041"
         d="m 337.9886,79.609532 v 8.758612 c 0,0.312808 -0.2346,0.625615 -0.62561,0.625615 -0.31281,0 -0.62562,-0.312807 -0.62562,-0.625615 v -8.758612 c 0,-0.39101 0.31281,-0.625616 0.62562,-0.625616 0.39101,0 0.62561,0.234606 0.62561,0.625616 z m 0,15.014764 v 8.758614 c 0,0.31281 -0.2346,0.62561 -0.62561,0.62561 -0.31281,0 -0.62562,-0.3128 -0.62562,-0.62561 v -8.758614 c 0,-0.39101 0.31281,-0.625615 0.62562,-0.625615 0.39101,0 0.62561,0.234605 0.62561,0.625615 z m 0,15.014764 v 3.04987 c 0,0.31281 -0.2346,0.62562 -0.62561,0.62562 -0.31281,0 -0.62562,-0.31281 -0.62562,-0.62562 v -3.04987 c 0,-0.39101 0.31281,-0.62561 0.62562,-0.62561 0.39101,0 0.62561,0.2346 0.62561,0.62561 z"
         style="fill:#3475cd;fill-opacity:1;fill-rule:nonzero;stroke:#3475cd;stroke-width:1.25123px;stroke-linecap:butt;stroke-linejoin:bevel;stroke-dasharray:none;stroke-opacity:1"
         inkscape:connector-curvature="0" />
      <path
         id="path3043"
         d="M 30.264134,133.09963 V 267.68509"
         style="fill:none;stroke:#3475cd;stroke-width:1.17303px;stroke-linecap:round;stroke-linejoin:round;stroke-dasharray:none;stroke-opacity:1"
         inkscape:connector-curvature="0" />
      <path
         id="path3045"
         d="m 30.264134,124.88843 5.395931,10.79186 c -3.440883,-1.64224 -7.42918,-1.64224 -10.870064,0 v 0 z"
         style="fill:#3475cd;fill-opacity:1;fill-rule:evenodd;stroke:none"
         inkscape:connector-curvature="0" />
      <path
         id="path3047"
         d="m 30.264134,275.81809 -5.474133,-10.79186 c 3.440884,1.72044 7.429181,1.72044 10.870064,0 v 0 z"
         style="fill:#3475cd;fill-opacity:1;fill-rule:evenodd;stroke:none"
         inkscape:connector-curvature="0" />
      <text
         id="text3049"
         style="font-style:normal;font-weight:normal;font-size:20.0197px;line-height:0%;font-family:Arial;text-align:start;text-anchor:start;fill:#3475cd"
         transform="rotate(-90,22.52215,240.23623)"
         y="240.23624"
         x="22.522146"
         xml:space="preserve">t</text>
      <text
         id="text3051"
         style="font-style:normal;font-weight:normal;font-size:20.0197px;line-height:0%;font-family:Arial;text-align:start;text-anchor:start;fill:#3475cd"
         transform="rotate(-90,22.52215,233.98008)"
         y="233.98009"
         x="22.522146"
         xml:space="preserve">h</text>
      <text
         id="text3053"
         style="font-style:normal;font-weight:normal;font-size:20.0197px;line-height:0%;font-family:Arial;text-align:start;text-anchor:start;fill:#3475cd"
         transform="rotate(-90,22.52215,222.719)"
         y="222.71899"
         x="22.522146"
         xml:space="preserve">r</text>
      <text
         id="text3055"
         style="font-style:normal;font-weight:normal;font-size:20.0197px;line-height:0%;font-family:Arial;text-align:start;text-anchor:start;fill:#3475cd"
         transform="rotate(-90,22.52215,216.46285)"
         y="216.46284"
         x="22.522146"
         xml:space="preserve">e</text>
      <text
         id="text3057"
         style="font-style:normal;font-weight:normal;font-size:20.0197px;line-height:0%;font-family:Arial;text-align:start;text-anchor:start;fill:#3475cd"
         transform="rotate(-90,22.52215,205.20178)"
         y="205.20178"
         x="22.522146"
         xml:space="preserve">s</text>
      <text
         id="text3059"
         style="font-style:normal;font-weight:normal;font-size:20.0197px;line-height:0%;font-family:Arial;text-align:start;text-anchor:start;fill:#3475cd"
         transform="rotate(-90,22.52215,195.19194)"
         y="195.19194"
         x="22.522146"
         xml:space="preserve">h</text>
      <text
         id="text3061"
         style="font-style:normal;font-weight:normal;font-size:20.0197px;line-height:0%;font-family:Arial;text-align:start;text-anchor:start;fill:#3475cd"
         transform="rotate(-90,22.52215,183.93086)"
         y="183.93086"
         x="22.522146"
         xml:space="preserve">o</text>
      <text
         id="text3063"
         style="font-style:normal;font-weight:normal;font-size:20.0197px;line-height:0%;font-family:Arial;text-align:start;text-anchor:start;fill:#3475cd"
         transform="rotate(-90,22.52215,172.66979)"
         y="172.66978"
         x="22.522146"
         xml:space="preserve">l</text>
      <text
         id="text3065"
         style="font-style:normal;font-weight:normal;font-size:20.0197px;line-height:0%;font-family:Arial;text-align:start;text-anchor:start;fill:#3475cd"
         transform="rotate(-90,22.52215,168.9161)"
         y="168.91611"
         x="22.522146"
         xml:space="preserve">d</text>
      <path
         id="path3067"
         d="m 101.19326,275.81809 h 11.80848 V 153.82313 h -11.80848 z"
         style="fill:none;stroke:#a6a6a6;stroke-width:1.17303px;stroke-linecap:round;stroke-linejoin:round;stroke-dasharray:none;stroke-opacity:1"
         inkscape:connector-curvature="0" />
      <path
         id="path3069"
         d="m 113.00174,275.81809 h 11.80849 v -123.8718 h -11.80849 z"
         style="fill:none;stroke:#a6a6a6;stroke-width:1.17303px;stroke-linecap:round;stroke-linejoin:round;stroke-dasharray:none;stroke-opacity:1"
         inkscape:connector-curvature="0" />
      <path
         id="path3071"
         d="m 124.81023,275.81809 h 11.80848 V 149.13102 h -11.80848 z"
         style="fill:none;stroke:#a6a6a6;stroke-width:1.17303px;stroke-linecap:round;stroke-linejoin:round;stroke-dasharray:none;stroke-opacity:1"
         inkscape:connector-curvature="0" />
      <path
         id="path3073"
         d="M 136.61871,275.81809 H 148.4272 V 146.70676 h -11.80849 z"
         style="fill:none;stroke:#a6a6a6;stroke-width:1.17303px;stroke-linecap:round;stroke-linejoin:round;stroke-dasharray:none;stroke-opacity:1"
         inkscape:connector-curvature="0" />
      <path
         id="path3075"
         d="m 148.4272,275.81809 h 11.88669 V 144.51711 H 148.4272 Z"
         style="fill:none;stroke:#944266;stroke-width:1.17303px;stroke-linecap:round;stroke-linejoin:round;stroke-dasharray:none;stroke-opacity:1"
         inkscape:connector-curvature="0" />
      <path
         id="path3077"
         d="m 160.31389,275.81809 h 11.80849 V 142.48386 h -11.80849 z"
         style="fill:none;stroke:#944266;stroke-width:1.17303px;stroke-linecap:round;stroke-linejoin:round;stroke-dasharray:none;stroke-opacity:1"
         inkscape:connector-curvature="0" />
      <path
         id="path3079"
         d="m 172.12238,275.81809 h 11.80848 V 141.07622 h -11.80848 z"
         style="fill:none;stroke:#944266;stroke-width:1.17303px;stroke-linecap:round;stroke-linejoin:round;stroke-dasharray:none;stroke-opacity:1"
         inkscape:connector-curvature="0" />
      <path
         id="path3081"
         d="m 183.93086,275.81809 h 11.80849 V 138.73017 h -11.80849 z"
         style="fill:none;stroke:#944266;stroke-width:1.17303px;stroke-linecap:round;stroke-linejoin:round;stroke-dasharray:none;stroke-opacity:1"
         inkscape:connector-curvature="0" />
      <path
         id="path3083"
         d="m 195.73935,275.81809 h 11.80849 V 136.77512 h -11.80849 z"
         style="fill:none;stroke:#944266;stroke-width:1.17303px;stroke-linecap:round;stroke-linejoin:round;stroke-dasharray:none;stroke-opacity:1"
         inkscape:connector-curvature="0" />
      <path
         id="path3085"
         d="m 207.54784,275.81809 h 11.80848 V 134.89827 h -11.80848 z"
         style="fill:none;stroke:#944266;stroke-width:1.17303px;stroke-linecap:round;stroke-linejoin:round;stroke-dasharray:none;stroke-opacity:1"
         inkscape:connector-curvature="0" />
      <path
         id="path3087"
         d="m 219.35632,275.81809 h 11.88669 V 132.55222 h -11.88669 z"
         style="fill:none;stroke:#944266;stroke-width:1.17303px;stroke-linecap:round;stroke-linejoin:round;stroke-dasharray:none;stroke-opacity:1"
         inkscape:connector-curvature="0" />
      <path
         id="path3089"
         d="M 231.24301,275.81809 H 243.0515 V 130.67537 h -11.80849 z"
         style="fill:none;stroke:#944266;stroke-width:1.17303px;stroke-linecap:round;stroke-linejoin:round;stroke-dasharray:none;stroke-opacity:1"
         inkscape:connector-curvature="0" />
      <path
         id="path3091"
         d="M 243.0515,131.22278 V 274.01945"
         style="fill:none;stroke:#944266;stroke-width:1.17303px;stroke-linecap:round;stroke-linejoin:round;stroke-dasharray:none;stroke-opacity:1"
         inkscape:connector-curvature="0" />
      <path
         id="path3093"
         d="m 243.0515,275.81809 h 11.80848 V 129.26774 H 243.0515 Z"
         style="fill:none;stroke:#944266;stroke-width:1.17303px;stroke-linecap:round;stroke-linejoin:round;stroke-dasharray:none;stroke-opacity:1"
         inkscape:connector-curvature="0" />
      <path
         id="path3095"
         d="m 254.85998,275.81809 h 11.80849 V 126.99988 h -11.80849 z"
         style="fill:none;stroke:#944266;stroke-width:1.17303px;stroke-linecap:round;stroke-linejoin:round;stroke-dasharray:none;stroke-opacity:1"
         inkscape:connector-curvature="0" />
      <path
         id="path3099"
         d="m 266.66847,275.81809 h 11.80849 V 124.49742 h -11.80849 z"
         style="fill:#d8a7bd;fill-opacity:1;stroke:#944266;stroke-width:1.17303px;stroke-linecap:round;stroke-linejoin:round;stroke-dasharray:none;stroke-opacity:1"
         inkscape:connector-curvature="0" />
      <path
         id="path3101"
         d="m 278.47696,275.81809 h 11.88669 V 123.559 h -11.88669 z"
         style="fill:none;stroke:#944266;stroke-width:1.17303px;stroke-linecap:round;stroke-linejoin:round;stroke-dasharray:none;stroke-opacity:1"
         inkscape:connector-curvature="0" />
      <path
         id="path3103"
         d="m 290.36365,275.81809 h 11.80848 V 121.68215 h -11.80848 z"
         style="fill:none;stroke:#944266;stroke-width:1.17303px;stroke-linecap:round;stroke-linejoin:round;stroke-dasharray:none;stroke-opacity:1"
         inkscape:connector-curvature="0" />
      <path
         id="path3105"
         d="m 302.17213,275.81809 h 11.80849 V 119.80531 h -11.80849 z"
         style="fill:none;stroke:#944266;stroke-width:1.17303px;stroke-linecap:round;stroke-linejoin:round;stroke-dasharray:none;stroke-opacity:1"
         inkscape:connector-curvature="0" />
      <path
         id="path3107"
         d="M 313.98062,275.81809 H 325.7891 V 117.92846 h -11.80848 z"
         style="fill:none;stroke:#944266;stroke-width:1.17303px;stroke-linecap:round;stroke-linejoin:round;stroke-dasharray:none;stroke-opacity:1"
         inkscape:connector-curvature="0" />
      <path
         id="path3109"
         d="m 325.7891,275.81809 h 11.80849 V 115.97341 H 325.7891 Z"
         style="fill:none;stroke:#944266;stroke-width:1.17303px;stroke-linecap:round;stroke-linejoin:round;stroke-dasharray:none;stroke-opacity:1"
         inkscape:connector-curvature="0" />
      <path
         id="path3111"
         d="m 337.59759,275.81809 h 11.80849 V 114.09657 h -11.80849 z"
         style="fill:none;stroke:#944266;stroke-width:1.17303px;stroke-linecap:round;stroke-linejoin:round;stroke-dasharray:none;stroke-opacity:1"
         inkscape:connector-curvature="0" />
      <path
         id="path3113"
         d="m 349.40608,275.81809 h 11.88669 V 112.37613 h -11.88669 z"
         style="fill:none;stroke:#944266;stroke-width:1.17303px;stroke-linecap:round;stroke-linejoin:round;stroke-dasharray:none;stroke-opacity:1"
         inkscape:connector-curvature="0" />
      <path
         id="path3115"
         d="m 361.29277,275.81809 h 11.80848 V 110.65568 h -11.80848 z"
         style="fill:none;stroke:#944266;stroke-width:1.17303px;stroke-linecap:round;stroke-linejoin:round;stroke-dasharray:none;stroke-opacity:1"
         inkscape:connector-curvature="0" />
      <path
         id="path3117"
         d="m 373.10125,275.81809 h 11.80849 V 108.93524 h -11.80849 z"
         style="fill:none;stroke:#944266;stroke-width:1.17303px;stroke-linecap:round;stroke-linejoin:round;stroke-dasharray:none;stroke-opacity:1"
         inkscape:connector-curvature="0" />
      <path
         id="path3119"
         d="m 384.90974,275.81809 h 11.80849 V 106.9802 h -11.80849 z"
         style="fill:none;stroke:#944266;stroke-width:1.17303px;stroke-linecap:round;stroke-linejoin:round;stroke-dasharray:none;stroke-opacity:1"
         inkscape:connector-curvature="0" />
      <path
         id="path3121"
         d="m 396.71823,275.81809 h 11.80848 V 105.57256 h -11.80848 z"
         style="fill:none;stroke:#944266;stroke-width:1.17303px;stroke-linecap:round;stroke-linejoin:round;stroke-dasharray:none;stroke-opacity:1"
         inkscape:connector-curvature="0" />
      <path
         id="path3123"
         d="M 408.52671,275.81809 H 420.4134 V 104.16493 h -11.88669 z"
         style="fill:none;stroke:#944266;stroke-width:1.17303px;stroke-linecap:round;stroke-linejoin:round;stroke-dasharray:none;stroke-opacity:1"
         inkscape:connector-curvature="0" />
      <path
         id="path3125"
         d="m 420.4134,275.81809 h 11.80849 V 102.28808 H 420.4134 Z"
         style="fill:none;stroke:#944266;stroke-width:1.17303px;stroke-linecap:round;stroke-linejoin:round;stroke-dasharray:none;stroke-opacity:1"
         inkscape:connector-curvature="0" />
      <path
         id="path3127"
         d="m 432.22189,275.81809 h 11.80848 V 100.95865 h -11.80848 z"
         style="fill:none;stroke:#944266;stroke-width:1.17303px;stroke-linecap:round;stroke-linejoin:round;stroke-dasharray:none;stroke-opacity:1"
         inkscape:connector-curvature="0" />
      <path
         id="path3129"
         d="m 444.03037,275.81809 h 11.80849 V 99.942025 h -11.80849 z"
         style="fill:none;stroke:#944266;stroke-width:1.17303px;stroke-linecap:round;stroke-linejoin:round;stroke-dasharray:none;stroke-opacity:1"
         inkscape:connector-curvature="0" />
      <path
         id="path3131"
         d="m 455.83886,275.81809 h 11.80849 V 98.534391 h -11.80849 z"
         style="fill:none;stroke:#944266;stroke-width:1.17303px;stroke-linecap:round;stroke-linejoin:round;stroke-dasharray:none;stroke-opacity:1"
         inkscape:connector-curvature="0" />
      <path
         id="path3133"
         d="m 467.64735,275.81809 h 11.80848 V 97.595968 h -11.80848 z"
         style="fill:none;stroke:#944266;stroke-width:1.17303px;stroke-linecap:round;stroke-linejoin:round;stroke-dasharray:none;stroke-opacity:1"
         inkscape:connector-curvature="0" />
      <path
         id="path3135"
         d="m 479.45583,275.81809 h 11.88669 V 96.579343 h -11.88669 z"
         style="fill:none;stroke:#944266;stroke-width:1.17303px;stroke-linecap:round;stroke-linejoin:round;stroke-dasharray:none;stroke-opacity:1"
         inkscape:connector-curvature="0" />
      <path
         id="path3137"
         d="m 491.34252,275.81809 h 11.80849 V 95.171709 h -11.80849 z"
         style="fill:none;stroke:#944266;stroke-width:1.17303px;stroke-linecap:round;stroke-linejoin:round;stroke-dasharray:none;stroke-opacity:1"
         inkscape:connector-curvature="0" />
      <path
         id="path3139"
         d="m 503.15101,275.81809 h 11.80848 V 94.233286 h -11.80848 z"
         style="fill:none;stroke:#944266;stroke-width:1.17303px;stroke-linecap:round;stroke-linejoin:round;stroke-dasharray:none;stroke-opacity:1"
         inkscape:connector-curvature="0" />
      <path
         id="path3141"
         d="m 514.95949,275.81809 h 11.80849 V 93.294864 h -11.80849 z"
         style="fill:none;stroke:#944266;stroke-width:1.17303px;stroke-linecap:round;stroke-linejoin:round;stroke-dasharray:none;stroke-opacity:1"
         inkscape:connector-curvature="0" />
      <path
         id="path3143"
         d="m 526.76798,275.81809 h 11.80849 V 92.356441 h -11.80849 z"
         style="fill:none;stroke:#a6a6a6;stroke-width:1.17303px;stroke-linecap:round;stroke-linejoin:round;stroke-dasharray:none;stroke-opacity:1"
         inkscape:connector-curvature="0" />
      <path
         id="path3145"
         d="m 538.57647,275.81809 h 11.88669 V 90.948807 h -11.88669 z"
         style="fill:none;stroke:#a6a6a6;stroke-width:1.17303px;stroke-linecap:round;stroke-linejoin:round;stroke-dasharray:none;stroke-opacity:1"
         inkscape:connector-curvature="0" />
      <path
         id="path3147"
         d="m 550.46316,275.81809 h 11.80848 V 90.010384 h -11.80848 z"
         style="fill:none;stroke:#a6a6a6;stroke-width:1.17303px;stroke-linecap:round;stroke-linejoin:round;stroke-dasharray:none;stroke-opacity:1"
         inkscape:connector-curvature="0" />
      <path
         id="path3149"
         d="m 562.27164,275.81809 h 11.80849 V 89.071961 h -11.80849 z"
         style="fill:none;stroke:#a6a6a6;stroke-width:1.17303px;stroke-linecap:round;stroke-linejoin:round;stroke-dasharray:none;stroke-opacity:1"
         inkscape:connector-curvature="0" />
      <path
         id="path3151"
         d="m 574.08013,275.81809 h 11.80849 V 87.664327 h -11.80849 z"
         style="fill:none;stroke:#a6a6a6;stroke-width:1.17303px;stroke-linecap:round;stroke-linejoin:round;stroke-dasharray:none;stroke-opacity:1"
         inkscape:connector-curvature="0" />
      <path
         id="path3153"
         d="M 585.88862,275.81809 H 597.6971 V 86.647702 h -11.80848 z"
         style="fill:none;stroke:#a6a6a6;stroke-width:1.17303px;stroke-linecap:round;stroke-linejoin:round;stroke-dasharray:none;stroke-opacity:1"
         inkscape:connector-curvature="0" />
      <path
         id="path3155"
         d="m 597.6971,275.81809 h 11.80849 V 85.70928 H 597.6971 Z"
         style="fill:none;stroke:#a6a6a6;stroke-width:1.17303px;stroke-linecap:round;stroke-linejoin:round;stroke-dasharray:none;stroke-opacity:1"
         inkscape:connector-curvature="0" />
      <path
         id="path3157"
         d="m 609.50559,275.81809 h 11.88669 V 84.770857 h -11.88669 z"
         style="fill:none;stroke:#a6a6a6;stroke-width:1.17303px;stroke-linecap:round;stroke-linejoin:round;stroke-dasharray:none;stroke-opacity:1"
         inkscape:connector-curvature="0" />
      <path
         id="path3159"
         d="M 53.881107,164.6932 V 285.28052"
         style="fill:none;stroke:#a6a6a6;stroke-width:1.17303px;stroke-linecap:round;stroke-linejoin:round;stroke-dasharray:none;stroke-opacity:1"
         inkscape:connector-curvature="0" />
      <path
         id="path3161"
         d="M 148.4272,144.82991 V 285.28052"
         style="fill:none;stroke:#944266;stroke-width:1.17303px;stroke-linecap:round;stroke-linejoin:round;stroke-dasharray:none;stroke-opacity:1"
         inkscape:connector-curvature="0" />
      <path
         id="path3163"
         d="M 337.59759,115.03499 V 285.28052"
         style="fill:none;stroke:#944266;stroke-width:1.17303px;stroke-linecap:round;stroke-linejoin:round;stroke-dasharray:none;stroke-opacity:1"
         inkscape:connector-curvature="0" />
      <path
         id="path3165"
         d="M 432.22189,102.28808 V 285.28052"
         style="fill:none;stroke:#944266;stroke-width:1.17303px;stroke-linecap:round;stroke-linejoin:round;stroke-dasharray:none;stroke-opacity:1"
         inkscape:connector-curvature="0" />
      <path
         id="path3167"
         d="M 526.76798,92.825652 V 285.28052"
         style="fill:none;stroke:#944266;stroke-width:1.17303px;stroke-linecap:round;stroke-linejoin:round;stroke-dasharray:none;stroke-opacity:1"
         inkscape:connector-curvature="0" />
      <path
         id="path3169"
         d="M 621.39228,84.770857 V 285.28052"
         style="fill:none;stroke:#a6a6a6;stroke-width:1.17303px;stroke-linecap:round;stroke-linejoin:round;stroke-dasharray:none;stroke-opacity:1"
         inkscape:connector-curvature="0" />
      <path
         id="path3171"
         d="M 243.0515,129.73695 V 285.28052"
         style="fill:none;stroke:#944266;stroke-width:1.17303px;stroke-linecap:round;stroke-linejoin:round;stroke-dasharray:none;stroke-opacity:1"
         inkscape:connector-curvature="0" />
      <path
         id="path3173"
         d="M 6.5689594,124.73203 H 645.00925"
         style="fill:none;stroke:#3475cd;stroke-width:2.03325px;stroke-linecap:round;stroke-linejoin:round;stroke-dasharray:none;stroke-opacity:1"
         inkscape:connector-curvature="0" />
      <path
         id="path3175"
         d="m 6.5689594,275.19248 h 8.7586126 c 0.391009,0 0.625615,0.3128 0.625615,0.62561 0,0.39101 -0.234606,0.62562 -0.625615,0.62562 H 6.5689594 c -0.3128076,0 -0.6256152,-0.23461 -0.6256152,-0.62562 0,-0.31281 0.3128076,-0.62561 0.6256152,-0.62561 z m 15.0147646,0 h 8.758612 c 0.39101,0 0.625615,0.3128 0.625615,0.62561 0,0.39101 -0.234605,0.62562 -0.625615,0.62562 h -8.758612 c -0.312808,0 -0.625615,-0.23461 -0.625615,-0.62562 0,-0.31281 0.312807,-0.62561 0.625615,-0.62561 z m 15.014764,0 h 8.758613 c 0.391009,0 0.625615,0.3128 0.625615,0.62561 0,0.39101 -0.234606,0.62562 -0.625615,0.62562 h -8.758613 c -0.312808,0 -0.625615,-0.23461 -0.625615,-0.62562 0,-0.31281 0.312807,-0.62561 0.625615,-0.62561 z m 15.014764,0 h 0.39101 c 0.312807,0 0.625615,0.3128 0.625615,0.62561 0,0.39101 -0.312808,0.62562 -0.625615,0.62562 h -0.39101 c -0.312807,0 -0.625615,-0.23461 -0.625615,-0.62562 0,-0.31281 0.312808,-0.62561 0.625615,-0.62561 z"
         style="fill:#3475cd;fill-opacity:1;fill-rule:nonzero;stroke:#3475cd;stroke-width:1.25123px;stroke-linecap:butt;stroke-linejoin:bevel;stroke-dasharray:none;stroke-opacity:1"
         inkscape:connector-curvature="0" />
      <path
         id="path3177"
         d="m 149.44383,290.05084 v 13.99814 c 0,0.54741 -0.46922,1.01662 -1.01663,1.01662 -0.54741,0 -0.93842,-0.46921 -0.93842,-1.01662 v -13.99814 c 0,-0.54742 0.39101,-1.01663 0.93842,-1.01663 0.54741,0 1.01663,0.46921 1.01663,1.01663 z"
         style="fill:#3475cd;fill-opacity:1;fill-rule:nonzero;stroke:#3475cd;stroke-width:1.25123px;stroke-linecap:butt;stroke-linejoin:bevel;stroke-dasharray:none;stroke-opacity:1"
         inkscape:connector-curvature="0" />
      <path
         id="path3179"
         d="m 243.98992,290.05084 v 13.99814 c 0,0.54741 -0.46921,1.01662 -1.01662,1.01662 -0.54742,0 -1.01663,-0.46921 -1.01663,-1.01662 v -13.99814 c 0,-0.54742 0.46921,-1.01663 1.01663,-1.01663 0.54741,0 1.01662,0.46921 1.01662,1.01663 z"
         style="fill:#3475cd;fill-opacity:1;fill-rule:nonzero;stroke:#3475cd;stroke-width:1.25123px;stroke-linecap:butt;stroke-linejoin:bevel;stroke-dasharray:none;stroke-opacity:1"
         inkscape:connector-curvature="0" />
      <path
         id="path3181"
         d="m 156.6384,297.08901 h 76.79426"
         style="fill:none;stroke:#3475cd;stroke-width:1.17303px;stroke-linecap:round;stroke-linejoin:round;stroke-dasharray:none;stroke-opacity:1"
         inkscape:connector-curvature="0" />
      <path
         id="path3183"
         d="m 148.4272,297.08901 10.87007,-5.39593 c -1.72045,3.44088 -1.72045,7.42918 0,10.87006 v 0 z"
         style="fill:#3475cd;fill-opacity:1;fill-rule:evenodd;stroke:none"
         inkscape:connector-curvature="0" />
      <path
         id="path3185"
         d="m 241.64386,297.08901 -10.87006,5.47413 c 1.72044,-3.44088 1.72044,-7.42918 0,-10.87006 z"
         style="fill:#3475cd;fill-opacity:1;fill-rule:evenodd;stroke:none"
         inkscape:connector-curvature="0" />
      <text
         id="text3187"
         style="font-style:normal;font-weight:normal;font-size:20.0197px;line-height:0%;font-family:Arial;text-align:start;text-anchor:start;fill:#3475cd"
         y="320.31497"
         x="160.15749"
         xml:space="preserve">3200</text>
      <text
         id="text3189"
         style="font-style:normal;font-weight:normal;font-size:20.0197px;line-height:0%;font-family:Arial;text-align:start;text-anchor:start;fill:#3475cd"
         y="320.31497"
         x="210.2067"
         xml:space="preserve">ps</text>
      <path
         id="path3191"
         d="m 54.897732,290.05084 v 13.99814 c 0,0.54741 -0.469211,1.01662 -1.016625,1.01662 -0.547413,0 -1.016624,-0.46921 -1.016624,-1.01662 v -13.99814 c 0,-0.54742 0.469211,-1.01663 1.016624,-1.01663 0.547414,0 1.016625,0.46921 1.016625,1.01663 z"
         style="fill:#3475cd;fill-opacity:1;fill-rule:nonzero;stroke:#3475cd;stroke-width:1.25123px;stroke-linecap:butt;stroke-linejoin:bevel;stroke-dasharray:none;stroke-opacity:1"
         inkscape:connector-curvature="0" />
      <path
         id="path3193"
         d="m 338.61422,290.05084 v 13.99814 c 0,0.54741 -0.46922,1.01662 -1.01663,1.01662 -0.54741,0 -1.01662,-0.46921 -1.01662,-1.01662 v -13.99814 c 0,-0.54742 0.46921,-1.01663 1.01662,-1.01663 0.54741,0 1.01663,0.46921 1.01663,1.01663 z"
         style="fill:#3475cd;fill-opacity:1;fill-rule:nonzero;stroke:#3475cd;stroke-width:1.25123px;stroke-linecap:butt;stroke-linejoin:bevel;stroke-dasharray:none;stroke-opacity:1"
         inkscape:connector-curvature="0" />
      <path
         id="path3195"
         d="m 433.23851,290.05084 v 13.99814 c 0,0.54741 -0.46921,1.01662 -1.01662,1.01662 -0.54742,0 -1.01663,-0.46921 -1.01663,-1.01662 v -13.99814 c 0,-0.54742 0.46921,-1.01663 1.01663,-1.01663 0.54741,0 1.01662,0.46921 1.01662,1.01663 z"
         style="fill:#3475cd;fill-opacity:1;fill-rule:nonzero;stroke:#3475cd;stroke-width:1.25123px;stroke-linecap:butt;stroke-linejoin:bevel;stroke-dasharray:none;stroke-opacity:1"
         inkscape:connector-curvature="0" />
      <path
         id="path3197"
         d="m 527.78461,290.05084 v 13.99814 c 0,0.54741 -0.46922,1.01662 -1.01663,1.01662 -0.54741,0 -1.01662,-0.46921 -1.01662,-1.01662 v -13.99814 c 0,-0.54742 0.46921,-1.01663 1.01662,-1.01663 0.54741,0 1.01663,0.46921 1.01663,1.01663 z"
         style="fill:#3475cd;fill-opacity:1;fill-rule:nonzero;stroke:#3475cd;stroke-width:1.25123px;stroke-linecap:butt;stroke-linejoin:bevel;stroke-dasharray:none;stroke-opacity:1"
         inkscape:connector-curvature="0" />
      <path
         id="path3199"
         d="m 622.3307,290.05084 v 13.99814 c 0,0.54741 -0.39101,1.01662 -0.93842,1.01662 -0.54742,0 -1.01663,-0.46921 -1.01663,-1.01662 v -13.99814 c 0,-0.54742 0.46921,-1.01663 1.01663,-1.01663 0.54741,0 0.93842,0.46921 0.93842,1.01663 z"
         style="fill:#3475cd;fill-opacity:1;fill-rule:nonzero;stroke:#3475cd;stroke-width:1.25123px;stroke-linecap:butt;stroke-linejoin:bevel;stroke-dasharray:none;stroke-opacity:1"
         inkscape:connector-curvature="0" />
    </g>
  </g>
</svg>
