<?xml version="1.0" encoding="UTF-8" standalone="no"?>
<!-- Created with Inkscape (http://www.inkscape.org/) -->

<svg
   width="619.45251"
   height="259.29321"
   id="svg2"
   version="1.1"
   inkscape:version="1.3 (0e150ed6c4, 2023-07-21)"
   sodipodi:docname="2ChannelMode_AA_DD.svg"
   inkscape:export-filename="2ChannelMode_AA_DD.pdf"
   inkscape:export-xdpi="96"
   inkscape:export-ydpi="96"
   xmlns:inkscape="http://www.inkscape.org/namespaces/inkscape"
   xmlns:sodipodi="http://sodipodi.sourceforge.net/DTD/sodipodi-0.dtd"
   xmlns="http://www.w3.org/2000/svg"
   xmlns:svg="http://www.w3.org/2000/svg"
   xmlns:rdf="http://www.w3.org/1999/02/22-rdf-syntax-ns#"
   xmlns:cc="http://creativecommons.org/ns#"
   xmlns:dc="http://purl.org/dc/elements/1.1/">
  <defs
     id="defs4">
    <filter
       id="filter3075"
       inkscape:label="Drop Shadow"
       color-interpolation-filters="sRGB"
       x="-0.013030664"
       y="-0.031667266"
       width="1.0310929"
       height="1.0755624">
      <feFlood
         id="feFlood3077"
         flood-opacity="0.5"
         flood-color="rgb(0,0,0)"
         result="flood" />
      <feComposite
         id="feComposite3079"
         in2="SourceGraphic"
         in="flood"
         operator="in"
         result="composite1" />
      <feGaussianBlur
         id="feGaussianBlur3081"
         stdDeviation="4"
         result="blur" />
      <feOffset
         id="feOffset3083"
         dx="4"
         dy="4"
         result="offset" />
      <feComposite
         id="feComposite3085"
         in2="offset"
         in="SourceGraphic"
         operator="over"
         result="composite2" />
    </filter>
    <filter
       id="filter3880"
       inkscape:label="Drop Shadow"
       color-interpolation-filters="sRGB"
       x="-0.012089632"
       y="-0.028833089"
       width="1.0288516"
       height="1.0688094">
      <feFlood
         id="feFlood3882"
         flood-opacity="0.5"
         flood-color="rgb(0,0,0)"
         result="flood" />
      <feComposite
         id="feComposite3884"
         in2="SourceGraphic"
         in="flood"
         operator="in"
         result="composite1" />
      <feGaussianBlur
         id="feGaussianBlur3886"
         stdDeviation="4"
         result="blur" />
      <feOffset
         id="feOffset3888"
         dx="4"
         dy="4"
         result="offset" />
      <feComposite
         id="feComposite3890"
         in2="offset"
         in="SourceGraphic"
         operator="over"
         result="composite2" />
    </filter>
  </defs>
  <sodipodi:namedview
     id="base"
     pagecolor="#ffffff"
     bordercolor="#666666"
     borderopacity="1.0"
     inkscape:pageopacity="0.0"
     inkscape:pageshadow="2"
     inkscape:zoom="1.979899"
     inkscape:cx="160.61425"
     inkscape:cy="239.65869"
     inkscape:document-units="px"
     inkscape:current-layer="g2989"
     showgrid="false"
     fit-margin-top="0"
     fit-margin-left="0"
     fit-margin-right="0"
     fit-margin-bottom="0"
     inkscape:window-width="3440"
     inkscape:window-height="1369"
     inkscape:window-x="-8"
     inkscape:window-y="-8"
     inkscape:window-maximized="1"
     inkscape:showpageshadow="2"
     inkscape:pagecheckerboard="0"
     inkscape:deskcolor="#d1d1d1" />
  <metadata
     id="metadata7">
    <rdf:RDF>
      <cc:Work
         rdf:about="">
        <dc:format>image/svg+xml</dc:format>
        <dc:type
           rdf:resource="http://purl.org/dc/dcmitype/StillImage" />
      </cc:Work>
    </rdf:RDF>
  </metadata>
  <g
     inkscape:label="Ebene 1"
     inkscape:groupmode="layer"
     id="layer1"
     transform="translate(70.728563,-434.94527)">
    <g
       id="g2989"
       transform="matrix(0.83699515,0,0,0.83699515,-107.39303,433.37436)">
      <text
         id="text2991"
         style="font-style:normal;font-weight:normal;font-size:16.266px;line-height:0%;font-family:Arial;text-align:start;text-anchor:start;fill:#8c8c8c"
         y="115.31747"
         x="42.994751"
         xml:space="preserve">CLK</text>
      <path
         id="path3001"
         d="M 85.396472,109.32625 H 111.4377"
         style="fill:none;stroke:#8c8c8c;stroke-width:2.03325px;stroke-linecap:round;stroke-linejoin:round;stroke-dasharray:none;stroke-opacity:1"
         inkscape:connector-curvature="0" />
      <path
         id="path3003"
         d="m 120.82193,109.32625 -12.4341,6.17795 c 1.95505,-3.91009 1.95505,-8.524 0,-12.3559 z"
         style="fill:#8c8c8c;fill-opacity:1;fill-rule:evenodd;stroke:none"
         inkscape:connector-curvature="0" />
      <path
         id="path3005"
         d="m 120.82193,85.70928 v 47.23395 h 82.73761 V 85.70928 Z"
         style="fill:none;fill-opacity:1;fill-rule:evenodd;stroke:none"
         inkscape:connector-curvature="0" />
      <path
         id="path3007"
         d="m 120.82193,132.94323 h 82.73761 V 85.70928 h -82.73761 z"
         style="fill:none;stroke:#8c8c8c;stroke-width:2.03325px;stroke-linecap:round;stroke-linejoin:round;stroke-dasharray:none;stroke-opacity:1"
         inkscape:connector-curvature="0" />
      <text
         id="text3009"
         style="font-style:normal;font-weight:normal;font-size:16.266px;line-height:0%;font-family:Arial;text-align:start;text-anchor:start;fill:#8c8c8c"
         y="103.85212"
         x="138.88657"
         xml:space="preserve">Clock </text>
      <text
         id="text3011"
         style="font-style:normal;font-weight:normal;font-size:16.266px;line-height:0%;font-family:Arial;text-align:start;text-anchor:start;fill:#8c8c8c"
         y="123.87181"
         x="140.1378"
         xml:space="preserve">circuit</text>
      <text
         id="text3013"
         style="font-style:normal;font-weight:normal;font-size:16.266px;line-height:0%;font-family:Arial;text-align:start;text-anchor:start;fill:#376eb5"
         y="57.556599"
         x="150.14764"
         xml:space="preserve">Inverted</text>
      <text
         id="text3017"
         style="font-style:normal;font-weight:normal;font-size:16.266px;line-height:0%;font-family:Arial;text-align:start;text-anchor:start;fill:#376eb5"
         y="77.576279"
         x="150.36496"
         xml:space="preserve">1.6 GHz</text>
      <path
         id="path3019"
         d="M 97.204959,274.80147 H 782.8792 V 2.8934702 H 97.204959 Z"
         style="fill:none;stroke:#8c8c8c;stroke-width:2.03325px;stroke-linecap:round;stroke-linejoin:round;stroke-dasharray:none;stroke-opacity:1"
         inkscape:connector-curvature="0" />
      <path
         id="path3021"
         d="m 203.55954,121.13474 h 61.54489"
         style="fill:none;stroke:#8c8c8c;stroke-width:2.03325px;stroke-linecap:round;stroke-linejoin:round;stroke-dasharray:none;stroke-opacity:1"
         inkscape:connector-curvature="0" />
      <path
         id="path3023"
         d="m 274.48866,121.13474 -12.3559,6.17795 c 1.95505,-3.9101 1.95505,-8.44581 0,-12.3559 v 0 z"
         style="fill:#8c8c8c;fill-opacity:1;fill-rule:evenodd;stroke:none"
         inkscape:connector-curvature="0" />
      <path
         id="path3025"
         d="m 274.48866,73.822591 h 82.81581 v 80.391549 l -41.3688,37.84972 -41.44701,-37.84972 z"
         style="fill:none;stroke:#8c8c8c;stroke-width:2.03325px;stroke-linecap:round;stroke-linejoin:round;stroke-dasharray:none;stroke-opacity:1"
         inkscape:connector-curvature="0" />
      <text
         id="text3027"
         style="font-style:normal;font-weight:normal;font-size:16.266px;line-height:0%;font-family:Arial;text-align:start;text-anchor:start;fill:#8c8c8c"
         y="121.36934"
         x="290.28543"
         xml:space="preserve">ADC A</text>
      <text
         id="text3031"
         style="font-style:normal;font-weight:normal;font-size:16.266px;line-height:0%;font-family:Arial;text-align:start;text-anchor:start;fill:#8c8c8c"
         y="141.38902"
         x="281.85712"
         xml:space="preserve">1.6 Gsps</text>
      <path
         id="path3033"
         d="m 404.53842,73.822591 h 82.8158 v 80.391549 l -41.3688,37.84972 -41.447,-37.84972 z"
         style="fill:none;stroke:#8c8c8c;stroke-width:2.03325px;stroke-linecap:round;stroke-linejoin:round;stroke-dasharray:none;stroke-opacity:1"
         inkscape:connector-curvature="0" />
      <text
         id="text3035"
         style="font-style:normal;font-weight:normal;font-size:16.266px;line-height:0%;font-family:Arial;text-align:start;text-anchor:start;fill:#8c8c8c"
         y="121.36934"
         x="420.41339"
         xml:space="preserve">ADC B</text>
      <text
         id="text3039"
         style="font-style:normal;font-weight:normal;font-size:16.266px;line-height:0%;font-family:Arial;text-align:start;text-anchor:start;fill:#8c8c8c"
         y="141.38902"
         x="414.37457"
         xml:space="preserve">1.6 Gsps</text>
      <path
         id="path3041"
         d="m 534.58817,73.822591 h 82.81581 v 80.391549 l -41.3688,37.84972 -41.44701,-37.84972 z"
         style="fill:none;stroke:#8c8c8c;stroke-width:2.03325px;stroke-linecap:round;stroke-linejoin:round;stroke-dasharray:none;stroke-opacity:1"
         inkscape:connector-curvature="0" />
      <text
         id="text3043"
         style="font-style:normal;font-weight:normal;font-size:16.266px;line-height:0%;font-family:Arial;text-align:start;text-anchor:start;fill:#8c8c8c"
         y="121.36934"
         x="550.54138"
         xml:space="preserve">ADC C</text>
      <text
         id="text3047"
         style="font-style:normal;font-weight:normal;font-size:16.266px;line-height:0%;font-family:Arial;text-align:start;text-anchor:start;fill:#8c8c8c"
         y="141.38902"
         x="544.50214"
         xml:space="preserve">1.6 Gsps</text>
      <path
         id="path3049"
         d="m 664.63793,73.822591 h 82.81581 v 80.391549 l -41.36881,37.84972 -41.447,-37.84972 z"
         style="fill:none;stroke:#8c8c8c;stroke-width:2.03325px;stroke-linecap:round;stroke-linejoin:round;stroke-dasharray:none;stroke-opacity:1"
         inkscape:connector-curvature="0" />
      <text
         id="text3051"
         style="font-style:normal;font-weight:normal;font-size:16.266px;line-height:0%;font-family:Arial;text-align:start;text-anchor:start;fill:#8c8c8c"
         y="121.36934"
         x="680.66931"
         xml:space="preserve">ADC D</text>
      <text
         id="text3055"
         style="font-style:normal;font-weight:normal;font-size:16.266px;line-height:0%;font-family:Arial;text-align:start;text-anchor:start;fill:#8c8c8c"
         y="141.38902"
         x="672.24054"
         xml:space="preserve">1.6 Gsps</text>
      <path
         id="path3093"
         d="M 250.87169,50.205618 V 121.13474"
         style="fill:none;stroke:#8c8c8c;stroke-width:2.03325px;stroke-linecap:round;stroke-linejoin:round;stroke-dasharray:none;stroke-opacity:1"
         inkscape:connector-curvature="0" />
      <path
         id="path3095"
         d="M 499.94473,50.205618 H 250.87169"
         style="fill:none;stroke:#8c8c8c;stroke-width:2.03325px;stroke-linecap:round;stroke-linejoin:round;stroke-dasharray:none;stroke-opacity:1"
         inkscape:connector-curvature="0" />
      <path
         id="path3097"
         d="M 369.89497,26.588645 V 121.13474"
         style="fill:none;stroke:#376eb5;stroke-width:2.03325px;stroke-linecap:round;stroke-linejoin:round;stroke-dasharray:none;stroke-opacity:1"
         inkscape:connector-curvature="0" />
      <path
         id="path3099"
         d="m 369.89497,121.13474 h 25.25922"
         style="fill:none;stroke:#376eb5;stroke-width:2.03325px;stroke-linecap:round;stroke-linejoin:round;stroke-dasharray:none;stroke-opacity:1"
         inkscape:connector-curvature="0" />
      <path
         id="path3101"
         d="m 404.53842,121.13474 -12.3559,6.17795 c 1.95504,-3.9101 1.95504,-8.44581 0,-12.3559 v 0 z"
         style="fill:#376eb5;fill-opacity:1;fill-rule:evenodd;stroke:none"
         inkscape:connector-curvature="0" />
      <path
         id="path3103"
         d="m 373.41406,26.588645 c 0,-1.955047 -1.56404,-3.519085 -3.51909,-3.519085 -1.95504,0 -3.51908,1.564038 -3.51908,3.519085 0,1.876846 1.56404,3.440884 3.51908,3.440884 1.95505,0 3.51909,-1.564038 3.51909,-3.440884"
         style="fill:#376eb5;fill-opacity:1;fill-rule:evenodd;stroke:none"
         inkscape:connector-curvature="0" />
      <path
         id="path3105"
         d="m 373.41406,26.588645 c 0,-1.955047 -1.56404,-3.519085 -3.51909,-3.519085 -1.95504,0 -3.51908,1.564038 -3.51908,3.519085 0,1.876846 1.56404,3.440884 3.51908,3.440884 1.95505,0 3.51909,-1.564038 3.51909,-3.440884"
         style="fill:none;stroke:#376eb5;stroke-width:0.391009px;stroke-linecap:round;stroke-linejoin:round;stroke-dasharray:none;stroke-opacity:1"
         inkscape:connector-curvature="0" />
      <path
         id="path3107"
         d="M 499.94473,50.205618 V 121.13474"
         style="fill:none;stroke:#8c8c8c;stroke-width:2.03325px;stroke-linecap:round;stroke-linejoin:round;stroke-dasharray:none;stroke-opacity:1"
         inkscape:connector-curvature="0" />
      <path
         id="path3109"
         d="m 499.94473,121.13474 h 25.25921"
         style="fill:none;stroke:#8c8c8c;stroke-width:2.03325px;stroke-linecap:round;stroke-linejoin:round;stroke-dasharray:none;stroke-opacity:1"
         inkscape:connector-curvature="0" />
      <path
         id="path3111"
         d="m 534.58817,121.13474 -12.3559,6.17795 c 1.95505,-3.9101 1.95505,-8.44581 0,-12.3559 v 0 z"
         style="fill:#8c8c8c;fill-opacity:1;fill-rule:evenodd;stroke:none"
         inkscape:connector-curvature="0" />
      <path
         id="path3113"
         d="M 629.21247,26.588645 V 121.13474"
         style="fill:none;stroke:#376eb5;stroke-width:2.03325px;stroke-linecap:round;stroke-linejoin:round;stroke-dasharray:none;stroke-opacity:1"
         inkscape:connector-curvature="0" />
      <path
         id="path3115"
         d="M 629.21247,121.13474 H 655.2537"
         style="fill:none;stroke:#376eb5;stroke-width:2.03325px;stroke-linecap:round;stroke-linejoin:round;stroke-dasharray:none;stroke-opacity:1"
         inkscape:connector-curvature="0" />
      <path
         id="path3117"
         d="m 664.63793,121.13474 -12.3559,6.17795 c 1.95504,-3.9101 1.95504,-8.44581 0,-12.3559 v 0 z"
         style="fill:#376eb5;fill-opacity:1;fill-rule:evenodd;stroke:none"
         inkscape:connector-curvature="0" />
      <text
         id="text3123"
         style="font-style:normal;font-weight:normal;font-size:16.266px;line-height:0%;font-family:Arial;text-align:start;text-anchor:start;fill:#8c8c8c"
         y="151.2773"
         x="202.13449"
         xml:space="preserve">In-phase</text>
      <text
         id="text3125"
         style="font-style:normal;font-weight:normal;font-size:16.266px;line-height:0%;font-family:Arial;text-align:start;text-anchor:start;fill:#8c8c8c"
         y="170.7178"
         x="201.18643"
         xml:space="preserve">1.6 GHz</text>
      <path
         id="path3129"
         d="M 227.25471,26.588645 V 97.126757"
         style="fill:none;stroke:#376eb5;stroke-width:2.03325px;stroke-linecap:round;stroke-linejoin:round;stroke-dasharray:none;stroke-opacity:1"
         inkscape:connector-curvature="0" />
      <path
         id="path3131"
         d="M 629.21247,26.588645 H 227.25471"
         style="fill:none;stroke:#376eb5;stroke-width:2.03346459;stroke-linecap:round;stroke-linejoin:round;stroke-dasharray:none;stroke-opacity:1"
         inkscape:connector-curvature="0" />
      <path
         id="path3165"
         d="M 227.25471,97.126757 H 203.55954"
         style="fill:none;stroke:#376eb5;stroke-width:2.03325px;stroke-linecap:round;stroke-linejoin:round;stroke-dasharray:none;stroke-opacity:1"
         inkscape:connector-curvature="0" />
      <path
         id="path3167"
         d="m 250.87169,117.61565 c -1.95505,0 -3.51909,1.56404 -3.51909,3.51909 0,1.95505 1.56404,3.51908 3.51909,3.51908 1.95504,0 3.51908,-1.56403 3.51908,-3.51908 0,-1.95505 -1.56404,-3.51909 -3.51908,-3.51909"
         style="fill:#8c8c8c;fill-opacity:1;fill-rule:evenodd;stroke:none"
         inkscape:connector-curvature="0" />
      <path
         id="path3169"
         d="m 250.87169,117.61565 c -1.95505,0 -3.51909,1.56404 -3.51909,3.51909 0,1.95505 1.56404,3.51908 3.51909,3.51908 1.95504,0 3.51908,-1.56403 3.51908,-3.51908 0,-1.95505 -1.56404,-3.51909 -3.51908,-3.51909"
         style="fill:none;stroke:#8c8c8c;stroke-width:0.391009px;stroke-linecap:round;stroke-linejoin:round;stroke-dasharray:none;stroke-opacity:1"
         inkscape:connector-curvature="0" />
    </g>
    <path
       id="path3505"
       d="M 147.7161,647.04006 V 608.04543"
       style="fill:none;stroke:#8c8c8c;stroke-width:1.7184px;stroke-linecap:round;stroke-linejoin:round;stroke-dasharray:none;stroke-opacity:1"
       inkscape:connector-curvature="0" />
    <path
       id="path3507"
       d="m 147.7161,600.11432 5.22132,10.50872 c -3.30463,-1.65232 -7.138,-1.65232 -10.44263,0 v 0 z"
       style="fill:#8c8c8c;fill-opacity:1;fill-rule:evenodd;stroke:none;stroke-width:1.08721"
       inkscape:connector-curvature="0" />
    <path
       id="path3509"
       d="M 163.71052,627.08009 V 608.04543"
       style="fill:none;stroke:#8c8c8c;stroke-width:1.7184px;stroke-linecap:round;stroke-linejoin:round;stroke-dasharray:none;stroke-opacity:1"
       inkscape:connector-curvature="0" />
    <path
       id="path3511"
       d="m 163.71052,600.11432 5.22132,10.50872 c -3.30463,-1.65232 -7.138,-1.65232 -10.44264,0 z"
       style="fill:#8c8c8c;fill-opacity:1;fill-rule:evenodd;stroke:none;stroke-width:1.08721"
       inkscape:connector-curvature="0" />
    <path
       id="path3513"
       d="M 257.23154,647.04006 V 608.04543"
       style="fill:none;stroke:#8c8c8c;stroke-width:1.7184px;stroke-linecap:round;stroke-linejoin:round;stroke-dasharray:none;stroke-opacity:1"
       inkscape:connector-curvature="0" />
    <path
       id="path3515"
       d="m 257.23154,600.11432 5.22132,10.50872 c -3.30464,-1.65232 -7.138,-1.65232 -10.44263,0 z"
       style="fill:#8c8c8c;fill-opacity:1;fill-rule:evenodd;stroke:none;stroke-width:1.08721"
       inkscape:connector-curvature="0" />
    <path
       id="path3517"
       d="M 273.22596,627.08009 V 608.04543"
       style="fill:none;stroke:#8c8c8c;stroke-width:1.7184px;stroke-linecap:round;stroke-linejoin:round;stroke-dasharray:none;stroke-opacity:1"
       inkscape:connector-curvature="0" />
    <path
       id="path3519"
       d="m 273.22596,600.11432 5.22132,10.50872 c -3.30464,-1.65232 -7.2041,-1.65232 -10.50873,0 z"
       style="fill:#8c8c8c;fill-opacity:1;fill-rule:evenodd;stroke:none;stroke-width:1.08721"
       inkscape:connector-curvature="0" />
    <path
       id="path3521"
       d="M 367.5401,647.04006 V 608.04543"
       style="fill:none;stroke:#8c8c8c;stroke-width:1.7184px;stroke-linecap:round;stroke-linejoin:round;stroke-dasharray:none;stroke-opacity:1"
       inkscape:connector-curvature="0" />
    <path
       id="path3523"
       d="m 367.5401,600.11432 5.22131,10.50872 c -3.30463,-1.65232 -7.138,-1.65232 -10.44263,0 z"
       style="fill:#8c8c8c;fill-opacity:1;fill-rule:evenodd;stroke:none;stroke-width:1.08721"
       inkscape:connector-curvature="0" />
    <path
       id="path3525"
       d="M 383.53449,627.08009 V 608.04543"
       style="fill:none;stroke:#8c8c8c;stroke-width:1.7184px;stroke-linecap:round;stroke-linejoin:round;stroke-dasharray:none;stroke-opacity:1"
       inkscape:connector-curvature="0" />
    <path
       id="path3527"
       d="m 383.53449,600.11432 5.22131,10.50872 c -3.30462,-1.65232 -7.20408,-1.65232 -10.44263,0 v 0 z"
       style="fill:#8c8c8c;fill-opacity:1;fill-rule:evenodd;stroke:none;stroke-width:1.08721"
       inkscape:connector-curvature="0" />
    <text
       id="text3533"
       style="font-style:normal;font-weight:normal;font-size:13.7473px;line-height:0%;font-family:Arial;text-align:start;text-anchor:start;fill:#8c8c8c;stroke-width:1.08721"
       y="694.07068"
       x="274.63187"
       xml:space="preserve">Channel A or D</text>
    <path
       id="path3583"
       d="M 163.71052,627.08009 H 273.22596"
       style="fill:none;stroke:#8c8c8c;stroke-width:1.7184px;stroke-linecap:round;stroke-linejoin:round;stroke-dasharray:none;stroke-opacity:1"
       inkscape:connector-curvature="0" />
    <path
       id="path3585"
       d="M 147.7161,647.04006 H 312.35277"
       style="fill:none;stroke:#8c8c8c;stroke-width:1.7184px;stroke-linecap:round;stroke-linejoin:round;stroke-dasharray:none;stroke-opacity:1"
       inkscape:connector-curvature="0" />
    <path
       id="path3587"
       d="M 477.05552,627.08009 V 608.04543"
       style="fill:none;stroke:#8c8c8c;stroke-width:1.7184px;stroke-linecap:round;stroke-linejoin:round;stroke-dasharray:none;stroke-opacity:1"
       inkscape:connector-curvature="0" />
    <path
       id="path3589"
       d="m 477.05552,600.11432 5.22131,10.50872 c -3.30462,-1.65232 -7.138,-1.65232 -10.44263,0 z"
       style="fill:#8c8c8c;fill-opacity:1;fill-rule:evenodd;stroke:none;stroke-width:1.08721"
       inkscape:connector-curvature="0" />
    <path
       id="path3591"
       d="M 493.04993,647.10616 V 608.04543"
       style="fill:none;stroke:#8c8c8c;stroke-width:1.7184px;stroke-linecap:round;stroke-linejoin:round;stroke-dasharray:none;stroke-opacity:1"
       inkscape:connector-curvature="0" />
    <path
       id="path3593"
       d="m 493.04993,600.11432 5.22132,10.50872 c -3.30464,-1.65232 -7.2041,-1.65232 -10.50873,0 z"
       style="fill:#8c8c8c;fill-opacity:1;fill-rule:evenodd;stroke:none;stroke-width:1.08721"
       inkscape:connector-curvature="0" />
    <path
       id="path3595"
       d="m 383.53449,627.08009 h 93.52103"
       style="fill:none;stroke:#8c8c8c;stroke-width:1.7184px;stroke-linecap:round;stroke-linejoin:round;stroke-dasharray:none;stroke-opacity:1"
       inkscape:connector-curvature="0" />
    <path
       id="path3597"
       d="m 383.53449,624.17202 c -1.65231,0 -2.97415,1.32186 -2.97415,2.90807 0,1.65231 1.32184,2.97417 2.97415,2.97417 1.65233,0 2.90808,-1.32186 2.90808,-2.97417 0,-1.58621 -1.25575,-2.90807 -2.90808,-2.90807"
       style="fill:#8c8c8c;fill-opacity:1;fill-rule:evenodd;stroke:none;stroke-width:1.08721"
       inkscape:connector-curvature="0" />
    <path
       id="path3599"
       d="m 383.53449,624.17202 c -1.65231,0 -2.97415,1.32186 -2.97415,2.90807 0,1.65231 1.32184,2.97417 2.97415,2.97417 1.65233,0 2.90808,-1.32186 2.90808,-2.97417 0,-1.58621 -1.25575,-2.90807 -2.90808,-2.90807"
       style="fill:none;stroke:#8c8c8c;stroke-width:0.330462px;stroke-linecap:round;stroke-linejoin:round;stroke-dasharray:none;stroke-opacity:1"
       inkscape:connector-curvature="0" />
    <path
       id="path3601"
       d="m 312.35277,647.04006 180.69716,0.0661"
       style="fill:none;stroke:#8c8c8c;stroke-width:1.7184px;stroke-linecap:round;stroke-linejoin:round;stroke-dasharray:none;stroke-opacity:1"
       inkscape:connector-curvature="0" />
    <path
       id="path3603"
       d="m 367.5401,644.13199 c -1.65233,0 -2.97418,1.32185 -2.97418,2.90807 0,1.65232 1.32185,2.97416 2.97418,2.97416 1.6523,0 2.97416,-1.32184 2.97416,-2.97416 0,-1.58622 -1.32186,-2.90807 -2.97416,-2.90807"
       style="fill:#8c8c8c;fill-opacity:1;fill-rule:evenodd;stroke:none;stroke-width:1.08721"
       inkscape:connector-curvature="0" />
    <path
       id="path3605"
       d="m 367.5401,644.13199 c -1.65233,0 -2.97418,1.32185 -2.97418,2.90807 0,1.65232 1.32185,2.97416 2.97418,2.97416 1.6523,0 2.97416,-1.32184 2.97416,-2.97416 0,-1.58622 -1.32186,-2.90807 -2.97416,-2.90807"
       style="fill:none;stroke:#8c8c8c;stroke-width:0.330462px;stroke-linecap:round;stroke-linejoin:round;stroke-dasharray:none;stroke-opacity:1"
       inkscape:connector-curvature="0" />
    <path
       id="path3645"
       d="M 312.35277,677.04611 V 647.04006"
       style="fill:none;stroke:#8c8c8c;stroke-width:1.7184px;stroke-linecap:round;stroke-linejoin:round;stroke-dasharray:none;stroke-opacity:1"
       inkscape:connector-curvature="0" />
    <path
       id="path3647"
       d="M 328.34719,677.04611 V 627.08009"
       style="fill:none;stroke:#8c8c8c;stroke-width:1.7184px;stroke-linecap:round;stroke-linejoin:round;stroke-dasharray:none;stroke-opacity:1"
       inkscape:connector-curvature="0" />
    <path
       id="path3649"
       d="m 328.34719,627.08009 h 55.1873"
       style="fill:none;stroke:#8c8c8c;stroke-width:1.7184px;stroke-linecap:round;stroke-linejoin:round;stroke-dasharray:none;stroke-opacity:1"
       inkscape:connector-curvature="0" />
    <path
       id="path3651"
       d="m 273.22596,627.08009 h 55.12123"
       style="fill:none;stroke:#8c8c8c;stroke-width:1.7184px;stroke-linecap:round;stroke-linejoin:round;stroke-dasharray:none;stroke-opacity:1"
       inkscape:connector-curvature="0" />
    <path
       id="path3653"
       d="m 273.22596,624.10593 c -1.65232,0 -2.97417,1.32185 -2.97417,2.97416 0,1.65231 1.32185,2.97417 2.97417,2.97417 1.58621,0 2.90806,-1.32186 2.90806,-2.97417 0,-1.65231 -1.32185,-2.97416 -2.90806,-2.97416"
       style="fill:#8c8c8c;fill-opacity:1;fill-rule:evenodd;stroke:none;stroke-width:1.08721"
       inkscape:connector-curvature="0" />
    <path
       id="path3655"
       d="m 273.22596,624.10593 c -1.65232,0 -2.97417,1.32185 -2.97417,2.97416 0,1.65231 1.32185,2.97417 2.97417,2.97417 1.58621,0 2.90806,-1.32186 2.90806,-2.97417 0,-1.65231 -1.32185,-2.97416 -2.90806,-2.97416"
       style="fill:none;stroke:#8c8c8c;stroke-width:0.330462px;stroke-linecap:round;stroke-linejoin:round;stroke-dasharray:none;stroke-opacity:1"
       inkscape:connector-curvature="0" />
    <path
       id="path3657"
       d="m 257.23154,644.13199 c -1.65231,0 -2.97416,1.32185 -2.97416,2.90807 0,1.65232 1.32185,2.97416 2.97416,2.97416 1.65232,0 2.97417,-1.32184 2.97417,-2.97416 0,-1.58622 -1.32185,-2.90807 -2.97417,-2.90807"
       style="fill:#8c8c8c;fill-opacity:1;fill-rule:evenodd;stroke:none;stroke-width:1.08721"
       inkscape:connector-curvature="0" />
    <path
       id="path3659"
       d="m 257.23154,644.13199 c -1.65231,0 -2.97416,1.32185 -2.97416,2.90807 0,1.65232 1.32185,2.97416 2.97416,2.97416 1.65232,0 2.97417,-1.32184 2.97417,-2.97416 0,-1.58622 -1.32185,-2.90807 -2.97417,-2.90807"
       style="fill:none;stroke:#8c8c8c;stroke-width:0.330462px;stroke-linecap:round;stroke-linejoin:round;stroke-dasharray:none;stroke-opacity:1"
       inkscape:connector-curvature="0" />
    <path
       id="path3661"
       d="m 328.34719,624.17202 c -1.58624,0 -2.90808,1.32186 -2.90808,2.90807 0,1.65231 1.32184,2.97417 2.90808,2.97417 1.65231,0 2.97416,-1.32186 2.97416,-2.97417 0,-1.58621 -1.32185,-2.90807 -2.97416,-2.90807"
       style="fill:#8c8c8c;fill-opacity:1;fill-rule:evenodd;stroke:none;stroke-width:1.08721"
       inkscape:connector-curvature="0" />
    <path
       id="path3663"
       d="m 328.34719,624.17202 c -1.58624,0 -2.90808,1.32186 -2.90808,2.90807 0,1.65231 1.32184,2.97417 2.90808,2.97417 1.65231,0 2.97416,-1.32186 2.97416,-2.97417 0,-1.58621 -1.32185,-2.90807 -2.97416,-2.90807"
       style="fill:none;stroke:#8c8c8c;stroke-width:0.330462px;stroke-linecap:round;stroke-linejoin:round;stroke-dasharray:none;stroke-opacity:1"
       inkscape:connector-curvature="0" />
    <path
       id="path3665"
       d="m 312.35277,644.13199 c -1.58622,0 -2.90807,1.32185 -2.90807,2.90807 0,1.65232 1.32185,2.97416 2.90807,2.97416 1.65231,0 2.97416,-1.32184 2.97416,-2.97416 0,-1.58622 -1.32185,-2.90807 -2.97416,-2.90807"
       style="fill:#8c8c8c;fill-opacity:1;fill-rule:evenodd;stroke:none;stroke-width:1.08721"
       inkscape:connector-curvature="0" />
    <path
       id="path3667"
       d="m 312.35277,644.13199 c -1.58622,0 -2.90807,1.32185 -2.90807,2.90807 0,1.65232 1.32185,2.97416 2.90807,2.97416 1.65231,0 2.97416,-1.32184 2.97416,-2.97416 0,-1.58622 -1.32185,-2.90807 -2.97416,-2.90807"
       style="fill:none;stroke:#8c8c8c;stroke-width:0.330462px;stroke-linecap:round;stroke-linejoin:round;stroke-dasharray:none;stroke-opacity:1"
       inkscape:connector-curvature="0" />
  </g>
</svg>
