<?xml version="1.0" encoding="UTF-8" standalone="no"?>
<!-- Created with Inkscape (http://www.inkscape.org/) -->

<svg
   width="685.81165"
   height="276.87521"
   id="svg2"
   version="1.1"
   inkscape:version="1.3 (0e150ed6c4, 2023-07-21)"
   sodipodi:docname="4ChannelMode_AAAA_DDDD.svg"
   inkscape:export-filename="4ChannelMode_AAAA_DDDD.pdf"
   inkscape:export-xdpi="96"
   inkscape:export-ydpi="96"
   xmlns:inkscape="http://www.inkscape.org/namespaces/inkscape"
   xmlns:sodipodi="http://sodipodi.sourceforge.net/DTD/sodipodi-0.dtd"
   xmlns="http://www.w3.org/2000/svg"
   xmlns:svg="http://www.w3.org/2000/svg"
   xmlns:rdf="http://www.w3.org/1999/02/22-rdf-syntax-ns#"
   xmlns:cc="http://creativecommons.org/ns#"
   xmlns:dc="http://purl.org/dc/elements/1.1/">
  <defs
     id="defs4">
    <filter
       id="filter3062"
       inkscape:label="Drop Shadow"
       color-interpolation-filters="sRGB"
       x="-0.012879587"
       y="-0.036257448"
       width="1.0307326"
       height="1.0865157">
      <feFlood
         id="feFlood3064"
         flood-opacity="0.5"
         flood-color="rgb(0,0,0)"
         result="flood" />
      <feComposite
         id="feComposite3066"
         in2="SourceGraphic"
         in="flood"
         operator="in"
         result="composite1" />
      <feGaussianBlur
         id="feGaussianBlur3068"
         stdDeviation="4"
         result="blur" />
      <feOffset
         id="feOffset3070"
         dx="4"
         dy="4"
         result="offset" />
      <feComposite
         id="feComposite3072"
         in2="offset"
         in="SourceGraphic"
         operator="over"
         result="composite2" />
    </filter>
    <filter
       id="filter3075"
       inkscape:label="Drop Shadow"
       color-interpolation-filters="sRGB"
       x="-0.013030664"
       y="-0.031667266"
       width="1.0310929"
       height="1.0755624">
      <feFlood
         id="feFlood3077"
         flood-opacity="0.5"
         flood-color="rgb(0,0,0)"
         result="flood" />
      <feComposite
         id="feComposite3079"
         in2="SourceGraphic"
         in="flood"
         operator="in"
         result="composite1" />
      <feGaussianBlur
         id="feGaussianBlur3081"
         stdDeviation="4"
         result="blur" />
      <feOffset
         id="feOffset3083"
         dx="4"
         dy="4"
         result="offset" />
      <feComposite
         id="feComposite3085"
         in2="offset"
         in="SourceGraphic"
         operator="over"
         result="composite2" />
    </filter>
    <filter
       id="filter3880"
       inkscape:label="Drop Shadow"
       color-interpolation-filters="sRGB"
       x="-0.012089632"
       y="-0.028833089"
       width="1.0288516"
       height="1.0688094">
      <feFlood
         id="feFlood3882"
         flood-opacity="0.5"
         flood-color="rgb(0,0,0)"
         result="flood" />
      <feComposite
         id="feComposite3884"
         in2="SourceGraphic"
         in="flood"
         operator="in"
         result="composite1" />
      <feGaussianBlur
         id="feGaussianBlur3886"
         stdDeviation="4"
         result="blur" />
      <feOffset
         id="feOffset3888"
         dx="4"
         dy="4"
         result="offset" />
      <feComposite
         id="feComposite3890"
         in2="offset"
         in="SourceGraphic"
         operator="over"
         result="composite2" />
    </filter>
  </defs>
  <sodipodi:namedview
     id="base"
     pagecolor="#ffffff"
     bordercolor="#666666"
     borderopacity="1.0"
     inkscape:pageopacity="0.0"
     inkscape:pageshadow="2"
     inkscape:zoom="1.4"
     inkscape:cx="36.428571"
     inkscape:cy="168.21429"
     inkscape:document-units="px"
     inkscape:current-layer="layer1"
     showgrid="false"
     fit-margin-top="0"
     fit-margin-left="0"
     fit-margin-right="0"
     fit-margin-bottom="0"
     inkscape:window-width="3440"
     inkscape:window-height="1369"
     inkscape:window-x="-8"
     inkscape:window-y="-8"
     inkscape:window-maximized="1"
     inkscape:showpageshadow="2"
     inkscape:pagecheckerboard="0"
     inkscape:deskcolor="#d1d1d1" />
  <metadata
     id="metadata7">
    <rdf:RDF>
      <cc:Work
         rdf:about="">
        <dc:format>image/svg+xml</dc:format>
        <dc:type
           rdf:resource="http://purl.org/dc/dcmitype/StillImage" />
      </cc:Work>
    </rdf:RDF>
  </metadata>
  <g
     inkscape:label="Ebene 1"
     inkscape:groupmode="layer"
     id="layer1"
     transform="translate(64.212652,-463.44185)">
    <rect
       style="fill:#ffffff;fill-opacity:1;stroke:#000000;stroke-width:1.51729;stroke-linecap:round;stroke-linejoin:round;stroke-miterlimit:4;stroke-dasharray:none;stroke-opacity:1"
       id="rect3060"
       width="804.26843"
       height="285.69702"
       x="-41.624184"
       y="417.62335"
       transform="matrix(0.82729008,0,0,0.89195386,-21.207773,100.18052)" />
    <g
       id="g2989"
       transform="matrix(0.82734982,0,0,0.82734982,-49.104022,480.69829)">
      <text
         id="text2991"
         style="font-style:normal;font-weight:normal;font-size:16.266px;line-height:0%;font-family:Arial;text-align:start;text-anchor:start;fill:#000000"
         y="103.85212"
         x="21.270916"
         xml:space="preserve">CLK</text>
      <text
         id="text2993"
         style="font-style:normal;font-weight:normal;font-size:16.266px;line-height:0%;font-family:Arial;text-align:start;text-anchor:start;fill:#000000"
         y="123.87181"
         x="2.5024607"
         xml:space="preserve">(</text>
      <text
         id="text2997"
         style="font-style:normal;font-weight:normal;font-size:16.266px;line-height:0%;font-family:Arial;text-align:start;text-anchor:start;fill:#000000"
         y="123.87181"
         x="8.4435234"
         xml:space="preserve">3.2 GHz</text>
      <text
         id="text2999"
         style="font-style:normal;font-weight:normal;font-size:16.266px;line-height:0%;font-family:Arial;text-align:start;text-anchor:start;fill:#000000"
         y="123.87181"
         x="68.817673"
         xml:space="preserve">)</text>
      <path
         id="path3001"
         d="M 85.396472,109.32625 H 135.05468"
         style="fill:none;stroke:#000000;stroke-width:2.03325px;stroke-linecap:round;stroke-linejoin:round;stroke-dasharray:none;stroke-opacity:1"
         inkscape:connector-curvature="0" />
      <path
         id="path3003"
         d="m 144.4389,109.32625 -12.3559,6.17795 c 1.95505,-3.91009 1.95505,-8.524 0,-12.3559 z"
         style="fill:#000000;fill-opacity:1;fill-rule:evenodd;stroke:none"
         inkscape:connector-curvature="0" />
      <path
         id="path3005"
         d="m 144.4389,85.70928 v 47.23395 h 82.81581 V 85.70928 Z"
         style="fill:#ffffff;fill-opacity:1;fill-rule:evenodd;stroke:none"
         inkscape:connector-curvature="0" />
      <path
         id="path3007"
         d="m 144.4389,132.94323 h 82.81581 V 85.70928 H 144.4389 Z"
         style="fill:none;stroke:#000000;stroke-width:2.03325px;stroke-linecap:round;stroke-linejoin:round;stroke-dasharray:none;stroke-opacity:1"
         inkscape:connector-curvature="0" />
      <text
         id="text3009"
         style="font-style:normal;font-weight:normal;font-size:16.266px;line-height:0%;font-family:Arial;text-align:start;text-anchor:start;fill:#000000"
         y="103.85212"
         x="162.65994"
         xml:space="preserve">Clock </text>
      <text
         id="text3011"
         style="font-style:normal;font-weight:normal;font-size:16.266px;line-height:0%;font-family:Arial;text-align:start;text-anchor:start;fill:#000000"
         y="123.87181"
         x="163.91118"
         xml:space="preserve">circuit</text>
      <text
         id="text3015"
         style="font-style:normal;font-weight:normal;font-size:16.266px;line-height:0%;font-family:Arial;text-align:start;text-anchor:start;fill:#000000"
         y="78.827515"
         x="157.68033"
         xml:space="preserve">1.6 GHz</text>
      <path
         id="path3017"
         d="M 109.11982,245.45035 H 782.77283 V 2.9998412 H 109.11982 Z"
         style="fill:none;stroke:#000000;stroke-width:2.24599px;stroke-linecap:round;stroke-linejoin:round;stroke-dasharray:none;stroke-opacity:1"
         inkscape:connector-curvature="0" />
      <path
         id="path3019"
         d="m 227.25471,97.517766 h 37.84972"
         style="fill:none;stroke:#000000;stroke-width:2.03325px;stroke-linecap:round;stroke-linejoin:round;stroke-dasharray:none;stroke-opacity:1"
         inkscape:connector-curvature="0" />
      <path
         id="path3021"
         d="m 274.48866,97.517766 -12.3559,6.177954 c 1.95505,-3.910099 1.95505,-8.524011 0,-12.434106 v 0 z"
         style="fill:#000000;fill-opacity:1;fill-rule:evenodd;stroke:none"
         inkscape:connector-curvature="0" />
      <path
         id="path3023"
         d="m 274.48866,50.205618 h 82.81581 v 80.391552 l -41.3688,37.84972 -41.44701,-37.84972 z"
         style="fill:none;stroke:#000000;stroke-width:2.03325px;stroke-linecap:round;stroke-linejoin:round;stroke-dasharray:none;stroke-opacity:1"
         inkscape:connector-curvature="0" />
      <text
         id="text3025"
         style="font-style:normal;font-weight:normal;font-size:16.266px;line-height:0%;font-family:Arial;text-align:start;text-anchor:start;fill:#000000"
         y="97.59597"
         x="290.28543"
         xml:space="preserve">ADC A</text>
      <text
         id="text3029"
         style="font-style:normal;font-weight:normal;font-size:16.266px;line-height:0%;font-family:Arial;text-align:start;text-anchor:start;fill:#000000"
         y="117.61565"
         x="283.8844"
         xml:space="preserve">1.6 Gsps</text>
      <path
         id="path3031"
         d="m 404.53842,50.205618 h 82.8158 v 80.391552 l -41.3688,37.84972 -41.447,-37.84972 z"
         style="fill:none;stroke:#000000;stroke-width:2.03325px;stroke-linecap:round;stroke-linejoin:round;stroke-dasharray:none;stroke-opacity:1"
         inkscape:connector-curvature="0" />
      <text
         id="text3033"
         style="font-style:normal;font-weight:normal;font-size:16.266px;line-height:0%;font-family:Arial;text-align:start;text-anchor:start;fill:#000000"
         y="97.59597"
         x="420.41339"
         xml:space="preserve">ADC B</text>
      <text
         id="text3037"
         style="font-style:normal;font-weight:normal;font-size:16.266px;line-height:0%;font-family:Arial;text-align:start;text-anchor:start;fill:#000000"
         y="117.61565"
         x="414.01236"
         xml:space="preserve">1.6 Gsps</text>
      <path
         id="path3039"
         d="m 534.58817,50.205618 h 82.81581 v 80.391552 l -41.3688,37.84972 -41.44701,-37.84972 z"
         style="fill:none;stroke:#000000;stroke-width:2.03325px;stroke-linecap:round;stroke-linejoin:round;stroke-dasharray:none;stroke-opacity:1"
         inkscape:connector-curvature="0" />
      <text
         id="text3041"
         style="font-style:normal;font-weight:normal;font-size:16.266px;line-height:0%;font-family:Arial;text-align:start;text-anchor:start;fill:#000000"
         y="97.59597"
         x="550.54138"
         xml:space="preserve">ADC C</text>
      <text
         id="text3045"
         style="font-style:normal;font-weight:normal;font-size:16.266px;line-height:0%;font-family:Arial;text-align:start;text-anchor:start;fill:#000000"
         y="117.61565"
         x="544.14032"
         xml:space="preserve">1.6 Gsps</text>
      <path
         id="path3047"
         d="m 664.63793,50.205618 h 82.81581 v 80.391552 l -41.36881,37.84972 -41.447,-37.84972 z"
         style="fill:none;stroke:#000000;stroke-width:2.03325px;stroke-linecap:round;stroke-linejoin:round;stroke-dasharray:none;stroke-opacity:1"
         inkscape:connector-curvature="0" />
      <text
         id="text3049"
         style="font-style:normal;font-weight:normal;font-size:16.266px;line-height:0%;font-family:Arial;text-align:start;text-anchor:start;fill:#000000"
         y="97.59597"
         x="680.66931"
         xml:space="preserve">ADC D</text>
      <text
         id="text3053"
         style="font-style:normal;font-weight:normal;font-size:16.266px;line-height:0%;font-family:Arial;text-align:start;text-anchor:start;fill:#000000"
         y="117.61565"
         x="674.26825"
         xml:space="preserve">1.6 Gsps</text>
      <path
         id="path3111"
         d="M 239.84522,26.588645 V 97.517766"
         style="fill:none;stroke:#000000;stroke-width:2.03325px;stroke-linecap:round;stroke-linejoin:round;stroke-dasharray:none;stroke-opacity:1"
         inkscape:connector-curvature="0" />
      <path
         id="path3113"
         d="M 629.21247,26.588645 H 239.84522"
         style="fill:none;stroke:#000000;stroke-width:2.03325px;stroke-linecap:round;stroke-linejoin:round;stroke-dasharray:none;stroke-opacity:1"
         inkscape:connector-curvature="0" />
      <path
         id="path3115"
         d="M 369.11296,26.588645 V 97.517766"
         style="fill:none;stroke:#000000;stroke-width:2.03325px;stroke-linecap:round;stroke-linejoin:round;stroke-dasharray:none;stroke-opacity:1"
         inkscape:connector-curvature="0" />
      <path
         id="path3117"
         d="m 369.11296,97.517766 h 26.04123"
         style="fill:none;stroke:#000000;stroke-width:2.03325px;stroke-linecap:round;stroke-linejoin:round;stroke-dasharray:none;stroke-opacity:1"
         inkscape:connector-curvature="0" />
      <path
         id="path3119"
         d="m 404.53842,97.517766 -12.3559,6.177954 c 1.95504,-3.910099 1.95504,-8.524011 0,-12.434106 z"
         style="fill:#000000;fill-opacity:1;fill-rule:evenodd;stroke:none"
         inkscape:connector-curvature="0" />
      <path
         id="path3121"
         d="m 372.55384,26.588645 c 0,-1.955047 -1.48584,-3.519085 -3.44088,-3.519085 -1.95505,0 -3.51909,1.564038 -3.51909,3.519085 0,1.876846 1.56404,3.440884 3.51909,3.440884 1.95504,0 3.44088,-1.564038 3.44088,-3.440884"
         style="fill:#000000;fill-opacity:1;fill-rule:evenodd;stroke:none"
         inkscape:connector-curvature="0" />
      <path
         id="path3123"
         d="m 372.55384,26.588645 c 0,-1.955047 -1.48584,-3.519085 -3.44088,-3.519085 -1.95505,0 -3.51909,1.564038 -3.51909,3.519085 0,1.876846 1.56404,3.440884 3.51909,3.440884 1.95504,0 3.44088,-1.564038 3.44088,-3.440884"
         style="fill:none;stroke:#000000;stroke-width:0.391009px;stroke-linecap:round;stroke-linejoin:round;stroke-dasharray:none;stroke-opacity:1"
         inkscape:connector-curvature="0" />
      <path
         id="path3125"
         d="M 499.16271,26.588645 V 97.517766"
         style="fill:none;stroke:#000000;stroke-width:2.03325px;stroke-linecap:round;stroke-linejoin:round;stroke-dasharray:none;stroke-opacity:1"
         inkscape:connector-curvature="0" />
      <path
         id="path3127"
         d="m 499.16271,97.517766 h 26.04123"
         style="fill:none;stroke:#000000;stroke-width:2.03325px;stroke-linecap:round;stroke-linejoin:round;stroke-dasharray:none;stroke-opacity:1"
         inkscape:connector-curvature="0" />
      <path
         id="path3129"
         d="m 534.58817,97.517766 -12.3559,6.177954 c 1.95505,-3.910099 1.95505,-8.524011 0,-12.434106 v 0 z"
         style="fill:#000000;fill-opacity:1;fill-rule:evenodd;stroke:none"
         inkscape:connector-curvature="0" />
      <path
         id="path3131"
         d="m 502.60359,26.588645 c 0,-1.955047 -1.48583,-3.519085 -3.44088,-3.519085 -1.95505,0 -3.51908,1.564038 -3.51908,3.519085 0,1.876846 1.56403,3.440884 3.51908,3.440884 1.95505,0 3.44088,-1.564038 3.44088,-3.440884"
         style="fill:#000000;fill-opacity:1;fill-rule:evenodd;stroke:none"
         inkscape:connector-curvature="0" />
      <path
         id="path3133"
         d="m 502.60359,26.588645 c 0,-1.955047 -1.48583,-3.519085 -3.44088,-3.519085 -1.95505,0 -3.51908,1.564038 -3.51908,3.519085 0,1.876846 1.56403,3.440884 3.51908,3.440884 1.95505,0 3.44088,-1.564038 3.44088,-3.440884"
         style="fill:none;stroke:#000000;stroke-width:0.391009px;stroke-linecap:round;stroke-linejoin:round;stroke-dasharray:none;stroke-opacity:1"
         inkscape:connector-curvature="0" />
      <path
         id="path3135"
         d="M 629.21247,26.588645 V 97.517766"
         style="fill:none;stroke:#000000;stroke-width:2.03325px;stroke-linecap:round;stroke-linejoin:round;stroke-dasharray:none;stroke-opacity:1"
         inkscape:connector-curvature="0" />
      <path
         id="path3137"
         d="M 629.21247,97.517766 H 655.2537"
         style="fill:none;stroke:#000000;stroke-width:2.03325px;stroke-linecap:round;stroke-linejoin:round;stroke-dasharray:none;stroke-opacity:1"
         inkscape:connector-curvature="0" />
      <path
         id="path3139"
         d="m 664.63793,97.517766 -12.3559,6.177954 c 1.95504,-3.910099 1.95504,-8.524011 0,-12.434106 z"
         style="fill:#000000;fill-opacity:1;fill-rule:evenodd;stroke:none"
         inkscape:connector-curvature="0" />
      <path
         id="path3141"
         d="m 243.3643,97.517766 c 0,-1.955047 -1.56403,-3.519085 -3.51908,-3.519085 -1.95505,0 -3.51909,1.564038 -3.51909,3.519085 0,1.876846 1.56404,3.440884 3.51909,3.440884 1.95505,0 3.51908,-1.564038 3.51908,-3.440884"
         style="fill:#000000;fill-opacity:1;fill-rule:evenodd;stroke:none"
         inkscape:connector-curvature="0" />
      <path
         id="path3143"
         d="m 243.3643,97.517766 c 0,-1.955047 -1.56403,-3.519085 -3.51908,-3.519085 -1.95505,0 -3.51909,1.564038 -3.51909,3.519085 0,1.876846 1.56404,3.440884 3.51909,3.440884 1.95505,0 3.51908,-1.564038 3.51908,-3.440884"
         style="fill:none;stroke:#000000;stroke-width:0.391009px;stroke-linecap:round;stroke-linejoin:round;stroke-dasharray:none;stroke-opacity:1"
         inkscape:connector-curvature="0" />
      <path
         id="path3505"
         d="M 307.47868,229.32521 V 183.13579"
         style="fill:none;stroke:#000000;stroke-width:2.03546px;stroke-linecap:round;stroke-linejoin:round;stroke-dasharray:none;stroke-opacity:1"
         inkscape:connector-curvature="0" />
      <path
         id="path3507"
         d="m 307.47868,173.74133 6.18469,12.44766 c -3.91435,-1.95719 -8.455,-1.95719 -12.36937,0 v 0 z"
         style="fill:#000000;fill-opacity:1;fill-rule:evenodd;stroke:none;stroke-width:1.28781"
         inkscape:connector-curvature="0" />
      <path
         id="path3509"
         d="m 326.42419,205.68249 v -22.5467"
         style="fill:none;stroke:#000000;stroke-width:2.03546px;stroke-linecap:round;stroke-linejoin:round;stroke-dasharray:none;stroke-opacity:1"
         inkscape:connector-curvature="0" />
      <path
         id="path3511"
         d="m 326.42419,173.74133 6.18468,12.44766 c -3.91436,-1.95719 -8.45501,-1.95719 -12.36937,0 z"
         style="fill:#000000;fill-opacity:1;fill-rule:evenodd;stroke:none;stroke-width:1.28781"
         inkscape:connector-curvature="0" />
      <path
         id="path3513"
         d="M 437.20052,229.32521 V 183.13579"
         style="fill:none;stroke:#000000;stroke-width:2.03546px;stroke-linecap:round;stroke-linejoin:round;stroke-dasharray:none;stroke-opacity:1"
         inkscape:connector-curvature="0" />
      <path
         id="path3515"
         d="m 437.20052,173.74133 6.18469,12.44766 c -3.91436,-1.95719 -8.45501,-1.95719 -12.36937,0 z"
         style="fill:#000000;fill-opacity:1;fill-rule:evenodd;stroke:none;stroke-width:1.28781"
         inkscape:connector-curvature="0" />
      <path
         id="path3517"
         d="m 456.14603,205.68249 v -22.5467"
         style="fill:none;stroke:#000000;stroke-width:2.03546px;stroke-linecap:round;stroke-linejoin:round;stroke-dasharray:none;stroke-opacity:1"
         inkscape:connector-curvature="0" />
      <path
         id="path3519"
         d="m 456.14603,173.74133 6.18468,12.44766 c -3.91437,-1.95719 -8.53331,-1.95719 -12.44765,0 z"
         style="fill:#000000;fill-opacity:1;fill-rule:evenodd;stroke:none;stroke-width:1.28781"
         inkscape:connector-curvature="0" />
      <path
         id="path3521"
         d="M 567.86181,229.32521 V 183.13579"
         style="fill:none;stroke:#000000;stroke-width:2.03546px;stroke-linecap:round;stroke-linejoin:round;stroke-dasharray:none;stroke-opacity:1"
         inkscape:connector-curvature="0" />
      <path
         id="path3523"
         d="m 567.86181,173.74133 6.18469,12.44766 c -3.91436,-1.95719 -8.45501,-1.95719 -12.36937,0 z"
         style="fill:#000000;fill-opacity:1;fill-rule:evenodd;stroke:none;stroke-width:1.28781"
         inkscape:connector-curvature="0" />
      <path
         id="path3525"
         d="m 586.80729,205.68249 v -22.5467"
         style="fill:none;stroke:#000000;stroke-width:2.03546px;stroke-linecap:round;stroke-linejoin:round;stroke-dasharray:none;stroke-opacity:1"
         inkscape:connector-curvature="0" />
      <path
         id="path3527"
         d="m 586.80729,173.74133 6.18469,12.44766 c -3.91436,-1.95719 -8.5333,-1.95719 -12.36938,0 v 0 z"
         style="fill:#000000;fill-opacity:1;fill-rule:evenodd;stroke:none;stroke-width:1.28781"
         inkscape:connector-curvature="0" />
      <text
         id="text3533"
         style="font-style:normal;font-weight:normal;font-size:16.2837px;line-height:0%;font-family:Arial;text-align:start;text-anchor:start;fill:#000000;stroke-width:1.28781"
         y="283.83682"
         x="455.0629"
         xml:space="preserve">Channel A or D</text>
      <path
         id="path3583"
         d="M 326.42419,205.68249 H 456.14603"
         style="fill:none;stroke:#000000;stroke-width:2.03546px;stroke-linecap:round;stroke-linejoin:round;stroke-dasharray:none;stroke-opacity:1"
         inkscape:connector-curvature="0" />
      <path
         id="path3585"
         d="M 307.47868,229.32521 H 502.49202"
         style="fill:none;stroke:#000000;stroke-width:2.03546px;stroke-linecap:round;stroke-linejoin:round;stroke-dasharray:none;stroke-opacity:1"
         inkscape:connector-curvature="0" />
      <path
         id="path3587"
         d="m 697.58363,205.68249 v -22.5467"
         style="fill:none;stroke:#000000;stroke-width:2.03546px;stroke-linecap:round;stroke-linejoin:round;stroke-dasharray:none;stroke-opacity:1"
         inkscape:connector-curvature="0" />
      <path
         id="path3589"
         d="m 697.58363,173.74133 6.18469,12.44766 c -3.91435,-1.95719 -8.45502,-1.95719 -12.36937,0 z"
         style="fill:#000000;fill-opacity:1;fill-rule:evenodd;stroke:none;stroke-width:1.28781"
         inkscape:connector-curvature="0" />
      <path
         id="path3591"
         d="M 716.52914,229.40351 V 183.13579"
         style="fill:none;stroke:#000000;stroke-width:2.03546px;stroke-linecap:round;stroke-linejoin:round;stroke-dasharray:none;stroke-opacity:1"
         inkscape:connector-curvature="0" />
      <path
         id="path3593"
         d="m 716.52914,173.74133 6.18468,12.44766 c -3.91437,-1.95719 -8.53331,-1.95719 -12.44765,0 z"
         style="fill:#000000;fill-opacity:1;fill-rule:evenodd;stroke:none;stroke-width:1.28781"
         inkscape:connector-curvature="0" />
      <path
         id="path3595"
         d="M 586.80729,205.68249 H 697.58363"
         style="fill:none;stroke:#000000;stroke-width:2.03546px;stroke-linecap:round;stroke-linejoin:round;stroke-dasharray:none;stroke-opacity:1"
         inkscape:connector-curvature="0" />
      <path
         id="path3597"
         d="m 586.80729,202.23785 c -1.95717,0 -3.52291,1.56574 -3.52291,3.44464 0,1.95718 1.56574,3.52292 3.52291,3.52292 1.95719,0 3.44465,-1.56574 3.44465,-3.52292 0,-1.8789 -1.48746,-3.44464 -3.44465,-3.44464"
         style="fill:#000000;fill-opacity:1;fill-rule:evenodd;stroke:none;stroke-width:1.28781"
         inkscape:connector-curvature="0" />
      <path
         id="path3599"
         d="m 586.80729,202.23785 c -1.95717,0 -3.52291,1.56574 -3.52291,3.44464 0,1.95718 1.56574,3.52292 3.52291,3.52292 1.95719,0 3.44465,-1.56574 3.44465,-3.52292 0,-1.8789 -1.48746,-3.44464 -3.44465,-3.44464"
         style="fill:none;stroke:#000000;stroke-width:0.391436px;stroke-linecap:round;stroke-linejoin:round;stroke-dasharray:none;stroke-opacity:1"
         inkscape:connector-curvature="0" />
      <path
         id="path3601"
         d="m 502.49202,229.32521 214.03712,0.0783"
         style="fill:none;stroke:#000000;stroke-width:2.03546px;stroke-linecap:round;stroke-linejoin:round;stroke-dasharray:none;stroke-opacity:1"
         inkscape:connector-curvature="0" />
      <path
         id="path3603"
         d="m 567.86181,225.88058 c -1.95718,0 -3.52293,1.56574 -3.52293,3.44463 0,1.9572 1.56575,3.52293 3.52293,3.52293 1.95717,0 3.52291,-1.56573 3.52291,-3.52293 0,-1.87889 -1.56574,-3.44463 -3.52291,-3.44463"
         style="fill:#000000;fill-opacity:1;fill-rule:evenodd;stroke:none;stroke-width:1.28781"
         inkscape:connector-curvature="0" />
      <path
         id="path3605"
         d="m 567.86181,225.88058 c -1.95718,0 -3.52293,1.56574 -3.52293,3.44463 0,1.9572 1.56575,3.52293 3.52293,3.52293 1.95717,0 3.52291,-1.56573 3.52291,-3.52293 0,-1.87889 -1.56574,-3.44463 -3.52291,-3.44463"
         style="fill:none;stroke:#000000;stroke-width:0.391436px;stroke-linecap:round;stroke-linejoin:round;stroke-dasharray:none;stroke-opacity:1"
         inkscape:connector-curvature="0" />
      <path
         id="path3645"
         d="M 502.49202,264.8676 V 229.32521"
         style="fill:none;stroke:#000000;stroke-width:2.03546px;stroke-linecap:round;stroke-linejoin:round;stroke-dasharray:none;stroke-opacity:1"
         inkscape:connector-curvature="0" />
      <path
         id="path3647"
         d="M 521.43752,264.8676 V 205.68249"
         style="fill:none;stroke:#000000;stroke-width:2.03546px;stroke-linecap:round;stroke-linejoin:round;stroke-dasharray:none;stroke-opacity:1"
         inkscape:connector-curvature="0" />
      <path
         id="path3649"
         d="m 521.43752,205.68249 h 65.36977"
         style="fill:none;stroke:#000000;stroke-width:2.03546px;stroke-linecap:round;stroke-linejoin:round;stroke-dasharray:none;stroke-opacity:1"
         inkscape:connector-curvature="0" />
      <path
         id="path3651"
         d="m 456.14603,205.68249 h 65.29149"
         style="fill:none;stroke:#000000;stroke-width:2.03546px;stroke-linecap:round;stroke-linejoin:round;stroke-dasharray:none;stroke-opacity:1"
         inkscape:connector-curvature="0" />
      <path
         id="path3653"
         d="m 456.14603,202.15956 c -1.95719,0 -3.52293,1.56575 -3.52293,3.52293 0,1.95718 1.56574,3.52292 3.52293,3.52292 1.87887,0 3.44462,-1.56574 3.44462,-3.52292 0,-1.95718 -1.56575,-3.52293 -3.44462,-3.52293"
         style="fill:#000000;fill-opacity:1;fill-rule:evenodd;stroke:none;stroke-width:1.28781"
         inkscape:connector-curvature="0" />
      <path
         id="path3655"
         d="m 456.14603,202.15956 c -1.95719,0 -3.52293,1.56575 -3.52293,3.52293 0,1.95718 1.56574,3.52292 3.52293,3.52292 1.87887,0 3.44462,-1.56574 3.44462,-3.52292 0,-1.95718 -1.56575,-3.52293 -3.44462,-3.52293"
         style="fill:none;stroke:#000000;stroke-width:0.391436px;stroke-linecap:round;stroke-linejoin:round;stroke-dasharray:none;stroke-opacity:1"
         inkscape:connector-curvature="0" />
      <path
         id="path3657"
         d="m 437.20052,225.88058 c -1.95717,0 -3.52292,1.56574 -3.52292,3.44463 0,1.9572 1.56575,3.52293 3.52292,3.52293 1.95719,0 3.52293,-1.56573 3.52293,-3.52293 0,-1.87889 -1.56574,-3.44463 -3.52293,-3.44463"
         style="fill:#000000;fill-opacity:1;fill-rule:evenodd;stroke:none;stroke-width:1.28781"
         inkscape:connector-curvature="0" />
      <path
         id="path3659"
         d="m 437.20052,225.88058 c -1.95717,0 -3.52292,1.56574 -3.52292,3.44463 0,1.9572 1.56575,3.52293 3.52292,3.52293 1.95719,0 3.52293,-1.56573 3.52293,-3.52293 0,-1.87889 -1.56574,-3.44463 -3.52293,-3.44463"
         style="fill:none;stroke:#000000;stroke-width:0.391436px;stroke-linecap:round;stroke-linejoin:round;stroke-dasharray:none;stroke-opacity:1"
         inkscape:connector-curvature="0" />
      <path
         id="path3661"
         d="m 521.43752,202.23785 c -1.8789,0 -3.44463,1.56574 -3.44463,3.44464 0,1.95718 1.56573,3.52292 3.44463,3.52292 1.95718,0 3.52293,-1.56574 3.52293,-3.52292 0,-1.8789 -1.56575,-3.44464 -3.52293,-3.44464"
         style="fill:#000000;fill-opacity:1;fill-rule:evenodd;stroke:none;stroke-width:1.28781"
         inkscape:connector-curvature="0" />
      <path
         id="path3663"
         d="m 521.43752,202.23785 c -1.8789,0 -3.44463,1.56574 -3.44463,3.44464 0,1.95718 1.56573,3.52292 3.44463,3.52292 1.95718,0 3.52293,-1.56574 3.52293,-3.52292 0,-1.8789 -1.56575,-3.44464 -3.52293,-3.44464"
         style="fill:none;stroke:#000000;stroke-width:0.391436px;stroke-linecap:round;stroke-linejoin:round;stroke-dasharray:none;stroke-opacity:1"
         inkscape:connector-curvature="0" />
      <path
         id="path3665"
         d="m 502.49202,225.88058 c -1.87889,0 -3.44464,1.56574 -3.44464,3.44463 0,1.9572 1.56575,3.52293 3.44464,3.52293 1.95718,0 3.52292,-1.56573 3.52292,-3.52293 0,-1.87889 -1.56574,-3.44463 -3.52292,-3.44463"
         style="fill:#000000;fill-opacity:1;fill-rule:evenodd;stroke:none;stroke-width:1.28781"
         inkscape:connector-curvature="0" />
      <path
         id="path3667"
         d="m 502.49202,225.88058 c -1.87889,0 -3.44464,1.56574 -3.44464,3.44463 0,1.9572 1.56575,3.52293 3.44464,3.52293 1.95718,0 3.52292,-1.56573 3.52292,-3.52293 0,-1.87889 -1.56574,-3.44463 -3.52292,-3.44463"
         style="fill:none;stroke:#000000;stroke-width:0.391436px;stroke-linecap:round;stroke-linejoin:round;stroke-dasharray:none;stroke-opacity:1"
         inkscape:connector-curvature="0" />
    </g>
  </g>
</svg>
