<?xml version="1.0" encoding="UTF-8" standalone="no"?>
<!-- Created with Inkscape (http://www.inkscape.org/) -->

<svg
   xmlns:dc="http://purl.org/dc/elements/1.1/"
   xmlns:cc="http://creativecommons.org/ns#"
   xmlns:rdf="http://www.w3.org/1999/02/22-rdf-syntax-ns#"
   xmlns:svg="http://www.w3.org/2000/svg"
   xmlns="http://www.w3.org/2000/svg"
   xmlns:sodipodi="http://sodipodi.sourceforge.net/DTD/sodipodi-0.dtd"
   xmlns:inkscape="http://www.inkscape.org/namespaces/inkscape"
   width="779.62891"
   height="202.04755"
   id="svg2"
   version="1.1"
   inkscape:version="0.91 r13725"
   sodipodi:docname="AnalogOffset_Sine.svg">
  <defs
     id="defs4">
    <filter
       id="filter3091"
       inkscape:label="Drop Shadow"
       color-interpolation-filters="sRGB">
      <feFlood
         id="feFlood3093"
         flood-opacity="0.5"
         flood-color="rgb(0,0,0)"
         result="flood" />
      <feComposite
         id="feComposite3095"
         in2="SourceGraphic"
         in="flood"
         operator="in"
         result="composite1" />
      <feGaussianBlur
         id="feGaussianBlur3097"
         stdDeviation="2"
         result="blur" />
      <feOffset
         id="feOffset3099"
         dx="4"
         dy="4"
         result="offset" />
      <feComposite
         id="feComposite3101"
         in2="offset"
         in="SourceGraphic"
         operator="over"
         result="composite2" />
    </filter>
  </defs>
  <sodipodi:namedview
     id="base"
     pagecolor="#ffffff"
     bordercolor="#666666"
     borderopacity="1.0"
     inkscape:pageopacity="0.0"
     inkscape:pageshadow="2"
     inkscape:zoom="1.979899"
     inkscape:cx="474.81432"
     inkscape:cy="127.56493"
     inkscape:document-units="px"
     inkscape:current-layer="layer1"
     showgrid="false"
     fit-margin-top="0"
     fit-margin-left="0"
     fit-margin-right="0"
     fit-margin-bottom="0"
     inkscape:window-width="1920"
     inkscape:window-height="1148"
     inkscape:window-x="-8"
     inkscape:window-y="480"
     inkscape:window-maximized="1" />
  <metadata
     id="metadata7">
    <rdf:RDF>
      <cc:Work
         rdf:about="">
        <dc:format>image/svg+xml</dc:format>
        <dc:type
           rdf:resource="http://purl.org/dc/dcmitype/StillImage" />
        <dc:title />
      </cc:Work>
    </rdf:RDF>
  </metadata>
  <g
     inkscape:label="Ebene 1"
     inkscape:groupmode="layer"
     id="layer1"
     transform="translate(92.561776,-568.73283)">
    <rect
       style="fill:#ffffff;fill-opacity:1;stroke:#000000;stroke-width:1.0111866;stroke-linecap:round;stroke-linejoin:round;stroke-miterlimit:4;stroke-opacity:1;stroke-dasharray:none;filter:url(#filter3091)"
       id="rect3053"
       width="785.70312"
       height="202.84596"
       x="-23.570276"
       y="549.66675"
       transform="matrix(0.8474063,0,0,0.8474063,-15.67859,118.01658)" />
    <path
       inkscape:connector-curvature="0"
       style="fill:none;stroke:#000000;stroke-width:1.72298837px;stroke-linecap:round;stroke-linejoin:round;stroke-dasharray:none;stroke-opacity:1"
       d="m 21.782235,748.13258 0,-152.28566"
       id="path2991" />
    <path
       inkscape:connector-curvature="0"
       style="fill:#000000;fill-opacity:1;fill-rule:evenodd;stroke:none"
       d="m 21.782235,587.8284 5.235234,10.53674 c -3.313439,-1.65672 -7.223297,-1.65672 -10.536736,0 l 0,0 5.301502,-10.53674 z"
       id="path2993" />
    <path
       inkscape:connector-curvature="0"
       style="fill:none;stroke:#000000;stroke-width:1.72298837px;stroke-linecap:round;stroke-linejoin:round;stroke-dasharray:none;stroke-opacity:1"
       d="m -18.310377,668.01362 292.576667,0"
       id="path2995" />
    <path
       inkscape:connector-curvature="0"
       style="fill:#000000;fill-opacity:1;fill-rule:evenodd;stroke:none"
       d="m 282.28481,668.01362 -10.53674,5.23524 c 1.65673,-3.31344 1.65673,-7.15703 0,-10.47047 l 10.53674,5.23523 z"
       id="path2997" />
    <path
       inkscape:connector-curvature="0"
       style="fill:none;stroke:#000000;stroke-width:0.99403173px;stroke-linecap:round;stroke-linejoin:round;stroke-dasharray:none;stroke-opacity:1"
       d="m 17.739839,656.01898 8.018523,0"
       id="path2999" />
    <path
       inkscape:connector-curvature="0"
       style="fill:none;stroke:#000000;stroke-width:0.99403173px;stroke-linecap:round;stroke-linejoin:round;stroke-dasharray:none;stroke-opacity:1"
       d="m 17.739839,643.95806 8.018523,0"
       id="path3001" />
    <path
       inkscape:connector-curvature="0"
       style="fill:none;stroke:#000000;stroke-width:0.99403173px;stroke-linecap:round;stroke-linejoin:round;stroke-dasharray:none;stroke-opacity:1"
       d="m 17.739839,631.96341 8.018523,0"
       id="path3003" />
    <path
       inkscape:connector-curvature="0"
       style="fill:none;stroke:#000000;stroke-width:0.99403173px;stroke-linecap:round;stroke-linejoin:round;stroke-dasharray:none;stroke-opacity:1"
       d="m 17.739839,619.90249 8.018523,0"
       id="path3005" />
    <path
       inkscape:connector-curvature="0"
       style="fill:none;stroke:#000000;stroke-width:0.99403173px;stroke-linecap:round;stroke-linejoin:round;stroke-dasharray:none;stroke-opacity:1"
       d="m 17.739839,607.90784 8.018523,0"
       id="path3007" />
    <text
       xml:space="preserve"
       x="-30.371296"
       y="611.68518"
       style="font-style:normal;font-weight:normal;font-size:13.78390694px;font-family:Arial;text-align:start;text-anchor:start;fill:#000000"
       id="text3009">+0,25</text>
    <text
       xml:space="preserve"
       x="4.6186223"
       y="611.68518"
       style="font-style:normal;font-weight:normal;font-size:13.78390694px;font-family:Arial;text-align:start;text-anchor:start;fill:#000000"
       id="text3011">V</text>
    <text
       xml:space="preserve"
       x="39.608536"
       y="742.10211"
       style="font-style:normal;font-weight:normal;font-size:13.78390694px;font-family:Arial;text-align:start;text-anchor:start;fill:#000000"
       id="text3013">analog</text>
    <text
       xml:space="preserve"
       x="82.020554"
       y="742.10211"
       style="font-style:normal;font-weight:normal;font-size:13.78390694px;font-family:Arial;text-align:start;text-anchor:start;fill:#000000"
       id="text3015">_</text>
    <text
       xml:space="preserve"
       x="89.442665"
       y="742.10211"
       style="font-style:normal;font-weight:normal;font-size:13.78390694px;font-family:Arial;text-align:start;text-anchor:start;fill:#000000"
       id="text3017">offset</text>
    <text
       xml:space="preserve"
       x="124.43257"
       y="742.10211"
       style="font-style:normal;font-weight:normal;font-size:13.78390694px;font-family:Arial;text-align:start;text-anchor:start;fill:#000000"
       id="text3019">[</text>
    <text
       xml:space="preserve"
       x="127.61347"
       y="742.10211"
       style="font-style:normal;font-weight:normal;font-size:13.78390694px;font-family:Arial;text-align:start;text-anchor:start;fill:#000000"
       id="text3021">i</text>
    <text
       xml:space="preserve"
       x="130.79439"
       y="742.10211"
       style="font-style:normal;font-weight:normal;font-size:13.78390694px;font-family:Arial;text-align:start;text-anchor:start;fill:#000000"
       id="text3023">] = </text>
    <text
       xml:space="preserve"
       x="150.94008"
       y="742.10211"
       style="font-style:normal;font-weight:normal;font-size:13.78390694px;font-family:Arial;text-align:start;text-anchor:start;fill:#000000"
       id="text3025">0</text>
    <text
       xml:space="preserve"
       x="159.42249"
       y="742.10211"
       style="font-style:normal;font-weight:normal;font-size:13.78390694px;font-family:Arial;text-align:start;text-anchor:start;fill:#000000"
       id="text3027">V</text>
    <path
       inkscape:connector-curvature="0"
       style="fill:none;stroke:#000000;stroke-width:0.99403173px;stroke-linecap:round;stroke-linejoin:round;stroke-dasharray:none;stroke-opacity:1"
       d="m 17.739839,728.11941 8.018523,0"
       id="path3029" />
    <path
       inkscape:connector-curvature="0"
       style="fill:none;stroke:#000000;stroke-width:0.99403173px;stroke-linecap:round;stroke-linejoin:round;stroke-dasharray:none;stroke-opacity:1"
       d="m 17.739839,716.12476 8.018523,0"
       id="path3031" />
    <path
       inkscape:connector-curvature="0"
       style="fill:none;stroke:#000000;stroke-width:0.99403173px;stroke-linecap:round;stroke-linejoin:round;stroke-dasharray:none;stroke-opacity:1"
       d="m 17.739839,704.06384 8.018523,0"
       id="path3033" />
    <path
       inkscape:connector-curvature="0"
       style="fill:none;stroke:#000000;stroke-width:0.99403173px;stroke-linecap:round;stroke-linejoin:round;stroke-dasharray:none;stroke-opacity:1"
       d="m 17.739839,692.06919 8.018523,0"
       id="path3035" />
    <path
       inkscape:connector-curvature="0"
       style="fill:none;stroke:#000000;stroke-width:0.99403173px;stroke-linecap:round;stroke-linejoin:round;stroke-dasharray:none;stroke-opacity:1"
       d="m 17.739839,680.00827 8.018523,0"
       id="path3037" />
    <text
       xml:space="preserve"
       x="-29.310995"
       y="732.55939"
       style="font-style:normal;font-weight:normal;font-size:13.78390694px;font-family:Arial;text-align:start;text-anchor:start;fill:#000000"
       id="text3039">-</text>
    <text
       xml:space="preserve"
       x="-24.009493"
       y="732.55939"
       style="font-style:normal;font-weight:normal;font-size:13.78390694px;font-family:Arial;text-align:start;text-anchor:start;fill:#000000"
       id="text3041">0,25</text>
    <text
       xml:space="preserve"
       x="3.5583205"
       y="732.55939"
       style="font-style:normal;font-weight:normal;font-size:13.78390694px;font-family:Arial;text-align:start;text-anchor:start;fill:#000000"
       id="text3043">V</text>
    <path
       inkscape:connector-curvature="0"
       style="fill:none;stroke:#000000;stroke-width:1.72298837px;stroke-linecap:round;stroke-linejoin:round;stroke-dasharray:none;stroke-opacity:1"
       d="m 362.40377,748.13258 0,-152.28566"
       id="path3045" />
    <path
       inkscape:connector-curvature="0"
       style="fill:#000000;fill-opacity:1;fill-rule:evenodd;stroke:none"
       d="m 362.40377,587.8284 5.23523,10.53674 c -3.31344,-1.65672 -7.15703,-1.65672 -10.47046,0 l 0,0 5.23523,-10.53674 z"
       id="path3047" />
    <path
       inkscape:connector-curvature="0"
       style="fill:none;stroke:#000000;stroke-width:1.72298837px;stroke-linecap:round;stroke-linejoin:round;stroke-dasharray:none;stroke-opacity:1"
       d="m 322.31116,668.01362 292.64293,0"
       id="path3049" />
    <path
       inkscape:connector-curvature="0"
       style="fill:#000000;fill-opacity:1;fill-rule:evenodd;stroke:none"
       d="m 622.90635,668.01362 -10.53675,5.23524 c 1.65673,-3.31344 1.65673,-7.15703 0,-10.47047 l 0,0 10.53675,5.23523 z"
       id="path3051" />
    <path
       inkscape:connector-curvature="0"
       style="fill:none;stroke:#000000;stroke-width:0.99403173px;stroke-linecap:round;stroke-linejoin:round;stroke-dasharray:none;stroke-opacity:1"
       d="m 358.42764,656.01898 7.95225,0"
       id="path3053" />
    <path
       inkscape:connector-curvature="0"
       style="fill:none;stroke:#000000;stroke-width:0.99403173px;stroke-linecap:round;stroke-linejoin:round;stroke-dasharray:none;stroke-opacity:1"
       d="m 358.42764,643.95806 7.95225,0"
       id="path3055" />
    <path
       inkscape:connector-curvature="0"
       style="fill:none;stroke:#000000;stroke-width:0.99403173px;stroke-linecap:round;stroke-linejoin:round;stroke-dasharray:none;stroke-opacity:1"
       d="m 358.42764,631.96341 7.95225,0"
       id="path3057" />
    <path
       inkscape:connector-curvature="0"
       style="fill:none;stroke:#000000;stroke-width:0.99403173px;stroke-linecap:round;stroke-linejoin:round;stroke-dasharray:none;stroke-opacity:1"
       d="m 358.42764,619.90249 7.95225,0"
       id="path3059" />
    <path
       inkscape:connector-curvature="0"
       style="fill:none;stroke:#000000;stroke-width:0.99403173px;stroke-linecap:round;stroke-linejoin:round;stroke-dasharray:none;stroke-opacity:1"
       d="m 358.42764,607.90784 7.95225,0"
       id="path3061" />
    <text
       xml:space="preserve"
       x="309.98517"
       y="611.68518"
       style="font-style:normal;font-weight:normal;font-size:13.78390694px;font-family:Arial;text-align:start;text-anchor:start;fill:#000000"
       id="text3063">+0,25</text>
    <text
       xml:space="preserve"
       x="344.9751"
       y="611.68518"
       style="font-style:normal;font-weight:normal;font-size:13.78390694px;font-family:Arial;text-align:start;text-anchor:start;fill:#000000"
       id="text3065">V</text>
    <text
       xml:space="preserve"
       x="373.60318"
       y="742.10211"
       style="font-style:normal;font-weight:normal;font-size:13.78390694px;font-family:Arial;text-align:start;text-anchor:start;fill:#000000"
       id="text3067">analog</text>
    <text
       xml:space="preserve"
       x="416.01523"
       y="742.10211"
       style="font-style:normal;font-weight:normal;font-size:13.78390694px;font-family:Arial;text-align:start;text-anchor:start;fill:#000000"
       id="text3069">_</text>
    <text
       xml:space="preserve"
       x="424.49762"
       y="742.10211"
       style="font-style:normal;font-weight:normal;font-size:13.78390694px;font-family:Arial;text-align:start;text-anchor:start;fill:#000000"
       id="text3071">offset</text>
    <text
       xml:space="preserve"
       x="458.42722"
       y="742.10211"
       style="font-style:normal;font-weight:normal;font-size:13.78390694px;font-family:Arial;text-align:start;text-anchor:start;fill:#000000"
       id="text3073">[</text>
    <text
       xml:space="preserve"
       x="462.66843"
       y="742.10211"
       style="font-style:normal;font-weight:normal;font-size:13.78390694px;font-family:Arial;text-align:start;text-anchor:start;fill:#000000"
       id="text3075">i</text>
    <text
       xml:space="preserve"
       x="465.8493"
       y="742.10211"
       style="font-style:normal;font-weight:normal;font-size:13.78390694px;font-family:Arial;text-align:start;text-anchor:start;fill:#000000"
       id="text3077">] = </text>
    <text
       xml:space="preserve"
       x="485.99503"
       y="742.10211"
       style="font-style:normal;font-weight:normal;font-size:13.78390694px;font-family:Arial;text-align:start;text-anchor:start;fill:#000000"
       id="text3079">0</text>
    <text
       xml:space="preserve"
       x="493.41711"
       y="742.10211"
       style="font-style:normal;font-weight:normal;font-size:13.78390694px;font-family:Arial;text-align:start;text-anchor:start;fill:#000000"
       id="text3081">,</text>
    <text
       xml:space="preserve"
       x="497.65836"
       y="742.10211"
       style="font-style:normal;font-weight:normal;font-size:13.78390694px;font-family:Arial;text-align:start;text-anchor:start;fill:#000000"
       id="text3083">1</text>
    <text
       xml:space="preserve"
       x="506.14075"
       y="742.10211"
       style="font-style:normal;font-weight:normal;font-size:13.78390694px;font-family:Arial;text-align:start;text-anchor:start;fill:#000000"
       id="text3085">V</text>
    <path
       inkscape:connector-curvature="0"
       style="fill:none;stroke:#000000;stroke-width:0.99403173px;stroke-linecap:round;stroke-linejoin:round;stroke-dasharray:none;stroke-opacity:1"
       d="m 358.42764,728.11941 7.95225,0"
       id="path3087" />
    <path
       inkscape:connector-curvature="0"
       style="fill:none;stroke:#000000;stroke-width:0.99403173px;stroke-linecap:round;stroke-linejoin:round;stroke-dasharray:none;stroke-opacity:1"
       d="m 358.42764,716.12476 7.95225,0"
       id="path3089" />
    <path
       inkscape:connector-curvature="0"
       style="fill:none;stroke:#000000;stroke-width:0.99403173px;stroke-linecap:round;stroke-linejoin:round;stroke-dasharray:none;stroke-opacity:1"
       d="m 358.42764,704.06384 7.95225,0"
       id="path3091" />
    <path
       inkscape:connector-curvature="0"
       style="fill:none;stroke:#000000;stroke-width:0.99403173px;stroke-linecap:round;stroke-linejoin:round;stroke-dasharray:none;stroke-opacity:1"
       d="m 358.42764,692.06919 7.95225,0"
       id="path3093" />
    <path
       inkscape:connector-curvature="0"
       style="fill:none;stroke:#000000;stroke-width:0.99403173px;stroke-linecap:round;stroke-linejoin:round;stroke-dasharray:none;stroke-opacity:1"
       d="m 358.42764,680.00827 7.95225,0"
       id="path3095" />
    <text
       xml:space="preserve"
       x="311.04547"
       y="732.55939"
       style="font-style:normal;font-weight:normal;font-size:13.78390694px;font-family:Arial;text-align:start;text-anchor:start;fill:#000000"
       id="text3097">-</text>
    <text
       xml:space="preserve"
       x="316.34695"
       y="732.55939"
       style="font-style:normal;font-weight:normal;font-size:13.78390694px;font-family:Arial;text-align:start;text-anchor:start;fill:#000000"
       id="text3099">0,25</text>
    <text
       xml:space="preserve"
       x="343.91476"
       y="732.55939"
       style="font-style:normal;font-weight:normal;font-size:13.78390694px;font-family:Arial;text-align:start;text-anchor:start;fill:#000000"
       id="text3101">V</text>
    <path
       inkscape:connector-curvature="0"
       style="fill:none;stroke:#3366ff;stroke-width:1.72298837px;stroke-linecap:round;stroke-linejoin:round;stroke-dasharray:none;stroke-opacity:1"
       d="m 21.782235,668.01362 c 0,-27.70035 7.024491,-50.09919 15.77197,-50.09919 8.68121,0 15.771972,22.39884 15.771972,50.09919 0,0 0,0 0,0 0,27.63408 7.02449,50.09921 15.705701,50.09921 8.747479,0 15.771969,-22.46513 15.771969,-50.09921 0,0 0,0 0,0 0,-27.70035 7.090757,-50.09919 15.771973,-50.09919"
       id="path3103" />
    <path
       inkscape:connector-curvature="0"
       style="fill:none;stroke:#3366ff;stroke-width:1.72298837px;stroke-linecap:round;stroke-linejoin:round;stroke-dasharray:none;stroke-opacity:1"
       d="m 179.3694,668.01362 c 0,-27.70035 -7.0245,-50.09919 -15.7057,-50.09919 -8.74748,0 -15.77198,22.39884 -15.77198,50.09919 0,0 0,0 0,0 0,27.63408 -7.09076,50.09921 -15.77197,50.09921 -8.74748,0 -15.77197,-22.46513 -15.77197,-50.09921 0,0 0,0 0,0 0,-27.70035 -7.09075,-50.09919 -15.77196,-50.09919"
       id="path3105" />
    <path
       inkscape:connector-curvature="0"
       style="fill:none;stroke:#3366ff;stroke-width:1.72298837px;stroke-linecap:round;stroke-linejoin:round;stroke-dasharray:none;stroke-opacity:1"
       d="m 179.3694,668.01362 c 0,27.63408 7.09076,50.09921 15.77197,50.09921 8.74748,0 15.77197,-22.46513 15.77197,-50.09921 0,0 0,0 0,0 0,-27.70035 7.09075,-50.09919 15.77196,-50.09919 8.68122,0 15.77197,22.39884 15.77197,50.09919 0,0 0,0 0,0 0,27.63408 7.02449,50.09921 15.77197,50.09921"
       id="path3107" />
    <path
       inkscape:connector-curvature="0"
       style="fill:none;stroke:#000000;stroke-width:0.99403173px;stroke-linecap:round;stroke-linejoin:round;stroke-dasharray:none;stroke-opacity:1"
       d="m 350.40912,661.0554 0,-10.13912"
       id="path3109" />
    <path
       inkscape:connector-curvature="0"
       style="fill:#000000;fill-opacity:1;fill-rule:evenodd;stroke:none"
       d="m 350.40912,668.01362 -4.63882,-9.14509 c 2.91583,1.39165 6.29554,1.39165 9.21136,0 l -4.57254,9.14509 z"
       id="path3111" />
    <path
       inkscape:connector-curvature="0"
       style="fill:#000000;fill-opacity:1;fill-rule:evenodd;stroke:none"
       d="m 350.40912,643.95806 4.57254,9.14509 c -2.91582,-1.39164 -6.29553,-1.39164 -9.21136,0 l 0,0 4.63882,-9.14509 z"
       id="path3113" />
    <text
       xml:space="preserve"
       x="315.28668"
       y="660.45898"
       style="font-style:normal;font-weight:normal;font-size:13.78390694px;font-family:Arial;text-align:start;text-anchor:start;fill:#000000"
       id="text3115">0</text>
    <text
       xml:space="preserve"
       x="323.76907"
       y="660.45898"
       style="font-style:normal;font-weight:normal;font-size:13.78390694px;font-family:Arial;text-align:start;text-anchor:start;fill:#000000"
       id="text3117">,</text>
    <text
       xml:space="preserve"
       x="328.01028"
       y="660.45898"
       style="font-style:normal;font-weight:normal;font-size:13.78390694px;font-family:Arial;text-align:start;text-anchor:start;fill:#000000"
       id="text3119">1</text>
    <text
       xml:space="preserve"
       x="335.43237"
       y="660.45898"
       style="font-style:normal;font-weight:normal;font-size:13.78390694px;font-family:Arial;text-align:start;text-anchor:start;fill:#000000"
       id="text3121">V</text>
    <path
       inkscape:connector-curvature="0"
       style="fill:#339966;fill-opacity:1;fill-rule:nonzero;stroke:#339966;stroke-width:1.06030047px;stroke-linecap:butt;stroke-linejoin:bevel;stroke-dasharray:none;stroke-opacity:1"
       d="m 332.31774,643.42791 7.42211,0 c 0.33134,0 0.53014,0.26507 0.53014,0.53015 0,0.33134 -0.1988,0.53015 -0.53014,0.53015 l -7.42211,0 c -0.26507,0 -0.53015,-0.19881 -0.53015,-0.53015 0,-0.26508 0.26508,-0.53015 0.53015,-0.53015 z m 12.72361,0 7.4221,0 c 0.33134,0 0.53015,0.26507 0.53015,0.53015 0,0.33134 -0.19881,0.53015 -0.53015,0.53015 l -7.4221,0 c -0.26508,0 -0.53016,-0.19881 -0.53016,-0.53015 0,-0.26508 0.26508,-0.53015 0.53016,-0.53015 z m 12.7236,0 7.42211,0 c 0.33134,0 0.53014,0.26507 0.53014,0.53015 0,0.33134 -0.1988,0.53015 -0.53014,0.53015 l -7.42211,0 c -0.26507,0 -0.53015,-0.19881 -0.53015,-0.53015 0,-0.26508 0.26508,-0.53015 0.53015,-0.53015 z m 12.72361,0 7.4221,0 c 0.33135,0 0.53016,0.26507 0.53016,0.53015 0,0.33134 -0.19881,0.53015 -0.53016,0.53015 l -7.4221,0 c -0.26508,0 -0.53015,-0.19881 -0.53015,-0.53015 0,-0.26508 0.26507,-0.53015 0.53015,-0.53015 z m 12.7236,0 7.42211,0 c 0.33134,0 0.53015,0.26507 0.53015,0.53015 0,0.33134 -0.19881,0.53015 -0.53015,0.53015 l -7.42211,0 c -0.26507,0 -0.53014,-0.19881 -0.53014,-0.53015 0,-0.26508 0.26507,-0.53015 0.53014,-0.53015 z m 12.72361,0 7.4221,0 c 0.33135,0 0.53015,0.26507 0.53015,0.53015 0,0.33134 -0.1988,0.53015 -0.53015,0.53015 l -7.4221,0 c -0.26507,0 -0.53015,-0.19881 -0.53015,-0.53015 0,-0.26508 0.26508,-0.53015 0.53015,-0.53015 z m 12.72361,0 7.4221,0 c 0.33134,0 0.53015,0.26507 0.53015,0.53015 0,0.33134 -0.19881,0.53015 -0.53015,0.53015 l -7.4221,0 c -0.26508,0 -0.53015,-0.19881 -0.53015,-0.53015 0,-0.26508 0.26507,-0.53015 0.53015,-0.53015 z m 12.72361,0 7.4221,0 c 0.33134,0 0.53014,0.26507 0.53014,0.53015 0,0.33134 -0.1988,0.53015 -0.53014,0.53015 l -7.4221,0 c -0.26508,0 -0.53016,-0.19881 -0.53016,-0.53015 0,-0.26508 0.26508,-0.53015 0.53016,-0.53015 z m 12.7236,0 7.4221,0 c 0.33134,0 0.53015,0.26507 0.53015,0.53015 0,0.33134 -0.19881,0.53015 -0.53015,0.53015 l -7.4221,0 c -0.26508,0 -0.53016,-0.19881 -0.53016,-0.53015 0,-0.26508 0.26508,-0.53015 0.53016,-0.53015 z m 12.7236,0 7.42211,0 c 0.33134,0 0.53015,0.26507 0.53015,0.53015 0,0.33134 -0.19881,0.53015 -0.53015,0.53015 l -7.42211,0 c -0.26507,0 -0.53015,-0.19881 -0.53015,-0.53015 0,-0.26508 0.26508,-0.53015 0.53015,-0.53015 z m 12.72361,0 7.4221,0 c 0.33135,0 0.53016,0.26507 0.53016,0.53015 0,0.33134 -0.19881,0.53015 -0.53016,0.53015 l -7.4221,0 c -0.26508,0 -0.53015,-0.19881 -0.53015,-0.53015 0,-0.26508 0.26507,-0.53015 0.53015,-0.53015 z m 12.7236,0 7.42211,0 c 0.33134,0 0.53015,0.26507 0.53015,0.53015 0,0.33134 -0.19881,0.53015 -0.53015,0.53015 l -7.42211,0 c -0.26507,0 -0.53014,-0.19881 -0.53014,-0.53015 0,-0.26508 0.26507,-0.53015 0.53014,-0.53015 z m 12.72361,0 7.42211,0 c 0.33134,0 0.53014,0.26507 0.53014,0.53015 0,0.33134 -0.1988,0.53015 -0.53014,0.53015 l -7.42211,0 c -0.26507,0 -0.53015,-0.19881 -0.53015,-0.53015 0,-0.26508 0.26508,-0.53015 0.53015,-0.53015 z m 12.72361,0 7.4221,0 c 0.33134,0 0.53015,0.26507 0.53015,0.53015 0,0.33134 -0.19881,0.53015 -0.53015,0.53015 l -7.4221,0 c -0.26508,0 -0.53015,-0.19881 -0.53015,-0.53015 0,-0.26508 0.26507,-0.53015 0.53015,-0.53015 z m 12.72361,0 7.4221,0 c 0.33134,0 0.53014,0.26507 0.53014,0.53015 0,0.33134 -0.1988,0.53015 -0.53014,0.53015 l -7.4221,0 c -0.26508,0 -0.53016,-0.19881 -0.53016,-0.53015 0,-0.26508 0.26508,-0.53015 0.53016,-0.53015 z m 12.7236,0 7.4221,0 c 0.33134,0 0.53015,0.26507 0.53015,0.53015 0,0.33134 -0.19881,0.53015 -0.53015,0.53015 l -7.4221,0 c -0.26508,0 -0.53016,-0.19881 -0.53016,-0.53015 0,-0.26508 0.26508,-0.53015 0.53016,-0.53015 z m 12.7236,0 7.42211,0 c 0.33135,0 0.53015,0.26507 0.53015,0.53015 0,0.33134 -0.1988,0.53015 -0.53015,0.53015 l -7.42211,0 c -0.26507,0 -0.53014,-0.19881 -0.53014,-0.53015 0,-0.26508 0.26507,-0.53015 0.53014,-0.53015 z m 12.72361,0 7.4221,0 c 0.33135,0 0.53016,0.26507 0.53016,0.53015 0,0.33134 -0.19881,0.53015 -0.53016,0.53015 l -7.4221,0 c -0.26508,0 -0.53015,-0.19881 -0.53015,-0.53015 0,-0.26508 0.26507,-0.53015 0.53015,-0.53015 z m 12.7236,0 7.42211,0 c 0.33134,0 0.53015,0.26507 0.53015,0.53015 0,0.33134 -0.19881,0.53015 -0.53015,0.53015 l -7.42211,0 c -0.26506,0 -0.53014,-0.19881 -0.53014,-0.53015 0,-0.26508 0.26508,-0.53015 0.53014,-0.53015 z m 12.72361,0 7.42211,0 c 0.33134,0 0.53014,0.26507 0.53014,0.53015 0,0.33134 -0.1988,0.53015 -0.53014,0.53015 l -7.42211,0 c -0.26507,0 -0.53015,-0.19881 -0.53015,-0.53015 0,-0.26508 0.26508,-0.53015 0.53015,-0.53015 z m 12.72361,0 7.4221,0 c 0.33134,0 0.53015,0.26507 0.53015,0.53015 0,0.33134 -0.19881,0.53015 -0.53015,0.53015 l -7.4221,0 c -0.26508,0 -0.53015,-0.19881 -0.53015,-0.53015 0,-0.26508 0.26507,-0.53015 0.53015,-0.53015 z m 12.72361,0 3.31343,0 c 0.33135,0 0.53016,0.26507 0.53016,0.53015 0,0.33134 -0.19881,0.53015 -0.53016,0.53015 l -3.31343,0 c -0.26508,0 -0.53016,-0.19881 -0.53016,-0.53015 0,-0.26508 0.26508,-0.53015 0.53016,-0.53015 z"
       id="path3123" />
    <path
       inkscape:connector-curvature="0"
       style="fill:none;stroke:#3366ff;stroke-width:1.72298837px;stroke-linecap:round;stroke-linejoin:round;stroke-dasharray:none;stroke-opacity:1"
       d="m 362.40377,643.95806 c 0,-14.17101 2.28012,-26.8525 4.82683,-36.10266 0,0 5.61202,-0.068 9.87371,-0.068 4.22837,0 11.98901,0.0616 11.98901,0.0616 3.44892,8.95649 4.85439,21.93473 4.85439,36.10906 l 0,0 c 0,27.70035 7.02449,50.0992 15.77197,50.0992 8.68121,0 15.7057,-22.39885 15.7057,-50.0992 l 0,0 c 0,-14.39703 1.2376,-27.65131 4.9961,-36.53621 0,0 6.23866,-0.0522 10.39706,-0.0522"
       id="path3125"
       sodipodi:nodetypes="csssccsccsc" />
    <path
       inkscape:connector-curvature="0"
       style="fill:none;stroke:#3366ff;stroke-width:1.72298837px;stroke-linecap:round;stroke-linejoin:round;stroke-dasharray:none;stroke-opacity:1"
       d="m 520.0572,643.95806 c 0,-13.09121 -1.2677,-28.04553 -5.45193,-36.35375 0,0 -6.10856,-0.15607 -10.67718,-0.15607 -4.55651,0 -11.03433,0.10592 -11.03433,0.10592 -2.38634,9.03587 -4.3805,23.16424 -4.3805,36.4039 l 0,0 c 0,27.70035 -7.09077,50.0992 -15.77197,50.0992 -8.68121,0 -15.77198,-22.39885 -15.77198,-50.0992 l 0,0 c 0,-14.26084 -2.54708,-27.40302 -5.24076,-36.63278 0,0 -6.29795,0.10501 -10.5312,0.10501"
       id="path3127"
       sodipodi:nodetypes="csssccsccsc" />
    <path
       inkscape:connector-curvature="0"
       style="fill:none;stroke:#3366ff;stroke-width:1.72298837px;stroke-linecap:round;stroke-linejoin:round;stroke-dasharray:none;stroke-opacity:1"
       d="m 520.0572,643.95806 c 0,27.70035 7.02449,50.0992 15.7057,50.0992 8.74748,0 15.77197,-22.39885 15.77197,-50.0992 l 0,0 c 0,-13.71648 2.79651,-27.39641 5.07338,-36.60274 0,0 5.69504,-0.11194 10.06723,-0.11194 4.4057,0 11.35485,-0.0136 11.35485,-0.0136 2.77809,9.06499 5.04848,23.01215 5.04848,36.72824 l 0,0 c 0,27.70035 7.09076,50.0992 15.77197,50.0992"
       id="path3129"
       sodipodi:nodetypes="csccsssccc" />
  </g>
</svg>
