<?xml version="1.0" encoding="utf-8" standalone="no"?>
<!DOCTYPE svg PUBLIC "-//W3C//DTD SVG 1.1//EN"
  "http://www.w3.org/Graphics/SVG/1.1/DTD/svg11.dtd">
<svg xmlns:xlink="http://www.w3.org/1999/xlink" width="287.530459pt" height="84.267041pt" viewBox="0 0 287.530459 84.267041" xmlns="http://www.w3.org/2000/svg" version="1.1">
 <metadata>
  <rdf:RDF xmlns:dc="http://purl.org/dc/elements/1.1/" xmlns:cc="http://creativecommons.org/ns#" xmlns:rdf="http://www.w3.org/1999/02/22-rdf-syntax-ns#">
   <cc:Work>
    <dc:type rdf:resource="http://purl.org/dc/dcmitype/StillImage"/>
    <dc:date>2025-06-12T14:42:11.621538</dc:date>
    <dc:format>image/svg+xml</dc:format>
    <dc:creator>
     <cc:Agent>
      <dc:title>Matplotlib v3.9.2, https://matplotlib.org/</dc:title>
     </cc:Agent>
    </dc:creator>
   </cc:Work>
  </rdf:RDF>
 </metadata>
 <defs>
  <style type="text/css">*{stroke-linejoin: round; stroke-linecap: butt}</style>
 </defs>
 <g id="figure_1">
  <g id="patch_1">
   <path d="M 0 84.267041 
L 287.530459 84.267041 
L 287.530459 0 
L 0 0 
L 0 84.267041 
z
" style="fill: none"/>
  </g>
  <g id="axes_1">
   <g id="patch_2">
    <path d="M 34.510762 78.055866 
L 138.765229 78.055866 
L 138.765229 13.621708 
L 34.510762 13.621708 
L 34.510762 78.055866 
z
" style="fill: none"/>
   </g>
   <g id="matplotlib.axis_1"/>
   <g id="matplotlib.axis_2">
    <g id="ytick_1">
     <g id="line2d_1">
      <defs>
       <path id="m5d12e44355" d="M 0 0 
L -3.5 0 
" style="stroke: #afafaf; stroke-width: 0.8"/>
      </defs>
      <g>
       <use xlink:href="#m5d12e44355" x="34.510762" y="75.127041" style="fill: #afafaf; stroke: #afafaf; stroke-width: 0.8"/>
      </g>
     </g>
     <g id="text_1">
      <!-- $-0.5$ V -->
      <g style="fill: #afafaf" transform="translate(5.130762 77.786494) scale(0.07 -0.07)">
       <defs>
        <path id="DejaVuSans-2212" d="M 678 2272 
L 4684 2272 
L 4684 1741 
L 678 1741 
L 678 2272 
z
" transform="scale(0.015625)"/>
        <path id="DejaVuSans-30" d="M 2034 4250 
Q 1547 4250 1301 3770 
Q 1056 3291 1056 2328 
Q 1056 1369 1301 889 
Q 1547 409 2034 409 
Q 2525 409 2770 889 
Q 3016 1369 3016 2328 
Q 3016 3291 2770 3770 
Q 2525 4250 2034 4250 
z
M 2034 4750 
Q 2819 4750 3233 4129 
Q 3647 3509 3647 2328 
Q 3647 1150 3233 529 
Q 2819 -91 2034 -91 
Q 1250 -91 836 529 
Q 422 1150 422 2328 
Q 422 3509 836 4129 
Q 1250 4750 2034 4750 
z
" transform="scale(0.015625)"/>
        <path id="DejaVuSans-2e" d="M 684 794 
L 1344 794 
L 1344 0 
L 684 0 
L 684 794 
z
" transform="scale(0.015625)"/>
        <path id="DejaVuSans-35" d="M 691 4666 
L 3169 4666 
L 3169 4134 
L 1269 4134 
L 1269 2991 
Q 1406 3038 1543 3061 
Q 1681 3084 1819 3084 
Q 2600 3084 3056 2656 
Q 3513 2228 3513 1497 
Q 3513 744 3044 326 
Q 2575 -91 1722 -91 
Q 1428 -91 1123 -41 
Q 819 9 494 109 
L 494 744 
Q 775 591 1075 516 
Q 1375 441 1709 441 
Q 2250 441 2565 725 
Q 2881 1009 2881 1497 
Q 2881 1984 2565 2268 
Q 2250 2553 1709 2553 
Q 1456 2553 1204 2497 
Q 953 2441 691 2322 
L 691 4666 
z
" transform="scale(0.015625)"/>
        <path id="DejaVuSans-20" transform="scale(0.015625)"/>
        <path id="DejaVuSans-56" d="M 1831 0 
L 50 4666 
L 709 4666 
L 2188 738 
L 3669 4666 
L 4325 4666 
L 2547 0 
L 1831 0 
z
" transform="scale(0.015625)"/>
       </defs>
       <use xlink:href="#DejaVuSans-2212" transform="translate(0 0.78125)"/>
       <use xlink:href="#DejaVuSans-30" transform="translate(83.789062 0.78125)"/>
       <use xlink:href="#DejaVuSans-2e" transform="translate(147.412109 0.78125)"/>
       <use xlink:href="#DejaVuSans-35" transform="translate(179.199219 0.78125)"/>
       <use xlink:href="#DejaVuSans-20" transform="translate(242.822266 0.78125)"/>
       <use xlink:href="#DejaVuSans-56" transform="translate(274.609375 0.78125)"/>
      </g>
     </g>
    </g>
    <g id="ytick_2">
     <g id="line2d_2">
      <g>
       <use xlink:href="#m5d12e44355" x="34.510762" y="45.838787" style="fill: #afafaf; stroke: #afafaf; stroke-width: 0.8"/>
      </g>
     </g>
     <g id="text_2">
      <!-- $0.0$ V -->
      <g style="fill: #afafaf" transform="translate(11.010762 48.49824) scale(0.07 -0.07)">
       <use xlink:href="#DejaVuSans-30" transform="translate(0 0.78125)"/>
       <use xlink:href="#DejaVuSans-2e" transform="translate(63.623047 0.78125)"/>
       <use xlink:href="#DejaVuSans-30" transform="translate(95.410156 0.78125)"/>
       <use xlink:href="#DejaVuSans-20" transform="translate(159.033203 0.78125)"/>
       <use xlink:href="#DejaVuSans-56" transform="translate(190.820312 0.78125)"/>
      </g>
     </g>
    </g>
    <g id="ytick_3">
     <g id="line2d_3">
      <g>
       <use xlink:href="#m5d12e44355" x="34.510762" y="16.550533" style="fill: #afafaf; stroke: #afafaf; stroke-width: 0.8"/>
      </g>
     </g>
     <g id="text_3">
      <!-- $0.5$ V -->
      <g style="fill: #afafaf" transform="translate(11.010762 19.209986) scale(0.07 -0.07)">
       <use xlink:href="#DejaVuSans-30" transform="translate(0 0.78125)"/>
       <use xlink:href="#DejaVuSans-2e" transform="translate(63.623047 0.78125)"/>
       <use xlink:href="#DejaVuSans-35" transform="translate(95.410156 0.78125)"/>
       <use xlink:href="#DejaVuSans-20" transform="translate(159.033203 0.78125)"/>
       <use xlink:href="#DejaVuSans-56" transform="translate(190.820312 0.78125)"/>
      </g>
     </g>
    </g>
    <g id="ytick_4">
     <g id="line2d_4">
      <defs>
       <path id="macd63ed958" d="M 0 0 
L -2 0 
" style="stroke: #afafaf; stroke-width: 0.4"/>
      </defs>
      <g>
       <use xlink:href="#macd63ed958" x="34.510762" y="69.26939" style="fill: #afafaf; stroke: #afafaf; stroke-width: 0.4"/>
      </g>
     </g>
    </g>
    <g id="ytick_5">
     <g id="line2d_5">
      <g>
       <use xlink:href="#macd63ed958" x="34.510762" y="63.411739" style="fill: #afafaf; stroke: #afafaf; stroke-width: 0.4"/>
      </g>
     </g>
    </g>
    <g id="ytick_6">
     <g id="line2d_6">
      <g>
       <use xlink:href="#macd63ed958" x="34.510762" y="57.554088" style="fill: #afafaf; stroke: #afafaf; stroke-width: 0.4"/>
      </g>
     </g>
    </g>
    <g id="ytick_7">
     <g id="line2d_7">
      <g>
       <use xlink:href="#macd63ed958" x="34.510762" y="51.696438" style="fill: #afafaf; stroke: #afafaf; stroke-width: 0.4"/>
      </g>
     </g>
    </g>
    <g id="ytick_8">
     <g id="line2d_8">
      <g>
       <use xlink:href="#macd63ed958" x="34.510762" y="39.981136" style="fill: #afafaf; stroke: #afafaf; stroke-width: 0.4"/>
      </g>
     </g>
    </g>
    <g id="ytick_9">
     <g id="line2d_9">
      <g>
       <use xlink:href="#macd63ed958" x="34.510762" y="34.123485" style="fill: #afafaf; stroke: #afafaf; stroke-width: 0.4"/>
      </g>
     </g>
    </g>
    <g id="ytick_10">
     <g id="line2d_10">
      <g>
       <use xlink:href="#macd63ed958" x="34.510762" y="28.265835" style="fill: #afafaf; stroke: #afafaf; stroke-width: 0.4"/>
      </g>
     </g>
    </g>
    <g id="ytick_11">
     <g id="line2d_11">
      <g>
       <use xlink:href="#macd63ed958" x="34.510762" y="22.408184" style="fill: #afafaf; stroke: #afafaf; stroke-width: 0.4"/>
      </g>
     </g>
    </g>
   </g>
   <g id="patch_3">
    <path d="M 34.510762 78.055866 
L 34.510762 13.621708 
" style="fill: none; stroke: #afafaf; stroke-width: 0.8; stroke-linejoin: miter; stroke-linecap: square"/>
   </g>
   <g id="patch_4">
    <path d="M 34.510762 45.838787 
L 138.765229 45.838787 
" style="fill: none; stroke: #afafaf; stroke-width: 0.8; stroke-linejoin: miter; stroke-linecap: square"/>
   </g>
   <g id="text_4">
    <!-- analog_offset[i] = 0.0 -->
    <g style="fill: #afafaf" transform="translate(48.662449 10.4) scale(0.07 -0.07)">
     <defs>
      <path id="DejaVuSans-61" d="M 2194 1759 
Q 1497 1759 1228 1600 
Q 959 1441 959 1056 
Q 959 750 1161 570 
Q 1363 391 1709 391 
Q 2188 391 2477 730 
Q 2766 1069 2766 1631 
L 2766 1759 
L 2194 1759 
z
M 3341 1997 
L 3341 0 
L 2766 0 
L 2766 531 
Q 2569 213 2275 61 
Q 1981 -91 1556 -91 
Q 1019 -91 701 211 
Q 384 513 384 1019 
Q 384 1609 779 1909 
Q 1175 2209 1959 2209 
L 2766 2209 
L 2766 2266 
Q 2766 2663 2505 2880 
Q 2244 3097 1772 3097 
Q 1472 3097 1187 3025 
Q 903 2953 641 2809 
L 641 3341 
Q 956 3463 1253 3523 
Q 1550 3584 1831 3584 
Q 2591 3584 2966 3190 
Q 3341 2797 3341 1997 
z
" transform="scale(0.015625)"/>
      <path id="DejaVuSans-6e" d="M 3513 2113 
L 3513 0 
L 2938 0 
L 2938 2094 
Q 2938 2591 2744 2837 
Q 2550 3084 2163 3084 
Q 1697 3084 1428 2787 
Q 1159 2491 1159 1978 
L 1159 0 
L 581 0 
L 581 3500 
L 1159 3500 
L 1159 2956 
Q 1366 3272 1645 3428 
Q 1925 3584 2291 3584 
Q 2894 3584 3203 3211 
Q 3513 2838 3513 2113 
z
" transform="scale(0.015625)"/>
      <path id="DejaVuSans-6c" d="M 603 4863 
L 1178 4863 
L 1178 0 
L 603 0 
L 603 4863 
z
" transform="scale(0.015625)"/>
      <path id="DejaVuSans-6f" d="M 1959 3097 
Q 1497 3097 1228 2736 
Q 959 2375 959 1747 
Q 959 1119 1226 758 
Q 1494 397 1959 397 
Q 2419 397 2687 759 
Q 2956 1122 2956 1747 
Q 2956 2369 2687 2733 
Q 2419 3097 1959 3097 
z
M 1959 3584 
Q 2709 3584 3137 3096 
Q 3566 2609 3566 1747 
Q 3566 888 3137 398 
Q 2709 -91 1959 -91 
Q 1206 -91 779 398 
Q 353 888 353 1747 
Q 353 2609 779 3096 
Q 1206 3584 1959 3584 
z
" transform="scale(0.015625)"/>
      <path id="DejaVuSans-67" d="M 2906 1791 
Q 2906 2416 2648 2759 
Q 2391 3103 1925 3103 
Q 1463 3103 1205 2759 
Q 947 2416 947 1791 
Q 947 1169 1205 825 
Q 1463 481 1925 481 
Q 2391 481 2648 825 
Q 2906 1169 2906 1791 
z
M 3481 434 
Q 3481 -459 3084 -895 
Q 2688 -1331 1869 -1331 
Q 1566 -1331 1297 -1286 
Q 1028 -1241 775 -1147 
L 775 -588 
Q 1028 -725 1275 -790 
Q 1522 -856 1778 -856 
Q 2344 -856 2625 -561 
Q 2906 -266 2906 331 
L 2906 616 
Q 2728 306 2450 153 
Q 2172 0 1784 0 
Q 1141 0 747 490 
Q 353 981 353 1791 
Q 353 2603 747 3093 
Q 1141 3584 1784 3584 
Q 2172 3584 2450 3431 
Q 2728 3278 2906 2969 
L 2906 3500 
L 3481 3500 
L 3481 434 
z
" transform="scale(0.015625)"/>
      <path id="DejaVuSans-5f" d="M 3263 -1063 
L 3263 -1509 
L -63 -1509 
L -63 -1063 
L 3263 -1063 
z
" transform="scale(0.015625)"/>
      <path id="DejaVuSans-66" d="M 2375 4863 
L 2375 4384 
L 1825 4384 
Q 1516 4384 1395 4259 
Q 1275 4134 1275 3809 
L 1275 3500 
L 2222 3500 
L 2222 3053 
L 1275 3053 
L 1275 0 
L 697 0 
L 697 3053 
L 147 3053 
L 147 3500 
L 697 3500 
L 697 3744 
Q 697 4328 969 4595 
Q 1241 4863 1831 4863 
L 2375 4863 
z
" transform="scale(0.015625)"/>
      <path id="DejaVuSans-73" d="M 2834 3397 
L 2834 2853 
Q 2591 2978 2328 3040 
Q 2066 3103 1784 3103 
Q 1356 3103 1142 2972 
Q 928 2841 928 2578 
Q 928 2378 1081 2264 
Q 1234 2150 1697 2047 
L 1894 2003 
Q 2506 1872 2764 1633 
Q 3022 1394 3022 966 
Q 3022 478 2636 193 
Q 2250 -91 1575 -91 
Q 1294 -91 989 -36 
Q 684 19 347 128 
L 347 722 
Q 666 556 975 473 
Q 1284 391 1588 391 
Q 1994 391 2212 530 
Q 2431 669 2431 922 
Q 2431 1156 2273 1281 
Q 2116 1406 1581 1522 
L 1381 1569 
Q 847 1681 609 1914 
Q 372 2147 372 2553 
Q 372 3047 722 3315 
Q 1072 3584 1716 3584 
Q 2034 3584 2315 3537 
Q 2597 3491 2834 3397 
z
" transform="scale(0.015625)"/>
      <path id="DejaVuSans-65" d="M 3597 1894 
L 3597 1613 
L 953 1613 
Q 991 1019 1311 708 
Q 1631 397 2203 397 
Q 2534 397 2845 478 
Q 3156 559 3463 722 
L 3463 178 
Q 3153 47 2828 -22 
Q 2503 -91 2169 -91 
Q 1331 -91 842 396 
Q 353 884 353 1716 
Q 353 2575 817 3079 
Q 1281 3584 2069 3584 
Q 2775 3584 3186 3129 
Q 3597 2675 3597 1894 
z
M 3022 2063 
Q 3016 2534 2758 2815 
Q 2500 3097 2075 3097 
Q 1594 3097 1305 2825 
Q 1016 2553 972 2059 
L 3022 2063 
z
" transform="scale(0.015625)"/>
      <path id="DejaVuSans-74" d="M 1172 4494 
L 1172 3500 
L 2356 3500 
L 2356 3053 
L 1172 3053 
L 1172 1153 
Q 1172 725 1289 603 
Q 1406 481 1766 481 
L 2356 481 
L 2356 0 
L 1766 0 
Q 1100 0 847 248 
Q 594 497 594 1153 
L 594 3053 
L 172 3053 
L 172 3500 
L 594 3500 
L 594 4494 
L 1172 4494 
z
" transform="scale(0.015625)"/>
      <path id="DejaVuSans-5b" d="M 550 4863 
L 1875 4863 
L 1875 4416 
L 1125 4416 
L 1125 -397 
L 1875 -397 
L 1875 -844 
L 550 -844 
L 550 4863 
z
" transform="scale(0.015625)"/>
      <path id="DejaVuSans-69" d="M 603 3500 
L 1178 3500 
L 1178 0 
L 603 0 
L 603 3500 
z
M 603 4863 
L 1178 4863 
L 1178 4134 
L 603 4134 
L 603 4863 
z
" transform="scale(0.015625)"/>
      <path id="DejaVuSans-5d" d="M 1947 4863 
L 1947 -844 
L 622 -844 
L 622 -397 
L 1369 -397 
L 1369 4416 
L 622 4416 
L 622 4863 
L 1947 4863 
z
" transform="scale(0.015625)"/>
      <path id="DejaVuSans-3d" d="M 678 2906 
L 4684 2906 
L 4684 2381 
L 678 2381 
L 678 2906 
z
M 678 1631 
L 4684 1631 
L 4684 1100 
L 678 1100 
L 678 1631 
z
" transform="scale(0.015625)"/>
     </defs>
     <use xlink:href="#DejaVuSans-61"/>
     <use xlink:href="#DejaVuSans-6e" x="61.279297"/>
     <use xlink:href="#DejaVuSans-61" x="124.658203"/>
     <use xlink:href="#DejaVuSans-6c" x="185.9375"/>
     <use xlink:href="#DejaVuSans-6f" x="213.720703"/>
     <use xlink:href="#DejaVuSans-67" x="274.902344"/>
     <use xlink:href="#DejaVuSans-5f" x="338.378906"/>
     <use xlink:href="#DejaVuSans-6f" x="388.378906"/>
     <use xlink:href="#DejaVuSans-66" x="449.560547"/>
     <use xlink:href="#DejaVuSans-66" x="484.765625"/>
     <use xlink:href="#DejaVuSans-73" x="519.970703"/>
     <use xlink:href="#DejaVuSans-65" x="572.070312"/>
     <use xlink:href="#DejaVuSans-74" x="633.59375"/>
     <use xlink:href="#DejaVuSans-5b" x="672.802734"/>
     <use xlink:href="#DejaVuSans-69" x="711.816406"/>
     <use xlink:href="#DejaVuSans-5d" x="739.599609"/>
     <use xlink:href="#DejaVuSans-20" x="778.613281"/>
     <use xlink:href="#DejaVuSans-3d" x="810.400391"/>
     <use xlink:href="#DejaVuSans-20" x="894.189453"/>
     <use xlink:href="#DejaVuSans-30" x="925.976562"/>
     <use xlink:href="#DejaVuSans-2e" x="989.599609"/>
     <use xlink:href="#DejaVuSans-30" x="1021.386719"/>
    </g>
   </g>
   <g id="line2d_12">
    <path d="M 34.510762 45.838787 
L 37.648856 34.232015 
L 39.392242 28.556871 
L 40.78695 24.695457 
L 41.832982 22.28766 
L 42.879013 20.352914 
L 43.925045 18.930082 
L 44.622399 18.280478 
L 45.319753 17.877121 
L 46.017108 17.723615 
L 46.714462 17.821333 
L 47.411816 18.169401 
L 48.109171 18.764708 
L 48.806525 19.601935 
L 49.852556 21.294438 
L 50.898588 23.479941 
L 52.293296 27.083645 
L 53.688005 31.356197 
L 55.431391 37.403493 
L 62.404934 62.650863 
L 63.799642 66.588003 
L 65.194351 69.785182 
L 66.240382 71.627763 
L 67.286414 72.952344 
L 67.983768 73.534035 
L 68.681122 73.868256 
L 69.378477 73.952018 
L 70.075831 73.784576 
L 70.773185 73.367423 
L 71.47054 72.704289 
L 72.167894 71.801098 
L 73.213925 70.014429 
L 74.259957 67.742164 
L 75.654665 64.037286 
L 77.049374 59.68341 
L 79.141437 52.280355 
L 84.720271 31.737806 
L 86.463657 26.432787 
L 87.858366 22.953769 
L 88.904397 20.874364 
L 89.950428 19.296397 
L 90.647783 18.539084 
L 91.345137 18.025708 
L 92.042491 17.760855 
L 92.739846 17.746892 
L 93.4372 17.983944 
L 94.134554 18.469893 
L 94.831909 19.200397 
L 95.87794 20.739831 
L 96.923971 22.783406 
L 97.970003 25.290074 
L 99.364712 29.264428 
L 101.108097 35.044875 
L 103.548837 44.067426 
L 107.384286 58.246889 
L 109.127672 63.811091 
L 110.52238 67.555727 
L 111.568412 69.862261 
L 112.614443 71.686256 
L 113.660475 72.991074 
L 114.357829 73.559133 
L 115.055183 73.879497 
L 115.752538 73.949303 
L 116.449892 73.767927 
L 117.147246 73.336991 
L 117.8446 72.660345 
L 118.890632 71.198482 
L 119.936663 69.227241 
L 120.982695 66.786216 
L 122.377403 62.886724 
L 124.120789 57.175847 
L 126.561529 48.199384 
L 130.396978 33.963584 
L 132.140364 28.324799 
L 133.535072 24.501891 
L 134.581104 22.127588 
L 135.627135 20.229551 
L 136.673166 18.845905 
L 137.370521 18.223415 
L 138.067875 17.847682 
L 138.765229 17.722063 
L 138.765229 17.722063 
" clip-path="url(#p742993626d)" style="fill: none; stroke: #376eb5; stroke-width: 1.5; stroke-linecap: square"/>
   </g>
   <g id="line2d_13">
    <path d="M 34.510762 45.838787 
L 138.765229 45.838787 
" clip-path="url(#p742993626d)" style="fill: none; stroke-dasharray: 2.96,1.28; stroke-dashoffset: 0; stroke: #ed7800; stroke-width: 0.8"/>
   </g>
  </g>
  <g id="axes_2">
   <g id="patch_5">
    <path d="M 178.275991 78.055866 
L 282.530459 78.055866 
L 282.530459 13.621708 
L 178.275991 13.621708 
L 178.275991 78.055866 
z
" style="fill: none"/>
   </g>
   <g id="matplotlib.axis_3"/>
   <g id="matplotlib.axis_4">
    <g id="ytick_12">
     <g id="line2d_14">
      <g>
       <use xlink:href="#m5d12e44355" x="178.275991" y="75.127041" style="fill: #afafaf; stroke: #afafaf; stroke-width: 0.8"/>
      </g>
     </g>
     <g id="text_5">
      <!-- $-0.5$ V -->
      <g style="fill: #afafaf" transform="translate(148.895991 77.786494) scale(0.07 -0.07)">
       <use xlink:href="#DejaVuSans-2212" transform="translate(0 0.78125)"/>
       <use xlink:href="#DejaVuSans-30" transform="translate(83.789062 0.78125)"/>
       <use xlink:href="#DejaVuSans-2e" transform="translate(147.412109 0.78125)"/>
       <use xlink:href="#DejaVuSans-35" transform="translate(179.199219 0.78125)"/>
       <use xlink:href="#DejaVuSans-20" transform="translate(242.822266 0.78125)"/>
       <use xlink:href="#DejaVuSans-56" transform="translate(274.609375 0.78125)"/>
      </g>
     </g>
    </g>
    <g id="ytick_13">
     <g id="line2d_15">
      <g>
       <use xlink:href="#m5d12e44355" x="178.275991" y="45.838787" style="fill: #afafaf; stroke: #afafaf; stroke-width: 0.8"/>
      </g>
     </g>
     <g id="text_6">
      <!-- $0.0$ V -->
      <g style="fill: #afafaf" transform="translate(154.775991 48.49824) scale(0.07 -0.07)">
       <use xlink:href="#DejaVuSans-30" transform="translate(0 0.78125)"/>
       <use xlink:href="#DejaVuSans-2e" transform="translate(63.623047 0.78125)"/>
       <use xlink:href="#DejaVuSans-30" transform="translate(95.410156 0.78125)"/>
       <use xlink:href="#DejaVuSans-20" transform="translate(159.033203 0.78125)"/>
       <use xlink:href="#DejaVuSans-56" transform="translate(190.820312 0.78125)"/>
      </g>
     </g>
    </g>
    <g id="ytick_14">
     <g id="line2d_16">
      <g>
       <use xlink:href="#m5d12e44355" x="178.275991" y="16.550533" style="fill: #afafaf; stroke: #afafaf; stroke-width: 0.8"/>
      </g>
     </g>
     <g id="text_7">
      <!-- $0.5$ V -->
      <g style="fill: #afafaf" transform="translate(154.775991 19.209986) scale(0.07 -0.07)">
       <use xlink:href="#DejaVuSans-30" transform="translate(0 0.78125)"/>
       <use xlink:href="#DejaVuSans-2e" transform="translate(63.623047 0.78125)"/>
       <use xlink:href="#DejaVuSans-35" transform="translate(95.410156 0.78125)"/>
       <use xlink:href="#DejaVuSans-20" transform="translate(159.033203 0.78125)"/>
       <use xlink:href="#DejaVuSans-56" transform="translate(190.820312 0.78125)"/>
      </g>
     </g>
    </g>
    <g id="ytick_15">
     <g id="line2d_17">
      <g>
       <use xlink:href="#macd63ed958" x="178.275991" y="69.26939" style="fill: #afafaf; stroke: #afafaf; stroke-width: 0.4"/>
      </g>
     </g>
    </g>
    <g id="ytick_16">
     <g id="line2d_18">
      <g>
       <use xlink:href="#macd63ed958" x="178.275991" y="63.411739" style="fill: #afafaf; stroke: #afafaf; stroke-width: 0.4"/>
      </g>
     </g>
    </g>
    <g id="ytick_17">
     <g id="line2d_19">
      <g>
       <use xlink:href="#macd63ed958" x="178.275991" y="57.554088" style="fill: #afafaf; stroke: #afafaf; stroke-width: 0.4"/>
      </g>
     </g>
    </g>
    <g id="ytick_18">
     <g id="line2d_20">
      <g>
       <use xlink:href="#macd63ed958" x="178.275991" y="51.696438" style="fill: #afafaf; stroke: #afafaf; stroke-width: 0.4"/>
      </g>
     </g>
    </g>
    <g id="ytick_19">
     <g id="line2d_21">
      <g>
       <use xlink:href="#macd63ed958" x="178.275991" y="39.981136" style="fill: #afafaf; stroke: #afafaf; stroke-width: 0.4"/>
      </g>
     </g>
    </g>
    <g id="ytick_20">
     <g id="line2d_22">
      <g>
       <use xlink:href="#macd63ed958" x="178.275991" y="34.123485" style="fill: #afafaf; stroke: #afafaf; stroke-width: 0.4"/>
      </g>
     </g>
    </g>
    <g id="ytick_21">
     <g id="line2d_23">
      <g>
       <use xlink:href="#macd63ed958" x="178.275991" y="28.265835" style="fill: #afafaf; stroke: #afafaf; stroke-width: 0.4"/>
      </g>
     </g>
    </g>
    <g id="ytick_22">
     <g id="line2d_24">
      <g>
       <use xlink:href="#macd63ed958" x="178.275991" y="22.408184" style="fill: #afafaf; stroke: #afafaf; stroke-width: 0.4"/>
      </g>
     </g>
    </g>
   </g>
   <g id="patch_6">
    <path d="M 178.275991 78.055866 
L 178.275991 13.621708 
" style="fill: none; stroke: #afafaf; stroke-width: 0.8; stroke-linejoin: miter; stroke-linecap: square"/>
   </g>
   <g id="patch_7">
    <path d="M 178.275991 45.838787 
L 282.530459 45.838787 
" style="fill: none; stroke: #afafaf; stroke-width: 0.8; stroke-linejoin: miter; stroke-linecap: square"/>
   </g>
   <g id="text_8">
    <!-- analog_offset[i] = 0.2 -->
    <g style="fill: #afafaf" transform="translate(192.427678 10.4) scale(0.07 -0.07)">
     <defs>
      <path id="DejaVuSans-32" d="M 1228 531 
L 3431 531 
L 3431 0 
L 469 0 
L 469 531 
Q 828 903 1448 1529 
Q 2069 2156 2228 2338 
Q 2531 2678 2651 2914 
Q 2772 3150 2772 3378 
Q 2772 3750 2511 3984 
Q 2250 4219 1831 4219 
Q 1534 4219 1204 4116 
Q 875 4013 500 3803 
L 500 4441 
Q 881 4594 1212 4672 
Q 1544 4750 1819 4750 
Q 2544 4750 2975 4387 
Q 3406 4025 3406 3419 
Q 3406 3131 3298 2873 
Q 3191 2616 2906 2266 
Q 2828 2175 2409 1742 
Q 1991 1309 1228 531 
z
" transform="scale(0.015625)"/>
     </defs>
     <use xlink:href="#DejaVuSans-61"/>
     <use xlink:href="#DejaVuSans-6e" x="61.279297"/>
     <use xlink:href="#DejaVuSans-61" x="124.658203"/>
     <use xlink:href="#DejaVuSans-6c" x="185.9375"/>
     <use xlink:href="#DejaVuSans-6f" x="213.720703"/>
     <use xlink:href="#DejaVuSans-67" x="274.902344"/>
     <use xlink:href="#DejaVuSans-5f" x="338.378906"/>
     <use xlink:href="#DejaVuSans-6f" x="388.378906"/>
     <use xlink:href="#DejaVuSans-66" x="449.560547"/>
     <use xlink:href="#DejaVuSans-66" x="484.765625"/>
     <use xlink:href="#DejaVuSans-73" x="519.970703"/>
     <use xlink:href="#DejaVuSans-65" x="572.070312"/>
     <use xlink:href="#DejaVuSans-74" x="633.59375"/>
     <use xlink:href="#DejaVuSans-5b" x="672.802734"/>
     <use xlink:href="#DejaVuSans-69" x="711.816406"/>
     <use xlink:href="#DejaVuSans-5d" x="739.599609"/>
     <use xlink:href="#DejaVuSans-20" x="778.613281"/>
     <use xlink:href="#DejaVuSans-3d" x="810.400391"/>
     <use xlink:href="#DejaVuSans-20" x="894.189453"/>
     <use xlink:href="#DejaVuSans-30" x="925.976562"/>
     <use xlink:href="#DejaVuSans-2e" x="989.599609"/>
     <use xlink:href="#DejaVuSans-32" x="1021.386719"/>
    </g>
   </g>
   <g id="line2d_25">
    <path d="M 178.275991 34.123485 
L 181.414085 22.516713 
L 183.157471 16.841569 
L 183.506148 16.550533 
L 196.407203 16.550533 
L 197.104557 18.518026 
L 198.847943 24.429928 
L 201.63736 34.861956 
L 204.775454 46.398867 
L 206.51884 51.981947 
L 207.913549 55.746307 
L 208.95958 58.06988 
L 210.005612 59.912462 
L 211.051643 61.237043 
L 211.748997 61.818734 
L 212.446352 62.152954 
L 213.143706 62.236717 
L 213.84106 62.069274 
L 214.538415 61.652122 
L 215.235769 60.988988 
L 215.933123 60.085797 
L 216.979155 58.299127 
L 218.025186 56.026863 
L 219.419895 52.321984 
L 220.814603 47.968108 
L 222.906666 40.565054 
L 228.485501 20.022505 
L 229.531532 16.725293 
L 229.880209 16.550533 
L 242.781264 16.550533 
L 243.827295 19.767704 
L 245.570681 25.829215 
L 252.544224 51.053726 
L 253.938933 54.972096 
L 254.984964 57.429634 
L 256.030995 59.419041 
L 257.077027 60.900358 
L 257.774381 61.590498 
L 258.471735 62.035206 
L 259.16909 62.23051 
L 259.866444 62.174662 
L 260.563798 61.868164 
L 261.261153 61.313753 
L 261.958507 60.516384 
L 263.004538 58.880946 
L 264.05057 56.748227 
L 265.096601 54.161064 
L 266.49131 50.095605 
L 268.234696 44.231787 
L 271.024113 33.828069 
L 274.162207 22.248282 
L 275.905593 16.609498 
L 276.602947 16.550533 
L 282.530459 16.550533 
L 282.530459 16.550533 
" clip-path="url(#p6a668790cc)" style="fill: none; stroke: #376eb5; stroke-width: 1.5; stroke-linecap: square"/>
   </g>
   <g id="line2d_26">
    <path d="M 178.275991 34.123485 
L 282.530459 34.123485 
" clip-path="url(#p6a668790cc)" style="fill: none; stroke-dasharray: 2.96,1.28; stroke-dashoffset: 0; stroke: #ed7800; stroke-width: 0.8"/>
   </g>
   <g id="text_9">
    <!-- 0.2 V -->
    <g style="fill: #afafaf" transform="translate(228.66565 41.912699) scale(0.07 -0.07)">
     <use xlink:href="#DejaVuSans-30"/>
     <use xlink:href="#DejaVuSans-2e" x="63.623047"/>
     <use xlink:href="#DejaVuSans-32" x="95.410156"/>
     <use xlink:href="#DejaVuSans-20" x="159.033203"/>
     <use xlink:href="#DejaVuSans-56" x="190.820312"/>
    </g>
   </g>
   <g id="patch_8">
    <path d="M 226.928076 34.682502 
Q 226.928076 39.981136 226.928076 45.27977 
" style="fill: none; stroke: #afafaf; stroke-width: 0.5; stroke-linecap: round"/>
    <path d="M 225.528076 37.482502 
L 226.928076 34.682502 
L 228.328076 37.482502 
" style="fill: none; stroke: #afafaf; stroke-width: 0.5; stroke-linecap: round"/>
    <path d="M 228.328076 42.47977 
L 226.928076 45.27977 
L 225.528076 42.47977 
" style="fill: none; stroke: #afafaf; stroke-width: 0.5; stroke-linecap: round"/>
   </g>
  </g>
 </g>
 <defs>
  <clipPath id="p742993626d">
   <rect x="34.510762" y="13.621708" width="104.254468" height="64.434158"/>
  </clipPath>
  <clipPath id="p6a668790cc">
   <rect x="178.275991" y="13.621708" width="104.254468" height="64.434158"/>
  </clipPath>
 </defs>
</svg>
