<?xml version="1.0" encoding="utf-8" standalone="no"?>
<!DOCTYPE svg PUBLIC "-//W3C//DTD SVG 1.1//EN"
  "http://www.w3.org/Graphics/SVG/1.1/DTD/svg11.dtd">
<svg xmlns:xlink="http://www.w3.org/1999/xlink" width="277.829091pt" height="77.980957pt" viewBox="0 0 277.829091 77.980957" xmlns="http://www.w3.org/2000/svg" version="1.1">
 <metadata>
  <rdf:RDF xmlns:dc="http://purl.org/dc/elements/1.1/" xmlns:cc="http://creativecommons.org/ns#" xmlns:rdf="http://www.w3.org/1999/02/22-rdf-syntax-ns#">
   <cc:Work>
    <dc:type rdf:resource="http://purl.org/dc/dcmitype/StillImage"/>
    <dc:date>2026-05-05T16:14:41.408253</dc:date>
    <dc:format>image/svg+xml</dc:format>
    <dc:creator>
     <cc:Agent>
      <dc:title>Matplotlib v3.10.9, https://matplotlib.org/</dc:title>
     </cc:Agent>
    </dc:creator>
   </cc:Work>
  </rdf:RDF>
 </metadata>
 <defs>
  <style type="text/css">*{stroke-linejoin: round; stroke-linecap: butt}</style>
 </defs>
 <g id="figure_1">
  <g id="patch_1">
   <path d="M 0 77.980957 
L 277.829091 77.980957 
L 277.829091 0 
L 0 0 
L 0 77.980957 
z
" style="fill: none"/>
  </g>
  <g id="axes_1">
   <g id="patch_2">
    <path d="M 32.46 73.93464 
L 133.914545 73.93464 
L 133.914545 11.230965 
L 32.46 11.230965 
L 32.46 73.93464 
z
" style="fill: none"/>
   </g>
   <g id="matplotlib.axis_1"/>
   <g id="matplotlib.axis_2">
    <g id="ytick_1">
     <g id="line2d_1">
      <defs>
       <path id="m22fa06a116" d="M 0 0 
L -4 0 
" style="stroke: #afafaf; stroke-width: 0.8"/>
      </defs>
      <g>
       <use xlink:href="#m22fa06a116" x="32.46" y="71.084473" style="fill: #afafaf; stroke: #afafaf; stroke-width: 0.8"/>
      </g>
     </g>
     <g id="text_1">
      <!-- $-0.5$ V -->
      <g style="fill: #afafaf" transform="translate(3 73.589707) scale(0.07 -0.07)">
       <defs>
        <path id="DejaVuSans-2212" d="M 678 2272 
L 4684 2272 
L 4684 1741 
L 678 1741 
L 678 2272 
z
" transform="scale(0.015625)"/>
        <path id="DejaVuSans-30" d="M 2034 4250 
Q 1547 4250 1301 3770 
Q 1056 3291 1056 2328 
Q 1056 1369 1301 889 
Q 1547 409 2034 409 
Q 2525 409 2770 889 
Q 3016 1369 3016 2328 
Q 3016 3291 2770 3770 
Q 2525 4250 2034 4250 
z
M 2034 4750 
Q 2819 4750 3233 4129 
Q 3647 3509 3647 2328 
Q 3647 1150 3233 529 
Q 2819 -91 2034 -91 
Q 1250 -91 836 529 
Q 422 1150 422 2328 
Q 422 3509 836 4129 
Q 1250 4750 2034 4750 
z
" transform="scale(0.015625)"/>
        <path id="DejaVuSans-2e" d="M 684 794 
L 1344 794 
L 1344 0 
L 684 0 
L 684 794 
z
" transform="scale(0.015625)"/>
        <path id="DejaVuSans-35" d="M 691 4666 
L 3169 4666 
L 3169 4134 
L 1269 4134 
L 1269 2991 
Q 1406 3038 1543 3061 
Q 1681 3084 1819 3084 
Q 2600 3084 3056 2656 
Q 3513 2228 3513 1497 
Q 3513 744 3044 326 
Q 2575 -91 1722 -91 
Q 1428 -91 1123 -41 
Q 819 9 494 109 
L 494 744 
Q 775 591 1075 516 
Q 1375 441 1709 441 
Q 2250 441 2565 725 
Q 2881 1009 2881 1497 
Q 2881 1984 2565 2268 
Q 2250 2553 1709 2553 
Q 1456 2553 1204 2497 
Q 953 2441 691 2322 
L 691 4666 
z
" transform="scale(0.015625)"/>
        <path id="ArialMT-20" transform="scale(0.015625)"/>
        <path id="ArialMT-56" d="M 1803 0 
L 28 4581 
L 684 4581 
L 1875 1253 
Q 2019 853 2116 503 
Q 2222 878 2363 1253 
L 3600 4581 
L 4219 4581 
L 2425 0 
L 1803 0 
z
" transform="scale(0.015625)"/>
       </defs>
       <use xlink:href="#DejaVuSans-2212" transform="translate(0 0.78125)"/>
       <use xlink:href="#DejaVuSans-30" transform="translate(83.789062 0.78125)"/>
       <use xlink:href="#DejaVuSans-2e" transform="translate(147.412109 0.78125)"/>
       <use xlink:href="#DejaVuSans-35" transform="translate(179.199219 0.78125)"/>
       <use xlink:href="#ArialMT-20" transform="translate(242.822266 0.78125)"/>
       <use xlink:href="#ArialMT-56" transform="translate(270.605469 0.78125)"/>
      </g>
     </g>
    </g>
    <g id="ytick_2">
     <g id="line2d_2">
      <g>
       <use xlink:href="#m22fa06a116" x="32.46" y="42.582802" style="fill: #afafaf; stroke: #afafaf; stroke-width: 0.8"/>
      </g>
     </g>
     <g id="text_2">
      <!-- $0.0$ V -->
      <g style="fill: #afafaf" transform="translate(8.88 45.088037) scale(0.07 -0.07)">
       <use xlink:href="#DejaVuSans-30" transform="translate(0 0.78125)"/>
       <use xlink:href="#DejaVuSans-2e" transform="translate(63.623047 0.78125)"/>
       <use xlink:href="#DejaVuSans-30" transform="translate(95.410156 0.78125)"/>
       <use xlink:href="#ArialMT-20" transform="translate(159.033203 0.78125)"/>
       <use xlink:href="#ArialMT-56" transform="translate(186.816406 0.78125)"/>
      </g>
     </g>
    </g>
    <g id="ytick_3">
     <g id="line2d_3">
      <g>
       <use xlink:href="#m22fa06a116" x="32.46" y="14.081132" style="fill: #afafaf; stroke: #afafaf; stroke-width: 0.8"/>
      </g>
     </g>
     <g id="text_3">
      <!-- $0.5$ V -->
      <g style="fill: #afafaf" transform="translate(8.88 16.586366) scale(0.07 -0.07)">
       <use xlink:href="#DejaVuSans-30" transform="translate(0 0.78125)"/>
       <use xlink:href="#DejaVuSans-2e" transform="translate(63.623047 0.78125)"/>
       <use xlink:href="#DejaVuSans-35" transform="translate(95.410156 0.78125)"/>
       <use xlink:href="#ArialMT-20" transform="translate(159.033203 0.78125)"/>
       <use xlink:href="#ArialMT-56" transform="translate(186.816406 0.78125)"/>
      </g>
     </g>
    </g>
    <g id="ytick_4">
     <g id="line2d_4">
      <defs>
       <path id="m215b99114f" d="M 0 0 
L -2.2 0 
" style="stroke: #afafaf; stroke-width: 0.4"/>
      </defs>
      <g>
       <use xlink:href="#m215b99114f" x="32.46" y="65.384138" style="fill: #afafaf; stroke: #afafaf; stroke-width: 0.4"/>
      </g>
     </g>
    </g>
    <g id="ytick_5">
     <g id="line2d_5">
      <g>
       <use xlink:href="#m215b99114f" x="32.46" y="59.683804" style="fill: #afafaf; stroke: #afafaf; stroke-width: 0.4"/>
      </g>
     </g>
    </g>
    <g id="ytick_6">
     <g id="line2d_6">
      <g>
       <use xlink:href="#m215b99114f" x="32.46" y="53.98347" style="fill: #afafaf; stroke: #afafaf; stroke-width: 0.4"/>
      </g>
     </g>
    </g>
    <g id="ytick_7">
     <g id="line2d_7">
      <g>
       <use xlink:href="#m215b99114f" x="32.46" y="48.283136" style="fill: #afafaf; stroke: #afafaf; stroke-width: 0.4"/>
      </g>
     </g>
    </g>
    <g id="ytick_8">
     <g id="line2d_8">
      <g>
       <use xlink:href="#m215b99114f" x="32.46" y="36.882468" style="fill: #afafaf; stroke: #afafaf; stroke-width: 0.4"/>
      </g>
     </g>
    </g>
    <g id="ytick_9">
     <g id="line2d_9">
      <g>
       <use xlink:href="#m215b99114f" x="32.46" y="31.182134" style="fill: #afafaf; stroke: #afafaf; stroke-width: 0.4"/>
      </g>
     </g>
    </g>
    <g id="ytick_10">
     <g id="line2d_10">
      <g>
       <use xlink:href="#m215b99114f" x="32.46" y="25.4818" style="fill: #afafaf; stroke: #afafaf; stroke-width: 0.4"/>
      </g>
     </g>
    </g>
    <g id="ytick_11">
     <g id="line2d_11">
      <g>
       <use xlink:href="#m215b99114f" x="32.46" y="19.781466" style="fill: #afafaf; stroke: #afafaf; stroke-width: 0.4"/>
      </g>
     </g>
    </g>
   </g>
   <g id="patch_3">
    <path d="M 32.46 73.93464 
L 32.46 11.230965 
" style="fill: none; stroke: #afafaf; stroke-width: 0.8; stroke-linejoin: miter; stroke-linecap: square"/>
   </g>
   <g id="patch_4">
    <path d="M 32.46 42.582802 
L 133.914545 42.582802 
" style="fill: none; stroke: #afafaf; stroke-width: 0.8; stroke-linejoin: miter; stroke-linecap: square"/>
   </g>
   <g id="text_4">
    <!-- analog_offset[i] = 0.0 -->
    <g style="fill: #afafaf" transform="translate(50.65696 8.095781) scale(0.07 -0.07)">
     <defs>
      <path id="ArialMT-61" d="M 2588 409 
Q 2275 144 1986 34 
Q 1697 -75 1366 -75 
Q 819 -75 525 192 
Q 231 459 231 875 
Q 231 1119 342 1320 
Q 453 1522 633 1644 
Q 813 1766 1038 1828 
Q 1203 1872 1538 1913 
Q 2219 1994 2541 2106 
Q 2544 2222 2544 2253 
Q 2544 2597 2384 2738 
Q 2169 2928 1744 2928 
Q 1347 2928 1158 2789 
Q 969 2650 878 2297 
L 328 2372 
Q 403 2725 575 2942 
Q 747 3159 1072 3276 
Q 1397 3394 1825 3394 
Q 2250 3394 2515 3294 
Q 2781 3194 2906 3042 
Q 3031 2891 3081 2659 
Q 3109 2516 3109 2141 
L 3109 1391 
Q 3109 606 3145 398 
Q 3181 191 3288 0 
L 2700 0 
Q 2613 175 2588 409 
z
M 2541 1666 
Q 2234 1541 1622 1453 
Q 1275 1403 1131 1340 
Q 988 1278 909 1158 
Q 831 1038 831 891 
Q 831 666 1001 516 
Q 1172 366 1500 366 
Q 1825 366 2078 508 
Q 2331 650 2450 897 
Q 2541 1088 2541 1459 
L 2541 1666 
z
" transform="scale(0.015625)"/>
      <path id="ArialMT-6e" d="M 422 0 
L 422 3319 
L 928 3319 
L 928 2847 
Q 1294 3394 1984 3394 
Q 2284 3394 2536 3286 
Q 2788 3178 2913 3003 
Q 3038 2828 3088 2588 
Q 3119 2431 3119 2041 
L 3119 0 
L 2556 0 
L 2556 2019 
Q 2556 2363 2490 2533 
Q 2425 2703 2258 2804 
Q 2091 2906 1866 2906 
Q 1506 2906 1245 2678 
Q 984 2450 984 1813 
L 984 0 
L 422 0 
z
" transform="scale(0.015625)"/>
      <path id="ArialMT-6c" d="M 409 0 
L 409 4581 
L 972 4581 
L 972 0 
L 409 0 
z
" transform="scale(0.015625)"/>
      <path id="ArialMT-6f" d="M 213 1659 
Q 213 2581 725 3025 
Q 1153 3394 1769 3394 
Q 2453 3394 2887 2945 
Q 3322 2497 3322 1706 
Q 3322 1066 3130 698 
Q 2938 331 2570 128 
Q 2203 -75 1769 -75 
Q 1072 -75 642 372 
Q 213 819 213 1659 
z
M 791 1659 
Q 791 1022 1069 705 
Q 1347 388 1769 388 
Q 2188 388 2466 706 
Q 2744 1025 2744 1678 
Q 2744 2294 2464 2611 
Q 2184 2928 1769 2928 
Q 1347 2928 1069 2612 
Q 791 2297 791 1659 
z
" transform="scale(0.015625)"/>
      <path id="ArialMT-67" d="M 319 -275 
L 866 -356 
Q 900 -609 1056 -725 
Q 1266 -881 1628 -881 
Q 2019 -881 2231 -725 
Q 2444 -569 2519 -288 
Q 2563 -116 2559 434 
Q 2191 0 1641 0 
Q 956 0 581 494 
Q 206 988 206 1678 
Q 206 2153 378 2554 
Q 550 2956 876 3175 
Q 1203 3394 1644 3394 
Q 2231 3394 2613 2919 
L 2613 3319 
L 3131 3319 
L 3131 450 
Q 3131 -325 2973 -648 
Q 2816 -972 2473 -1159 
Q 2131 -1347 1631 -1347 
Q 1038 -1347 672 -1080 
Q 306 -813 319 -275 
z
M 784 1719 
Q 784 1066 1043 766 
Q 1303 466 1694 466 
Q 2081 466 2343 764 
Q 2606 1063 2606 1700 
Q 2606 2309 2336 2618 
Q 2066 2928 1684 2928 
Q 1309 2928 1046 2623 
Q 784 2319 784 1719 
z
" transform="scale(0.015625)"/>
      <path id="ArialMT-5f" d="M -97 -1272 
L -97 -866 
L 3631 -866 
L 3631 -1272 
L -97 -1272 
z
" transform="scale(0.015625)"/>
      <path id="ArialMT-66" d="M 556 0 
L 556 2881 
L 59 2881 
L 59 3319 
L 556 3319 
L 556 3672 
Q 556 4006 616 4169 
Q 697 4388 901 4523 
Q 1106 4659 1475 4659 
Q 1713 4659 2000 4603 
L 1916 4113 
Q 1741 4144 1584 4144 
Q 1328 4144 1222 4034 
Q 1116 3925 1116 3625 
L 1116 3319 
L 1763 3319 
L 1763 2881 
L 1116 2881 
L 1116 0 
L 556 0 
z
" transform="scale(0.015625)"/>
      <path id="ArialMT-73" d="M 197 991 
L 753 1078 
Q 800 744 1014 566 
Q 1228 388 1613 388 
Q 2000 388 2187 545 
Q 2375 703 2375 916 
Q 2375 1106 2209 1216 
Q 2094 1291 1634 1406 
Q 1016 1563 777 1677 
Q 538 1791 414 1992 
Q 291 2194 291 2438 
Q 291 2659 392 2848 
Q 494 3038 669 3163 
Q 800 3259 1026 3326 
Q 1253 3394 1513 3394 
Q 1903 3394 2198 3281 
Q 2494 3169 2634 2976 
Q 2775 2784 2828 2463 
L 2278 2388 
Q 2241 2644 2061 2787 
Q 1881 2931 1553 2931 
Q 1166 2931 1000 2803 
Q 834 2675 834 2503 
Q 834 2394 903 2306 
Q 972 2216 1119 2156 
Q 1203 2125 1616 2013 
Q 2213 1853 2448 1751 
Q 2684 1650 2818 1456 
Q 2953 1263 2953 975 
Q 2953 694 2789 445 
Q 2625 197 2315 61 
Q 2006 -75 1616 -75 
Q 969 -75 630 194 
Q 291 463 197 991 
z
" transform="scale(0.015625)"/>
      <path id="ArialMT-65" d="M 2694 1069 
L 3275 997 
Q 3138 488 2766 206 
Q 2394 -75 1816 -75 
Q 1088 -75 661 373 
Q 234 822 234 1631 
Q 234 2469 665 2931 
Q 1097 3394 1784 3394 
Q 2450 3394 2872 2941 
Q 3294 2488 3294 1666 
Q 3294 1616 3291 1516 
L 816 1516 
Q 847 969 1125 678 
Q 1403 388 1819 388 
Q 2128 388 2347 550 
Q 2566 713 2694 1069 
z
M 847 1978 
L 2700 1978 
Q 2663 2397 2488 2606 
Q 2219 2931 1791 2931 
Q 1403 2931 1139 2672 
Q 875 2413 847 1978 
z
" transform="scale(0.015625)"/>
      <path id="ArialMT-74" d="M 1650 503 
L 1731 6 
Q 1494 -44 1306 -44 
Q 1000 -44 831 53 
Q 663 150 594 308 
Q 525 466 525 972 
L 525 2881 
L 113 2881 
L 113 3319 
L 525 3319 
L 525 4141 
L 1084 4478 
L 1084 3319 
L 1650 3319 
L 1650 2881 
L 1084 2881 
L 1084 941 
Q 1084 700 1114 631 
Q 1144 563 1211 522 
Q 1278 481 1403 481 
Q 1497 481 1650 503 
z
" transform="scale(0.015625)"/>
      <path id="ArialMT-5b" d="M 434 -1272 
L 434 4581 
L 1675 4581 
L 1675 4116 
L 997 4116 
L 997 -806 
L 1675 -806 
L 1675 -1272 
L 434 -1272 
z
" transform="scale(0.015625)"/>
      <path id="ArialMT-69" d="M 425 3934 
L 425 4581 
L 988 4581 
L 988 3934 
L 425 3934 
z
M 425 0 
L 425 3319 
L 988 3319 
L 988 0 
L 425 0 
z
" transform="scale(0.015625)"/>
      <path id="ArialMT-5d" d="M 1363 -1272 
L 122 -1272 
L 122 -806 
L 800 -806 
L 800 4116 
L 122 4116 
L 122 4581 
L 1363 4581 
L 1363 -1272 
z
" transform="scale(0.015625)"/>
      <path id="ArialMT-3d" d="M 3381 2694 
L 356 2694 
L 356 3219 
L 3381 3219 
L 3381 2694 
z
M 3381 1303 
L 356 1303 
L 356 1828 
L 3381 1828 
L 3381 1303 
z
" transform="scale(0.015625)"/>
      <path id="ArialMT-30" d="M 266 2259 
Q 266 3072 433 3567 
Q 600 4063 929 4331 
Q 1259 4600 1759 4600 
Q 2128 4600 2406 4451 
Q 2684 4303 2865 4023 
Q 3047 3744 3150 3342 
Q 3253 2941 3253 2259 
Q 3253 1453 3087 958 
Q 2922 463 2592 192 
Q 2263 -78 1759 -78 
Q 1097 -78 719 397 
Q 266 969 266 2259 
z
M 844 2259 
Q 844 1131 1108 757 
Q 1372 384 1759 384 
Q 2147 384 2411 759 
Q 2675 1134 2675 2259 
Q 2675 3391 2411 3762 
Q 2147 4134 1753 4134 
Q 1366 4134 1134 3806 
Q 844 3388 844 2259 
z
" transform="scale(0.015625)"/>
      <path id="ArialMT-2e" d="M 581 0 
L 581 641 
L 1222 641 
L 1222 0 
L 581 0 
z
" transform="scale(0.015625)"/>
     </defs>
     <use xlink:href="#ArialMT-61"/>
     <use xlink:href="#ArialMT-6e" transform="translate(55.615234 0)"/>
     <use xlink:href="#ArialMT-61" transform="translate(111.230469 0)"/>
     <use xlink:href="#ArialMT-6c" transform="translate(166.845703 0)"/>
     <use xlink:href="#ArialMT-6f" transform="translate(189.0625 0)"/>
     <use xlink:href="#ArialMT-67" transform="translate(244.677734 0)"/>
     <use xlink:href="#ArialMT-5f" transform="translate(300.292969 0)"/>
     <use xlink:href="#ArialMT-6f" transform="translate(355.908203 0)"/>
     <use xlink:href="#ArialMT-66" transform="translate(411.523438 0)"/>
     <use xlink:href="#ArialMT-66" transform="translate(437.556641 0)"/>
     <use xlink:href="#ArialMT-73" transform="translate(465.339844 0)"/>
     <use xlink:href="#ArialMT-65" transform="translate(515.339844 0)"/>
     <use xlink:href="#ArialMT-74" transform="translate(570.955078 0)"/>
     <use xlink:href="#ArialMT-5b" transform="translate(598.738281 0)"/>
     <use xlink:href="#ArialMT-69" transform="translate(626.521484 0)"/>
     <use xlink:href="#ArialMT-5d" transform="translate(648.738281 0)"/>
     <use xlink:href="#ArialMT-20" transform="translate(676.521484 0)"/>
     <use xlink:href="#ArialMT-3d" transform="translate(704.304688 0)"/>
     <use xlink:href="#ArialMT-20" transform="translate(762.703125 0)"/>
     <use xlink:href="#ArialMT-30" transform="translate(790.486328 0)"/>
     <use xlink:href="#ArialMT-2e" transform="translate(846.101562 0)"/>
     <use xlink:href="#ArialMT-30" transform="translate(873.884766 0)"/>
    </g>
   </g>
   <g id="line2d_12">
    <path d="M 32.46 42.582802 
L 40.134944 42.324225 
L 41.840944 41.98903 
L 46.959527 40.628913 
L 47.812262 40.622465 
L 48.66475 40.766423 
L 49.443991 41.257015 
L 49.902819 42.137744 
L 50.153348 42.996609 
L 50.56512 47.937389 
L 51.121788 55.117974 
L 51.313866 57.97696 
L 51.730492 62.082125 
L 51.959426 64.286308 
L 52.576416 68.986079 
L 52.972116 71.084473 
L 77.813585 71.084473 
L 78.20266 70.569007 
L 79.740813 66.799714 
L 80.720146 63.887815 
L 81.401529 62.016362 
L 83.866426 54.377101 
L 86.633248 47.844483 
L 89.121525 43.014507 
L 91.320133 40.333177 
L 92.155604 39.60137 
L 93.815282 38.425539 
L 94.716328 38.051104 
L 95.569298 37.901411 
L 96.422015 37.905706 
L 97.274509 38.046083 
L 98.954579 38.747148 
L 100.544679 39.816296 
L 101.92584 40.925159 
L 103.645462 42.554629 
L 106.50185 44.89209 
L 107.171489 45.308427 
L 108.037437 45.585714 
L 109.742535 45.798874 
L 111.448122 45.714355 
L 114.007175 45.179331 
L 118.272623 44.069176 
L 120.069627 43.76609 
L 121.994386 43.592425 
L 122.847597 43.566281 
L 133.855011 43.589224 
L 133.855011 43.589224 
" clip-path="url(#p987467929b)" style="fill: none; stroke: #376eb5; stroke-width: 1.5; stroke-linecap: square"/>
   </g>
   <g id="line2d_13">
    <path d="M 32.46 42.582802 
L 133.914545 42.582802 
" clip-path="url(#p987467929b)" style="fill: none; stroke-dasharray: 2.96,1.28; stroke-dashoffset: 0; stroke: #ed7800; stroke-width: 0.8"/>
   </g>
  </g>
  <g id="axes_2">
   <g id="patch_5">
    <path d="M 173.374545 73.93464 
L 274.829091 73.93464 
L 274.829091 11.230965 
L 173.374545 11.230965 
L 173.374545 73.93464 
z
" style="fill: none"/>
   </g>
   <g id="matplotlib.axis_3"/>
   <g id="matplotlib.axis_4">
    <g id="ytick_12">
     <g id="line2d_14">
      <g>
       <use xlink:href="#m22fa06a116" x="173.374545" y="71.084473" style="fill: #afafaf; stroke: #afafaf; stroke-width: 0.8"/>
      </g>
     </g>
     <g id="text_5">
      <!-- $-0.5$ V -->
      <g style="fill: #afafaf" transform="translate(143.914545 73.589707) scale(0.07 -0.07)">
       <use xlink:href="#DejaVuSans-2212" transform="translate(0 0.78125)"/>
       <use xlink:href="#DejaVuSans-30" transform="translate(83.789062 0.78125)"/>
       <use xlink:href="#DejaVuSans-2e" transform="translate(147.412109 0.78125)"/>
       <use xlink:href="#DejaVuSans-35" transform="translate(179.199219 0.78125)"/>
       <use xlink:href="#ArialMT-20" transform="translate(242.822266 0.78125)"/>
       <use xlink:href="#ArialMT-56" transform="translate(270.605469 0.78125)"/>
      </g>
     </g>
    </g>
    <g id="ytick_13">
     <g id="line2d_15">
      <g>
       <use xlink:href="#m22fa06a116" x="173.374545" y="42.582802" style="fill: #afafaf; stroke: #afafaf; stroke-width: 0.8"/>
      </g>
     </g>
     <g id="text_6">
      <!-- $0.0$ V -->
      <g style="fill: #afafaf" transform="translate(149.794545 45.088037) scale(0.07 -0.07)">
       <use xlink:href="#DejaVuSans-30" transform="translate(0 0.78125)"/>
       <use xlink:href="#DejaVuSans-2e" transform="translate(63.623047 0.78125)"/>
       <use xlink:href="#DejaVuSans-30" transform="translate(95.410156 0.78125)"/>
       <use xlink:href="#ArialMT-20" transform="translate(159.033203 0.78125)"/>
       <use xlink:href="#ArialMT-56" transform="translate(186.816406 0.78125)"/>
      </g>
     </g>
    </g>
    <g id="ytick_14">
     <g id="line2d_16">
      <g>
       <use xlink:href="#m22fa06a116" x="173.374545" y="14.081132" style="fill: #afafaf; stroke: #afafaf; stroke-width: 0.8"/>
      </g>
     </g>
     <g id="text_7">
      <!-- $0.5$ V -->
      <g style="fill: #afafaf" transform="translate(149.794545 16.586366) scale(0.07 -0.07)">
       <use xlink:href="#DejaVuSans-30" transform="translate(0 0.78125)"/>
       <use xlink:href="#DejaVuSans-2e" transform="translate(63.623047 0.78125)"/>
       <use xlink:href="#DejaVuSans-35" transform="translate(95.410156 0.78125)"/>
       <use xlink:href="#ArialMT-20" transform="translate(159.033203 0.78125)"/>
       <use xlink:href="#ArialMT-56" transform="translate(186.816406 0.78125)"/>
      </g>
     </g>
    </g>
    <g id="ytick_15">
     <g id="line2d_17">
      <g>
       <use xlink:href="#m215b99114f" x="173.374545" y="65.384138" style="fill: #afafaf; stroke: #afafaf; stroke-width: 0.4"/>
      </g>
     </g>
    </g>
    <g id="ytick_16">
     <g id="line2d_18">
      <g>
       <use xlink:href="#m215b99114f" x="173.374545" y="59.683804" style="fill: #afafaf; stroke: #afafaf; stroke-width: 0.4"/>
      </g>
     </g>
    </g>
    <g id="ytick_17">
     <g id="line2d_19">
      <g>
       <use xlink:href="#m215b99114f" x="173.374545" y="53.98347" style="fill: #afafaf; stroke: #afafaf; stroke-width: 0.4"/>
      </g>
     </g>
    </g>
    <g id="ytick_18">
     <g id="line2d_20">
      <g>
       <use xlink:href="#m215b99114f" x="173.374545" y="48.283136" style="fill: #afafaf; stroke: #afafaf; stroke-width: 0.4"/>
      </g>
     </g>
    </g>
    <g id="ytick_19">
     <g id="line2d_21">
      <g>
       <use xlink:href="#m215b99114f" x="173.374545" y="36.882468" style="fill: #afafaf; stroke: #afafaf; stroke-width: 0.4"/>
      </g>
     </g>
    </g>
    <g id="ytick_20">
     <g id="line2d_22">
      <g>
       <use xlink:href="#m215b99114f" x="173.374545" y="31.182134" style="fill: #afafaf; stroke: #afafaf; stroke-width: 0.4"/>
      </g>
     </g>
    </g>
    <g id="ytick_21">
     <g id="line2d_23">
      <g>
       <use xlink:href="#m215b99114f" x="173.374545" y="25.4818" style="fill: #afafaf; stroke: #afafaf; stroke-width: 0.4"/>
      </g>
     </g>
    </g>
    <g id="ytick_22">
     <g id="line2d_24">
      <g>
       <use xlink:href="#m215b99114f" x="173.374545" y="19.781466" style="fill: #afafaf; stroke: #afafaf; stroke-width: 0.4"/>
      </g>
     </g>
    </g>
   </g>
   <g id="patch_6">
    <path d="M 173.374545 73.93464 
L 173.374545 11.230965 
" style="fill: none; stroke: #afafaf; stroke-width: 0.8; stroke-linejoin: miter; stroke-linecap: square"/>
   </g>
   <g id="patch_7">
    <path d="M 173.374545 42.582802 
L 274.829091 42.582802 
" style="fill: none; stroke: #afafaf; stroke-width: 0.8; stroke-linejoin: miter; stroke-linecap: square"/>
   </g>
   <g id="text_8">
    <!-- 0.37 V -->
    <g style="fill: #afafaf" transform="translate(243.265455 35.841911) scale(0.07 -0.07)">
     <defs>
      <path id="ArialMT-33" d="M 269 1209 
L 831 1284 
Q 928 806 1161 595 
Q 1394 384 1728 384 
Q 2125 384 2398 659 
Q 2672 934 2672 1341 
Q 2672 1728 2419 1979 
Q 2166 2231 1775 2231 
Q 1616 2231 1378 2169 
L 1441 2663 
Q 1497 2656 1531 2656 
Q 1891 2656 2178 2843 
Q 2466 3031 2466 3422 
Q 2466 3731 2256 3934 
Q 2047 4138 1716 4138 
Q 1388 4138 1169 3931 
Q 950 3725 888 3313 
L 325 3413 
Q 428 3978 793 4289 
Q 1159 4600 1703 4600 
Q 2078 4600 2393 4439 
Q 2709 4278 2876 4000 
Q 3044 3722 3044 3409 
Q 3044 3113 2884 2869 
Q 2725 2625 2413 2481 
Q 2819 2388 3044 2092 
Q 3269 1797 3269 1353 
Q 3269 753 2831 336 
Q 2394 -81 1725 -81 
Q 1122 -81 723 278 
Q 325 638 269 1209 
z
" transform="scale(0.015625)"/>
      <path id="ArialMT-37" d="M 303 3981 
L 303 4522 
L 3269 4522 
L 3269 4084 
Q 2831 3619 2401 2847 
Q 1972 2075 1738 1259 
Q 1569 684 1522 0 
L 944 0 
Q 953 541 1156 1306 
Q 1359 2072 1739 2783 
Q 2119 3494 2547 3981 
L 303 3981 
z
" transform="scale(0.015625)"/>
     </defs>
     <use xlink:href="#ArialMT-30"/>
     <use xlink:href="#ArialMT-2e" transform="translate(55.615234 0)"/>
     <use xlink:href="#ArialMT-33" transform="translate(83.398438 0)"/>
     <use xlink:href="#ArialMT-37" transform="translate(139.013672 0)"/>
     <use xlink:href="#ArialMT-20" transform="translate(194.628906 0)"/>
     <use xlink:href="#ArialMT-56" transform="translate(222.412109 0)"/>
    </g>
   </g>
   <g id="text_9">
    <!-- analog_offset[i] = 0.37 -->
    <g style="fill: #afafaf" transform="translate(189.625178 8.095781) scale(0.07 -0.07)">
     <use xlink:href="#ArialMT-61"/>
     <use xlink:href="#ArialMT-6e" transform="translate(55.615234 0)"/>
     <use xlink:href="#ArialMT-61" transform="translate(111.230469 0)"/>
     <use xlink:href="#ArialMT-6c" transform="translate(166.845703 0)"/>
     <use xlink:href="#ArialMT-6f" transform="translate(189.0625 0)"/>
     <use xlink:href="#ArialMT-67" transform="translate(244.677734 0)"/>
     <use xlink:href="#ArialMT-5f" transform="translate(300.292969 0)"/>
     <use xlink:href="#ArialMT-6f" transform="translate(355.908203 0)"/>
     <use xlink:href="#ArialMT-66" transform="translate(411.523438 0)"/>
     <use xlink:href="#ArialMT-66" transform="translate(437.556641 0)"/>
     <use xlink:href="#ArialMT-73" transform="translate(465.339844 0)"/>
     <use xlink:href="#ArialMT-65" transform="translate(515.339844 0)"/>
     <use xlink:href="#ArialMT-74" transform="translate(570.955078 0)"/>
     <use xlink:href="#ArialMT-5b" transform="translate(598.738281 0)"/>
     <use xlink:href="#ArialMT-69" transform="translate(626.521484 0)"/>
     <use xlink:href="#ArialMT-5d" transform="translate(648.738281 0)"/>
     <use xlink:href="#ArialMT-20" transform="translate(676.521484 0)"/>
     <use xlink:href="#ArialMT-3d" transform="translate(704.304688 0)"/>
     <use xlink:href="#ArialMT-20" transform="translate(762.703125 0)"/>
     <use xlink:href="#ArialMT-30" transform="translate(790.486328 0)"/>
     <use xlink:href="#ArialMT-2e" transform="translate(846.101562 0)"/>
     <use xlink:href="#ArialMT-33" transform="translate(873.884766 0)"/>
     <use xlink:href="#ArialMT-37" transform="translate(929.5 0)"/>
    </g>
   </g>
   <g id="patch_8">
    <path d="M 241.010909 22.843548 
Q 241.010909 32.154158 241.010909 41.464768 
" style="fill: none; stroke: #afafaf; stroke-linecap: round"/>
    <path d="M 239.610909 25.643548 
L 241.010909 22.843548 
L 242.410909 25.643548 
" style="fill: none; stroke: #afafaf; stroke-linecap: round"/>
    <path d="M 242.410909 38.664768 
L 241.010909 41.464768 
L 239.610909 38.664768 
" style="fill: none; stroke: #afafaf; stroke-linecap: round"/>
   </g>
   <g id="line2d_25">
    <path d="M 173.374545 21.725514 
L 181.049489 21.466937 
L 182.755489 21.131741 
L 187.874073 19.771625 
L 188.726808 19.765176 
L 189.579295 19.909134 
L 190.358537 20.399727 
L 190.817365 21.280456 
L 191.067893 22.139321 
L 191.479665 27.080101 
L 192.036333 34.260686 
L 192.228412 37.119671 
L 192.645037 41.224836 
L 192.873972 43.42902 
L 193.490962 48.128791 
L 194.485469 53.41477 
L 194.95826 55.48477 
L 196.573117 60.322269 
L 197.360205 62.039012 
L 198.011473 62.961991 
L 199.209062 64.859031 
L 200.684044 66.489359 
L 201.448838 67.141335 
L 202.028312 67.482203 
L 203.686425 67.982977 
L 204.538918 68.123354 
L 205.391629 68.13123 
L 207.133451 67.77017 
L 207.975399 67.452229 
L 208.804499 66.932626 
L 210.477693 65.333988 
L 211.897381 63.439949 
L 213.077001 61.535382 
L 215.148423 57.853948 
L 216.06166 56.023625 
L 216.562856 55.240242 
L 218.728131 50.606909 
L 220.655358 45.942425 
L 221.634691 43.030527 
L 222.316074 41.159073 
L 224.780971 33.519813 
L 227.547794 26.987195 
L 230.03607 22.157219 
L 232.234678 19.475889 
L 233.070149 18.744082 
L 234.729828 17.568251 
L 235.630873 17.193816 
L 236.483844 17.044123 
L 237.336561 17.048418 
L 238.189054 17.188795 
L 239.869124 17.889859 
L 241.459224 18.959008 
L 242.840385 20.067871 
L 244.560008 21.69734 
L 247.416396 24.034801 
L 248.086034 24.451138 
L 248.951982 24.728426 
L 250.65708 24.941585 
L 252.362668 24.857066 
L 254.921721 24.322043 
L 259.187169 23.211888 
L 260.984173 22.908802 
L 262.908932 22.735137 
L 263.762142 22.708993 
L 274.769556 22.731935 
L 274.769556 22.731935 
" clip-path="url(#p912f0333b6)" style="fill: none; stroke: #376eb5; stroke-width: 1.5; stroke-linecap: square"/>
   </g>
   <g id="line2d_26">
    <path d="M 173.374545 21.725514 
L 274.829091 21.725514 
" clip-path="url(#p912f0333b6)" style="fill: none; stroke-dasharray: 2.96,1.28; stroke-dashoffset: 0; stroke: #ed7800; stroke-width: 0.8"/>
   </g>
  </g>
 </g>
 <defs>
  <clipPath id="p987467929b">
   <rect x="32.46" y="11.230965" width="101.454545" height="62.703675"/>
  </clipPath>
  <clipPath id="p912f0333b6">
   <rect x="173.374545" y="11.230965" width="101.454545" height="62.703675"/>
  </clipPath>
 </defs>
</svg>
