<?xml version="1.0" encoding="utf-8" standalone="no"?>
<!DOCTYPE svg PUBLIC "-//W3C//DTD SVG 1.1//EN"
  "http://www.w3.org/Graphics/SVG/1.1/DTD/svg11.dtd">
<svg xmlns:xlink="http://www.w3.org/1999/xlink" width="287.530459pt" height="84.267041pt" viewBox="0 0 287.530459 84.267041" xmlns="http://www.w3.org/2000/svg" version="1.1">
 <metadata>
  <rdf:RDF xmlns:dc="http://purl.org/dc/elements/1.1/" xmlns:cc="http://creativecommons.org/ns#" xmlns:rdf="http://www.w3.org/1999/02/22-rdf-syntax-ns#">
   <cc:Work>
    <dc:type rdf:resource="http://purl.org/dc/dcmitype/StillImage"/>
    <dc:date>2025-06-12T14:42:11.230233</dc:date>
    <dc:format>image/svg+xml</dc:format>
    <dc:creator>
     <cc:Agent>
      <dc:title>Matplotlib v3.9.2, https://matplotlib.org/</dc:title>
     </cc:Agent>
    </dc:creator>
   </cc:Work>
  </rdf:RDF>
 </metadata>
 <defs>
  <style type="text/css">*{stroke-linejoin: round; stroke-linecap: butt}</style>
 </defs>
 <g id="figure_1">
  <g id="patch_1">
   <path d="M 0 84.267041 
L 287.530459 84.267041 
L 287.530459 0 
L 0 0 
L 0 84.267041 
z
" style="fill: none"/>
  </g>
  <g id="axes_1">
   <g id="patch_2">
    <path d="M 34.510762 78.055866 
L 138.765229 78.055866 
L 138.765229 13.621708 
L 34.510762 13.621708 
L 34.510762 78.055866 
z
" style="fill: none"/>
   </g>
   <g id="matplotlib.axis_1"/>
   <g id="matplotlib.axis_2">
    <g id="ytick_1">
     <g id="line2d_1">
      <defs>
       <path id="m6439bc84f0" d="M 0 0 
L -3.5 0 
" style="stroke: #afafaf; stroke-width: 0.8"/>
      </defs>
      <g>
       <use xlink:href="#m6439bc84f0" x="34.510762" y="75.127041" style="fill: #afafaf; stroke: #afafaf; stroke-width: 0.8"/>
      </g>
     </g>
     <g id="text_1">
      <!-- $-0.5$ V -->
      <g style="fill: #afafaf" transform="translate(5.130762 77.786494) scale(0.07 -0.07)">
       <defs>
        <path id="DejaVuSans-2212" d="M 678 2272 
L 4684 2272 
L 4684 1741 
L 678 1741 
L 678 2272 
z
" transform="scale(0.015625)"/>
        <path id="DejaVuSans-30" d="M 2034 4250 
Q 1547 4250 1301 3770 
Q 1056 3291 1056 2328 
Q 1056 1369 1301 889 
Q 1547 409 2034 409 
Q 2525 409 2770 889 
Q 3016 1369 3016 2328 
Q 3016 3291 2770 3770 
Q 2525 4250 2034 4250 
z
M 2034 4750 
Q 2819 4750 3233 4129 
Q 3647 3509 3647 2328 
Q 3647 1150 3233 529 
Q 2819 -91 2034 -91 
Q 1250 -91 836 529 
Q 422 1150 422 2328 
Q 422 3509 836 4129 
Q 1250 4750 2034 4750 
z
" transform="scale(0.015625)"/>
        <path id="DejaVuSans-2e" d="M 684 794 
L 1344 794 
L 1344 0 
L 684 0 
L 684 794 
z
" transform="scale(0.015625)"/>
        <path id="DejaVuSans-35" d="M 691 4666 
L 3169 4666 
L 3169 4134 
L 1269 4134 
L 1269 2991 
Q 1406 3038 1543 3061 
Q 1681 3084 1819 3084 
Q 2600 3084 3056 2656 
Q 3513 2228 3513 1497 
Q 3513 744 3044 326 
Q 2575 -91 1722 -91 
Q 1428 -91 1123 -41 
Q 819 9 494 109 
L 494 744 
Q 775 591 1075 516 
Q 1375 441 1709 441 
Q 2250 441 2565 725 
Q 2881 1009 2881 1497 
Q 2881 1984 2565 2268 
Q 2250 2553 1709 2553 
Q 1456 2553 1204 2497 
Q 953 2441 691 2322 
L 691 4666 
z
" transform="scale(0.015625)"/>
        <path id="DejaVuSans-20" transform="scale(0.015625)"/>
        <path id="DejaVuSans-56" d="M 1831 0 
L 50 4666 
L 709 4666 
L 2188 738 
L 3669 4666 
L 4325 4666 
L 2547 0 
L 1831 0 
z
" transform="scale(0.015625)"/>
       </defs>
       <use xlink:href="#DejaVuSans-2212" transform="translate(0 0.78125)"/>
       <use xlink:href="#DejaVuSans-30" transform="translate(83.789062 0.78125)"/>
       <use xlink:href="#DejaVuSans-2e" transform="translate(147.412109 0.78125)"/>
       <use xlink:href="#DejaVuSans-35" transform="translate(179.199219 0.78125)"/>
       <use xlink:href="#DejaVuSans-20" transform="translate(242.822266 0.78125)"/>
       <use xlink:href="#DejaVuSans-56" transform="translate(274.609375 0.78125)"/>
      </g>
     </g>
    </g>
    <g id="ytick_2">
     <g id="line2d_2">
      <g>
       <use xlink:href="#m6439bc84f0" x="34.510762" y="45.838787" style="fill: #afafaf; stroke: #afafaf; stroke-width: 0.8"/>
      </g>
     </g>
     <g id="text_2">
      <!-- $0.0$ V -->
      <g style="fill: #afafaf" transform="translate(11.010762 48.49824) scale(0.07 -0.07)">
       <use xlink:href="#DejaVuSans-30" transform="translate(0 0.78125)"/>
       <use xlink:href="#DejaVuSans-2e" transform="translate(63.623047 0.78125)"/>
       <use xlink:href="#DejaVuSans-30" transform="translate(95.410156 0.78125)"/>
       <use xlink:href="#DejaVuSans-20" transform="translate(159.033203 0.78125)"/>
       <use xlink:href="#DejaVuSans-56" transform="translate(190.820312 0.78125)"/>
      </g>
     </g>
    </g>
    <g id="ytick_3">
     <g id="line2d_3">
      <g>
       <use xlink:href="#m6439bc84f0" x="34.510762" y="16.550533" style="fill: #afafaf; stroke: #afafaf; stroke-width: 0.8"/>
      </g>
     </g>
     <g id="text_3">
      <!-- $0.5$ V -->
      <g style="fill: #afafaf" transform="translate(11.010762 19.209986) scale(0.07 -0.07)">
       <use xlink:href="#DejaVuSans-30" transform="translate(0 0.78125)"/>
       <use xlink:href="#DejaVuSans-2e" transform="translate(63.623047 0.78125)"/>
       <use xlink:href="#DejaVuSans-35" transform="translate(95.410156 0.78125)"/>
       <use xlink:href="#DejaVuSans-20" transform="translate(159.033203 0.78125)"/>
       <use xlink:href="#DejaVuSans-56" transform="translate(190.820312 0.78125)"/>
      </g>
     </g>
    </g>
    <g id="ytick_4">
     <g id="line2d_4">
      <defs>
       <path id="mcdfea4dd64" d="M 0 0 
L -2 0 
" style="stroke: #afafaf; stroke-width: 0.4"/>
      </defs>
      <g>
       <use xlink:href="#mcdfea4dd64" x="34.510762" y="69.26939" style="fill: #afafaf; stroke: #afafaf; stroke-width: 0.4"/>
      </g>
     </g>
    </g>
    <g id="ytick_5">
     <g id="line2d_5">
      <g>
       <use xlink:href="#mcdfea4dd64" x="34.510762" y="63.411739" style="fill: #afafaf; stroke: #afafaf; stroke-width: 0.4"/>
      </g>
     </g>
    </g>
    <g id="ytick_6">
     <g id="line2d_6">
      <g>
       <use xlink:href="#mcdfea4dd64" x="34.510762" y="57.554088" style="fill: #afafaf; stroke: #afafaf; stroke-width: 0.4"/>
      </g>
     </g>
    </g>
    <g id="ytick_7">
     <g id="line2d_7">
      <g>
       <use xlink:href="#mcdfea4dd64" x="34.510762" y="51.696438" style="fill: #afafaf; stroke: #afafaf; stroke-width: 0.4"/>
      </g>
     </g>
    </g>
    <g id="ytick_8">
     <g id="line2d_8">
      <g>
       <use xlink:href="#mcdfea4dd64" x="34.510762" y="39.981136" style="fill: #afafaf; stroke: #afafaf; stroke-width: 0.4"/>
      </g>
     </g>
    </g>
    <g id="ytick_9">
     <g id="line2d_9">
      <g>
       <use xlink:href="#mcdfea4dd64" x="34.510762" y="34.123485" style="fill: #afafaf; stroke: #afafaf; stroke-width: 0.4"/>
      </g>
     </g>
    </g>
    <g id="ytick_10">
     <g id="line2d_10">
      <g>
       <use xlink:href="#mcdfea4dd64" x="34.510762" y="28.265835" style="fill: #afafaf; stroke: #afafaf; stroke-width: 0.4"/>
      </g>
     </g>
    </g>
    <g id="ytick_11">
     <g id="line2d_11">
      <g>
       <use xlink:href="#mcdfea4dd64" x="34.510762" y="22.408184" style="fill: #afafaf; stroke: #afafaf; stroke-width: 0.4"/>
      </g>
     </g>
    </g>
   </g>
   <g id="patch_3">
    <path d="M 34.510762 78.055866 
L 34.510762 13.621708 
" style="fill: none; stroke: #afafaf; stroke-width: 0.8; stroke-linejoin: miter; stroke-linecap: square"/>
   </g>
   <g id="patch_4">
    <path d="M 34.510762 45.838787 
L 138.765229 45.838787 
" style="fill: none; stroke: #afafaf; stroke-width: 0.8; stroke-linejoin: miter; stroke-linecap: square"/>
   </g>
   <g id="text_4">
    <!-- analog_offset[i] = 0.0 -->
    <g style="fill: #afafaf" transform="translate(48.662449 10.4) scale(0.07 -0.07)">
     <defs>
      <path id="DejaVuSans-61" d="M 2194 1759 
Q 1497 1759 1228 1600 
Q 959 1441 959 1056 
Q 959 750 1161 570 
Q 1363 391 1709 391 
Q 2188 391 2477 730 
Q 2766 1069 2766 1631 
L 2766 1759 
L 2194 1759 
z
M 3341 1997 
L 3341 0 
L 2766 0 
L 2766 531 
Q 2569 213 2275 61 
Q 1981 -91 1556 -91 
Q 1019 -91 701 211 
Q 384 513 384 1019 
Q 384 1609 779 1909 
Q 1175 2209 1959 2209 
L 2766 2209 
L 2766 2266 
Q 2766 2663 2505 2880 
Q 2244 3097 1772 3097 
Q 1472 3097 1187 3025 
Q 903 2953 641 2809 
L 641 3341 
Q 956 3463 1253 3523 
Q 1550 3584 1831 3584 
Q 2591 3584 2966 3190 
Q 3341 2797 3341 1997 
z
" transform="scale(0.015625)"/>
      <path id="DejaVuSans-6e" d="M 3513 2113 
L 3513 0 
L 2938 0 
L 2938 2094 
Q 2938 2591 2744 2837 
Q 2550 3084 2163 3084 
Q 1697 3084 1428 2787 
Q 1159 2491 1159 1978 
L 1159 0 
L 581 0 
L 581 3500 
L 1159 3500 
L 1159 2956 
Q 1366 3272 1645 3428 
Q 1925 3584 2291 3584 
Q 2894 3584 3203 3211 
Q 3513 2838 3513 2113 
z
" transform="scale(0.015625)"/>
      <path id="DejaVuSans-6c" d="M 603 4863 
L 1178 4863 
L 1178 0 
L 603 0 
L 603 4863 
z
" transform="scale(0.015625)"/>
      <path id="DejaVuSans-6f" d="M 1959 3097 
Q 1497 3097 1228 2736 
Q 959 2375 959 1747 
Q 959 1119 1226 758 
Q 1494 397 1959 397 
Q 2419 397 2687 759 
Q 2956 1122 2956 1747 
Q 2956 2369 2687 2733 
Q 2419 3097 1959 3097 
z
M 1959 3584 
Q 2709 3584 3137 3096 
Q 3566 2609 3566 1747 
Q 3566 888 3137 398 
Q 2709 -91 1959 -91 
Q 1206 -91 779 398 
Q 353 888 353 1747 
Q 353 2609 779 3096 
Q 1206 3584 1959 3584 
z
" transform="scale(0.015625)"/>
      <path id="DejaVuSans-67" d="M 2906 1791 
Q 2906 2416 2648 2759 
Q 2391 3103 1925 3103 
Q 1463 3103 1205 2759 
Q 947 2416 947 1791 
Q 947 1169 1205 825 
Q 1463 481 1925 481 
Q 2391 481 2648 825 
Q 2906 1169 2906 1791 
z
M 3481 434 
Q 3481 -459 3084 -895 
Q 2688 -1331 1869 -1331 
Q 1566 -1331 1297 -1286 
Q 1028 -1241 775 -1147 
L 775 -588 
Q 1028 -725 1275 -790 
Q 1522 -856 1778 -856 
Q 2344 -856 2625 -561 
Q 2906 -266 2906 331 
L 2906 616 
Q 2728 306 2450 153 
Q 2172 0 1784 0 
Q 1141 0 747 490 
Q 353 981 353 1791 
Q 353 2603 747 3093 
Q 1141 3584 1784 3584 
Q 2172 3584 2450 3431 
Q 2728 3278 2906 2969 
L 2906 3500 
L 3481 3500 
L 3481 434 
z
" transform="scale(0.015625)"/>
      <path id="DejaVuSans-5f" d="M 3263 -1063 
L 3263 -1509 
L -63 -1509 
L -63 -1063 
L 3263 -1063 
z
" transform="scale(0.015625)"/>
      <path id="DejaVuSans-66" d="M 2375 4863 
L 2375 4384 
L 1825 4384 
Q 1516 4384 1395 4259 
Q 1275 4134 1275 3809 
L 1275 3500 
L 2222 3500 
L 2222 3053 
L 1275 3053 
L 1275 0 
L 697 0 
L 697 3053 
L 147 3053 
L 147 3500 
L 697 3500 
L 697 3744 
Q 697 4328 969 4595 
Q 1241 4863 1831 4863 
L 2375 4863 
z
" transform="scale(0.015625)"/>
      <path id="DejaVuSans-73" d="M 2834 3397 
L 2834 2853 
Q 2591 2978 2328 3040 
Q 2066 3103 1784 3103 
Q 1356 3103 1142 2972 
Q 928 2841 928 2578 
Q 928 2378 1081 2264 
Q 1234 2150 1697 2047 
L 1894 2003 
Q 2506 1872 2764 1633 
Q 3022 1394 3022 966 
Q 3022 478 2636 193 
Q 2250 -91 1575 -91 
Q 1294 -91 989 -36 
Q 684 19 347 128 
L 347 722 
Q 666 556 975 473 
Q 1284 391 1588 391 
Q 1994 391 2212 530 
Q 2431 669 2431 922 
Q 2431 1156 2273 1281 
Q 2116 1406 1581 1522 
L 1381 1569 
Q 847 1681 609 1914 
Q 372 2147 372 2553 
Q 372 3047 722 3315 
Q 1072 3584 1716 3584 
Q 2034 3584 2315 3537 
Q 2597 3491 2834 3397 
z
" transform="scale(0.015625)"/>
      <path id="DejaVuSans-65" d="M 3597 1894 
L 3597 1613 
L 953 1613 
Q 991 1019 1311 708 
Q 1631 397 2203 397 
Q 2534 397 2845 478 
Q 3156 559 3463 722 
L 3463 178 
Q 3153 47 2828 -22 
Q 2503 -91 2169 -91 
Q 1331 -91 842 396 
Q 353 884 353 1716 
Q 353 2575 817 3079 
Q 1281 3584 2069 3584 
Q 2775 3584 3186 3129 
Q 3597 2675 3597 1894 
z
M 3022 2063 
Q 3016 2534 2758 2815 
Q 2500 3097 2075 3097 
Q 1594 3097 1305 2825 
Q 1016 2553 972 2059 
L 3022 2063 
z
" transform="scale(0.015625)"/>
      <path id="DejaVuSans-74" d="M 1172 4494 
L 1172 3500 
L 2356 3500 
L 2356 3053 
L 1172 3053 
L 1172 1153 
Q 1172 725 1289 603 
Q 1406 481 1766 481 
L 2356 481 
L 2356 0 
L 1766 0 
Q 1100 0 847 248 
Q 594 497 594 1153 
L 594 3053 
L 172 3053 
L 172 3500 
L 594 3500 
L 594 4494 
L 1172 4494 
z
" transform="scale(0.015625)"/>
      <path id="DejaVuSans-5b" d="M 550 4863 
L 1875 4863 
L 1875 4416 
L 1125 4416 
L 1125 -397 
L 1875 -397 
L 1875 -844 
L 550 -844 
L 550 4863 
z
" transform="scale(0.015625)"/>
      <path id="DejaVuSans-69" d="M 603 3500 
L 1178 3500 
L 1178 0 
L 603 0 
L 603 3500 
z
M 603 4863 
L 1178 4863 
L 1178 4134 
L 603 4134 
L 603 4863 
z
" transform="scale(0.015625)"/>
      <path id="DejaVuSans-5d" d="M 1947 4863 
L 1947 -844 
L 622 -844 
L 622 -397 
L 1369 -397 
L 1369 4416 
L 622 4416 
L 622 4863 
L 1947 4863 
z
" transform="scale(0.015625)"/>
      <path id="DejaVuSans-3d" d="M 678 2906 
L 4684 2906 
L 4684 2381 
L 678 2381 
L 678 2906 
z
M 678 1631 
L 4684 1631 
L 4684 1100 
L 678 1100 
L 678 1631 
z
" transform="scale(0.015625)"/>
     </defs>
     <use xlink:href="#DejaVuSans-61"/>
     <use xlink:href="#DejaVuSans-6e" x="61.279297"/>
     <use xlink:href="#DejaVuSans-61" x="124.658203"/>
     <use xlink:href="#DejaVuSans-6c" x="185.9375"/>
     <use xlink:href="#DejaVuSans-6f" x="213.720703"/>
     <use xlink:href="#DejaVuSans-67" x="274.902344"/>
     <use xlink:href="#DejaVuSans-5f" x="338.378906"/>
     <use xlink:href="#DejaVuSans-6f" x="388.378906"/>
     <use xlink:href="#DejaVuSans-66" x="449.560547"/>
     <use xlink:href="#DejaVuSans-66" x="484.765625"/>
     <use xlink:href="#DejaVuSans-73" x="519.970703"/>
     <use xlink:href="#DejaVuSans-65" x="572.070312"/>
     <use xlink:href="#DejaVuSans-74" x="633.59375"/>
     <use xlink:href="#DejaVuSans-5b" x="672.802734"/>
     <use xlink:href="#DejaVuSans-69" x="711.816406"/>
     <use xlink:href="#DejaVuSans-5d" x="739.599609"/>
     <use xlink:href="#DejaVuSans-20" x="778.613281"/>
     <use xlink:href="#DejaVuSans-3d" x="810.400391"/>
     <use xlink:href="#DejaVuSans-20" x="894.189453"/>
     <use xlink:href="#DejaVuSans-30" x="925.976562"/>
     <use xlink:href="#DejaVuSans-2e" x="989.599609"/>
     <use xlink:href="#DejaVuSans-30" x="1021.386719"/>
    </g>
   </g>
   <g id="line2d_12">
    <path d="M 34.510762 45.838787 
L 42.397517 45.573074 
L 44.150599 45.228627 
L 49.410444 43.830975 
L 50.286713 43.824348 
L 51.162727 43.972279 
L 51.963474 44.476411 
L 52.434965 45.381446 
L 52.692407 46.264014 
L 53.115543 51.341149 
L 53.687574 58.719902 
L 53.884953 61.657789 
L 54.313077 65.876248 
L 54.548329 68.141262 
L 55.182347 72.970736 
L 55.588967 75.127041 
L 81.116006 75.127041 
L 81.515818 74.59735 
L 83.096421 70.724032 
L 84.102781 67.731771 
L 84.482623 66.845684 
L 87.335892 57.958583 
L 90.179072 51.245679 
L 90.650234 50.333602 
L 91.063527 49.289789 
L 92.73602 46.282406 
L 94.995305 43.527077 
L 95.853833 42.775074 
L 97.559315 41.566793 
L 98.485227 41.182024 
L 99.361738 41.0282 
L 100.237988 41.032613 
L 101.114008 41.176864 
L 102.840444 41.897277 
L 104.474428 42.995931 
L 105.893706 44.135396 
L 107.660786 45.809836 
L 110.596004 48.211805 
L 111.284123 48.639633 
L 112.173969 48.924572 
L 113.926124 49.143615 
L 115.678782 49.056763 
L 118.30846 48.506974 
L 122.691625 47.366181 
L 124.538222 47.054731 
L 126.5161 46.876273 
L 127.392857 46.849408 
L 138.704052 46.872983 
L 138.704052 46.872983 
" clip-path="url(#pf47ba995ab)" style="fill: none; stroke: #376eb5; stroke-width: 1.5; stroke-linecap: square"/>
   </g>
   <g id="line2d_13">
    <path d="M 34.510762 45.838787 
L 138.765229 45.838787 
" clip-path="url(#pf47ba995ab)" style="fill: none; stroke-dasharray: 2.96,1.28; stroke-dashoffset: 0; stroke: #ed7800; stroke-width: 0.8"/>
   </g>
  </g>
  <g id="axes_2">
   <g id="patch_5">
    <path d="M 178.275991 78.055866 
L 282.530459 78.055866 
L 282.530459 13.621708 
L 178.275991 13.621708 
L 178.275991 78.055866 
z
" style="fill: none"/>
   </g>
   <g id="matplotlib.axis_3"/>
   <g id="matplotlib.axis_4">
    <g id="ytick_12">
     <g id="line2d_14">
      <g>
       <use xlink:href="#m6439bc84f0" x="178.275991" y="75.127041" style="fill: #afafaf; stroke: #afafaf; stroke-width: 0.8"/>
      </g>
     </g>
     <g id="text_5">
      <!-- $-0.5$ V -->
      <g style="fill: #afafaf" transform="translate(148.895991 77.786494) scale(0.07 -0.07)">
       <use xlink:href="#DejaVuSans-2212" transform="translate(0 0.78125)"/>
       <use xlink:href="#DejaVuSans-30" transform="translate(83.789062 0.78125)"/>
       <use xlink:href="#DejaVuSans-2e" transform="translate(147.412109 0.78125)"/>
       <use xlink:href="#DejaVuSans-35" transform="translate(179.199219 0.78125)"/>
       <use xlink:href="#DejaVuSans-20" transform="translate(242.822266 0.78125)"/>
       <use xlink:href="#DejaVuSans-56" transform="translate(274.609375 0.78125)"/>
      </g>
     </g>
    </g>
    <g id="ytick_13">
     <g id="line2d_15">
      <g>
       <use xlink:href="#m6439bc84f0" x="178.275991" y="45.838787" style="fill: #afafaf; stroke: #afafaf; stroke-width: 0.8"/>
      </g>
     </g>
     <g id="text_6">
      <!-- $0.0$ V -->
      <g style="fill: #afafaf" transform="translate(154.775991 48.49824) scale(0.07 -0.07)">
       <use xlink:href="#DejaVuSans-30" transform="translate(0 0.78125)"/>
       <use xlink:href="#DejaVuSans-2e" transform="translate(63.623047 0.78125)"/>
       <use xlink:href="#DejaVuSans-30" transform="translate(95.410156 0.78125)"/>
       <use xlink:href="#DejaVuSans-20" transform="translate(159.033203 0.78125)"/>
       <use xlink:href="#DejaVuSans-56" transform="translate(190.820312 0.78125)"/>
      </g>
     </g>
    </g>
    <g id="ytick_14">
     <g id="line2d_16">
      <g>
       <use xlink:href="#m6439bc84f0" x="178.275991" y="16.550533" style="fill: #afafaf; stroke: #afafaf; stroke-width: 0.8"/>
      </g>
     </g>
     <g id="text_7">
      <!-- $0.5$ V -->
      <g style="fill: #afafaf" transform="translate(154.775991 19.209986) scale(0.07 -0.07)">
       <use xlink:href="#DejaVuSans-30" transform="translate(0 0.78125)"/>
       <use xlink:href="#DejaVuSans-2e" transform="translate(63.623047 0.78125)"/>
       <use xlink:href="#DejaVuSans-35" transform="translate(95.410156 0.78125)"/>
       <use xlink:href="#DejaVuSans-20" transform="translate(159.033203 0.78125)"/>
       <use xlink:href="#DejaVuSans-56" transform="translate(190.820312 0.78125)"/>
      </g>
     </g>
    </g>
    <g id="ytick_15">
     <g id="line2d_17">
      <g>
       <use xlink:href="#mcdfea4dd64" x="178.275991" y="69.26939" style="fill: #afafaf; stroke: #afafaf; stroke-width: 0.4"/>
      </g>
     </g>
    </g>
    <g id="ytick_16">
     <g id="line2d_18">
      <g>
       <use xlink:href="#mcdfea4dd64" x="178.275991" y="63.411739" style="fill: #afafaf; stroke: #afafaf; stroke-width: 0.4"/>
      </g>
     </g>
    </g>
    <g id="ytick_17">
     <g id="line2d_19">
      <g>
       <use xlink:href="#mcdfea4dd64" x="178.275991" y="57.554088" style="fill: #afafaf; stroke: #afafaf; stroke-width: 0.4"/>
      </g>
     </g>
    </g>
    <g id="ytick_18">
     <g id="line2d_20">
      <g>
       <use xlink:href="#mcdfea4dd64" x="178.275991" y="51.696438" style="fill: #afafaf; stroke: #afafaf; stroke-width: 0.4"/>
      </g>
     </g>
    </g>
    <g id="ytick_19">
     <g id="line2d_21">
      <g>
       <use xlink:href="#mcdfea4dd64" x="178.275991" y="39.981136" style="fill: #afafaf; stroke: #afafaf; stroke-width: 0.4"/>
      </g>
     </g>
    </g>
    <g id="ytick_20">
     <g id="line2d_22">
      <g>
       <use xlink:href="#mcdfea4dd64" x="178.275991" y="34.123485" style="fill: #afafaf; stroke: #afafaf; stroke-width: 0.4"/>
      </g>
     </g>
    </g>
    <g id="ytick_21">
     <g id="line2d_23">
      <g>
       <use xlink:href="#mcdfea4dd64" x="178.275991" y="28.265835" style="fill: #afafaf; stroke: #afafaf; stroke-width: 0.4"/>
      </g>
     </g>
    </g>
    <g id="ytick_22">
     <g id="line2d_24">
      <g>
       <use xlink:href="#mcdfea4dd64" x="178.275991" y="22.408184" style="fill: #afafaf; stroke: #afafaf; stroke-width: 0.4"/>
      </g>
     </g>
    </g>
   </g>
   <g id="patch_6">
    <path d="M 178.275991 78.055866 
L 178.275991 13.621708 
" style="fill: none; stroke: #afafaf; stroke-width: 0.8; stroke-linejoin: miter; stroke-linecap: square"/>
   </g>
   <g id="patch_7">
    <path d="M 178.275991 45.838787 
L 282.530459 45.838787 
" style="fill: none; stroke: #afafaf; stroke-width: 0.8; stroke-linejoin: miter; stroke-linecap: square"/>
   </g>
   <g id="text_8">
    <!-- 0.37 V -->
    <g style="fill: #afafaf" transform="translate(250.095736 38.983873) scale(0.07 -0.07)">
     <defs>
      <path id="DejaVuSans-33" d="M 2597 2516 
Q 3050 2419 3304 2112 
Q 3559 1806 3559 1356 
Q 3559 666 3084 287 
Q 2609 -91 1734 -91 
Q 1441 -91 1130 -33 
Q 819 25 488 141 
L 488 750 
Q 750 597 1062 519 
Q 1375 441 1716 441 
Q 2309 441 2620 675 
Q 2931 909 2931 1356 
Q 2931 1769 2642 2001 
Q 2353 2234 1838 2234 
L 1294 2234 
L 1294 2753 
L 1863 2753 
Q 2328 2753 2575 2939 
Q 2822 3125 2822 3475 
Q 2822 3834 2567 4026 
Q 2313 4219 1838 4219 
Q 1578 4219 1281 4162 
Q 984 4106 628 3988 
L 628 4550 
Q 988 4650 1302 4700 
Q 1616 4750 1894 4750 
Q 2613 4750 3031 4423 
Q 3450 4097 3450 3541 
Q 3450 3153 3228 2886 
Q 3006 2619 2597 2516 
z
" transform="scale(0.015625)"/>
      <path id="DejaVuSans-37" d="M 525 4666 
L 3525 4666 
L 3525 4397 
L 1831 0 
L 1172 0 
L 2766 4134 
L 525 4134 
L 525 4666 
z
" transform="scale(0.015625)"/>
     </defs>
     <use xlink:href="#DejaVuSans-30"/>
     <use xlink:href="#DejaVuSans-2e" x="63.623047"/>
     <use xlink:href="#DejaVuSans-33" x="95.410156"/>
     <use xlink:href="#DejaVuSans-37" x="159.033203"/>
     <use xlink:href="#DejaVuSans-20" x="222.65625"/>
     <use xlink:href="#DejaVuSans-56" x="254.443359"/>
    </g>
   </g>
   <g id="text_9">
    <!-- analog_offset[i] = 0.37 -->
    <g style="fill: #afafaf" transform="translate(190.200803 10.4) scale(0.07 -0.07)">
     <use xlink:href="#DejaVuSans-61"/>
     <use xlink:href="#DejaVuSans-6e" x="61.279297"/>
     <use xlink:href="#DejaVuSans-61" x="124.658203"/>
     <use xlink:href="#DejaVuSans-6c" x="185.9375"/>
     <use xlink:href="#DejaVuSans-6f" x="213.720703"/>
     <use xlink:href="#DejaVuSans-67" x="274.902344"/>
     <use xlink:href="#DejaVuSans-5f" x="338.378906"/>
     <use xlink:href="#DejaVuSans-6f" x="388.378906"/>
     <use xlink:href="#DejaVuSans-66" x="449.560547"/>
     <use xlink:href="#DejaVuSans-66" x="484.765625"/>
     <use xlink:href="#DejaVuSans-73" x="519.970703"/>
     <use xlink:href="#DejaVuSans-65" x="572.070312"/>
     <use xlink:href="#DejaVuSans-74" x="633.59375"/>
     <use xlink:href="#DejaVuSans-5b" x="672.802734"/>
     <use xlink:href="#DejaVuSans-69" x="711.816406"/>
     <use xlink:href="#DejaVuSans-5d" x="739.599609"/>
     <use xlink:href="#DejaVuSans-20" x="778.613281"/>
     <use xlink:href="#DejaVuSans-3d" x="810.400391"/>
     <use xlink:href="#DejaVuSans-20" x="894.189453"/>
     <use xlink:href="#DejaVuSans-30" x="925.976562"/>
     <use xlink:href="#DejaVuSans-2e" x="989.599609"/>
     <use xlink:href="#DejaVuSans-33" x="1021.386719"/>
     <use xlink:href="#DejaVuSans-37" x="1085.009766"/>
    </g>
   </g>
   <g id="patch_8">
    <path d="M 247.77897 25.523917 
Q 247.77897 35.122335 247.77897 44.720753 
" style="fill: none; stroke: #afafaf; stroke-linecap: round"/>
    <path d="M 246.37897 28.323917 
L 247.77897 25.523917 
L 249.17897 28.323917 
" style="fill: none; stroke: #afafaf; stroke-linecap: round"/>
    <path d="M 249.17897 41.920753 
L 247.77897 44.720753 
L 246.37897 41.920753 
" style="fill: none; stroke: #afafaf; stroke-linecap: round"/>
   </g>
   <g id="line2d_25">
    <path d="M 178.275991 24.405883 
L 186.162746 24.14017 
L 187.915828 23.795724 
L 193.175674 22.398071 
L 194.051942 22.391445 
L 194.927956 22.539376 
L 195.728703 23.043507 
L 196.200194 23.948542 
L 196.457636 24.831111 
L 196.880773 29.908245 
L 197.452803 37.286998 
L 197.650182 40.224886 
L 198.078306 44.443344 
L 198.313559 46.708358 
L 198.947576 51.537833 
L 199.96953 56.969693 
L 200.455369 59.096821 
L 202.114792 64.067824 
L 202.923602 65.831945 
L 203.592844 66.780396 
L 204.823484 68.729791 
L 206.339172 70.405112 
L 207.125073 71.075081 
L 207.720539 71.425356 
L 208.541858 71.731909 
L 210.300432 72.084201 
L 211.176676 72.092295 
L 212.966568 71.72127 
L 213.831753 71.394555 
L 214.683733 70.860612 
L 216.403104 69.217855 
L 217.861972 67.271545 
L 219.074147 65.314416 
L 221.202735 61.531382 
L 222.141176 59.650547 
L 222.656204 58.845544 
L 224.881235 54.084341 
L 226.86165 49.291128 
L 227.868011 46.298867 
L 228.247853 45.41278 
L 231.101121 36.525679 
L 233.944302 29.812775 
L 234.415463 28.900698 
L 234.828756 27.856886 
L 236.501249 24.849502 
L 238.760534 22.094174 
L 239.619062 21.34217 
L 241.324544 20.133889 
L 242.250456 19.74912 
L 243.126967 19.595296 
L 244.003217 19.59971 
L 244.879238 19.743961 
L 246.605674 20.464373 
L 248.239657 21.563028 
L 249.658935 22.702493 
L 251.426015 24.376932 
L 254.361234 26.778902 
L 255.049352 27.206729 
L 255.939199 27.491669 
L 257.691354 27.710711 
L 259.444012 27.62386 
L 262.073689 27.074071 
L 266.456854 25.933278 
L 268.303451 25.621827 
L 270.281329 25.44337 
L 271.158087 25.416504 
L 282.469281 25.44008 
L 282.469281 25.44008 
" clip-path="url(#pfc5e9910ab)" style="fill: none; stroke: #376eb5; stroke-width: 1.5; stroke-linecap: square"/>
   </g>
   <g id="line2d_26">
    <path d="M 178.275991 24.405883 
L 282.530459 24.405883 
" clip-path="url(#pfc5e9910ab)" style="fill: none; stroke-dasharray: 2.96,1.28; stroke-dashoffset: 0; stroke: #ed7800; stroke-width: 0.8"/>
   </g>
  </g>
 </g>
 <defs>
  <clipPath id="pf47ba995ab">
   <rect x="34.510762" y="13.621708" width="104.254468" height="64.434158"/>
  </clipPath>
  <clipPath id="pfc5e9910ab">
   <rect x="178.275991" y="13.621708" width="104.254468" height="64.434158"/>
  </clipPath>
 </defs>
</svg>
