<?xml version="1.0" encoding="UTF-8" standalone="no"?>
<!-- Created with Inkscape (http://www.inkscape.org/) -->

<svg
   width="678.19135"
   height="184.27455"
   id="svg2"
   version="1.1"
   inkscape:version="1.3 (0e150ed6c4, 2023-07-21)"
   sodipodi:docname="AnalogOffset_Sine.svg"
   inkscape:export-filename="AnalogOffset_Sine.pdf"
   inkscape:export-xdpi="96"
   inkscape:export-ydpi="96"
   xmlns:inkscape="http://www.inkscape.org/namespaces/inkscape"
   xmlns:sodipodi="http://sodipodi.sourceforge.net/DTD/sodipodi-0.dtd"
   xmlns="http://www.w3.org/2000/svg"
   xmlns:svg="http://www.w3.org/2000/svg"
   xmlns:rdf="http://www.w3.org/1999/02/22-rdf-syntax-ns#"
   xmlns:cc="http://creativecommons.org/ns#"
   xmlns:dc="http://purl.org/dc/elements/1.1/">
  <defs
     id="defs4">
    <filter
       id="filter3091"
       inkscape:label="Drop Shadow"
       color-interpolation-filters="sRGB"
       x="-0.0067526714"
       y="-0.026155783"
       width="1.0185963"
       height="1.072031">
      <feFlood
         id="feFlood3093"
         flood-opacity="0.5"
         flood-color="rgb(0,0,0)"
         result="flood" />
      <feComposite
         id="feComposite3095"
         in2="SourceGraphic"
         in="flood"
         operator="in"
         result="composite1" />
      <feGaussianBlur
         id="feGaussianBlur3097"
         stdDeviation="2"
         result="blur" />
      <feOffset
         id="feOffset3099"
         dx="4"
         dy="4"
         result="offset" />
      <feComposite
         id="feComposite3101"
         in2="offset"
         in="SourceGraphic"
         operator="over"
         result="composite2" />
    </filter>
  </defs>
  <sodipodi:namedview
     id="base"
     pagecolor="#ffffff"
     bordercolor="#666666"
     borderopacity="1.0"
     inkscape:pageopacity="0.0"
     inkscape:pageshadow="2"
     inkscape:zoom="1.979899"
     inkscape:cx="506.33896"
     inkscape:cy="90.156114"
     inkscape:document-units="px"
     inkscape:current-layer="layer1"
     showgrid="false"
     fit-margin-top="0"
     fit-margin-left="0"
     fit-margin-right="0"
     fit-margin-bottom="0"
     inkscape:window-width="3440"
     inkscape:window-height="1369"
     inkscape:window-x="-8"
     inkscape:window-y="-8"
     inkscape:window-maximized="1"
     inkscape:showpageshadow="2"
     inkscape:pagecheckerboard="0"
     inkscape:deskcolor="#d1d1d1"
     inkscape:export-bgcolor="#ffffffff" />
  <metadata
     id="metadata7">
    <rdf:RDF>
      <cc:Work
         rdf:about="">
        <dc:format>image/svg+xml</dc:format>
        <dc:type
           rdf:resource="http://purl.org/dc/dcmitype/StillImage" />
        <dc:title />
      </cc:Work>
    </rdf:RDF>
  </metadata>
  <g
     inkscape:label="Ebene 1"
     inkscape:groupmode="layer"
     id="layer1"
     transform="translate(40.148184,-579.31165)">
    <path
       inkscape:connector-curvature="0"
       style="fill:none;stroke:#000000;stroke-width:1.72299px;stroke-linecap:round;stroke-linejoin:round;stroke-dasharray:none;stroke-opacity:1"
       d="M 21.782235,748.13258 V 595.84692"
       id="path2991" />
    <path
       inkscape:connector-curvature="0"
       style="fill:#000000;fill-opacity:1;fill-rule:evenodd;stroke:none"
       d="m 21.782235,587.8284 5.235234,10.53674 c -3.313439,-1.65672 -7.223297,-1.65672 -10.536736,0 v 0 z"
       id="path2993" />
    <path
       inkscape:connector-curvature="0"
       style="fill:none;stroke:#000000;stroke-width:1.72299px;stroke-linecap:round;stroke-linejoin:round;stroke-dasharray:none;stroke-opacity:1"
       d="M -18.310377,668.01362 H 274.26629"
       id="path2995" />
    <path
       inkscape:connector-curvature="0"
       style="fill:#000000;fill-opacity:1;fill-rule:evenodd;stroke:none"
       d="m 282.28481,668.01362 -10.53674,5.23524 c 1.65673,-3.31344 1.65673,-7.15703 0,-10.47047 z"
       id="path2997" />
    <path
       inkscape:connector-curvature="0"
       style="fill:none;stroke:#000000;stroke-width:0.994032px;stroke-linecap:round;stroke-linejoin:round;stroke-dasharray:none;stroke-opacity:1"
       d="m 17.739839,656.01898 h 8.018523"
       id="path2999" />
    <path
       inkscape:connector-curvature="0"
       style="fill:none;stroke:#000000;stroke-width:0.994032px;stroke-linecap:round;stroke-linejoin:round;stroke-dasharray:none;stroke-opacity:1"
       d="m 17.739839,643.95806 h 8.018523"
       id="path3001" />
    <path
       inkscape:connector-curvature="0"
       style="fill:none;stroke:#000000;stroke-width:0.994032px;stroke-linecap:round;stroke-linejoin:round;stroke-dasharray:none;stroke-opacity:1"
       d="m 17.739839,631.96341 h 8.018523"
       id="path3003" />
    <path
       inkscape:connector-curvature="0"
       style="fill:none;stroke:#000000;stroke-width:0.994032px;stroke-linecap:round;stroke-linejoin:round;stroke-dasharray:none;stroke-opacity:1"
       d="m 17.739839,619.90249 h 8.018523"
       id="path3005" />
    <path
       inkscape:connector-curvature="0"
       style="fill:none;stroke:#000000;stroke-width:0.994032px;stroke-linecap:round;stroke-linejoin:round;stroke-dasharray:none;stroke-opacity:1"
       d="m 17.739839,607.90784 h 8.018523"
       id="path3007" />
    <text
       xml:space="preserve"
       x="-25.320534"
       y="611.68518"
       style="font-style:normal;font-weight:normal;font-size:13.7839px;line-height:0%;font-family:Arial;text-align:start;text-anchor:start;fill:#000000"
       id="text3009">+0.5</text>
    <text
       xml:space="preserve"
       x="4.6186223"
       y="611.68518"
       style="font-style:normal;font-weight:normal;font-size:13.7839px;line-height:0%;font-family:Arial;text-align:start;text-anchor:start;fill:#000000"
       id="text3011">V</text>
    <text
       xml:space="preserve"
       x="39.608536"
       y="742.10211"
       style="font-style:normal;font-weight:normal;font-size:13.7839px;line-height:0%;font-family:Arial;text-align:start;text-anchor:start;fill:#000000"
       id="text3013">analog</text>
    <text
       xml:space="preserve"
       x="82.020554"
       y="742.10211"
       style="font-style:normal;font-weight:normal;font-size:13.7839px;line-height:0%;font-family:Arial;text-align:start;text-anchor:start;fill:#000000"
       id="text3015">_</text>
    <text
       xml:space="preserve"
       x="89.442665"
       y="742.10211"
       style="font-style:normal;font-weight:normal;font-size:13.7839px;line-height:0%;font-family:Arial;text-align:start;text-anchor:start;fill:#000000"
       id="text3017">offset</text>
    <text
       xml:space="preserve"
       x="124.43257"
       y="742.10211"
       style="font-style:normal;font-weight:normal;font-size:13.7839px;line-height:0%;font-family:Arial;text-align:start;text-anchor:start;fill:#000000"
       id="text3019">[</text>
    <text
       xml:space="preserve"
       x="127.61347"
       y="742.10211"
       style="font-style:normal;font-weight:normal;font-size:13.7839px;line-height:0%;font-family:Arial;text-align:start;text-anchor:start;fill:#000000"
       id="text3021">i</text>
    <text
       xml:space="preserve"
       x="130.79439"
       y="742.10211"
       style="font-style:normal;font-weight:normal;font-size:13.7839px;line-height:0%;font-family:Arial;text-align:start;text-anchor:start;fill:#000000"
       id="text3023">] = </text>
    <text
       xml:space="preserve"
       x="150.94008"
       y="742.10211"
       style="font-style:normal;font-weight:normal;font-size:13.7839px;line-height:0%;font-family:Arial;text-align:start;text-anchor:start;fill:#000000"
       id="text3025">0</text>
    <text
       xml:space="preserve"
       x="159.42249"
       y="742.10211"
       style="font-style:normal;font-weight:normal;font-size:13.7839px;line-height:0%;font-family:Arial;text-align:start;text-anchor:start;fill:#000000"
       id="text3027">V</text>
    <path
       inkscape:connector-curvature="0"
       style="fill:none;stroke:#000000;stroke-width:0.994032px;stroke-linecap:round;stroke-linejoin:round;stroke-dasharray:none;stroke-opacity:1"
       d="m 17.739839,728.11941 h 8.018523"
       id="path3029" />
    <path
       inkscape:connector-curvature="0"
       style="fill:none;stroke:#000000;stroke-width:0.994032px;stroke-linecap:round;stroke-linejoin:round;stroke-dasharray:none;stroke-opacity:1"
       d="m 17.739839,716.12476 h 8.018523"
       id="path3031" />
    <path
       inkscape:connector-curvature="0"
       style="fill:none;stroke:#000000;stroke-width:0.994032px;stroke-linecap:round;stroke-linejoin:round;stroke-dasharray:none;stroke-opacity:1"
       d="m 17.739839,704.06384 h 8.018523"
       id="path3033" />
    <path
       inkscape:connector-curvature="0"
       style="fill:none;stroke:#000000;stroke-width:0.994032px;stroke-linecap:round;stroke-linejoin:round;stroke-dasharray:none;stroke-opacity:1"
       d="m 17.739839,692.06919 h 8.018523"
       id="path3035" />
    <path
       inkscape:connector-curvature="0"
       style="fill:none;stroke:#000000;stroke-width:0.994032px;stroke-linecap:round;stroke-linejoin:round;stroke-dasharray:none;stroke-opacity:1"
       d="m 17.739839,680.00827 h 8.018523"
       id="path3037" />
    <text
       xml:space="preserve"
       x="-29.310995"
       y="732.55939"
       style="font-style:normal;font-weight:normal;font-size:13.7839px;line-height:0%;font-family:Arial;text-align:start;text-anchor:start;fill:#000000"
       id="text3039">-</text>
    <text
       xml:space="preserve"
       x="-18.009493"
       y="732.55939"
       style="font-style:normal;font-weight:normal;font-size:13.7839px;line-height:0%;font-family:Arial;text-align:start;text-anchor:start;fill:#000000"
       id="text3041">0.5</text>
    <text
       xml:space="preserve"
       x="3.5583205"
       y="732.55939"
       style="font-style:normal;font-weight:normal;font-size:13.7839px;line-height:0%;font-family:Arial;text-align:start;text-anchor:start;fill:#000000"
       id="text3043">V</text>
    <path
       inkscape:connector-curvature="0"
       style="fill:none;stroke:#000000;stroke-width:1.72299px;stroke-linecap:round;stroke-linejoin:round;stroke-dasharray:none;stroke-opacity:1"
       d="M 362.40377,748.13258 V 595.84692"
       id="path3045" />
    <path
       inkscape:connector-curvature="0"
       style="fill:#000000;fill-opacity:1;fill-rule:evenodd;stroke:none"
       d="m 362.40377,587.8284 5.23523,10.53674 c -3.31344,-1.65672 -7.15703,-1.65672 -10.47046,0 v 0 z"
       id="path3047" />
    <path
       inkscape:connector-curvature="0"
       style="fill:none;stroke:#000000;stroke-width:1.72299px;stroke-linecap:round;stroke-linejoin:round;stroke-dasharray:none;stroke-opacity:1"
       d="M 322.31116,668.01362 H 614.95409"
       id="path3049" />
    <path
       inkscape:connector-curvature="0"
       style="fill:#000000;fill-opacity:1;fill-rule:evenodd;stroke:none"
       d="m 622.90635,668.01362 -10.53675,5.23524 c 1.65673,-3.31344 1.65673,-7.15703 0,-10.47047 v 0 z"
       id="path3051" />
    <path
       inkscape:connector-curvature="0"
       style="fill:none;stroke:#000000;stroke-width:0.994032px;stroke-linecap:round;stroke-linejoin:round;stroke-dasharray:none;stroke-opacity:1"
       d="m 358.42764,656.01898 h 7.95225"
       id="path3053" />
    <path
       inkscape:connector-curvature="0"
       style="fill:none;stroke:#000000;stroke-width:0.994032px;stroke-linecap:round;stroke-linejoin:round;stroke-dasharray:none;stroke-opacity:1"
       d="m 358.42764,643.95806 h 7.95225"
       id="path3055" />
    <path
       inkscape:connector-curvature="0"
       style="fill:none;stroke:#000000;stroke-width:0.994032px;stroke-linecap:round;stroke-linejoin:round;stroke-dasharray:none;stroke-opacity:1"
       d="m 358.42764,631.96341 h 7.95225"
       id="path3057" />
    <path
       inkscape:connector-curvature="0"
       style="fill:none;stroke:#000000;stroke-width:0.994032px;stroke-linecap:round;stroke-linejoin:round;stroke-dasharray:none;stroke-opacity:1"
       d="m 358.42764,619.90249 h 7.95225"
       id="path3059" />
    <path
       inkscape:connector-curvature="0"
       style="fill:none;stroke:#000000;stroke-width:0.994032px;stroke-linecap:round;stroke-linejoin:round;stroke-dasharray:none;stroke-opacity:1"
       d="m 358.42764,607.90784 h 7.95225"
       id="path3061" />
    <text
       xml:space="preserve"
       x="313.98517"
       y="611.68518"
       style="font-style:normal;font-weight:normal;font-size:13.7839px;line-height:0%;font-family:Arial;text-align:start;text-anchor:start;fill:#000000"
       id="text3063">+0.5</text>
    <text
       xml:space="preserve"
       x="344.9751"
       y="611.68518"
       style="font-style:normal;font-weight:normal;font-size:13.7839px;line-height:0%;font-family:Arial;text-align:start;text-anchor:start;fill:#000000"
       id="text3065">V</text>
    <text
       xml:space="preserve"
       x="373.60318"
       y="742.10211"
       style="font-style:normal;font-weight:normal;font-size:13.7839px;line-height:0%;font-family:Arial;text-align:start;text-anchor:start;fill:#000000"
       id="text3067">analog</text>
    <text
       xml:space="preserve"
       x="416.01523"
       y="742.10211"
       style="font-style:normal;font-weight:normal;font-size:13.7839px;line-height:0%;font-family:Arial;text-align:start;text-anchor:start;fill:#000000"
       id="text3069">_</text>
    <text
       xml:space="preserve"
       x="424.49762"
       y="742.10211"
       style="font-style:normal;font-weight:normal;font-size:13.7839px;line-height:0%;font-family:Arial;text-align:start;text-anchor:start;fill:#000000"
       id="text3071">offset</text>
    <text
       xml:space="preserve"
       x="458.42722"
       y="742.10211"
       style="font-style:normal;font-weight:normal;font-size:13.7839px;line-height:0%;font-family:Arial;text-align:start;text-anchor:start;fill:#000000"
       id="text3073">[</text>
    <text
       xml:space="preserve"
       x="462.66843"
       y="742.10211"
       style="font-style:normal;font-weight:normal;font-size:13.7839px;line-height:0%;font-family:Arial;text-align:start;text-anchor:start;fill:#000000"
       id="text3075">i</text>
    <text
       xml:space="preserve"
       x="465.8493"
       y="742.10211"
       style="font-style:normal;font-weight:normal;font-size:13.7839px;line-height:0%;font-family:Arial;text-align:start;text-anchor:start;fill:#000000"
       id="text3077">] = </text>
    <text
       xml:space="preserve"
       x="506.14075"
       y="742.10211"
       style="font-style:normal;font-weight:normal;font-size:13.7839px;line-height:0%;font-family:Arial;text-align:start;text-anchor:start;fill:#000000"
       id="text3085">V</text>
    <path
       inkscape:connector-curvature="0"
       style="fill:none;stroke:#000000;stroke-width:0.994032px;stroke-linecap:round;stroke-linejoin:round;stroke-dasharray:none;stroke-opacity:1"
       d="m 358.42764,728.11941 h 7.95225"
       id="path3087" />
    <path
       inkscape:connector-curvature="0"
       style="fill:none;stroke:#000000;stroke-width:0.994032px;stroke-linecap:round;stroke-linejoin:round;stroke-dasharray:none;stroke-opacity:1"
       d="m 358.42764,716.12476 h 7.95225"
       id="path3089" />
    <path
       inkscape:connector-curvature="0"
       style="fill:none;stroke:#000000;stroke-width:0.994032px;stroke-linecap:round;stroke-linejoin:round;stroke-dasharray:none;stroke-opacity:1"
       d="m 358.42764,704.06384 h 7.95225"
       id="path3091" />
    <path
       inkscape:connector-curvature="0"
       style="fill:none;stroke:#000000;stroke-width:0.994032px;stroke-linecap:round;stroke-linejoin:round;stroke-dasharray:none;stroke-opacity:1"
       d="m 358.42764,692.06919 h 7.95225"
       id="path3093" />
    <path
       inkscape:connector-curvature="0"
       style="fill:none;stroke:#000000;stroke-width:0.994032px;stroke-linecap:round;stroke-linejoin:round;stroke-dasharray:none;stroke-opacity:1"
       d="m 358.42764,680.00827 h 7.95225"
       id="path3095" />
    <text
       xml:space="preserve"
       x="311.04547"
       y="732.55939"
       style="font-style:normal;font-weight:normal;font-size:13.7839px;line-height:0%;font-family:Arial;text-align:start;text-anchor:start;fill:#000000"
       id="text3097">-</text>
    <text
       xml:space="preserve"
       x="320.34695"
       y="732.55939"
       style="font-style:normal;font-weight:normal;font-size:13.7839px;line-height:0%;font-family:Arial;text-align:start;text-anchor:start;fill:#000000"
       id="text3099">0.5</text>
    <text
       xml:space="preserve"
       x="486.13687"
       y="742.07593"
       style="font-style:normal;font-weight:normal;font-size:13.7839px;line-height:0%;font-family:Arial;text-align:start;text-anchor:start;fill:#000000"
       id="text3099-0">0.2</text>
    <text
       xml:space="preserve"
       x="343.91476"
       y="732.55939"
       style="font-style:normal;font-weight:normal;font-size:13.7839px;line-height:0%;font-family:Arial;text-align:start;text-anchor:start;fill:#000000"
       id="text3101">V</text>
    <path
       inkscape:connector-curvature="0"
       style="fill:none;stroke:#3366ff;stroke-width:1.72299px;stroke-linecap:round;stroke-linejoin:round;stroke-dasharray:none;stroke-opacity:1"
       d="m 21.782235,668.01362 c 0,-27.70035 7.024491,-50.09919 15.77197,-50.09919 8.68121,0 15.771972,22.39884 15.771972,50.09919 0,0 0,0 0,0 0,27.63408 7.02449,50.09921 15.705701,50.09921 8.747479,0 15.771969,-22.46513 15.771969,-50.09921 0,0 0,0 0,0 0,-27.70035 7.090757,-50.09919 15.771973,-50.09919"
       id="path3103" />
    <path
       inkscape:connector-curvature="0"
       style="fill:none;stroke:#3366ff;stroke-width:1.72299px;stroke-linecap:round;stroke-linejoin:round;stroke-dasharray:none;stroke-opacity:1"
       d="m 179.3694,668.01362 c 0,-27.70035 -7.0245,-50.09919 -15.7057,-50.09919 -8.74748,0 -15.77198,22.39884 -15.77198,50.09919 0,0 0,0 0,0 0,27.63408 -7.09076,50.09921 -15.77197,50.09921 -8.74748,0 -15.77197,-22.46513 -15.77197,-50.09921 0,0 0,0 0,0 0,-27.70035 -7.09075,-50.09919 -15.77196,-50.09919"
       id="path3105" />
    <path
       inkscape:connector-curvature="0"
       style="fill:none;stroke:#3366ff;stroke-width:1.72299px;stroke-linecap:round;stroke-linejoin:round;stroke-dasharray:none;stroke-opacity:1"
       d="m 179.3694,668.01362 c 0,27.63408 7.09076,50.09921 15.77197,50.09921 8.74748,0 15.77197,-22.46513 15.77197,-50.09921 0,0 0,0 0,0 0,-27.70035 7.09075,-50.09919 15.77196,-50.09919 8.68122,0 15.77197,22.39884 15.77197,50.09919 0,0 0,0 0,0 0,27.63408 7.02449,50.09921 15.77197,50.09921"
       id="path3107" />
    <path
       inkscape:connector-curvature="0"
       style="fill:none;stroke:#000000;stroke-width:0.994032px;stroke-linecap:round;stroke-linejoin:round;stroke-dasharray:none;stroke-opacity:1"
       d="M 350.40912,661.0554 V 650.91628"
       id="path3109" />
    <path
       inkscape:connector-curvature="0"
       style="fill:#000000;fill-opacity:1;fill-rule:evenodd;stroke:none"
       d="m 350.40912,668.01362 -4.63882,-9.14509 c 2.91583,1.39165 6.29554,1.39165 9.21136,0 z"
       id="path3111" />
    <path
       inkscape:connector-curvature="0"
       style="fill:#000000;fill-opacity:1;fill-rule:evenodd;stroke:none"
       d="m 350.40912,643.95806 4.57254,9.14509 c -2.91582,-1.39164 -6.29553,-1.39164 -9.21136,0 v 0 z"
       id="path3113" />
    <text
       xml:space="preserve"
       x="314.01028"
       y="660.45898"
       style="font-style:normal;font-weight:normal;font-size:13.7839px;line-height:0%;font-family:Arial;text-align:start;text-anchor:start;fill:#000000"
       id="text3119">0.2</text>
    <text
       xml:space="preserve"
       x="335.43237"
       y="660.45898"
       style="font-style:normal;font-weight:normal;font-size:13.7839px;line-height:0%;font-family:Arial;text-align:start;text-anchor:start;fill:#000000"
       id="text3121">V</text>
    <path
       inkscape:connector-curvature="0"
       style="fill:#ed7800;fill-opacity:1;fill-rule:nonzero;stroke:#ed7800;stroke-width:1.0603px;stroke-linecap:butt;stroke-linejoin:bevel;stroke-dasharray:none;stroke-opacity:1"
       d="m 332.31774,643.42791 h 7.42211 c 0.33134,0 0.53014,0.26507 0.53014,0.53015 0,0.33134 -0.1988,0.53015 -0.53014,0.53015 h -7.42211 c -0.26507,0 -0.53015,-0.19881 -0.53015,-0.53015 0,-0.26508 0.26508,-0.53015 0.53015,-0.53015 z m 12.72361,0 h 7.4221 c 0.33134,0 0.53015,0.26507 0.53015,0.53015 0,0.33134 -0.19881,0.53015 -0.53015,0.53015 h -7.4221 c -0.26508,0 -0.53016,-0.19881 -0.53016,-0.53015 0,-0.26508 0.26508,-0.53015 0.53016,-0.53015 z m 12.7236,0 h 7.42211 c 0.33134,0 0.53014,0.26507 0.53014,0.53015 0,0.33134 -0.1988,0.53015 -0.53014,0.53015 h -7.42211 c -0.26507,0 -0.53015,-0.19881 -0.53015,-0.53015 0,-0.26508 0.26508,-0.53015 0.53015,-0.53015 z m 12.72361,0 h 7.4221 c 0.33135,0 0.53016,0.26507 0.53016,0.53015 0,0.33134 -0.19881,0.53015 -0.53016,0.53015 h -7.4221 c -0.26508,0 -0.53015,-0.19881 -0.53015,-0.53015 0,-0.26508 0.26507,-0.53015 0.53015,-0.53015 z m 12.7236,0 h 7.42211 c 0.33134,0 0.53015,0.26507 0.53015,0.53015 0,0.33134 -0.19881,0.53015 -0.53015,0.53015 h -7.42211 c -0.26507,0 -0.53014,-0.19881 -0.53014,-0.53015 0,-0.26508 0.26507,-0.53015 0.53014,-0.53015 z m 12.72361,0 h 7.4221 c 0.33135,0 0.53015,0.26507 0.53015,0.53015 0,0.33134 -0.1988,0.53015 -0.53015,0.53015 h -7.4221 c -0.26507,0 -0.53015,-0.19881 -0.53015,-0.53015 0,-0.26508 0.26508,-0.53015 0.53015,-0.53015 z m 12.72361,0 h 7.4221 c 0.33134,0 0.53015,0.26507 0.53015,0.53015 0,0.33134 -0.19881,0.53015 -0.53015,0.53015 h -7.4221 c -0.26508,0 -0.53015,-0.19881 -0.53015,-0.53015 0,-0.26508 0.26507,-0.53015 0.53015,-0.53015 z m 12.72361,0 h 7.4221 c 0.33134,0 0.53014,0.26507 0.53014,0.53015 0,0.33134 -0.1988,0.53015 -0.53014,0.53015 h -7.4221 c -0.26508,0 -0.53016,-0.19881 -0.53016,-0.53015 0,-0.26508 0.26508,-0.53015 0.53016,-0.53015 z m 12.7236,0 h 7.4221 c 0.33134,0 0.53015,0.26507 0.53015,0.53015 0,0.33134 -0.19881,0.53015 -0.53015,0.53015 h -7.4221 c -0.26508,0 -0.53016,-0.19881 -0.53016,-0.53015 0,-0.26508 0.26508,-0.53015 0.53016,-0.53015 z m 12.7236,0 h 7.42211 c 0.33134,0 0.53015,0.26507 0.53015,0.53015 0,0.33134 -0.19881,0.53015 -0.53015,0.53015 h -7.42211 c -0.26507,0 -0.53015,-0.19881 -0.53015,-0.53015 0,-0.26508 0.26508,-0.53015 0.53015,-0.53015 z m 12.72361,0 h 7.4221 c 0.33135,0 0.53016,0.26507 0.53016,0.53015 0,0.33134 -0.19881,0.53015 -0.53016,0.53015 h -7.4221 c -0.26508,0 -0.53015,-0.19881 -0.53015,-0.53015 0,-0.26508 0.26507,-0.53015 0.53015,-0.53015 z m 12.7236,0 h 7.42211 c 0.33134,0 0.53015,0.26507 0.53015,0.53015 0,0.33134 -0.19881,0.53015 -0.53015,0.53015 h -7.42211 c -0.26507,0 -0.53014,-0.19881 -0.53014,-0.53015 0,-0.26508 0.26507,-0.53015 0.53014,-0.53015 z m 12.72361,0 h 7.42211 c 0.33134,0 0.53014,0.26507 0.53014,0.53015 0,0.33134 -0.1988,0.53015 -0.53014,0.53015 h -7.42211 c -0.26507,0 -0.53015,-0.19881 -0.53015,-0.53015 0,-0.26508 0.26508,-0.53015 0.53015,-0.53015 z m 12.72361,0 h 7.4221 c 0.33134,0 0.53015,0.26507 0.53015,0.53015 0,0.33134 -0.19881,0.53015 -0.53015,0.53015 h -7.4221 c -0.26508,0 -0.53015,-0.19881 -0.53015,-0.53015 0,-0.26508 0.26507,-0.53015 0.53015,-0.53015 z m 12.72361,0 h 7.4221 c 0.33134,0 0.53014,0.26507 0.53014,0.53015 0,0.33134 -0.1988,0.53015 -0.53014,0.53015 h -7.4221 c -0.26508,0 -0.53016,-0.19881 -0.53016,-0.53015 0,-0.26508 0.26508,-0.53015 0.53016,-0.53015 z m 12.7236,0 h 7.4221 c 0.33134,0 0.53015,0.26507 0.53015,0.53015 0,0.33134 -0.19881,0.53015 -0.53015,0.53015 h -7.4221 c -0.26508,0 -0.53016,-0.19881 -0.53016,-0.53015 0,-0.26508 0.26508,-0.53015 0.53016,-0.53015 z m 12.7236,0 h 7.42211 c 0.33135,0 0.53015,0.26507 0.53015,0.53015 0,0.33134 -0.1988,0.53015 -0.53015,0.53015 h -7.42211 c -0.26507,0 -0.53014,-0.19881 -0.53014,-0.53015 0,-0.26508 0.26507,-0.53015 0.53014,-0.53015 z m 12.72361,0 h 7.4221 c 0.33135,0 0.53016,0.26507 0.53016,0.53015 0,0.33134 -0.19881,0.53015 -0.53016,0.53015 h -7.4221 c -0.26508,0 -0.53015,-0.19881 -0.53015,-0.53015 0,-0.26508 0.26507,-0.53015 0.53015,-0.53015 z m 12.7236,0 h 7.42211 c 0.33134,0 0.53015,0.26507 0.53015,0.53015 0,0.33134 -0.19881,0.53015 -0.53015,0.53015 h -7.42211 c -0.26506,0 -0.53014,-0.19881 -0.53014,-0.53015 0,-0.26508 0.26508,-0.53015 0.53014,-0.53015 z m 12.72361,0 h 7.42211 c 0.33134,0 0.53014,0.26507 0.53014,0.53015 0,0.33134 -0.1988,0.53015 -0.53014,0.53015 h -7.42211 c -0.26507,0 -0.53015,-0.19881 -0.53015,-0.53015 0,-0.26508 0.26508,-0.53015 0.53015,-0.53015 z m 12.72361,0 h 7.4221 c 0.33134,0 0.53015,0.26507 0.53015,0.53015 0,0.33134 -0.19881,0.53015 -0.53015,0.53015 h -7.4221 c -0.26508,0 -0.53015,-0.19881 -0.53015,-0.53015 0,-0.26508 0.26507,-0.53015 0.53015,-0.53015 z m 12.72361,0 h 3.31343 c 0.33135,0 0.53016,0.26507 0.53016,0.53015 0,0.33134 -0.19881,0.53015 -0.53016,0.53015 h -3.31343 c -0.26508,0 -0.53016,-0.19881 -0.53016,-0.53015 0,-0.26508 0.26508,-0.53015 0.53016,-0.53015 z"
       id="path3123" />
    <path
       inkscape:connector-curvature="0"
       style="fill:none;stroke:#3366ff;stroke-width:1.72299px;stroke-linecap:round;stroke-linejoin:round;stroke-dasharray:none;stroke-opacity:1"
       d="m 362.40377,643.95806 c 0,-14.17101 2.28012,-26.8525 4.82683,-36.10266 0,0 5.61202,-0.068 9.87371,-0.068 4.22837,0 11.98901,0.0616 11.98901,0.0616 3.44892,8.95649 4.85439,21.93473 4.85439,36.10906 v 0 c 0,27.70035 7.02449,50.0992 15.77197,50.0992 8.68121,0 15.7057,-22.39885 15.7057,-50.0992 v 0 c 0,-14.39703 1.2376,-27.65131 4.9961,-36.53621 0,0 6.23866,-0.0522 10.39706,-0.0522"
       id="path3125"
       sodipodi:nodetypes="csssccsccsc" />
    <path
       inkscape:connector-curvature="0"
       style="fill:none;stroke:#3366ff;stroke-width:1.72299px;stroke-linecap:round;stroke-linejoin:round;stroke-dasharray:none;stroke-opacity:1"
       d="m 520.0572,643.95806 c 0,-13.09121 -1.2677,-28.04553 -5.45193,-36.35375 0,0 -6.10856,-0.15607 -10.67718,-0.15607 -4.55651,0 -11.03433,0.10592 -11.03433,0.10592 -2.38634,9.03587 -4.3805,23.16424 -4.3805,36.4039 v 0 c 0,27.70035 -7.09077,50.0992 -15.77197,50.0992 -8.68121,0 -15.77198,-22.39885 -15.77198,-50.0992 v 0 c 0,-14.26084 -2.54708,-27.40302 -5.24076,-36.63278 0,0 -6.29795,0.10501 -10.5312,0.10501"
       id="path3127"
       sodipodi:nodetypes="csssccsccsc" />
    <path
       inkscape:connector-curvature="0"
       style="fill:none;stroke:#3366ff;stroke-width:1.72299px;stroke-linecap:round;stroke-linejoin:round;stroke-dasharray:none;stroke-opacity:1"
       d="m 520.0572,643.95806 c 0,27.70035 7.02449,50.0992 15.7057,50.0992 8.74748,0 15.77197,-22.39885 15.77197,-50.0992 v 0 c 0,-13.71648 2.79651,-27.39641 5.07338,-36.60274 0,0 5.69504,-0.11194 10.06723,-0.11194 4.4057,0 11.35485,-0.0136 11.35485,-0.0136 2.77809,9.06499 5.04848,23.01215 5.04848,36.72824 v 0 c 0,27.70035 7.09076,50.0992 15.77197,50.0992"
       id="path3129"
       sodipodi:nodetypes="csccsssccc" />
  </g>
</svg>
