<?xml version="1.0" encoding="utf-8" standalone="no"?>
<!DOCTYPE svg PUBLIC "-//W3C//DTD SVG 1.1//EN"
  "http://www.w3.org/Graphics/SVG/1.1/DTD/svg11.dtd">
<svg xmlns:xlink="http://www.w3.org/1999/xlink" width="277.829091pt" height="77.980957pt" viewBox="0 0 277.829091 77.980957" xmlns="http://www.w3.org/2000/svg" version="1.1">
 <metadata>
  <rdf:RDF xmlns:dc="http://purl.org/dc/elements/1.1/" xmlns:cc="http://creativecommons.org/ns#" xmlns:rdf="http://www.w3.org/1999/02/22-rdf-syntax-ns#">
   <cc:Work>
    <dc:type rdf:resource="http://purl.org/dc/dcmitype/StillImage"/>
    <dc:date>2026-05-05T16:14:41.676003</dc:date>
    <dc:format>image/svg+xml</dc:format>
    <dc:creator>
     <cc:Agent>
      <dc:title>Matplotlib v3.10.9, https://matplotlib.org/</dc:title>
     </cc:Agent>
    </dc:creator>
   </cc:Work>
  </rdf:RDF>
 </metadata>
 <defs>
  <style type="text/css">*{stroke-linejoin: round; stroke-linecap: butt}</style>
 </defs>
 <g id="figure_1">
  <g id="patch_1">
   <path d="M 0 77.980957 
L 277.829091 77.980957 
L 277.829091 0 
L 0 0 
L 0 77.980957 
z
" style="fill: none"/>
  </g>
  <g id="axes_1">
   <g id="patch_2">
    <path d="M 32.46 73.93464 
L 133.914545 73.93464 
L 133.914545 11.230965 
L 32.46 11.230965 
L 32.46 73.93464 
z
" style="fill: none"/>
   </g>
   <g id="matplotlib.axis_1"/>
   <g id="matplotlib.axis_2">
    <g id="ytick_1">
     <g id="line2d_1">
      <defs>
       <path id="m28d0543c07" d="M 0 0 
L -4 0 
" style="stroke: #afafaf; stroke-width: 0.8"/>
      </defs>
      <g>
       <use xlink:href="#m28d0543c07" x="32.46" y="71.084473" style="fill: #afafaf; stroke: #afafaf; stroke-width: 0.8"/>
      </g>
     </g>
     <g id="text_1">
      <!-- $-0.5$ V -->
      <g style="fill: #afafaf" transform="translate(3 73.589707) scale(0.07 -0.07)">
       <defs>
        <path id="DejaVuSans-2212" d="M 678 2272 
L 4684 2272 
L 4684 1741 
L 678 1741 
L 678 2272 
z
" transform="scale(0.015625)"/>
        <path id="DejaVuSans-30" d="M 2034 4250 
Q 1547 4250 1301 3770 
Q 1056 3291 1056 2328 
Q 1056 1369 1301 889 
Q 1547 409 2034 409 
Q 2525 409 2770 889 
Q 3016 1369 3016 2328 
Q 3016 3291 2770 3770 
Q 2525 4250 2034 4250 
z
M 2034 4750 
Q 2819 4750 3233 4129 
Q 3647 3509 3647 2328 
Q 3647 1150 3233 529 
Q 2819 -91 2034 -91 
Q 1250 -91 836 529 
Q 422 1150 422 2328 
Q 422 3509 836 4129 
Q 1250 4750 2034 4750 
z
" transform="scale(0.015625)"/>
        <path id="DejaVuSans-2e" d="M 684 794 
L 1344 794 
L 1344 0 
L 684 0 
L 684 794 
z
" transform="scale(0.015625)"/>
        <path id="DejaVuSans-35" d="M 691 4666 
L 3169 4666 
L 3169 4134 
L 1269 4134 
L 1269 2991 
Q 1406 3038 1543 3061 
Q 1681 3084 1819 3084 
Q 2600 3084 3056 2656 
Q 3513 2228 3513 1497 
Q 3513 744 3044 326 
Q 2575 -91 1722 -91 
Q 1428 -91 1123 -41 
Q 819 9 494 109 
L 494 744 
Q 775 591 1075 516 
Q 1375 441 1709 441 
Q 2250 441 2565 725 
Q 2881 1009 2881 1497 
Q 2881 1984 2565 2268 
Q 2250 2553 1709 2553 
Q 1456 2553 1204 2497 
Q 953 2441 691 2322 
L 691 4666 
z
" transform="scale(0.015625)"/>
        <path id="ArialMT-20" transform="scale(0.015625)"/>
        <path id="ArialMT-56" d="M 1803 0 
L 28 4581 
L 684 4581 
L 1875 1253 
Q 2019 853 2116 503 
Q 2222 878 2363 1253 
L 3600 4581 
L 4219 4581 
L 2425 0 
L 1803 0 
z
" transform="scale(0.015625)"/>
       </defs>
       <use xlink:href="#DejaVuSans-2212" transform="translate(0 0.78125)"/>
       <use xlink:href="#DejaVuSans-30" transform="translate(83.789062 0.78125)"/>
       <use xlink:href="#DejaVuSans-2e" transform="translate(147.412109 0.78125)"/>
       <use xlink:href="#DejaVuSans-35" transform="translate(179.199219 0.78125)"/>
       <use xlink:href="#ArialMT-20" transform="translate(242.822266 0.78125)"/>
       <use xlink:href="#ArialMT-56" transform="translate(270.605469 0.78125)"/>
      </g>
     </g>
    </g>
    <g id="ytick_2">
     <g id="line2d_2">
      <g>
       <use xlink:href="#m28d0543c07" x="32.46" y="42.582802" style="fill: #afafaf; stroke: #afafaf; stroke-width: 0.8"/>
      </g>
     </g>
     <g id="text_2">
      <!-- $0.0$ V -->
      <g style="fill: #afafaf" transform="translate(8.88 45.088037) scale(0.07 -0.07)">
       <use xlink:href="#DejaVuSans-30" transform="translate(0 0.78125)"/>
       <use xlink:href="#DejaVuSans-2e" transform="translate(63.623047 0.78125)"/>
       <use xlink:href="#DejaVuSans-30" transform="translate(95.410156 0.78125)"/>
       <use xlink:href="#ArialMT-20" transform="translate(159.033203 0.78125)"/>
       <use xlink:href="#ArialMT-56" transform="translate(186.816406 0.78125)"/>
      </g>
     </g>
    </g>
    <g id="ytick_3">
     <g id="line2d_3">
      <g>
       <use xlink:href="#m28d0543c07" x="32.46" y="14.081132" style="fill: #afafaf; stroke: #afafaf; stroke-width: 0.8"/>
      </g>
     </g>
     <g id="text_3">
      <!-- $0.5$ V -->
      <g style="fill: #afafaf" transform="translate(8.88 16.586366) scale(0.07 -0.07)">
       <use xlink:href="#DejaVuSans-30" transform="translate(0 0.78125)"/>
       <use xlink:href="#DejaVuSans-2e" transform="translate(63.623047 0.78125)"/>
       <use xlink:href="#DejaVuSans-35" transform="translate(95.410156 0.78125)"/>
       <use xlink:href="#ArialMT-20" transform="translate(159.033203 0.78125)"/>
       <use xlink:href="#ArialMT-56" transform="translate(186.816406 0.78125)"/>
      </g>
     </g>
    </g>
    <g id="ytick_4">
     <g id="line2d_4">
      <defs>
       <path id="m42f741a710" d="M 0 0 
L -2.2 0 
" style="stroke: #afafaf; stroke-width: 0.4"/>
      </defs>
      <g>
       <use xlink:href="#m42f741a710" x="32.46" y="65.384138" style="fill: #afafaf; stroke: #afafaf; stroke-width: 0.4"/>
      </g>
     </g>
    </g>
    <g id="ytick_5">
     <g id="line2d_5">
      <g>
       <use xlink:href="#m42f741a710" x="32.46" y="59.683804" style="fill: #afafaf; stroke: #afafaf; stroke-width: 0.4"/>
      </g>
     </g>
    </g>
    <g id="ytick_6">
     <g id="line2d_6">
      <g>
       <use xlink:href="#m42f741a710" x="32.46" y="53.98347" style="fill: #afafaf; stroke: #afafaf; stroke-width: 0.4"/>
      </g>
     </g>
    </g>
    <g id="ytick_7">
     <g id="line2d_7">
      <g>
       <use xlink:href="#m42f741a710" x="32.46" y="48.283136" style="fill: #afafaf; stroke: #afafaf; stroke-width: 0.4"/>
      </g>
     </g>
    </g>
    <g id="ytick_8">
     <g id="line2d_8">
      <g>
       <use xlink:href="#m42f741a710" x="32.46" y="36.882468" style="fill: #afafaf; stroke: #afafaf; stroke-width: 0.4"/>
      </g>
     </g>
    </g>
    <g id="ytick_9">
     <g id="line2d_9">
      <g>
       <use xlink:href="#m42f741a710" x="32.46" y="31.182134" style="fill: #afafaf; stroke: #afafaf; stroke-width: 0.4"/>
      </g>
     </g>
    </g>
    <g id="ytick_10">
     <g id="line2d_10">
      <g>
       <use xlink:href="#m42f741a710" x="32.46" y="25.4818" style="fill: #afafaf; stroke: #afafaf; stroke-width: 0.4"/>
      </g>
     </g>
    </g>
    <g id="ytick_11">
     <g id="line2d_11">
      <g>
       <use xlink:href="#m42f741a710" x="32.46" y="19.781466" style="fill: #afafaf; stroke: #afafaf; stroke-width: 0.4"/>
      </g>
     </g>
    </g>
   </g>
   <g id="patch_3">
    <path d="M 32.46 73.93464 
L 32.46 11.230965 
" style="fill: none; stroke: #afafaf; stroke-width: 0.8; stroke-linejoin: miter; stroke-linecap: square"/>
   </g>
   <g id="patch_4">
    <path d="M 32.46 42.582802 
L 133.914545 42.582802 
" style="fill: none; stroke: #afafaf; stroke-width: 0.8; stroke-linejoin: miter; stroke-linecap: square"/>
   </g>
   <g id="text_4">
    <!-- analog_offset[i] = 0.0 -->
    <g style="fill: #afafaf" transform="translate(50.65696 8.095781) scale(0.07 -0.07)">
     <defs>
      <path id="ArialMT-61" d="M 2588 409 
Q 2275 144 1986 34 
Q 1697 -75 1366 -75 
Q 819 -75 525 192 
Q 231 459 231 875 
Q 231 1119 342 1320 
Q 453 1522 633 1644 
Q 813 1766 1038 1828 
Q 1203 1872 1538 1913 
Q 2219 1994 2541 2106 
Q 2544 2222 2544 2253 
Q 2544 2597 2384 2738 
Q 2169 2928 1744 2928 
Q 1347 2928 1158 2789 
Q 969 2650 878 2297 
L 328 2372 
Q 403 2725 575 2942 
Q 747 3159 1072 3276 
Q 1397 3394 1825 3394 
Q 2250 3394 2515 3294 
Q 2781 3194 2906 3042 
Q 3031 2891 3081 2659 
Q 3109 2516 3109 2141 
L 3109 1391 
Q 3109 606 3145 398 
Q 3181 191 3288 0 
L 2700 0 
Q 2613 175 2588 409 
z
M 2541 1666 
Q 2234 1541 1622 1453 
Q 1275 1403 1131 1340 
Q 988 1278 909 1158 
Q 831 1038 831 891 
Q 831 666 1001 516 
Q 1172 366 1500 366 
Q 1825 366 2078 508 
Q 2331 650 2450 897 
Q 2541 1088 2541 1459 
L 2541 1666 
z
" transform="scale(0.015625)"/>
      <path id="ArialMT-6e" d="M 422 0 
L 422 3319 
L 928 3319 
L 928 2847 
Q 1294 3394 1984 3394 
Q 2284 3394 2536 3286 
Q 2788 3178 2913 3003 
Q 3038 2828 3088 2588 
Q 3119 2431 3119 2041 
L 3119 0 
L 2556 0 
L 2556 2019 
Q 2556 2363 2490 2533 
Q 2425 2703 2258 2804 
Q 2091 2906 1866 2906 
Q 1506 2906 1245 2678 
Q 984 2450 984 1813 
L 984 0 
L 422 0 
z
" transform="scale(0.015625)"/>
      <path id="ArialMT-6c" d="M 409 0 
L 409 4581 
L 972 4581 
L 972 0 
L 409 0 
z
" transform="scale(0.015625)"/>
      <path id="ArialMT-6f" d="M 213 1659 
Q 213 2581 725 3025 
Q 1153 3394 1769 3394 
Q 2453 3394 2887 2945 
Q 3322 2497 3322 1706 
Q 3322 1066 3130 698 
Q 2938 331 2570 128 
Q 2203 -75 1769 -75 
Q 1072 -75 642 372 
Q 213 819 213 1659 
z
M 791 1659 
Q 791 1022 1069 705 
Q 1347 388 1769 388 
Q 2188 388 2466 706 
Q 2744 1025 2744 1678 
Q 2744 2294 2464 2611 
Q 2184 2928 1769 2928 
Q 1347 2928 1069 2612 
Q 791 2297 791 1659 
z
" transform="scale(0.015625)"/>
      <path id="ArialMT-67" d="M 319 -275 
L 866 -356 
Q 900 -609 1056 -725 
Q 1266 -881 1628 -881 
Q 2019 -881 2231 -725 
Q 2444 -569 2519 -288 
Q 2563 -116 2559 434 
Q 2191 0 1641 0 
Q 956 0 581 494 
Q 206 988 206 1678 
Q 206 2153 378 2554 
Q 550 2956 876 3175 
Q 1203 3394 1644 3394 
Q 2231 3394 2613 2919 
L 2613 3319 
L 3131 3319 
L 3131 450 
Q 3131 -325 2973 -648 
Q 2816 -972 2473 -1159 
Q 2131 -1347 1631 -1347 
Q 1038 -1347 672 -1080 
Q 306 -813 319 -275 
z
M 784 1719 
Q 784 1066 1043 766 
Q 1303 466 1694 466 
Q 2081 466 2343 764 
Q 2606 1063 2606 1700 
Q 2606 2309 2336 2618 
Q 2066 2928 1684 2928 
Q 1309 2928 1046 2623 
Q 784 2319 784 1719 
z
" transform="scale(0.015625)"/>
      <path id="ArialMT-5f" d="M -97 -1272 
L -97 -866 
L 3631 -866 
L 3631 -1272 
L -97 -1272 
z
" transform="scale(0.015625)"/>
      <path id="ArialMT-66" d="M 556 0 
L 556 2881 
L 59 2881 
L 59 3319 
L 556 3319 
L 556 3672 
Q 556 4006 616 4169 
Q 697 4388 901 4523 
Q 1106 4659 1475 4659 
Q 1713 4659 2000 4603 
L 1916 4113 
Q 1741 4144 1584 4144 
Q 1328 4144 1222 4034 
Q 1116 3925 1116 3625 
L 1116 3319 
L 1763 3319 
L 1763 2881 
L 1116 2881 
L 1116 0 
L 556 0 
z
" transform="scale(0.015625)"/>
      <path id="ArialMT-73" d="M 197 991 
L 753 1078 
Q 800 744 1014 566 
Q 1228 388 1613 388 
Q 2000 388 2187 545 
Q 2375 703 2375 916 
Q 2375 1106 2209 1216 
Q 2094 1291 1634 1406 
Q 1016 1563 777 1677 
Q 538 1791 414 1992 
Q 291 2194 291 2438 
Q 291 2659 392 2848 
Q 494 3038 669 3163 
Q 800 3259 1026 3326 
Q 1253 3394 1513 3394 
Q 1903 3394 2198 3281 
Q 2494 3169 2634 2976 
Q 2775 2784 2828 2463 
L 2278 2388 
Q 2241 2644 2061 2787 
Q 1881 2931 1553 2931 
Q 1166 2931 1000 2803 
Q 834 2675 834 2503 
Q 834 2394 903 2306 
Q 972 2216 1119 2156 
Q 1203 2125 1616 2013 
Q 2213 1853 2448 1751 
Q 2684 1650 2818 1456 
Q 2953 1263 2953 975 
Q 2953 694 2789 445 
Q 2625 197 2315 61 
Q 2006 -75 1616 -75 
Q 969 -75 630 194 
Q 291 463 197 991 
z
" transform="scale(0.015625)"/>
      <path id="ArialMT-65" d="M 2694 1069 
L 3275 997 
Q 3138 488 2766 206 
Q 2394 -75 1816 -75 
Q 1088 -75 661 373 
Q 234 822 234 1631 
Q 234 2469 665 2931 
Q 1097 3394 1784 3394 
Q 2450 3394 2872 2941 
Q 3294 2488 3294 1666 
Q 3294 1616 3291 1516 
L 816 1516 
Q 847 969 1125 678 
Q 1403 388 1819 388 
Q 2128 388 2347 550 
Q 2566 713 2694 1069 
z
M 847 1978 
L 2700 1978 
Q 2663 2397 2488 2606 
Q 2219 2931 1791 2931 
Q 1403 2931 1139 2672 
Q 875 2413 847 1978 
z
" transform="scale(0.015625)"/>
      <path id="ArialMT-74" d="M 1650 503 
L 1731 6 
Q 1494 -44 1306 -44 
Q 1000 -44 831 53 
Q 663 150 594 308 
Q 525 466 525 972 
L 525 2881 
L 113 2881 
L 113 3319 
L 525 3319 
L 525 4141 
L 1084 4478 
L 1084 3319 
L 1650 3319 
L 1650 2881 
L 1084 2881 
L 1084 941 
Q 1084 700 1114 631 
Q 1144 563 1211 522 
Q 1278 481 1403 481 
Q 1497 481 1650 503 
z
" transform="scale(0.015625)"/>
      <path id="ArialMT-5b" d="M 434 -1272 
L 434 4581 
L 1675 4581 
L 1675 4116 
L 997 4116 
L 997 -806 
L 1675 -806 
L 1675 -1272 
L 434 -1272 
z
" transform="scale(0.015625)"/>
      <path id="ArialMT-69" d="M 425 3934 
L 425 4581 
L 988 4581 
L 988 3934 
L 425 3934 
z
M 425 0 
L 425 3319 
L 988 3319 
L 988 0 
L 425 0 
z
" transform="scale(0.015625)"/>
      <path id="ArialMT-5d" d="M 1363 -1272 
L 122 -1272 
L 122 -806 
L 800 -806 
L 800 4116 
L 122 4116 
L 122 4581 
L 1363 4581 
L 1363 -1272 
z
" transform="scale(0.015625)"/>
      <path id="ArialMT-3d" d="M 3381 2694 
L 356 2694 
L 356 3219 
L 3381 3219 
L 3381 2694 
z
M 3381 1303 
L 356 1303 
L 356 1828 
L 3381 1828 
L 3381 1303 
z
" transform="scale(0.015625)"/>
      <path id="ArialMT-30" d="M 266 2259 
Q 266 3072 433 3567 
Q 600 4063 929 4331 
Q 1259 4600 1759 4600 
Q 2128 4600 2406 4451 
Q 2684 4303 2865 4023 
Q 3047 3744 3150 3342 
Q 3253 2941 3253 2259 
Q 3253 1453 3087 958 
Q 2922 463 2592 192 
Q 2263 -78 1759 -78 
Q 1097 -78 719 397 
Q 266 969 266 2259 
z
M 844 2259 
Q 844 1131 1108 757 
Q 1372 384 1759 384 
Q 2147 384 2411 759 
Q 2675 1134 2675 2259 
Q 2675 3391 2411 3762 
Q 2147 4134 1753 4134 
Q 1366 4134 1134 3806 
Q 844 3388 844 2259 
z
" transform="scale(0.015625)"/>
      <path id="ArialMT-2e" d="M 581 0 
L 581 641 
L 1222 641 
L 1222 0 
L 581 0 
z
" transform="scale(0.015625)"/>
     </defs>
     <use xlink:href="#ArialMT-61"/>
     <use xlink:href="#ArialMT-6e" transform="translate(55.615234 0)"/>
     <use xlink:href="#ArialMT-61" transform="translate(111.230469 0)"/>
     <use xlink:href="#ArialMT-6c" transform="translate(166.845703 0)"/>
     <use xlink:href="#ArialMT-6f" transform="translate(189.0625 0)"/>
     <use xlink:href="#ArialMT-67" transform="translate(244.677734 0)"/>
     <use xlink:href="#ArialMT-5f" transform="translate(300.292969 0)"/>
     <use xlink:href="#ArialMT-6f" transform="translate(355.908203 0)"/>
     <use xlink:href="#ArialMT-66" transform="translate(411.523438 0)"/>
     <use xlink:href="#ArialMT-66" transform="translate(437.556641 0)"/>
     <use xlink:href="#ArialMT-73" transform="translate(465.339844 0)"/>
     <use xlink:href="#ArialMT-65" transform="translate(515.339844 0)"/>
     <use xlink:href="#ArialMT-74" transform="translate(570.955078 0)"/>
     <use xlink:href="#ArialMT-5b" transform="translate(598.738281 0)"/>
     <use xlink:href="#ArialMT-69" transform="translate(626.521484 0)"/>
     <use xlink:href="#ArialMT-5d" transform="translate(648.738281 0)"/>
     <use xlink:href="#ArialMT-20" transform="translate(676.521484 0)"/>
     <use xlink:href="#ArialMT-3d" transform="translate(704.304688 0)"/>
     <use xlink:href="#ArialMT-20" transform="translate(762.703125 0)"/>
     <use xlink:href="#ArialMT-30" transform="translate(790.486328 0)"/>
     <use xlink:href="#ArialMT-2e" transform="translate(846.101562 0)"/>
     <use xlink:href="#ArialMT-30" transform="translate(873.884766 0)"/>
    </g>
   </g>
   <g id="line2d_12">
    <path d="M 32.46 42.582802 
L 35.513816 31.287749 
L 37.21038 25.76502 
L 38.567631 22.007311 
L 39.58557 19.664179 
L 40.603509 17.781394 
L 41.621447 16.396774 
L 42.300073 15.764616 
L 42.978699 15.372092 
L 43.657324 15.222709 
L 44.33595 15.317802 
L 45.014576 15.656522 
L 45.693202 16.235841 
L 46.371827 17.050584 
L 47.389766 18.697631 
L 48.407704 20.82444 
L 49.764956 24.33136 
L 51.122207 28.489166 
L 53.158085 35.616871 
L 59.265716 57.888513 
L 60.622967 61.87949 
L 61.980219 65.182305 
L 62.998157 67.135909 
L 64.016096 68.596335 
L 64.694722 69.281053 
L 65.373348 69.727208 
L 66.051973 69.930814 
L 66.730599 69.890052 
L 67.409225 69.605287 
L 68.08785 69.079062 
L 68.766476 68.316079 
L 69.784415 66.743164 
L 70.802353 64.684959 
L 72.159605 61.258551 
L 73.516856 57.166125 
L 75.21342 51.338191 
L 78.606549 38.572465 
L 80.981739 29.994685 
L 82.678303 24.654889 
L 84.035555 21.088599 
L 85.053493 18.910952 
L 86.071432 17.208782 
L 87.089371 16.016277 
L 87.767996 15.516688 
L 88.446622 15.258948 
L 89.125248 15.24536 
L 89.803874 15.476046 
L 90.482499 15.948945 
L 91.161125 16.65983 
L 92.179064 18.157919 
L 93.197002 20.14661 
L 94.214941 22.585958 
L 95.572192 26.453574 
L 97.268756 32.078778 
L 99.643946 40.859015 
L 103.376388 54.657664 
L 105.072952 60.072431 
L 106.430204 63.716499 
L 107.448142 65.961087 
L 108.466081 67.736095 
L 109.484019 69.005871 
L 110.162645 69.558674 
L 110.841271 69.870433 
L 111.519897 69.938365 
L 112.198522 69.76186 
L 112.877148 69.342498 
L 113.555774 68.684024 
L 114.573712 67.261422 
L 115.591651 65.343122 
L 116.60959 62.967654 
L 117.966841 59.17289 
L 119.663405 53.615388 
L 122.038595 44.880002 
L 125.771037 31.026527 
L 127.467601 25.539181 
L 128.824853 21.818943 
L 129.842791 19.508406 
L 130.86073 17.661344 
L 131.878668 16.314858 
L 132.557294 15.709086 
L 133.23592 15.343444 
L 133.914545 15.221199 
L 133.914545 15.221199 
" clip-path="url(#p9d0cc5100d)" style="fill: none; stroke: #376eb5; stroke-width: 1.5; stroke-linecap: square"/>
   </g>
   <g id="line2d_13">
    <path d="M 32.46 42.582802 
L 133.914545 42.582802 
" clip-path="url(#p9d0cc5100d)" style="fill: none; stroke-dasharray: 2.96,1.28; stroke-dashoffset: 0; stroke: #ed7800; stroke-width: 0.8"/>
   </g>
  </g>
  <g id="axes_2">
   <g id="patch_5">
    <path d="M 173.374545 73.93464 
L 274.829091 73.93464 
L 274.829091 11.230965 
L 173.374545 11.230965 
L 173.374545 73.93464 
z
" style="fill: none"/>
   </g>
   <g id="matplotlib.axis_3"/>
   <g id="matplotlib.axis_4">
    <g id="ytick_12">
     <g id="line2d_14">
      <g>
       <use xlink:href="#m28d0543c07" x="173.374545" y="71.084473" style="fill: #afafaf; stroke: #afafaf; stroke-width: 0.8"/>
      </g>
     </g>
     <g id="text_5">
      <!-- $-0.5$ V -->
      <g style="fill: #afafaf" transform="translate(143.914545 73.589707) scale(0.07 -0.07)">
       <use xlink:href="#DejaVuSans-2212" transform="translate(0 0.78125)"/>
       <use xlink:href="#DejaVuSans-30" transform="translate(83.789062 0.78125)"/>
       <use xlink:href="#DejaVuSans-2e" transform="translate(147.412109 0.78125)"/>
       <use xlink:href="#DejaVuSans-35" transform="translate(179.199219 0.78125)"/>
       <use xlink:href="#ArialMT-20" transform="translate(242.822266 0.78125)"/>
       <use xlink:href="#ArialMT-56" transform="translate(270.605469 0.78125)"/>
      </g>
     </g>
    </g>
    <g id="ytick_13">
     <g id="line2d_15">
      <g>
       <use xlink:href="#m28d0543c07" x="173.374545" y="42.582802" style="fill: #afafaf; stroke: #afafaf; stroke-width: 0.8"/>
      </g>
     </g>
     <g id="text_6">
      <!-- $0.0$ V -->
      <g style="fill: #afafaf" transform="translate(149.794545 45.088037) scale(0.07 -0.07)">
       <use xlink:href="#DejaVuSans-30" transform="translate(0 0.78125)"/>
       <use xlink:href="#DejaVuSans-2e" transform="translate(63.623047 0.78125)"/>
       <use xlink:href="#DejaVuSans-30" transform="translate(95.410156 0.78125)"/>
       <use xlink:href="#ArialMT-20" transform="translate(159.033203 0.78125)"/>
       <use xlink:href="#ArialMT-56" transform="translate(186.816406 0.78125)"/>
      </g>
     </g>
    </g>
    <g id="ytick_14">
     <g id="line2d_16">
      <g>
       <use xlink:href="#m28d0543c07" x="173.374545" y="14.081132" style="fill: #afafaf; stroke: #afafaf; stroke-width: 0.8"/>
      </g>
     </g>
     <g id="text_7">
      <!-- $0.5$ V -->
      <g style="fill: #afafaf" transform="translate(149.794545 16.586366) scale(0.07 -0.07)">
       <use xlink:href="#DejaVuSans-30" transform="translate(0 0.78125)"/>
       <use xlink:href="#DejaVuSans-2e" transform="translate(63.623047 0.78125)"/>
       <use xlink:href="#DejaVuSans-35" transform="translate(95.410156 0.78125)"/>
       <use xlink:href="#ArialMT-20" transform="translate(159.033203 0.78125)"/>
       <use xlink:href="#ArialMT-56" transform="translate(186.816406 0.78125)"/>
      </g>
     </g>
    </g>
    <g id="ytick_15">
     <g id="line2d_17">
      <g>
       <use xlink:href="#m42f741a710" x="173.374545" y="65.384138" style="fill: #afafaf; stroke: #afafaf; stroke-width: 0.4"/>
      </g>
     </g>
    </g>
    <g id="ytick_16">
     <g id="line2d_18">
      <g>
       <use xlink:href="#m42f741a710" x="173.374545" y="59.683804" style="fill: #afafaf; stroke: #afafaf; stroke-width: 0.4"/>
      </g>
     </g>
    </g>
    <g id="ytick_17">
     <g id="line2d_19">
      <g>
       <use xlink:href="#m42f741a710" x="173.374545" y="53.98347" style="fill: #afafaf; stroke: #afafaf; stroke-width: 0.4"/>
      </g>
     </g>
    </g>
    <g id="ytick_18">
     <g id="line2d_20">
      <g>
       <use xlink:href="#m42f741a710" x="173.374545" y="48.283136" style="fill: #afafaf; stroke: #afafaf; stroke-width: 0.4"/>
      </g>
     </g>
    </g>
    <g id="ytick_19">
     <g id="line2d_21">
      <g>
       <use xlink:href="#m42f741a710" x="173.374545" y="36.882468" style="fill: #afafaf; stroke: #afafaf; stroke-width: 0.4"/>
      </g>
     </g>
    </g>
    <g id="ytick_20">
     <g id="line2d_22">
      <g>
       <use xlink:href="#m42f741a710" x="173.374545" y="31.182134" style="fill: #afafaf; stroke: #afafaf; stroke-width: 0.4"/>
      </g>
     </g>
    </g>
    <g id="ytick_21">
     <g id="line2d_23">
      <g>
       <use xlink:href="#m42f741a710" x="173.374545" y="25.4818" style="fill: #afafaf; stroke: #afafaf; stroke-width: 0.4"/>
      </g>
     </g>
    </g>
    <g id="ytick_22">
     <g id="line2d_24">
      <g>
       <use xlink:href="#m42f741a710" x="173.374545" y="19.781466" style="fill: #afafaf; stroke: #afafaf; stroke-width: 0.4"/>
      </g>
     </g>
    </g>
   </g>
   <g id="patch_6">
    <path d="M 173.374545 73.93464 
L 173.374545 11.230965 
" style="fill: none; stroke: #afafaf; stroke-width: 0.8; stroke-linejoin: miter; stroke-linecap: square"/>
   </g>
   <g id="patch_7">
    <path d="M 173.374545 42.582802 
L 274.829091 42.582802 
" style="fill: none; stroke: #afafaf; stroke-width: 0.8; stroke-linejoin: miter; stroke-linecap: square"/>
   </g>
   <g id="text_8">
    <!-- analog_offset[i] = 0.2 -->
    <g style="fill: #afafaf" transform="translate(191.571506 8.095781) scale(0.07 -0.07)">
     <defs>
      <path id="ArialMT-32" d="M 3222 541 
L 3222 0 
L 194 0 
Q 188 203 259 391 
Q 375 700 629 1000 
Q 884 1300 1366 1694 
Q 2113 2306 2375 2664 
Q 2638 3022 2638 3341 
Q 2638 3675 2398 3904 
Q 2159 4134 1775 4134 
Q 1369 4134 1125 3890 
Q 881 3647 878 3216 
L 300 3275 
Q 359 3922 746 4261 
Q 1134 4600 1788 4600 
Q 2447 4600 2831 4234 
Q 3216 3869 3216 3328 
Q 3216 3053 3103 2787 
Q 2991 2522 2730 2228 
Q 2469 1934 1863 1422 
Q 1356 997 1212 845 
Q 1069 694 975 541 
L 3222 541 
z
" transform="scale(0.015625)"/>
     </defs>
     <use xlink:href="#ArialMT-61"/>
     <use xlink:href="#ArialMT-6e" transform="translate(55.615234 0)"/>
     <use xlink:href="#ArialMT-61" transform="translate(111.230469 0)"/>
     <use xlink:href="#ArialMT-6c" transform="translate(166.845703 0)"/>
     <use xlink:href="#ArialMT-6f" transform="translate(189.0625 0)"/>
     <use xlink:href="#ArialMT-67" transform="translate(244.677734 0)"/>
     <use xlink:href="#ArialMT-5f" transform="translate(300.292969 0)"/>
     <use xlink:href="#ArialMT-6f" transform="translate(355.908203 0)"/>
     <use xlink:href="#ArialMT-66" transform="translate(411.523438 0)"/>
     <use xlink:href="#ArialMT-66" transform="translate(437.556641 0)"/>
     <use xlink:href="#ArialMT-73" transform="translate(465.339844 0)"/>
     <use xlink:href="#ArialMT-65" transform="translate(515.339844 0)"/>
     <use xlink:href="#ArialMT-74" transform="translate(570.955078 0)"/>
     <use xlink:href="#ArialMT-5b" transform="translate(598.738281 0)"/>
     <use xlink:href="#ArialMT-69" transform="translate(626.521484 0)"/>
     <use xlink:href="#ArialMT-5d" transform="translate(648.738281 0)"/>
     <use xlink:href="#ArialMT-20" transform="translate(676.521484 0)"/>
     <use xlink:href="#ArialMT-3d" transform="translate(704.304688 0)"/>
     <use xlink:href="#ArialMT-20" transform="translate(762.703125 0)"/>
     <use xlink:href="#ArialMT-30" transform="translate(790.486328 0)"/>
     <use xlink:href="#ArialMT-2e" transform="translate(846.101562 0)"/>
     <use xlink:href="#ArialMT-32" transform="translate(873.884766 0)"/>
    </g>
   </g>
   <g id="line2d_25">
    <path d="M 173.374545 31.182134 
L 176.428361 19.88708 
L 178.124926 14.364352 
L 178.464238 14.081132 
L 191.018814 14.081132 
L 191.69744 15.995785 
L 193.394004 21.748913 
L 196.108507 31.900772 
L 199.162323 43.127841 
L 200.858887 48.560977 
L 202.216139 52.22424 
L 203.234077 54.48541 
L 204.252016 56.278506 
L 205.269954 57.567513 
L 205.94858 58.133582 
L 206.627206 58.458826 
L 207.305832 58.540339 
L 207.984457 58.377394 
L 208.663083 57.971445 
L 209.341709 57.32612 
L 210.359647 55.922489 
L 211.377586 54.021921 
L 212.395524 51.662588 
L 213.752776 47.8863 
L 215.44934 42.346108 
L 217.82453 33.622538 
L 221.556972 19.756312 
L 223.253536 14.251199 
L 223.592849 14.081132 
L 236.147425 14.081132 
L 237.165363 17.2119 
L 239.20124 24.355306 
L 244.969559 45.521405 
L 246.666123 50.580464 
L 248.023375 53.862358 
L 249.041313 55.798337 
L 250.059252 57.239871 
L 250.737878 57.911476 
L 251.416503 58.344241 
L 252.095129 58.534299 
L 252.773755 58.479951 
L 253.452381 58.181685 
L 254.131006 57.642163 
L 254.809632 56.866209 
L 255.827571 55.274693 
L 256.845509 53.199252 
L 258.202761 49.752572 
L 259.560012 45.643631 
L 261.256576 39.801216 
L 264.649705 27.029661 
L 267.024895 18.466563 
L 268.382147 14.138513 
L 269.060772 14.081132 
L 274.829091 14.081132 
L 274.829091 14.081132 
" clip-path="url(#p471f89dd0e)" style="fill: none; stroke: #376eb5; stroke-width: 1.5; stroke-linecap: square"/>
   </g>
   <g id="line2d_26">
    <path d="M 173.374545 31.182134 
L 274.829091 31.182134 
" clip-path="url(#p471f89dd0e)" style="fill: none; stroke-dasharray: 2.96,1.28; stroke-dashoffset: 0; stroke: #ed7800; stroke-width: 0.8"/>
   </g>
   <g id="text_9">
    <!-- 0.2 V -->
    <g style="fill: #afafaf" transform="translate(222.410909 38.692078) scale(0.07 -0.07)">
     <use xlink:href="#ArialMT-30"/>
     <use xlink:href="#ArialMT-2e" transform="translate(55.615234 0)"/>
     <use xlink:href="#ArialMT-32" transform="translate(83.398438 0)"/>
     <use xlink:href="#ArialMT-20" transform="translate(139.013672 0)"/>
     <use xlink:href="#ArialMT-56" transform="translate(166.796875 0)"/>
    </g>
   </g>
   <g id="patch_8">
    <path d="M 220.72 31.741151 
Q 220.72 36.882468 220.72 42.023785 
" style="fill: none; stroke: #afafaf; stroke-width: 0.5; stroke-linecap: round"/>
    <path d="M 219.32 34.541151 
L 220.72 31.741151 
L 222.12 34.541151 
" style="fill: none; stroke: #afafaf; stroke-width: 0.5; stroke-linecap: round"/>
    <path d="M 222.12 39.223785 
L 220.72 42.023785 
L 219.32 39.223785 
" style="fill: none; stroke: #afafaf; stroke-width: 0.5; stroke-linecap: round"/>
   </g>
  </g>
 </g>
 <defs>
  <clipPath id="p9d0cc5100d">
   <rect x="32.46" y="11.230965" width="101.454545" height="62.703675"/>
  </clipPath>
  <clipPath id="p471f89dd0e">
   <rect x="173.374545" y="11.230965" width="101.454545" height="62.703675"/>
  </clipPath>
 </defs>
</svg>
