<?xml version="1.0" encoding="utf-8" standalone="no"?>
<!DOCTYPE svg PUBLIC "-//W3C//DTD SVG 1.1//EN"
  "http://www.w3.org/Graphics/SVG/1.1/DTD/svg11.dtd">
<svg xmlns:xlink="http://www.w3.org/1999/xlink" width="287.697774pt" height="182.590038pt" viewBox="0 0 287.697774 182.590038" xmlns="http://www.w3.org/2000/svg" version="1.1">
 <metadata>
  <rdf:RDF xmlns:dc="http://purl.org/dc/elements/1.1/" xmlns:cc="http://creativecommons.org/ns#" xmlns:rdf="http://www.w3.org/1999/02/22-rdf-syntax-ns#">
   <cc:Work>
    <dc:type rdf:resource="http://purl.org/dc/dcmitype/StillImage"/>
    <dc:date>2025-06-12T14:44:03.970867</dc:date>
    <dc:format>image/svg+xml</dc:format>
    <dc:creator>
     <cc:Agent>
      <dc:title>Matplotlib v3.9.2, https://matplotlib.org/</dc:title>
     </cc:Agent>
    </dc:creator>
   </cc:Work>
  </rdf:RDF>
 </metadata>
 <defs>
  <style type="text/css">*{stroke-linejoin: round; stroke-linecap: butt}</style>
 </defs>
 <g id="figure_1">
  <g id="patch_1">
   <path d="M 0 182.590038 
L 287.697774 182.590038 
L 287.697774 0 
L 0 0 
L 0 182.590038 
z
" style="fill: none"/>
  </g>
  <g id="axes_1">
   <g id="patch_2">
    <path d="M 15.76 86.131332 
L 281.197774 86.131332 
L 281.197774 6.5 
L 15.76 6.5 
L 15.76 86.131332 
z
" style="fill: none"/>
   </g>
   <g id="matplotlib.axis_1"/>
   <g id="matplotlib.axis_2">
    <g id="text_1">
     <!-- Signal height -->
     <g style="fill: #afafaf" transform="translate(11.888281 75.91301) rotate(-90) scale(0.09 -0.09)">
      <defs>
       <path id="DejaVuSans-53" d="M 3425 4513 
L 3425 3897 
Q 3066 4069 2747 4153 
Q 2428 4238 2131 4238 
Q 1616 4238 1336 4038 
Q 1056 3838 1056 3469 
Q 1056 3159 1242 3001 
Q 1428 2844 1947 2747 
L 2328 2669 
Q 3034 2534 3370 2195 
Q 3706 1856 3706 1288 
Q 3706 609 3251 259 
Q 2797 -91 1919 -91 
Q 1588 -91 1214 -16 
Q 841 59 441 206 
L 441 856 
Q 825 641 1194 531 
Q 1563 422 1919 422 
Q 2459 422 2753 634 
Q 3047 847 3047 1241 
Q 3047 1584 2836 1778 
Q 2625 1972 2144 2069 
L 1759 2144 
Q 1053 2284 737 2584 
Q 422 2884 422 3419 
Q 422 4038 858 4394 
Q 1294 4750 2059 4750 
Q 2388 4750 2728 4690 
Q 3069 4631 3425 4513 
z
" transform="scale(0.015625)"/>
       <path id="DejaVuSans-69" d="M 603 3500 
L 1178 3500 
L 1178 0 
L 603 0 
L 603 3500 
z
M 603 4863 
L 1178 4863 
L 1178 4134 
L 603 4134 
L 603 4863 
z
" transform="scale(0.015625)"/>
       <path id="DejaVuSans-67" d="M 2906 1791 
Q 2906 2416 2648 2759 
Q 2391 3103 1925 3103 
Q 1463 3103 1205 2759 
Q 947 2416 947 1791 
Q 947 1169 1205 825 
Q 1463 481 1925 481 
Q 2391 481 2648 825 
Q 2906 1169 2906 1791 
z
M 3481 434 
Q 3481 -459 3084 -895 
Q 2688 -1331 1869 -1331 
Q 1566 -1331 1297 -1286 
Q 1028 -1241 775 -1147 
L 775 -588 
Q 1028 -725 1275 -790 
Q 1522 -856 1778 -856 
Q 2344 -856 2625 -561 
Q 2906 -266 2906 331 
L 2906 616 
Q 2728 306 2450 153 
Q 2172 0 1784 0 
Q 1141 0 747 490 
Q 353 981 353 1791 
Q 353 2603 747 3093 
Q 1141 3584 1784 3584 
Q 2172 3584 2450 3431 
Q 2728 3278 2906 2969 
L 2906 3500 
L 3481 3500 
L 3481 434 
z
" transform="scale(0.015625)"/>
       <path id="DejaVuSans-6e" d="M 3513 2113 
L 3513 0 
L 2938 0 
L 2938 2094 
Q 2938 2591 2744 2837 
Q 2550 3084 2163 3084 
Q 1697 3084 1428 2787 
Q 1159 2491 1159 1978 
L 1159 0 
L 581 0 
L 581 3500 
L 1159 3500 
L 1159 2956 
Q 1366 3272 1645 3428 
Q 1925 3584 2291 3584 
Q 2894 3584 3203 3211 
Q 3513 2838 3513 2113 
z
" transform="scale(0.015625)"/>
       <path id="DejaVuSans-61" d="M 2194 1759 
Q 1497 1759 1228 1600 
Q 959 1441 959 1056 
Q 959 750 1161 570 
Q 1363 391 1709 391 
Q 2188 391 2477 730 
Q 2766 1069 2766 1631 
L 2766 1759 
L 2194 1759 
z
M 3341 1997 
L 3341 0 
L 2766 0 
L 2766 531 
Q 2569 213 2275 61 
Q 1981 -91 1556 -91 
Q 1019 -91 701 211 
Q 384 513 384 1019 
Q 384 1609 779 1909 
Q 1175 2209 1959 2209 
L 2766 2209 
L 2766 2266 
Q 2766 2663 2505 2880 
Q 2244 3097 1772 3097 
Q 1472 3097 1187 3025 
Q 903 2953 641 2809 
L 641 3341 
Q 956 3463 1253 3523 
Q 1550 3584 1831 3584 
Q 2591 3584 2966 3190 
Q 3341 2797 3341 1997 
z
" transform="scale(0.015625)"/>
       <path id="DejaVuSans-6c" d="M 603 4863 
L 1178 4863 
L 1178 0 
L 603 0 
L 603 4863 
z
" transform="scale(0.015625)"/>
       <path id="DejaVuSans-20" transform="scale(0.015625)"/>
       <path id="DejaVuSans-68" d="M 3513 2113 
L 3513 0 
L 2938 0 
L 2938 2094 
Q 2938 2591 2744 2837 
Q 2550 3084 2163 3084 
Q 1697 3084 1428 2787 
Q 1159 2491 1159 1978 
L 1159 0 
L 581 0 
L 581 4863 
L 1159 4863 
L 1159 2956 
Q 1366 3272 1645 3428 
Q 1925 3584 2291 3584 
Q 2894 3584 3203 3211 
Q 3513 2838 3513 2113 
z
" transform="scale(0.015625)"/>
       <path id="DejaVuSans-65" d="M 3597 1894 
L 3597 1613 
L 953 1613 
Q 991 1019 1311 708 
Q 1631 397 2203 397 
Q 2534 397 2845 478 
Q 3156 559 3463 722 
L 3463 178 
Q 3153 47 2828 -22 
Q 2503 -91 2169 -91 
Q 1331 -91 842 396 
Q 353 884 353 1716 
Q 353 2575 817 3079 
Q 1281 3584 2069 3584 
Q 2775 3584 3186 3129 
Q 3597 2675 3597 1894 
z
M 3022 2063 
Q 3016 2534 2758 2815 
Q 2500 3097 2075 3097 
Q 1594 3097 1305 2825 
Q 1016 2553 972 2059 
L 3022 2063 
z
" transform="scale(0.015625)"/>
       <path id="DejaVuSans-74" d="M 1172 4494 
L 1172 3500 
L 2356 3500 
L 2356 3053 
L 1172 3053 
L 1172 1153 
Q 1172 725 1289 603 
Q 1406 481 1766 481 
L 2356 481 
L 2356 0 
L 1766 0 
Q 1100 0 847 248 
Q 594 497 594 1153 
L 594 3053 
L 172 3053 
L 172 3500 
L 594 3500 
L 594 4494 
L 1172 4494 
z
" transform="scale(0.015625)"/>
      </defs>
      <use xlink:href="#DejaVuSans-53"/>
      <use xlink:href="#DejaVuSans-69" x="63.476562"/>
      <use xlink:href="#DejaVuSans-67" x="91.259766"/>
      <use xlink:href="#DejaVuSans-6e" x="154.736328"/>
      <use xlink:href="#DejaVuSans-61" x="218.115234"/>
      <use xlink:href="#DejaVuSans-6c" x="279.394531"/>
      <use xlink:href="#DejaVuSans-20" x="307.177734"/>
      <use xlink:href="#DejaVuSans-68" x="338.964844"/>
      <use xlink:href="#DejaVuSans-65" x="402.34375"/>
      <use xlink:href="#DejaVuSans-69" x="463.867188"/>
      <use xlink:href="#DejaVuSans-67" x="491.650391"/>
      <use xlink:href="#DejaVuSans-68" x="555.126953"/>
      <use xlink:href="#DejaVuSans-74" x="618.505859"/>
     </g>
    </g>
   </g>
   <g id="line2d_1">
    <path d="M 15.76 46.315666 
L 18.313514 46.315666 
L 20.867028 46.315666 
L 23.420542 46.315666 
L 25.974056 46.315666 
L 28.52757 46.315666 
L 31.081084 46.315666 
L 33.634598 46.315666 
L 36.188112 46.315666 
L 38.741625 46.315666 
L 41.295139 10.119606 
L 43.848653 10.119606 
L 46.402167 10.119606 
L 48.955681 10.119606 
L 51.509195 10.119606 
L 54.062709 10.119606 
L 56.616223 10.119606 
L 59.169737 10.119606 
L 61.723251 10.119606 
L 64.276765 10.119606 
L 66.830279 10.119606 
L 69.383793 10.119606 
L 71.937307 10.119606 
L 74.490821 10.119606 
L 77.044335 10.119606 
L 79.597849 10.119606 
L 82.151363 10.119606 
L 84.704876 10.119606 
L 87.25839 10.119606 
L 89.811904 10.119606 
L 92.365418 10.119606 
L 94.918932 10.119606 
L 97.472446 10.119606 
L 100.02596 10.119606 
L 102.579474 10.119606 
L 105.132988 10.119606 
L 107.686502 10.119606 
L 110.240016 10.119606 
L 112.79353 10.119606 
L 115.347044 10.119606 
L 117.900558 46.315666 
L 120.454072 46.315666 
L 123.007586 46.315666 
L 125.5611 46.315666 
L 128.114613 46.315666 
L 130.668127 46.315666 
L 133.221641 46.315666 
L 135.775155 46.315666 
L 138.328669 46.315666 
L 140.882183 46.315666 
L 143.435697 46.315666 
L 145.989211 46.315666 
L 148.542725 46.315666 
L 151.096239 46.315666 
L 153.649753 46.315666 
L 156.203267 46.315666 
L 158.756781 46.315666 
L 161.310295 46.315666 
L 163.863809 46.315666 
L 166.417323 46.315666 
L 168.970837 10.119606 
L 171.52435 10.119606 
L 174.077864 10.119606 
L 176.631378 10.119606 
L 179.184892 10.119606 
L 181.738406 10.119606 
L 184.29192 10.119606 
L 186.845434 10.119606 
L 189.398948 10.119606 
L 191.952462 10.119606 
L 194.505976 10.119606 
L 197.05949 10.119606 
L 199.613004 10.119606 
L 202.166518 10.119606 
L 204.720032 10.119606 
L 207.273546 10.119606 
L 209.82706 10.119606 
L 212.380574 10.119606 
L 214.934088 10.119606 
L 217.487601 10.119606 
L 220.041115 10.119606 
L 222.594629 10.119606 
L 225.148143 10.119606 
L 227.701657 10.119606 
L 230.255171 10.119606 
L 232.808685 10.119606 
L 235.362199 10.119606 
L 237.915713 10.119606 
L 240.469227 10.119606 
L 243.022741 10.119606 
L 245.576255 46.315666 
L 248.129769 46.315666 
L 250.683283 46.315666 
L 253.236797 46.315666 
L 255.790311 46.315666 
L 258.343825 46.315666 
L 260.897338 46.315666 
L 263.450852 46.315666 
L 266.004366 46.315666 
L 268.55788 46.315666 
" clip-path="url(#p01416898d8)" style="fill: none; stroke: #376eb5; stroke-width: 3; stroke-linecap: square"/>
   </g>
   <g id="line2d_2">
    <defs>
     <path id="mb7eb4c6db4" d="M 1.5 0 
L -1.5 -1.5 
L -1.5 1.5 
z
" style="stroke: #afafaf; stroke-linejoin: miter"/>
    </defs>
    <g>
     <use xlink:href="#mb7eb4c6db4" x="281.197774" y="46.315666" style="fill: #afafaf; stroke: #afafaf; stroke-linejoin: miter"/>
    </g>
   </g>
   <g id="line2d_3">
    <defs>
     <path id="m562e25ee1f" d="M 0 -1.5 
L -1.5 1.5 
L 1.5 1.5 
z
" style="stroke: #afafaf; stroke-linejoin: miter"/>
    </defs>
    <g>
     <use xlink:href="#m562e25ee1f" x="15.76" y="6.5" style="fill: #afafaf; stroke: #afafaf; stroke-linejoin: miter"/>
    </g>
   </g>
   <g id="patch_3">
    <path d="M 15.76 86.131332 
L 15.76 6.5 
" style="fill: none; stroke: #afafaf; stroke-width: 0.8; stroke-linejoin: miter; stroke-linecap: square"/>
   </g>
   <g id="patch_4">
    <path d="M 15.76 46.315666 
L 281.197774 46.315666 
" style="fill: none; stroke: #afafaf; stroke-width: 0.8; stroke-linejoin: miter; stroke-linecap: square"/>
   </g>
   <g id="patch_5">
    <path d="M 42.157822 28.217636 
Q 78.16099 28.217636 114.164159 28.217636 
" style="fill: none; stroke: #afafaf; stroke-linecap: round"/>
    <path d="M 45.757822 30.017636 
L 42.157822 28.217636 
L 45.757822 26.417636 
" style="fill: none; stroke: #afafaf; stroke-linecap: round"/>
    <path d="M 110.564159 26.417636 
L 114.164159 28.217636 
L 110.564159 30.017636 
" style="fill: none; stroke: #afafaf; stroke-linecap: round"/>
   </g>
   <g id="text_2">
    <!-- $\approx$ 2.5 µs -->
    <g style="fill: #afafaf" transform="translate(53.679682 24.59803) scale(0.09 -0.09)">
     <defs>
      <path id="DejaVuSans-2248" d="M 4684 1947 
L 4684 1388 
Q 4356 1144 4076 1036 
Q 3797 928 3494 928 
Q 3150 928 2694 1113 
Q 2663 1125 2641 1134 
Q 2622 1141 2575 1159 
Q 2091 1350 1797 1350 
Q 1522 1350 1253 1231 
Q 984 1113 678 850 
L 678 1409 
Q 1006 1653 1286 1761 
Q 1566 1869 1869 1869 
Q 2213 1869 2672 1684 
Q 2706 1669 2722 1663 
Q 2741 1656 2788 1638 
Q 3272 1447 3566 1447 
Q 3834 1447 4098 1564 
Q 4363 1681 4684 1947 
z
M 4684 3163 
L 4684 2606 
Q 4356 2359 4076 2251 
Q 3797 2144 3494 2144 
Q 3150 2144 2694 2328 
Q 2663 2341 2641 2350 
Q 2622 2356 2575 2375 
Q 2091 2566 1797 2566 
Q 1522 2566 1253 2447 
Q 984 2328 678 2069 
L 678 2625 
Q 1006 2869 1286 2976 
Q 1566 3084 1869 3084 
Q 2213 3084 2672 2900 
Q 2703 2888 2719 2881 
Q 2741 2872 2788 2853 
Q 3272 2663 3566 2663 
Q 3834 2663 4098 2780 
Q 4363 2897 4684 3163 
z
" transform="scale(0.015625)"/>
      <path id="DejaVuSans-32" d="M 1228 531 
L 3431 531 
L 3431 0 
L 469 0 
L 469 531 
Q 828 903 1448 1529 
Q 2069 2156 2228 2338 
Q 2531 2678 2651 2914 
Q 2772 3150 2772 3378 
Q 2772 3750 2511 3984 
Q 2250 4219 1831 4219 
Q 1534 4219 1204 4116 
Q 875 4013 500 3803 
L 500 4441 
Q 881 4594 1212 4672 
Q 1544 4750 1819 4750 
Q 2544 4750 2975 4387 
Q 3406 4025 3406 3419 
Q 3406 3131 3298 2873 
Q 3191 2616 2906 2266 
Q 2828 2175 2409 1742 
Q 1991 1309 1228 531 
z
" transform="scale(0.015625)"/>
      <path id="DejaVuSans-2e" d="M 684 794 
L 1344 794 
L 1344 0 
L 684 0 
L 684 794 
z
" transform="scale(0.015625)"/>
      <path id="DejaVuSans-35" d="M 691 4666 
L 3169 4666 
L 3169 4134 
L 1269 4134 
L 1269 2991 
Q 1406 3038 1543 3061 
Q 1681 3084 1819 3084 
Q 2600 3084 3056 2656 
Q 3513 2228 3513 1497 
Q 3513 744 3044 326 
Q 2575 -91 1722 -91 
Q 1428 -91 1123 -41 
Q 819 9 494 109 
L 494 744 
Q 775 591 1075 516 
Q 1375 441 1709 441 
Q 2250 441 2565 725 
Q 2881 1009 2881 1497 
Q 2881 1984 2565 2268 
Q 2250 2553 1709 2553 
Q 1456 2553 1204 2497 
Q 953 2441 691 2322 
L 691 4666 
z
" transform="scale(0.015625)"/>
      <path id="DejaVuSans-b5" d="M 544 -1331 
L 544 3500 
L 1119 3500 
L 1119 1325 
Q 1119 872 1334 640 
Q 1550 409 1972 409 
Q 2434 409 2667 671 
Q 2900 934 2900 1459 
L 2900 3500 
L 3475 3500 
L 3475 806 
Q 3475 619 3529 530 
Q 3584 441 3700 441 
Q 3728 441 3778 458 
Q 3828 475 3916 513 
L 3916 50 
Q 3788 -22 3673 -56 
Q 3559 -91 3450 -91 
Q 3234 -91 3106 31 
Q 2978 153 2931 403 
Q 2775 156 2548 32 
Q 2322 -91 2016 -91 
Q 1697 -91 1473 31 
Q 1250 153 1119 397 
L 1119 -1331 
L 544 -1331 
z
" transform="scale(0.015625)"/>
      <path id="DejaVuSans-73" d="M 2834 3397 
L 2834 2853 
Q 2591 2978 2328 3040 
Q 2066 3103 1784 3103 
Q 1356 3103 1142 2972 
Q 928 2841 928 2578 
Q 928 2378 1081 2264 
Q 1234 2150 1697 2047 
L 1894 2003 
Q 2506 1872 2764 1633 
Q 3022 1394 3022 966 
Q 3022 478 2636 193 
Q 2250 -91 1575 -91 
Q 1294 -91 989 -36 
Q 684 19 347 128 
L 347 722 
Q 666 556 975 473 
Q 1284 391 1588 391 
Q 1994 391 2212 530 
Q 2431 669 2431 922 
Q 2431 1156 2273 1281 
Q 2116 1406 1581 1522 
L 1381 1569 
Q 847 1681 609 1914 
Q 372 2147 372 2553 
Q 372 3047 722 3315 
Q 1072 3584 1716 3584 
Q 2034 3584 2315 3537 
Q 2597 3491 2834 3397 
z
" transform="scale(0.015625)"/>
     </defs>
     <use xlink:href="#DejaVuSans-2248" transform="translate(19.482422 0.78125)"/>
     <use xlink:href="#DejaVuSans-20" transform="translate(122.753906 0.78125)"/>
     <use xlink:href="#DejaVuSans-32" transform="translate(154.541016 0.78125)"/>
     <use xlink:href="#DejaVuSans-2e" transform="translate(218.164062 0.78125)"/>
     <use xlink:href="#DejaVuSans-35" transform="translate(249.951172 0.78125)"/>
     <use xlink:href="#DejaVuSans-20" transform="translate(313.574219 0.78125)"/>
     <use xlink:href="#DejaVuSans-b5" transform="translate(345.361328 0.78125)"/>
     <use xlink:href="#DejaVuSans-73" transform="translate(408.984375 0.78125)"/>
    </g>
   </g>
  </g>
  <g id="axes_2">
   <g id="patch_6">
    <path d="M 15.76 177.262665 
L 281.197774 177.262665 
L 281.197774 97.631332 
L 15.76 97.631332 
L 15.76 177.262665 
z
" style="fill: none"/>
   </g>
   <g id="matplotlib.axis_3"/>
   <g id="matplotlib.axis_4">
    <g id="text_3">
     <!-- ADC sample -->
     <g style="fill: #afafaf" transform="translate(11.888281 164.923717) rotate(-90) scale(0.09 -0.09)">
      <defs>
       <path id="DejaVuSans-41" d="M 2188 4044 
L 1331 1722 
L 3047 1722 
L 2188 4044 
z
M 1831 4666 
L 2547 4666 
L 4325 0 
L 3669 0 
L 3244 1197 
L 1141 1197 
L 716 0 
L 50 0 
L 1831 4666 
z
" transform="scale(0.015625)"/>
       <path id="DejaVuSans-44" d="M 1259 4147 
L 1259 519 
L 2022 519 
Q 2988 519 3436 956 
Q 3884 1394 3884 2338 
Q 3884 3275 3436 3711 
Q 2988 4147 2022 4147 
L 1259 4147 
z
M 628 4666 
L 1925 4666 
Q 3281 4666 3915 4102 
Q 4550 3538 4550 2338 
Q 4550 1131 3912 565 
Q 3275 0 1925 0 
L 628 0 
L 628 4666 
z
" transform="scale(0.015625)"/>
       <path id="DejaVuSans-43" d="M 4122 4306 
L 4122 3641 
Q 3803 3938 3442 4084 
Q 3081 4231 2675 4231 
Q 1875 4231 1450 3742 
Q 1025 3253 1025 2328 
Q 1025 1406 1450 917 
Q 1875 428 2675 428 
Q 3081 428 3442 575 
Q 3803 722 4122 1019 
L 4122 359 
Q 3791 134 3420 21 
Q 3050 -91 2638 -91 
Q 1578 -91 968 557 
Q 359 1206 359 2328 
Q 359 3453 968 4101 
Q 1578 4750 2638 4750 
Q 3056 4750 3426 4639 
Q 3797 4528 4122 4306 
z
" transform="scale(0.015625)"/>
       <path id="DejaVuSans-6d" d="M 3328 2828 
Q 3544 3216 3844 3400 
Q 4144 3584 4550 3584 
Q 5097 3584 5394 3201 
Q 5691 2819 5691 2113 
L 5691 0 
L 5113 0 
L 5113 2094 
Q 5113 2597 4934 2840 
Q 4756 3084 4391 3084 
Q 3944 3084 3684 2787 
Q 3425 2491 3425 1978 
L 3425 0 
L 2847 0 
L 2847 2094 
Q 2847 2600 2669 2842 
Q 2491 3084 2119 3084 
Q 1678 3084 1418 2786 
Q 1159 2488 1159 1978 
L 1159 0 
L 581 0 
L 581 3500 
L 1159 3500 
L 1159 2956 
Q 1356 3278 1631 3431 
Q 1906 3584 2284 3584 
Q 2666 3584 2933 3390 
Q 3200 3197 3328 2828 
z
" transform="scale(0.015625)"/>
       <path id="DejaVuSans-70" d="M 1159 525 
L 1159 -1331 
L 581 -1331 
L 581 3500 
L 1159 3500 
L 1159 2969 
Q 1341 3281 1617 3432 
Q 1894 3584 2278 3584 
Q 2916 3584 3314 3078 
Q 3713 2572 3713 1747 
Q 3713 922 3314 415 
Q 2916 -91 2278 -91 
Q 1894 -91 1617 61 
Q 1341 213 1159 525 
z
M 3116 1747 
Q 3116 2381 2855 2742 
Q 2594 3103 2138 3103 
Q 1681 3103 1420 2742 
Q 1159 2381 1159 1747 
Q 1159 1113 1420 752 
Q 1681 391 2138 391 
Q 2594 391 2855 752 
Q 3116 1113 3116 1747 
z
" transform="scale(0.015625)"/>
      </defs>
      <use xlink:href="#DejaVuSans-41"/>
      <use xlink:href="#DejaVuSans-44" x="68.408203"/>
      <use xlink:href="#DejaVuSans-43" x="145.410156"/>
      <use xlink:href="#DejaVuSans-20" x="215.234375"/>
      <use xlink:href="#DejaVuSans-73" x="247.021484"/>
      <use xlink:href="#DejaVuSans-61" x="299.121094"/>
      <use xlink:href="#DejaVuSans-6d" x="360.400391"/>
      <use xlink:href="#DejaVuSans-70" x="457.8125"/>
      <use xlink:href="#DejaVuSans-6c" x="521.289062"/>
      <use xlink:href="#DejaVuSans-65" x="549.072266"/>
     </g>
    </g>
   </g>
   <g id="line2d_4">
    <path d="M 15.76 137.446998 
L 18.313514 137.446998 
L 20.867028 137.446998 
L 23.420542 137.446998 
L 25.974056 137.446998 
L 28.52757 137.446998 
L 31.081084 137.446998 
L 33.634598 137.446998 
L 36.188112 137.446998 
L 38.741625 137.446998 
L 41.295139 101.250938 
L 43.848653 102.175042 
L 46.402167 103.075553 
L 48.955681 103.953074 
L 51.509195 104.808191 
L 54.062709 105.641476 
L 56.616223 106.453487 
L 59.169737 107.244767 
L 61.723251 108.015846 
L 64.276765 108.767238 
L 66.830279 109.499447 
L 69.383793 110.212962 
L 71.937307 110.908261 
L 74.490821 111.585809 
L 77.044335 112.246058 
L 79.597849 112.889451 
L 82.151363 113.516418 
L 84.704876 114.127378 
L 87.25839 114.722739 
L 89.811904 115.302901 
L 92.365418 115.868251 
L 94.918932 116.419168 
L 97.472446 116.956019 
L 100.02596 117.479164 
L 102.579474 117.988953 
L 105.132988 118.485727 
L 107.686502 118.969818 
L 110.240016 119.44155 
L 112.79353 119.901238 
L 115.347044 120.34919 
L 117.900558 156.54525 
L 120.454072 155.621147 
L 123.007586 154.720636 
L 125.5611 153.843115 
L 128.114613 152.987998 
L 130.668127 152.154713 
L 133.221641 151.342701 
L 135.775155 150.551421 
L 138.328669 149.780343 
L 140.882183 149.028951 
L 143.435697 148.296742 
L 145.989211 147.583226 
L 148.542725 146.887928 
L 151.096239 146.21038 
L 153.649753 145.550131 
L 156.203267 144.906738 
L 158.756781 144.279771 
L 161.310295 143.668811 
L 163.863809 143.073449 
L 166.417323 142.493287 
L 168.970837 106.297227 
L 171.52435 107.221331 
L 174.077864 108.121842 
L 176.631378 108.999363 
L 179.184892 109.85448 
L 181.738406 110.687765 
L 184.29192 111.499776 
L 186.845434 112.291056 
L 189.398948 113.062135 
L 191.952462 113.813527 
L 194.505976 114.545736 
L 197.05949 115.259251 
L 199.613004 115.95455 
L 202.166518 116.632098 
L 204.720032 117.292347 
L 207.273546 117.93574 
L 209.82706 118.562707 
L 212.380574 119.173667 
L 214.934088 119.769028 
L 217.487601 120.34919 
L 220.041115 120.91454 
L 222.594629 121.465457 
L 225.148143 122.002308 
L 227.701657 122.525453 
L 230.255171 123.035242 
L 232.808685 123.532016 
L 235.362199 124.016107 
L 237.915713 124.487839 
L 240.469227 124.947527 
L 243.022741 125.395479 
L 245.576255 161.591539 
L 248.129769 160.667436 
L 250.683283 159.766925 
L 253.236797 158.889404 
L 255.790311 158.034287 
L 258.343825 157.201002 
L 260.897338 156.38899 
L 263.450852 155.59771 
L 266.004366 154.826632 
L 268.55788 154.07524 
" clip-path="url(#p27ddc9e6ed)" style="fill: none; stroke: #ed7800; stroke-width: 3; stroke-linecap: square"/>
   </g>
   <g id="line2d_5">
    <path d="M 15.76 142.493287 
L 281.197774 142.493287 
" clip-path="url(#p27ddc9e6ed)" style="fill: none; stroke-dasharray: 0.8,1.32; stroke-dashoffset: 0; stroke: #afafaf; stroke-width: 0.8"/>
   </g>
   <g id="line2d_6">
    <g>
     <use xlink:href="#mb7eb4c6db4" x="281.197774" y="137.446998" style="fill: #afafaf; stroke: #afafaf; stroke-linejoin: miter"/>
    </g>
   </g>
   <g id="line2d_7">
    <g>
     <use xlink:href="#m562e25ee1f" x="15.76" y="97.631332" style="fill: #afafaf; stroke: #afafaf; stroke-linejoin: miter"/>
    </g>
   </g>
   <g id="patch_7">
    <path d="M 15.76 177.262665 
L 15.76 97.631332 
" style="fill: none; stroke: #afafaf; stroke-width: 0.8; stroke-linejoin: miter; stroke-linecap: square"/>
   </g>
   <g id="patch_8">
    <path d="M 15.76 137.446998 
L 281.197774 137.446998 
" style="fill: none; stroke: #afafaf; stroke-width: 0.8; stroke-linejoin: miter; stroke-linecap: square"/>
   </g>
   <g id="patch_9">
    <path d="M 185.441107 165.341871 
Q 175.843816 154.660883 166.99378 144.811527 
" style="fill: none; stroke: #afafaf; stroke-linecap: round"/>
    <path d="M 168.06099 148.692386 
L 166.99378 144.811527 
L 170.738793 146.286274 
" style="fill: none; stroke: #afafaf; stroke-linecap: round"/>
   </g>
   <g id="text_4">
    <!-- shifted baseline -->
    <g style="fill: #afafaf" transform="translate(156.869594 175.670038) scale(0.09 -0.09)">
     <defs>
      <path id="DejaVuSans-66" d="M 2375 4863 
L 2375 4384 
L 1825 4384 
Q 1516 4384 1395 4259 
Q 1275 4134 1275 3809 
L 1275 3500 
L 2222 3500 
L 2222 3053 
L 1275 3053 
L 1275 0 
L 697 0 
L 697 3053 
L 147 3053 
L 147 3500 
L 697 3500 
L 697 3744 
Q 697 4328 969 4595 
Q 1241 4863 1831 4863 
L 2375 4863 
z
" transform="scale(0.015625)"/>
      <path id="DejaVuSans-64" d="M 2906 2969 
L 2906 4863 
L 3481 4863 
L 3481 0 
L 2906 0 
L 2906 525 
Q 2725 213 2448 61 
Q 2172 -91 1784 -91 
Q 1150 -91 751 415 
Q 353 922 353 1747 
Q 353 2572 751 3078 
Q 1150 3584 1784 3584 
Q 2172 3584 2448 3432 
Q 2725 3281 2906 2969 
z
M 947 1747 
Q 947 1113 1208 752 
Q 1469 391 1925 391 
Q 2381 391 2643 752 
Q 2906 1113 2906 1747 
Q 2906 2381 2643 2742 
Q 2381 3103 1925 3103 
Q 1469 3103 1208 2742 
Q 947 2381 947 1747 
z
" transform="scale(0.015625)"/>
      <path id="DejaVuSans-62" d="M 3116 1747 
Q 3116 2381 2855 2742 
Q 2594 3103 2138 3103 
Q 1681 3103 1420 2742 
Q 1159 2381 1159 1747 
Q 1159 1113 1420 752 
Q 1681 391 2138 391 
Q 2594 391 2855 752 
Q 3116 1113 3116 1747 
z
M 1159 2969 
Q 1341 3281 1617 3432 
Q 1894 3584 2278 3584 
Q 2916 3584 3314 3078 
Q 3713 2572 3713 1747 
Q 3713 922 3314 415 
Q 2916 -91 2278 -91 
Q 1894 -91 1617 61 
Q 1341 213 1159 525 
L 1159 0 
L 581 0 
L 581 4863 
L 1159 4863 
L 1159 2969 
z
" transform="scale(0.015625)"/>
     </defs>
     <use xlink:href="#DejaVuSans-73"/>
     <use xlink:href="#DejaVuSans-68" x="52.099609"/>
     <use xlink:href="#DejaVuSans-69" x="115.478516"/>
     <use xlink:href="#DejaVuSans-66" x="143.261719"/>
     <use xlink:href="#DejaVuSans-74" x="176.716797"/>
     <use xlink:href="#DejaVuSans-65" x="215.925781"/>
     <use xlink:href="#DejaVuSans-64" x="277.449219"/>
     <use xlink:href="#DejaVuSans-20" x="340.925781"/>
     <use xlink:href="#DejaVuSans-62" x="372.712891"/>
     <use xlink:href="#DejaVuSans-61" x="436.189453"/>
     <use xlink:href="#DejaVuSans-73" x="497.46875"/>
     <use xlink:href="#DejaVuSans-65" x="549.568359"/>
     <use xlink:href="#DejaVuSans-6c" x="611.091797"/>
     <use xlink:href="#DejaVuSans-69" x="638.875"/>
     <use xlink:href="#DejaVuSans-6e" x="666.658203"/>
     <use xlink:href="#DejaVuSans-65" x="730.037109"/>
    </g>
   </g>
  </g>
 </g>
 <defs>
  <clipPath id="p01416898d8">
   <rect x="15.76" y="6.5" width="265.437774" height="79.631332"/>
  </clipPath>
  <clipPath id="p27ddc9e6ed">
   <rect x="15.76" y="97.631332" width="265.437774" height="79.631332"/>
  </clipPath>
 </defs>
</svg>
