<?xml version="1.0" encoding="utf-8" standalone="no"?>
<!DOCTYPE svg PUBLIC "-//W3C//DTD SVG 1.1//EN"
  "http://www.w3.org/Graphics/SVG/1.1/DTD/svg11.dtd">
<svg xmlns:xlink="http://www.w3.org/1999/xlink" width="243.084375pt" height="155.5683pt" viewBox="0 0 243.084375 155.5683" xmlns="http://www.w3.org/2000/svg" version="1.1">
 <metadata>
  <rdf:RDF xmlns:dc="http://purl.org/dc/elements/1.1/" xmlns:cc="http://creativecommons.org/ns#" xmlns:rdf="http://www.w3.org/1999/02/22-rdf-syntax-ns#">
   <cc:Work>
    <dc:type rdf:resource="http://purl.org/dc/dcmitype/StillImage"/>
    <dc:date>2026-05-05T15:56:13.443586</dc:date>
    <dc:format>image/svg+xml</dc:format>
    <dc:creator>
     <cc:Agent>
      <dc:title>Matplotlib v3.10.9, https://matplotlib.org/</dc:title>
     </cc:Agent>
    </dc:creator>
   </cc:Work>
  </rdf:RDF>
 </metadata>
 <defs>
  <style type="text/css">*{stroke-linejoin: round; stroke-linecap: butt}</style>
 </defs>
 <g id="figure_1">
  <g id="patch_1">
   <path d="M 0 155.5683 
L 243.084375 155.5683 
L 243.084375 0 
L 0 0 
L 0 155.5683 
z
" style="fill: none"/>
  </g>
  <g id="axes_1">
   <g id="patch_2">
    <path d="M 14.384375 72.46 
L 237.584375 72.46 
L 237.584375 5.5 
L 14.384375 5.5 
L 14.384375 72.46 
z
" style="fill: none"/>
   </g>
   <g id="matplotlib.axis_1"/>
   <g id="matplotlib.axis_2">
    <g id="text_1">
     <!-- Signal height -->
     <g style="fill: #afafaf" transform="translate(10.279687 67.889375) rotate(-90) scale(0.1 -0.1)">
      <defs>
       <path id="ArialMT-53" d="M 288 1472 
L 859 1522 
Q 900 1178 1048 958 
Q 1197 738 1509 602 
Q 1822 466 2213 466 
Q 2559 466 2825 569 
Q 3091 672 3220 851 
Q 3350 1031 3350 1244 
Q 3350 1459 3225 1620 
Q 3100 1781 2813 1891 
Q 2628 1963 1997 2114 
Q 1366 2266 1113 2400 
Q 784 2572 623 2826 
Q 463 3081 463 3397 
Q 463 3744 659 4045 
Q 856 4347 1234 4503 
Q 1613 4659 2075 4659 
Q 2584 4659 2973 4495 
Q 3363 4331 3572 4012 
Q 3781 3694 3797 3291 
L 3216 3247 
Q 3169 3681 2898 3903 
Q 2628 4125 2100 4125 
Q 1550 4125 1298 3923 
Q 1047 3722 1047 3438 
Q 1047 3191 1225 3031 
Q 1400 2872 2139 2705 
Q 2878 2538 3153 2413 
Q 3553 2228 3743 1945 
Q 3934 1663 3934 1294 
Q 3934 928 3725 604 
Q 3516 281 3123 101 
Q 2731 -78 2241 -78 
Q 1619 -78 1198 103 
Q 778 284 539 648 
Q 300 1013 288 1472 
z
" transform="scale(0.015625)"/>
       <path id="ArialMT-69" d="M 425 3934 
L 425 4581 
L 988 4581 
L 988 3934 
L 425 3934 
z
M 425 0 
L 425 3319 
L 988 3319 
L 988 0 
L 425 0 
z
" transform="scale(0.015625)"/>
       <path id="ArialMT-67" d="M 319 -275 
L 866 -356 
Q 900 -609 1056 -725 
Q 1266 -881 1628 -881 
Q 2019 -881 2231 -725 
Q 2444 -569 2519 -288 
Q 2563 -116 2559 434 
Q 2191 0 1641 0 
Q 956 0 581 494 
Q 206 988 206 1678 
Q 206 2153 378 2554 
Q 550 2956 876 3175 
Q 1203 3394 1644 3394 
Q 2231 3394 2613 2919 
L 2613 3319 
L 3131 3319 
L 3131 450 
Q 3131 -325 2973 -648 
Q 2816 -972 2473 -1159 
Q 2131 -1347 1631 -1347 
Q 1038 -1347 672 -1080 
Q 306 -813 319 -275 
z
M 784 1719 
Q 784 1066 1043 766 
Q 1303 466 1694 466 
Q 2081 466 2343 764 
Q 2606 1063 2606 1700 
Q 2606 2309 2336 2618 
Q 2066 2928 1684 2928 
Q 1309 2928 1046 2623 
Q 784 2319 784 1719 
z
" transform="scale(0.015625)"/>
       <path id="ArialMT-6e" d="M 422 0 
L 422 3319 
L 928 3319 
L 928 2847 
Q 1294 3394 1984 3394 
Q 2284 3394 2536 3286 
Q 2788 3178 2913 3003 
Q 3038 2828 3088 2588 
Q 3119 2431 3119 2041 
L 3119 0 
L 2556 0 
L 2556 2019 
Q 2556 2363 2490 2533 
Q 2425 2703 2258 2804 
Q 2091 2906 1866 2906 
Q 1506 2906 1245 2678 
Q 984 2450 984 1813 
L 984 0 
L 422 0 
z
" transform="scale(0.015625)"/>
       <path id="ArialMT-61" d="M 2588 409 
Q 2275 144 1986 34 
Q 1697 -75 1366 -75 
Q 819 -75 525 192 
Q 231 459 231 875 
Q 231 1119 342 1320 
Q 453 1522 633 1644 
Q 813 1766 1038 1828 
Q 1203 1872 1538 1913 
Q 2219 1994 2541 2106 
Q 2544 2222 2544 2253 
Q 2544 2597 2384 2738 
Q 2169 2928 1744 2928 
Q 1347 2928 1158 2789 
Q 969 2650 878 2297 
L 328 2372 
Q 403 2725 575 2942 
Q 747 3159 1072 3276 
Q 1397 3394 1825 3394 
Q 2250 3394 2515 3294 
Q 2781 3194 2906 3042 
Q 3031 2891 3081 2659 
Q 3109 2516 3109 2141 
L 3109 1391 
Q 3109 606 3145 398 
Q 3181 191 3288 0 
L 2700 0 
Q 2613 175 2588 409 
z
M 2541 1666 
Q 2234 1541 1622 1453 
Q 1275 1403 1131 1340 
Q 988 1278 909 1158 
Q 831 1038 831 891 
Q 831 666 1001 516 
Q 1172 366 1500 366 
Q 1825 366 2078 508 
Q 2331 650 2450 897 
Q 2541 1088 2541 1459 
L 2541 1666 
z
" transform="scale(0.015625)"/>
       <path id="ArialMT-6c" d="M 409 0 
L 409 4581 
L 972 4581 
L 972 0 
L 409 0 
z
" transform="scale(0.015625)"/>
       <path id="ArialMT-20" transform="scale(0.015625)"/>
       <path id="ArialMT-68" d="M 422 0 
L 422 4581 
L 984 4581 
L 984 2938 
Q 1378 3394 1978 3394 
Q 2347 3394 2619 3248 
Q 2891 3103 3008 2847 
Q 3125 2591 3125 2103 
L 3125 0 
L 2563 0 
L 2563 2103 
Q 2563 2525 2380 2717 
Q 2197 2909 1863 2909 
Q 1613 2909 1392 2779 
Q 1172 2650 1078 2428 
Q 984 2206 984 1816 
L 984 0 
L 422 0 
z
" transform="scale(0.015625)"/>
       <path id="ArialMT-65" d="M 2694 1069 
L 3275 997 
Q 3138 488 2766 206 
Q 2394 -75 1816 -75 
Q 1088 -75 661 373 
Q 234 822 234 1631 
Q 234 2469 665 2931 
Q 1097 3394 1784 3394 
Q 2450 3394 2872 2941 
Q 3294 2488 3294 1666 
Q 3294 1616 3291 1516 
L 816 1516 
Q 847 969 1125 678 
Q 1403 388 1819 388 
Q 2128 388 2347 550 
Q 2566 713 2694 1069 
z
M 847 1978 
L 2700 1978 
Q 2663 2397 2488 2606 
Q 2219 2931 1791 2931 
Q 1403 2931 1139 2672 
Q 875 2413 847 1978 
z
" transform="scale(0.015625)"/>
       <path id="ArialMT-74" d="M 1650 503 
L 1731 6 
Q 1494 -44 1306 -44 
Q 1000 -44 831 53 
Q 663 150 594 308 
Q 525 466 525 972 
L 525 2881 
L 113 2881 
L 113 3319 
L 525 3319 
L 525 4141 
L 1084 4478 
L 1084 3319 
L 1650 3319 
L 1650 2881 
L 1084 2881 
L 1084 941 
Q 1084 700 1114 631 
Q 1144 563 1211 522 
Q 1278 481 1403 481 
Q 1497 481 1650 503 
z
" transform="scale(0.015625)"/>
      </defs>
      <use xlink:href="#ArialMT-53"/>
      <use xlink:href="#ArialMT-69" transform="translate(66.699219 0)"/>
      <use xlink:href="#ArialMT-67" transform="translate(88.916016 0)"/>
      <use xlink:href="#ArialMT-6e" transform="translate(144.53125 0)"/>
      <use xlink:href="#ArialMT-61" transform="translate(200.146484 0)"/>
      <use xlink:href="#ArialMT-6c" transform="translate(255.761719 0)"/>
      <use xlink:href="#ArialMT-20" transform="translate(277.978516 0)"/>
      <use xlink:href="#ArialMT-68" transform="translate(305.761719 0)"/>
      <use xlink:href="#ArialMT-65" transform="translate(361.376953 0)"/>
      <use xlink:href="#ArialMT-69" transform="translate(416.992188 0)"/>
      <use xlink:href="#ArialMT-67" transform="translate(439.208984 0)"/>
      <use xlink:href="#ArialMT-68" transform="translate(494.824219 0)"/>
      <use xlink:href="#ArialMT-74" transform="translate(550.439453 0)"/>
     </g>
    </g>
   </g>
   <g id="line2d_1">
    <path d="M 14.384375 38.98 
L 16.531561 38.98 
L 18.678747 38.98 
L 20.825933 38.98 
L 22.97312 38.98 
L 25.120306 38.98 
L 27.267492 38.98 
L 29.414678 38.98 
L 31.561864 38.98 
L 33.70905 38.98 
L 35.856236 8.543636 
L 38.003423 8.543636 
L 40.150609 8.543636 
L 42.297795 8.543636 
L 44.444981 8.543636 
L 46.592167 8.543636 
L 48.739353 8.543636 
L 50.88654 8.543636 
L 53.033726 8.543636 
L 55.180912 8.543636 
L 57.328098 8.543636 
L 59.475284 8.543636 
L 61.62247 8.543636 
L 63.769656 8.543636 
L 65.916843 8.543636 
L 68.064029 8.543636 
L 70.211215 8.543636 
L 72.358401 8.543636 
L 74.505587 8.543636 
L 76.652773 8.543636 
L 78.799959 8.543636 
L 80.947146 8.543636 
L 83.094332 8.543636 
L 85.241518 8.543636 
L 87.388704 8.543636 
L 89.53589 8.543636 
L 91.683076 8.543636 
L 93.830262 8.543636 
L 95.977449 8.543636 
L 98.124635 8.543636 
L 100.271821 38.98 
L 102.419007 38.98 
L 104.566193 38.98 
L 106.713379 38.98 
L 108.860565 38.98 
L 111.007752 38.98 
L 113.154938 38.98 
L 115.302124 38.98 
L 117.44931 38.98 
L 119.596496 38.98 
L 121.743682 38.98 
L 123.890869 38.98 
L 126.038055 38.98 
L 128.185241 38.98 
L 130.332427 38.98 
L 132.479613 38.98 
L 134.626799 38.98 
L 136.773985 38.98 
L 138.921172 38.98 
L 141.068358 38.98 
L 143.215544 8.543636 
L 145.36273 8.543636 
L 147.509916 8.543636 
L 149.657102 8.543636 
L 151.804288 8.543636 
L 153.951475 8.543636 
L 156.098661 8.543636 
L 158.245847 8.543636 
L 160.393033 8.543636 
L 162.540219 8.543636 
L 164.687405 8.543636 
L 166.834591 8.543636 
L 168.981778 8.543636 
L 171.128964 8.543636 
L 173.27615 8.543636 
L 175.423336 8.543636 
L 177.570522 8.543636 
L 179.717708 8.543636 
L 181.864894 8.543636 
L 184.012081 8.543636 
L 186.159267 8.543636 
L 188.306453 8.543636 
L 190.453639 8.543636 
L 192.600825 8.543636 
L 194.748011 8.543636 
L 196.895198 8.543636 
L 199.042384 8.543636 
L 201.18957 8.543636 
L 203.336756 8.543636 
L 205.483942 8.543636 
L 207.631128 38.98 
L 209.778314 38.98 
L 211.925501 38.98 
L 214.072687 38.98 
L 216.219873 38.98 
L 218.367059 38.98 
L 220.514245 38.98 
L 222.661431 38.98 
L 224.808617 38.98 
L 226.955804 38.98 
" clip-path="url(#p278be00822)" style="fill: none; stroke: #376eb5; stroke-width: 3; stroke-linecap: square"/>
   </g>
   <g id="line2d_2">
    <defs>
     <path id="mc59b60ba76" d="M 2.5 0 
L -2.5 -2.5 
L -2.5 2.5 
z
" style="stroke: #afafaf; stroke-linejoin: miter"/>
    </defs>
    <g>
     <use xlink:href="#mc59b60ba76" x="237.584375" y="38.98" style="fill: #afafaf; stroke: #afafaf; stroke-linejoin: miter"/>
    </g>
   </g>
   <g id="line2d_3">
    <defs>
     <path id="m3b63cb1f4e" d="M 0 -2.5 
L -2.5 2.5 
L 2.5 2.5 
z
" style="stroke: #afafaf; stroke-linejoin: miter"/>
    </defs>
    <g>
     <use xlink:href="#m3b63cb1f4e" x="14.384375" y="5.5" style="fill: #afafaf; stroke: #afafaf; stroke-linejoin: miter"/>
    </g>
   </g>
   <g id="patch_3">
    <path d="M 14.384375 72.46 
L 14.384375 5.5 
" style="fill: none; stroke: #afafaf; stroke-width: 0.8; stroke-linejoin: miter; stroke-linecap: square"/>
   </g>
   <g id="patch_4">
    <path d="M 14.384375 38.98 
L 237.584375 38.98 
" style="fill: none; stroke: #afafaf; stroke-width: 0.8; stroke-linejoin: miter; stroke-linecap: square"/>
   </g>
   <g id="patch_5">
    <path d="M 36.759552 23.761818 
Q 66.727365 23.761818 96.695178 23.761818 
" style="fill: none; stroke: #afafaf; stroke-linecap: round"/>
    <path d="M 40.759552 25.761818 
L 36.759552 23.761818 
L 40.759552 21.761818 
" style="fill: none; stroke: #afafaf; stroke-linecap: round"/>
    <path d="M 92.695178 21.761818 
L 96.695178 23.761818 
L 92.695178 25.761818 
" style="fill: none; stroke: #afafaf; stroke-linecap: round"/>
   </g>
   <g id="text_2">
    <!-- $\approx$ 2.5 µs -->
    <g style="fill: #afafaf" transform="translate(46.270089 20.718182) scale(0.1 -0.1)">
     <defs>
      <path id="DejaVuSans-2248" d="M 4684 1947 
L 4684 1388 
Q 4356 1144 4076 1036 
Q 3797 928 3494 928 
Q 3150 928 2694 1113 
Q 2663 1125 2641 1134 
Q 2622 1141 2575 1159 
Q 2091 1350 1797 1350 
Q 1522 1350 1253 1231 
Q 984 1113 678 850 
L 678 1409 
Q 1006 1653 1286 1761 
Q 1566 1869 1869 1869 
Q 2213 1869 2672 1684 
Q 2706 1669 2722 1663 
Q 2741 1656 2788 1638 
Q 3272 1447 3566 1447 
Q 3834 1447 4098 1564 
Q 4363 1681 4684 1947 
z
M 4684 3163 
L 4684 2606 
Q 4356 2359 4076 2251 
Q 3797 2144 3494 2144 
Q 3150 2144 2694 2328 
Q 2663 2341 2641 2350 
Q 2622 2356 2575 2375 
Q 2091 2566 1797 2566 
Q 1522 2566 1253 2447 
Q 984 2328 678 2069 
L 678 2625 
Q 1006 2869 1286 2976 
Q 1566 3084 1869 3084 
Q 2213 3084 2672 2900 
Q 2703 2888 2719 2881 
Q 2741 2872 2788 2853 
Q 3272 2663 3566 2663 
Q 3834 2663 4098 2780 
Q 4363 2897 4684 3163 
z
" transform="scale(0.015625)"/>
      <path id="ArialMT-32" d="M 3222 541 
L 3222 0 
L 194 0 
Q 188 203 259 391 
Q 375 700 629 1000 
Q 884 1300 1366 1694 
Q 2113 2306 2375 2664 
Q 2638 3022 2638 3341 
Q 2638 3675 2398 3904 
Q 2159 4134 1775 4134 
Q 1369 4134 1125 3890 
Q 881 3647 878 3216 
L 300 3275 
Q 359 3922 746 4261 
Q 1134 4600 1788 4600 
Q 2447 4600 2831 4234 
Q 3216 3869 3216 3328 
Q 3216 3053 3103 2787 
Q 2991 2522 2730 2228 
Q 2469 1934 1863 1422 
Q 1356 997 1212 845 
Q 1069 694 975 541 
L 3222 541 
z
" transform="scale(0.015625)"/>
      <path id="ArialMT-2e" d="M 581 0 
L 581 641 
L 1222 641 
L 1222 0 
L 581 0 
z
" transform="scale(0.015625)"/>
      <path id="ArialMT-35" d="M 266 1200 
L 856 1250 
Q 922 819 1161 601 
Q 1400 384 1738 384 
Q 2144 384 2425 690 
Q 2706 997 2706 1503 
Q 2706 1984 2436 2262 
Q 2166 2541 1728 2541 
Q 1456 2541 1237 2417 
Q 1019 2294 894 2097 
L 366 2166 
L 809 4519 
L 3088 4519 
L 3088 3981 
L 1259 3981 
L 1013 2750 
Q 1425 3038 1878 3038 
Q 2478 3038 2890 2622 
Q 3303 2206 3303 1553 
Q 3303 931 2941 478 
Q 2500 -78 1738 -78 
Q 1113 -78 717 272 
Q 322 622 266 1200 
z
" transform="scale(0.015625)"/>
      <path id="ArialMT-b5" d="M 3181 3319 
L 3181 0 
L 2678 0 
L 2678 394 
Q 2516 144 2356 50 
Q 2138 -78 1847 -78 
Q 1588 -78 1388 25 
Q 1238 103 1056 334 
L 1056 -1272 
L 500 -1272 
L 500 3319 
L 1056 3319 
L 1056 1913 
Q 1056 1147 1137 920 
Q 1219 694 1401 562 
Q 1584 431 1822 431 
Q 2072 431 2269 568 
Q 2466 706 2547 923 
Q 2628 1141 2628 1903 
L 2628 3319 
L 3181 3319 
z
" transform="scale(0.015625)"/>
      <path id="ArialMT-73" d="M 197 991 
L 753 1078 
Q 800 744 1014 566 
Q 1228 388 1613 388 
Q 2000 388 2187 545 
Q 2375 703 2375 916 
Q 2375 1106 2209 1216 
Q 2094 1291 1634 1406 
Q 1016 1563 777 1677 
Q 538 1791 414 1992 
Q 291 2194 291 2438 
Q 291 2659 392 2848 
Q 494 3038 669 3163 
Q 800 3259 1026 3326 
Q 1253 3394 1513 3394 
Q 1903 3394 2198 3281 
Q 2494 3169 2634 2976 
Q 2775 2784 2828 2463 
L 2278 2388 
Q 2241 2644 2061 2787 
Q 1881 2931 1553 2931 
Q 1166 2931 1000 2803 
Q 834 2675 834 2503 
Q 834 2394 903 2306 
Q 972 2216 1119 2156 
Q 1203 2125 1616 2013 
Q 2213 1853 2448 1751 
Q 2684 1650 2818 1456 
Q 2953 1263 2953 975 
Q 2953 694 2789 445 
Q 2625 197 2315 61 
Q 2006 -75 1616 -75 
Q 969 -75 630 194 
Q 291 463 197 991 
z
" transform="scale(0.015625)"/>
     </defs>
     <use xlink:href="#DejaVuSans-2248" transform="translate(19.482422 0.125)"/>
     <use xlink:href="#ArialMT-20" transform="translate(122.753906 0.125)"/>
     <use xlink:href="#ArialMT-32" transform="translate(150.537109 0.125)"/>
     <use xlink:href="#ArialMT-2e" transform="translate(206.152344 0.125)"/>
     <use xlink:href="#ArialMT-35" transform="translate(233.935547 0.125)"/>
     <use xlink:href="#ArialMT-20" transform="translate(289.550781 0.125)"/>
     <use xlink:href="#ArialMT-b5" transform="translate(317.333984 0.125)"/>
     <use xlink:href="#ArialMT-73" transform="translate(374.951172 0.125)"/>
    </g>
   </g>
  </g>
  <g id="axes_2">
   <g id="patch_6">
    <path d="M 14.384375 151.92 
L 237.584375 151.92 
L 237.584375 84.96 
L 14.384375 84.96 
L 14.384375 151.92 
z
" style="fill: none"/>
   </g>
   <g id="matplotlib.axis_3"/>
   <g id="matplotlib.axis_4">
    <g id="text_3">
     <!-- ADC sample -->
     <g style="fill: #afafaf" transform="translate(10.396875 146.503281) rotate(-90) scale(0.1 -0.1)">
      <defs>
       <path id="ArialMT-41" d="M -9 0 
L 1750 4581 
L 2403 4581 
L 4278 0 
L 3588 0 
L 3053 1388 
L 1138 1388 
L 634 0 
L -9 0 
z
M 1313 1881 
L 2866 1881 
L 2388 3150 
Q 2169 3728 2063 4100 
Q 1975 3659 1816 3225 
L 1313 1881 
z
" transform="scale(0.015625)"/>
       <path id="ArialMT-44" d="M 494 0 
L 494 4581 
L 2072 4581 
Q 2606 4581 2888 4516 
Q 3281 4425 3559 4188 
Q 3922 3881 4101 3404 
Q 4281 2928 4281 2316 
Q 4281 1794 4159 1391 
Q 4038 988 3847 723 
Q 3656 459 3429 307 
Q 3203 156 2883 78 
Q 2563 0 2147 0 
L 494 0 
z
M 1100 541 
L 2078 541 
Q 2531 541 2789 625 
Q 3047 709 3200 863 
Q 3416 1078 3536 1442 
Q 3656 1806 3656 2325 
Q 3656 3044 3420 3430 
Q 3184 3816 2847 3947 
Q 2603 4041 2063 4041 
L 1100 4041 
L 1100 541 
z
" transform="scale(0.015625)"/>
       <path id="ArialMT-43" d="M 3763 1606 
L 4369 1453 
Q 4178 706 3683 314 
Q 3188 -78 2472 -78 
Q 1731 -78 1267 223 
Q 803 525 561 1097 
Q 319 1669 319 2325 
Q 319 3041 592 3573 
Q 866 4106 1370 4382 
Q 1875 4659 2481 4659 
Q 3169 4659 3637 4309 
Q 4106 3959 4291 3325 
L 3694 3184 
Q 3534 3684 3231 3912 
Q 2928 4141 2469 4141 
Q 1941 4141 1586 3887 
Q 1231 3634 1087 3207 
Q 944 2781 944 2328 
Q 944 1744 1114 1308 
Q 1284 872 1643 656 
Q 2003 441 2422 441 
Q 2931 441 3284 734 
Q 3638 1028 3763 1606 
z
" transform="scale(0.015625)"/>
       <path id="ArialMT-6d" d="M 422 0 
L 422 3319 
L 925 3319 
L 925 2853 
Q 1081 3097 1340 3245 
Q 1600 3394 1931 3394 
Q 2300 3394 2536 3241 
Q 2772 3088 2869 2813 
Q 3263 3394 3894 3394 
Q 4388 3394 4653 3120 
Q 4919 2847 4919 2278 
L 4919 0 
L 4359 0 
L 4359 2091 
Q 4359 2428 4304 2576 
Q 4250 2725 4106 2815 
Q 3963 2906 3769 2906 
Q 3419 2906 3187 2673 
Q 2956 2441 2956 1928 
L 2956 0 
L 2394 0 
L 2394 2156 
Q 2394 2531 2256 2718 
Q 2119 2906 1806 2906 
Q 1569 2906 1367 2781 
Q 1166 2656 1075 2415 
Q 984 2175 984 1722 
L 984 0 
L 422 0 
z
" transform="scale(0.015625)"/>
       <path id="ArialMT-70" d="M 422 -1272 
L 422 3319 
L 934 3319 
L 934 2888 
Q 1116 3141 1344 3267 
Q 1572 3394 1897 3394 
Q 2322 3394 2647 3175 
Q 2972 2956 3137 2557 
Q 3303 2159 3303 1684 
Q 3303 1175 3120 767 
Q 2938 359 2589 142 
Q 2241 -75 1856 -75 
Q 1575 -75 1351 44 
Q 1128 163 984 344 
L 984 -1272 
L 422 -1272 
z
M 931 1641 
Q 931 1000 1190 694 
Q 1450 388 1819 388 
Q 2194 388 2461 705 
Q 2728 1022 2728 1688 
Q 2728 2322 2467 2637 
Q 2206 2953 1844 2953 
Q 1484 2953 1207 2617 
Q 931 2281 931 1641 
z
" transform="scale(0.015625)"/>
      </defs>
      <use xlink:href="#ArialMT-41"/>
      <use xlink:href="#ArialMT-44" transform="translate(66.699219 0)"/>
      <use xlink:href="#ArialMT-43" transform="translate(138.916016 0)"/>
      <use xlink:href="#ArialMT-20" transform="translate(211.132812 0)"/>
      <use xlink:href="#ArialMT-73" transform="translate(238.916016 0)"/>
      <use xlink:href="#ArialMT-61" transform="translate(288.916016 0)"/>
      <use xlink:href="#ArialMT-6d" transform="translate(344.53125 0)"/>
      <use xlink:href="#ArialMT-70" transform="translate(427.832031 0)"/>
      <use xlink:href="#ArialMT-6c" transform="translate(483.447266 0)"/>
      <use xlink:href="#ArialMT-65" transform="translate(505.664062 0)"/>
     </g>
    </g>
   </g>
   <g id="line2d_4">
    <path d="M 14.384375 118.44 
L 16.531561 118.44 
L 18.678747 118.44 
L 20.825933 118.44 
L 22.97312 118.44 
L 25.120306 118.44 
L 27.267492 118.44 
L 29.414678 118.44 
L 31.561864 118.44 
L 33.70905 118.44 
L 35.856236 88.003636 
L 38.003423 88.780692 
L 40.150609 89.53791 
L 42.297795 90.275795 
L 44.444981 90.994841 
L 46.592167 91.69553 
L 48.739353 92.37833 
L 50.88654 93.043698 
L 53.033726 93.692078 
L 55.180912 94.323905 
L 57.328098 94.939602 
L 59.475284 95.539579 
L 61.62247 96.124238 
L 63.769656 96.693971 
L 65.916843 97.249158 
L 68.064029 97.790171 
L 70.211215 98.317372 
L 72.358401 98.831113 
L 74.505587 99.331738 
L 76.652773 99.819581 
L 78.799959 100.29497 
L 80.947146 100.758222 
L 83.094332 101.209647 
L 85.241518 101.649547 
L 87.388704 102.078215 
L 89.53589 102.49594 
L 91.683076 102.903 
L 93.830262 103.299668 
L 95.977449 103.686208 
L 98.124635 104.06288 
L 100.271821 134.499243 
L 102.419007 133.722188 
L 104.566193 132.96497 
L 106.713379 132.227085 
L 108.860565 131.508039 
L 111.007752 130.80735 
L 113.154938 130.12455 
L 115.302124 129.459182 
L 117.44931 128.810802 
L 119.596496 128.178974 
L 121.743682 127.563278 
L 123.890869 126.963301 
L 126.038055 126.378642 
L 128.185241 125.808909 
L 130.332427 125.253722 
L 132.479613 124.712709 
L 134.626799 124.185508 
L 136.773985 123.671767 
L 138.921172 123.171142 
L 141.068358 122.683298 
L 143.215544 92.246935 
L 145.36273 93.023991 
L 147.509916 93.781208 
L 149.657102 94.519093 
L 151.804288 95.23814 
L 153.951475 95.938829 
L 156.098661 96.621628 
L 158.245847 97.286996 
L 160.393033 97.935377 
L 162.540219 98.567204 
L 164.687405 99.1829 
L 166.834591 99.782877 
L 168.981778 100.367537 
L 171.128964 100.937269 
L 173.27615 101.492457 
L 175.423336 102.03347 
L 177.570522 102.56067 
L 179.717708 103.074411 
L 181.864894 103.575036 
L 184.012081 104.06288 
L 186.159267 104.538269 
L 188.306453 105.00152 
L 190.453639 105.452945 
L 192.600825 105.892845 
L 194.748011 106.321514 
L 196.895198 106.739239 
L 199.042384 107.146299 
L 201.18957 107.542966 
L 203.336756 107.929506 
L 205.483942 108.306178 
L 207.631128 138.742542 
L 209.778314 137.965486 
L 211.925501 137.208269 
L 214.072687 136.470384 
L 216.219873 135.751337 
L 218.367059 135.050648 
L 220.514245 134.367848 
L 222.661431 133.702481 
L 224.808617 133.0541 
L 226.955804 132.422273 
" clip-path="url(#pc375ee6080)" style="fill: none; stroke: #ed7800; stroke-width: 3; stroke-linecap: square"/>
   </g>
   <g id="line2d_5">
    <path d="M 14.384375 122.683298 
L 237.584375 122.683298 
" clip-path="url(#pc375ee6080)" style="fill: none; stroke-dasharray: 0.8,1.32; stroke-dashoffset: 0; stroke: #afafaf; stroke-width: 0.8"/>
   </g>
   <g id="line2d_6">
    <g>
     <use xlink:href="#mc59b60ba76" x="237.584375" y="118.44" style="fill: #afafaf; stroke: #afafaf; stroke-linejoin: miter"/>
    </g>
   </g>
   <g id="line2d_7">
    <g>
     <use xlink:href="#m3b63cb1f4e" x="14.384375" y="84.96" style="fill: #afafaf; stroke: #afafaf; stroke-linejoin: miter"/>
    </g>
   </g>
   <g id="patch_7">
    <path d="M 14.384375 151.92 
L 14.384375 84.96 
" style="fill: none; stroke: #afafaf; stroke-width: 0.8; stroke-linejoin: miter; stroke-linecap: square"/>
   </g>
   <g id="patch_8">
    <path d="M 14.384375 118.44 
L 237.584375 118.44 
" style="fill: none; stroke: #afafaf; stroke-width: 0.8; stroke-linejoin: miter; stroke-linecap: square"/>
   </g>
   <g id="patch_9">
    <path d="M 152.247795 139.806111 
Q 146.611874 132.052562 141.633318 125.203375 
" style="fill: none; stroke: #afafaf; stroke-linecap: round"/>
    <path d="M 142.367407 129.61485 
L 141.633318 125.203375 
L 145.602952 127.262989 
" style="fill: none; stroke: #afafaf; stroke-linecap: round"/>
   </g>
   <g id="text_4">
    <!-- shifted baseline -->
    <g style="fill: #afafaf" transform="translate(123.456875 150.5808) scale(0.1 -0.1)">
     <defs>
      <path id="ArialMT-66" d="M 556 0 
L 556 2881 
L 59 2881 
L 59 3319 
L 556 3319 
L 556 3672 
Q 556 4006 616 4169 
Q 697 4388 901 4523 
Q 1106 4659 1475 4659 
Q 1713 4659 2000 4603 
L 1916 4113 
Q 1741 4144 1584 4144 
Q 1328 4144 1222 4034 
Q 1116 3925 1116 3625 
L 1116 3319 
L 1763 3319 
L 1763 2881 
L 1116 2881 
L 1116 0 
L 556 0 
z
" transform="scale(0.015625)"/>
      <path id="ArialMT-64" d="M 2575 0 
L 2575 419 
Q 2259 -75 1647 -75 
Q 1250 -75 917 144 
Q 584 363 401 755 
Q 219 1147 219 1656 
Q 219 2153 384 2558 
Q 550 2963 881 3178 
Q 1213 3394 1622 3394 
Q 1922 3394 2156 3267 
Q 2391 3141 2538 2938 
L 2538 4581 
L 3097 4581 
L 3097 0 
L 2575 0 
z
M 797 1656 
Q 797 1019 1065 703 
Q 1334 388 1700 388 
Q 2069 388 2326 689 
Q 2584 991 2584 1609 
Q 2584 2291 2321 2609 
Q 2059 2928 1675 2928 
Q 1300 2928 1048 2622 
Q 797 2316 797 1656 
z
" transform="scale(0.015625)"/>
      <path id="ArialMT-62" d="M 941 0 
L 419 0 
L 419 4581 
L 981 4581 
L 981 2947 
Q 1338 3394 1891 3394 
Q 2197 3394 2470 3270 
Q 2744 3147 2920 2923 
Q 3097 2700 3197 2384 
Q 3297 2069 3297 1709 
Q 3297 856 2875 390 
Q 2453 -75 1863 -75 
Q 1275 -75 941 416 
L 941 0 
z
M 934 1684 
Q 934 1088 1097 822 
Q 1363 388 1816 388 
Q 2184 388 2453 708 
Q 2722 1028 2722 1663 
Q 2722 2313 2464 2622 
Q 2206 2931 1841 2931 
Q 1472 2931 1203 2611 
Q 934 2291 934 1684 
z
" transform="scale(0.015625)"/>
     </defs>
     <use xlink:href="#ArialMT-73"/>
     <use xlink:href="#ArialMT-68" transform="translate(50 0)"/>
     <use xlink:href="#ArialMT-69" transform="translate(105.615234 0)"/>
     <use xlink:href="#ArialMT-66" transform="translate(127.832031 0)"/>
     <use xlink:href="#ArialMT-74" transform="translate(155.615234 0)"/>
     <use xlink:href="#ArialMT-65" transform="translate(183.398438 0)"/>
     <use xlink:href="#ArialMT-64" transform="translate(239.013672 0)"/>
     <use xlink:href="#ArialMT-20" transform="translate(294.628906 0)"/>
     <use xlink:href="#ArialMT-62" transform="translate(322.412109 0)"/>
     <use xlink:href="#ArialMT-61" transform="translate(378.027344 0)"/>
     <use xlink:href="#ArialMT-73" transform="translate(433.642578 0)"/>
     <use xlink:href="#ArialMT-65" transform="translate(483.642578 0)"/>
     <use xlink:href="#ArialMT-6c" transform="translate(539.257812 0)"/>
     <use xlink:href="#ArialMT-69" transform="translate(561.474609 0)"/>
     <use xlink:href="#ArialMT-6e" transform="translate(583.691406 0)"/>
     <use xlink:href="#ArialMT-65" transform="translate(639.306641 0)"/>
    </g>
   </g>
  </g>
 </g>
 <defs>
  <clipPath id="p278be00822">
   <rect x="14.384375" y="5.5" width="223.2" height="66.96"/>
  </clipPath>
  <clipPath id="pc375ee6080">
   <rect x="14.384375" y="84.96" width="223.2" height="66.96"/>
  </clipPath>
 </defs>
</svg>
