<?xml version="1.0" encoding="UTF-8" standalone="no"?>
<!-- Created with Inkscape (http://www.inkscape.org/) -->

<svg
   xmlns:dc="http://purl.org/dc/elements/1.1/"
   xmlns:cc="http://creativecommons.org/ns#"
   xmlns:rdf="http://www.w3.org/1999/02/22-rdf-syntax-ns#"
   xmlns:svg="http://www.w3.org/2000/svg"
   xmlns="http://www.w3.org/2000/svg"
   xmlns:sodipodi="http://sodipodi.sourceforge.net/DTD/sodipodi-0.dtd"
   xmlns:inkscape="http://www.inkscape.org/namespaces/inkscape"
   width="853.68176"
   height="341.78665"
   id="svg2"
   version="1.1"
   inkscape:version="0.48.4 r9939"
   sodipodi:docname="DigitalInput.svg">
  <defs
     id="defs4">
    <filter
       id="filter3058"
       inkscape:label="Drop Shadow"
       color-interpolation-filters="sRGB">
      <feFlood
         id="feFlood3060"
         flood-opacity="0.5"
         flood-color="rgb(0,0,0)"
         result="flood" />
      <feComposite
         id="feComposite3062"
         in2="SourceGraphic"
         in="flood"
         operator="in"
         result="composite1" />
      <feGaussianBlur
         id="feGaussianBlur3064"
         stdDeviation="2"
         result="blur" />
      <feOffset
         id="feOffset3066"
         dx="4"
         dy="4"
         result="offset" />
      <feComposite
         id="feComposite3068"
         in2="offset"
         in="SourceGraphic"
         operator="over"
         result="composite2" />
    </filter>
  </defs>
  <sodipodi:namedview
     id="base"
     pagecolor="#ffffff"
     bordercolor="#666666"
     borderopacity="1.0"
     inkscape:pageopacity="0.0"
     inkscape:pageshadow="2"
     inkscape:zoom="1.4"
     inkscape:cx="372.99225"
     inkscape:cy="95.293925"
     inkscape:document-units="px"
     inkscape:current-layer="layer1"
     showgrid="false"
     fit-margin-top="0"
     fit-margin-left="0"
     fit-margin-right="0"
     fit-margin-bottom="0"
     inkscape:window-width="1680"
     inkscape:window-height="987"
     inkscape:window-x="-8"
     inkscape:window-y="-8"
     inkscape:window-maximized="1" />
  <metadata
     id="metadata7">
    <rdf:RDF>
      <cc:Work
         rdf:about="">
        <dc:format>image/svg+xml</dc:format>
        <dc:type
           rdf:resource="http://purl.org/dc/dcmitype/StillImage" />
        <dc:title />
      </cc:Work>
    </rdf:RDF>
  </metadata>
  <g
     inkscape:label="Ebene 1"
     inkscape:groupmode="layer"
     id="layer1"
     transform="translate(22.992252,-285.86946)">
    <rect
       style="fill:#ffffff;fill-opacity:1;stroke:#000000;stroke-width:1.02786386;stroke-linecap:round;stroke-linejoin:round;stroke-miterlimit:4;stroke-opacity:1;stroke-dasharray:none;filter:url(#filter3058)"
       id="rect3020"
       width="474.25784"
       height="189.25784"
       x="51.875732"
       y="408.09247"
       transform="matrix(1.4026651,0,0,1.4026651,-1.5435078,-248.4012)" />
    <g
       id="g4415"
       transform="matrix(1.4026651,0,0,1.4026651,80.733809,332.42896)">
      <text
         id="text4417"
         style="font-size:20.01968575px;font-style:normal;font-weight:normal;text-align:start;text-anchor:start;fill:#000000;font-family:Arial"
         y="115.11319"
         x="13.763534"
         xml:space="preserve">rising</text>
      <path
         id="path4419"
         d="m 88.055337,140.0596 c 36.520283,0 66.158803,-15.87499 66.158803,-35.42546 0.0782,-19.628677 -29.56032,-35.503663 -66.158803,-35.503663 0,0 0,0 0,0 18.221043,14.701957 21.974733,42.463633 8.211199,62.092303 -2.346057,3.36269 -5.083124,6.33436 -8.211199,8.83682"
         style="fill:#ffffff;fill-opacity:1;fill-rule:evenodd;stroke:none"
         inkscape:connector-curvature="0" />
      <path
         id="path4421"
         d="m 88.055337,140.0596 c 36.520283,0 66.158803,-15.87499 66.158803,-35.42546 0.0782,-19.628677 -29.56032,-35.503663 -66.158803,-35.503663 0,0 0,0 0,0 18.221043,14.701957 21.974733,42.463633 8.211199,62.092303 -2.346057,3.36269 -5.083124,6.33436 -8.211199,8.83682"
         style="fill:none;stroke:#000000;stroke-width:2.03324938px;stroke-linecap:round;stroke-linejoin:round;stroke-opacity:1;stroke-dasharray:none"
         inkscape:connector-curvature="0" />
      <path
         id="path4423"
         d="m 73.822591,69.130477 c 18.377446,9.540632 26.041232,33.157603 17.126216,52.786283 -3.675489,7.89839 -9.697036,14.31095 -17.126216,18.14284"
         style="fill:none;stroke:#000000;stroke-width:2.03324938px;stroke-linecap:round;stroke-linejoin:round;stroke-opacity:1;stroke-dasharray:none"
         inkscape:connector-curvature="0" />
      <path
         id="path4425"
         d="m 2.8934702,121.13474 81.7991848,0"
         style="fill:none;stroke:#000000;stroke-width:2.03324938px;stroke-linecap:round;stroke-linejoin:round;stroke-opacity:1;stroke-dasharray:none"
         inkscape:connector-curvature="0" />
      <path
         id="path4427"
         d="m 2.8934702,88.055337 87.5079228,0"
         style="fill:none;stroke:#000000;stroke-width:2.03324938px;stroke-linecap:round;stroke-linejoin:round;stroke-opacity:1;stroke-dasharray:none"
         inkscape:connector-curvature="0" />
      <path
         id="path4429"
         d="m 154.21414,104.55594 212.86557,0"
         style="fill:none;stroke:#000000;stroke-width:2.03324938px;stroke-linecap:round;stroke-linejoin:round;stroke-opacity:1;stroke-dasharray:none"
         inkscape:connector-curvature="0" />
      <path
         id="path4431"
         d="m 89.462971,121.13474 c 0,-3.67549 -3.206278,-6.64716 -7.116373,-6.64716 -3.910095,0 -7.116373,2.97167 -7.116373,6.64716 0,3.67549 3.206278,6.64716 7.116373,6.64716 3.910095,0 7.116373,-2.97167 7.116373,-6.64716"
         style="fill:#ffffff;fill-opacity:1;fill-rule:evenodd;stroke:none"
         inkscape:connector-curvature="0" />
      <path
         id="path4433"
         d="m 89.462971,121.13474 c 0,-3.67549 -3.206278,-6.64716 -7.116373,-6.64716 -3.910095,0 -7.116373,2.97167 -7.116373,6.64716 0,3.67549 3.206278,6.64716 7.116373,6.64716 3.910095,0 7.116373,-2.97167 7.116373,-6.64716"
         style="fill:none;stroke:#000000;stroke-width:2.03324938px;stroke-linecap:round;stroke-linejoin:round;stroke-opacity:1;stroke-dasharray:none"
         inkscape:connector-curvature="0" />
      <path
         id="path4435"
         d="m 192.06386,64.829373 99.31641,0"
         style="fill:none;stroke:#000000;stroke-width:2.03324938px;stroke-linecap:round;stroke-linejoin:round;stroke-opacity:1;stroke-dasharray:none"
         inkscape:connector-curvature="0" />
      <path
         id="path4437"
         d="m 192.06386,26.588645 0,77.967295"
         style="fill:none;stroke:#000000;stroke-width:2.03324938px;stroke-linecap:round;stroke-linejoin:round;stroke-opacity:1;stroke-dasharray:none"
         inkscape:connector-curvature="0" />
      <path
         id="path4439"
         d="m 192.06386,26.588645 18.92486,0"
         style="fill:none;stroke:#000000;stroke-width:2.03324938px;stroke-linecap:round;stroke-linejoin:round;stroke-opacity:1;stroke-dasharray:none"
         inkscape:connector-curvature="0" />
      <path
         id="path4441"
         d="m 210.98872,12.3559 0,28.387289 47.31215,0 0,-28.387289 -47.31215,0 z"
         style="fill:#ffffff;fill-opacity:1;fill-rule:evenodd;stroke:none"
         inkscape:connector-curvature="0" />
      <path
         id="path4443"
         d="m 210.98872,40.743189 47.31215,0 0,-28.387289 -47.31215,0 0,28.387289 z"
         style="fill:none;stroke:#000000;stroke-width:2.03324938px;stroke-linecap:round;stroke-linejoin:round;stroke-opacity:1;stroke-dasharray:none"
         inkscape:connector-curvature="0" />
      <text
         id="text4445"
         style="font-size:20.01968575px;font-style:normal;font-weight:normal;text-align:start;text-anchor:start;fill:#000000;font-family:Arial"
         y="32.53199"
         x="222.71899"
         xml:space="preserve">Z</text>
      <text
         id="text4447"
         style="font-size:13.76353359px;font-style:normal;font-weight:normal;text-align:start;text-anchor:start;fill:#000000;font-family:Arial"
         y="26.275839"
         x="235.23131"
         xml:space="preserve">-</text>
      <text
         id="text4449"
         style="font-size:13.76353359px;font-style:normal;font-weight:normal;text-align:start;text-anchor:start;fill:#000000;font-family:Arial"
         y="26.275839"
         x="238.985"
         xml:space="preserve">1</text>
      <path
         id="path4451"
         d="m 258.30087,26.588645 18.92486,0"
         style="fill:none;stroke:#000000;stroke-width:2.03324938px;stroke-linecap:round;stroke-linejoin:round;stroke-opacity:1;stroke-dasharray:none"
         inkscape:connector-curvature="0" />
      <path
         id="path4453"
         d="m 338.77062,43.089245 28.30909,0"
         style="fill:none;stroke:#000000;stroke-width:2.03324938px;stroke-linecap:round;stroke-linejoin:round;stroke-opacity:1;stroke-dasharray:none"
         inkscape:connector-curvature="0" />
      <path
         id="path4455"
         d="m 367.07971,2.8934702 0,141.8582398 47.23394,-37.77151 0,-66.237011 -47.23394,-37.8497188 z"
         style="fill:#ffffff;fill-opacity:1;fill-rule:evenodd;stroke:none"
         inkscape:connector-curvature="0" />
      <path
         id="path4457"
         d="m 367.07971,2.8934702 0,141.8582398 47.23394,-37.77151 0,-66.237011 -47.23394,-37.8497188 z"
         style="fill:none;stroke:#000000;stroke-width:2.03324938px;stroke-linecap:round;stroke-linejoin:round;stroke-opacity:1;stroke-dasharray:none"
         inkscape:connector-curvature="0" />
      <path
         id="path4459"
         d="m 386.00457,104.55594 c 0,-3.59729 -3.20628,-6.568963 -7.11638,-6.568963 -3.91009,0 -7.11637,2.971673 -7.11637,6.568963 0,3.67549 3.20628,6.64716 7.11637,6.64716 3.9101,0 7.11638,-2.97167 7.11638,-6.64716"
         style="fill:#ffffff;fill-opacity:1;fill-rule:evenodd;stroke:none"
         inkscape:connector-curvature="0" />
      <path
         id="path4461"
         d="m 386.00457,104.55594 c 0,-3.59729 -3.20628,-6.568963 -7.11638,-6.568963 -3.91009,0 -7.11637,2.971673 -7.11637,6.568963 0,3.67549 3.20628,6.64716 7.11637,6.64716 3.9101,0 7.11638,-2.97167 7.11638,-6.64716"
         style="fill:none;stroke:#000000;stroke-width:2.03324938px;stroke-linecap:round;stroke-linejoin:round;stroke-opacity:1;stroke-dasharray:none"
         inkscape:connector-curvature="0" />
      <path
         id="path4463"
         d="m 377.48056,35.581863 0,14.154544"
         style="fill:none;stroke:#000000;stroke-width:2.03324938px;stroke-linecap:round;stroke-linejoin:round;stroke-opacity:1;stroke-dasharray:none"
         inkscape:connector-curvature="0" />
      <path
         id="path4465"
         d="m 390.77488,170.79294 0,-45.04429"
         style="fill:none;stroke:#000000;stroke-width:2.03324938px;stroke-linecap:round;stroke-linejoin:round;stroke-opacity:1;stroke-dasharray:none"
         inkscape:connector-curvature="0" />
      <path
         id="path4467"
         d="m 289.03421,170.79294 101.74067,0"
         style="fill:none;stroke:#000000;stroke-width:2.03324938px;stroke-linecap:round;stroke-linejoin:round;stroke-opacity:1;stroke-dasharray:none"
         inkscape:connector-curvature="0" />
      <text
         id="text4469"
         style="font-size:20.01968575px;font-style:normal;font-weight:normal;text-align:start;text-anchor:start;fill:#000000;font-family:Arial"
         y="165.16241"
         x="297.79282"
         xml:space="preserve">edge</text>
      <path
         id="path4471"
         d="m 414.31365,76.24685 42.62004,0"
         style="fill:none;stroke:#000000;stroke-width:2.03324938px;stroke-linecap:round;stroke-linejoin:round;stroke-opacity:1;stroke-dasharray:none"
         inkscape:connector-curvature="0" />
      <path
         id="path4473"
         d="m 291.53667,79.765935 0,-73.2751775 c 26.97966,0 48.87619,16.3441965 48.87619,36.5984875 0,20.254292 -21.89653,36.67669 -48.87619,36.67669 0,0 0,0 0,0 z"
         style="fill:#ffffff;fill-opacity:1;fill-rule:evenodd;stroke:none"
         inkscape:connector-curvature="0" />
      <path
         id="path4475"
         d="m 291.53667,79.765935 0,-73.2751775 c 26.97966,0 48.87619,16.3441965 48.87619,36.5984875 0,20.254292 -21.89653,36.67669 -48.87619,36.67669 0,0 0,0 0,0 z"
         style="fill:none;stroke:#000000;stroke-width:2.03324938px;stroke-linecap:round;stroke-linejoin:round;stroke-opacity:1;stroke-dasharray:none"
         inkscape:connector-curvature="0" />
      <path
         id="path4477"
         d="m 291.38027,26.588645 c 0,-3.675489 -3.20628,-6.647161 -7.11637,-6.647161 -3.9101,0 -7.03817,2.971672 -7.03817,6.647161 0,3.597287 3.12807,6.56896 7.03817,6.56896 3.91009,0 7.11637,-2.971673 7.11637,-6.56896"
         style="fill:#ffffff;fill-opacity:1;fill-rule:evenodd;stroke:none"
         inkscape:connector-curvature="0" />
      <path
         id="path4479"
         d="m 291.38027,26.588645 c 0,-3.675489 -3.20628,-6.647161 -7.11637,-6.647161 -3.9101,0 -7.03817,2.971672 -7.03817,6.647161 0,3.597287 3.12807,6.56896 7.03817,6.56896 3.91009,0 7.11637,-2.971673 7.11637,-6.56896"
         style="fill:none;stroke:#000000;stroke-width:2.03324938px;stroke-linecap:round;stroke-linejoin:round;stroke-opacity:1;stroke-dasharray:none"
         inkscape:connector-curvature="0" />
      <path
         id="path4481"
         d="m 194.80093,104.55594 c 0,-1.40764 -1.25123,-2.58067 -2.73707,-2.58067 -1.56404,0 -2.81527,1.17303 -2.81527,2.58067 0,1.48583 1.25123,2.65886 2.81527,2.65886 1.48584,0 2.73707,-1.17303 2.73707,-2.65886"
         style="fill:#000000;fill-opacity:1;fill-rule:evenodd;stroke:none"
         inkscape:connector-curvature="0" />
      <path
         id="path4483"
         d="m 194.80093,104.55594 c 0,-1.40764 -1.25123,-2.58067 -2.73707,-2.58067 -1.56404,0 -2.81527,1.17303 -2.81527,2.58067 0,1.48583 1.25123,2.65886 2.81527,2.65886 1.48584,0 2.73707,-1.17303 2.73707,-2.65886"
         style="fill:none;stroke:#000000;stroke-width:2.03324938px;stroke-linecap:round;stroke-linejoin:round;stroke-opacity:1;stroke-dasharray:none"
         inkscape:connector-curvature="0" />
      <path
         id="path4485"
         d="m 194.80093,64.829373 c 0,-1.407634 -1.25123,-2.580663 -2.73707,-2.580663 -1.56404,0 -2.81527,1.173029 -2.81527,2.580663 0,1.485836 1.25123,2.658864 2.81527,2.658864 1.48584,0 2.73707,-1.173028 2.73707,-2.658864"
         style="fill:#000000;fill-opacity:1;fill-rule:evenodd;stroke:none"
         inkscape:connector-curvature="0" />
      <path
         id="path4487"
         d="m 194.80093,64.829373 c 0,-1.407634 -1.25123,-2.580663 -2.73707,-2.580663 -1.56404,0 -2.81527,1.173029 -2.81527,2.580663 0,1.485836 1.25123,2.658864 2.81527,2.658864 1.48584,0 2.73707,-1.173028 2.73707,-2.658864"
         style="fill:none;stroke:#000000;stroke-width:2.03324938px;stroke-linecap:round;stroke-linejoin:round;stroke-opacity:1;stroke-dasharray:none"
         inkscape:connector-curvature="0" />
      <text
         id="text4489"
         style="font-size:20.01968575px;font-style:normal;font-weight:normal;text-align:start;text-anchor:start;fill:#000000;font-family:Arial"
         y="80.078743"
         x="13.763534"
         xml:space="preserve">input</text>
    </g>
  </g>
</svg>
