<?xml version="1.0" encoding="UTF-8" standalone="no"?>
<!-- Created with Inkscape (http://www.inkscape.org/) -->

<svg
   width="685.74292"
   height="285.98337"
   id="svg2"
   version="1.1"
   inkscape:version="1.3 (0e150ed6c4, 2023-07-21)"
   sodipodi:docname="DigitalInput.svg"
   inkscape:export-filename="DigitalInput.png"
   inkscape:export-xdpi="96"
   inkscape:export-ydpi="96"
   xmlns:inkscape="http://www.inkscape.org/namespaces/inkscape"
   xmlns:sodipodi="http://sodipodi.sourceforge.net/DTD/sodipodi-0.dtd"
   xmlns="http://www.w3.org/2000/svg"
   xmlns:svg="http://www.w3.org/2000/svg"
   xmlns:rdf="http://www.w3.org/1999/02/22-rdf-syntax-ns#"
   xmlns:cc="http://creativecommons.org/ns#"
   xmlns:dc="http://purl.org/dc/elements/1.1/">
  <defs
     id="defs4">
    <filter
       id="filter3058"
       inkscape:label="Drop Shadow"
       color-interpolation-filters="sRGB"
       x="-0.011204728"
       y="-0.028077727"
       width="1.0308437"
       height="1.0772906">
      <feFlood
         id="feFlood3060"
         flood-opacity="0.5"
         flood-color="rgb(0,0,0)"
         result="flood" />
      <feComposite
         id="feComposite3062"
         in2="SourceGraphic"
         in="flood"
         operator="in"
         result="composite1" />
      <feGaussianBlur
         id="feGaussianBlur3064"
         stdDeviation="2"
         result="blur" />
      <feOffset
         id="feOffset3066"
         dx="4"
         dy="4"
         result="offset" />
      <feComposite
         id="feComposite3068"
         in2="offset"
         in="SourceGraphic"
         operator="over"
         result="composite2" />
    </filter>
  </defs>
  <sodipodi:namedview
     id="base"
     pagecolor="#ffffff"
     bordercolor="#666666"
     borderopacity="1.0"
     inkscape:pageopacity="0.0"
     inkscape:pageshadow="2"
     inkscape:zoom="1.4"
     inkscape:cx="286.07143"
     inkscape:cy="64.642857"
     inkscape:document-units="px"
     inkscape:current-layer="layer1"
     showgrid="false"
     fit-margin-top="0"
     fit-margin-left="0"
     fit-margin-right="0"
     fit-margin-bottom="0"
     inkscape:window-width="3440"
     inkscape:window-height="1369"
     inkscape:window-x="-8"
     inkscape:window-y="-8"
     inkscape:window-maximized="1"
     inkscape:showpageshadow="2"
     inkscape:pagecheckerboard="0"
     inkscape:deskcolor="#d1d1d1" />
  <metadata
     id="metadata7">
    <rdf:RDF>
      <cc:Work
         rdf:about="">
        <dc:format>image/svg+xml</dc:format>
        <dc:type
           rdf:resource="http://purl.org/dc/dcmitype/StillImage" />
        <dc:title />
      </cc:Work>
    </rdf:RDF>
  </metadata>
  <g
     inkscape:label="Ebene 1"
     inkscape:groupmode="layer"
     id="layer1"
     transform="translate(-63.767105,-316.5622)">
    <rect
       style="fill:#ffffff;fill-opacity:1;stroke:#000000;stroke-width:1.02786;stroke-linecap:round;stroke-linejoin:round;stroke-miterlimit:4;stroke-dasharray:none;stroke-opacity:1;filter:url(#filter3058)"
       id="rect3020"
       width="474.25784"
       height="189.25784"
       x="51.875732"
       y="408.09247"
       transform="matrix(1.4026651,0,0,1.4026651,-1.5435078,-248.4012)" />
    <g
       id="g4415"
       transform="matrix(1.4026651,0,0,1.4026651,80.733809,332.42896)">
      <text
         id="text4417"
         style="font-style:normal;font-weight:normal;font-size:20.0197px;line-height:0%;font-family:Arial;text-align:start;text-anchor:start;fill:#000000"
         y="115.11319"
         x="13.763534"
         xml:space="preserve">rising</text>
      <path
         id="path4419"
         d="m 88.055337,140.0596 c 36.520283,0 66.158803,-15.87499 66.158803,-35.42546 0.0782,-19.628677 -29.56032,-35.503663 -66.158803,-35.503663 0,0 0,0 0,0 18.221043,14.701957 21.974733,42.463633 8.211199,62.092303 -2.346057,3.36269 -5.083124,6.33436 -8.211199,8.83682"
         style="fill:#ffffff;fill-opacity:1;fill-rule:evenodd;stroke:none"
         inkscape:connector-curvature="0" />
      <path
         id="path4421"
         d="m 88.055337,140.0596 c 36.520283,0 66.158803,-15.87499 66.158803,-35.42546 0.0782,-19.628677 -29.56032,-35.503663 -66.158803,-35.503663 0,0 0,0 0,0 18.221043,14.701957 21.974733,42.463633 8.211199,62.092303 -2.346057,3.36269 -5.083124,6.33436 -8.211199,8.83682"
         style="fill:none;stroke:#000000;stroke-width:2.03325px;stroke-linecap:round;stroke-linejoin:round;stroke-dasharray:none;stroke-opacity:1"
         inkscape:connector-curvature="0" />
      <path
         id="path4423"
         d="m 73.822591,69.130477 c 18.377446,9.540632 26.041232,33.157603 17.126216,52.786283 -3.675489,7.89839 -9.697036,14.31095 -17.126216,18.14284"
         style="fill:none;stroke:#000000;stroke-width:2.03325px;stroke-linecap:round;stroke-linejoin:round;stroke-dasharray:none;stroke-opacity:1"
         inkscape:connector-curvature="0" />
      <path
         id="path4425"
         d="M 2.8934702,121.13474 H 84.692655"
         style="fill:none;stroke:#000000;stroke-width:2.03325px;stroke-linecap:round;stroke-linejoin:round;stroke-dasharray:none;stroke-opacity:1"
         inkscape:connector-curvature="0" />
      <path
         id="path4427"
         d="M 2.8934702,88.055337 H 90.401393"
         style="fill:none;stroke:#000000;stroke-width:2.03325px;stroke-linecap:round;stroke-linejoin:round;stroke-dasharray:none;stroke-opacity:1"
         inkscape:connector-curvature="0" />
      <path
         id="path4429"
         d="M 154.21414,104.55594 H 367.07971"
         style="fill:none;stroke:#000000;stroke-width:2.03325px;stroke-linecap:round;stroke-linejoin:round;stroke-dasharray:none;stroke-opacity:1"
         inkscape:connector-curvature="0" />
      <path
         id="path4431"
         d="m 89.462971,121.13474 c 0,-3.67549 -3.206278,-6.64716 -7.116373,-6.64716 -3.910095,0 -7.116373,2.97167 -7.116373,6.64716 0,3.67549 3.206278,6.64716 7.116373,6.64716 3.910095,0 7.116373,-2.97167 7.116373,-6.64716"
         style="fill:#ffffff;fill-opacity:1;fill-rule:evenodd;stroke:none"
         inkscape:connector-curvature="0" />
      <path
         id="path4433"
         d="m 89.462971,121.13474 c 0,-3.67549 -3.206278,-6.64716 -7.116373,-6.64716 -3.910095,0 -7.116373,2.97167 -7.116373,6.64716 0,3.67549 3.206278,6.64716 7.116373,6.64716 3.910095,0 7.116373,-2.97167 7.116373,-6.64716"
         style="fill:none;stroke:#000000;stroke-width:2.03325px;stroke-linecap:round;stroke-linejoin:round;stroke-dasharray:none;stroke-opacity:1"
         inkscape:connector-curvature="0" />
      <path
         id="path4435"
         d="m 192.06386,64.829373 h 99.31641"
         style="fill:none;stroke:#000000;stroke-width:2.03325px;stroke-linecap:round;stroke-linejoin:round;stroke-dasharray:none;stroke-opacity:1"
         inkscape:connector-curvature="0" />
      <path
         id="path4437"
         d="M 192.06386,26.588645 V 104.55594"
         style="fill:none;stroke:#000000;stroke-width:2.03325px;stroke-linecap:round;stroke-linejoin:round;stroke-dasharray:none;stroke-opacity:1"
         inkscape:connector-curvature="0" />
      <path
         id="path4439"
         d="m 192.06386,26.588645 h 18.92486"
         style="fill:none;stroke:#000000;stroke-width:2.03325px;stroke-linecap:round;stroke-linejoin:round;stroke-dasharray:none;stroke-opacity:1"
         inkscape:connector-curvature="0" />
      <path
         id="path4441"
         d="m 210.98872,12.3559 v 28.387289 h 47.31215 V 12.3559 Z"
         style="fill:#ffffff;fill-opacity:1;fill-rule:evenodd;stroke:none"
         inkscape:connector-curvature="0" />
      <path
         id="path4443"
         d="m 210.98872,40.743189 h 47.31215 V 12.3559 h -47.31215 z"
         style="fill:none;stroke:#000000;stroke-width:2.03325px;stroke-linecap:round;stroke-linejoin:round;stroke-dasharray:none;stroke-opacity:1"
         inkscape:connector-curvature="0" />
      <text
         id="text4445"
         style="font-style:normal;font-weight:normal;font-size:20.0197px;line-height:0%;font-family:Arial;text-align:start;text-anchor:start;fill:#000000"
         y="32.53199"
         x="222.71899"
         xml:space="preserve">Z</text>
      <text
         id="text4447"
         style="font-style:normal;font-weight:normal;font-size:13.7635px;line-height:0%;font-family:Arial;text-align:start;text-anchor:start;fill:#000000"
         y="26.275839"
         x="235.23131"
         xml:space="preserve">-</text>
      <text
         id="text4449"
         style="font-style:normal;font-weight:normal;font-size:13.7635px;line-height:0%;font-family:Arial;text-align:start;text-anchor:start;fill:#000000"
         y="26.275839"
         x="238.985"
         xml:space="preserve">1</text>
      <path
         id="path4451"
         d="m 258.30087,26.588645 h 18.92486"
         style="fill:none;stroke:#000000;stroke-width:2.03325px;stroke-linecap:round;stroke-linejoin:round;stroke-dasharray:none;stroke-opacity:1"
         inkscape:connector-curvature="0" />
      <path
         id="path4453"
         d="m 338.77062,43.089245 h 28.30909"
         style="fill:none;stroke:#000000;stroke-width:2.03325px;stroke-linecap:round;stroke-linejoin:round;stroke-dasharray:none;stroke-opacity:1"
         inkscape:connector-curvature="0" />
      <path
         id="path4455"
         d="M 367.07971,2.8934702 V 144.75171 L 414.31365,106.9802 V 40.743189 Z"
         style="fill:#ffffff;fill-opacity:1;fill-rule:evenodd;stroke:none"
         inkscape:connector-curvature="0" />
      <path
         id="path4457"
         d="M 367.07971,2.8934702 V 144.75171 L 414.31365,106.9802 V 40.743189 Z"
         style="fill:none;stroke:#000000;stroke-width:2.03325px;stroke-linecap:round;stroke-linejoin:round;stroke-dasharray:none;stroke-opacity:1"
         inkscape:connector-curvature="0" />
      <path
         id="path4459"
         d="m 386.00457,104.55594 c 0,-3.59729 -3.20628,-6.568963 -7.11638,-6.568963 -3.91009,0 -7.11637,2.971673 -7.11637,6.568963 0,3.67549 3.20628,6.64716 7.11637,6.64716 3.9101,0 7.11638,-2.97167 7.11638,-6.64716"
         style="fill:#ffffff;fill-opacity:1;fill-rule:evenodd;stroke:none"
         inkscape:connector-curvature="0" />
      <path
         id="path4461"
         d="m 386.00457,104.55594 c 0,-3.59729 -3.20628,-6.568963 -7.11638,-6.568963 -3.91009,0 -7.11637,2.971673 -7.11637,6.568963 0,3.67549 3.20628,6.64716 7.11637,6.64716 3.9101,0 7.11638,-2.97167 7.11638,-6.64716"
         style="fill:none;stroke:#000000;stroke-width:2.03325px;stroke-linecap:round;stroke-linejoin:round;stroke-dasharray:none;stroke-opacity:1"
         inkscape:connector-curvature="0" />
      <path
         id="path4463"
         d="M 377.48056,35.581863 V 49.736407"
         style="fill:none;stroke:#000000;stroke-width:2.03325px;stroke-linecap:round;stroke-linejoin:round;stroke-dasharray:none;stroke-opacity:1"
         inkscape:connector-curvature="0" />
      <path
         id="path4465"
         d="M 390.77488,170.79294 V 125.74865"
         style="fill:none;stroke:#000000;stroke-width:2.03325px;stroke-linecap:round;stroke-linejoin:round;stroke-dasharray:none;stroke-opacity:1"
         inkscape:connector-curvature="0" />
      <path
         id="path4467"
         d="M 289.03421,170.79294 H 390.77488"
         style="fill:none;stroke:#000000;stroke-width:2.03325px;stroke-linecap:round;stroke-linejoin:round;stroke-dasharray:none;stroke-opacity:1"
         inkscape:connector-curvature="0" />
      <text
         id="text4469"
         style="font-style:normal;font-weight:normal;font-size:20.0197px;line-height:0%;font-family:Arial;text-align:start;text-anchor:start;fill:#000000"
         y="165.16241"
         x="297.79282"
         xml:space="preserve">edge</text>
      <path
         id="path4471"
         d="m 414.31365,76.24685 h 42.62004"
         style="fill:none;stroke:#000000;stroke-width:2.03325px;stroke-linecap:round;stroke-linejoin:round;stroke-dasharray:none;stroke-opacity:1"
         inkscape:connector-curvature="0" />
      <path
         id="path4473"
         d="M 291.53667,79.765935 V 6.4907575 c 26.97966,0 48.87619,16.3441965 48.87619,36.5984875 0,20.254292 -21.89653,36.67669 -48.87619,36.67669 z"
         style="fill:#ffffff;fill-opacity:1;fill-rule:evenodd;stroke:none"
         inkscape:connector-curvature="0" />
      <path
         id="path4475"
         d="M 291.53667,79.765935 V 6.4907575 c 26.97966,0 48.87619,16.3441965 48.87619,36.5984875 0,20.254292 -21.89653,36.67669 -48.87619,36.67669 z"
         style="fill:none;stroke:#000000;stroke-width:2.03325px;stroke-linecap:round;stroke-linejoin:round;stroke-dasharray:none;stroke-opacity:1"
         inkscape:connector-curvature="0" />
      <path
         id="path4477"
         d="m 291.38027,26.588645 c 0,-3.675489 -3.20628,-6.647161 -7.11637,-6.647161 -3.9101,0 -7.03817,2.971672 -7.03817,6.647161 0,3.597287 3.12807,6.56896 7.03817,6.56896 3.91009,0 7.11637,-2.971673 7.11637,-6.56896"
         style="fill:#ffffff;fill-opacity:1;fill-rule:evenodd;stroke:none"
         inkscape:connector-curvature="0" />
      <path
         id="path4479"
         d="m 291.38027,26.588645 c 0,-3.675489 -3.20628,-6.647161 -7.11637,-6.647161 -3.9101,0 -7.03817,2.971672 -7.03817,6.647161 0,3.597287 3.12807,6.56896 7.03817,6.56896 3.91009,0 7.11637,-2.971673 7.11637,-6.56896"
         style="fill:none;stroke:#000000;stroke-width:2.03325px;stroke-linecap:round;stroke-linejoin:round;stroke-dasharray:none;stroke-opacity:1"
         inkscape:connector-curvature="0" />
      <path
         id="path4481"
         d="m 194.80093,104.55594 c 0,-1.40764 -1.25123,-2.58067 -2.73707,-2.58067 -1.56404,0 -2.81527,1.17303 -2.81527,2.58067 0,1.48583 1.25123,2.65886 2.81527,2.65886 1.48584,0 2.73707,-1.17303 2.73707,-2.65886"
         style="fill:#000000;fill-opacity:1;fill-rule:evenodd;stroke:none"
         inkscape:connector-curvature="0" />
      <path
         id="path4483"
         d="m 194.80093,104.55594 c 0,-1.40764 -1.25123,-2.58067 -2.73707,-2.58067 -1.56404,0 -2.81527,1.17303 -2.81527,2.58067 0,1.48583 1.25123,2.65886 2.81527,2.65886 1.48584,0 2.73707,-1.17303 2.73707,-2.65886"
         style="fill:none;stroke:#000000;stroke-width:2.03325px;stroke-linecap:round;stroke-linejoin:round;stroke-dasharray:none;stroke-opacity:1"
         inkscape:connector-curvature="0" />
      <path
         id="path4485"
         d="m 194.80093,64.829373 c 0,-1.407634 -1.25123,-2.580663 -2.73707,-2.580663 -1.56404,0 -2.81527,1.173029 -2.81527,2.580663 0,1.485836 1.25123,2.658864 2.81527,2.658864 1.48584,0 2.73707,-1.173028 2.73707,-2.658864"
         style="fill:#000000;fill-opacity:1;fill-rule:evenodd;stroke:none"
         inkscape:connector-curvature="0" />
      <path
         id="path4487"
         d="m 194.80093,64.829373 c 0,-1.407634 -1.25123,-2.580663 -2.73707,-2.580663 -1.56404,0 -2.81527,1.173029 -2.81527,2.580663 0,1.485836 1.25123,2.658864 2.81527,2.658864 1.48584,0 2.73707,-1.173028 2.73707,-2.658864"
         style="fill:none;stroke:#000000;stroke-width:2.03325px;stroke-linecap:round;stroke-linejoin:round;stroke-dasharray:none;stroke-opacity:1"
         inkscape:connector-curvature="0" />
      <text
         id="text4489"
         style="font-style:normal;font-weight:normal;font-size:20.0197px;line-height:0%;font-family:Arial;text-align:start;text-anchor:start;fill:#000000"
         y="80.078743"
         x="13.763534"
         xml:space="preserve">input</text>
    </g>
  </g>
</svg>
