<?xml version="1.0" encoding="UTF-8" standalone="no"?>
<!-- Created with Inkscape (http://www.inkscape.org/) -->

<svg
   width="667.96265"
   height="314.39111"
   id="svg2"
   version="1.1"
   inkscape:version="1.3 (0e150ed6c4, 2023-07-21)"
   sodipodi:docname="edge-trigger.svg"
   inkscape:export-filename="edge-trigger.pdf"
   inkscape:export-xdpi="96"
   inkscape:export-ydpi="96"
   xmlns:inkscape="http://www.inkscape.org/namespaces/inkscape"
   xmlns:sodipodi="http://sodipodi.sourceforge.net/DTD/sodipodi-0.dtd"
   xmlns="http://www.w3.org/2000/svg"
   xmlns:svg="http://www.w3.org/2000/svg"
   xmlns:rdf="http://www.w3.org/1999/02/22-rdf-syntax-ns#"
   xmlns:cc="http://creativecommons.org/ns#"
   xmlns:dc="http://purl.org/dc/elements/1.1/">
  <defs
     id="defs4">
    <filter
       id="filter3818"
       inkscape:label="Drop Shadow"
       color-interpolation-filters="sRGB"
       x="-0.0013515987"
       y="-0.063341334"
       width="1.00973"
       height="1.4570155">
      <feFlood
         id="feFlood3820"
         flood-opacity="0.5"
         flood-color="rgb(0,0,0)"
         result="flood" />
      <feComposite
         id="feComposite3822"
         in2="SourceGraphic"
         in="flood"
         operator="in"
         result="composite1" />
      <feGaussianBlur
         id="feGaussianBlur3824"
         stdDeviation="0.001 0"
         result="blur" />
      <feOffset
         id="feOffset3826"
         dx="4"
         dy="4"
         result="offset" />
      <feComposite
         id="feComposite3828"
         in2="offset"
         in="SourceGraphic"
         operator="over"
         result="composite2" />
    </filter>
  </defs>
  <sodipodi:namedview
     id="base"
     pagecolor="#ffffff"
     bordercolor="#666666"
     borderopacity="1.0"
     inkscape:pageopacity="0.0"
     inkscape:pageshadow="2"
     inkscape:zoom="0.98994949"
     inkscape:cx="297.48993"
     inkscape:cy="11.616754"
     inkscape:document-units="px"
     inkscape:current-layer="g2989"
     showgrid="false"
     fit-margin-top="0"
     fit-margin-left="0"
     fit-margin-right="0"
     fit-margin-bottom="0"
     inkscape:window-width="1877"
     inkscape:window-height="1237"
     inkscape:window-x="521"
     inkscape:window-y="38"
     inkscape:window-maximized="0"
     inkscape:showpageshadow="2"
     inkscape:pagecheckerboard="0"
     inkscape:deskcolor="#d1d1d1" />
  <metadata
     id="metadata7">
    <rdf:RDF>
      <cc:Work
         rdf:about="">
        <dc:format>image/svg+xml</dc:format>
        <dc:type
           rdf:resource="http://purl.org/dc/dcmitype/StillImage" />
      </cc:Work>
    </rdf:RDF>
  </metadata>
  <g
     inkscape:label="Ebene 1"
     inkscape:groupmode="layer"
     id="layer1"
     transform="translate(-49.358566,-306.47757)">
    <g
       id="g2989"
       transform="translate(60.743528,308.98733)">
      <path
         id="path2991"
         d="m 135.9149,15.718581 v 8.758613 c 0,0.391009 -0.23461,0.625615 -0.62562,0.625615 -0.31281,0 -0.62561,-0.234606 -0.62561,-0.625615 v -8.758613 c 0,-0.312807 0.3128,-0.625615 0.62561,-0.625615 0.39101,0 0.62562,0.312808 0.62562,0.625615 z m 0,15.014765 v 8.758612 c 0,0.39101 -0.23461,0.625615 -0.62562,0.625615 -0.31281,0 -0.62561,-0.234605 -0.62561,-0.625615 v -8.758612 c 0,-0.312808 0.3128,-0.625615 0.62561,-0.625615 0.39101,0 0.62562,0.312807 0.62562,0.625615 z m 0,15.014764 v 8.758613 c 0,0.391009 -0.23461,0.625615 -0.62562,0.625615 -0.31281,0 -0.62561,-0.234606 -0.62561,-0.625615 V 45.74811 c 0,-0.312808 0.3128,-0.625615 0.62561,-0.625615 0.39101,0 0.62562,0.312807 0.62562,0.625615 z m 0,15.014764 v 8.758613 c 0,0.391009 -0.23461,0.625615 -0.62562,0.625615 -0.31281,0 -0.62561,-0.234606 -0.62561,-0.625615 v -8.758613 c 0,-0.312807 0.3128,-0.625615 0.62561,-0.625615 0.39101,0 0.62562,0.312808 0.62562,0.625615 z m 0,15.014765 v 8.758612 c 0,0.39101 -0.23461,0.625615 -0.62562,0.625615 -0.31281,0 -0.62561,-0.234605 -0.62561,-0.625615 v -8.758612 c 0,-0.312808 0.3128,-0.625616 0.62561,-0.625616 0.39101,0 0.62562,0.312808 0.62562,0.625616 z m 0,15.014764 v 8.758612 c 0,0.39101 -0.23461,0.625615 -0.62562,0.625615 -0.31281,0 -0.62561,-0.234605 -0.62561,-0.625615 v -8.758612 c 0,-0.312808 0.3128,-0.625615 0.62561,-0.625615 0.39101,0 0.62562,0.312807 0.62562,0.625615 z m 0,15.014767 v 8.75861 c 0,0.39101 -0.23461,0.62561 -0.62562,0.62561 -0.31281,0 -0.62561,-0.2346 -0.62561,-0.62561 v -8.75861 c 0,-0.31281 0.3128,-0.62562 0.62561,-0.62562 0.39101,0 0.62562,0.31281 0.62562,0.62562 z m 0,15.01476 v 8.75861 c 0,0.39101 -0.23461,0.62562 -0.62562,0.62562 -0.31281,0 -0.62561,-0.23461 -0.62561,-0.62562 v -8.75861 c 0,-0.31281 0.3128,-0.62561 0.62561,-0.62561 0.39101,0 0.62562,0.3128 0.62562,0.62561 z m 0,15.01477 v 8.75861 c 0,0.39101 -0.23461,0.62561 -0.62562,0.62561 -0.31281,0 -0.62561,-0.2346 -0.62561,-0.62561 v -8.75861 c 0,-0.31281 0.3128,-0.62562 0.62561,-0.62562 0.39101,0 0.62562,0.31281 0.62562,0.62562 z m 0,15.01476 v 8.75861 c 0,0.39101 -0.23461,0.62562 -0.62562,0.62562 -0.31281,0 -0.62561,-0.23461 -0.62561,-0.62562 v -8.75861 c 0,-0.31281 0.3128,-0.62562 0.62561,-0.62562 0.39101,0 0.62562,0.31281 0.62562,0.62562 z m 0,15.01476 v 8.75862 c 0,0.39101 -0.23461,0.62561 -0.62562,0.62561 -0.31281,0 -0.62561,-0.2346 -0.62561,-0.62561 v -8.75862 c 0,-0.3128 0.3128,-0.62561 0.62561,-0.62561 0.39101,0 0.62562,0.31281 0.62562,0.62561 z m 0,15.01477 v 8.75861 c 0,0.39101 -0.23461,0.62562 -0.62562,0.62562 -0.31281,0 -0.62561,-0.23461 -0.62561,-0.62562 v -8.75861 c 0,-0.31281 0.3128,-0.62562 0.62561,-0.62562 0.39101,0 0.62562,0.31281 0.62562,0.62562 z m 0,15.01476 v 8.75862 c 0,0.39101 -0.23461,0.62561 -0.62562,0.62561 -0.31281,0 -0.62561,-0.2346 -0.62561,-0.62561 v -8.75862 c 0,-0.3128 0.3128,-0.62561 0.62561,-0.62561 0.39101,0 0.62562,0.31281 0.62562,0.62561 z m 0,15.01477 v 8.75861 c 0,0.39101 -0.23461,0.62562 -0.62562,0.62562 -0.31281,0 -0.62561,-0.23461 -0.62561,-0.62562 v -8.75861 c 0,-0.31281 0.3128,-0.62562 0.62561,-0.62562 0.39101,0 0.62562,0.31281 0.62562,0.62562 z m 0,15.01476 v 8.75861 c 0,0.39101 -0.23461,0.62562 -0.62562,0.62562 -0.31281,0 -0.62561,-0.23461 -0.62561,-0.62562 v -8.75861 c 0,-0.31281 0.3128,-0.62561 0.62561,-0.62561 0.39101,0 0.62562,0.3128 0.62562,0.62561 z m 0,15.01477 v 7.97659 c 0,0.31281 -0.23461,0.62561 -0.62562,0.62561 -0.31281,0 -0.62561,-0.3128 -0.62561,-0.62561 v -7.97659 c 0,-0.31281 0.3128,-0.62562 0.62561,-0.62562 0.39101,0 0.62562,0.31281 0.62562,0.62562 z"
         style="fill:#3475cd;fill-opacity:1;fill-rule:nonzero;stroke:#3475cd;stroke-width:1.25123px;stroke-linecap:butt;stroke-linejoin:bevel;stroke-dasharray:none;stroke-opacity:1"
         inkscape:connector-curvature="0" />
      <path
         id="path2993"
         d="m 267.45049,67.801045 v 8.758613 c 0,0.312807 -0.31281,0.625615 -0.62562,0.625615 -0.39101,0 -0.62561,-0.312808 -0.62561,-0.625615 v -8.758613 c 0,-0.391009 0.2346,-0.625615 0.62561,-0.625615 0.31281,0 0.62562,0.234606 0.62562,0.625615 z m 0,15.014764 v 8.758613 c 0,0.312807 -0.31281,0.625615 -0.62562,0.625615 -0.39101,0 -0.62561,-0.312808 -0.62561,-0.625615 v -8.758613 c 0,-0.391009 0.2346,-0.625615 0.62561,-0.625615 0.31281,0 0.62562,0.234606 0.62562,0.625615 z m 0,15.014765 v 8.758616 c 0,0.3128 -0.31281,0.62561 -0.62562,0.62561 -0.39101,0 -0.62561,-0.31281 -0.62561,-0.62561 v -8.758616 c 0,-0.39101 0.2346,-0.625615 0.62561,-0.625615 0.31281,0 0.62562,0.234605 0.62562,0.625615 z m 0,15.014766 v 8.75861 c 0,0.31281 -0.31281,0.62562 -0.62562,0.62562 -0.39101,0 -0.62561,-0.31281 -0.62561,-0.62562 v -8.75861 c 0,-0.39101 0.2346,-0.62562 0.62561,-0.62562 0.31281,0 0.62562,0.23461 0.62562,0.62562 z"
         style="fill:#3475cd;fill-opacity:1;fill-rule:nonzero;stroke:#3475cd;stroke-width:1.25123px;stroke-linecap:butt;stroke-linejoin:bevel;stroke-dasharray:none;stroke-opacity:1"
         inkscape:connector-curvature="0" />
      <path
         id="path2995"
         d="m 553.90404,15.718581 v 8.758613 c 0,0.391009 -0.31281,0.625615 -0.62562,0.625615 -0.3128,0 -0.62561,-0.234606 -0.62561,-0.625615 v -8.758613 c 0,-0.312807 0.31281,-0.625615 0.62561,-0.625615 0.31281,0 0.62562,0.312808 0.62562,0.625615 z m 0,15.014765 v 8.758612 c 0,0.39101 -0.31281,0.625615 -0.62562,0.625615 -0.3128,0 -0.62561,-0.234605 -0.62561,-0.625615 v -8.758612 c 0,-0.312808 0.31281,-0.625615 0.62561,-0.625615 0.31281,0 0.62562,0.312807 0.62562,0.625615 z m 0,15.014764 v 8.758613 c 0,0.391009 -0.31281,0.625615 -0.62562,0.625615 -0.3128,0 -0.62561,-0.234606 -0.62561,-0.625615 V 45.74811 c 0,-0.312808 0.31281,-0.625615 0.62561,-0.625615 0.31281,0 0.62562,0.312807 0.62562,0.625615 z m 0,15.014764 v 8.758613 c 0,0.391009 -0.31281,0.625615 -0.62562,0.625615 -0.3128,0 -0.62561,-0.234606 -0.62561,-0.625615 v -8.758613 c 0,-0.312807 0.31281,-0.625615 0.62561,-0.625615 0.31281,0 0.62562,0.312808 0.62562,0.625615 z m 0,15.014765 v 8.758612 c 0,0.39101 -0.31281,0.625615 -0.62562,0.625615 -0.3128,0 -0.62561,-0.234605 -0.62561,-0.625615 v -8.758612 c 0,-0.312808 0.31281,-0.625616 0.62561,-0.625616 0.31281,0 0.62562,0.312808 0.62562,0.625616 z m 0,15.014764 v 8.758612 c 0,0.39101 -0.31281,0.625615 -0.62562,0.625615 -0.3128,0 -0.62561,-0.234605 -0.62561,-0.625615 v -8.758612 c 0,-0.312808 0.31281,-0.625615 0.62561,-0.625615 0.31281,0 0.62562,0.312807 0.62562,0.625615 z m 0,15.014767 v 8.75861 c 0,0.39101 -0.31281,0.62561 -0.62562,0.62561 -0.3128,0 -0.62561,-0.2346 -0.62561,-0.62561 v -8.75861 c 0,-0.31281 0.31281,-0.62562 0.62561,-0.62562 0.31281,0 0.62562,0.31281 0.62562,0.62562 z m 0,15.01476 v 8.75861 c 0,0.39101 -0.31281,0.62562 -0.62562,0.62562 -0.3128,0 -0.62561,-0.23461 -0.62561,-0.62562 v -8.75861 c 0,-0.31281 0.31281,-0.62561 0.62561,-0.62561 0.31281,0 0.62562,0.3128 0.62562,0.62561 z m 0,15.01477 v 8.75861 c 0,0.39101 -0.31281,0.62561 -0.62562,0.62561 -0.3128,0 -0.62561,-0.2346 -0.62561,-0.62561 v -8.75861 c 0,-0.31281 0.31281,-0.62562 0.62561,-0.62562 0.31281,0 0.62562,0.31281 0.62562,0.62562 z m 0,15.01476 v 8.75861 c 0,0.39101 -0.31281,0.62562 -0.62562,0.62562 -0.3128,0 -0.62561,-0.23461 -0.62561,-0.62562 v -8.75861 c 0,-0.31281 0.31281,-0.62562 0.62561,-0.62562 0.31281,0 0.62562,0.31281 0.62562,0.62562 z m 0,15.01476 v 8.75862 c 0,0.39101 -0.31281,0.62561 -0.62562,0.62561 -0.3128,0 -0.62561,-0.2346 -0.62561,-0.62561 v -8.75862 c 0,-0.3128 0.31281,-0.62561 0.62561,-0.62561 0.31281,0 0.62562,0.31281 0.62562,0.62561 z m 0,15.01477 v 8.75861 c 0,0.39101 -0.31281,0.62562 -0.62562,0.62562 -0.3128,0 -0.62561,-0.23461 -0.62561,-0.62562 v -8.75861 c 0,-0.31281 0.31281,-0.62562 0.62561,-0.62562 0.31281,0 0.62562,0.31281 0.62562,0.62562 z"
         style="fill:#3475cd;fill-opacity:1;fill-rule:nonzero;stroke:#3475cd;stroke-width:1.25123px;stroke-linecap:butt;stroke-linejoin:bevel;stroke-dasharray:none;stroke-opacity:1"
         inkscape:connector-curvature="0" />
      <path
         id="path2997"
         d="M 2.8934702,294.74295 H 24.946405 v -8.05479 H 2.8934702 Z"
         style="fill:none;stroke:#a6a6a6;stroke-width:2.03325px;stroke-linecap:round;stroke-linejoin:round;stroke-dasharray:none;stroke-opacity:1"
         inkscape:connector-curvature="0" />
      <path
         id="path2999"
         d="m 24.946405,294.74295 h 21.974733 v -9.46243 H 24.946405 Z"
         style="fill:none;stroke:#a6a6a6;stroke-width:2.03325px;stroke-linecap:round;stroke-linejoin:round;stroke-dasharray:none;stroke-opacity:1"
         inkscape:connector-curvature="0" />
      <path
         id="path3001"
         d="m 68.974074,294.74295 h 21.974733 v -16.5006 H 68.974074 Z"
         style="fill:none;stroke:#a6a6a6;stroke-width:2.03325px;stroke-linecap:round;stroke-linejoin:round;stroke-dasharray:none;stroke-opacity:1"
         inkscape:connector-curvature="0" />
      <path
         id="path3003"
         d="M 46.921138,294.74295 H 68.974074 V 282.93446 H 46.921138 Z"
         style="fill:none;stroke:#a6a6a6;stroke-width:2.03325px;stroke-linecap:round;stroke-linejoin:round;stroke-dasharray:none;stroke-opacity:1"
         inkscape:connector-curvature="0" />
      <path
         id="path3005"
         d="M 90.948807,294.74295 H 113.00174 V 271.59519 H 90.948807 Z"
         style="fill:none;stroke:#a6a6a6;stroke-width:2.03325px;stroke-linecap:round;stroke-linejoin:round;stroke-dasharray:none;stroke-opacity:1"
         inkscape:connector-curvature="0" />
      <path
         id="path3007"
         d="m 113.00174,294.74295 h 21.97473 v -32.14098 h -21.97473 z"
         style="fill:none;stroke:#a6a6a6;stroke-width:2.03325px;stroke-linecap:round;stroke-linejoin:round;stroke-dasharray:none;stroke-opacity:1"
         inkscape:connector-curvature="0" />
      <path
         id="path3009"
         d="m 134.97647,294.74295 h 22.05294 v -43.94946 h -22.05294 z"
         style="fill:none;stroke:#ed7807;stroke-width:2.03325px;stroke-linecap:round;stroke-linejoin:round;stroke-dasharray:none;stroke-opacity:1"
         inkscape:connector-curvature="0" />
      <path
         id="path3011"
         d="m 157.02941,294.74295 h 21.97473 v -61.46669 h -21.97473 z"
         style="fill:none;stroke:#ed7807;stroke-width:2.03325px;stroke-linecap:round;stroke-linejoin:round;stroke-dasharray:none;stroke-opacity:1"
         inkscape:connector-curvature="0" />
      <path
         id="path3013"
         d="m 201.05708,294.74295 h 21.97473 V 193.5497 h -21.97473 z"
         style="fill:none;stroke:#ef8a28;stroke-width:2.03325px;stroke-linecap:round;stroke-linejoin:round;stroke-dasharray:none;stroke-opacity:1"
         inkscape:connector-curvature="0" />
      <path
         id="path3015"
         d="m 179.00414,294.74295 h 22.05294 V 214.3514 h -22.05294 z"
         style="fill:none;stroke:#ed7807;stroke-width:2.03325px;stroke-linecap:round;stroke-linejoin:round;stroke-dasharray:none;stroke-opacity:1"
         inkscape:connector-curvature="0" />
      <path
         id="path3017"
         d="m 223.03181,294.74295 h 22.05294 V 171.80957 h -22.05294 z"
         style="fill:none;stroke:#ee8118;stroke-width:2.03325px;stroke-linecap:round;stroke-linejoin:round;stroke-dasharray:none;stroke-opacity:1"
         inkscape:connector-curvature="0" />
      <path
         id="path3019"
         d="m 245.08475,294.74295 h 21.97473 V 148.1926 h -21.97473 z"
         style="fill:none;stroke:#ee8118;stroke-width:2.03325px;stroke-linecap:round;stroke-linejoin:round;stroke-dasharray:none;stroke-opacity:1"
         inkscape:connector-curvature="0" />
      <path
         id="path3021"
         d="m 267.05948,129.26774 v 165.47521 h 22.05293 V 129.26774 Z"
         style="fill:#ee8118;fill-opacity:0.5;fill-rule:evenodd;stroke:#ee8118;stroke-width:2;stroke-miterlimit:4;stroke-dasharray:none;stroke-opacity:1"
         inkscape:connector-curvature="0" />
      <path
         id="path3025"
         d="m 289.11241,294.74295 h 21.97474 V 115.03499 h -21.97474 z"
         style="fill:none;stroke:#ee8118;stroke-width:2.03325px;stroke-linecap:round;stroke-linejoin:round;stroke-dasharray:none;stroke-opacity:1"
         inkscape:connector-curvature="0" />
      <path
         id="path3027"
         d="m 311.08715,294.74295 h 22.05293 v -193.8625 h -22.05293 z"
         style="fill:none;stroke:#ee8118;stroke-width:2.03325px;stroke-linecap:round;stroke-linejoin:round;stroke-dasharray:none;stroke-opacity:1"
         inkscape:connector-curvature="0" />
      <path
         id="path3029"
         d="m 355.11482,294.74295 h 22.05293 V 89.541173 h -22.05293 z"
         style="fill:none;stroke:#ee8118;stroke-width:2.03325px;stroke-linecap:round;stroke-linejoin:round;stroke-dasharray:none;stroke-opacity:1"
         inkscape:connector-curvature="0" />
      <path
         id="path3031"
         d="m 333.14008,294.74295 h 21.97474 V 93.764075 h -21.97474 z"
         style="fill:none;stroke:#ee8118;stroke-width:2.03325px;stroke-linecap:round;stroke-linejoin:round;stroke-dasharray:none;stroke-opacity:1"
         inkscape:connector-curvature="0" />
      <path
         id="path3033"
         d="m 377.16775,294.74295 h 21.97473 V 91.418018 h -21.97473 z"
         style="fill:none;stroke:#ee8118;stroke-width:2.03325px;stroke-linecap:round;stroke-linejoin:round;stroke-dasharray:none;stroke-opacity:1"
         inkscape:connector-curvature="0" />
      <path
         id="path3035"
         d="m 399.14248,294.74295 h 22.05294 V 98.065179 h -22.05294 z"
         style="fill:none;stroke:#ee8118;stroke-width:2.033;stroke-linecap:round;stroke-linejoin:round;stroke-miterlimit:4;stroke-dasharray:none;stroke-opacity:1"
         inkscape:connector-curvature="0" />
      <path
         id="path3037"
         d="m 421.19542,294.74295 h 21.97473 V 112.21972 h -21.97473 z"
         style="fill:none;stroke:#ee8118;stroke-width:2.03325px;stroke-linecap:round;stroke-linejoin:round;stroke-dasharray:none;stroke-opacity:1"
         inkscape:connector-curvature="0" />
      <path
         id="path3039"
         d="m 443.17015,294.74295 h 22.05294 v -160.7831 h -22.05294 z"
         style="fill:none;stroke:#ee8118;stroke-width:2.03325px;stroke-linecap:round;stroke-linejoin:round;stroke-dasharray:none;stroke-opacity:1"
         inkscape:connector-curvature="0" />
      <path
         id="path3041"
         d="m 465.22309,294.74295 h 21.97473 V 154.76156 h -21.97473 z"
         style="fill:none;stroke:#ee8118;stroke-width:2.03325px;stroke-linecap:round;stroke-linejoin:round;stroke-dasharray:none;stroke-opacity:1"
         inkscape:connector-curvature="0" />
      <path
         id="path3043"
         d="m 487.19782,294.74295 h 22.05294 V 171.80957 h -22.05294 z"
         style="fill:none;stroke:#ee8118;stroke-width:2.03325px;stroke-linecap:round;stroke-linejoin:round;stroke-dasharray:none;stroke-opacity:1"
         inkscape:connector-curvature="0" />
      <path
         id="path3045"
         d="m 509.25076,294.74295 h 22.05293 V 183.14884 h -22.05293 z"
         style="fill:none;stroke:#ee8118;stroke-width:2.03325px;stroke-linecap:round;stroke-linejoin:round;stroke-dasharray:none;stroke-opacity:1"
         inkscape:connector-curvature="0" />
      <path
         id="path3047"
         d="m 553.27842,294.74295 h 22.05294 v -77.57628 h -22.05294 z"
         style="fill:none;stroke:#a6a6a6;stroke-width:2.03325px;stroke-linecap:round;stroke-linejoin:round;stroke-dasharray:none;stroke-opacity:1"
         inkscape:connector-curvature="0" />
      <path
         id="path3049"
         d="m 575.33136,294.74295 h 21.97473 v -54.81953 h -21.97473 z"
         style="fill:none;stroke:#a6a6a6;stroke-width:2.03325px;stroke-linecap:round;stroke-linejoin:round;stroke-dasharray:none;stroke-opacity:1"
         inkscape:connector-curvature="0" />
      <path
         id="path3051"
         d="m 597.30609,294.74295 h 22.05294 v -42.54183 h -22.05294 z"
         style="fill:none;stroke:#a6a6a6;stroke-width:2.03325px;stroke-linecap:round;stroke-linejoin:round;stroke-dasharray:none;stroke-opacity:1"
         inkscape:connector-curvature="0" />
      <path
         id="path3053"
         d="m 619.35903,294.74295 h 21.97473 v -33.0794 h -21.97473 z"
         style="fill:none;stroke:#a6a6a6;stroke-width:2.03325px;stroke-linecap:round;stroke-linejoin:round;stroke-dasharray:none;stroke-opacity:1"
         inkscape:connector-curvature="0" />
      <path
         id="path3055"
         d="m 531.30369,294.74295 h 21.97473 v -97.43956 h -21.97473 z"
         style="fill:none;stroke:#ee8118;stroke-width:2.03325px;stroke-linecap:round;stroke-linejoin:round;stroke-dasharray:none;stroke-opacity:1"
         inkscape:connector-curvature="0" />
      <path
         id="path3057"
         d="M 36.051075,141.07622 H 617.71679"
         style="fill:none;stroke:#3475cd;stroke-width:1.17303px;stroke-linecap:round;stroke-linejoin:round;stroke-dasharray:none;stroke-opacity:1"
         inkscape:connector-curvature="0" />
      <path
         id="path3059"
         d="M 289.03421,70.147102 H 545.22363"
         style="fill:none;stroke:#3475cd;stroke-width:1.17303px;stroke-linecap:round;stroke-linejoin:round;stroke-dasharray:none;stroke-opacity:1"
         inkscape:connector-curvature="0" />
      <path
         id="path3061"
         d="m 553.35663,70.147102 -10.79187,5.395931 c 1.72045,-3.440884 1.72045,-7.42918 0,-10.791862 v 0 z"
         style="fill:#3475cd;fill-opacity:1;fill-rule:evenodd;stroke:none"
         inkscape:connector-curvature="0" />
      <path
         id="path3063"
         d="m 289.03421,65.376786 v 9.46243"
         style="fill:none;stroke:#3475cd;stroke-width:1.17303px;stroke-linecap:round;stroke-linejoin:round;stroke-dasharray:none;stroke-opacity:1"
         inkscape:connector-curvature="0" />
      <path
         id="path3065"
         d="m 266.82487,65.376786 v 9.46243"
         style="fill:none;stroke:#3475cd;stroke-width:1.17303px;stroke-linecap:round;stroke-linejoin:round;stroke-dasharray:none;stroke-opacity:1"
         inkscape:connector-curvature="0" />
      <path
         id="path3067"
         d="M 143.50048,70.147102 H 266.82487"
         style="fill:none;stroke:#3475cd;stroke-width:1.17303px;stroke-linecap:round;stroke-linejoin:round;stroke-dasharray:none;stroke-opacity:1"
         inkscape:connector-curvature="0" />
      <path
         id="path3069"
         d="m 135.28928,70.147102 10.87007,-5.395931 c -1.72045,3.362682 -1.72045,7.350978 0,10.791862 v 0 z"
         style="fill:#3475cd;fill-opacity:1;fill-rule:evenodd;stroke:none"
         inkscape:connector-curvature="0" />
      <text
         id="text3071"
         style="font-style:normal;font-weight:normal;font-size:20.0197px;line-height:0%;font-family:Arial;text-align:start;text-anchor:start;fill:#3475cd"
         y="58.807827"
         x="142.64026"
         xml:space="preserve">precursor </text>
      <text
         id="text3073"
         style="font-style:normal;font-weight:normal;font-size:20.0197px;line-height:0%;font-family:Arial;text-align:start;text-anchor:start;fill:#3475cd"
         y="58.807827"
         x="232.72885"
         xml:space="preserve">= </text>
      <text
         id="text3075"
         style="font-style:normal;font-weight:normal;font-size:20.0197px;line-height:0%;font-family:Arial;text-align:start;text-anchor:start;fill:#3475cd"
         y="58.807827"
         x="250.24606"
         xml:space="preserve">6</text>
      <text
         id="text3077"
         style="font-style:normal;font-weight:normal;font-size:20.0197px;line-height:0%;font-family:Arial;text-align:start;text-anchor:start;fill:#3475cd"
         y="58.807827"
         x="372.86664"
         xml:space="preserve">length </text>
      <text
         id="text3079"
         style="font-style:normal;font-weight:normal;font-size:20.0197px;line-height:0%;font-family:Arial;text-align:start;text-anchor:start;fill:#3475cd"
         y="58.807827"
         x="432.92569"
         xml:space="preserve">= </text>
      <text
         id="text3081"
         style="font-style:normal;font-weight:normal;font-size:20.0197px;line-height:0%;font-family:Arial;text-align:start;text-anchor:start;fill:#3475cd"
         y="58.807827"
         x="450.44293"
         xml:space="preserve">12</text>
      <path
         id="path3083"
         d="M 143.50048,34.643441 H 545.22363"
         style="fill:none;stroke:#3475cd;stroke-width:1.17303px;stroke-linecap:round;stroke-linejoin:round;stroke-dasharray:none;stroke-opacity:1"
         inkscape:connector-curvature="0" />
      <path
         id="path3085"
         d="m 135.28928,34.643441 10.87007,-5.395931 c -1.72045,3.440883 -1.72045,7.42918 0,10.791861 v 0 z"
         style="fill:#3475cd;fill-opacity:1;fill-rule:evenodd;stroke:none"
         inkscape:connector-curvature="0" />
      <path
         id="path3087"
         d="m 553.35663,34.643441 -10.79187,5.39593 c 1.72045,-3.362681 1.72045,-7.350978 0,-10.791861 v 0 z"
         style="fill:#3475cd;fill-opacity:1;fill-rule:evenodd;stroke:none"
         inkscape:connector-curvature="0" />
      <text
         id="text3089"
         style="font-style:normal;font-weight:normal;font-size:20.0197px;line-height:0%;font-family:Arial;text-align:start;text-anchor:start;fill:#3475cd"
         y="22.522146"
         x="271.517"
         xml:space="preserve">total length </text>
      <text
         id="text3091"
         style="font-style:normal;font-weight:normal;font-size:20.0197px;line-height:0%;font-family:Arial;text-align:start;text-anchor:start;fill:#3475cd"
         y="22.522146"
         x="375.36911"
         xml:space="preserve">= </text>
      <text
         id="text3093"
         style="font-style:normal;font-weight:normal;font-size:20.0197px;line-height:0%;font-family:Arial;text-align:start;text-anchor:start;fill:#3475cd"
         y="22.522146"
         x="392.88632"
         xml:space="preserve">19</text>
      <path
         id="path3095"
         d="m 289.65983,81.955589 v 8.758612 c 0,0.312808 -0.23461,0.625615 -0.62562,0.625615 -0.3128,0 -0.62561,-0.312807 -0.62561,-0.625615 v -8.758612 c 0,-0.312808 0.31281,-0.625616 0.62561,-0.625616 0.39101,0 0.62562,0.312808 0.62562,0.625616 z m 0,15.014764 v 8.758617 c 0,0.3128 -0.23461,0.62561 -0.62562,0.62561 -0.3128,0 -0.62561,-0.31281 -0.62561,-0.62561 v -8.758617 c 0,-0.312808 0.31281,-0.625615 0.62561,-0.625615 0.39101,0 0.62562,0.312807 0.62562,0.625615 z m 0,15.014767 v 0.70381 c 0,0.31281 -0.23461,0.62562 -0.62562,0.62562 -0.3128,0 -0.62561,-0.31281 -0.62561,-0.62562 v -0.70381 c 0,-0.31281 0.31281,-0.62562 0.62561,-0.62562 0.39101,0 0.62562,0.31281 0.62562,0.62562 z"
         style="fill:#3475cd;fill-opacity:1;fill-rule:nonzero;stroke:#3475cd;stroke-width:1.25123px;stroke-linecap:butt;stroke-linejoin:bevel;stroke-dasharray:none;stroke-opacity:1"
         inkscape:connector-curvature="0" />
      <path
         id="path3097"
         d="M 57.321991,149.28742 V 286.60995"
         style="fill:none;stroke:#3475cd;stroke-width:1.17303px;stroke-linecap:round;stroke-linejoin:round;stroke-dasharray:none;stroke-opacity:1"
         inkscape:connector-curvature="0" />
      <path
         id="path3099"
         d="m 57.321991,141.07622 5.395931,10.79186 c -3.440884,-1.72044 -7.429181,-1.72044 -10.791862,0 v 0 z"
         style="fill:#3475cd;fill-opacity:1;fill-rule:evenodd;stroke:none"
         inkscape:connector-curvature="0" />
      <path
         id="path3101"
         d="M 57.321991,294.74295 51.92606,283.95109 c 3.362681,1.72044 7.350978,1.72044 10.791862,0 v 0 z"
         style="fill:#3475cd;fill-opacity:1;fill-rule:evenodd;stroke:none"
         inkscape:connector-curvature="0" />
      <text
         id="text3103"
         style="font-style:normal;font-weight:normal;font-size:20.0197px;line-height:0%;font-family:Arial;text-align:start;text-anchor:start;fill:#3475cd"
         transform="rotate(-90,45.04429,259.00468)"
         y="259.00467"
         x="45.044292"
         xml:space="preserve">t</text>
      <text
         id="text3105"
         style="font-style:normal;font-weight:normal;font-size:20.0197px;line-height:0%;font-family:Arial;text-align:start;text-anchor:start;fill:#3475cd"
         transform="rotate(-90,45.04429,252.74853)"
         y="252.74854"
         x="45.044292"
         xml:space="preserve">h</text>
      <text
         id="text3107"
         style="font-style:normal;font-weight:normal;font-size:20.0197px;line-height:0%;font-family:Arial;text-align:start;text-anchor:start;fill:#3475cd"
         transform="rotate(-90,45.04429,242.73869)"
         y="242.73869"
         x="45.044292"
         xml:space="preserve">r</text>
      <text
         id="text3109"
         style="font-style:normal;font-weight:normal;font-size:20.0197px;line-height:0%;font-family:Arial;text-align:start;text-anchor:start;fill:#3475cd"
         transform="rotate(-90,45.04429,235.23131)"
         y="235.23131"
         x="45.044292"
         xml:space="preserve">e</text>
      <text
         id="text3111"
         style="font-style:normal;font-weight:normal;font-size:20.0197px;line-height:0%;font-family:Arial;text-align:start;text-anchor:start;fill:#3475cd"
         transform="rotate(-90,45.04429,223.97023)"
         y="223.97023"
         x="45.044292"
         xml:space="preserve">s</text>
      <text
         id="text3113"
         style="font-style:normal;font-weight:normal;font-size:20.0197px;line-height:0%;font-family:Arial;text-align:start;text-anchor:start;fill:#3475cd"
         transform="rotate(-90,45.04429,213.96039)"
         y="213.96039"
         x="45.044292"
         xml:space="preserve">h</text>
      <text
         id="text3115"
         style="font-style:normal;font-weight:normal;font-size:20.0197px;line-height:0%;font-family:Arial;text-align:start;text-anchor:start;fill:#3475cd"
         transform="rotate(-90,45.04429,202.69932)"
         y="202.69933"
         x="45.044292"
         xml:space="preserve">o</text>
      <text
         id="text3117"
         style="font-style:normal;font-weight:normal;font-size:20.0197px;line-height:0%;font-family:Arial;text-align:start;text-anchor:start;fill:#3475cd"
         transform="rotate(-90,45.04429,191.43824)"
         y="191.43823"
         x="45.044292"
         xml:space="preserve">l</text>
      <text
         id="text3119"
         style="font-style:normal;font-weight:normal;font-size:20.0197px;line-height:0%;font-family:Arial;text-align:start;text-anchor:start;fill:#3475cd"
         transform="rotate(-90,45.04429,187.68455)"
         y="187.68456"
         x="45.044292"
         xml:space="preserve">d</text>
    </g>
  </g>
</svg>
