<?xml version="1.0" encoding="UTF-8" standalone="no"?>
<!-- Created with Inkscape (http://www.inkscape.org/) -->

<svg
   width="680.11664"
   height="340.45282"
   id="svg2"
   version="1.1"
   inkscape:version="1.3 (0e150ed6c4, 2023-07-21)"
   sodipodi:docname="ExtensionBlock.svg"
   inkscape:export-filename="ExtensionBlock.png"
   inkscape:export-xdpi="96"
   inkscape:export-ydpi="96"
   xmlns:inkscape="http://www.inkscape.org/namespaces/inkscape"
   xmlns:sodipodi="http://sodipodi.sourceforge.net/DTD/sodipodi-0.dtd"
   xmlns="http://www.w3.org/2000/svg"
   xmlns:svg="http://www.w3.org/2000/svg"
   xmlns:rdf="http://www.w3.org/1999/02/22-rdf-syntax-ns#"
   xmlns:cc="http://creativecommons.org/ns#"
   xmlns:dc="http://purl.org/dc/elements/1.1/">
  <defs
     id="defs4">
    <filter
       id="filter3166"
       inkscape:label="Drop Shadow"
       color-interpolation-filters="sRGB"
       x="-0.007633244"
       y="-0.015578392"
       width="1.0212063"
       height="1.0432791">
      <feFlood
         id="feFlood3168"
         flood-opacity="0.5"
         flood-color="rgb(0,0,0)"
         result="flood" />
      <feComposite
         id="feComposite3170"
         in2="SourceGraphic"
         in="flood"
         operator="in"
         result="composite1" />
      <feGaussianBlur
         id="feGaussianBlur3172"
         stdDeviation="3"
         result="blur" />
      <feOffset
         id="feOffset3174"
         dx="6"
         dy="6"
         result="offset" />
      <feComposite
         id="feComposite3176"
         in2="offset"
         in="SourceGraphic"
         operator="over"
         result="composite2" />
    </filter>
  </defs>
  <sodipodi:namedview
     id="base"
     pagecolor="#ffffff"
     bordercolor="#666666"
     borderopacity="1.0"
     inkscape:pageopacity="0.0"
     inkscape:pageshadow="2"
     inkscape:zoom="0.98994949"
     inkscape:cx="506.5915"
     inkscape:cy="203.54574"
     inkscape:document-units="px"
     inkscape:current-layer="layer1"
     showgrid="false"
     fit-margin-top="0"
     fit-margin-left="0"
     fit-margin-right="0"
     fit-margin-bottom="0"
     inkscape:window-width="1719"
     inkscape:window-height="1237"
     inkscape:window-x="926"
     inkscape:window-y="22"
     inkscape:window-maximized="0"
     inkscape:showpageshadow="2"
     inkscape:pagecheckerboard="0"
     inkscape:deskcolor="#d1d1d1" />
  <metadata
     id="metadata7">
    <rdf:RDF>
      <cc:Work
         rdf:about="">
        <dc:format>image/svg+xml</dc:format>
        <dc:type
           rdf:resource="http://purl.org/dc/dcmitype/StillImage" />
        <dc:title />
      </cc:Work>
    </rdf:RDF>
  </metadata>
  <g
     inkscape:label="Ebene 1"
     inkscape:groupmode="layer"
     id="layer1"
     transform="translate(156.1883,-481.44064)">
    <rect
       style="fill:#ffffff;fill-opacity:1;stroke:#000000;stroke-width:1.02116;stroke-linecap:round;stroke-linejoin:round;stroke-miterlimit:4;stroke-dasharray:none;stroke-opacity:1;filter:url(#filter3166)"
       id="rect3092"
       width="1010.1315"
       height="494.95352"
       x="-116.48206"
       y="300.82925"
       transform="matrix(0.65931359,0,0,0.65931359,-74.3064,288.18351)" />
    <path
       inkscape:connector-curvature="0"
       style="fill:#000000;fill-opacity:1;fill-rule:evenodd;stroke:none"
       d="m 325.40836,738.21063 v -76.04179 h 1.62494 1.70232 v 76.04179 h -1.70232 z"
       id="path2991" />
    <path
       inkscape:connector-curvature="0"
       style="fill:#000000;fill-opacity:1;fill-rule:evenodd;stroke:none"
       d="m 265.82723,734.85232 h 61.59296 v 1.67915 1.75912 h -61.59296 v -1.75912 z"
       id="path2993" />
    <path
       inkscape:connector-curvature="0"
       style="fill:#ffffff;fill-opacity:1;fill-rule:evenodd;stroke:none"
       d="m 348.23489,707.4261 v 0 c 19.96355,0 36.90935,-2.47876 54.16467,-7.99598 17.25531,-5.51723 29.71318,-12.39377 39.61757,-21.98896 9.98178,-9.51521 14.54709,-18.95048 14.54709,-29.98492 0,-10.9545 -4.56531,-20.38976 -14.54709,-29.90498 -9.90439,-9.59519 -22.36226,-16.47172 -39.61757,-21.98896 -17.25532,-5.51723 -34.20112,-7.99598 -54.16467,-7.99598 v 0 c 7.66044,6.39679 13.15428,13.27334 17.95172,22.46872 6.26763,11.91401 9.05323,23.66811 9.05323,37.4212 0,13.83304 -2.7856,25.58714 -9.05323,37.50116 -4.79744,9.19537 -10.29128,16.07191 -17.95172,22.4687 z"
       id="path2995" />
    <path
       inkscape:connector-curvature="0"
       style="fill:#000000;fill-opacity:1;fill-rule:evenodd;stroke:none"
       d="m 348.23489,709.18522 c -0.30951,0 -0.54164,-0.0799 -0.85116,-0.23988 -0.23213,-0.15993 -0.46427,-0.39981 -0.61902,-0.63969 -0.15475,-0.31983 -0.15475,-0.55971 -0.15475,-0.87955 0,-0.31985 0,-0.55972 0.15475,-0.87955 0.15475,-0.15993 0.23213,-0.31985 0.38689,-0.47976 l 1.08329,1.35931 z"
       id="path2997" />
    <path
       inkscape:connector-curvature="0"
       style="fill:#000000;fill-opacity:1;fill-rule:evenodd;stroke:none"
       d="m 348.23489,705.74695 c 19.8088,0 36.59984,-2.47876 53.7004,-7.99599 l 0.46427,1.67916 0.46426,1.67916 c -17.41007,5.51722 -34.51063,8.07594 -54.62893,8.07594 v -1.75912 z"
       id="path2999" />
    <path
       inkscape:connector-curvature="0"
       style="fill:#000000;fill-opacity:1;fill-rule:evenodd;stroke:none"
       d="m 401.93529,697.75096 c 8.51158,-2.71864 15.78512,-5.7571 22.2075,-9.27534 l 0.85116,1.51924 0.77379,1.51924 c -6.57714,3.59819 -14.16019,6.79659 -22.90392,9.59518 l -0.46426,-1.67916 z"
       id="path3001" />
    <path
       inkscape:connector-curvature="0"
       style="fill:#000000;fill-opacity:1;fill-rule:evenodd;stroke:none"
       d="m 424.14279,688.47562 c 6.42238,-3.59819 11.91623,-7.59619 16.71367,-12.31381 l 1.16067,1.27935 1.16067,1.27936 c -5.10695,4.87755 -10.75555,9.11543 -17.41006,12.79358 l -0.77379,-1.51924 z"
       id="path3003" />
    <path
       inkscape:connector-curvature="0"
       style="fill:#000000;fill-opacity:1;fill-rule:evenodd;stroke:none"
       d="m 440.85646,676.16181 c 0,0 0,0 0,0 l 1.16067,1.27935 z"
       id="path3005" />
    <path
       inkscape:connector-curvature="0"
       style="fill:#000000;fill-opacity:1;fill-rule:evenodd;stroke:none"
       d="m 440.85646,676.16181 c 4.87482,-4.55772 8.35684,-9.11542 10.67818,-13.91301 l 1.47018,0.7996 1.54756,0.71964 c -2.4761,5.11743 -6.26762,9.99498 -11.37458,14.95248 l -1.16067,-1.27936 z"
       id="path3007" />
    <path
       inkscape:connector-curvature="0"
       style="fill:#000000;fill-opacity:1;fill-rule:evenodd;stroke:none"
       d="m 451.53464,662.2488 c 1.16067,-2.31883 2.01183,-4.71763 2.55347,-7.19638 l 1.62495,0.39979 1.62493,0.3998 c -0.61902,2.71864 -1.54756,5.35731 -2.78561,7.91603 l -1.54756,-0.71964 z"
       id="path3009" />
    <path
       inkscape:connector-curvature="0"
       style="fill:#000000;fill-opacity:1;fill-rule:evenodd;stroke:none"
       d="m 454.08811,655.05242 c 0.54165,-2.47876 0.85116,-4.95751 0.85116,-7.59618 h 1.62495 1.70231 c 0,2.87855 -0.30951,5.67715 -0.92854,8.39577 l -1.62493,-0.3998 z"
       id="path3011" />
    <path
       inkscape:connector-curvature="0"
       style="fill:#000000;fill-opacity:1;fill-rule:evenodd;stroke:none"
       d="m 454.93927,647.45624 c 0,-2.63868 -0.30951,-5.11743 -0.85116,-7.59619 l 1.62495,-0.31984 1.62493,-0.3998 c 0.61903,2.63867 0.92854,5.43728 0.92854,8.31583 h -1.70231 z"
       id="path3013" />
    <path
       inkscape:connector-curvature="0"
       style="fill:#000000;fill-opacity:1;fill-rule:evenodd;stroke:none"
       d="m 454.08811,639.86005 c -0.54164,-2.3988 -1.3928,-4.79759 -2.55347,-7.11643 l 1.47018,-0.79959 1.54756,-0.71963 c 1.23805,2.5587 2.16659,5.19737 2.78561,7.91601 l -1.62493,0.3998 z"
       id="path3015" />
    <path
       inkscape:connector-curvature="0"
       style="fill:#000000;fill-opacity:1;fill-rule:evenodd;stroke:none"
       d="m 451.53464,632.74362 c -2.32134,-4.79759 -5.80336,-9.35529 -10.67818,-13.913 l 1.16067,-1.27936 1.16067,-1.27936 c 5.10696,4.95751 8.89848,9.83506 11.37458,14.9525 l -1.54756,0.71963 z"
       id="path3017" />
    <path
       inkscape:connector-curvature="0"
       style="fill:#000000;fill-opacity:1;fill-rule:evenodd;stroke:none"
       d="m 440.85646,618.83062 c 0,0 0,0 0,0 l 1.16067,-1.27936 z"
       id="path3019" />
    <path
       inkscape:connector-curvature="0"
       style="fill:#000000;fill-opacity:1;fill-rule:evenodd;stroke:none"
       d="m 440.85646,618.83062 c -4.79744,-4.71763 -10.29129,-8.71563 -16.71367,-12.31382 l 0.85116,-1.51923 0.77379,-1.51924 c 6.65451,3.67815 12.30311,7.91602 17.41006,12.79357 l -1.16067,1.27936 z"
       id="path3021" />
    <path
       inkscape:connector-curvature="0"
       style="fill:#000000;fill-opacity:1;fill-rule:evenodd;stroke:none"
       d="m 424.14279,606.5168 c -6.42238,-3.51822 -13.69592,-6.5567 -22.2075,-9.27534 l 0.46427,-1.67916 0.46426,-1.67916 c 8.74373,2.7986 16.32678,5.997 22.90392,9.59519 l -0.77379,1.51924 z"
       id="path3023" />
    <path
       inkscape:connector-curvature="0"
       style="fill:#000000;fill-opacity:1;fill-rule:evenodd;stroke:none"
       d="m 401.93529,597.24146 c -17.10056,-5.51723 -33.8916,-7.91602 -53.7004,-7.91602 v -1.75912 -1.67915 c 20.1183,0 37.21886,2.47875 54.62893,7.99597 l -0.46426,1.67916 z"
       id="path3025" />
    <path
       inkscape:connector-curvature="0"
       style="fill:#000000;fill-opacity:1;fill-rule:evenodd;stroke:none"
       d="m 347.1516,588.92565 c -0.15476,-0.15993 -0.23214,-0.31985 -0.38689,-0.47976 -0.15475,-0.31985 -0.15475,-0.55973 -0.15475,-0.87957 0,-0.31983 0,-0.55971 0.15475,-0.87955 0.15475,-0.23988 0.38689,-0.47976 0.61902,-0.63967 0.30952,-0.15993 0.54165,-0.15993 0.85116,-0.15993 v 1.67915 z"
       id="path3027" />
    <path
       inkscape:connector-curvature="0"
       style="fill:#000000;fill-opacity:1;fill-rule:evenodd;stroke:none"
       d="m 349.31819,586.20701 c 7.81518,6.5567 13.38641,13.59317 18.3386,23.02843 l -1.47018,0.7996 -1.47018,0.7996 c -4.64269,-8.95551 -10.05916,-15.67213 -17.56483,-21.90899 l 1.08329,-1.35933 z"
       id="path3029" />
    <path
       inkscape:connector-curvature="0"
       style="fill:#000000;fill-opacity:1;fill-rule:evenodd;stroke:none"
       d="m 364.71643,610.83464 c 0,0 0,0 0,0 l 1.47018,-0.7996 z"
       id="path3031" />
    <path
       inkscape:connector-curvature="0"
       style="fill:#000000;fill-opacity:1;fill-rule:evenodd;stroke:none"
       d="m 367.65679,609.23544 c 3.1725,6.07694 5.49385,12.15389 7.04141,18.39077 l -1.62494,0.39979 -1.62494,0.47976 c -1.47019,-6.07695 -3.63677,-11.83407 -6.73189,-17.67112 l 1.47018,-0.7996 z"
       id="path3033" />
    <path
       inkscape:connector-curvature="0"
       style="fill:#000000;fill-opacity:1;fill-rule:evenodd;stroke:none"
       d="m 374.6982,627.62621 c 1.47018,6.31682 2.24397,12.79356 2.24397,19.83003 h -1.70233 -1.62493 c 0,-6.71662 -0.69641,-12.9535 -2.16659,-18.95048 l 1.62494,-0.47976 z"
       id="path3035" />
    <path
       inkscape:connector-curvature="0"
       style="fill:#000000;fill-opacity:1;fill-rule:evenodd;stroke:none"
       d="m 376.94217,647.45624 c 0,7.03646 -0.77379,13.59316 -2.24397,19.90999 l -1.62494,-0.39979 -1.62494,-0.47976 c 1.47018,-5.997 2.16659,-12.23386 2.16659,-19.03044 h 1.62493 z"
       id="path3037" />
    <path
       inkscape:connector-curvature="0"
       style="fill:#000000;fill-opacity:1;fill-rule:evenodd;stroke:none"
       d="m 374.6982,667.36623 c -1.54756,6.23686 -3.86891,12.31381 -7.04141,18.39075 l -1.47018,-0.79958 -1.47018,-0.7996 c 3.09512,-5.83707 5.2617,-11.59418 6.73189,-17.67112 l 1.62494,0.47976 z"
       id="path3039" />
    <path
       inkscape:connector-curvature="0"
       style="fill:#000000;fill-opacity:1;fill-rule:evenodd;stroke:none"
       d="m 364.71643,684.1578 c 0,0 0,0 0,0 l 1.47018,0.7996 z"
       id="path3041" />
    <path
       inkscape:connector-curvature="0"
       style="fill:#000000;fill-opacity:1;fill-rule:evenodd;stroke:none"
       d="m 367.65679,685.75698 c -4.95219,9.43526 -10.52342,16.47172 -18.3386,23.02843 l -1.0833,-1.35931 -1.08329,-1.35931 c 7.50567,-6.23688 12.92214,-12.9535 17.56483,-21.90899 l 1.47018,0.7996 z"
       id="path3043" />
    <text
       xml:space="preserve"
       x="53.167339"
       y="522.80402"
       style="font-style:normal;font-weight:normal;font-size:32.7309px;line-height:0%;font-family:Arial;text-align:start;text-anchor:start;fill:#000000"
       id="text3045">enable </text>
    <path
       inkscape:connector-curvature="0"
       style="fill:#000000;fill-opacity:1;fill-rule:evenodd;stroke:none"
       d="m -137.62211,772.99316 h 321.6607 v 1.67915 1.75912 h -321.6607 v -1.75912 z"
       id="path3047" />
    <path
       inkscape:connector-curvature="0"
       style="fill:#000000;fill-opacity:1;fill-rule:evenodd;stroke:none"
       d="M -34.709252,708.30565 H 160.74779 v 1.67917 1.75911 H -34.709252 v -1.75911 z"
       id="path3049" />
    <path
       inkscape:connector-curvature="0"
       style="fill:#ffffff;fill-opacity:1;fill-rule:evenodd;stroke:none"
       d="m 184.27073,799.77969 v -123.77781 0 c 14.70184,0 27.23708,2.55873 40.00447,8.31583 12.76739,5.67715 21.898,12.79358 29.24891,22.62863 7.35092,9.91502 10.75556,19.59015 10.75556,30.94446 0,11.35429 -3.40464,21.02943 -10.75556,30.94444 -7.35091,9.83507 -16.48152,16.95149 -29.24891,22.62863 -12.76739,5.75712 -25.30263,8.31582 -40.00447,8.31582 z"
       id="path3051" />
    <path
       inkscape:connector-curvature="0"
       style="fill:#000000;fill-opacity:1;fill-rule:evenodd;stroke:none"
       d="m 184.27073,801.53882 c -0.30951,0 -0.54164,-0.0799 -0.85116,-0.23988 -0.23214,-0.15993 -0.46427,-0.39981 -0.61902,-0.63969 -0.15476,-0.31983 -0.15476,-0.55971 -0.15476,-0.87956 h 1.62494 z"
       id="path3053" />
    <path
       inkscape:connector-curvature="0"
       style="fill:#000000;fill-opacity:1;fill-rule:evenodd;stroke:none"
       d="M 182.64579,799.77969 V 676.00188 h 1.62494 1.70232 v 123.77781 h -1.70232 z"
       id="path3055" />
    <path
       inkscape:connector-curvature="0"
       style="fill:#000000;fill-opacity:1;fill-rule:evenodd;stroke:none"
       d="m 182.64579,676.00188 c 0,-0.31982 0,-0.5597 0.15476,-0.87955 0.15475,-0.23988 0.38688,-0.47976 0.61902,-0.63967 0.30952,-0.15993 0.54165,-0.15993 0.85116,-0.15993 v 1.67915 z"
       id="path3057" />
    <path
       inkscape:connector-curvature="0"
       style="fill:#000000;fill-opacity:1;fill-rule:evenodd;stroke:none"
       d="m 184.27073,674.32273 c 14.93397,0 27.70135,2.55872 40.70087,8.39579 l -0.6964,1.59919 -0.6964,1.5992 C 211.04354,680.23976 198.74043,677.761 184.27073,677.761 v -1.75912 z"
       id="path3059" />
    <path
       inkscape:connector-curvature="0"
       style="fill:#000000;fill-opacity:1;fill-rule:evenodd;stroke:none"
       d="m 223.65617,685.91691 c -0.0774,0 -0.0774,0 -0.0774,0 l 0.6964,-1.5992 -0.61903,1.5992 z"
       id="path3061" />
    <path
       inkscape:connector-curvature="0"
       style="fill:#000000;fill-opacity:1;fill-rule:evenodd;stroke:none"
       d="m 224.89423,682.71852 c 6.57713,2.87855 12.14836,6.1569 17.02318,9.99498 l -1.00592,1.35931 -1.00592,1.35931 c -4.64268,-3.59819 -10.05915,-6.71662 -16.2494,-9.51521 l 0.61903,-1.5992 z"
       id="path3063" />
    <path
       inkscape:connector-curvature="0"
       style="fill:#000000;fill-opacity:1;fill-rule:evenodd;stroke:none"
       d="m 241.91741,692.7135 c 4.95219,3.75811 9.13061,8.15589 12.92213,13.19336 l -1.31543,1.03948 -1.31542,1.03948 c -3.5594,-4.79758 -7.58305,-8.87554 -12.30312,-12.5537 l 1.00592,-1.35931 z"
       id="path3065" />
    <path
       inkscape:connector-curvature="0"
       style="fill:#000000;fill-opacity:1;fill-rule:evenodd;stroke:none"
       d="m 254.83954,705.90686 c 0,0 0,0 0,0 l -1.31543,1.03948 z"
       id="path3067" />
    <path
       inkscape:connector-curvature="0"
       style="fill:#000000;fill-opacity:1;fill-rule:evenodd;stroke:none"
       d="m 254.83954,705.90686 c 3.79153,5.11743 6.57714,10.15491 8.35684,15.35229 l -1.54756,0.63969 -1.54756,0.5597 c -1.70233,-4.9575 -4.33318,-9.67513 -7.89257,-14.47272 l 1.31542,-1.03948 z"
       id="path3069" />
    <path
       inkscape:connector-curvature="0"
       style="fill:#000000;fill-opacity:1;fill-rule:evenodd;stroke:none"
       d="m 263.19638,721.25915 c 1.85707,5.27734 2.78561,10.71461 2.78561,16.63165 h -1.70232 -1.62494 c 0,-5.43727 -0.85116,-10.55471 -2.55347,-15.43226 l 1.54756,-0.5597 z"
       id="path3071" />
    <path
       inkscape:connector-curvature="0"
       style="fill:#000000;fill-opacity:1;fill-rule:evenodd;stroke:none"
       d="m 265.98199,737.8908 c 0,5.91702 -0.92854,11.35429 -2.78561,16.63163 l -1.54756,-0.63967 -1.54756,-0.55972 c 1.70231,-4.87755 2.55347,-9.99498 2.55347,-15.43224 h 1.62494 z"
       id="path3073" />
    <path
       inkscape:connector-curvature="0"
       style="fill:#000000;fill-opacity:1;fill-rule:evenodd;stroke:none"
       d="m 263.19638,754.52243 c -1.7797,5.1974 -4.56531,10.23486 -8.35684,15.35229 l -1.31543,-1.03948 -1.31542,-1.03947 c 3.55939,-4.7976 6.19024,-9.51522 7.89257,-14.47273 l 1.54756,0.55972 z"
       id="path3075" />
    <path
       inkscape:connector-curvature="0"
       style="fill:#000000;fill-opacity:1;fill-rule:evenodd;stroke:none"
       d="m 254.83954,769.87472 c 0,0 0,0 0,0 l -1.31543,-1.03948 z"
       id="path3077" />
    <path
       inkscape:connector-curvature="0"
       style="fill:#000000;fill-opacity:1;fill-rule:evenodd;stroke:none"
       d="m 254.83954,769.87472 c -3.79152,5.03747 -7.96994,9.43526 -12.92213,13.19338 l -1.00592,-1.35933 -1.00592,-1.35931 c 4.72007,-3.67815 8.74372,-7.7561 12.30312,-12.55369 l 1.31542,1.03947 z"
       id="path3079" />
    <path
       inkscape:connector-curvature="0"
       style="fill:#000000;fill-opacity:1;fill-rule:evenodd;stroke:none"
       d="m 241.91741,783.0681 c -4.87482,3.83806 -10.44605,7.11643 -17.02318,9.99498 l -0.61903,-1.59921 -0.61903,-1.59919 c 6.19025,-2.7986 11.60672,-5.91703 16.2494,-9.51522 l 1.00592,1.35931 z"
       id="path3081" />
    <path
       inkscape:connector-curvature="0"
       style="fill:#000000;fill-opacity:1;fill-rule:evenodd;stroke:none"
       d="m 223.5788,789.86468 c 0,0 0,0 0.0774,0 l 0.61903,1.59919 -0.6964,-1.59919 z"
       id="path3083" />
    <path
       inkscape:connector-curvature="0"
       style="fill:#000000;fill-opacity:1;fill-rule:evenodd;stroke:none"
       d="m 224.9716,793.06308 c -12.99952,5.83706 -25.7669,8.47574 -40.70087,8.47574 v -1.75913 -1.67915 c 14.4697,0 26.77281,-2.55872 39.30807,-8.23586 l 0.6964,1.59919 z"
       id="path3085" />
    <path
       inkscape:connector-curvature="0"
       style="fill:#ffffff;fill-opacity:1;fill-rule:evenodd;stroke:none"
       d="m 183.88384,709.90486 v 0 c 0,2.07894 -0.46427,3.7581 -1.54756,5.51722 -1.08329,1.83909 -2.39872,3.11843 -4.17842,4.07795 -1.85708,1.03948 -3.71414,1.51924 -5.80336,1.51924 -2.0892,0 -3.94628,-0.47976 -5.72597,-1.51924 -1.85708,-0.95952 -3.17251,-2.23886 -4.2558,-4.07795 -1.08329,-1.75912 -1.54756,-3.43828 -1.54756,-5.51722 0,-2.07897 0.46427,-3.75812 1.54756,-5.59719 1.08329,-1.75912 2.39872,-3.03848 4.2558,-3.998 1.77969,-1.03946 3.55939,-1.51923 5.6486,-1.51923 v 0 h 0.0774 c 2.08922,0 3.94628,0.47977 5.80336,1.51923 1.7797,0.95952 3.09513,2.23888 4.17842,3.998 1.08329,1.83907 1.54756,3.51822 1.54756,5.59719 z"
       id="path3087" />
    <path
       inkscape:connector-curvature="0"
       style="fill:#000000;fill-opacity:1;fill-rule:evenodd;stroke:none"
       d="m 185.58615,709.90486 c 0,1.19939 -0.15475,2.31883 -0.46426,3.35831 l -1.62494,-0.47976 -1.54756,-0.47976 c 0.15475,-0.71964 0.30951,-1.51924 0.30951,-2.39879 h 1.62494 z"
       id="path3089" />
    <path
       inkscape:connector-curvature="0"
       style="fill:#000000;fill-opacity:1;fill-rule:evenodd;stroke:none"
       d="m 185.12189,713.26317 c -0.30951,1.03948 -0.77378,2.07896 -1.3928,3.11843 l -1.39281,-0.95952 -1.39281,-0.95951 c 0.46427,-0.71965 0.77378,-1.43928 1.00592,-2.15892 l 1.54756,0.47976 z"
       id="path3091" />
    <path
       inkscape:connector-curvature="0"
       style="fill:#000000;fill-opacity:1;fill-rule:evenodd;stroke:none"
       d="m 180.94347,714.54253 c 0,0 0,0 0,-0.0799 l 1.39281,0.95952 -1.39281,-0.87955 z"
       id="path3093" />
    <path
       inkscape:connector-curvature="0"
       style="fill:#000000;fill-opacity:1;fill-rule:evenodd;stroke:none"
       d="m 183.72909,716.30165 c -0.61903,1.03947 -1.31543,1.99898 -2.08922,2.71862 l -1.16067,-1.1994 -1.08329,-1.27934 c 0.54165,-0.55973 1.08329,-1.1994 1.54756,-1.999 l 1.39281,0.87955 z"
       id="path3095" />
    <path
       inkscape:connector-curvature="0"
       style="fill:#000000;fill-opacity:1;fill-rule:evenodd;stroke:none"
       d="m 181.63987,719.02027 c -0.77377,0.7996 -1.70231,1.43927 -2.70823,1.999 l -0.77378,-1.51924 -0.77378,-1.51923 c 0.77378,-0.39981 1.3928,-0.87956 2.01183,-1.43927 l 1.08329,1.27934 z"
       id="path3097" />
    <path
       inkscape:connector-curvature="0"
       style="fill:#000000;fill-opacity:1;fill-rule:evenodd;stroke:none"
       d="m 177.38408,717.9808 c 0,0 0,0 0,0 l 0.77378,1.51923 z"
       id="path3099" />
    <path
       inkscape:connector-curvature="0"
       style="fill:#000000;fill-opacity:1;fill-rule:evenodd;stroke:none"
       d="m 178.93164,721.01927 c -1.00591,0.55972 -2.0892,1.03948 -3.1725,1.27936 l -0.38689,-1.67916 -0.46427,-1.5992 c 0.85116,-0.23988 1.62494,-0.55971 2.4761,-1.03947 l 0.77378,1.51923 z"
       id="path3101" />
    <path
       inkscape:connector-curvature="0"
       style="fill:#000000;fill-opacity:1;fill-rule:evenodd;stroke:none"
       d="m 175.75914,722.29863 c -1.08329,0.31984 -2.24396,0.47976 -3.40464,0.47976 v -1.75912 -1.67916 c 0.92854,0 1.7797,-0.15991 2.55348,-0.31984 l 0.46427,1.5992 z"
       id="path3103" />
    <path
       inkscape:connector-curvature="0"
       style="fill:#000000;fill-opacity:1;fill-rule:evenodd;stroke:none"
       d="m 172.3545,722.77839 c -1.16067,0 -2.32134,-0.15992 -3.40463,-0.47976 l 0.46427,-1.67916 0.38689,-1.5992 c 0.77378,0.15993 1.62493,0.31984 2.55347,0.31984 v 1.67916 z"
       id="path3105" />
    <path
       inkscape:connector-curvature="0"
       style="fill:#000000;fill-opacity:1;fill-rule:evenodd;stroke:none"
       d="m 168.94987,722.29863 c -1.0833,-0.23988 -2.08921,-0.71964 -3.1725,-1.27936 l 0.85116,-1.51924 0.85115,-1.51923 c 0.69641,0.47976 1.47019,0.79959 2.32135,1.03947 l -0.38689,1.5992 z"
       id="path3107" />
    <path
       inkscape:connector-curvature="0"
       style="fill:#000000;fill-opacity:1;fill-rule:evenodd;stroke:none"
       d="m 167.40231,717.9808 c 0,0 0,0 0.0774,0 l -0.85115,1.51923 0.77378,-1.51923 z"
       id="path3109" />
    <path
       inkscape:connector-curvature="0"
       style="fill:#000000;fill-opacity:1;fill-rule:evenodd;stroke:none"
       d="m 165.85474,721.01927 c -1.08329,-0.55973 -1.93445,-1.1994 -2.78561,-1.999 l 1.16068,-1.1994 1.08329,-1.27934 c 0.61902,0.55971 1.31543,1.03946 2.08921,1.43927 l -0.77378,1.51923 z"
       id="path3111" />
    <path
       inkscape:connector-curvature="0"
       style="fill:#000000;fill-opacity:1;fill-rule:evenodd;stroke:none"
       d="m 163.06913,719.02027 c -0.77378,-0.71964 -1.47018,-1.67915 -2.0892,-2.71862 l 1.3928,-0.87957 1.39281,-0.87955 c 0.46427,0.7996 1.00591,1.43927 1.54756,1.999 l -1.08329,1.27934 z"
       id="path3113" />
    <path
       inkscape:connector-curvature="0"
       style="fill:#000000;fill-opacity:1;fill-rule:evenodd;stroke:none"
       d="m 163.76554,714.46257 c 0,0.0799 0,0.0799 0,0.0799 l -1.39281,0.87955 1.39281,-0.95952 z"
       id="path3115" />
    <path
       inkscape:connector-curvature="0"
       style="fill:#000000;fill-opacity:1;fill-rule:evenodd;stroke:none"
       d="m 160.97993,716.3816 c -0.61903,-1.03947 -1.0833,-2.07895 -1.39281,-3.11843 l 1.62494,-0.47976 1.54756,-0.47976 c 0.23213,0.71964 0.54165,1.43927 1.00592,2.15892 l -1.39281,0.95951 z"
       id="path3117" />
    <path
       inkscape:connector-curvature="0"
       style="fill:#000000;fill-opacity:1;fill-rule:evenodd;stroke:none"
       d="m 159.58712,713.26317 c -0.30951,-1.03948 -0.38689,-2.15892 -0.38689,-3.35831 h 1.62494 1.70232 c 0,0.87955 0.0774,1.67915 0.23213,2.39879 l -1.54756,0.47976 z"
       id="path3119" />
    <path
       inkscape:connector-curvature="0"
       style="fill:#000000;fill-opacity:1;fill-rule:evenodd;stroke:none"
       d="m 159.20023,709.90486 c 0,-1.1994 0.0774,-2.31884 0.38689,-3.35831 l 1.62494,0.47976 1.54756,0.47975 c -0.15476,0.71964 -0.23213,1.51924 -0.23213,2.3988 h -1.70232 z"
       id="path3121" />
    <path
       inkscape:connector-curvature="0"
       style="fill:#000000;fill-opacity:1;fill-rule:evenodd;stroke:none"
       d="m 159.58712,706.54655 c 0.30951,-1.03949 0.77378,-2.07897 1.39281,-3.11844 l 1.3928,0.87956 1.39281,0.87955 c -0.46427,0.79961 -0.77379,1.51924 -1.00592,2.31884 l -1.54756,-0.47975 z"
       id="path3123" />
    <path
       inkscape:connector-curvature="0"
       style="fill:#000000;fill-opacity:1;fill-rule:evenodd;stroke:none"
       d="m 160.97993,703.42811 c 0,0 0,0 0,-0.0799 l 1.3928,0.95952 -1.3928,-0.87955 z"
       id="path3125" />
    <path
       inkscape:connector-curvature="0"
       style="fill:#000000;fill-opacity:1;fill-rule:evenodd;stroke:none"
       d="m 160.97993,703.34815 c 0.61902,-0.95952 1.31542,-1.83909 2.0892,-2.63867 l 1.16068,1.27935 1.08329,1.27936 c -0.54165,0.55972 -1.08329,1.19939 -1.54756,1.99899 l -1.39281,-0.95951 z"
       id="path3127" />
    <path
       inkscape:connector-curvature="0"
       style="fill:#000000;fill-opacity:1;fill-rule:evenodd;stroke:none"
       d="m 163.06913,700.70948 c 0.85116,-0.71964 1.70232,-1.35933 2.78561,-1.91904 l 0.77379,1.51923 0.77378,1.51924 c -0.77378,0.39979 -1.47019,0.87957 -2.08921,1.43928 l -1.08329,-1.27936 z"
       id="path3129" />
    <path
       inkscape:connector-curvature="0"
       style="fill:#000000;fill-opacity:1;fill-rule:evenodd;stroke:none"
       d="m 167.47968,701.82891 c -0.0774,0 -0.0774,0 -0.0774,0 l -0.77378,-1.51924 0.85115,1.51924 z"
       id="path3131" />
    <path
       inkscape:connector-curvature="0"
       style="fill:#000000;fill-opacity:1;fill-rule:evenodd;stroke:none"
       d="m 165.77737,698.79044 c 1.08329,-0.55972 2.0892,-1.03948 3.1725,-1.27935 l 0.38689,1.67915 0.38689,1.59919 c -0.77378,0.23988 -1.54756,0.55972 -2.24397,1.03948 l -0.85115,-1.51924 z"
       id="path3133" />
    <path
       inkscape:connector-curvature="0"
       style="fill:#000000;fill-opacity:1;fill-rule:evenodd;stroke:none"
       d="m 168.94987,697.51109 c 1.00591,-0.31985 2.16659,-0.3998 3.32726,-0.3998 v 1.67915 1.75911 c -0.92854,0 -1.70232,0.0799 -2.55348,0.23988 l -0.38689,-1.59919 z"
       id="path3135" />
    <path
       inkscape:connector-curvature="0"
       style="fill:#000000;fill-opacity:1;fill-rule:evenodd;stroke:none"
       d="m 172.27713,697.11129 h 0.0774 v 1.67915 1.75911 h -0.0774 v -1.75911 z"
       id="path3137" />
    <path
       inkscape:connector-curvature="0"
       style="fill:#000000;fill-opacity:1;fill-rule:evenodd;stroke:none"
       d="m 172.3545,697.11129 c 1.16068,0 2.32135,0.0799 3.40464,0.3998 l -0.38689,1.67915 -0.46427,1.59919 c -0.77378,-0.15992 -1.62494,-0.23988 -2.55348,-0.23988 v -1.75911 z"
       id="path3139" />
    <path
       inkscape:connector-curvature="0"
       style="fill:#000000;fill-opacity:1;fill-rule:evenodd;stroke:none"
       d="m 175.75914,697.51109 c 1.0833,0.23987 2.16659,0.71963 3.1725,1.27935 l -0.77378,1.51923 -0.77378,1.51924 c -0.85116,-0.47976 -1.62494,-0.7996 -2.4761,-1.03948 l 0.46427,-1.59919 z"
       id="path3141" />
    <path
       inkscape:connector-curvature="0"
       style="fill:#000000;fill-opacity:1;fill-rule:evenodd;stroke:none"
       d="m 177.38408,701.82891 c 0,0 0,0 0,0 l 0.77378,-1.51924 z"
       id="path3143" />
    <path
       inkscape:connector-curvature="0"
       style="fill:#000000;fill-opacity:1;fill-rule:evenodd;stroke:none"
       d="m 178.93164,698.79044 c 1.00592,0.55971 1.93446,1.1994 2.70823,1.99899 l -1.16067,1.1994 -1.08329,1.27936 c -0.61903,-0.55971 -1.23805,-1.03949 -2.01183,-1.43928 l 0.77378,-1.51924 z"
       id="path3145" />
    <path
       inkscape:connector-curvature="0"
       style="fill:#000000;fill-opacity:1;fill-rule:evenodd;stroke:none"
       d="m 181.63987,700.78943 c 0.77379,0.71963 1.47019,1.5992 2.08922,2.55872 l -1.39281,0.95952 -1.39281,0.95951 c -0.46427,-0.7996 -1.00591,-1.43927 -1.54756,-1.99899 l 1.08329,-1.27936 z"
       id="path3147" />
    <path
       inkscape:connector-curvature="0"
       style="fill:#000000;fill-opacity:1;fill-rule:evenodd;stroke:none"
       d="m 183.72909,703.34815 c 0,0.0799 0,0.0799 0,0.0799 l -1.39281,0.87955 1.39281,-0.95952 z"
       id="path3149" />
    <path
       inkscape:connector-curvature="0"
       style="fill:#000000;fill-opacity:1;fill-rule:evenodd;stroke:none"
       d="m 183.72909,703.42811 c 0.61902,1.03947 1.08329,2.07895 1.3928,3.11844 l -1.62494,0.47976 -1.54756,0.47975 c -0.23214,-0.7996 -0.54165,-1.51923 -1.00592,-2.31884 l 1.39281,-0.87955 z"
       id="path3151" />
    <path
       inkscape:connector-curvature="0"
       style="fill:#000000;fill-opacity:1;fill-rule:evenodd;stroke:none"
       d="m 185.12189,706.54655 c 0.30951,1.03947 0.46426,2.15891 0.46426,3.35831 h -1.70231 -1.62494 c 0,-0.87956 -0.15476,-1.67916 -0.30951,-2.3988 l 1.54756,-0.47975 z"
       id="path3153" />
    <path
       inkscape:connector-curvature="0"
       style="fill:#000000;fill-opacity:1;fill-rule:evenodd;stroke:none"
       d="m -137.62211,595.40239 h 320.11314 v 1.67915 1.75912 h -320.11314 v -1.75912 z"
       id="path3155" />
    <path
       inkscape:connector-curvature="0"
       style="fill:#000000;fill-opacity:1;fill-rule:evenodd;stroke:none"
       d="M 54.043409,530.63493 H 181.87201 v 1.67916 1.7591 H 54.043409 v -1.7591 z"
       id="path3157" />
    <path
       inkscape:connector-curvature="0"
       style="fill:#ffffff;fill-opacity:1;fill-rule:evenodd;stroke:none"
       d="m 182.72317,622.18893 v -123.85776 0 c 14.70184,0 27.23708,2.55871 40.00447,8.31581 12.76738,5.67715 21.898,12.79358 29.24891,22.62863 7.35092,9.91502 10.75556,19.59017 10.75556,30.94446 0,11.43425 -3.40464,21.10939 -10.75556,31.0244 -7.35091,9.83507 -16.48153,16.95148 -29.24891,22.62863 -12.76739,5.75711 -25.30263,8.31583 -40.00447,8.31583 z"
       id="path3159" />
    <path
       inkscape:connector-curvature="0"
       style="fill:#000000;fill-opacity:1;fill-rule:evenodd;stroke:none"
       d="m 182.72317,623.94805 c -0.30951,0 -0.54165,-0.0799 -0.85116,-0.23988 -0.23214,-0.15993 -0.46427,-0.39981 -0.61902,-0.63969 -0.15476,-0.31982 -0.15476,-0.55971 -0.15476,-0.87955 h 1.62494 z"
       id="path3161" />
    <path
       inkscape:connector-curvature="0"
       style="fill:#000000;fill-opacity:1;fill-rule:evenodd;stroke:none"
       d="M 181.09823,622.18893 V 498.33117 h 1.62494 1.70232 v 123.85776 h -1.70232 z"
       id="path3163" />
    <path
       inkscape:connector-curvature="0"
       style="fill:#000000;fill-opacity:1;fill-rule:evenodd;stroke:none"
       d="m 181.09823,498.33117 c 0,-0.31984 0,-0.55972 0.15476,-0.87957 0.15475,-0.23988 0.38688,-0.47975 0.61902,-0.63967 0.30951,-0.15993 0.54165,-0.15993 0.85116,-0.15993 v 1.67917 z"
       id="path3165" />
    <path
       inkscape:connector-curvature="0"
       style="fill:#000000;fill-opacity:1;fill-rule:evenodd;stroke:none"
       d="m 182.72317,496.652 c 14.93397,0 27.70135,2.55872 40.70087,8.39579 l -0.6964,1.59919 -0.6964,1.5992 c -12.53526,-5.67715 -24.83837,-8.15591 -39.30807,-8.15591 v -1.7591 z"
       id="path3167" />
    <path
       inkscape:connector-curvature="0"
       style="fill:#000000;fill-opacity:1;fill-rule:evenodd;stroke:none"
       d="m 222.10861,508.24618 c -0.0774,0 -0.0774,0 -0.0774,0 l 0.6964,-1.5992 -0.61903,1.5992 z"
       id="path3169" />
    <path
       inkscape:connector-curvature="0"
       style="fill:#000000;fill-opacity:1;fill-rule:evenodd;stroke:none"
       d="m 223.34667,505.04779 c 6.57713,2.87855 12.14835,6.15691 17.02317,9.99498 l -1.00592,1.35931 -1.00591,1.35933 c -4.64268,-3.59821 -10.05915,-6.71664 -16.2494,-9.51523 l 0.61903,-1.5992 z"
       id="path3171" />
    <path
       inkscape:connector-curvature="0"
       style="fill:#000000;fill-opacity:1;fill-rule:evenodd;stroke:none"
       d="m 240.36984,515.04277 c 4.9522,3.7581 9.13062,8.15589 12.92214,13.19336 l -1.31543,1.03948 -1.31543,1.03948 c -3.55939,-4.79758 -7.58304,-8.87554 -12.30311,-12.55368 l 1.00591,-1.35933 z"
       id="path3173" />
    <path
       inkscape:connector-curvature="0"
       style="fill:#000000;fill-opacity:1;fill-rule:evenodd;stroke:none"
       d="m 253.29198,528.23613 c 0,0 0,0 0,0 l -1.31543,1.03948 z"
       id="path3175" />
    <path
       inkscape:connector-curvature="0"
       style="fill:#000000;fill-opacity:1;fill-rule:evenodd;stroke:none"
       d="m 253.29198,528.23613 c 3.79153,5.11743 6.57714,10.15491 8.35684,15.35228 l -1.54756,0.6397 -1.54757,0.5597 c -1.70232,-4.9575 -4.33317,-9.67514 -7.89257,-14.47272 l 1.31543,-1.03948 z"
       id="path3177" />
    <path
       inkscape:connector-curvature="0"
       style="fill:#000000;fill-opacity:1;fill-rule:evenodd;stroke:none"
       d="m 261.64882,543.58841 c 1.85707,5.27737 2.78561,10.71462 2.78561,16.63166 h -1.70232 -1.62494 c 0,-5.43728 -0.85116,-10.55471 -2.55348,-15.43226 l 1.54757,-0.5597 z"
       id="path3179" />
    <path
       inkscape:connector-curvature="0"
       style="fill:#000000;fill-opacity:1;fill-rule:evenodd;stroke:none"
       d="m 264.43443,560.22007 c 0,5.91701 -0.92854,11.35429 -2.78561,16.63163 l -1.54756,-0.55971 -1.54757,-0.55972 c 1.70232,-4.87755 2.55348,-9.99498 2.55348,-15.5122 h 1.62494 z"
       id="path3181" />
    <path
       inkscape:connector-curvature="0"
       style="fill:#000000;fill-opacity:1;fill-rule:evenodd;stroke:none"
       d="m 261.64882,576.8517 c -1.7797,5.27736 -4.56531,10.31482 -8.35684,15.43226 l -1.31543,-1.03949 -1.31543,-1.03948 c 3.5594,-4.79759 6.19025,-9.51521 7.89257,-14.47272 l 1.54757,0.55972 z"
       id="path3183" />
    <path
       inkscape:connector-curvature="0"
       style="fill:#000000;fill-opacity:1;fill-rule:evenodd;stroke:none"
       d="m 253.29198,592.28396 c 0,0 0,0 0,0 l -1.31543,-1.03949 z"
       id="path3185" />
    <path
       inkscape:connector-curvature="0"
       style="fill:#000000;fill-opacity:1;fill-rule:evenodd;stroke:none"
       d="m 253.29198,592.28396 c -3.79152,5.03746 -7.96994,9.43525 -12.92214,13.19337 l -1.00592,-1.35933 -1.00591,-1.3593 c 4.72007,-3.67816 8.74372,-7.75611 12.30311,-12.55371 l 1.31543,1.03948 z"
       id="path3187" />
    <path
       inkscape:connector-curvature="0"
       style="fill:#000000;fill-opacity:1;fill-rule:evenodd;stroke:none"
       d="m 240.36984,605.47733 c -4.87482,3.83807 -10.44604,7.11641 -17.02317,9.99498 l -0.61903,-1.59921 -0.61903,-1.59918 c 6.19025,-2.7986 11.60672,-5.91704 16.2494,-9.51522 l 1.00591,1.3593 z"
       id="path3189" />
    <path
       inkscape:connector-curvature="0"
       style="fill:#000000;fill-opacity:1;fill-rule:evenodd;stroke:none"
       d="m 222.03124,612.27392 c 0,0 0,0 0.0774,0 l 0.61903,1.59918 -0.6964,-1.59918 z"
       id="path3191" />
    <path
       inkscape:connector-curvature="0"
       style="fill:#000000;fill-opacity:1;fill-rule:evenodd;stroke:none"
       d="m 223.42404,615.47231 c -12.99952,5.83705 -25.7669,8.47574 -40.70087,8.47574 v -1.75912 -1.67916 c 14.4697,0 26.77281,-2.55871 39.30807,-8.23585 l 0.6964,1.59918 z"
       id="path3193" />
    <text
       xml:space="preserve"
       x="-138.99008"
       y="581.88727"
       style="font-style:normal;font-weight:normal;font-size:32.7309px;line-height:0%;font-family:Arial;text-align:start;text-anchor:start;fill:#000000"
       id="text3195">extension input </text>
    <text
       xml:space="preserve"
       x="-36.444744"
       y="693.96289"
       style="font-style:normal;font-weight:normal;font-size:32.7309px;line-height:0%;font-family:Arial;text-align:start;text-anchor:start;fill:#000000"
       id="text3197">ignore_cable </text>
    <text
       xml:space="preserve"
       x="-138.03938"
       y="758.73376"
       style="font-style:normal;font-weight:normal;font-size:32.7309px;line-height:0%;font-family:Arial;text-align:start;text-anchor:start;fill:#000000"
       id="text3199">cable sync</text>
    <path
       inkscape:connector-curvature="0"
       style="fill:#000000;fill-opacity:1;fill-rule:evenodd;stroke:none"
       d="m 325.87262,662.00892 h 47.43277 v 1.67915 1.75913 h -47.43277 v -1.75913 z"
       id="path3201" />
    <path
       inkscape:connector-curvature="0"
       style="fill:#000000;fill-opacity:1;fill-rule:evenodd;stroke:none"
       d="m 325.40836,625.46728 h 47.43276 v 1.67915 1.75912 h -47.43276 v -1.75912 z"
       id="path3203" />
    <path
       inkscape:connector-curvature="0"
       style="fill:#000000;fill-opacity:1;fill-rule:evenodd;stroke:none"
       d="m 325.40836,628.026 v -76.04179 h 1.62494 1.70232 V 628.026 h -1.70232 z"
       id="path3205" />
    <path
       inkscape:connector-curvature="0"
       style="fill:#000000;fill-opacity:1;fill-rule:evenodd;stroke:none"
       d="m 262.65473,552.06415 h 66.08089 v 1.67918 1.7591 h -66.08089 v -1.7591 z"
       id="path3207" />
    <path
       inkscape:connector-curvature="0"
       style="fill:#000000;fill-opacity:1;fill-rule:evenodd;stroke:none"
       d="m 457.72489,642.41877 h 47.43276 v 1.67915 1.75911 h -47.43276 v -1.75911 z"
       id="path3209" />
  </g>
</svg>
