<?xml version="1.0" encoding="UTF-8" standalone="no"?>
<!-- Created with Inkscape (http://www.inkscape.org/) -->

<svg
   width="679.90002"
   height="329.89999"
   id="svg3191"
   version="1.1"
   inkscape:version="1.3 (0e150ed6c4, 2023-07-21)"
   sodipodi:docname="level-trigger.svg"
   inkscape:export-filename="level-trigger.png"
   inkscape:export-xdpi="96"
   inkscape:export-ydpi="96"
   xmlns:inkscape="http://www.inkscape.org/namespaces/inkscape"
   xmlns:sodipodi="http://sodipodi.sourceforge.net/DTD/sodipodi-0.dtd"
   xmlns="http://www.w3.org/2000/svg"
   xmlns:svg="http://www.w3.org/2000/svg"
   xmlns:rdf="http://www.w3.org/1999/02/22-rdf-syntax-ns#"
   xmlns:cc="http://creativecommons.org/ns#"
   xmlns:dc="http://purl.org/dc/elements/1.1/">
  <defs
     id="defs3193">
    <filter
       id="filter3839"
       inkscape:label="Drop Shadow"
       color-interpolation-filters="sRGB"
       x="-0.012064269"
       y="-0.025686285"
       width="1.0301894"
       height="1.0642768">
      <feFlood
         id="feFlood3841"
         flood-opacity="0.5"
         flood-color="rgb(0,0,0)"
         result="flood" />
      <feComposite
         id="feComposite3843"
         in2="SourceGraphic"
         in="flood"
         operator="in"
         result="composite1" />
      <feGaussianBlur
         id="feGaussianBlur3845"
         stdDeviation="3"
         result="blur" />
      <feOffset
         id="feOffset3847"
         dx="4"
         dy="4"
         result="offset" />
      <feComposite
         id="feComposite3849"
         in2="offset"
         in="SourceGraphic"
         operator="over"
         result="composite2" />
    </filter>
  </defs>
  <sodipodi:namedview
     id="base"
     pagecolor="#ffffff"
     bordercolor="#666666"
     borderopacity="1.0"
     inkscape:pageopacity="0.0"
     inkscape:pageshadow="2"
     inkscape:zoom="1.4"
     inkscape:cx="350"
     inkscape:cy="161.78571"
     inkscape:document-units="px"
     inkscape:current-layer="g3203"
     showgrid="false"
     fit-margin-top="0"
     fit-margin-left="0"
     fit-margin-right="0"
     fit-margin-bottom="0"
     inkscape:window-width="3440"
     inkscape:window-height="1369"
     inkscape:window-x="-8"
     inkscape:window-y="-8"
     inkscape:window-maximized="1"
     inkscape:showpageshadow="2"
     inkscape:pagecheckerboard="0"
     inkscape:deskcolor="#d1d1d1" />
  <metadata
     id="metadata3196">
    <rdf:RDF>
      <cc:Work
         rdf:about="">
        <dc:format>image/svg+xml</dc:format>
        <dc:type
           rdf:resource="http://purl.org/dc/dcmitype/StillImage" />
        <dc:title />
      </cc:Work>
    </rdf:RDF>
  </metadata>
  <g
     inkscape:label="Ebene 1"
     inkscape:groupmode="layer"
     id="layer1"
     transform="translate(-182.52556,-368.93027)">
    <g
       id="g3203"
       transform="translate(197.88638,377.55875)">
      <rect
         style="fill:#ffffff;fill-opacity:1;stroke:#000000;stroke-width:1.52425;stroke-linecap:round;stroke-linejoin:round;stroke-miterlimit:4;stroke-dasharray:none;stroke-opacity:1;filter:url(#filter3839)"
         id="rect3825"
         width="659.97577"
         height="309.97574"
         x="-7.3987002"
         y="-0.66635191" />
      <path
         id="path3205"
         d="m 135.9149,15.718581 v 8.758613 c 0,0.391009 -0.23461,0.625615 -0.62562,0.625615 -0.31281,0 -0.62561,-0.234606 -0.62561,-0.625615 v -8.758613 c 0,-0.312807 0.3128,-0.625615 0.62561,-0.625615 0.39101,0 0.62562,0.312808 0.62562,0.625615 z m 0,15.014765 v 8.758612 c 0,0.39101 -0.23461,0.625615 -0.62562,0.625615 -0.31281,0 -0.62561,-0.234605 -0.62561,-0.625615 v -8.758612 c 0,-0.312808 0.3128,-0.625615 0.62561,-0.625615 0.39101,0 0.62562,0.312807 0.62562,0.625615 z m 0,15.014764 v 8.758613 c 0,0.391009 -0.23461,0.625615 -0.62562,0.625615 -0.31281,0 -0.62561,-0.234606 -0.62561,-0.625615 V 45.74811 c 0,-0.312808 0.3128,-0.625615 0.62561,-0.625615 0.39101,0 0.62562,0.312807 0.62562,0.625615 z m 0,15.014764 v 8.758613 c 0,0.391009 -0.23461,0.625615 -0.62562,0.625615 -0.31281,0 -0.62561,-0.234606 -0.62561,-0.625615 v -8.758613 c 0,-0.312807 0.3128,-0.625615 0.62561,-0.625615 0.39101,0 0.62562,0.312808 0.62562,0.625615 z m 0,15.014765 v 8.758612 c 0,0.39101 -0.23461,0.625615 -0.62562,0.625615 -0.31281,0 -0.62561,-0.234605 -0.62561,-0.625615 v -8.758612 c 0,-0.312808 0.3128,-0.625616 0.62561,-0.625616 0.39101,0 0.62562,0.312808 0.62562,0.625616 z m 0,15.014764 v 8.758612 c 0,0.39101 -0.23461,0.625615 -0.62562,0.625615 -0.31281,0 -0.62561,-0.234605 -0.62561,-0.625615 v -8.758612 c 0,-0.312808 0.3128,-0.625615 0.62561,-0.625615 0.39101,0 0.62562,0.312807 0.62562,0.625615 z m 0,15.014767 v 8.75861 c 0,0.39101 -0.23461,0.62561 -0.62562,0.62561 -0.31281,0 -0.62561,-0.2346 -0.62561,-0.62561 v -8.75861 c 0,-0.31281 0.3128,-0.62562 0.62561,-0.62562 0.39101,0 0.62562,0.31281 0.62562,0.62562 z m 0,15.01476 v 8.75861 c 0,0.39101 -0.23461,0.62562 -0.62562,0.62562 -0.31281,0 -0.62561,-0.23461 -0.62561,-0.62562 v -8.75861 c 0,-0.31281 0.3128,-0.62561 0.62561,-0.62561 0.39101,0 0.62562,0.3128 0.62562,0.62561 z m 0,15.01477 v 8.75861 c 0,0.39101 -0.23461,0.62561 -0.62562,0.62561 -0.31281,0 -0.62561,-0.2346 -0.62561,-0.62561 v -8.75861 c 0,-0.31281 0.3128,-0.62562 0.62561,-0.62562 0.39101,0 0.62562,0.31281 0.62562,0.62562 z m 0,15.01476 v 8.75861 c 0,0.39101 -0.23461,0.62562 -0.62562,0.62562 -0.31281,0 -0.62561,-0.23461 -0.62561,-0.62562 v -8.75861 c 0,-0.31281 0.3128,-0.62562 0.62561,-0.62562 0.39101,0 0.62562,0.31281 0.62562,0.62562 z m 0,15.01476 v 8.75862 c 0,0.39101 -0.23461,0.62561 -0.62562,0.62561 -0.31281,0 -0.62561,-0.2346 -0.62561,-0.62561 v -8.75862 c 0,-0.3128 0.3128,-0.62561 0.62561,-0.62561 0.39101,0 0.62562,0.31281 0.62562,0.62561 z m 0,15.01477 v 8.75861 c 0,0.39101 -0.23461,0.62562 -0.62562,0.62562 -0.31281,0 -0.62561,-0.23461 -0.62561,-0.62562 v -8.75861 c 0,-0.31281 0.3128,-0.62562 0.62561,-0.62562 0.39101,0 0.62562,0.31281 0.62562,0.62562 z m 0,15.01476 v 8.75862 c 0,0.39101 -0.23461,0.62561 -0.62562,0.62561 -0.31281,0 -0.62561,-0.2346 -0.62561,-0.62561 v -8.75862 c 0,-0.3128 0.3128,-0.62561 0.62561,-0.62561 0.39101,0 0.62562,0.31281 0.62562,0.62561 z m 0,15.01477 v 8.75861 c 0,0.39101 -0.23461,0.62562 -0.62562,0.62562 -0.31281,0 -0.62561,-0.23461 -0.62561,-0.62562 v -8.75861 c 0,-0.31281 0.3128,-0.62562 0.62561,-0.62562 0.39101,0 0.62562,0.31281 0.62562,0.62562 z m 0,15.01476 v 8.75861 c 0,0.39101 -0.23461,0.62562 -0.62562,0.62562 -0.31281,0 -0.62561,-0.23461 -0.62561,-0.62562 v -8.75861 c 0,-0.31281 0.3128,-0.62561 0.62561,-0.62561 0.39101,0 0.62562,0.3128 0.62562,0.62561 z m 0,15.01477 v 7.97659 c 0,0.31281 -0.23461,0.62561 -0.62562,0.62561 -0.31281,0 -0.62561,-0.3128 -0.62561,-0.62561 v -7.97659 c 0,-0.31281 0.3128,-0.62562 0.62561,-0.62562 0.39101,0 0.62562,0.31281 0.62562,0.62562 z"
         style="fill:#3475cd;fill-opacity:1;fill-rule:nonzero;stroke:#3475cd;stroke-width:1.25123px;stroke-linecap:butt;stroke-linejoin:bevel;stroke-dasharray:none;stroke-opacity:1"
         inkscape:connector-curvature="0" />
      <path
         id="path3207"
         d="m 267.45049,67.801045 v 8.758613 c 0,0.312807 -0.31281,0.625615 -0.62562,0.625615 -0.39101,0 -0.62561,-0.312808 -0.62561,-0.625615 v -8.758613 c 0,-0.391009 0.2346,-0.625615 0.62561,-0.625615 0.31281,0 0.62562,0.234606 0.62562,0.625615 z m 0,15.014764 v 8.758613 c 0,0.312807 -0.31281,0.625615 -0.62562,0.625615 -0.39101,0 -0.62561,-0.312808 -0.62561,-0.625615 v -8.758613 c 0,-0.391009 0.2346,-0.625615 0.62561,-0.625615 0.31281,0 0.62562,0.234606 0.62562,0.625615 z m 0,15.014765 v 8.758616 c 0,0.3128 -0.31281,0.62561 -0.62562,0.62561 -0.39101,0 -0.62561,-0.31281 -0.62561,-0.62561 v -8.758616 c 0,-0.39101 0.2346,-0.625615 0.62561,-0.625615 0.31281,0 0.62562,0.234605 0.62562,0.625615 z m 0,15.014766 v 8.75861 c 0,0.31281 -0.31281,0.62562 -0.62562,0.62562 -0.39101,0 -0.62561,-0.31281 -0.62561,-0.62562 v -8.75861 c 0,-0.39101 0.2346,-0.62562 0.62561,-0.62562 0.31281,0 0.62562,0.23461 0.62562,0.62562 z"
         style="fill:#3475cd;fill-opacity:1;fill-rule:nonzero;stroke:#3475cd;stroke-width:1.25123px;stroke-linecap:butt;stroke-linejoin:bevel;stroke-dasharray:none;stroke-opacity:1"
         inkscape:connector-curvature="0" />
      <path
         id="path3209"
         d="m 598.00991,15.718581 v 8.758613 c 0,0.391009 -0.31281,0.625615 -0.62562,0.625615 -0.391,0 -0.62561,-0.234606 -0.62561,-0.625615 v -8.758613 c 0,-0.312807 0.23461,-0.625615 0.62561,-0.625615 0.31281,0 0.62562,0.312808 0.62562,0.625615 z m 0,15.014765 v 8.758612 c 0,0.39101 -0.31281,0.625615 -0.62562,0.625615 -0.391,0 -0.62561,-0.234605 -0.62561,-0.625615 v -8.758612 c 0,-0.312808 0.23461,-0.625615 0.62561,-0.625615 0.31281,0 0.62562,0.312807 0.62562,0.625615 z m 0,15.014764 v 8.758613 c 0,0.391009 -0.31281,0.625615 -0.62562,0.625615 -0.391,0 -0.62561,-0.234606 -0.62561,-0.625615 V 45.74811 c 0,-0.312808 0.23461,-0.625615 0.62561,-0.625615 0.31281,0 0.62562,0.312807 0.62562,0.625615 z m 0,15.014764 v 8.758613 c 0,0.391009 -0.31281,0.625615 -0.62562,0.625615 -0.391,0 -0.62561,-0.234606 -0.62561,-0.625615 v -8.758613 c 0,-0.312807 0.23461,-0.625615 0.62561,-0.625615 0.31281,0 0.62562,0.312808 0.62562,0.625615 z m 0,15.014765 v 8.758612 c 0,0.39101 -0.31281,0.625615 -0.62562,0.625615 -0.391,0 -0.62561,-0.234605 -0.62561,-0.625615 v -8.758612 c 0,-0.312808 0.23461,-0.625616 0.62561,-0.625616 0.31281,0 0.62562,0.312808 0.62562,0.625616 z m 0,15.014764 v 8.758612 c 0,0.39101 -0.31281,0.625615 -0.62562,0.625615 -0.391,0 -0.62561,-0.234605 -0.62561,-0.625615 v -8.758612 c 0,-0.312808 0.23461,-0.625615 0.62561,-0.625615 0.31281,0 0.62562,0.312807 0.62562,0.625615 z m 0,15.014767 v 8.75861 c 0,0.39101 -0.31281,0.62561 -0.62562,0.62561 -0.391,0 -0.62561,-0.2346 -0.62561,-0.62561 v -8.75861 c 0,-0.31281 0.23461,-0.62562 0.62561,-0.62562 0.31281,0 0.62562,0.31281 0.62562,0.62562 z m 0,15.01476 v 8.75861 c 0,0.39101 -0.31281,0.62562 -0.62562,0.62562 -0.391,0 -0.62561,-0.23461 -0.62561,-0.62562 v -8.75861 c 0,-0.31281 0.23461,-0.62561 0.62561,-0.62561 0.31281,0 0.62562,0.3128 0.62562,0.62561 z m 0,15.01477 v 8.75861 c 0,0.39101 -0.31281,0.62561 -0.62562,0.62561 -0.391,0 -0.62561,-0.2346 -0.62561,-0.62561 v -8.75861 c 0,-0.31281 0.23461,-0.62562 0.62561,-0.62562 0.31281,0 0.62562,0.31281 0.62562,0.62562 z m 0,15.01476 v 8.75861 c 0,0.39101 -0.31281,0.62562 -0.62562,0.62562 -0.391,0 -0.62561,-0.23461 -0.62561,-0.62562 v -8.75861 c 0,-0.31281 0.23461,-0.62562 0.62561,-0.62562 0.31281,0 0.62562,0.31281 0.62562,0.62562 z m 0,15.01476 v 8.75862 c 0,0.39101 -0.31281,0.62561 -0.62562,0.62561 -0.391,0 -0.62561,-0.2346 -0.62561,-0.62561 v -8.75862 c 0,-0.3128 0.23461,-0.62561 0.62561,-0.62561 0.31281,0 0.62562,0.31281 0.62562,0.62561 z m 0,15.01477 v 8.75861 c 0,0.39101 -0.31281,0.62562 -0.62562,0.62562 -0.391,0 -0.62561,-0.23461 -0.62561,-0.62562 v -8.75861 c 0,-0.31281 0.23461,-0.62562 0.62561,-0.62562 0.31281,0 0.62562,0.31281 0.62562,0.62562 z m 0,15.01476 v 8.75862 c 0,0.39101 -0.31281,0.62561 -0.62562,0.62561 -0.391,0 -0.62561,-0.2346 -0.62561,-0.62561 v -8.75862 c 0,-0.3128 0.23461,-0.62561 0.62561,-0.62561 0.31281,0 0.62562,0.31281 0.62562,0.62561 z m 0,15.01477 v 8.75861 c 0,0.39101 -0.31281,0.62562 -0.62562,0.62562 -0.391,0 -0.62561,-0.23461 -0.62561,-0.62562 v -8.75861 c 0,-0.31281 0.23461,-0.62562 0.62561,-0.62562 0.31281,0 0.62562,0.31281 0.62562,0.62562 z m 0,15.01476 v 8.75861 c 0,0.39101 -0.31281,0.62562 -0.62562,0.62562 -0.391,0 -0.62561,-0.23461 -0.62561,-0.62562 v -8.75861 c 0,-0.31281 0.23461,-0.62561 0.62561,-0.62561 0.31281,0 0.62562,0.3128 0.62562,0.62561 z"
         style="fill:#3475cd;fill-opacity:1;fill-rule:nonzero;stroke:#3475cd;stroke-width:1.25123px;stroke-linecap:butt;stroke-linejoin:bevel;stroke-dasharray:none;stroke-opacity:1"
         inkscape:connector-curvature="0" />
      <path
         id="path3211"
         d="M 2.8934702,294.74295 H 24.946405 v -8.05479 H 2.8934702 Z"
         style="fill:none;stroke:#a6a6a6;stroke-width:2.03325px;stroke-linecap:round;stroke-linejoin:round;stroke-dasharray:none;stroke-opacity:1"
         inkscape:connector-curvature="0" />
      <path
         id="path3213"
         d="m 24.946405,294.74295 h 21.974733 v -9.46243 H 24.946405 Z"
         style="fill:none;stroke:#a6a6a6;stroke-width:2.03325px;stroke-linecap:round;stroke-linejoin:round;stroke-dasharray:none;stroke-opacity:1"
         inkscape:connector-curvature="0" />
      <path
         id="path3215"
         d="m 68.974074,294.74295 h 21.974733 v -16.5006 H 68.974074 Z"
         style="fill:none;stroke:#a6a6a6;stroke-width:2.03325px;stroke-linecap:round;stroke-linejoin:round;stroke-dasharray:none;stroke-opacity:1"
         inkscape:connector-curvature="0" />
      <path
         id="path3217"
         d="M 46.921138,294.74295 H 68.974074 V 282.93446 H 46.921138 Z"
         style="fill:none;stroke:#a6a6a6;stroke-width:2.03325px;stroke-linecap:round;stroke-linejoin:round;stroke-dasharray:none;stroke-opacity:1"
         inkscape:connector-curvature="0" />
      <path
         id="path3219"
         d="M 90.948807,294.74295 H 113.00174 V 271.59519 H 90.948807 Z"
         style="fill:none;stroke:#a6a6a6;stroke-width:2.03325px;stroke-linecap:round;stroke-linejoin:round;stroke-dasharray:none;stroke-opacity:1"
         inkscape:connector-curvature="0" />
      <path
         id="path3221"
         d="m 113.00174,294.74295 h 21.97473 v -32.14098 h -21.97473 z"
         style="fill:none;stroke:#a6a6a6;stroke-width:2.03325px;stroke-linecap:round;stroke-linejoin:round;stroke-dasharray:none;stroke-opacity:1"
         inkscape:connector-curvature="0" />
      <path
         id="path3223"
         d="m 134.97647,294.74295 h 22.05294 v -43.94946 h -22.05294 z"
         style="fill:none;stroke:#944266;stroke-width:2.03325px;stroke-linecap:round;stroke-linejoin:round;stroke-dasharray:none;stroke-opacity:1"
         inkscape:connector-curvature="0" />
      <path
         id="path3225"
         d="m 157.02941,294.74295 h 21.97473 v -61.46669 h -21.97473 z"
         style="fill:none;stroke:#944266;stroke-width:2.03325px;stroke-linecap:round;stroke-linejoin:round;stroke-dasharray:none;stroke-opacity:1"
         inkscape:connector-curvature="0" />
      <path
         id="path3227"
         d="m 201.05708,294.74295 h 21.97473 V 193.5497 h -21.97473 z"
         style="fill:none;stroke:#944266;stroke-width:2.03325px;stroke-linecap:round;stroke-linejoin:round;stroke-dasharray:none;stroke-opacity:1"
         inkscape:connector-curvature="0" />
      <path
         id="path3229"
         d="m 179.00414,294.74295 h 22.05294 V 214.3514 h -22.05294 z"
         style="fill:none;stroke:#944266;stroke-width:2.03325px;stroke-linecap:round;stroke-linejoin:round;stroke-dasharray:none;stroke-opacity:1"
         inkscape:connector-curvature="0" />
      <path
         id="path3231"
         d="m 223.03181,294.74295 h 22.05294 V 171.80957 h -22.05294 z"
         style="fill:none;stroke:#944266;stroke-width:2.03325px;stroke-linecap:round;stroke-linejoin:round;stroke-dasharray:none;stroke-opacity:1"
         inkscape:connector-curvature="0" />
      <path
         id="path3233"
         d="m 245.08475,294.74295 h 21.97473 V 148.1926 h -21.97473 z"
         style="fill:none;stroke:#944266;stroke-width:2.03325px;stroke-linecap:round;stroke-linejoin:round;stroke-dasharray:none;stroke-opacity:1"
         inkscape:connector-curvature="0" />
      <path
         id="path3235"
         d="m 267.05948,129.26774 v 165.47521 h 22.05293 V 129.26774 Z"
         style="fill:#c985a3;fill-opacity:1;fill-rule:evenodd;stroke:#944266;stroke-opacity:1"
         inkscape:connector-curvature="0" />
      <path
         id="path3237"
         d="m 267.05948,294.74295 h 22.05293 V 129.26774 h -22.05293 z"
         style="fill:#c985a3;fill-opacity:1;stroke:#944266;stroke-width:2.03325px;stroke-linecap:round;stroke-linejoin:round;stroke-dasharray:none;stroke-opacity:1"
         inkscape:connector-curvature="0" />
      <path
         id="path3239"
         d="m 289.11241,115.03499 v 179.70796 h 21.97474 V 115.03499 Z"
         style="fill:#c985a3;fill-opacity:1;fill-rule:evenodd;stroke:#944266;stroke-opacity:1"
         inkscape:connector-curvature="0" />
      <path
         id="path3241"
         d="m 289.11241,294.74295 h 21.97474 V 115.03499 h -21.97474 z"
         style="fill:#c985a3;fill-opacity:1;stroke:#944266;stroke-width:2.03325px;stroke-linecap:round;stroke-linejoin:round;stroke-dasharray:none;stroke-opacity:1"
         inkscape:connector-curvature="0" />
      <path
         id="path3243"
         d="m 465.22309,294.74295 h 21.97473 V 154.76156 h -21.97473 z"
         style="fill:none;stroke:#944266;stroke-width:2.03325px;stroke-linecap:round;stroke-linejoin:round;stroke-dasharray:none;stroke-opacity:1"
         inkscape:connector-curvature="0" />
      <path
         id="path3245"
         d="m 487.19782,294.74295 h 22.05294 V 171.80957 h -22.05294 z"
         style="fill:none;stroke:#944266;stroke-width:2.03325px;stroke-linecap:round;stroke-linejoin:round;stroke-dasharray:none;stroke-opacity:1"
         inkscape:connector-curvature="0" />
      <path
         id="path3247"
         d="m 509.25076,294.74295 h 22.05293 V 183.14884 h -22.05293 z"
         style="fill:none;stroke:#944266;stroke-width:2.03325px;stroke-linecap:round;stroke-linejoin:round;stroke-dasharray:none;stroke-opacity:1"
         inkscape:connector-curvature="0" />
      <path
         id="path3249"
         d="m 553.27842,294.74295 h 22.05294 v -77.57628 h -22.05294 z"
         style="fill:none;stroke:#944266;stroke-width:2.03325px;stroke-linecap:round;stroke-linejoin:round;stroke-dasharray:none;stroke-opacity:1"
         inkscape:connector-curvature="0" />
      <path
         id="path3251"
         d="m 597.30609,294.74295 h 22.05294 v -42.54183 h -22.05294 z"
         style="fill:none;stroke:#a6a6a6;stroke-width:2.03325px;stroke-linecap:round;stroke-linejoin:round;stroke-dasharray:none;stroke-opacity:1"
         inkscape:connector-curvature="0" />
      <path
         id="path3253"
         d="m 619.35903,294.74295 h 21.97473 v -33.0794 h -21.97473 z"
         style="fill:none;stroke:#a6a6a6;stroke-width:2.03325px;stroke-linecap:round;stroke-linejoin:round;stroke-dasharray:none;stroke-opacity:1"
         inkscape:connector-curvature="0" />
      <path
         id="path3255"
         d="m 531.30369,294.74295 h 21.97473 v -97.43956 h -21.97473 z"
         style="fill:none;stroke:#944266;stroke-width:2.03325px;stroke-linecap:round;stroke-linejoin:round;stroke-dasharray:none;stroke-opacity:1"
         inkscape:connector-curvature="0" />
      <path
         id="path3257"
         d="M 466.78713,70.147102 H 589.1731"
         style="fill:none;stroke:#3475cd;stroke-width:1.17303px;stroke-linecap:round;stroke-linejoin:round;stroke-dasharray:none;stroke-opacity:1"
         inkscape:connector-curvature="0" />
      <path
         id="path3259"
         d="m 597.38429,70.147102 -10.87006,5.395931 c 1.72044,-3.440884 1.72044,-7.42918 0,-10.791862 v 0 z"
         style="fill:#3475cd;fill-opacity:1;fill-rule:evenodd;stroke:none"
         inkscape:connector-curvature="0" />
      <path
         id="path3261"
         d="m 466.39612,65.376786 v 9.46243"
         style="fill:none;stroke:#3475cd;stroke-width:1.17303px;stroke-linecap:round;stroke-linejoin:round;stroke-dasharray:none;stroke-opacity:1"
         inkscape:connector-curvature="0" />
      <path
         id="path3263"
         d="m 266.82487,65.376786 v 9.46243"
         style="fill:none;stroke:#3475cd;stroke-width:1.17303px;stroke-linecap:round;stroke-linejoin:round;stroke-dasharray:none;stroke-opacity:1"
         inkscape:connector-curvature="0" />
      <path
         id="path3265"
         d="M 143.50048,70.147102 H 266.82487"
         style="fill:none;stroke:#3475cd;stroke-width:1.17303px;stroke-linecap:round;stroke-linejoin:round;stroke-dasharray:none;stroke-opacity:1"
         inkscape:connector-curvature="0" />
      <path
         id="path3267"
         d="m 135.28928,70.147102 10.87007,-5.395931 c -1.72045,3.362682 -1.72045,7.350978 0,10.791862 v 0 z"
         style="fill:#3475cd;fill-opacity:1;fill-rule:evenodd;stroke:none"
         inkscape:connector-curvature="0" />
      <text
         id="text3269"
         style="font-style:normal;font-weight:normal;font-size:20.0197px;line-height:0%;font-family:Arial;text-align:start;text-anchor:start;fill:#3475cd"
         y="58.807827"
         x="142.64026"
         xml:space="preserve">precursor </text>
      <text
         id="text3271"
         style="font-style:normal;font-weight:normal;font-size:20.0197px;line-height:0%;font-family:Arial;text-align:start;text-anchor:start;fill:#3475cd"
         y="58.807827"
         x="232.72885"
         xml:space="preserve">= </text>
      <text
         id="text3273"
         style="font-style:normal;font-weight:normal;font-size:20.0197px;line-height:0%;font-family:Arial;text-align:start;text-anchor:start;fill:#3475cd"
         y="58.807827"
         x="250.24606"
         xml:space="preserve">6</text>
      <text
         id="text3275"
         style="font-style:normal;font-weight:normal;font-size:20.0197px;line-height:0%;font-family:Arial;text-align:start;text-anchor:start;fill:#3475cd"
         y="58.807827"
         x="484.22614"
         xml:space="preserve">length</text>
      <text
         id="text3277"
         style="font-style:normal;font-weight:normal;font-size:20.0197px;line-height:0%;font-family:Arial;text-align:start;text-anchor:start;fill:#3475cd"
         y="58.807827"
         x="539.28027"
         xml:space="preserve"> = </text>
      <text
         id="text3279"
         style="font-style:normal;font-weight:normal;font-size:20.0197px;line-height:0%;font-family:Arial;text-align:start;text-anchor:start;fill:#3475cd"
         y="58.807827"
         x="561.80243"
         xml:space="preserve">6</text>
      <path
         id="path3281"
         d="M 143.50048,34.643441 H 589.1731"
         style="fill:none;stroke:#3475cd;stroke-width:1.17303px;stroke-linecap:round;stroke-linejoin:round;stroke-dasharray:none;stroke-opacity:1"
         inkscape:connector-curvature="0" />
      <path
         id="path3283"
         d="m 135.28928,34.643441 10.87007,-5.395931 c -1.72045,3.440883 -1.72045,7.42918 0,10.791861 v 0 z"
         style="fill:#3475cd;fill-opacity:1;fill-rule:evenodd;stroke:none"
         inkscape:connector-curvature="0" />
      <path
         id="path3285"
         d="m 597.38429,34.643441 -10.87006,5.39593 c 1.72044,-3.362681 1.72044,-7.350978 0,-10.791861 v 0 z"
         style="fill:#3475cd;fill-opacity:1;fill-rule:evenodd;stroke:none"
         inkscape:connector-curvature="0" />
      <text
         id="text3287"
         style="font-style:normal;font-weight:normal;font-size:20.0197px;line-height:0%;font-family:Arial;text-align:start;text-anchor:start;fill:#3475cd"
         y="22.522146"
         x="271.517"
         xml:space="preserve">total length</text>
      <text
         id="text3289"
         style="font-style:normal;font-weight:normal;font-size:20.0197px;line-height:0%;font-family:Arial;text-align:start;text-anchor:start;fill:#3475cd"
         y="22.522146"
         x="370.3642"
         xml:space="preserve"> = </text>
      <text
         id="text3291"
         style="font-style:normal;font-weight:normal;font-size:20.0197px;line-height:0%;font-family:Arial;text-align:start;text-anchor:start;fill:#3475cd"
         y="22.522146"
         x="392.88632"
         xml:space="preserve">2</text>
      <text
         id="text3293"
         style="font-style:normal;font-weight:normal;font-size:20.0197px;line-height:0%;font-family:Arial;text-align:start;text-anchor:start;fill:#3475cd"
         y="22.522146"
         x="404.1474"
         xml:space="preserve">1</text>
      <path
         id="path3295"
         d="m 467.02173,80.547954 v 8.758613 c 0,0.312807 -0.31281,0.625615 -0.62561,0.625615 -0.39101,0 -0.62562,-0.312808 -0.62562,-0.625615 v -8.758613 c 0,-0.391009 0.23461,-0.625615 0.62562,-0.625615 0.3128,0 0.62561,0.234606 0.62561,0.625615 z m 0,15.014765 v 8.758611 c 0,0.31281 -0.31281,0.62562 -0.62561,0.62562 -0.39101,0 -0.62562,-0.31281 -0.62562,-0.62562 v -8.758611 c 0,-0.39101 0.23461,-0.625616 0.62562,-0.625616 0.3128,0 0.62561,0.234606 0.62561,0.625616 z m 0,15.014761 v 8.75862 c 0,0.3128 -0.31281,0.62561 -0.62561,0.62561 -0.39101,0 -0.62562,-0.31281 -0.62562,-0.62561 v -8.75862 c 0,-0.39101 0.23461,-0.62561 0.62562,-0.62561 0.3128,0 0.62561,0.2346 0.62561,0.62561 z m 0,15.01477 v 6.02154 c 0,0.31281 -0.31281,0.62562 -0.62561,0.62562 -0.39101,0 -0.62562,-0.31281 -0.62562,-0.62562 v -6.02154 c 0,-0.39101 0.23461,-0.62562 0.62562,-0.62562 0.3128,0 0.62561,0.23461 0.62561,0.62562 z"
         style="fill:#3475cd;fill-opacity:1;fill-rule:nonzero;stroke:#3475cd;stroke-width:1.25123px;stroke-linecap:butt;stroke-linejoin:bevel;stroke-dasharray:none;stroke-opacity:1"
         inkscape:connector-curvature="0" />
      <path
         id="path3297"
         d="M 57.321991,149.28742 V 286.60995"
         style="fill:none;stroke:#3475cd;stroke-width:1.17303px;stroke-linecap:round;stroke-linejoin:round;stroke-dasharray:none;stroke-opacity:1"
         inkscape:connector-curvature="0" />
      <path
         id="path3299"
         d="m 57.321991,141.07622 5.395931,10.79186 c -3.440884,-1.72044 -7.429181,-1.72044 -10.791862,0 v 0 z"
         style="fill:#3475cd;fill-opacity:1;fill-rule:evenodd;stroke:none"
         inkscape:connector-curvature="0" />
      <path
         id="path3301"
         d="M 57.321991,294.74295 51.92606,283.95109 c 3.362681,1.72044 7.350978,1.72044 10.791862,0 v 0 z"
         style="fill:#3475cd;fill-opacity:1;fill-rule:evenodd;stroke:none"
         inkscape:connector-curvature="0" />
      <text
         id="text3303"
         style="font-style:normal;font-weight:normal;font-size:20.0197px;line-height:0%;font-family:Arial;text-align:start;text-anchor:start;fill:#3475cd"
         transform="rotate(-90,45.04429,259.00468)"
         y="259.00467"
         x="45.044292"
         xml:space="preserve">t</text>
      <text
         id="text3305"
         style="font-style:normal;font-weight:normal;font-size:20.0197px;line-height:0%;font-family:Arial;text-align:start;text-anchor:start;fill:#3475cd"
         transform="rotate(-90,45.04429,252.74853)"
         y="252.74854"
         x="45.044292"
         xml:space="preserve">h</text>
      <text
         id="text3307"
         style="font-style:normal;font-weight:normal;font-size:20.0197px;line-height:0%;font-family:Arial;text-align:start;text-anchor:start;fill:#3475cd"
         transform="rotate(-90,45.04429,242.73869)"
         y="242.73869"
         x="45.044292"
         xml:space="preserve">r</text>
      <text
         id="text3309"
         style="font-style:normal;font-weight:normal;font-size:20.0197px;line-height:0%;font-family:Arial;text-align:start;text-anchor:start;fill:#3475cd"
         transform="rotate(-90,45.04429,235.23131)"
         y="235.23131"
         x="45.044292"
         xml:space="preserve">e</text>
      <text
         id="text3311"
         style="font-style:normal;font-weight:normal;font-size:20.0197px;line-height:0%;font-family:Arial;text-align:start;text-anchor:start;fill:#3475cd"
         transform="rotate(-90,45.04429,223.97023)"
         y="223.97023"
         x="45.044292"
         xml:space="preserve">s</text>
      <text
         id="text3313"
         style="font-style:normal;font-weight:normal;font-size:20.0197px;line-height:0%;font-family:Arial;text-align:start;text-anchor:start;fill:#3475cd"
         transform="rotate(-90,45.04429,213.96039)"
         y="213.96039"
         x="45.044292"
         xml:space="preserve">h</text>
      <text
         id="text3315"
         style="font-style:normal;font-weight:normal;font-size:20.0197px;line-height:0%;font-family:Arial;text-align:start;text-anchor:start;fill:#3475cd"
         transform="rotate(-90,45.04429,202.69932)"
         y="202.69933"
         x="45.044292"
         xml:space="preserve">o</text>
      <text
         id="text3317"
         style="font-style:normal;font-weight:normal;font-size:20.0197px;line-height:0%;font-family:Arial;text-align:start;text-anchor:start;fill:#3475cd"
         transform="rotate(-90,45.04429,191.43824)"
         y="191.43823"
         x="45.044292"
         xml:space="preserve">l</text>
      <text
         id="text3319"
         style="font-style:normal;font-weight:normal;font-size:20.0197px;line-height:0%;font-family:Arial;text-align:start;text-anchor:start;fill:#3475cd"
         transform="rotate(-90,45.04429,187.68455)"
         y="187.68456"
         x="45.044292"
         xml:space="preserve">d</text>
      <path
         id="path3321"
         d="m 311.08715,100.88045 v 193.8625 h 22.05293 v -193.8625 z"
         style="fill:#c985a3;fill-opacity:1;fill-rule:evenodd;stroke:#944266;stroke-opacity:1"
         inkscape:connector-curvature="0" />
      <path
         id="path3323"
         d="m 311.08715,294.74295 h 22.05293 v -193.8625 h -22.05293 z"
         style="fill:#c985a3;fill-opacity:1;stroke:#944266;stroke-width:2.03325px;stroke-linecap:round;stroke-linejoin:round;stroke-dasharray:none;stroke-opacity:1"
         inkscape:connector-curvature="0" />
      <path
         id="path3325"
         d="M 355.11482,89.541173 V 294.74295 h 22.05293 V 89.541173 Z"
         style="fill:#c985a3;fill-opacity:1;fill-rule:evenodd;stroke:#944266;stroke-opacity:1"
         inkscape:connector-curvature="0" />
      <path
         id="path3327"
         d="m 355.11482,294.74295 h 22.05293 V 89.541173 h -22.05293 z"
         style="fill:#c985a3;fill-opacity:1;stroke:#944266;stroke-width:2.03325px;stroke-linecap:round;stroke-linejoin:round;stroke-dasharray:none;stroke-opacity:1"
         inkscape:connector-curvature="0" />
      <path
         id="path3329"
         d="M 333.14008,93.764075 V 294.74295 h 21.97474 V 93.764075 Z"
         style="fill:#c985a3;fill-opacity:1;fill-rule:evenodd;stroke:#944266;stroke-opacity:1"
         inkscape:connector-curvature="0" />
      <path
         id="path3331"
         d="m 333.14008,294.74295 h 21.97474 V 93.764075 h -21.97474 z"
         style="fill:#c985a3;fill-opacity:1;stroke:#944266;stroke-width:2.03325px;stroke-linecap:round;stroke-linejoin:round;stroke-dasharray:none;stroke-opacity:1"
         inkscape:connector-curvature="0" />
      <path
         id="path3333"
         d="M 377.16775,91.418018 V 294.74295 h 21.97473 V 91.418018 Z"
         style="fill:#c985a3;fill-opacity:1;fill-rule:evenodd;stroke:#944266;stroke-opacity:1"
         inkscape:connector-curvature="0" />
      <path
         id="path3335"
         d="m 377.16775,294.74295 h 21.97473 V 91.418018 h -21.97473 z"
         style="fill:#c985a3;fill-opacity:1;stroke:#944266;stroke-width:2.03325px;stroke-linecap:round;stroke-linejoin:round;stroke-dasharray:none;stroke-opacity:1"
         inkscape:connector-curvature="0" />
      <path
         id="path3337"
         d="M 399.14248,98.065179 V 294.74295 h 22.05294 V 98.065179 Z"
         style="fill:#c985a3;fill-opacity:1;fill-rule:evenodd;stroke:#944266;stroke-opacity:1"
         inkscape:connector-curvature="0" />
      <path
         id="path3339"
         d="m 399.14248,294.74295 h 22.05294 V 98.065179 h -22.05294 z"
         style="fill:#c985a3;fill-opacity:1;stroke:#944266;stroke-width:2.03325px;stroke-linecap:round;stroke-linejoin:round;stroke-dasharray:none;stroke-opacity:1"
         inkscape:connector-curvature="0" />
      <path
         id="path3341"
         d="m 421.19542,112.21972 v 182.52323 h 21.97473 V 112.21972 Z"
         style="fill:#c985a3;fill-opacity:1;fill-rule:evenodd;stroke:#944266;stroke-opacity:1"
         inkscape:connector-curvature="0" />
      <path
         id="path3343"
         d="m 421.19542,294.74295 h 21.97473 V 112.21972 h -21.97473 z"
         style="fill:#c985a3;fill-opacity:1;stroke:#944266;stroke-width:2.03325px;stroke-linecap:round;stroke-linejoin:round;stroke-dasharray:none;stroke-opacity:1"
         inkscape:connector-curvature="0" />
      <path
         id="path3345"
         d="m 443.17015,133.95985 v 160.7831 h 22.05294 v -160.7831 z"
         style="fill:#ff9191;fill-opacity:1;fill-rule:evenodd;stroke:#944266;stroke-opacity:1"
         inkscape:connector-curvature="0" />
      <path
         id="path3347"
         d="m 443.17015,294.74295 h 22.05294 v -160.7831 h -22.05294 z"
         style="fill:#c985a3;fill-opacity:1;stroke:#944266;stroke-width:2.03325px;stroke-linecap:round;stroke-linejoin:round;stroke-dasharray:none;stroke-opacity:1"
         inkscape:connector-curvature="0" />
      <path
         id="path3349"
         d="M 36.051075,141.07622 H 617.71679"
         style="fill:none;stroke:#3475cd;stroke-width:1.17303px;stroke-linecap:round;stroke-linejoin:round;stroke-dasharray:none;stroke-opacity:1"
         inkscape:connector-curvature="0" />
      <path
         id="path3351"
         d="m 575.33136,294.74295 h 21.97473 v -54.81953 h -21.97473 z"
         style="fill:none;stroke:#944266;stroke-width:2.03325px;stroke-linecap:round;stroke-linejoin:round;stroke-dasharray:none;stroke-opacity:1"
         inkscape:connector-curvature="0" />
    </g>
  </g>
</svg>
