<?xml version="1.0" encoding="UTF-8" standalone="no"?>
<svg
   xmlns:dc="http://purl.org/dc/elements/1.1/"
   xmlns:cc="http://creativecommons.org/ns#"
   xmlns:rdf="http://www.w3.org/1999/02/22-rdf-syntax-ns#"
   xmlns:svg="http://www.w3.org/2000/svg"
   xmlns="http://www.w3.org/2000/svg"
   xmlns:sodipodi="http://sodipodi.sourceforge.net/DTD/sodipodi-0.dtd"
   xmlns:inkscape="http://www.inkscape.org/namespaces/inkscape"
   version="1.0"
   width="678.49786"
   height="201.50691"
   id="svg2985"
   inkscape:version="0.48.4 r9939"
   sodipodi:docname="Ndigo_Intercon.svg">
  <metadata
     id="metadata3188">
    <rdf:RDF>
      <cc:Work
         rdf:about="">
        <dc:format>image/svg+xml</dc:format>
        <dc:type
           rdf:resource="http://purl.org/dc/dcmitype/StillImage" />
        <dc:title />
      </cc:Work>
    </rdf:RDF>
  </metadata>
  <sodipodi:namedview
     pagecolor="#ffffff"
     bordercolor="#666666"
     borderopacity="1"
     objecttolerance="10"
     gridtolerance="10"
     guidetolerance="10"
     inkscape:pageopacity="0"
     inkscape:pageshadow="2"
     inkscape:window-width="1680"
     inkscape:window-height="987"
     id="namedview3186"
     showgrid="false"
     fit-margin-top="0"
     fit-margin-left="0"
     fit-margin-right="0"
     fit-margin-bottom="0"
     inkscape:zoom="1.9779075"
     inkscape:cx="319.48727"
     inkscape:cy="100.02312"
     inkscape:window-x="-8"
     inkscape:window-y="-8"
     inkscape:window-maximized="1"
     inkscape:current-layer="g2992" />
  <defs
     id="defs2987">
    <clipPath
       clipPathUnits="userSpaceOnUse"
       id="clipEmfPath1">
      <rect
         x="0"
         y="0"
         width="8999.291"
         height="5061.9688"
         id="rect2990" />
    </clipPath>
    <filter
       id="filter3933"
       inkscape:label="Drop Shadow"
       color-interpolation-filters="sRGB">
      <feFlood
         id="feFlood3935"
         flood-opacity="0.5"
         flood-color="rgb(0,0,0)"
         result="flood" />
      <feComposite
         id="feComposite3937"
         in2="SourceGraphic"
         in="flood"
         operator="in"
         result="composite1" />
      <feGaussianBlur
         id="feGaussianBlur3939"
         stdDeviation="14"
         result="blur" />
      <feOffset
         id="feOffset3941"
         dx="40"
         dy="40"
         result="offset" />
      <feComposite
         id="feComposite3943"
         in2="offset"
         in="SourceGraphic"
         operator="over"
         result="composite2" />
    </filter>
  </defs>
  <g
     id="g2992"
     transform="translate(242.63011,-2504.1157)">
    <rect
       style="fill:#ffffff;fill-opacity:1;stroke:#000000;stroke-width:7.1213398;stroke-linecap:round;stroke-linejoin:round;stroke-miterlimit:4;stroke-opacity:1;stroke-dasharray:none;filter:url(#filter3933)"
       id="rect3847"
       width="7506.8018"
       height="2224.4519"
       x="451.57217"
       y="272.49622"
       transform="matrix(0.08872418,0,0,0.08872418,-276.46359,2482.0111)" />
    <path
       style="fill:#2a4266;fill-opacity:1;fill-rule:evenodd;stroke:none"
       d="m 27.869821,2605.7224 0,-83.4628 133.510659,0 0,166.9255 -133.510659,0 0,-83.4627 z"
       id="path2996"
       inkscape:connector-curvature="0" />
    <path
       style="fill:none;stroke:#000000;stroke-width:0.03143646px;stroke-linecap:round;stroke-linejoin:round;stroke-opacity:1;stroke-dasharray:none"
       d="m 27.869821,2605.7224 0,-83.4628 133.510659,0 0,166.9255 -133.510659,0 0,-83.4627"
       id="path2998"
       inkscape:connector-curvature="0" />
    <path
       style="fill:#0047ff;fill-opacity:1;fill-rule:evenodd;stroke:none"
       d="m 20.450821,2558.4504 0,-2.7821 7.419,0 0,5.5406 -7.419,0 0,-2.7585 z"
       id="path3000"
       inkscape:connector-curvature="0" />
    <path
       style="fill:#2a4266;fill-opacity:1;stroke:#000000;stroke-width:0.03143646px;stroke-linecap:round;stroke-linejoin:round;stroke-opacity:1;stroke-dasharray:none"
       d="m 20.450821,2558.4504 0,-2.7821 7.419,0 0,5.5406 -7.419,0 0,-2.7585"
       id="path3002"
       inkscape:connector-curvature="0" />
    <path
       style="fill:#808019;fill-opacity:1;fill-rule:evenodd;stroke:none"
       d="m 17.590096,2566.5845 0,-2.7821 10.279725,0 0,5.5642 -10.279725,0 0,-2.7821 z"
       id="path3004"
       inkscape:connector-curvature="0" />
    <path
       style="fill:#dada40;fill-opacity:1;stroke:#000000;stroke-width:0.03143646px;stroke-linecap:round;stroke-linejoin:round;stroke-opacity:1;stroke-dasharray:none"
       d="m 17.590096,2566.5845 0,-2.7821 10.279725,0 0,5.5642 -10.279725,0 0,-2.7821"
       id="path3006"
       inkscape:connector-curvature="0" />
    <path
       style="fill:#808019;fill-opacity:1;fill-rule:evenodd;stroke:none"
       d="m 17.590096,2580.6835 0,-8.3462 10.279725,0 0,16.6925 -10.279725,0 0,-8.3463 z"
       id="path3008"
       inkscape:connector-curvature="0" />
    <path
       style="fill:#dada40;fill-opacity:1;stroke:#000000;stroke-width:0.03143646px;stroke-linecap:round;stroke-linejoin:round;stroke-opacity:1;stroke-dasharray:none"
       d="m 17.590096,2580.6835 0,-8.3462 10.279725,0 0,16.6925 -10.279725,0 0,-8.3463"
       id="path3010"
       inkscape:connector-curvature="0" />
    <path
       style="fill:#000000;fill-opacity:1;fill-rule:evenodd;stroke:none"
       d="m 155.50186,2511.1313 0,11.1283 -1.50895,0 -1.47751,0 0,-11.1283 1.47751,0 1.50895,0 z"
       id="path3012"
       inkscape:connector-curvature="0" />
    <path
       style="fill:#b3b3b3;fill-opacity:1;fill-rule:evenodd;stroke:none"
       d="m 75.873303,2525.0417 0,-8.3462 7.419,0 0,16.6925 -7.419,0 0,-8.3463 z"
       id="path3014"
       inkscape:connector-curvature="0" />
    <path
       style="fill:none;stroke:#000000;stroke-width:0.03143646px;stroke-linecap:round;stroke-linejoin:round;stroke-opacity:1;stroke-dasharray:none"
       d="m 75.873303,2525.0417 0,-8.3462 7.419,0 0,16.6925 -7.419,0 0,-8.3463"
       id="path3016"
       inkscape:connector-curvature="0" />
    <path
       style="fill:#b3b3b3;fill-opacity:1;fill-rule:evenodd;stroke:none"
       d="m 92.220263,2525.0417 0,-8.3462 7.419,0 0,16.6925 -7.419,0 0,-8.3463 z"
       id="path3018"
       inkscape:connector-curvature="0" />
    <path
       style="fill:none;stroke:#000000;stroke-width:0.03143646px;stroke-linecap:round;stroke-linejoin:round;stroke-opacity:1;stroke-dasharray:none"
       d="m 92.220263,2525.0417 0,-8.3462 7.419,0 0,16.6925 -7.419,0 0,-8.3463"
       id="path3020"
       inkscape:connector-curvature="0" />
    <path
       style="fill:#b3b3b3;fill-opacity:1;fill-rule:evenodd;stroke:none"
       d="m 35.288831,2525.0417 0,-8.3462 7.419,0 0,16.6925 -7.419,0 0,-8.3463 z"
       id="path3022"
       inkscape:connector-curvature="0" />
    <path
       style="fill:none;stroke:#000000;stroke-width:0.03143646px;stroke-linecap:round;stroke-linejoin:round;stroke-opacity:1;stroke-dasharray:none"
       d="m 35.288831,2525.0417 0,-8.3462 7.419,0 0,16.6925 -7.419,0 0,-8.3463"
       id="path3024"
       inkscape:connector-curvature="0" />
    <path
       style="fill:#b3b3b3;fill-opacity:1;fill-rule:evenodd;stroke:none"
       d="m 59.211975,2525.0417 0,-8.3462 7.41901,0 0,16.6925 -7.41901,0 0,-8.3463 z"
       id="path3026"
       inkscape:connector-curvature="0" />
    <path
       style="fill:none;stroke:#000000;stroke-width:0.03143646px;stroke-linecap:round;stroke-linejoin:round;stroke-opacity:1;stroke-dasharray:none"
       d="m 59.211975,2525.0417 0,-8.3462 7.41901,0 0,16.6925 -7.41901,0 0,-8.3463"
       id="path3028"
       inkscape:connector-curvature="0" />
    <path
       style="fill:#b3b3b3;fill-opacity:1;fill-rule:evenodd;stroke:none"
       d="m 109.47888,2525.0417 0,-8.3462 7.419,0 0,16.6925 -7.419,0 0,-8.3463 z"
       id="path3030"
       inkscape:connector-curvature="0" />
    <path
       style="fill:none;stroke:#000000;stroke-width:0.03143646px;stroke-linecap:round;stroke-linejoin:round;stroke-opacity:1;stroke-dasharray:none"
       d="m 109.47888,2525.0417 0,-8.3462 7.419,0 0,16.6925 -7.419,0 0,-8.3463"
       id="path3032"
       inkscape:connector-curvature="0" />
    <path
       style="fill:#b3b3b3;fill-opacity:1;fill-rule:evenodd;stroke:none"
       d="m 131.73589,2525.0417 0,-8.3462 7.41901,0 0,16.6925 -7.41901,0 0,-8.3463 z"
       id="path3034"
       inkscape:connector-curvature="0" />
    <path
       style="fill:none;stroke:#000000;stroke-width:0.03143646px;stroke-linecap:round;stroke-linejoin:round;stroke-opacity:1;stroke-dasharray:none"
       d="m 131.73589,2525.0417 0,-8.3462 7.41901,0 0,16.6925 -7.41901,0 0,-8.3463"
       id="path3036"
       inkscape:connector-curvature="0" />
    <path
       style="fill:#000000;fill-opacity:1;fill-rule:evenodd;stroke:none"
       d="m 13.031811,2521.1515 140.961099,0 0,1.1081 0,1.1317 -140.961099,0 0,-1.1317 0,-1.1081 z"
       id="path3038"
       inkscape:connector-curvature="0" />
    <path
       style="fill:#cccccc;fill-opacity:1;fill-rule:evenodd;stroke:none"
       d="m 137.48877,2576.7933 0,-10.0202 9.08513,0 0,20.0405 -9.08513,0 0,-10.0203 z"
       id="path3040"
       inkscape:connector-curvature="0" />
    <path
       style="fill:none;stroke:#000000;stroke-width:0.03143646px;stroke-linecap:round;stroke-linejoin:round;stroke-opacity:1;stroke-dasharray:none"
       d="m 137.48877,2576.7933 0,-10.0202 9.08513,0 0,20.0405 -9.08513,0 0,-10.0203"
       id="path3042"
       inkscape:connector-curvature="0" />
    <text
       xml:space="preserve"
       x="2574.5535"
       y="-140.28662"
       transform="matrix(0,1,-1,0,0,0)"
       style="font-size:5.24988937px;font-style:normal;font-weight:bold;text-align:start;text-anchor:start;fill:#000000;font-family:Arial"
       id="text3044">C1</text>
    <path
       style="fill:#2a4266;fill-opacity:1;fill-rule:evenodd;stroke:none"
       d="m 220.63821,2605.7224 0,-83.4628 133.51066,0 0,166.9255 -133.51066,0 0,-83.4627 z"
       id="path3046"
       inkscape:connector-curvature="0" />
    <path
       style="fill:none;stroke:#000000;stroke-width:0.03143646px;stroke-linecap:round;stroke-linejoin:round;stroke-opacity:1;stroke-dasharray:none"
       d="m 220.63821,2605.7224 0,-83.4628 133.51066,0 0,166.9255 -133.51066,0 0,-83.4627"
       id="path3048"
       inkscape:connector-curvature="0" />
    <path
       style="fill:#0047ff;fill-opacity:1;fill-rule:evenodd;stroke:none"
       d="m 213.2192,2558.4504 0,-2.7821 7.41901,0 0,5.5406 -7.41901,0 0,-2.7585 z"
       id="path3050"
       inkscape:connector-curvature="0" />
    <path
       style="fill:#2a4266;fill-opacity:1;stroke:#000000;stroke-width:0.03143646px;stroke-linecap:round;stroke-linejoin:round;stroke-opacity:1;stroke-dasharray:none"
       d="m 213.2192,2558.4504 0,-2.7821 7.41901,0 0,5.5406 -7.41901,0 0,-2.7585"
       id="path3052"
       inkscape:connector-curvature="0" />
    <path
       style="fill:#808019;fill-opacity:1;fill-rule:evenodd;stroke:none"
       d="m 210.35849,2566.5845 0,-2.7821 10.27972,0 0,5.5642 -10.27972,0 0,-2.7821 z"
       id="path3054"
       inkscape:connector-curvature="0" />
    <path
       style="fill:#dada40;fill-opacity:1;stroke:#000000;stroke-width:0.03143646px;stroke-linecap:round;stroke-linejoin:round;stroke-opacity:1;stroke-dasharray:none"
       d="m 210.35849,2566.5845 0,-2.7821 10.27972,0 0,5.5642 -10.27972,0 0,-2.7821"
       id="path3056"
       inkscape:connector-curvature="0" />
    <path
       style="fill:#808019;fill-opacity:1;fill-rule:evenodd;stroke:none"
       d="m 210.35849,2580.6835 0,-8.3462 10.27972,0 0,16.6925 -10.27972,0 0,-8.3463 z"
       id="path3058"
       inkscape:connector-curvature="0" />
    <path
       style="fill:#dada40;fill-opacity:1;stroke:#000000;stroke-width:0.03143646px;stroke-linecap:round;stroke-linejoin:round;stroke-opacity:1;stroke-dasharray:none"
       d="m 210.35849,2580.6835 0,-8.3462 10.27972,0 0,16.6925 -10.27972,0 0,-8.3463"
       id="path3060"
       inkscape:connector-curvature="0" />
    <path
       style="fill:#000000;fill-opacity:1;fill-rule:evenodd;stroke:none"
       d="m 348.27025,2511.1313 0,11.1283 -1.50895,0 -1.47751,0 0,-11.1283 1.47751,0 1.50895,0 z"
       id="path3062"
       inkscape:connector-curvature="0" />
    <path
       style="fill:#b3b3b3;fill-opacity:1;fill-rule:evenodd;stroke:none"
       d="m 268.64169,2525.0417 0,-8.3462 7.419,0 0,16.6925 -7.419,0 0,-8.3463 z"
       id="path3064"
       inkscape:connector-curvature="0" />
    <path
       style="fill:none;stroke:#000000;stroke-width:0.03143646px;stroke-linecap:round;stroke-linejoin:round;stroke-opacity:1;stroke-dasharray:none"
       d="m 268.64169,2525.0417 0,-8.3462 7.419,0 0,16.6925 -7.419,0 0,-8.3463"
       id="path3066"
       inkscape:connector-curvature="0" />
    <path
       style="fill:#b3b3b3;fill-opacity:1;fill-rule:evenodd;stroke:none"
       d="m 284.98865,2525.0417 0,-8.3462 7.419,0 0,16.6925 -7.419,0 0,-8.3463 z"
       id="path3068"
       inkscape:connector-curvature="0" />
    <path
       style="fill:none;stroke:#000000;stroke-width:0.03143646px;stroke-linecap:round;stroke-linejoin:round;stroke-opacity:1;stroke-dasharray:none"
       d="m 284.98865,2525.0417 0,-8.3462 7.419,0 0,16.6925 -7.419,0 0,-8.3463"
       id="path3070"
       inkscape:connector-curvature="0" />
    <path
       style="fill:#b3b3b3;fill-opacity:1;fill-rule:evenodd;stroke:none"
       d="m 228.05722,2525.0417 0,-8.3462 7.419,0 0,16.6925 -7.419,0 0,-8.3463 z"
       id="path3072"
       inkscape:connector-curvature="0" />
    <path
       style="fill:none;stroke:#000000;stroke-width:0.03143646px;stroke-linecap:round;stroke-linejoin:round;stroke-opacity:1;stroke-dasharray:none"
       d="m 228.05722,2525.0417 0,-8.3462 7.419,0 0,16.6925 -7.419,0 0,-8.3463"
       id="path3074"
       inkscape:connector-curvature="0" />
    <path
       style="fill:#b3b3b3;fill-opacity:1;fill-rule:evenodd;stroke:none"
       d="m 251.98037,2525.0417 0,-8.3462 7.419,0 0,16.6925 -7.419,0 0,-8.3463 z"
       id="path3076"
       inkscape:connector-curvature="0" />
    <path
       style="fill:none;stroke:#000000;stroke-width:0.03143646px;stroke-linecap:round;stroke-linejoin:round;stroke-opacity:1;stroke-dasharray:none"
       d="m 251.98037,2525.0417 0,-8.3462 7.419,0 0,16.6925 -7.419,0 0,-8.3463"
       id="path3078"
       inkscape:connector-curvature="0" />
    <path
       style="fill:#b3b3b3;fill-opacity:1;fill-rule:evenodd;stroke:none"
       d="m 302.24727,2525.0417 0,-8.3462 7.419,0 0,16.6925 -7.419,0 0,-8.3463 z"
       id="path3080"
       inkscape:connector-curvature="0" />
    <path
       style="fill:none;stroke:#000000;stroke-width:0.03143646px;stroke-linecap:round;stroke-linejoin:round;stroke-opacity:1;stroke-dasharray:none"
       d="m 302.24727,2525.0417 0,-8.3462 7.419,0 0,16.6925 -7.419,0 0,-8.3463"
       id="path3082"
       inkscape:connector-curvature="0" />
    <path
       style="fill:#b3b3b3;fill-opacity:1;fill-rule:evenodd;stroke:none"
       d="m 324.50428,2525.0417 0,-8.3462 7.41901,0 0,16.6925 -7.41901,0 0,-8.3463 z"
       id="path3084"
       inkscape:connector-curvature="0" />
    <path
       style="fill:none;stroke:#000000;stroke-width:0.03143646px;stroke-linecap:round;stroke-linejoin:round;stroke-opacity:1;stroke-dasharray:none"
       d="m 324.50428,2525.0417 0,-8.3462 7.41901,0 0,16.6925 -7.41901,0 0,-8.3463"
       id="path3086"
       inkscape:connector-curvature="0" />
    <path
       style="fill:#000000;fill-opacity:1;fill-rule:evenodd;stroke:none"
       d="m 205.8002,2521.1515 140.9611,0 0,1.1081 0,1.1317 -140.9611,0 0,-1.1317 0,-1.1081 z"
       id="path3088"
       inkscape:connector-curvature="0" />
    <path
       style="fill:#cccccc;fill-opacity:1;fill-rule:evenodd;stroke:none"
       d="m 330.25716,2576.7933 0,-10.0202 9.08513,0 0,20.0405 -9.08513,0 0,-10.0203 z"
       id="path3090"
       inkscape:connector-curvature="0" />
    <path
       style="fill:none;stroke:#000000;stroke-width:0.03143646px;stroke-linecap:round;stroke-linejoin:round;stroke-opacity:1;stroke-dasharray:none"
       d="m 330.25716,2576.7933 0,-10.0202 9.08513,0 0,20.0405 -9.08513,0 0,-10.0203"
       id="path3092"
       inkscape:connector-curvature="0" />
    <text
       xml:space="preserve"
       x="2574.1526"
       y="-332.5206"
       transform="matrix(0,1,-1,0,0,0)"
       style="font-size:5.24988937px;font-style:normal;font-weight:bold;text-align:start;text-anchor:start;fill:#000000;font-family:Arial"
       id="text3094">C1</text>
    <path
       style="fill:#2a4266;fill-opacity:1;fill-rule:evenodd;stroke:none"
       d="m -160.74896,2605.7224 0,-83.4628 133.510658,0 0,166.9255 -133.510658,0 0,-83.4627 z"
       id="path3096"
       inkscape:connector-curvature="0" />
    <path
       style="fill:none;stroke:#000000;stroke-width:0.03143646px;stroke-linecap:round;stroke-linejoin:round;stroke-opacity:1;stroke-dasharray:none"
       d="m -160.74896,2605.7224 0,-83.4628 133.510658,0 0,166.9255 -133.510658,0 0,-83.4627"
       id="path3098"
       inkscape:connector-curvature="0" />
    <path
       style="fill:#0047ff;fill-opacity:1;fill-rule:evenodd;stroke:none"
       d="m -168.16796,2558.4504 0,-2.7821 7.419,0 0,5.5406 -7.419,0 0,-2.7585 z"
       id="path3100"
       inkscape:connector-curvature="0" />
    <path
       style="fill:#2a4266;fill-opacity:1;stroke:#000000;stroke-width:0.03143646px;stroke-linecap:round;stroke-linejoin:round;stroke-opacity:1;stroke-dasharray:none"
       d="m -168.16796,2558.4504 0,-2.7821 7.419,0 0,5.5406 -7.419,0 0,-2.7585"
       id="path3102"
       inkscape:connector-curvature="0" />
    <path
       style="fill:#808019;fill-opacity:1;fill-rule:evenodd;stroke:none"
       d="m -171.02868,2566.5845 0,-2.7821 10.27972,0 0,5.5642 -10.27972,0 0,-2.7821 z"
       id="path3104"
       inkscape:connector-curvature="0" />
    <path
       style="fill:#dada40;fill-opacity:1;stroke:#000000;stroke-width:0.03143646px;stroke-linecap:round;stroke-linejoin:round;stroke-opacity:1;stroke-dasharray:none"
       d="m -171.02868,2566.5845 0,-2.7821 10.27972,0 0,5.5642 -10.27972,0 0,-2.7821"
       id="path3106"
       inkscape:connector-curvature="0" />
    <path
       style="fill:#808019;fill-opacity:1;fill-rule:evenodd;stroke:none"
       d="m -171.02868,2580.6835 0,-8.3462 10.27972,0 0,16.6925 -10.27972,0 0,-8.3463 z"
       id="path3108"
       inkscape:connector-curvature="0" />
    <path
       style="fill:#dada40;fill-opacity:1;stroke:#000000;stroke-width:0.03143646px;stroke-linecap:round;stroke-linejoin:round;stroke-opacity:1;stroke-dasharray:none"
       d="m -171.02868,2580.6835 0,-8.3462 10.27972,0 0,16.6925 -10.27972,0 0,-8.3463"
       id="path3110"
       inkscape:connector-curvature="0" />
    <path
       style="fill:#000000;fill-opacity:1;fill-rule:evenodd;stroke:none"
       d="m -33.116918,2511.1313 0,11.1283 -1.508949,0 -1.477515,0 0,-11.1283 1.477515,0 1.508949,0 z"
       id="path3112"
       inkscape:connector-curvature="0" />
    <path
       style="fill:#b3b3b3;fill-opacity:1;fill-rule:evenodd;stroke:none"
       d="m -112.74548,2525.0417 0,-8.3462 7.419,0 0,16.6925 -7.419,0 0,-8.3463 z"
       id="path3114"
       inkscape:connector-curvature="0" />
    <path
       style="fill:none;stroke:#000000;stroke-width:0.03143646px;stroke-linecap:round;stroke-linejoin:round;stroke-opacity:1;stroke-dasharray:none"
       d="m -112.74548,2525.0417 0,-8.3462 7.419,0 0,16.6925 -7.419,0 0,-8.3463"
       id="path3116"
       inkscape:connector-curvature="0" />
    <path
       style="fill:#b3b3b3;fill-opacity:1;fill-rule:evenodd;stroke:none"
       d="m -96.398516,2525.0417 0,-8.3462 7.419009,0 0,16.6925 -7.419009,0 0,-8.3463 z"
       id="path3118"
       inkscape:connector-curvature="0" />
    <path
       style="fill:none;stroke:#000000;stroke-width:0.03143646px;stroke-linecap:round;stroke-linejoin:round;stroke-opacity:1;stroke-dasharray:none"
       d="m -96.398516,2525.0417 0,-8.3462 7.419009,0 0,16.6925 -7.419009,0 0,-8.3463"
       id="path3120"
       inkscape:connector-curvature="0" />
    <path
       style="fill:#b3b3b3;fill-opacity:1;fill-rule:evenodd;stroke:none"
       d="m -153.32995,2525.0417 0,-8.3462 7.419,0 0,16.6925 -7.419,0 0,-8.3463 z"
       id="path3122"
       inkscape:connector-curvature="0" />
    <path
       style="fill:none;stroke:#000000;stroke-width:0.03143646px;stroke-linecap:round;stroke-linejoin:round;stroke-opacity:1;stroke-dasharray:none"
       d="m -153.32995,2525.0417 0,-8.3462 7.419,0 0,16.6925 -7.419,0 0,-8.3463"
       id="path3124"
       inkscape:connector-curvature="0" />
    <path
       style="fill:#b3b3b3;fill-opacity:1;fill-rule:evenodd;stroke:none"
       d="m -129.4068,2525.0417 0,-8.3462 7.41901,0 0,16.6925 -7.41901,0 0,-8.3463 z"
       id="path3126"
       inkscape:connector-curvature="0" />
    <path
       style="fill:none;stroke:#000000;stroke-width:0.03143646px;stroke-linecap:round;stroke-linejoin:round;stroke-opacity:1;stroke-dasharray:none"
       d="m -129.4068,2525.0417 0,-8.3462 7.41901,0 0,16.6925 -7.41901,0 0,-8.3463"
       id="path3128"
       inkscape:connector-curvature="0" />
    <path
       style="fill:#b3b3b3;fill-opacity:1;fill-rule:evenodd;stroke:none"
       d="m -79.139898,2525.0417 0,-8.3462 7.419001,0 0,16.6925 -7.419001,0 0,-8.3463 z"
       id="path3130"
       inkscape:connector-curvature="0" />
    <path
       style="fill:none;stroke:#000000;stroke-width:0.03143646px;stroke-linecap:round;stroke-linejoin:round;stroke-opacity:1;stroke-dasharray:none"
       d="m -79.139898,2525.0417 0,-8.3462 7.419001,0 0,16.6925 -7.419001,0 0,-8.3463"
       id="path3132"
       inkscape:connector-curvature="0" />
    <path
       style="fill:#b3b3b3;fill-opacity:1;fill-rule:evenodd;stroke:none"
       d="m -56.882878,2525.0417 0,-8.3462 7.419,0 0,16.6925 -7.419,0 0,-8.3463 z"
       id="path3134"
       inkscape:connector-curvature="0" />
    <path
       style="fill:none;stroke:#000000;stroke-width:0.03143646px;stroke-linecap:round;stroke-linejoin:round;stroke-opacity:1;stroke-dasharray:none"
       d="m -56.882878,2525.0417 0,-8.3462 7.419,0 0,16.6925 -7.419,0 0,-8.3463"
       id="path3136"
       inkscape:connector-curvature="0" />
    <path
       style="fill:#000000;fill-opacity:1;fill-rule:evenodd;stroke:none"
       d="m -175.58697,2521.1515 140.961103,0 0,1.1081 0,1.1317 -140.961103,0 0,-1.1317 0,-1.1081 z"
       id="path3138"
       inkscape:connector-curvature="0" />
    <path
       style="fill:#cccccc;fill-opacity:1;fill-rule:evenodd;stroke:none"
       d="m -51.130011,2576.7933 0,-10.0202 9.085143,0 0,20.0405 -9.085143,0 0,-10.0203 z"
       id="path3140"
       inkscape:connector-curvature="0" />
    <path
       style="fill:none;stroke:#000000;stroke-width:0.03143646px;stroke-linecap:round;stroke-linejoin:round;stroke-opacity:1;stroke-dasharray:none"
       d="m -51.130011,2576.7933 0,-10.0202 9.085143,0 0,20.0405 -9.085143,0 0,-10.0203"
       id="path3142"
       inkscape:connector-curvature="0" />
    <text
       xml:space="preserve"
       x="2574.1526"
       y="48.866596"
       transform="matrix(0,1,-1,0,0,0)"
       style="font-size:5.24988937px;font-style:normal;font-weight:bold;text-align:start;text-anchor:start;fill:#000000;font-family:Arial"
       id="text3144">C1</text>
    <path
       style="fill:#99ccff;fill-opacity:1;fill-rule:evenodd;stroke:none"
       d="m 420.25975,2633.8026 0,41.2598 -31.43646,0 0,-82.5196 31.43646,0 0,41.2598 z"
       id="path3146"
       inkscape:connector-curvature="0" />
    <path
       style="fill:#569fd6;fill-opacity:1;stroke:#000000;stroke-width:0.03143646px;stroke-linecap:round;stroke-linejoin:round;stroke-opacity:1;stroke-dasharray:none"
       d="m 420.25975,2633.8026 0,41.2598 -31.43646,0 0,-82.5196 31.43646,0 0,41.2598"
       id="path3148"
       inkscape:connector-curvature="0" />
    <text
       xml:space="preserve"
       x="-2673.0547"
       y="410.75192"
       transform="matrix(0,-1,1,0,0,0)"
       style="font-size:15.97035217px;font-style:normal;font-weight:normal;text-align:start;text-anchor:start;fill:#000000;font-family:Arial"
       id="text3150">termination</text>
    <path
       style="fill:#99ccff;fill-opacity:1;fill-rule:evenodd;stroke:none"
       d="m -192.75127,2633.8026 0,41.2598 -31.43646,0 0,-82.5196 31.43646,0 0,41.2598 z"
       id="path3152"
       inkscape:connector-curvature="0" />
    <path
       style="fill:#569fd6;fill-opacity:1;stroke:#000000;stroke-width:0.03143646px;stroke-linecap:round;stroke-linejoin:round;stroke-opacity:1;stroke-dasharray:none"
       d="m -192.75127,2633.8026 0,41.2598 -31.43646,0 0,-82.5196 31.43646,0 0,41.2598"
       id="path3154"
       inkscape:connector-curvature="0" />
    <text
       xml:space="preserve"
       x="-2672.8772"
       y="-203.32381"
       transform="matrix(0,-1,1,0,0,0)"
       style="font-size:15.97035217px;font-style:normal;font-weight:normal;text-align:start;text-anchor:start;fill:#000000;font-family:Arial"
       id="text3156">termination</text>
    <path
       style="fill:#cccccc;fill-opacity:1;fill-rule:evenodd;stroke:none"
       d="m 98.036008,2655.8943 -290.787278,0 0,-47.1541 581.57456,0 0,47.1541 -290.787282,0 z"
       id="path3158"
       inkscape:connector-curvature="0" />
    <path
       style="fill:none;stroke:#000000;stroke-width:0.03143646px;stroke-linecap:round;stroke-linejoin:round;stroke-opacity:1;stroke-dasharray:none"
       d="m 98.036008,2655.8943 -290.787278,0 0,-47.1541 581.57456,0 0,47.1541 -290.787282,0"
       id="path3160"
       inkscape:connector-curvature="0" />
    <path
       style="fill:none;stroke:#000000;stroke-width:0.03143646px;stroke-linecap:round;stroke-linejoin:round;stroke-opacity:1;stroke-dasharray:none"
       d="m -37.423714,2632.6709 0,-26.9485 13.360496,0 0,53.8971 -13.360496,0 0,-26.9486"
       id="path3162"
       inkscape:connector-curvature="0" />
    <path
       style="fill:#999999;fill-opacity:1;fill-rule:evenodd;stroke:none"
       d="m -37.423714,2632.6709 0,-26.9485 13.360496,0 0,53.8971 -13.360496,0 0,-26.9486 z"
       id="path3164"
       inkscape:connector-curvature="0" />
    <path
       style="fill:none;stroke:#000000;stroke-width:0.03143646px;stroke-linecap:round;stroke-linejoin:round;stroke-opacity:1;stroke-dasharray:none"
       d="m 151.19507,2632.6709 0,-26.9485 13.36049,0 0,53.8971 -13.36049,0 0,-26.9486"
       id="path3166"
       inkscape:connector-curvature="0" />
    <path
       style="fill:#999999;fill-opacity:1;fill-rule:evenodd;stroke:none"
       d="m 151.19507,2632.6709 0,-26.9485 13.36049,0 0,53.8971 -13.36049,0 0,-26.9486 z"
       id="path3168"
       inkscape:connector-curvature="0" />
    <path
       style="fill:none;stroke:#000000;stroke-width:0.03143646px;stroke-linecap:round;stroke-linejoin:round;stroke-opacity:1;stroke-dasharray:none"
       d="m 343.96346,2632.6709 0,-26.9485 13.36049,0 0,53.8971 -13.36049,0 0,-26.9486"
       id="path3170"
       inkscape:connector-curvature="0" />
    <path
       style="fill:#999999;fill-opacity:1;fill-rule:evenodd;stroke:none"
       d="m 343.96346,2632.6709 0,-26.9485 13.36049,0 0,53.8971 -13.36049,0 0,-26.9486 z"
       id="path3172"
       inkscape:connector-curvature="0" />
    <text
       xml:space="preserve"
       x="2628.7571"
       y="-156.50781"
       transform="matrix(0,1,-1,0,0,0)"
       style="font-size:5.24988937px;font-style:normal;font-weight:bold;text-align:start;text-anchor:start;fill:#000000;font-family:Arial"
       id="text3174"> </text>
    <text
       xml:space="preserve"
       x="2629.8652"
       y="-156.50781"
       transform="matrix(0,1,-1,0,0,0)"
       style="font-size:5.24988937px;font-style:normal;font-weight:bold;text-align:start;text-anchor:start;fill:#000000;font-family:Arial"
       id="text3176">C2</text>
    <text
       xml:space="preserve"
       x="2628.7808"
       y="-349.81064"
       transform="matrix(0,1,-1,0,0,0)"
       style="font-size:5.24988937px;font-style:normal;font-weight:bold;text-align:start;text-anchor:start;fill:#000000;font-family:Arial"
       id="text3178"> </text>
    <text
       xml:space="preserve"
       x="2629.8889"
       y="-349.81064"
       transform="matrix(0,1,-1,0,0,0)"
       style="font-size:5.24988937px;font-style:normal;font-weight:bold;text-align:start;text-anchor:start;fill:#000000;font-family:Arial"
       id="text3180">C2</text>
    <text
       xml:space="preserve"
       x="2628.7808"
       y="32.142391"
       transform="matrix(0,1,-1,0,0,0)"
       style="font-size:5.24988937px;font-style:normal;font-weight:bold;text-align:start;text-anchor:start;fill:#000000;font-family:Arial"
       id="text3182"> </text>
    <text
       xml:space="preserve"
       x="2629.8889"
       y="32.142391"
       transform="matrix(0,1,-1,0,0,0)"
       style="font-size:5.24988937px;font-style:normal;font-weight:bold;text-align:start;text-anchor:start;fill:#000000;font-family:Arial"
       id="text3184">C2</text>
  </g>
</svg>
