<?xml version="1.0" encoding="UTF-8" standalone="no"?>
<svg
   xmlns:dc="http://purl.org/dc/elements/1.1/"
   xmlns:cc="http://creativecommons.org/ns#"
   xmlns:rdf="http://www.w3.org/1999/02/22-rdf-syntax-ns#"
   xmlns:svg="http://www.w3.org/2000/svg"
   xmlns="http://www.w3.org/2000/svg"
   xmlns:sodipodi="http://sodipodi.sourceforge.net/DTD/sodipodi-0.dtd"
   xmlns:inkscape="http://www.inkscape.org/namespaces/inkscape"
   version="1.0"
   width="680.992"
   height="338.18063"
   id="svg2985"
   inkscape:version="0.48.4 r9939"
   sodipodi:docname="Ndigo_schematic.svg">
  <metadata
     id="metadata3066">
    <rdf:RDF>
      <cc:Work
         rdf:about="">
        <dc:format>image/svg+xml</dc:format>
        <dc:type
           rdf:resource="http://purl.org/dc/dcmitype/StillImage" />
        <dc:title />
      </cc:Work>
    </rdf:RDF>
  </metadata>
  <sodipodi:namedview
     pagecolor="#ffffff"
     bordercolor="#666666"
     borderopacity="1"
     objecttolerance="10"
     gridtolerance="10"
     guidetolerance="10"
     inkscape:pageopacity="0"
     inkscape:pageshadow="2"
     inkscape:window-width="1680"
     inkscape:window-height="987"
     id="namedview3064"
     showgrid="false"
     fit-margin-top="0"
     fit-margin-left="0"
     fit-margin-right="0"
     fit-margin-bottom="0"
     inkscape:zoom="1.3985919"
     inkscape:cx="409.01593"
     inkscape:cy="181.82288"
     inkscape:window-x="-8"
     inkscape:window-y="-8"
     inkscape:window-maximized="1"
     inkscape:current-layer="svg2985" />
  <defs
     id="defs2987">
    <clipPath
       clipPathUnits="userSpaceOnUse"
       id="clipEmfPath1">
      <rect
         x="0"
         y="0"
         width="8999.291"
         height="5061.9688"
         id="rect2990" />
    </clipPath>
    <filter
       id="filter3787"
       inkscape:label="Drop Shadow"
       color-interpolation-filters="sRGB">
      <feFlood
         id="feFlood3789"
         flood-opacity="0.5"
         flood-color="rgb(0,0,0)"
         result="flood" />
      <feComposite
         id="feComposite3791"
         in2="SourceGraphic"
         in="flood"
         operator="in"
         result="composite1" />
      <feGaussianBlur
         id="feGaussianBlur3793"
         stdDeviation="14"
         result="blur" />
      <feOffset
         id="feOffset3795"
         dx="40"
         dy="40"
         result="offset" />
      <feComposite
         id="feComposite3797"
         in2="offset"
         in="SourceGraphic"
         operator="over"
         result="composite2" />
    </filter>
  </defs>
  <rect
     style="fill:#ffffff;fill-opacity:1;stroke:#000000;stroke-width:15;stroke-miterlimit:4;stroke-opacity:1;stroke-dasharray:none;filter:url(#filter3787)"
     id="rect3785"
     width="6189.082"
     height="3065.9409"
     x="627.92261"
     y="315.5849"
     transform="matrix(0.10745613,0,0,0.10745613,-59.506093,-29.549059)" />
  <path
     inkscape:connector-curvature="0"
     id="path2996"
     d="m 353.30764,284.37234 -285.55131,0 0,-256.992899 571.10262,0 0,256.992899 -285.55131,0 z"
     style="fill:#2a4266;fill-opacity:1;fill-rule:evenodd;stroke:none" />
  <path
     inkscape:connector-curvature="0"
     id="path2998"
     d="m 353.30764,284.37234 -285.55131,0 0,-256.992899 571.10262,0 0,256.992899 -285.55131,0"
     style="fill:none;stroke:#000000;stroke-width:0.03807351px;stroke-linecap:round;stroke-linejoin:round;stroke-opacity:1;stroke-dasharray:none" />
  <path
     inkscape:connector-curvature="0"
     id="path3000"
     d="m 191.49523,298.64964 -9.51837,0 0,-14.2773 19.03675,0 0,14.2773 -9.51838,0 z"
     style="fill:#0047ff;fill-opacity:1;fill-rule:evenodd;stroke:none" />
  <path
     inkscape:connector-curvature="0"
     id="path3002"
     d="m 191.49523,298.64964 -9.51837,0 0,-14.2773 19.03675,0 0,14.2773 -9.51838,0"
     style="fill:#2a4266;fill-opacity:1;stroke:#000000;stroke-width:0.03807351px;stroke-linecap:round;stroke-linejoin:round;stroke-opacity:1;stroke-dasharray:none" />
  <path
     inkscape:connector-curvature="0"
     id="path3004"
     d="m 219.40311,304.16074 -9.51837,0 0,-19.7884 19.03675,0 0,19.7884 -9.51838,0 z"
     style="fill:#808019;fill-opacity:1;fill-rule:evenodd;stroke:none" />
  <path
     inkscape:connector-curvature="0"
     id="path3006"
     d="m 219.40311,304.16074 -9.51837,0 0,-19.7884 19.03675,0 0,19.7884 -9.51838,0"
     style="fill:#dada40;fill-opacity:1;stroke:none" />
  <path
     inkscape:connector-curvature="0"
     id="path3008"
     d="m 267.64225,304.16074 -28.55513,0 0,-19.7884 57.11026,0 0,19.7884 -28.55513,0 z"
     style="fill:#808019;fill-opacity:1;fill-rule:evenodd;stroke:none" />
  <path
     inkscape:connector-curvature="0"
     id="path3010"
     d="m 267.64225,304.16074 -28.55513,0 0,-19.7884 57.11026,0 0,19.7884 -28.55513,0"
     style="fill:#dada40;fill-opacity:1;stroke:none" />
  <path
     inkscape:connector-curvature="0"
     id="path3012"
     d="m 29.682834,38.801441 38.073496,0 0,2.8554 0,2.8841 -38.073496,0 0,-2.8841 0,-2.8554 z"
     style="fill:#000000;fill-opacity:1;fill-rule:evenodd;stroke:none" />
  <path
     inkscape:connector-curvature="0"
     id="path3014"
     d="m 77.27471,192.02624 -28.55513,0 0,-14.2774 57.11027,0 0,14.2774 -28.55514,0 z"
     style="fill:#b3b3b3;fill-opacity:1;fill-rule:evenodd;stroke:none" />
  <path
     inkscape:connector-curvature="0"
     id="path3016"
     d="m 77.27471,192.02624 -28.55513,0 0,-14.2774 57.11027,0 0,14.2774 -28.55514,0"
     style="fill:none;stroke:#000000;stroke-width:0.03807351px;stroke-linecap:round;stroke-linejoin:round;stroke-opacity:1;stroke-dasharray:none" />
  <path
     inkscape:connector-curvature="0"
     id="path3018"
     d="m 77.27471,160.55884 -28.55513,0 0,-14.2773 57.11027,0 0,14.2773 -28.55514,0 z"
     style="fill:#b3b3b3;fill-opacity:1;fill-rule:evenodd;stroke:none" />
  <path
     inkscape:connector-curvature="0"
     id="path3020"
     d="m 77.27471,160.55884 -28.55513,0 0,-14.2773 57.11027,0 0,14.2773 -28.55514,0"
     style="fill:none;stroke:#000000;stroke-width:0.03807351px;stroke-linecap:round;stroke-linejoin:round;stroke-opacity:1;stroke-dasharray:none" />
  <path
     inkscape:connector-curvature="0"
     id="path3022"
     d="m 77.27471,270.09494 -28.55513,0 0,-14.2774 57.11027,0 0,14.2774 -28.55514,0 z"
     style="fill:#b3b3b3;fill-opacity:1;fill-rule:evenodd;stroke:none" />
  <path
     inkscape:connector-curvature="0"
     id="path3024"
     d="m 77.27471,270.09494 -28.55513,0 0,-14.2774 57.11027,0 0,14.2774 -28.55514,0"
     style="fill:none;stroke:#000000;stroke-width:0.03807351px;stroke-linecap:round;stroke-linejoin:round;stroke-opacity:1;stroke-dasharray:none" />
  <path
     inkscape:connector-curvature="0"
     id="path3026"
     d="m 77.27471,224.09324 -28.55513,0 0,-14.2774 57.11027,0 0,14.2774 -28.55514,0 z"
     style="fill:#b3b3b3;fill-opacity:1;fill-rule:evenodd;stroke:none" />
  <path
     inkscape:connector-curvature="0"
     id="path3028"
     d="m 77.27471,224.09324 -28.55513,0 0,-14.2774 57.11027,0 0,14.2774 -28.55514,0"
     style="fill:none;stroke:#000000;stroke-width:0.03807351px;stroke-linecap:round;stroke-linejoin:round;stroke-opacity:1;stroke-dasharray:none" />
  <path
     inkscape:connector-curvature="0"
     id="path3030"
     d="m 77.27471,127.32114 -28.55513,0 0,-14.2774 57.11027,0 0,14.2774 -28.55514,0 z"
     style="fill:#b3b3b3;fill-opacity:1;fill-rule:evenodd;stroke:none" />
  <path
     inkscape:connector-curvature="0"
     id="path3032"
     d="m 77.27471,127.32114 -28.55513,0 0,-14.2774 57.11027,0 0,14.2774 -28.55514,0"
     style="fill:none;stroke:#000000;stroke-width:0.03807351px;stroke-linecap:round;stroke-linejoin:round;stroke-opacity:1;stroke-dasharray:none" />
  <path
     inkscape:connector-curvature="0"
     id="path3034"
     d="m 77.27471,84.489041 -28.55513,0 0,-14.2774 57.11027,0 0,14.2774 -28.55514,0 z"
     style="fill:#b3b3b3;fill-opacity:1;fill-rule:evenodd;stroke:none" />
  <path
     inkscape:connector-curvature="0"
     id="path3036"
     d="m 77.27471,84.489041 -28.55513,0 0,-14.2774 57.11027,0 0,14.2774 -28.55514,0"
     style="fill:none;stroke:#000000;stroke-width:0.03807351px;stroke-linecap:round;stroke-linejoin:round;stroke-opacity:1;stroke-dasharray:none" />
  <path
     inkscape:connector-curvature="0"
     id="path3038"
     d="m 63.94898,312.92704 0,-271.270199 3.80735,0 3.84543,0 0,271.270199 -3.84543,0 -3.80735,0 z"
     style="fill:#000000;fill-opacity:1;fill-rule:evenodd;stroke:none" />
  <path
     inkscape:connector-curvature="0"
     id="path3040"
     d="m 254.3546,73.409741 -34.30424,0 0,-17.4755 68.60847,0 0,17.4755 -34.30423,0 z"
     style="fill:#cccccc;fill-opacity:1;fill-rule:evenodd;stroke:none" />
  <path
     inkscape:connector-curvature="0"
     id="path3042"
     d="m 254.3546,73.409741 -34.30424,0 0,-17.4755 68.60847,0 0,17.4755 -34.30423,0"
     style="fill:none;stroke:#000000;stroke-width:0.03807351px;stroke-linecap:round;stroke-linejoin:round;stroke-opacity:1;stroke-dasharray:none" />
  <path
     inkscape:connector-curvature="0"
     id="path3044"
     d="m 445.52168,47.053741 -92.21404,0 0,-25.7564 184.42807,0 0,25.7564 -92.21403,0 z"
     style="fill:#cccccc;fill-opacity:1;fill-rule:evenodd;stroke:none" />
  <path
     inkscape:connector-curvature="0"
     id="path3046"
     d="m 445.52168,47.053741 -92.21404,0 0,-25.7564 184.42807,0 0,25.7564 -92.21403,0"
     style="fill:none;stroke:#000000;stroke-width:0.03807351px;stroke-linecap:round;stroke-linejoin:round;stroke-opacity:1;stroke-dasharray:none" />
  <text
     id="text3048"
     style="font-size:13.43994808px;font-style:normal;font-weight:bold;text-align:start;text-anchor:start;fill:#000000;font-family:Arial"
     y="189.51318"
     x="78.188492"
     xml:space="preserve">B</text>
  <text
     id="text3050"
     style="font-size:13.43994808px;font-style:normal;font-weight:bold;text-align:start;text-anchor:start;fill:#000000;font-family:Arial"
     y="36.060051"
     x="436.99319"
     xml:space="preserve">C2</text>
  <text
     id="text3052"
     style="font-size:13.43994808px;font-style:normal;font-weight:bold;text-align:start;text-anchor:start;fill:#000000;font-family:Arial"
     y="157.44629"
     x="78.188492"
     xml:space="preserve">C</text>
  <text
     id="text3054"
     style="font-size:13.43994808px;font-style:normal;font-weight:bold;text-align:start;text-anchor:start;fill:#000000;font-family:Arial"
     y="124.57983"
     x="78.188492"
     xml:space="preserve">D</text>
  <text
     id="text3056"
     style="font-size:13.43994808px;font-style:normal;font-weight:bold;text-align:start;text-anchor:start;fill:#000000;font-family:Arial"
     y="81.262199"
     x="77.541229"
     xml:space="preserve">T</text>
  <text
     id="text3058"
     style="font-size:13.43994808px;font-style:normal;font-weight:bold;text-align:start;text-anchor:start;fill:#000000;font-family:Arial"
     y="266.86816"
     x="77.731598"
     xml:space="preserve">G</text>
  <text
     id="text3060"
     style="font-size:13.43994808px;font-style:normal;font-weight:bold;text-align:start;text-anchor:start;fill:#000000;font-family:Arial"
     y="68.384026"
     x="245.82614"
     xml:space="preserve">C1</text>
  <text
     id="text3062"
     style="font-size:13.43994808px;font-style:normal;font-weight:bold;text-align:start;text-anchor:start;fill:#000000;font-family:Arial"
     y="221.18042"
     x="78.455002"
     xml:space="preserve">A</text>
</svg>
