<?xml version="1.0" encoding="UTF-8" standalone="no"?>
<!-- Created with Inkscape (http://www.inkscape.org/) -->

<svg
   xmlns:dc="http://purl.org/dc/elements/1.1/"
   xmlns:cc="http://creativecommons.org/ns#"
   xmlns:rdf="http://www.w3.org/1999/02/22-rdf-syntax-ns#"
   xmlns:svg="http://www.w3.org/2000/svg"
   xmlns="http://www.w3.org/2000/svg"
   xmlns:sodipodi="http://sodipodi.sourceforge.net/DTD/sodipodi-0.dtd"
   xmlns:inkscape="http://www.inkscape.org/namespaces/inkscape"
   width="703.6875"
   height="126.8625"
   id="svg2"
   version="1.1"
   inkscape:version="0.48.4 r9939"
   sodipodi:docname="Ndigo-Slotblende.svg">
  <defs
     id="defs4">
    <filter
       id="filter3846"
       inkscape:label="Drop Shadow"
       color-interpolation-filters="sRGB">
      <feFlood
         id="feFlood3848"
         flood-opacity="0.5"
         flood-color="rgb(0,0,0)"
         result="flood" />
      <feComposite
         id="feComposite3850"
         in2="SourceGraphic"
         in="flood"
         operator="in"
         result="composite1" />
      <feGaussianBlur
         id="feGaussianBlur3852"
         stdDeviation="2"
         result="blur" />
      <feOffset
         id="feOffset3854"
         dx="4"
         dy="4"
         result="offset" />
      <feComposite
         id="feComposite3856"
         in2="offset"
         in="SourceGraphic"
         operator="over"
         result="composite2" />
    </filter>
  </defs>
  <sodipodi:namedview
     id="base"
     pagecolor="#ffffff"
     bordercolor="#666666"
     borderopacity="1.0"
     inkscape:pageopacity="0.0"
     inkscape:pageshadow="2"
     inkscape:zoom="1.4"
     inkscape:cx="350.41702"
     inkscape:cy="0.569312"
     inkscape:document-units="px"
     inkscape:current-layer="g2989"
     showgrid="false"
     fit-margin-top="0"
     fit-margin-left="0"
     fit-margin-right="0"
     fit-margin-bottom="0"
     inkscape:window-width="1680"
     inkscape:window-height="987"
     inkscape:window-x="-8"
     inkscape:window-y="-8"
     inkscape:window-maximized="1"
     showborder="false" />
  <metadata
     id="metadata7">
    <rdf:RDF>
      <cc:Work
         rdf:about="">
        <dc:format>image/svg+xml</dc:format>
        <dc:type
           rdf:resource="http://purl.org/dc/dcmitype/StillImage" />
        <dc:title />
      </cc:Work>
    </rdf:RDF>
  </metadata>
  <g
     inkscape:label="Ebene 1"
     inkscape:groupmode="layer"
     id="layer1"
     transform="translate(111.8456,-406.06899)">
    <g
       id="g2989"
       transform="translate(-146.48622,353.39087)">
      <path
         id="path3099"
         d="m 93.791338,142.83071 0,-38.05512 5.77559,-6.023624 27.460632,0 10.94882,-19.133857 510.98031,0 0,-4.818898 11.44488,-11.055118 18.77953,0 0,30.437007 -9,9.99213 8.7874,0 0,15.16535 -8.7874,0 8.8937,9.4252 0,27.21259 -26.11418,0 -12.29527,12.50788 -502.54724,0 -10.73622,-19.62992 -27.814962,0 z"
         style="fill:#ffffff;fill-opacity:1;stroke:#000000;stroke-width:0.99212599px;stroke-linecap:butt;stroke-linejoin:miter;stroke-miterlimit:4;stroke-opacity:1;stroke-dasharray:none;filter:url(#filter3846)"
         inkscape:connector-curvature="0" />
      <path
         id="path2991"
         d="m 217.55905,104.84645 9.8504,0 0,1.34646 -7.72441,5.17323 7.72441,0 0,1.24016 -9.8504,0 0,-1.34646 7.72441,-5.13779 -7.72441,0 z"
         style="fill:#000000;fill-opacity:1;fill-rule:nonzero;stroke:none"
         inkscape:connector-curvature="0" />
      <path
         id="path2993"
         d="m 217.55905,119.26771 0.92126,0 c -0.70866,-0.46063 -1.06299,-1.13385 -1.06299,-1.98425 0,-0.56693 0.14173,-1.09842 0.46063,-1.59449 0.3189,-0.46063 0.7441,-0.81496 1.31102,-1.09842 0.56693,-0.24803 1.20473,-0.38976 1.94882,-0.38976 0.70866,0 1.34646,0.10629 1.91339,0.35433 0.56693,0.24803 1.02756,0.60236 1.34646,1.06299 0.28346,0.49606 0.46063,0.99212 0.46063,1.59449 0,0.42519 -0.1063,0.81496 -0.28347,1.13385 -0.17716,0.35433 -0.4252,0.6378 -0.70866,0.81496 l 3.54331,0 0,1.20473 -9.8504,0 z m 3.57874,-3.82677 c -0.92126,0 -1.59448,0.2126 -2.05511,0.56693 -0.46063,0.38977 -0.67323,0.8504 -0.67323,1.38189 0,0.5315 0.2126,0.95669 0.63779,1.34646 0.4252,0.35433 1.09843,0.53149 1.98425,0.53149 0.9567,0 1.66536,-0.17716 2.12599,-0.56693 0.46063,-0.35433 0.70866,-0.81496 0.70866,-1.38188 0,-0.5315 -0.24803,-0.99213 -0.67323,-1.34646 -0.4252,-0.35433 -1.13386,-0.5315 -2.05512,-0.5315 z"
         style="fill:#000000;fill-opacity:1;fill-rule:nonzero;stroke:none"
         inkscape:connector-curvature="0" />
      <path
         id="path2995"
         d="m 225.99212,123.48425 1.41733,0 0,1.20472 -1.41733,0 z m -8.43307,0 7.12205,0 0,1.20472 -7.12205,0 z"
         style="fill:#000000;fill-opacity:1;fill-rule:nonzero;stroke:none"
         inkscape:connector-curvature="0" />
      <path
         id="path2997"
         d="m 216.99212,126.92126 -0.17716,1.16929 c -0.35433,0.0354 -0.6378,0.17716 -0.81496,0.4252 -0.2126,0.28346 -0.3189,0.70866 -0.3189,1.20472 0,0.56693 0.1063,0.99213 0.3189,1.31102 0.24803,0.28347 0.56693,0.49607 0.95669,0.60237 0.24803,0.0709 0.7441,0.10629 1.55906,0.10629 -0.6378,-0.53149 -0.9567,-1.20472 -0.9567,-1.98425 0,-0.99212 0.35433,-1.73622 1.063,-2.26771 0.70866,-0.5315 1.55905,-0.81496 2.55118,-0.81496 0.67322,0 1.31102,0.14173 1.87795,0.38976 0.56693,0.24803 1.02756,0.60236 1.31102,1.06299 0.3189,0.46063 0.49607,0.99213 0.49607,1.62992 0,0.8504 -0.35433,1.52362 -1.02756,2.09055 l 0.85039,0 0,1.09843 -6.12992,0 c -1.13386,0 -1.91339,-0.1063 -2.37402,-0.3189 -0.46063,-0.24803 -0.81496,-0.60236 -1.09842,-1.09842 -0.24803,-0.46063 -0.38977,-1.063 -0.38977,-1.80709 0,-0.85039 0.17717,-1.52362 0.56693,-2.05512 0.38977,-0.49606 0.9567,-0.77953 1.73622,-0.74409 z m 4.25197,0.99212 c -0.92126,0 -1.59449,0.17717 -2.01968,0.56693 -0.4252,0.35433 -0.67323,0.81496 -0.67323,1.38189 0,0.56693 0.24803,1.02756 0.67323,1.41732 0.42519,0.35434 1.06299,0.5315 1.98425,0.5315 0.88583,0 1.52362,-0.17716 1.98425,-0.56693 0.4252,-0.38976 0.67323,-0.85039 0.67323,-1.38189 0,-0.53149 -0.24803,-0.99212 -0.67323,-1.38189 -0.4252,-0.38976 -1.06299,-0.56693 -1.94882,-0.56693 z"
         style="fill:#000000;fill-opacity:1;fill-rule:nonzero;stroke:none"
         inkscape:connector-curvature="0" />
      <path
         id="path2999"
         d="m 221.13779,134.43307 c 1.31103,0 2.26772,0.35433 2.90552,1.09842 0.53149,0.60237 0.81496,1.34646 0.81496,2.23229 0,0.95669 -0.3189,1.77165 -0.9567,2.37401 -0.67323,0.6378 -1.55905,0.9567 -2.65748,0.9567 -0.92126,0 -1.66535,-0.14174 -2.16141,-0.4252 -0.5315,-0.28347 -0.9567,-0.67323 -1.24016,-1.20473 -0.28347,-0.53149 -0.4252,-1.09842 -0.4252,-1.70078 0,-0.99213 0.3189,-1.80709 0.95669,-2.40945 0.6378,-0.6378 1.55906,-0.92126 2.76378,-0.92126 z m 0,1.24016 c -0.92126,0 -1.59448,0.17716 -2.05511,0.56692 -0.46063,0.4252 -0.67323,0.92126 -0.67323,1.52363 0,0.60236 0.2126,1.09842 0.67323,1.48819 0.46063,0.38976 1.16929,0.60236 2.09055,0.60236 0.88582,0 1.55905,-0.2126 1.98425,-0.60236 0.46063,-0.38977 0.70866,-0.88583 0.70866,-1.48819 0,-0.60237 -0.24803,-1.09843 -0.70866,-1.52363 -0.4252,-0.38976 -1.13386,-0.56692 -2.01969,-0.56692 z"
         style="fill:#000000;fill-opacity:1;fill-rule:nonzero;stroke:none"
         inkscape:connector-curvature="0" />
      <path
         id="path3001"
         d="m 202.99606,104.38582 0.1063,1.2756 c -0.63779,0.0709 -1.09842,0.28346 -1.38189,0.63779 -0.3189,0.35433 -0.49606,0.74409 -0.49606,1.24016 0,0.56693 0.24803,1.06299 0.67323,1.48819 0.42519,0.38976 1.02756,0.60236 1.73622,0.60236 0.70866,0 1.24015,-0.2126 1.62992,-0.60236 0.38976,-0.38977 0.60236,-0.88583 0.60236,-1.52363 0,-0.38976 -0.1063,-0.70866 -0.28346,-1.02755 -0.17717,-0.3189 -0.38977,-0.56693 -0.67323,-0.7441 l 0.14173,-1.13386 5.06693,0.9567 0,4.88976 -1.16929,0 0,-3.93307 -2.62205,-0.5315 c 0.38976,0.60236 0.60236,1.20473 0.60236,1.87796 0,0.85039 -0.28346,1.55905 -0.88582,2.16141 -0.60237,0.56693 -1.38189,0.88583 -2.30315,0.88583 -0.88583,0 -1.66536,-0.28347 -2.30315,-0.77953 -0.77953,-0.63779 -1.20473,-1.48819 -1.20473,-2.58661 0,-0.88583 0.24803,-1.62992 0.77953,-2.19685 0.49606,-0.56693 1.13386,-0.88583 1.98425,-0.9567 z"
         style="fill:#000000;fill-opacity:1;fill-rule:nonzero;stroke:none"
         inkscape:connector-curvature="0" />
      <path
         id="path3003"
         d="m 204.27165,117.1063 1.13386,0 0.0354,4.1811 -3.6496,0 c -0.5315,-0.6378 -0.88583,-1.31102 -1.16929,-1.98425 -0.24804,-0.67323 -0.38977,-1.38189 -0.38977,-2.09055 0,-0.99213 0.2126,-1.84252 0.6378,-2.65748 0.42519,-0.77953 0.99212,-1.38189 1.77165,-1.77166 0.81496,-0.38976 1.66536,-0.60236 2.62205,-0.60236 0.95669,0 1.87795,0.2126 2.69291,0.60236 0.81496,0.38977 1.45276,0.99213 1.84252,1.73622 0.38976,0.7441 0.60236,1.59449 0.60236,2.58662 0,0.70866 -0.1063,1.34645 -0.35433,1.91338 -0.2126,0.56693 -0.53149,1.02756 -0.95669,1.34646 -0.38976,0.35433 -0.92126,0.60236 -1.59449,0.74409 l -0.3189,-1.16929 c 0.49607,-0.14173 0.88583,-0.3189 1.1693,-0.53149 0.28346,-0.2126 0.53149,-0.5315 0.67322,-0.9567 0.17717,-0.38976 0.28347,-0.85039 0.28347,-1.34645 0,-0.60237 -0.1063,-1.09843 -0.28347,-1.52363 -0.17716,-0.46063 -0.42519,-0.81496 -0.70866,-1.06299 -0.28346,-0.28346 -0.63779,-0.46063 -0.95669,-0.63779 -0.6378,-0.24803 -1.27559,-0.35433 -1.98425,-0.35433 -0.88583,0 -1.62992,0.14173 -2.19685,0.46063 -0.60237,0.28346 -1.02756,0.74409 -1.31103,1.31102 -0.28346,0.56693 -0.46063,1.16929 -0.46063,1.84252 0,0.56693 0.14174,1.09842 0.35433,1.62992 0.2126,0.5315 0.4252,0.95669 0.67323,1.24016 l 1.84252,0 z"
         style="fill:#000000;fill-opacity:1;fill-rule:nonzero;stroke:none"
         inkscape:connector-curvature="0" />
      <path
         id="path3005"
         d="m 203.35039,122.56299 1.24016,0 0,3.68504 -1.24016,0 z"
         style="fill:#000000;fill-opacity:1;fill-rule:nonzero;stroke:none"
         inkscape:connector-curvature="0" />
      <path
         id="path3007"
         d="m 200.40945,131.81102 0,-1.20472 7.68897,0 c -0.28346,-0.28347 -0.56693,-0.67323 -0.81496,-1.13386 -0.28346,-0.46063 -0.49606,-0.88583 -0.63779,-1.27559 l 1.16929,0 c 0.3189,0.67323 0.70866,1.27559 1.13386,1.77165 0.46063,0.49606 0.92126,0.85039 1.34645,1.06299 l 0,0.77953 z"
         style="fill:#000000;fill-opacity:1;fill-rule:nonzero;stroke:none"
         inkscape:connector-curvature="0" />
      <path
         id="path3009"
         d="m 205.26378,134.92913 c 1.16929,0 2.09055,0.1063 2.79921,0.35433 0.70866,0.2126 1.24016,0.60236 1.62992,1.06299 0.38977,0.46063 0.60236,1.063 0.60236,1.77166 0,0.53149 -0.1063,0.99212 -0.31889,1.38189 -0.2126,0.38976 -0.5315,0.74409 -0.92126,0.99212 -0.4252,0.24803 -0.88583,0.46063 -1.48819,0.60237 -0.56693,0.14173 -1.34646,0.21259 -2.30315,0.21259 -1.16929,0 -2.09055,-0.1063 -2.79921,-0.35433 -0.70867,-0.2126 -1.24016,-0.56693 -1.62993,-1.06299 -0.38976,-0.46063 -0.60236,-1.06299 -0.60236,-1.77165 0,-0.9567 0.35433,-1.70079 1.02756,-2.23229 0.81496,-0.63779 2.16142,-0.95669 4.00394,-0.95669 z m 0,1.24016 c -1.62992,0 -2.69292,0.17716 -3.22441,0.56693 -0.5315,0.35433 -0.81496,0.81496 -0.81496,1.38189 0,0.56693 0.28346,1.02756 0.81496,1.38189 0.53149,0.38976 1.59449,0.56693 3.22441,0.56693 1.62992,0 2.69291,-0.17717 3.22441,-0.56693 0.53149,-0.35433 0.77952,-0.81496 0.77952,-1.38189 0,-0.56693 -0.21259,-0.99213 -0.70866,-1.34646 -0.56693,-0.4252 -1.70078,-0.60236 -3.29527,-0.60236 z"
         style="fill:#000000;fill-opacity:1;fill-rule:nonzero;stroke:none"
         inkscape:connector-curvature="0" />
      <path
         id="path3011"
         d="m 614.26771,97.511809 -0.17716,1.204724 c -0.81496,-0.141732 -1.45276,-0.46063 -1.91339,-1.027559 -0.46063,-0.531496 -0.67323,-1.169291 -0.67323,-1.948819 0,-0.992125 0.3189,-1.771653 0.9567,-2.338582 0.63779,-0.602362 1.52362,-0.885827 2.72834,-0.885827 0.77953,0 1.41732,0.106299 2.01969,0.354331 0.56693,0.283464 0.99212,0.673228 1.27559,1.169291 0.28346,0.531496 0.46063,1.098425 0.46063,1.700787 0,0.779528 -0.2126,1.417323 -0.60237,1.913386 -0.38976,0.496063 -0.95669,0.779528 -1.66535,0.92126 L 616.5,97.40551 c 0.46063,-0.106299 0.85039,-0.283465 1.06299,-0.566929 0.24803,-0.283465 0.38976,-0.637796 0.38976,-1.062992 0,-0.602363 -0.24803,-1.098426 -0.67323,-1.452756 -0.42519,-0.389764 -1.13386,-0.566929 -2.05512,-0.566929 -0.95669,0 -1.66535,0.177165 -2.09055,0.531496 -0.42519,0.35433 -0.63779,0.850393 -0.63779,1.452755 0,0.46063 0.14173,0.850394 0.4252,1.169292 0.28346,0.318897 0.74409,0.531496 1.34645,0.602362 z"
         style="fill:#000000;fill-opacity:1;fill-rule:nonzero;stroke:none"
         inkscape:connector-curvature="0" />
      <path
         id="path3013"
         d="m 611.64566,99.744092 7.12205,0 0,1.062988 -1.06299,0 c 0.49606,0.28347 0.81496,0.56693 0.99213,0.77953 0.14173,0.24803 0.24803,0.49607 0.24803,0.77953 0,0.38976 -0.14174,0.81496 -0.38977,1.24016 l -1.13385,-0.4252 c 0.17716,-0.28346 0.24803,-0.56693 0.24803,-0.88583 0,-0.24803 -0.0709,-0.49606 -0.2126,-0.70866 -0.17717,-0.2126 -0.38977,-0.35433 -0.67323,-0.42519 -0.4252,-0.14174 -0.88583,-0.2126 -1.41732,-0.2126 l -3.72048,0 z"
         style="fill:#000000;fill-opacity:1;fill-rule:nonzero;stroke:none"
         inkscape:connector-curvature="0" />
      <path
         id="path3015"
         d="m 615.2244,103.88976 c 1.31103,0 2.26772,0.35433 2.90552,1.09843 0.53149,0.60236 0.81496,1.34645 0.81496,2.23228 0,0.99213 -0.3189,1.77165 -0.99213,2.40945 -0.63779,0.63779 -1.52362,0.92126 -2.65748,0.92126 -0.88583,0 -1.62992,-0.14173 -2.16142,-0.38976 -0.49606,-0.28347 -0.92126,-0.67323 -1.20472,-1.20473 -0.28347,-0.5315 -0.4252,-1.09842 -0.4252,-1.73622 0,-0.99213 0.3189,-1.80709 0.9567,-2.40945 0.63779,-0.60236 1.55905,-0.92126 2.76377,-0.92126 z m 0,1.24016 c -0.92126,0 -1.59448,0.2126 -2.05511,0.60236 -0.46063,0.38977 -0.67323,0.88583 -0.67323,1.48819 0,0.60236 0.2126,1.09843 0.67323,1.48819 0.46063,0.4252 1.13385,0.60236 2.09055,0.60236 0.88582,0 1.52362,-0.17716 1.98425,-0.60236 0.46063,-0.38976 0.67323,-0.88583 0.67323,-1.48819 0,-0.60236 -0.2126,-1.09842 -0.67323,-1.48819 -0.4252,-0.38976 -1.13386,-0.60236 -2.01969,-0.60236 z"
         style="fill:#000000;fill-opacity:1;fill-rule:nonzero;stroke:none"
         inkscape:connector-curvature="0" />
      <path
         id="path3017"
         d="m 611.64566,112.00393 7.12205,0 0,1.063 -1.02756,0 c 0.81496,0.53149 1.20473,1.27559 1.20473,2.26771 0,0.4252 -0.1063,0.81496 -0.24803,1.20473 -0.14174,0.35433 -0.35434,0.60236 -0.60237,0.77953 -0.24803,0.17716 -0.56693,0.31889 -0.88582,0.38976 -0.24803,0.0354 -0.6378,0.0709 -1.16929,0.0709 l -4.39371,0 0,-1.20473 4.32284,0 c 0.49606,0 0.88583,-0.0354 1.09842,-0.14173 0.24804,-0.1063 0.46063,-0.24803 0.60237,-0.49606 0.14173,-0.24804 0.21259,-0.5315 0.21259,-0.8504 0,-0.49606 -0.17716,-0.95669 -0.49606,-1.31102 -0.3189,-0.38977 -0.92126,-0.56693 -1.84252,-0.56693 l -3.89764,0 z"
         style="fill:#000000;fill-opacity:1;fill-rule:nonzero;stroke:none"
         inkscape:connector-curvature="0" />
      <path
         id="path3019"
         d="m 615.2244,119.19685 c 1.31103,0 2.26772,0.35433 2.90552,1.09842 0.53149,0.60237 0.81496,1.34646 0.81496,2.23229 0,0.99212 -0.3189,1.77165 -0.99213,2.40945 -0.63779,0.60236 -1.52362,0.92126 -2.65748,0.92126 -0.88583,0 -1.62992,-0.14174 -2.16142,-0.4252 -0.49606,-0.24803 -0.92126,-0.67323 -1.20472,-1.16929 -0.28347,-0.5315 -0.4252,-1.09843 -0.4252,-1.73622 0,-0.99213 0.3189,-1.80709 0.9567,-2.40945 0.63779,-0.60236 1.55905,-0.92126 2.76377,-0.92126 z m 0,1.24016 c -0.92126,0 -1.59448,0.21259 -2.05511,0.60236 -0.46063,0.38976 -0.67323,0.88582 -0.67323,1.48819 0,0.60236 0.2126,1.09842 0.67323,1.48819 0.46063,0.38976 1.13385,0.60236 2.09055,0.60236 0.88582,0 1.52362,-0.2126 1.98425,-0.60236 0.46063,-0.38977 0.67323,-0.88583 0.67323,-1.48819 0,-0.60237 -0.2126,-1.09843 -0.67323,-1.48819 -0.4252,-0.38977 -1.13386,-0.60236 -2.01969,-0.60236 z"
         style="fill:#000000;fill-opacity:1;fill-rule:nonzero;stroke:none"
         inkscape:connector-curvature="0" />
      <path
         id="path3021"
         d="m 611.64566,127.27559 9.81497,0 0,1.20472 -9.81497,0 z"
         style="fill:#000000;fill-opacity:1;fill-rule:nonzero;stroke:none"
         inkscape:connector-curvature="0" />
      <path
         id="path3023"
         d="m 615.2244,129.89764 c 1.31103,0 2.26772,0.38976 2.90552,1.09842 0.53149,0.6378 0.81496,1.38189 0.81496,2.26772 0,0.95669 -0.3189,1.77165 -0.99213,2.37401 -0.63779,0.6378 -1.52362,0.9567 -2.65748,0.9567 -0.88583,0 -1.62992,-0.14174 -2.16142,-0.4252 -0.49606,-0.28347 -0.92126,-0.67323 -1.20472,-1.20473 -0.28347,-0.53149 -0.4252,-1.09842 -0.4252,-1.70078 0,-1.02756 0.3189,-1.80709 0.9567,-2.44489 0.63779,-0.60236 1.55905,-0.92125 2.76377,-0.92125 z m 0,1.24015 c -0.92126,0 -1.59448,0.2126 -2.05511,0.60236 -0.46063,0.38977 -0.67323,0.92126 -0.67323,1.52363 0,0.56693 0.2126,1.06299 0.67323,1.48819 0.46063,0.38976 1.13385,0.60236 2.09055,0.60236 0.88582,0 1.52362,-0.2126 1.98425,-0.60236 0.46063,-0.4252 0.67323,-0.92126 0.67323,-1.48819 0,-0.60237 -0.2126,-1.13386 -0.67323,-1.52363 -0.4252,-0.38976 -1.13386,-0.60236 -2.01969,-0.60236 z"
         style="fill:#000000;fill-opacity:1;fill-rule:nonzero;stroke:none"
         inkscape:connector-curvature="0" />
      <path
         id="path3025"
         d="m 611.07874,137.79921 -0.17717,1.16929 c -0.38976,0.0354 -0.6378,0.17717 -0.81496,0.38976 -0.2126,0.3189 -0.3189,0.70867 -0.3189,1.24016 0,0.56693 0.1063,0.99213 0.3189,1.27559 0.24803,0.3189 0.5315,0.5315 0.95669,0.6378 0.24803,0.0709 0.7441,0.0709 1.52362,0.0709 -0.60236,-0.53149 -0.92126,-1.16929 -0.92126,-1.94881 0,-0.99213 0.35434,-1.73623 1.063,-2.26772 0.70866,-0.56693 1.55905,-0.81496 2.55118,-0.81496 0.67323,0 1.31102,0.1063 1.87795,0.35433 0.56693,0.24803 0.99213,0.60236 1.31102,1.06299 0.3189,0.49606 0.49607,1.02756 0.49607,1.66536 0,0.85039 -0.35433,1.52362 -1.02756,2.09055 l 0.85039,0 0,1.09842 -6.16535,0 c -1.09843,0 -1.87796,-0.1063 -2.33859,-0.35433 -0.46063,-0.2126 -0.81496,-0.56693 -1.09842,-1.06299 -0.28346,-0.49606 -0.38976,-1.09843 -0.38976,-1.80709 0,-0.85039 0.17716,-1.52362 0.56692,-2.05512 0.38977,-0.53149 0.9567,-0.77952 1.73623,-0.74409 z m 4.25196,0.99213 c -0.92126,0 -1.59448,0.17716 -2.05511,0.56692 -0.4252,0.35434 -0.6378,0.81497 -0.6378,1.38189 0,0.56693 0.2126,1.02756 0.6378,1.38189 0.42519,0.38977 1.09842,0.56693 2.01968,0.56693 0.88583,0 1.52362,-0.17716 1.98425,-0.56693 0.4252,-0.38976 0.6378,-0.85039 0.6378,-1.41732 0,-0.53149 -0.2126,-0.99212 -0.6378,-1.34646 -0.42519,-0.38976 -1.09842,-0.56692 -1.94882,-0.56692 z"
         style="fill:#000000;fill-opacity:1;fill-rule:nonzero;stroke:none"
         inkscape:connector-curvature="0" />
      <path
         id="path3027"
         d="m 620.07874,145.66535 1.38189,0 0,1.20473 -1.38189,0 z m -8.43308,0 7.12205,0 0,1.20473 -7.12205,0 z"
         style="fill:#000000;fill-opacity:1;fill-rule:nonzero;stroke:none"
         inkscape:connector-curvature="0" />
      <path
         id="path3029"
         d="m 614.26771,153.35433 -0.17716,1.20472 c -0.81496,-0.14173 -1.45276,-0.46063 -1.91339,-0.99212 -0.46063,-0.5315 -0.67323,-1.20473 -0.67323,-1.98426 0,-0.95669 0.3189,-1.73622 0.9567,-2.33858 0.63779,-0.60236 1.52362,-0.88583 2.72834,-0.88583 0.77953,0 1.41732,0.14174 2.01969,0.38977 0.56693,0.24803 0.99212,0.63779 1.27559,1.16929 0.28346,0.49606 0.46063,1.06299 0.46063,1.70079 0,0.74409 -0.2126,1.38189 -0.60237,1.87795 -0.38976,0.49606 -0.95669,0.81496 -1.66535,0.95669 L 616.5,153.28346 c 0.46063,-0.14173 0.85039,-0.3189 1.06299,-0.60236 0.24803,-0.28347 0.38976,-0.6378 0.38976,-1.02756 0,-0.60236 -0.24803,-1.09843 -0.67323,-1.48819 -0.42519,-0.38976 -1.13386,-0.56693 -2.05512,-0.56693 -0.95669,0 -1.66535,0.17717 -2.09055,0.5315 -0.42519,0.38976 -0.63779,0.85039 -0.63779,1.45275 0,0.46063 0.14173,0.8504 0.4252,1.1693 0.28346,0.31889 0.74409,0.53149 1.34645,0.60236 z"
         style="fill:#000000;fill-opacity:1;fill-rule:nonzero;stroke:none"
         inkscape:connector-curvature="0" />
      <path
         id="path3031"
         d="m 262.73622,160.86614 0,-1.38189 3.50787,0 0,3.22441 c -0.35433,0.3189 -0.85039,0.60236 -1.48819,0.85039 -0.63779,0.28347 -1.27559,0.38977 -1.94882,0.38977 -0.85039,0 -1.59448,-0.17717 -2.19685,-0.5315 -0.63779,-0.35433 -1.09842,-0.85039 -1.41732,-1.52362 -0.3189,-0.6378 -0.49606,-1.34646 -0.49606,-2.12599 0,-0.85039 0.17716,-1.59448 0.53149,-2.23228 0.35434,-0.67323 0.88583,-1.16929 1.55906,-1.52362 0.49606,-0.24803 1.16929,-0.38977 1.91339,-0.38977 1.02755,0 1.80708,0.2126 2.33858,0.6378 0.56693,0.4252 0.95669,0.99213 1.09842,1.73622 l -1.62992,0.28346 c -0.1063,-0.38976 -0.3189,-0.70866 -0.63779,-0.92126 -0.28347,-0.21259 -0.67323,-0.35433 -1.16929,-0.35433 -0.70867,0 -1.2756,0.24804 -1.70079,0.67323 -0.38977,0.46063 -0.60236,1.13386 -0.60236,2.01969 0,0.95669 0.21259,1.66535 0.63779,2.16141 0.4252,0.46063 0.95669,0.70867 1.66536,0.70867 0.31889,0 0.67322,-0.0709 1.02755,-0.2126 0.3189,-0.14173 0.6378,-0.28347 0.88583,-0.49607 l 0,-0.99212 z"
         style="fill:#000000;fill-opacity:1;fill-rule:nonzero;stroke:none"
         inkscape:connector-curvature="0" />
      <path
         id="path3033"
         d="m 268.86614,159.76771 -1.38189,-0.24803 c 0.14173,-0.56693 0.4252,-0.99212 0.81496,-1.27559 0.38976,-0.24803 0.95669,-0.38976 1.70079,-0.38976 0.70866,0 1.20472,0.0709 1.55905,0.24803 0.3189,0.14173 0.56693,0.35433 0.70866,0.60236 0.14174,0.24803 0.17717,0.70866 0.17717,1.38189 l 0,1.80709 c 0,0.53149 0.0354,0.88582 0.0709,1.13386 0.0709,0.24803 0.14173,0.49606 0.28346,0.77952 l -1.52362,0 c -0.0354,-0.1063 -0.1063,-0.24803 -0.14173,-0.46063 -0.0354,-0.0709 -0.0709,-0.14173 -0.0709,-0.17716 -0.24803,0.24803 -0.5315,0.46063 -0.85039,0.60236 -0.28347,0.1063 -0.60237,0.17717 -0.9567,0.17717 -0.60236,0 -1.06299,-0.17717 -1.41732,-0.49607 -0.35433,-0.3189 -0.5315,-0.74409 -0.5315,-1.24015 0,-0.3189 0.1063,-0.60237 0.24804,-0.88583 0.14173,-0.24803 0.38976,-0.4252 0.67322,-0.56693 0.28347,-0.14173 0.67323,-0.28347 1.20473,-0.38976 0.74409,-0.1063 1.24016,-0.24804 1.52362,-0.35434 l 0,-0.17716 c 0,-0.28347 -0.0709,-0.49606 -0.2126,-0.60236 -0.17716,-0.14174 -0.42519,-0.2126 -0.85039,-0.2126 -0.28347,0 -0.49606,0.0709 -0.6378,0.17716 -0.14173,0.1063 -0.28346,0.28347 -0.38976,0.56693 z m 2.09055,1.24016 c -0.2126,0.0709 -0.5315,0.14173 -0.95669,0.24803 -0.4252,0.0709 -0.70866,0.17717 -0.8504,0.24803 -0.17716,0.14174 -0.28346,0.35433 -0.28346,0.56693 0,0.2126 0.0709,0.38977 0.24803,0.56693 0.14173,0.14173 0.35433,0.2126 0.60236,0.2126 0.28347,0 0.5315,-0.0709 0.81496,-0.28346 0.17717,-0.1063 0.28347,-0.28347 0.35433,-0.49607 0.0354,-0.14173 0.0709,-0.38976 0.0709,-0.74409 z"
         style="fill:#000000;fill-opacity:1;fill-rule:nonzero;stroke:none"
         inkscape:connector-curvature="0" />
      <path
         id="path3035"
         d="m 276.66142,157.99606 0,1.20472 -1.063,0 0,2.37402 c 0,0.46063 0.0354,0.74409 0.0354,0.81496 0.0354,0.0709 0.0709,0.14173 0.14173,0.2126 0.0709,0.0354 0.17716,0.0709 0.24803,0.0709 0.14173,0 0.35433,-0.0709 0.6378,-0.14173 l 0.14173,1.16929 c -0.35433,0.17717 -0.77953,0.24804 -1.24016,0.24804 -0.28346,0 -0.5315,-0.0354 -0.74409,-0.14174 -0.2126,-0.1063 -0.38977,-0.2126 -0.49607,-0.35433 -0.1063,-0.14173 -0.17716,-0.35433 -0.2126,-0.60236 -0.0354,-0.17717 -0.0354,-0.56693 -0.0354,-1.09842 l 0,-2.55119 -0.70866,0 0,-1.20472 0.70866,0 0,-1.16929 1.52362,-0.92126 0,2.09055 z"
         style="fill:#000000;fill-opacity:1;fill-rule:nonzero;stroke:none"
         inkscape:connector-curvature="0" />
      <path
         id="path3037"
         d="m 281.12598,161.96456 1.52362,0.24804 c -0.17716,0.56692 -0.49606,0.99212 -0.92126,1.27559 -0.42519,0.31889 -0.95669,0.46063 -1.59448,0.46063 -1.02756,0 -1.77166,-0.3189 -2.26772,-0.99213 -0.38976,-0.5315 -0.56693,-1.20472 -0.56693,-2.01969 0,-0.95669 0.24803,-1.73622 0.74409,-2.26771 0.5315,-0.5315 1.1693,-0.81496 1.91339,-0.81496 0.88583,0 1.55906,0.28346 2.05512,0.85039 0.53149,0.56693 0.74409,1.45276 0.74409,2.62205 l -3.8622,0 c 0,0.46063 0.1063,0.81496 0.35433,1.09842 0.24803,0.24803 0.5315,0.35433 0.88583,0.35433 0.24803,0 0.46063,-0.0354 0.60236,-0.17716 0.17716,-0.14173 0.3189,-0.35433 0.38976,-0.6378 z m 0.0709,-1.55905 c 0,-0.46063 -0.1063,-0.77953 -0.3189,-1.02756 -0.24803,-0.24803 -0.49606,-0.35433 -0.81496,-0.35433 -0.3189,0 -0.60236,0.14173 -0.85039,0.38976 -0.2126,0.24803 -0.3189,0.56693 -0.3189,0.99213 z"
         style="fill:#000000;fill-opacity:1;fill-rule:nonzero;stroke:none"
         inkscape:connector-curvature="0" />
      <path
         id="path3039"
         d="m 242.43307,166.74803 0,-48.47244 m 0,0 c 0,-2.83465 2.30315,-5.17323 5.17323,-5.17323 m 50.91732,53.64567 0,-48.47244 m 0,0 c 0,-2.83465 -2.23228,-5.17323 -5.0315,-5.17323"
         style="fill:none;stroke:#010101;stroke-width:2.79921269px;stroke-linecap:butt;stroke-linejoin:round;stroke-opacity:1;stroke-dasharray:none"
         inkscape:connector-curvature="0" />
      <path
         id="path3041"
         d="m 220.88976,167.17322 0,-15.44881 m 394.65354,15.62598 0,-9.99213"
         style="fill:none;stroke:#010101;stroke-width:0.92125982px;stroke-linecap:round;stroke-linejoin:round;stroke-opacity:1;stroke-dasharray:none"
         inkscape:connector-curvature="0" />
      <path
         id="path3043"
         d="m 306.03543,166.74803 0,-48.47244 m 0,0 c 0,-2.83465 2.30315,-5.17323 5.17323,-5.17323 m 225,53.64567 0,-48.47244 m 0,0 c 0,-2.83465 2.30315,-5.17323 5.17323,-5.17323 m -12.68504,53.64567 0,-48.47244 m 0,0 c 0,-2.83465 -2.23229,-5.17323 -5.0315,-5.17323 m 69.23622,53.64567 0,-48.47244 m 0,0 c 0,-2.83465 -2.26772,-5.17323 -5.0315,-5.17323"
         style="fill:none;stroke:#010101;stroke-width:2.79921269px;stroke-linecap:butt;stroke-linejoin:round;stroke-opacity:1;stroke-dasharray:none"
         inkscape:connector-curvature="0" />
      <path
         id="path3045"
         d="m 395.39763,163.80708 -1.77165,0 -0.70866,-1.80708 -3.18898,0 -0.67322,1.80708 -1.73623,0 3.15355,-8.0433 1.70079,0 z m -2.97637,-3.18897 -1.13386,-2.97638 -1.06299,2.97638 z"
         style="fill:#000000;fill-opacity:1;fill-rule:nonzero;stroke:none"
         inkscape:connector-curvature="0" />
      <path
         id="path3047"
         d="m 396.07086,155.76378 2.97638,0 c 0.67323,0 1.20473,0.0354 1.55906,0.14173 0.46063,0.14173 0.85039,0.38976 1.20472,0.74409 0.3189,0.35433 0.60236,0.81496 0.77953,1.31103 0.14173,0.53149 0.24803,1.13385 0.24803,1.91338 0,0.6378 -0.0709,1.24016 -0.24803,1.70079 -0.2126,0.60236 -0.49606,1.06299 -0.8504,1.41732 -0.28346,0.28347 -0.67322,0.49607 -1.16929,0.6378 -0.35433,0.14173 -0.81496,0.17716 -1.41732,0.17716 l -3.08268,0 z m 1.62992,1.34645 0,5.3504 1.24016,0 c 0.4252,0 0.77953,-0.0354 0.95669,-0.0709 0.28347,-0.0709 0.49607,-0.17716 0.67323,-0.35433 0.17717,-0.14173 0.3189,-0.38976 0.4252,-0.77953 0.1063,-0.35433 0.17717,-0.85039 0.17717,-1.45275 0,-0.6378 -0.0709,-1.09843 -0.17717,-1.45276 -0.1063,-0.3189 -0.28346,-0.56693 -0.46063,-0.77953 -0.2126,-0.17716 -0.46063,-0.31889 -0.74409,-0.35433 -0.24804,-0.0709 -0.67323,-0.1063 -1.34646,-0.1063 z"
         style="fill:#000000;fill-opacity:1;fill-rule:nonzero;stroke:none"
         inkscape:connector-curvature="0" />
      <path
         id="path3049"
         d="m 409.3937,160.86614 1.55905,0.49606 c -0.2126,0.88583 -0.63779,1.52362 -1.20472,1.94882 -0.5315,0.4252 -1.27559,0.6378 -2.12599,0.6378 -1.06299,0 -1.94881,-0.35434 -2.62204,-1.09843 -0.70866,-0.70866 -1.02756,-1.73622 -1.02756,-2.97638 0,-1.34645 0.3189,-2.40945 1.02756,-3.15354 0.67323,-0.70866 1.59449,-1.09843 2.72834,-1.09843 0.99213,0 1.77166,0.28347 2.40945,0.88583 0.35433,0.3189 0.6378,0.81496 0.81496,1.48819 l -1.62992,0.35433 c -0.0709,-0.38976 -0.28346,-0.74409 -0.56693,-0.95669 -0.3189,-0.24803 -0.67323,-0.38977 -1.09842,-0.38977 -0.60237,0 -1.09843,0.2126 -1.45276,0.6378 -0.38976,0.46063 -0.56693,1.13386 -0.56693,2.09055 0,1.02756 0.17717,1.73622 0.5315,2.19685 0.38976,0.4252 0.85039,0.6378 1.45275,0.6378 0.4252,0 0.77953,-0.14174 1.09843,-0.4252 0.3189,-0.28347 0.5315,-0.70866 0.67323,-1.27559 z"
         style="fill:#000000;fill-opacity:1;fill-rule:nonzero;stroke:none"
         inkscape:connector-curvature="0" />
      <path
         id="path3051"
         d="m 415.48819,163.80708 0,-8.0433 1.62992,0 0,8.0433 z"
         style="fill:#000000;fill-opacity:1;fill-rule:nonzero;stroke:none"
         inkscape:connector-curvature="0" />
      <path
         id="path3053"
         d="m 423.99212,163.80708 -1.55905,0 0,-2.97637 c 0,-0.6378 0,-1.02756 -0.0709,-1.20473 -0.0709,-0.2126 -0.17716,-0.35433 -0.3189,-0.4252 -0.17716,-0.1063 -0.35433,-0.17716 -0.56693,-0.17716 -0.24803,0 -0.49606,0.0709 -0.70866,0.2126 -0.2126,0.17716 -0.35433,0.35433 -0.42519,0.60236 -0.0709,0.24803 -0.1063,0.67323 -0.1063,1.34646 l 0,2.62204 -1.55906,0 0,-5.81102 1.41732,0 0,0.85039 c 0.5315,-0.67322 1.1693,-0.99212 1.94882,-0.99212 0.3189,0 0.6378,0.0709 0.92126,0.17716 0.28347,0.14174 0.49607,0.28347 0.6378,0.46063 0.14173,0.2126 0.24803,0.4252 0.3189,0.67323 0.0354,0.2126 0.0709,0.56693 0.0709,1.02756 z"
         style="fill:#000000;fill-opacity:1;fill-rule:nonzero;stroke:none"
         inkscape:connector-curvature="0" />
      <path
         id="path3055"
         d="m 425.55118,157.99606 1.41732,0 0,0.85039 c 0.2126,-0.31889 0.46063,-0.53149 0.77953,-0.70866 0.3189,-0.2126 0.67323,-0.28346 1.06299,-0.28346 0.67323,0 1.24016,0.24803 1.70079,0.77952 0.49606,0.5315 0.70866,1.2756 0.70866,2.23229 0,0.95669 -0.2126,1.73622 -0.70866,2.26771 -0.46063,0.5315 -1.02756,0.81497 -1.73622,0.81497 -0.3189,0 -0.60236,-0.0709 -0.8504,-0.17717 -0.28346,-0.14173 -0.56693,-0.35433 -0.85039,-0.67323 l 0,2.94095 -1.52362,0 z m 1.52362,2.79921 c 0,0.67323 0.14173,1.13386 0.38976,1.45276 0.24804,0.3189 0.56693,0.46063 0.9567,0.46063 0.35433,0 0.63779,-0.14173 0.88582,-0.4252 0.24803,-0.28346 0.35433,-0.74409 0.35433,-1.41732 0,-0.60236 -0.1063,-1.06299 -0.35433,-1.34646 -0.24803,-0.3189 -0.56693,-0.46063 -0.92126,-0.46063 -0.38976,0 -0.70866,0.14173 -0.95669,0.46063 -0.24803,0.28347 -0.35433,0.70866 -0.35433,1.27559 z"
         style="fill:#000000;fill-opacity:1;fill-rule:nonzero;stroke:none"
         inkscape:connector-curvature="0" />
      <path
         id="path3057"
         d="m 436.32283,163.80708 0,-0.85039 c -0.2126,0.28346 -0.49606,0.5315 -0.85039,0.70866 -0.3189,0.17717 -0.70866,0.28347 -1.06299,0.28347 -0.4252,0 -0.7441,-0.0709 -1.063,-0.24804 -0.31889,-0.17716 -0.53149,-0.42519 -0.67323,-0.74409 -0.14173,-0.3189 -0.21259,-0.74409 -0.21259,-1.27559 l 0,-3.68504 1.52362,0 0,2.65748 c 0,0.81496 0.0354,1.34646 0.1063,1.52362 0.0354,0.17717 0.14173,0.3189 0.3189,0.4252 0.14173,0.1063 0.31889,0.17716 0.56692,0.17716 0.24804,0 0.49607,-0.0709 0.70867,-0.21259 0.21259,-0.14174 0.35433,-0.35433 0.42519,-0.56693 0.0709,-0.2126 0.1063,-0.70866 0.1063,-1.55906 l 0,-2.44488 1.55906,0 0,5.81102 z"
         style="fill:#000000;fill-opacity:1;fill-rule:nonzero;stroke:none"
         inkscape:connector-curvature="0" />
      <path
         id="path3059"
         d="m 442.06299,157.99606 0,1.20472 -1.06299,0 0,2.37402 c 0,0.46063 0.0354,0.74409 0.0354,0.81496 0.0354,0.0709 0.0709,0.14173 0.14173,0.2126 0.0709,0.0354 0.14173,0.0709 0.24803,0.0709 0.14174,0 0.35433,-0.0709 0.6378,-0.14173 l 0.14173,1.16929 c -0.38976,0.17717 -0.77953,0.24804 -1.24016,0.24804 -0.28346,0 -0.53149,-0.0354 -0.74409,-0.14174 -0.2126,-0.1063 -0.38976,-0.2126 -0.49606,-0.35433 -0.1063,-0.14173 -0.17717,-0.35433 -0.2126,-0.60236 -0.0354,-0.17717 -0.0354,-0.56693 -0.0354,-1.09842 l 0,-2.55119 -0.70866,0 0,-1.20472 0.70866,0 0,-1.16929 1.52363,-0.92126 0,2.09055 z"
         style="fill:#000000;fill-opacity:1;fill-rule:nonzero;stroke:none"
         inkscape:connector-curvature="0" />
      <path
         id="path3061"
         d="m 442.62992,162.14173 1.52362,-0.2126 c 0.0709,0.28347 0.2126,0.49606 0.4252,0.67323 0.17716,0.14173 0.46063,0.2126 0.85039,0.2126 0.38976,0 0.67323,-0.0709 0.88583,-0.2126 0.14173,-0.1063 0.2126,-0.2126 0.2126,-0.38976 0,-0.14174 -0.0354,-0.2126 -0.1063,-0.3189 -0.1063,-0.0709 -0.24804,-0.14173 -0.5315,-0.17717 -1.24016,-0.28346 -2.01968,-0.53149 -2.37402,-0.77953 -0.46063,-0.28346 -0.67322,-0.74409 -0.67322,-1.31102 0,-0.49606 0.17716,-0.92126 0.60236,-1.27559 0.38976,-0.3189 0.99212,-0.49606 1.84252,-0.49606 0.81496,0 1.38189,0.14173 1.77165,0.38976 0.38977,0.24803 0.67323,0.6378 0.81496,1.13386 l -1.45275,0.28346 c -0.0709,-0.21259 -0.17717,-0.38976 -0.35433,-0.53149 -0.17717,-0.1063 -0.4252,-0.17717 -0.7441,-0.17717 -0.4252,0 -0.70866,0.0709 -0.88583,0.17717 -0.10629,0.0709 -0.17716,0.17716 -0.17716,0.3189 0,0.10629 0.0709,0.21259 0.17716,0.28346 0.1063,0.1063 0.60237,0.24803 1.41733,0.4252 0.81496,0.17716 1.41732,0.42519 1.73622,0.67323 0.3189,0.28346 0.46063,0.67322 0.46063,1.16929 0,0.53149 -0.2126,0.99212 -0.6378,1.38189 -0.46063,0.38976 -1.13386,0.56693 -1.98425,0.56693 -0.81496,0 -1.45276,-0.17717 -1.91339,-0.49607 -0.46063,-0.3189 -0.74409,-0.74409 -0.88582,-1.31102 z"
         style="fill:#000000;fill-opacity:1;fill-rule:nonzero;stroke:none"
         inkscape:connector-curvature="0" />
      <path
         id="path3063"
         d="m 548.2559,163.80708 0,-6.69685 -2.37401,0 0,-1.34645 6.37795,0 0,1.34645 -2.37402,0 0,6.69685 z"
         style="fill:#000000;fill-opacity:1;fill-rule:nonzero;stroke:none"
         inkscape:connector-curvature="0" />
      <path
         id="path3065"
         d="m 554.81102,163.80708 -1.52362,0 0,-5.81102 1.41732,0 0,0.81496 c 0.24803,-0.38976 0.46063,-0.63779 0.67323,-0.77953 0.17716,-0.1063 0.38976,-0.17716 0.63779,-0.17716 0.35433,0 0.70867,0.1063 1.02756,0.28346 l -0.46063,1.34646 c -0.28346,-0.17717 -0.49606,-0.24803 -0.74409,-0.24803 -0.2126,0 -0.38977,0.0709 -0.5315,0.17716 -0.17716,0.1063 -0.28346,0.3189 -0.35433,0.6378 -0.1063,0.3189 -0.14173,0.95669 -0.14173,1.94882 z"
         style="fill:#000000;fill-opacity:1;fill-rule:nonzero;stroke:none"
         inkscape:connector-curvature="0" />
      <path
         id="path3067"
         d="m 557.75196,157.1811 0,-1.41732 1.52363,0 0,1.41732 z m 0,6.62598 0,-5.81102 1.52363,0 0,5.81102 z"
         style="fill:#000000;fill-opacity:1;fill-rule:nonzero;stroke:none"
         inkscape:connector-curvature="0" />
      <path
         id="path3069"
         d="m 560.76378,164.19685 1.73622,0.2126 c 0.0354,0.21259 0.10629,0.35433 0.21259,0.42519 0.14174,0.1063 0.38977,0.17717 0.70867,0.17717 0.38976,0 0.70866,-0.0709 0.88582,-0.17717 0.14173,-0.1063 0.24803,-0.2126 0.3189,-0.38976 0.0354,-0.14173 0.0709,-0.38977 0.0709,-0.70866 l 0,-0.8504 c -0.46063,0.60237 -1.063,0.92126 -1.73622,0.92126 -0.77953,0 -1.41733,-0.31889 -1.87796,-0.99212 -0.35433,-0.5315 -0.53149,-1.16929 -0.53149,-1.94882 0,-0.99213 0.24803,-1.73622 0.70866,-2.23229 0.46063,-0.53149 1.06299,-0.77952 1.73622,-0.77952 0.74409,0 1.34646,0.3189 1.80709,0.95669 l 0,-0.81496 1.45275,0 0,5.20866 c 0,0.70866 -0.0709,1.20473 -0.17716,1.55906 -0.1063,0.31889 -0.28347,0.60236 -0.49607,0.81496 -0.2126,0.17716 -0.46063,0.31889 -0.81496,0.42519 -0.35433,0.1063 -0.77953,0.17717 -1.31102,0.17717 -0.99213,0 -1.66536,-0.17717 -2.09055,-0.49606 -0.4252,-0.35433 -0.6378,-0.77953 -0.6378,-1.31103 0,-0.0354 0.0354,-0.1063 0.0354,-0.17716 z m 1.38188,-3.43701 c 0,0.63779 0.1063,1.09842 0.35434,1.38189 0.21259,0.28346 0.53149,0.4252 0.88582,0.4252 0.35433,0 0.67323,-0.14174 0.9567,-0.4252 0.24803,-0.3189 0.38976,-0.7441 0.38976,-1.31102 0,-0.60237 -0.14173,-1.063 -0.38976,-1.34646 -0.24804,-0.3189 -0.56693,-0.46063 -0.92126,-0.46063 -0.38977,0 -0.70867,0.14173 -0.92126,0.4252 -0.24804,0.28346 -0.35434,0.74409 -0.35434,1.31102 z"
         style="fill:#000000;fill-opacity:1;fill-rule:nonzero;stroke:none"
         inkscape:connector-curvature="0" />
      <path
         id="path3071"
         d="m 567.63779,164.19685 1.77165,0.2126 c 0.0354,0.21259 0.1063,0.35433 0.2126,0.42519 0.14174,0.1063 0.38977,0.17717 0.67323,0.17717 0.4252,0 0.70866,-0.0709 0.92126,-0.17717 0.14173,-0.1063 0.24803,-0.2126 0.3189,-0.38976 0.0354,-0.14173 0.0709,-0.38977 0.0709,-0.70866 l 0,-0.8504 c -0.46063,0.60237 -1.06299,0.92126 -1.77165,0.92126 -0.77953,0 -1.38189,-0.31889 -1.84252,-0.99212 -0.35433,-0.5315 -0.53149,-1.16929 -0.53149,-1.94882 0,-0.99213 0.21259,-1.73622 0.70866,-2.23229 0.46063,-0.53149 1.02756,-0.77952 1.73622,-0.77952 0.70866,0 1.31102,0.3189 1.77165,0.95669 l 0,-0.81496 1.45276,0 0,5.20866 c 0,0.70866 -0.0354,1.20473 -0.17717,1.55906 -0.1063,0.31889 -0.24803,0.60236 -0.46063,0.81496 -0.2126,0.17716 -0.49606,0.31889 -0.81496,0.42519 -0.35433,0.1063 -0.77953,0.17717 -1.31102,0.17717 -0.99213,0 -1.70079,-0.17717 -2.09055,-0.49606 -0.4252,-0.35433 -0.6378,-0.77953 -0.6378,-1.31103 0,-0.0354 0,-0.1063 0,-0.17716 z m 1.38189,-3.43701 c 0,0.63779 0.14173,1.09842 0.35433,1.38189 0.24803,0.28346 0.56693,0.4252 0.92126,0.4252 0.35433,0 0.67323,-0.14174 0.92126,-0.4252 0.28347,-0.3189 0.38976,-0.7441 0.38976,-1.31102 0,-0.60237 -0.10629,-1.063 -0.35433,-1.34646 -0.24803,-0.3189 -0.56693,-0.46063 -0.95669,-0.46063 -0.35433,0 -0.67323,0.14173 -0.92126,0.4252 -0.2126,0.28346 -0.35433,0.74409 -0.35433,1.31102 z"
         style="fill:#000000;fill-opacity:1;fill-rule:nonzero;stroke:none"
         inkscape:connector-curvature="0" />
      <path
         id="path3073"
         d="m 578.09055,161.96456 1.52362,0.24804 c -0.2126,0.56692 -0.49606,0.99212 -0.92126,1.27559 -0.46063,0.31889 -0.99213,0.46063 -1.62992,0.46063 -0.99213,0 -1.77166,-0.3189 -2.23229,-0.99213 -0.38976,-0.5315 -0.60236,-1.20472 -0.60236,-2.01969 0,-0.95669 0.28347,-1.73622 0.77953,-2.26771 0.49606,-0.5315 1.13386,-0.81496 1.91339,-0.81496 0.85039,0 1.55905,0.28346 2.05511,0.85039 0.49607,0.56693 0.7441,1.45276 0.70866,2.62205 l -3.8622,0 c 0,0.46063 0.14173,0.81496 0.38976,1.09842 0.2126,0.24803 0.5315,0.35433 0.88583,0.35433 0.24803,0 0.4252,-0.0354 0.60236,-0.17716 0.17717,-0.14173 0.28347,-0.35433 0.38977,-0.6378 z m 0.0709,-1.55905 c 0,-0.46063 -0.14173,-0.77953 -0.35433,-1.02756 -0.2126,-0.24803 -0.49606,-0.35433 -0.77953,-0.35433 -0.35433,0 -0.63779,0.14173 -0.85039,0.38976 -0.2126,0.24803 -0.3189,0.56693 -0.3189,0.99213 z"
         style="fill:#000000;fill-opacity:1;fill-rule:nonzero;stroke:none"
         inkscape:connector-curvature="0" />
      <path
         id="path3075"
         d="m 582.41338,163.80708 -1.55905,0 0,-5.81102 1.41732,0 0,0.81496 c 0.24803,-0.38976 0.49606,-0.63779 0.67323,-0.77953 0.2126,-0.1063 0.42519,-0.17716 0.67323,-0.17716 0.35433,0 0.67322,0.1063 1.02755,0.28346 l -0.49606,1.34646 c -0.24803,-0.17717 -0.49606,-0.24803 -0.70866,-0.24803 -0.2126,0 -0.4252,0.0709 -0.56693,0.17716 -0.14173,0.1063 -0.24803,0.3189 -0.35433,0.6378 -0.0709,0.3189 -0.1063,0.95669 -0.1063,1.94882 z"
         style="fill:#000000;fill-opacity:1;fill-rule:nonzero;stroke:none"
         inkscape:connector-curvature="0" />
      <path
         id="path3077"
         d="m 339.98031,146.72834 -2.37401,0 -0.92126,-2.44488 -4.2874,0 -0.88583,2.44488 -2.30315,0 4.1811,-10.73622 2.26772,0 z m -4.00393,-4.25197 -1.48819,-4.00393 -1.45276,4.00393 z"
         style="fill:#000000;fill-opacity:1;fill-rule:nonzero;stroke:none"
         inkscape:connector-curvature="0" />
      <path
         id="path3079"
         d="m 385.65354,135.99212 4.2874,0 c 0.8504,0 1.48819,0.0354 1.91339,0.1063 0.38976,0.0709 0.77953,0.2126 1.09842,0.4252 0.3189,0.2126 0.60237,0.5315 0.81496,0.88583 0.24803,0.38976 0.35433,0.81496 0.35433,1.27559 0,0.49606 -0.14173,0.95669 -0.42519,1.38189 -0.24803,0.42519 -0.6378,0.74409 -1.09843,0.95669 0.67323,0.17716 1.16929,0.49606 1.52362,0.95669 0.35433,0.46063 0.5315,0.99213 0.5315,1.62992 0,0.49607 -0.14173,0.9567 -0.35433,1.41733 -0.2126,0.46063 -0.5315,0.81496 -0.92126,1.09842 -0.38976,0.28347 -0.88583,0.46063 -1.45276,0.5315 -0.35433,0.0354 -1.24015,0.0354 -2.62204,0.0709 l -3.64961,0 z m 2.16142,1.77166 0,2.48031 1.41732,0 c 0.85039,0 1.38189,0 1.55906,-0.0354 0.38976,-0.0354 0.67322,-0.17717 0.88582,-0.38977 0.2126,-0.21259 0.3189,-0.49606 0.3189,-0.81496 0,-0.35433 -0.0709,-0.60236 -0.28346,-0.81496 -0.17717,-0.21259 -0.4252,-0.35433 -0.81497,-0.38976 -0.21259,-0.0354 -0.81496,-0.0354 -1.84251,-0.0354 z m 0,4.2874 0,2.87008 2.01968,0 c 0.77953,0 1.27559,-0.0354 1.48819,-0.0709 0.3189,-0.0709 0.56693,-0.2126 0.77953,-0.4252 0.17716,-0.24803 0.28346,-0.53149 0.28346,-0.92126 0,-0.31889 -0.0709,-0.60236 -0.21259,-0.81496 -0.17717,-0.24803 -0.38977,-0.38976 -0.67323,-0.49606 -0.3189,-0.1063 -0.9567,-0.14173 -1.94882,-0.14173 z"
         style="fill:#000000;fill-opacity:1;fill-rule:nonzero;stroke:none"
         inkscape:connector-curvature="0" />
      <path
         id="path3081"
         d="m 447.62598,142.75984 2.09055,0.67323 c -0.3189,1.16929 -0.85039,2.05512 -1.59449,2.62205 -0.74409,0.56692 -1.70078,0.85039 -2.83464,0.85039 -1.45276,0 -2.62205,-0.49606 -3.54331,-1.45276 -0.92126,-0.99212 -1.38189,-2.33858 -1.38189,-4.00393 0,-1.80709 0.49606,-3.18898 1.41732,-4.18111 0.92126,-0.99212 2.12599,-1.48819 3.61418,-1.48819 1.31102,0 2.37401,0.38977 3.22441,1.1693 0.46063,0.46063 0.85039,1.13385 1.09842,1.98425 l -2.16142,0.53149 c -0.14173,-0.56693 -0.38976,-1.02756 -0.77952,-1.34645 -0.4252,-0.3189 -0.92126,-0.46063 -1.48819,-0.46063 -0.77953,0 -1.45276,0.28346 -1.91339,0.85039 -0.49606,0.56693 -0.74409,1.48819 -0.74409,2.76378 0,1.38189 0.2126,2.33858 0.70866,2.90551 0.49606,0.56693 1.13386,0.8504 1.91339,0.8504 0.56692,0 1.06299,-0.17717 1.48818,-0.5315 0.4252,-0.35433 0.70867,-0.95669 0.88583,-1.73622 z"
         style="fill:#000000;fill-opacity:1;fill-rule:nonzero;stroke:none"
         inkscape:connector-curvature="0" />
      <path
         id="path3083"
         d="m 496.55905,135.99212 3.96851,0 c 0.88582,0 1.55905,0.0709 2.01968,0.17717 0.6378,0.2126 1.16929,0.53149 1.62992,0.99212 0.46063,0.49607 0.77953,1.063 1.02756,1.73622 0.2126,0.70867 0.35433,1.55906 0.35433,2.55119 0,0.88582 -0.1063,1.62992 -0.35433,2.26771 -0.24803,0.81496 -0.63779,1.41733 -1.13386,1.91339 -0.38976,0.35433 -0.88582,0.63779 -1.52362,0.85039 -0.46063,0.14173 -1.13386,0.24803 -1.91339,0.24803 l -4.0748,0 z m 2.16142,1.80709 0,7.12205 1.62992,0 c 0.60236,0 1.02756,-0.0354 1.31102,-0.1063 0.35433,-0.1063 0.6378,-0.24803 0.8504,-0.46063 0.24803,-0.2126 0.42519,-0.56693 0.56693,-1.02756 0.14173,-0.49606 0.24803,-1.13386 0.24803,-1.98425 0,-0.81496 -0.1063,-1.45276 -0.24803,-1.91339 -0.14174,-0.4252 -0.35433,-0.77953 -0.60237,-1.02756 -0.24803,-0.24803 -0.60236,-0.42519 -0.99212,-0.49606 -0.3189,-0.0709 -0.92126,-0.1063 -1.80709,-0.1063 z"
         style="fill:#000000;fill-opacity:1;fill-rule:nonzero;stroke:none"
         inkscape:connector-curvature="0" />
      <path
         id="path3085"
         d="m 563.70472,146.72834 0,-8.92913 -3.18898,0 0,-1.80709 8.53937,0 0,1.80709 -3.18897,0 0,8.92913 z"
         style="fill:#000000;fill-opacity:1;fill-rule:nonzero;stroke:none"
         inkscape:connector-curvature="0" />
      <path
         id="path3087"
         d="m 468.24803,109.20472 10.13386,0 m -65.62205,0 10.09842,0 m -65.62204,0 10.20472,0 m 221.24409,-0.95669 c 0,13.1811 -10.41732,23.91732 -23.31496,23.91732 -12.82677,0 -23.24409,-10.73622 -23.24409,-23.91732 0,-12.826772 9.88583,-23.42126 22.42913,-23.846457 m 24.12992,6.980315 c 0,-3.826772 -3.11811,-6.980315 -7.05118,-6.980315 m 7.05118,24.661417 0,-18 m -24.37795,-6.661417 17.64567,0 m -57.15354,23.846457 c 0,13.1811 -10.41732,23.91732 -23.31496,23.91732 -12.82677,0 -23.2441,-10.73622 -23.2441,-23.91732 0,-12.826772 9.88583,-23.42126 22.3937,-23.846457 m 24.16536,6.980315 c 0,-3.826772 -3.15354,-6.980315 -7.05118,-6.980315 m 7.05118,24.661417 0,-18 m -24.37795,-6.661417 17.64567,0 m -49.07481,23.846457 c 0,13.1811 -10.41732,23.91732 -23.24409,23.91732 -12.89764,0 -23.31496,-10.73622 -23.31496,-23.91732 0,-12.826772 9.95669,-23.42126 22.5,-23.846457 m 24.05905,6.980315 c 0,-3.826772 -3.15354,-6.980315 -7.05118,-6.980315 m 7.05118,24.661417 0,-18 m -24.37795,-6.661417 17.64567,0 M 357.90945,108.24803 c 0,13.1811 -10.41733,23.91732 -23.31496,23.91732 -12.82678,0 -23.2441,-10.73622 -23.2441,-23.91732 0,-12.826772 9.88583,-23.42126 22.42913,-23.846457 m 24.12993,6.980315 c 0,-3.826772 -3.11811,-6.980315 -7.05119,-6.980315 m 7.05119,24.661417 0,-18 m -24.34252,-6.661417 17.61023,0 m 62.46851,23.846457 c 0,13.1811 -10.41733,23.91732 -23.2441,23.91732 -12.82677,0 -23.24409,-10.73622 -23.24409,-23.91732 0,-12.826772 9.88582,-23.42126 22.42913,-23.846457 m 24.05906,6.980315 c 0,-3.826772 -3.15355,-6.980315 -6.98032,-6.980315 m 6.98032,24.661417 0,-18 m -24.37796,-6.661417 17.71654,0 M 293.63386,108.24803 c 0,13.1811 -10.41733,23.91732 -23.2441,23.91732 -12.82677,0 -23.24409,-10.73622 -23.24409,-23.91732 0,-12.826772 9.92126,-23.42126 22.42913,-23.846457 m 24.05906,6.980315 c 0,-3.826772 -3.11811,-6.980315 -6.94489,-6.980315 m 6.94489,24.661417 0,-18 m -24.34252,-6.661417 17.6811,0"
         style="fill:none;stroke:#010101;stroke-width:2.79921269px;stroke-linecap:butt;stroke-linejoin:round;stroke-opacity:1;stroke-dasharray:none"
         inkscape:connector-curvature="0" />
      <path
         id="path3089"
         d="m 121.7126,102.01181 12.9685,0 0,41.31496 -12.9685,0 z"
         style="fill:#ffffff;fill-opacity:1;fill-rule:nonzero;stroke:none"
         inkscape:connector-curvature="0" />
      <path
         id="path3091"
         d="m 194.06693,80.681101 35.11417,0 0,5.952755 -35.11417,0 z"
         style="fill:#ffffff;fill-opacity:1;fill-rule:nonzero;stroke:none"
         inkscape:connector-curvature="0" />
      <path
         id="path3093"
         d="m 220.88976,94.960628 0,-14.456693"
         style="fill:none;stroke:#010101;stroke-width:0.92125982px;stroke-linecap:round;stroke-linejoin:round;stroke-opacity:1;stroke-dasharray:none"
         inkscape:connector-curvature="0" />
      <path
         id="path3095"
         d="m 607.85433,80.681101 35.11417,0 0,6.661417 -35.11417,0 z"
         style="fill:#ffffff;fill-opacity:1;fill-rule:nonzero;stroke:none"
         inkscape:connector-curvature="0" />
      <path
         id="path3097"
         d="m 615.5433,89.858266 0,-10.204724"
         style="fill:none;stroke:#010101;stroke-width:0.92125982px;stroke-linecap:round;stroke-linejoin:round;stroke-opacity:1;stroke-dasharray:none"
         inkscape:connector-curvature="0" />
      <path
         id="path3101"
         d="m 674.85826,63.956692 0,30.47244 -4.67716,9.744098 0,0"
         style="fill:none;stroke:#000000;stroke-width:0.99212599px;stroke-linecap:butt;stroke-linejoin:miter;stroke-miterlimit:4;stroke-opacity:1;stroke-dasharray:none"
         inkscape:connector-curvature="0" />
      <path
         id="path3103"
         d="m 674.85826,119.33858 0,-15.27165"
         style="fill:none;stroke:#000000;stroke-width:0.99212599px;stroke-linecap:butt;stroke-linejoin:miter;stroke-miterlimit:4;stroke-opacity:1;stroke-dasharray:none"
         inkscape:connector-curvature="0" />
      <path
         id="path3105"
         d="m 674.85826,155.97637 0,-27.70866 -4.8189,-9.03543"
         style="fill:none;stroke:#000000;stroke-width:0.99212599px;stroke-linecap:butt;stroke-linejoin:miter;stroke-miterlimit:4;stroke-opacity:1;stroke-dasharray:none"
         inkscape:connector-curvature="0" />
      <path
         id="path3107"
         d="m 269.8937,142.79527 0,-1.80708 4.67716,0 0,4.2874 c -0.46063,0.46063 -1.13385,0.81496 -1.98425,1.16929 -0.85039,0.3189 -1.73622,0.49606 -2.62205,0.49606 -1.13385,0 -2.09055,-0.24803 -2.94094,-0.70866 -0.81496,-0.46063 -1.45276,-1.13386 -1.87795,-2.01968 -0.4252,-0.88583 -0.6378,-1.84252 -0.6378,-2.87008 0,-1.09843 0.24803,-2.09055 0.70866,-2.97638 0.46063,-0.85039 1.16929,-1.52362 2.05512,-1.98425 0.70866,-0.35433 1.55906,-0.5315 2.58662,-0.5315 1.31102,0 2.37401,0.28347 3.11811,0.81496 0.74409,0.56693 1.24015,1.34646 1.45275,2.33858 l -2.16142,0.38977 c -0.14173,-0.5315 -0.42519,-0.9567 -0.85039,-1.24016 -0.4252,-0.3189 -0.92126,-0.46063 -1.55905,-0.46063 -0.9567,0 -1.70079,0.28347 -2.26772,0.88583 -0.56693,0.60236 -0.85039,1.48819 -0.85039,2.69291 0,1.27559 0.28346,2.23228 0.85039,2.87008 0.56693,0.63779 1.31102,0.95669 2.23228,0.95669 0.46063,0 0.92126,-0.1063 1.38189,-0.28346 0.46063,-0.17717 0.8504,-0.38977 1.16929,-0.6378 l 0,-1.38189 z"
         style="fill:#000000;fill-opacity:1;fill-rule:nonzero;stroke:none"
         inkscape:connector-curvature="0" />
    </g>
  </g>
</svg>
