<?xml version="1.0" encoding="utf-8" standalone="no"?>
<!DOCTYPE svg PUBLIC "-//W3C//DTD SVG 1.1//EN"
  "http://www.w3.org/Graphics/SVG/1.1/DTD/svg11.dtd">
<svg xmlns:xlink="http://www.w3.org/1999/xlink" width="287.917735pt" height="158.958867pt" viewBox="0 0 287.917735 158.958867" xmlns="http://www.w3.org/2000/svg" version="1.1">
 <metadata>
  <rdf:RDF xmlns:dc="http://purl.org/dc/elements/1.1/" xmlns:cc="http://creativecommons.org/ns#" xmlns:rdf="http://www.w3.org/1999/02/22-rdf-syntax-ns#">
   <cc:Work>
    <dc:type rdf:resource="http://purl.org/dc/dcmitype/StillImage"/>
    <dc:date>2025-06-12T13:05:51.519987</dc:date>
    <dc:format>image/svg+xml</dc:format>
    <dc:creator>
     <cc:Agent>
      <dc:title>Matplotlib v3.9.2, https://matplotlib.org/</dc:title>
     </cc:Agent>
    </dc:creator>
   </cc:Work>
  </rdf:RDF>
 </metadata>
 <defs>
  <style type="text/css">*{stroke-linejoin: round; stroke-linecap: butt}</style>
 </defs>
 <g id="figure_1">
  <g id="patch_1">
   <path d="M 0 158.958867 
L 287.917735 158.958867 
L 287.917735 0 
L 0 0 
L 0 158.958867 
z
" style="fill: none"/>
  </g>
  <g id="axes_1">
   <g id="patch_2">
    <path d="M 5 74.479434 
L 282.917735 74.479434 
L 282.917735 5 
L 5 5 
L 5 74.479434 
z
" style="fill: none"/>
   </g>
   <g id="matplotlib.axis_1"/>
   <g id="matplotlib.axis_2"/>
   <g id="line2d_1">
    <path d="M 5 71.233058 
L 8.950846 70.747983 
L 15.527899 69.691424 
L 22.092705 68.203754 
L 26.023045 67.017882 
L 31.906308 64.818622 
L 32.571333 64.960549 
L 32.980601 65.409737 
L 33.8017 67.14362 
L 35.515385 70.814157 
L 35.816141 71.414784 
L 36.278953 67.502956 
L 36.579709 65.824252 
L 37.226792 61.429914 
L 39.282245 47.936131 
L 39.700057 45.733836 
L 40.694604 39.635093 
L 41.191023 36.993795 
L 41.487792 35.064088 
L 43.676251 23.89537 
L 44.603868 19.410642 
L 44.869878 18.702693 
L 45.077218 17.49166 
L 46.039866 14.212973 
L 46.761568 11.751715 
L 47.995068 8.694687 
L 48.805629 7.596372 
L 49.405718 7.20695 
L 50.06704 7.228536 
L 50.589662 7.670506 
L 51.021429 8.241856 
L 51.448355 9.298416 
L 51.906895 10.689084 
L 52.624039 13.405797 
L 54.112442 21.469729 
L 54.089657 22.051872 
L 54.310953 22.786465 
L 54.264244 23.528816 
L 54.659272 25.153083 
L 54.911611 27.636197 
L 55.09759 28.126735 
L 55.196988 29.285693 
L 56.78963 39.989303 
L 56.742637 40.713103 
L 57.165006 42.524291 
L 57.209436 43.149538 
L 57.482851 44.378515 
L 57.542945 45.14859 
L 57.935979 46.996675 
L 58.775591 51.008606 
L 59.03562 51.732474 
L 59.467387 53.617525 
L 59.90656 55.094469 
L 60.052666 55.579611 
L 60.61573 56.765483 
L 61.201294 57.980092 
L 61.511449 58.501188 
L 62.028089 58.896478 
L 62.390079 58.069943 
L 62.213499 59.471404 
L 62.713335 56.18334 
L 63.577156 51.737264 
L 63.392601 52.248376 
L 64.565152 47.084502 
L 64.184934 48.398743 
L 64.797839 45.995632 
L 65.845645 41.090451 
L 66.457411 38.734086 
L 66.551397 38.071873 
L 67.068323 36.522144 
L 67.542242 35.00837 
L 68.015307 33.845837 
L 68.41717 33.374591 
L 69.097859 33.193675 
L 69.616778 33.468557 
L 71.24502 36.616515 
L 74.919603 44.881667 
L 76.900437 48.647655 
L 81.049224 55.024383 
L 83.106956 57.638698 
L 84.492544 59.209608 
L 87.224984 61.939003 
L 87.761276 62.306704 
L 88.032982 62.714609 
L 92.689011 66.065542 
L 95.153732 67.513749 
L 97.835477 68.861313 
L 99.843653 69.756114 
L 103.846049 71.060573 
L 107.146679 70.952779 
L 108.465052 70.844985 
L 110.443893 70.726397 
L 112.421024 70.54312 
L 117.038889 70.28436 
L 119.016305 70.111875 
L 121.655329 69.97177 
L 122.973986 69.874701 
L 125.613865 69.766907 
L 126.932522 69.659112 
L 130.231444 69.497421 
L 132.212278 69.443524 
L 141.46595 69.540525 
L 146.106599 70.068771 
L 156.685478 70.305946 
L 168.576179 70.198151 
L 169.893413 70.047185 
L 173.859069 70.079564 
L 178.463832 69.368041 
L 180.429002 68.775105 
L 183.041253 67.70782 
L 184.993892 66.676488 
L 186.988112 65.373783 
L 189.363689 63.424311 
L 192.066225 60.534102 
L 195.385368 55.832975 
L 197.14804 52.809001 
L 197.394968 52.205272 
L 198.300939 50.523465 
L 198.157112 51.134411 
L 201.700683 41.890004 
L 202.935038 38.112279 
L 204.028413 34.129219 
L 204.122399 33.457764 
L 204.620527 31.749784 
L 204.713659 31.053708 
L 205.073086 29.770767 
L 205.30264 28.563377 
L 205.664345 27.366711 
L 206.008108 25.534006 
L 206.273833 24.820661 
L 206.342187 24.137941 
L 207.333885 21.103174 
L 207.763944 20.742016 
L 208.252389 20.876793 
L 209.249499 24.790171 
L 209.607501 26.622877 
L 210.520024 32.073235 
L 210.641352 33.659524 
L 210.97657 35.134175 
L 210.95407 35.732507 
L 211.18989 37.069278 
L 211.44935 38.539004 
L 211.690297 40.785011 
L 211.899915 41.942147 
L 212.125767 44.27072 
L 212.410004 45.83394 
L 212.57975 47.134352 
L 212.984176 49.741922 
L 212.961391 50.329462 
L 213.294331 52.05073 
L 213.52474 53.973287 
L 213.817522 55.725181 
L 214.123689 58.544292 
L 214.487673 60.630361 
L 214.983807 64.042408 
L 215.194849 64.52755 
L 215.737692 65.016672 
L 216.94442 65.616354 
L 218.279027 66.069184 
L 220.938557 66.640535 
L 226.240243 67.179574 
L 243.417251 67.071779 
L 246.717882 66.963985 
L 252.661524 66.856123 
L 264.552226 66.748329 
L 268.52016 66.856123 
L 273.148562 66.963985 
L 277.119344 67.179574 
L 279.104735 67.287368 
L 281.090696 67.416748 
L 282.917735 67.759019 
L 282.917735 67.759019 
" clip-path="url(#pdec03f9609)" style="fill: none; stroke: #376eb5; stroke-width: 1.5; stroke-linecap: square"/>
   </g>
   <g id="patch_3">
    <path d="M 5 74.479434 
L 282.917735 74.479434 
" style="fill: none; stroke: #afafaf; stroke-width: 0.8; stroke-linejoin: miter; stroke-linecap: square"/>
   </g>
   <g id="line2d_2">
    <path d="M 5 47.497129 
L 282.917735 47.497129 
" clip-path="url(#pdec03f9609)" style="fill: none; stroke-dasharray: 2.96,1.28; stroke-dashoffset: 0; stroke: #afafaf; stroke-width: 0.8"/>
   </g>
   <g id="patch_4">
    <path d="M 90.733378 31.132089 
Q 85.744672 34.489273 80.755965 37.846456 
" style="fill: none; stroke: #ed7800; stroke-linecap: round"/>
   </g>
   <g id="text_1">
    <!-- Retrigger -->
    <g style="fill: #ed7800" transform="translate(79.287122 27.260401) scale(0.09 -0.09)">
     <defs>
      <path id="DejaVuSans-52" d="M 2841 2188 
Q 3044 2119 3236 1894 
Q 3428 1669 3622 1275 
L 4263 0 
L 3584 0 
L 2988 1197 
Q 2756 1666 2539 1819 
Q 2322 1972 1947 1972 
L 1259 1972 
L 1259 0 
L 628 0 
L 628 4666 
L 2053 4666 
Q 2853 4666 3247 4331 
Q 3641 3997 3641 3322 
Q 3641 2881 3436 2590 
Q 3231 2300 2841 2188 
z
M 1259 4147 
L 1259 2491 
L 2053 2491 
Q 2509 2491 2742 2702 
Q 2975 2913 2975 3322 
Q 2975 3731 2742 3939 
Q 2509 4147 2053 4147 
L 1259 4147 
z
" transform="scale(0.015625)"/>
      <path id="DejaVuSans-65" d="M 3597 1894 
L 3597 1613 
L 953 1613 
Q 991 1019 1311 708 
Q 1631 397 2203 397 
Q 2534 397 2845 478 
Q 3156 559 3463 722 
L 3463 178 
Q 3153 47 2828 -22 
Q 2503 -91 2169 -91 
Q 1331 -91 842 396 
Q 353 884 353 1716 
Q 353 2575 817 3079 
Q 1281 3584 2069 3584 
Q 2775 3584 3186 3129 
Q 3597 2675 3597 1894 
z
M 3022 2063 
Q 3016 2534 2758 2815 
Q 2500 3097 2075 3097 
Q 1594 3097 1305 2825 
Q 1016 2553 972 2059 
L 3022 2063 
z
" transform="scale(0.015625)"/>
      <path id="DejaVuSans-74" d="M 1172 4494 
L 1172 3500 
L 2356 3500 
L 2356 3053 
L 1172 3053 
L 1172 1153 
Q 1172 725 1289 603 
Q 1406 481 1766 481 
L 2356 481 
L 2356 0 
L 1766 0 
Q 1100 0 847 248 
Q 594 497 594 1153 
L 594 3053 
L 172 3053 
L 172 3500 
L 594 3500 
L 594 4494 
L 1172 4494 
z
" transform="scale(0.015625)"/>
      <path id="DejaVuSans-72" d="M 2631 2963 
Q 2534 3019 2420 3045 
Q 2306 3072 2169 3072 
Q 1681 3072 1420 2755 
Q 1159 2438 1159 1844 
L 1159 0 
L 581 0 
L 581 3500 
L 1159 3500 
L 1159 2956 
Q 1341 3275 1631 3429 
Q 1922 3584 2338 3584 
Q 2397 3584 2469 3576 
Q 2541 3569 2628 3553 
L 2631 2963 
z
" transform="scale(0.015625)"/>
      <path id="DejaVuSans-69" d="M 603 3500 
L 1178 3500 
L 1178 0 
L 603 0 
L 603 3500 
z
M 603 4863 
L 1178 4863 
L 1178 4134 
L 603 4134 
L 603 4863 
z
" transform="scale(0.015625)"/>
      <path id="DejaVuSans-67" d="M 2906 1791 
Q 2906 2416 2648 2759 
Q 2391 3103 1925 3103 
Q 1463 3103 1205 2759 
Q 947 2416 947 1791 
Q 947 1169 1205 825 
Q 1463 481 1925 481 
Q 2391 481 2648 825 
Q 2906 1169 2906 1791 
z
M 3481 434 
Q 3481 -459 3084 -895 
Q 2688 -1331 1869 -1331 
Q 1566 -1331 1297 -1286 
Q 1028 -1241 775 -1147 
L 775 -588 
Q 1028 -725 1275 -790 
Q 1522 -856 1778 -856 
Q 2344 -856 2625 -561 
Q 2906 -266 2906 331 
L 2906 616 
Q 2728 306 2450 153 
Q 2172 0 1784 0 
Q 1141 0 747 490 
Q 353 981 353 1791 
Q 353 2603 747 3093 
Q 1141 3584 1784 3584 
Q 2172 3584 2450 3431 
Q 2728 3278 2906 2969 
L 2906 3500 
L 3481 3500 
L 3481 434 
z
" transform="scale(0.015625)"/>
     </defs>
     <use xlink:href="#DejaVuSans-52"/>
     <use xlink:href="#DejaVuSans-65" x="64.982422"/>
     <use xlink:href="#DejaVuSans-74" x="126.505859"/>
     <use xlink:href="#DejaVuSans-72" x="165.714844"/>
     <use xlink:href="#DejaVuSans-69" x="206.828125"/>
     <use xlink:href="#DejaVuSans-67" x="234.611328"/>
     <use xlink:href="#DejaVuSans-67" x="298.087891"/>
     <use xlink:href="#DejaVuSans-65" x="361.564453"/>
     <use xlink:href="#DejaVuSans-72" x="423.087891"/>
    </g>
   </g>
   <g id="patch_5">
    <path d="M 186.09441 31.132089 
Q 190.421814 34.381242 194.749219 37.630394 
" style="fill: none; stroke: #56b4e9; stroke-linecap: round"/>
   </g>
   <g id="text_2">
    <!-- Precursor -->
    <g style="fill: #56b4e9" transform="translate(156.354436 27.260401) scale(0.09 -0.09)">
     <defs>
      <path id="DejaVuSans-50" d="M 1259 4147 
L 1259 2394 
L 2053 2394 
Q 2494 2394 2734 2622 
Q 2975 2850 2975 3272 
Q 2975 3691 2734 3919 
Q 2494 4147 2053 4147 
L 1259 4147 
z
M 628 4666 
L 2053 4666 
Q 2838 4666 3239 4311 
Q 3641 3956 3641 3272 
Q 3641 2581 3239 2228 
Q 2838 1875 2053 1875 
L 1259 1875 
L 1259 0 
L 628 0 
L 628 4666 
z
" transform="scale(0.015625)"/>
      <path id="DejaVuSans-63" d="M 3122 3366 
L 3122 2828 
Q 2878 2963 2633 3030 
Q 2388 3097 2138 3097 
Q 1578 3097 1268 2742 
Q 959 2388 959 1747 
Q 959 1106 1268 751 
Q 1578 397 2138 397 
Q 2388 397 2633 464 
Q 2878 531 3122 666 
L 3122 134 
Q 2881 22 2623 -34 
Q 2366 -91 2075 -91 
Q 1284 -91 818 406 
Q 353 903 353 1747 
Q 353 2603 823 3093 
Q 1294 3584 2113 3584 
Q 2378 3584 2631 3529 
Q 2884 3475 3122 3366 
z
" transform="scale(0.015625)"/>
      <path id="DejaVuSans-75" d="M 544 1381 
L 544 3500 
L 1119 3500 
L 1119 1403 
Q 1119 906 1312 657 
Q 1506 409 1894 409 
Q 2359 409 2629 706 
Q 2900 1003 2900 1516 
L 2900 3500 
L 3475 3500 
L 3475 0 
L 2900 0 
L 2900 538 
Q 2691 219 2414 64 
Q 2138 -91 1772 -91 
Q 1169 -91 856 284 
Q 544 659 544 1381 
z
M 1991 3584 
L 1991 3584 
z
" transform="scale(0.015625)"/>
      <path id="DejaVuSans-73" d="M 2834 3397 
L 2834 2853 
Q 2591 2978 2328 3040 
Q 2066 3103 1784 3103 
Q 1356 3103 1142 2972 
Q 928 2841 928 2578 
Q 928 2378 1081 2264 
Q 1234 2150 1697 2047 
L 1894 2003 
Q 2506 1872 2764 1633 
Q 3022 1394 3022 966 
Q 3022 478 2636 193 
Q 2250 -91 1575 -91 
Q 1294 -91 989 -36 
Q 684 19 347 128 
L 347 722 
Q 666 556 975 473 
Q 1284 391 1588 391 
Q 1994 391 2212 530 
Q 2431 669 2431 922 
Q 2431 1156 2273 1281 
Q 2116 1406 1581 1522 
L 1381 1569 
Q 847 1681 609 1914 
Q 372 2147 372 2553 
Q 372 3047 722 3315 
Q 1072 3584 1716 3584 
Q 2034 3584 2315 3537 
Q 2597 3491 2834 3397 
z
" transform="scale(0.015625)"/>
      <path id="DejaVuSans-6f" d="M 1959 3097 
Q 1497 3097 1228 2736 
Q 959 2375 959 1747 
Q 959 1119 1226 758 
Q 1494 397 1959 397 
Q 2419 397 2687 759 
Q 2956 1122 2956 1747 
Q 2956 2369 2687 2733 
Q 2419 3097 1959 3097 
z
M 1959 3584 
Q 2709 3584 3137 3096 
Q 3566 2609 3566 1747 
Q 3566 888 3137 398 
Q 2709 -91 1959 -91 
Q 1206 -91 779 398 
Q 353 888 353 1747 
Q 353 2609 779 3096 
Q 1206 3584 1959 3584 
z
" transform="scale(0.015625)"/>
     </defs>
     <use xlink:href="#DejaVuSans-50"/>
     <use xlink:href="#DejaVuSans-72" x="58.552734"/>
     <use xlink:href="#DejaVuSans-65" x="97.416016"/>
     <use xlink:href="#DejaVuSans-63" x="158.939453"/>
     <use xlink:href="#DejaVuSans-75" x="213.919922"/>
     <use xlink:href="#DejaVuSans-72" x="277.298828"/>
     <use xlink:href="#DejaVuSans-73" x="318.412109"/>
     <use xlink:href="#DejaVuSans-6f" x="370.511719"/>
     <use xlink:href="#DejaVuSans-72" x="431.693359"/>
    </g>
   </g>
   <g id="patch_6">
    <path d="M 230.16715 31.132089 
Q 225.23132 34.482227 220.29549 37.832365 
" style="fill: none; stroke: #56b4e9; stroke-linecap: round"/>
   </g>
   <g id="text_3">
    <!-- Postcursor -->
    <g style="fill: #56b4e9" transform="translate(215.994588 27.260401) scale(0.09 -0.09)">
     <use xlink:href="#DejaVuSans-50"/>
     <use xlink:href="#DejaVuSans-6f" x="56.677734"/>
     <use xlink:href="#DejaVuSans-73" x="117.859375"/>
     <use xlink:href="#DejaVuSans-74" x="169.958984"/>
     <use xlink:href="#DejaVuSans-63" x="209.167969"/>
     <use xlink:href="#DejaVuSans-75" x="264.148438"/>
     <use xlink:href="#DejaVuSans-72" x="327.527344"/>
     <use xlink:href="#DejaVuSans-73" x="368.640625"/>
     <use xlink:href="#DejaVuSans-6f" x="420.740234"/>
     <use xlink:href="#DejaVuSans-72" x="481.921875"/>
    </g>
   </g>
   <g id="line2d_3">
    <defs>
     <path id="m9cceca940d" d="M 0 2.25 
L 0 -2.25 
" style="stroke: #ed7800"/>
    </defs>
    <g clip-path="url(#pdec03f9609)">
     <use xlink:href="#m9cceca940d" x="64.474922" y="40.751553" style="fill: #ed7800; stroke: #ed7800"/>
    </g>
   </g>
   <g id="line2d_4">
    <defs>
     <path id="ma688615435" d="M 0 2.25 
L 0 -2.25 
" style="stroke: #56b4e9"/>
    </defs>
    <g clip-path="url(#pdec03f9609)">
     <use xlink:href="#ma688615435" x="39.380104" y="40.751553" style="fill: #56b4e9; stroke: #56b4e9"/>
    </g>
   </g>
   <g id="line2d_5">
    <g clip-path="url(#pdec03f9609)">
     <use xlink:href="#ma688615435" x="39.380104" y="40.751553" style="fill: #56b4e9; stroke: #56b4e9"/>
    </g>
   </g>
   <g id="line2d_6">
    <g clip-path="url(#pdec03f9609)">
     <use xlink:href="#ma688615435" x="199.618456" y="40.751553" style="fill: #56b4e9; stroke: #56b4e9"/>
    </g>
   </g>
   <g id="line2d_7">
    <g clip-path="url(#pdec03f9609)">
     <use xlink:href="#ma688615435" x="199.618456" y="40.751553" style="fill: #56b4e9; stroke: #56b4e9"/>
    </g>
   </g>
   <g id="patch_7">
    <path d="M 64.474922 40.751553 
Q 81.563355 40.751553 97.533755 40.751553 
" style="fill: none; stroke: #ed7800; stroke-linecap: round"/>
    <path d="M 93.933755 38.951553 
L 97.533755 40.751553 
L 93.933755 42.551553 
z
" style="fill: #ed7800; stroke: #ed7800; stroke-linecap: round"/>
   </g>
   <g id="patch_8">
    <path d="M 39.380104 40.751553 
Q 56.468538 40.751553 72.438937 40.751553 
" style="fill: none; stroke: #56b4e9; stroke-linecap: round"/>
    <path d="M 68.838937 38.951553 
L 72.438937 40.751553 
L 68.838937 42.551553 
z
" style="fill: #56b4e9; stroke: #56b4e9; stroke-linecap: round"/>
   </g>
   <g id="patch_9">
    <path d="M 39.380104 40.751553 
Q 29.411852 40.751553 20.561633 40.751553 
" style="fill: none; stroke: #56b4e9; stroke-linecap: round"/>
    <path d="M 24.161633 42.551553 
L 20.561633 40.751553 
L 24.161633 38.951553 
z
" style="fill: #56b4e9; stroke: #56b4e9; stroke-linecap: round"/>
   </g>
   <g id="patch_10">
    <path d="M 199.618456 40.751553 
Q 216.706889 40.751553 232.677288 40.751553 
" style="fill: none; stroke: #56b4e9; stroke-linecap: round"/>
    <path d="M 229.077288 38.951553 
L 232.677288 40.751553 
L 229.077288 42.551553 
z
" style="fill: #56b4e9; stroke: #56b4e9; stroke-linecap: round"/>
   </g>
   <g id="patch_11">
    <path d="M 199.618456 40.751553 
Q 189.650203 40.751553 180.799984 40.751553 
" style="fill: none; stroke: #56b4e9; stroke-linecap: round"/>
    <path d="M 184.399984 42.551553 
L 180.799984 40.751553 
L 184.399984 38.951553 
z
" style="fill: #56b4e9; stroke: #56b4e9; stroke-linecap: round"/>
   </g>
  </g>
  <g id="axes_2">
   <g id="patch_12">
    <path d="M 5 153.958867 
L 282.917735 153.958867 
L 282.917735 84.479434 
L 5 84.479434 
L 5 153.958867 
z
" style="fill: none"/>
   </g>
   <g id="matplotlib.axis_3"/>
   <g id="matplotlib.axis_4"/>
   <g id="line2d_8">
    <path d="M 19.468207 148.330021 
L 22.092705 147.683188 
L 26.023045 146.497316 
L 31.906308 144.298056 
L 32.571333 144.439982 
L 32.980601 144.88917 
L 33.8017 146.623053 
L 35.515385 150.293591 
L 35.816141 150.894217 
L 36.278953 146.98239 
L 36.579709 145.303686 
L 37.226792 140.909348 
L 39.282245 127.415565 
L 39.700057 125.213269 
L 40.694604 119.114527 
L 41.191023 116.473229 
L 41.487792 114.543522 
L 43.676251 103.374804 
L 44.603868 98.890075 
L 44.869878 98.182127 
L 45.077218 96.971094 
L 46.039866 93.692407 
L 46.761568 91.231148 
L 47.995068 88.174121 
L 48.805629 87.075806 
L 49.405718 86.686384 
L 50.06704 86.70797 
L 50.589662 87.14994 
L 51.021429 87.72129 
L 51.448355 88.77785 
L 51.906895 90.168518 
L 52.624039 92.885231 
L 54.112442 100.949162 
L 54.089657 101.531306 
L 54.310953 102.265899 
L 54.264244 103.008249 
L 54.659272 104.632517 
L 54.911611 107.115631 
L 55.09759 107.606169 
L 55.196988 108.765126 
L 56.78963 119.468737 
L 56.742637 120.192537 
L 57.165006 122.003724 
L 57.209436 122.628972 
L 57.482851 123.857948 
L 57.542945 124.628023 
L 57.935979 126.476109 
L 58.775591 130.48804 
L 59.03562 131.211908 
L 59.467387 133.096959 
L 59.90656 134.573903 
L 60.052666 135.059045 
L 60.61573 136.244917 
L 61.201294 137.459525 
L 61.511449 137.980621 
L 62.028089 138.375912 
L 62.390079 137.549377 
L 62.213499 138.950837 
L 62.713335 135.662774 
L 63.577156 131.216697 
L 63.392601 131.727809 
L 64.565152 126.563936 
L 64.184934 127.878177 
L 64.797839 125.475065 
L 65.845645 120.569885 
L 66.457411 118.21352 
L 66.551397 117.551307 
L 67.068323 116.001578 
L 67.542242 114.487803 
L 68.015307 113.325271 
L 68.41717 112.854025 
L 69.097859 112.673109 
L 69.616778 112.947991 
L 71.24502 116.095949 
L 74.919603 124.361101 
L 76.900437 128.127088 
L 81.049224 134.503816 
L 83.106956 137.118132 
L 84.492544 138.689042 
L 87.224984 141.418437 
L 87.761276 141.786138 
L 88.032982 142.194043 
L 92.689011 145.544975 
L 95.153732 146.993183 
L 97.835477 148.340747 
L 98.505344 148.653404 
L 98.505344 148.653404 
" clip-path="url(#pce42bf48c3)" style="fill: none; stroke: #376eb5; stroke-width: 1.5; stroke-linecap: square"/>
   </g>
   <g id="line2d_9">
    <path d="M 179.774799 148.48092 
L 182.389045 147.478325 
L 184.342822 146.497316 
L 185.62474 145.773448 
L 187.557157 144.413 
L 189.363689 142.903745 
L 192.066225 140.013535 
L 195.385368 135.312409 
L 197.14804 132.288434 
L 197.394968 131.684705 
L 198.300939 130.002898 
L 198.157112 130.613845 
L 201.700683 121.369438 
L 202.935038 117.591713 
L 204.028413 113.608652 
L 204.122399 112.937198 
L 204.620527 111.229218 
L 204.713659 110.533142 
L 205.073086 109.250201 
L 205.30264 108.04281 
L 205.664345 106.846145 
L 206.008108 105.013439 
L 206.273833 104.300095 
L 206.342187 103.617375 
L 207.333885 100.582608 
L 207.763944 100.22145 
L 208.252389 100.356226 
L 209.249499 104.269605 
L 209.607501 106.10231 
L 210.520024 111.552668 
L 210.641352 113.138958 
L 210.97657 114.613608 
L 210.95407 115.211941 
L 211.18989 116.548712 
L 211.44935 118.018438 
L 211.690297 120.264445 
L 211.899915 121.421581 
L 212.125767 123.750154 
L 212.410004 125.313374 
L 212.57975 126.613786 
L 212.984176 129.221356 
L 212.961391 129.808895 
L 213.294331 131.530164 
L 213.52474 133.452721 
L 213.817522 135.204614 
L 214.123689 138.023725 
L 214.487673 140.109795 
L 214.983807 143.521842 
L 215.194849 144.006984 
L 215.737692 144.496106 
L 216.94442 145.095787 
L 218.279027 145.548618 
L 220.938557 146.119968 
L 226.240243 146.659007 
L 233.511941 146.766801 
L 233.511941 146.766801 
" clip-path="url(#pce42bf48c3)" style="fill: none; stroke: #376eb5; stroke-width: 1.5; stroke-linecap: square"/>
   </g>
   <g id="line2d_10">
    <path d="M 19.443599 153.958867 
L 19.443599 84.479434 
" clip-path="url(#pce42bf48c3)" style="fill: none; stroke-dasharray: 2.96,1.28; stroke-dashoffset: 0; stroke: #ed7800; stroke-width: 0.8"/>
   </g>
   <g id="line2d_11">
    <path d="M 179.68195 153.958867 
L 179.68195 84.479434 
" clip-path="url(#pce42bf48c3)" style="fill: none; stroke-dasharray: 2.96,1.28; stroke-dashoffset: 0; stroke: #ed7800; stroke-width: 0.8"/>
   </g>
   <g id="patch_13">
    <path d="M 5 153.958867 
L 282.917735 153.958867 
" style="fill: none; stroke: #afafaf; stroke-width: 0.8; stroke-linejoin: miter; stroke-linecap: square"/>
   </g>
   <g id="text_4">
    <!-- Timestamp -->
    <g style="fill: #ed7800" transform="translate(14.723808 145.347315) rotate(-90) scale(0.09 -0.09)">
     <defs>
      <path id="DejaVuSans-54" d="M -19 4666 
L 3928 4666 
L 3928 4134 
L 2272 4134 
L 2272 0 
L 1638 0 
L 1638 4134 
L -19 4134 
L -19 4666 
z
" transform="scale(0.015625)"/>
      <path id="DejaVuSans-6d" d="M 3328 2828 
Q 3544 3216 3844 3400 
Q 4144 3584 4550 3584 
Q 5097 3584 5394 3201 
Q 5691 2819 5691 2113 
L 5691 0 
L 5113 0 
L 5113 2094 
Q 5113 2597 4934 2840 
Q 4756 3084 4391 3084 
Q 3944 3084 3684 2787 
Q 3425 2491 3425 1978 
L 3425 0 
L 2847 0 
L 2847 2094 
Q 2847 2600 2669 2842 
Q 2491 3084 2119 3084 
Q 1678 3084 1418 2786 
Q 1159 2488 1159 1978 
L 1159 0 
L 581 0 
L 581 3500 
L 1159 3500 
L 1159 2956 
Q 1356 3278 1631 3431 
Q 1906 3584 2284 3584 
Q 2666 3584 2933 3390 
Q 3200 3197 3328 2828 
z
" transform="scale(0.015625)"/>
      <path id="DejaVuSans-61" d="M 2194 1759 
Q 1497 1759 1228 1600 
Q 959 1441 959 1056 
Q 959 750 1161 570 
Q 1363 391 1709 391 
Q 2188 391 2477 730 
Q 2766 1069 2766 1631 
L 2766 1759 
L 2194 1759 
z
M 3341 1997 
L 3341 0 
L 2766 0 
L 2766 531 
Q 2569 213 2275 61 
Q 1981 -91 1556 -91 
Q 1019 -91 701 211 
Q 384 513 384 1019 
Q 384 1609 779 1909 
Q 1175 2209 1959 2209 
L 2766 2209 
L 2766 2266 
Q 2766 2663 2505 2880 
Q 2244 3097 1772 3097 
Q 1472 3097 1187 3025 
Q 903 2953 641 2809 
L 641 3341 
Q 956 3463 1253 3523 
Q 1550 3584 1831 3584 
Q 2591 3584 2966 3190 
Q 3341 2797 3341 1997 
z
" transform="scale(0.015625)"/>
      <path id="DejaVuSans-70" d="M 1159 525 
L 1159 -1331 
L 581 -1331 
L 581 3500 
L 1159 3500 
L 1159 2969 
Q 1341 3281 1617 3432 
Q 1894 3584 2278 3584 
Q 2916 3584 3314 3078 
Q 3713 2572 3713 1747 
Q 3713 922 3314 415 
Q 2916 -91 2278 -91 
Q 1894 -91 1617 61 
Q 1341 213 1159 525 
z
M 3116 1747 
Q 3116 2381 2855 2742 
Q 2594 3103 2138 3103 
Q 1681 3103 1420 2742 
Q 1159 2381 1159 1747 
Q 1159 1113 1420 752 
Q 1681 391 2138 391 
Q 2594 391 2855 752 
Q 3116 1113 3116 1747 
z
" transform="scale(0.015625)"/>
     </defs>
     <use xlink:href="#DejaVuSans-54"/>
     <use xlink:href="#DejaVuSans-69" x="57.958984"/>
     <use xlink:href="#DejaVuSans-6d" x="85.742188"/>
     <use xlink:href="#DejaVuSans-65" x="183.154297"/>
     <use xlink:href="#DejaVuSans-73" x="244.677734"/>
     <use xlink:href="#DejaVuSans-74" x="296.777344"/>
     <use xlink:href="#DejaVuSans-61" x="335.986328"/>
     <use xlink:href="#DejaVuSans-6d" x="397.265625"/>
     <use xlink:href="#DejaVuSans-70" x="494.677734"/>
    </g>
   </g>
   <g id="text_5">
    <!-- Timestamp -->
    <g style="fill: #ed7800" transform="translate(174.962159 145.347315) rotate(-90) scale(0.09 -0.09)">
     <use xlink:href="#DejaVuSans-54"/>
     <use xlink:href="#DejaVuSans-69" x="57.958984"/>
     <use xlink:href="#DejaVuSans-6d" x="85.742188"/>
     <use xlink:href="#DejaVuSans-65" x="183.154297"/>
     <use xlink:href="#DejaVuSans-73" x="244.677734"/>
     <use xlink:href="#DejaVuSans-74" x="296.777344"/>
     <use xlink:href="#DejaVuSans-61" x="335.986328"/>
     <use xlink:href="#DejaVuSans-6d" x="397.265625"/>
     <use xlink:href="#DejaVuSans-70" x="494.677734"/>
    </g>
   </g>
  </g>
 </g>
 <defs>
  <clipPath id="pdec03f9609">
   <rect x="5" y="5" width="277.917735" height="69.479434"/>
  </clipPath>
  <clipPath id="pce42bf48c3">
   <rect x="5" y="84.479434" width="277.917735" height="69.479434"/>
  </clipPath>
 </defs>
</svg>
