<?xml version="1.0" encoding="utf-8" standalone="no"?>
<!DOCTYPE svg PUBLIC "-//W3C//DTD SVG 1.1//EN"
  "http://www.w3.org/Graphics/SVG/1.1/DTD/svg11.dtd">
<svg xmlns:xlink="http://www.w3.org/1999/xlink" width="294pt" height="160pt" viewBox="0 0 294 160" xmlns="http://www.w3.org/2000/svg" version="1.1">
 <metadata>
  <rdf:RDF xmlns:dc="http://purl.org/dc/elements/1.1/" xmlns:cc="http://creativecommons.org/ns#" xmlns:rdf="http://www.w3.org/1999/02/22-rdf-syntax-ns#">
   <cc:Work>
    <dc:type rdf:resource="http://purl.org/dc/dcmitype/StillImage"/>
    <dc:date>2026-05-05T16:24:42.534274</dc:date>
    <dc:format>image/svg+xml</dc:format>
    <dc:creator>
     <cc:Agent>
      <dc:title>Matplotlib v3.10.9, https://matplotlib.org/</dc:title>
     </cc:Agent>
    </dc:creator>
   </cc:Work>
  </rdf:RDF>
 </metadata>
 <defs>
  <style type="text/css">*{stroke-linejoin: round; stroke-linecap: butt}</style>
 </defs>
 <g id="figure_1">
  <g id="patch_1">
   <path d="M 0 160 
L 294 160 
L 294 0 
L 0 0 
L 0 160 
z
" style="fill: none"/>
  </g>
  <g id="axes_1">
   <g id="patch_2">
    <path d="M 3 75 
L 291 75 
L 291 3 
L 3 3 
L 3 75 
z
" style="fill: none"/>
   </g>
   <g id="matplotlib.axis_1"/>
   <g id="matplotlib.axis_2"/>
   <g id="line2d_1">
    <path d="M 3 71.635852 
L 7.094174 71.133181 
L 13.909829 70.038291 
L 20.712792 68.496652 
L 24.785716 67.267759 
L 30.882412 64.988715 
L 31.571562 65.13579 
L 31.995677 65.601274 
L 32.846564 67.398058 
L 34.622418 71.201755 
L 34.934086 71.824171 
L 35.413687 67.770431 
L 35.725354 66.030827 
L 36.395911 61.477072 
L 38.525932 47.493763 
L 38.958902 45.211573 
L 39.989529 38.891581 
L 40.503957 36.154462 
L 40.811492 34.15475 
L 42.958926 23.150563 
L 44.531134 15.944831 
L 45.528705 12.5472 
L 46.276589 9.996652 
L 47.554838 6.828722 
L 48.394804 5.690563 
L 49.016663 5.287014 
L 49.701977 5.309383 
L 50.243558 5.767386 
L 50.690989 6.359464 
L 51.133403 7.454353 
L 51.608577 8.895472 
L 52.197676 11.118664 
L 52.65042 13.244482 
L 53.150386 15.654384 
L 53.747748 19.404885 
L 53.894137 20.067216 
L 53.870526 20.670478 
L 54.099849 21.43172 
L 54.051446 22.201002 
L 54.460805 23.884194 
L 54.722298 26.45739 
L 54.915024 26.965724 
L 55.018028 28.166726 
L 56.668448 39.258641 
L 56.61975 40.008699 
L 57.057442 41.885592 
L 57.103483 42.533522 
L 57.386817 43.807083 
L 57.449092 44.605095 
L 57.856384 46.520225 
L 58.726455 50.677701 
L 58.995917 51.427829 
L 59.443349 53.381266 
L 59.898454 54.91179 
L 60.04986 55.414532 
L 60.633351 56.643425 
L 61.240157 57.902097 
L 61.561564 58.442097 
L 62.096947 58.851728 
L 62.472069 57.995208 
L 62.289083 59.447511 
L 62.807053 56.040163 
L 63.70221 51.432792 
L 63.51096 51.962447 
L 64.726049 46.611239 
L 64.332038 47.973157 
L 64.967178 45.482866 
L 66.052996 40.399736 
L 66.686955 37.957887 
L 66.784351 37.27165 
L 67.32003 35.665701 
L 67.811142 34.09701 
L 68.301368 32.892303 
L 68.71781 32.403961 
L 69.423193 32.216482 
L 69.960937 32.501336 
L 71.648249 35.763495 
L 75.456138 44.328489 
L 77.508833 48.231099 
L 81.808129 54.839161 
L 83.940511 57.548318 
L 85.376364 59.176217 
L 88.207932 62.004629 
L 88.763679 62.38567 
L 89.045242 62.808373 
L 93.325945 66.010905 
L 95.309282 67.111317 
L 95.81456 67.535837 
L 97.119962 68.161468 
L 99.203351 69.178066 
L 101.284379 70.105328 
L 105.431973 71.457111 
L 106.80083 71.434812 
L 108.167621 71.345406 
L 109.534411 71.25607 
L 112.269173 71.110812 
L 114.318031 70.920885 
L 117.735746 70.70859 
L 123.887337 70.328808 
L 125.253832 70.228217 
L 126.620623 70.138882 
L 132.774575 69.83725 
L 134.142546 69.781398 
L 136.194651 69.703177 
L 138.932659 69.669623 
L 142.357752 69.725476 
L 145.79288 70.116513 
L 147.853543 70.339922 
L 151.281588 70.496365 
L 153.337824 70.563402 
L 156.079079 70.641623 
L 158.818858 70.675107 
L 170.457681 70.60807 
L 174.561005 70.429328 
L 177.984917 70.440513 
L 182.756731 69.703177 
L 184.793193 69.08873 
L 187.500212 67.982726 
L 189.523688 66.913981 
L 191.590254 65.564016 
L 194.052012 63.543821 
L 196.85259 60.548761 
L 200.292145 55.677087 
L 202.118763 52.54341 
L 202.374649 51.917779 
L 203.313487 50.174959 
L 203.164442 50.80807 
L 206.606063 41.941445 
L 208.63308 35.57993 
L 208.731362 34.914384 
L 209.248741 33.185965 
L 209.346137 32.490151 
L 209.862336 30.72021 
L 209.958846 29.998882 
L 210.331312 28.669398 
L 210.569195 27.418206 
L 210.82449 26.78139 
L 211.646454 22.832225 
L 212.674129 19.687363 
L 213.11979 19.313103 
L 213.625954 19.452769 
L 214.659237 23.508117 
L 215.030227 25.407309 
L 215.770437 29.702843 
L 216.038719 31.875705 
L 216.101583 32.699231 
L 216.448962 34.227379 
L 216.425646 34.847417 
L 216.670022 36.232683 
L 216.796342 36.768909 
L 216.812279 37.327503 
L 216.975786 38.249173 
L 217.188582 40.083216 
L 217.405804 41.28233 
L 217.63985 43.695379 
L 217.934399 45.315309 
L 218.110302 46.662897 
L 218.5294 49.365064 
L 218.505789 49.973918 
L 218.850807 51.757631 
L 219.089575 53.749934 
L 219.392978 55.565383 
L 219.710253 58.486765 
L 220.087441 60.648513 
L 220.601574 64.184342 
L 220.820272 64.687083 
L 221.382808 65.19395 
L 222.633314 65.815386 
L 224.016337 66.284645 
L 226.772349 66.876722 
L 232.266369 67.435317 
L 233.636112 67.446501 
L 235.00851 67.547021 
L 243.907259 67.446501 
L 254.85516 67.167169 
L 258.276712 67.100132 
L 261.698853 67.04428 
L 263.066824 66.988427 
L 274.025056 67.077833 
L 288.421072 67.647542 
L 289.79406 67.770431 
L 291 68.035783 
L 291 68.035783 
" clip-path="url(#p96212db6bd)" style="fill: none; stroke: #376eb5; stroke-width: 1.5; stroke-linecap: square"/>
   </g>
   <g id="patch_3">
    <path d="M 3 75 
L 291 75 
" style="fill: none; stroke: #afafaf; stroke-width: 0.8; stroke-linejoin: miter; stroke-linecap: square"/>
   </g>
   <g id="line2d_2">
    <path d="M 3 47.038835 
L 291 47.038835 
" clip-path="url(#p96212db6bd)" style="fill: none; stroke-dasharray: 2.96,1.28; stroke-dashoffset: 0; stroke: #afafaf; stroke-width: 0.8"/>
   </g>
   <g id="patch_4">
    <path d="M 91.098284 30.17287 
Q 86.192148 33.61706 81.286012 37.061249 
" style="fill: none; stroke: #ed7800; stroke-linecap: round"/>
   </g>
   <g id="text_1">
    <!-- Retrigger -->
    <g style="fill: #ed7800" transform="translate(79.982101 26.067961) scale(0.1 -0.1)">
     <defs>
      <path id="ArialMT-52" d="M 503 0 
L 503 4581 
L 2534 4581 
Q 3147 4581 3465 4457 
Q 3784 4334 3975 4021 
Q 4166 3709 4166 3331 
Q 4166 2844 3850 2509 
Q 3534 2175 2875 2084 
Q 3116 1969 3241 1856 
Q 3506 1613 3744 1247 
L 4541 0 
L 3778 0 
L 3172 953 
Q 2906 1366 2734 1584 
Q 2563 1803 2427 1890 
Q 2291 1978 2150 2013 
Q 2047 2034 1813 2034 
L 1109 2034 
L 1109 0 
L 503 0 
z
M 1109 2559 
L 2413 2559 
Q 2828 2559 3062 2645 
Q 3297 2731 3419 2920 
Q 3541 3109 3541 3331 
Q 3541 3656 3305 3865 
Q 3069 4075 2559 4075 
L 1109 4075 
L 1109 2559 
z
" transform="scale(0.015625)"/>
      <path id="ArialMT-65" d="M 2694 1069 
L 3275 997 
Q 3138 488 2766 206 
Q 2394 -75 1816 -75 
Q 1088 -75 661 373 
Q 234 822 234 1631 
Q 234 2469 665 2931 
Q 1097 3394 1784 3394 
Q 2450 3394 2872 2941 
Q 3294 2488 3294 1666 
Q 3294 1616 3291 1516 
L 816 1516 
Q 847 969 1125 678 
Q 1403 388 1819 388 
Q 2128 388 2347 550 
Q 2566 713 2694 1069 
z
M 847 1978 
L 2700 1978 
Q 2663 2397 2488 2606 
Q 2219 2931 1791 2931 
Q 1403 2931 1139 2672 
Q 875 2413 847 1978 
z
" transform="scale(0.015625)"/>
      <path id="ArialMT-74" d="M 1650 503 
L 1731 6 
Q 1494 -44 1306 -44 
Q 1000 -44 831 53 
Q 663 150 594 308 
Q 525 466 525 972 
L 525 2881 
L 113 2881 
L 113 3319 
L 525 3319 
L 525 4141 
L 1084 4478 
L 1084 3319 
L 1650 3319 
L 1650 2881 
L 1084 2881 
L 1084 941 
Q 1084 700 1114 631 
Q 1144 563 1211 522 
Q 1278 481 1403 481 
Q 1497 481 1650 503 
z
" transform="scale(0.015625)"/>
      <path id="ArialMT-72" d="M 416 0 
L 416 3319 
L 922 3319 
L 922 2816 
Q 1116 3169 1280 3281 
Q 1444 3394 1641 3394 
Q 1925 3394 2219 3213 
L 2025 2691 
Q 1819 2813 1613 2813 
Q 1428 2813 1281 2702 
Q 1134 2591 1072 2394 
Q 978 2094 978 1738 
L 978 0 
L 416 0 
z
" transform="scale(0.015625)"/>
      <path id="ArialMT-69" d="M 425 3934 
L 425 4581 
L 988 4581 
L 988 3934 
L 425 3934 
z
M 425 0 
L 425 3319 
L 988 3319 
L 988 0 
L 425 0 
z
" transform="scale(0.015625)"/>
      <path id="ArialMT-67" d="M 319 -275 
L 866 -356 
Q 900 -609 1056 -725 
Q 1266 -881 1628 -881 
Q 2019 -881 2231 -725 
Q 2444 -569 2519 -288 
Q 2563 -116 2559 434 
Q 2191 0 1641 0 
Q 956 0 581 494 
Q 206 988 206 1678 
Q 206 2153 378 2554 
Q 550 2956 876 3175 
Q 1203 3394 1644 3394 
Q 2231 3394 2613 2919 
L 2613 3319 
L 3131 3319 
L 3131 450 
Q 3131 -325 2973 -648 
Q 2816 -972 2473 -1159 
Q 2131 -1347 1631 -1347 
Q 1038 -1347 672 -1080 
Q 306 -813 319 -275 
z
M 784 1719 
Q 784 1066 1043 766 
Q 1303 466 1694 466 
Q 2081 466 2343 764 
Q 2606 1063 2606 1700 
Q 2606 2309 2336 2618 
Q 2066 2928 1684 2928 
Q 1309 2928 1046 2623 
Q 784 2319 784 1719 
z
" transform="scale(0.015625)"/>
     </defs>
     <use xlink:href="#ArialMT-52"/>
     <use xlink:href="#ArialMT-65" transform="translate(72.216797 0)"/>
     <use xlink:href="#ArialMT-74" transform="translate(127.832031 0)"/>
     <use xlink:href="#ArialMT-72" transform="translate(155.615234 0)"/>
     <use xlink:href="#ArialMT-69" transform="translate(188.916016 0)"/>
     <use xlink:href="#ArialMT-67" transform="translate(211.132812 0)"/>
     <use xlink:href="#ArialMT-67" transform="translate(266.748047 0)"/>
     <use xlink:href="#ArialMT-65" transform="translate(322.363281 0)"/>
     <use xlink:href="#ArialMT-72" transform="translate(377.978516 0)"/>
    </g>
   </g>
   <g id="patch_5">
    <path d="M 190.869751 30.056928 
Q 195.338942 33.473251 199.808133 36.889573 
" style="fill: none; stroke: #56b4e9; stroke-linecap: round"/>
   </g>
   <g id="text_2">
    <!-- Precursor -->
    <g style="fill: #56b4e9" transform="translate(160.598471 26.067961) scale(0.1 -0.1)">
     <defs>
      <path id="ArialMT-50" d="M 494 0 
L 494 4581 
L 2222 4581 
Q 2678 4581 2919 4538 
Q 3256 4481 3484 4323 
Q 3713 4166 3852 3881 
Q 3991 3597 3991 3256 
Q 3991 2672 3619 2267 
Q 3247 1863 2275 1863 
L 1100 1863 
L 1100 0 
L 494 0 
z
M 1100 2403 
L 2284 2403 
Q 2872 2403 3119 2622 
Q 3366 2841 3366 3238 
Q 3366 3525 3220 3729 
Q 3075 3934 2838 4000 
Q 2684 4041 2272 4041 
L 1100 4041 
L 1100 2403 
z
" transform="scale(0.015625)"/>
      <path id="ArialMT-63" d="M 2588 1216 
L 3141 1144 
Q 3050 572 2676 248 
Q 2303 -75 1759 -75 
Q 1078 -75 664 370 
Q 250 816 250 1647 
Q 250 2184 428 2587 
Q 606 2991 970 3192 
Q 1334 3394 1763 3394 
Q 2303 3394 2647 3120 
Q 2991 2847 3088 2344 
L 2541 2259 
Q 2463 2594 2264 2762 
Q 2066 2931 1784 2931 
Q 1359 2931 1093 2626 
Q 828 2322 828 1663 
Q 828 994 1084 691 
Q 1341 388 1753 388 
Q 2084 388 2306 591 
Q 2528 794 2588 1216 
z
" transform="scale(0.015625)"/>
      <path id="ArialMT-75" d="M 2597 0 
L 2597 488 
Q 2209 -75 1544 -75 
Q 1250 -75 995 37 
Q 741 150 617 320 
Q 494 491 444 738 
Q 409 903 409 1263 
L 409 3319 
L 972 3319 
L 972 1478 
Q 972 1038 1006 884 
Q 1059 663 1231 536 
Q 1403 409 1656 409 
Q 1909 409 2131 539 
Q 2353 669 2445 892 
Q 2538 1116 2538 1541 
L 2538 3319 
L 3100 3319 
L 3100 0 
L 2597 0 
z
" transform="scale(0.015625)"/>
      <path id="ArialMT-73" d="M 197 991 
L 753 1078 
Q 800 744 1014 566 
Q 1228 388 1613 388 
Q 2000 388 2187 545 
Q 2375 703 2375 916 
Q 2375 1106 2209 1216 
Q 2094 1291 1634 1406 
Q 1016 1563 777 1677 
Q 538 1791 414 1992 
Q 291 2194 291 2438 
Q 291 2659 392 2848 
Q 494 3038 669 3163 
Q 800 3259 1026 3326 
Q 1253 3394 1513 3394 
Q 1903 3394 2198 3281 
Q 2494 3169 2634 2976 
Q 2775 2784 2828 2463 
L 2278 2388 
Q 2241 2644 2061 2787 
Q 1881 2931 1553 2931 
Q 1166 2931 1000 2803 
Q 834 2675 834 2503 
Q 834 2394 903 2306 
Q 972 2216 1119 2156 
Q 1203 2125 1616 2013 
Q 2213 1853 2448 1751 
Q 2684 1650 2818 1456 
Q 2953 1263 2953 975 
Q 2953 694 2789 445 
Q 2625 197 2315 61 
Q 2006 -75 1616 -75 
Q 969 -75 630 194 
Q 291 463 197 991 
z
" transform="scale(0.015625)"/>
      <path id="ArialMT-6f" d="M 213 1659 
Q 213 2581 725 3025 
Q 1153 3394 1769 3394 
Q 2453 3394 2887 2945 
Q 3322 2497 3322 1706 
Q 3322 1066 3130 698 
Q 2938 331 2570 128 
Q 2203 -75 1769 -75 
Q 1072 -75 642 372 
Q 213 819 213 1659 
z
M 791 1659 
Q 791 1022 1069 705 
Q 1347 388 1769 388 
Q 2188 388 2466 706 
Q 2744 1025 2744 1678 
Q 2744 2294 2464 2611 
Q 2184 2928 1769 2928 
Q 1347 2928 1069 2612 
Q 791 2297 791 1659 
z
" transform="scale(0.015625)"/>
     </defs>
     <use xlink:href="#ArialMT-50"/>
     <use xlink:href="#ArialMT-72" transform="translate(66.699219 0)"/>
     <use xlink:href="#ArialMT-65" transform="translate(100 0)"/>
     <use xlink:href="#ArialMT-63" transform="translate(155.615234 0)"/>
     <use xlink:href="#ArialMT-75" transform="translate(205.615234 0)"/>
     <use xlink:href="#ArialMT-72" transform="translate(261.230469 0)"/>
     <use xlink:href="#ArialMT-73" transform="translate(294.53125 0)"/>
     <use xlink:href="#ArialMT-6f" transform="translate(344.53125 0)"/>
     <use xlink:href="#ArialMT-72" transform="translate(400.146484 0)"/>
    </g>
   </g>
   <g id="patch_6">
    <path d="M 236.061468 30.056928 
Q 230.992834 33.570825 225.924199 37.084722 
" style="fill: none; stroke: #56b4e9; stroke-linecap: round"/>
   </g>
   <g id="text_3">
    <!-- Postcursor -->
    <g style="fill: #56b4e9" transform="translate(221.649024 26.067961) scale(0.1 -0.1)">
     <use xlink:href="#ArialMT-50"/>
     <use xlink:href="#ArialMT-6f" transform="translate(66.699219 0)"/>
     <use xlink:href="#ArialMT-73" transform="translate(122.314453 0)"/>
     <use xlink:href="#ArialMT-74" transform="translate(172.314453 0)"/>
     <use xlink:href="#ArialMT-63" transform="translate(200.097656 0)"/>
     <use xlink:href="#ArialMT-75" transform="translate(250.097656 0)"/>
     <use xlink:href="#ArialMT-72" transform="translate(305.712891 0)"/>
     <use xlink:href="#ArialMT-73" transform="translate(339.013672 0)"/>
     <use xlink:href="#ArialMT-6f" transform="translate(389.013672 0)"/>
     <use xlink:href="#ArialMT-72" transform="translate(444.628906 0)"/>
    </g>
   </g>
   <g id="line2d_3">
    <defs>
     <path id="m1913311946" d="M 0 2.25 
L 0 -2.25 
" style="stroke: #ed7800"/>
    </defs>
    <g clip-path="url(#p96212db6bd)">
     <use xlink:href="#m1913311946" x="64.632546" y="40.048544" style="fill: #ed7800; stroke: #ed7800"/>
    </g>
   </g>
   <g id="line2d_4">
    <defs>
     <path id="me337275699" d="M 0 2.25 
L 0 -2.25 
" style="stroke: #56b4e9"/>
    </defs>
    <g clip-path="url(#p96212db6bd)">
     <use xlink:href="#me337275699" x="38.627342" y="40.048544" style="fill: #56b4e9; stroke: #56b4e9"/>
    </g>
   </g>
   <g id="line2d_5">
    <g clip-path="url(#p96212db6bd)">
     <use xlink:href="#me337275699" x="38.627342" y="40.048544" style="fill: #56b4e9; stroke: #56b4e9"/>
    </g>
   </g>
   <g id="line2d_6">
    <g clip-path="url(#p96212db6bd)">
     <use xlink:href="#me337275699" x="204.6788" y="40.048544" style="fill: #56b4e9; stroke: #56b4e9"/>
    </g>
   </g>
   <g id="line2d_7">
    <g clip-path="url(#p96212db6bd)">
     <use xlink:href="#me337275699" x="204.6788" y="40.048544" style="fill: #56b4e9; stroke: #56b4e9"/>
    </g>
   </g>
   <g id="patch_7">
    <path d="M 64.632546 40.048544 
Q 82.340911 40.048544 98.931243 40.048544 
" style="fill: none; stroke: #ed7800; stroke-linecap: round"/>
    <path d="M 94.931243 38.048544 
L 98.931243 40.048544 
L 94.931243 42.048544 
z
" style="fill: #ed7800; stroke: #ed7800; stroke-linecap: round"/>
   </g>
   <g id="patch_8">
    <path d="M 38.627342 40.048544 
Q 56.335707 40.048544 72.926038 40.048544 
" style="fill: none; stroke: #56b4e9; stroke-linecap: round"/>
    <path d="M 68.926038 38.048544 
L 72.926038 40.048544 
L 68.926038 42.048544 
z
" style="fill: #56b4e9; stroke: #56b4e9; stroke-linecap: round"/>
   </g>
   <g id="patch_9">
    <path d="M 38.627342 40.048544 
Q 28.297462 40.048544 19.085616 40.048544 
" style="fill: none; stroke: #56b4e9; stroke-linecap: round"/>
    <path d="M 23.085616 42.048544 
L 19.085616 40.048544 
L 23.085616 38.048544 
z
" style="fill: #56b4e9; stroke: #56b4e9; stroke-linecap: round"/>
   </g>
   <g id="patch_10">
    <path d="M 204.6788 40.048544 
Q 222.387165 40.048544 238.977497 40.048544 
" style="fill: none; stroke: #56b4e9; stroke-linecap: round"/>
    <path d="M 234.977497 38.048544 
L 238.977497 40.048544 
L 234.977497 42.048544 
z
" style="fill: #56b4e9; stroke: #56b4e9; stroke-linecap: round"/>
   </g>
   <g id="patch_11">
    <path d="M 204.6788 40.048544 
Q 194.34892 40.048544 185.137074 40.048544 
" style="fill: none; stroke: #56b4e9; stroke-linecap: round"/>
    <path d="M 189.137074 42.048544 
L 185.137074 40.048544 
L 189.137074 38.048544 
z
" style="fill: #56b4e9; stroke: #56b4e9; stroke-linecap: round"/>
   </g>
  </g>
  <g id="axes_2">
   <g id="patch_12">
    <path d="M 3 157 
L 291 157 
L 291 85 
L 3 85 
L 3 157 
z
" style="fill: none"/>
   </g>
   <g id="matplotlib.axis_3"/>
   <g id="matplotlib.axis_4"/>
   <g id="line2d_8">
    <path d="M 17.993083 151.166951 
L 20.712792 150.496652 
L 24.785716 149.267759 
L 30.882412 146.988715 
L 31.571562 147.13579 
L 31.995677 147.601274 
L 32.846564 149.398058 
L 34.622418 153.201755 
L 34.934086 153.824171 
L 35.413687 149.770431 
L 35.725354 148.030827 
L 36.395911 143.477072 
L 38.525932 129.493763 
L 38.958902 127.211573 
L 39.989529 120.891581 
L 40.503957 118.154462 
L 40.811492 116.15475 
L 42.958926 105.150563 
L 44.531134 97.944831 
L 45.528705 94.5472 
L 46.276589 91.996652 
L 47.554838 88.828722 
L 48.394804 87.690563 
L 49.016663 87.287014 
L 49.701977 87.309383 
L 50.243558 87.767386 
L 50.690989 88.359464 
L 51.133403 89.454353 
L 51.608577 90.895472 
L 52.197676 93.118664 
L 52.65042 95.244482 
L 53.150386 97.654384 
L 53.747748 101.404885 
L 53.894137 102.067216 
L 53.870526 102.670478 
L 54.099849 103.43172 
L 54.051446 104.201002 
L 54.460805 105.884194 
L 54.722298 108.45739 
L 54.915024 108.965724 
L 55.018028 110.166726 
L 56.668448 121.258641 
L 56.61975 122.008699 
L 57.057442 123.885592 
L 57.103483 124.533522 
L 57.386817 125.807083 
L 57.449092 126.605095 
L 57.856384 128.520225 
L 58.726455 132.677701 
L 58.995917 133.427829 
L 59.443349 135.381266 
L 59.898454 136.91179 
L 60.04986 137.414532 
L 60.633351 138.643425 
L 61.240157 139.902097 
L 61.561564 140.442097 
L 62.096947 140.851728 
L 62.472069 139.995208 
L 62.289083 141.447511 
L 62.807053 138.040163 
L 63.70221 133.432792 
L 63.51096 133.962447 
L 64.726049 128.611239 
L 64.332038 129.973157 
L 64.967178 127.482866 
L 66.052996 122.399736 
L 66.686955 119.957887 
L 66.784351 119.27165 
L 67.32003 117.665701 
L 67.811142 116.09701 
L 68.301368 114.892303 
L 68.71781 114.403961 
L 69.423193 114.216482 
L 69.960937 114.501336 
L 71.648249 117.763495 
L 75.456138 126.328489 
L 77.508833 130.231099 
L 81.808129 136.839161 
L 83.940511 139.548318 
L 85.376364 141.176217 
L 88.207932 144.004629 
L 88.763679 144.38567 
L 89.045242 144.808373 
L 93.325945 148.010905 
L 95.309282 149.111317 
L 95.81456 149.535837 
L 97.119962 150.161468 
L 99.203351 151.178066 
L 99.897519 151.502066 
L 99.897519 151.502066 
" clip-path="url(#p0e4ac77f35)" style="fill: none; stroke: #376eb5; stroke-width: 1.5; stroke-linecap: square"/>
   </g>
   <g id="line2d_9">
    <path d="M 184.115258 151.323324 
L 186.824343 150.284357 
L 188.848999 149.267759 
L 190.177422 148.517631 
L 192.179943 147.107829 
L 194.052012 145.543821 
L 196.85259 142.548761 
L 200.292145 137.677087 
L 202.118763 134.54341 
L 202.374649 133.917779 
L 203.313487 132.174959 
L 203.164442 132.80807 
L 206.606063 123.941445 
L 208.63308 117.57993 
L 208.731362 116.914384 
L 209.248741 115.185965 
L 209.346137 114.490151 
L 209.862336 112.72021 
L 209.958846 111.998882 
L 210.331312 110.669398 
L 210.569195 109.418206 
L 210.82449 108.78139 
L 211.646454 104.832225 
L 212.674129 101.687363 
L 213.11979 101.313103 
L 213.625954 101.452769 
L 214.659237 105.508117 
L 215.030227 107.407309 
L 215.770437 111.702843 
L 216.038719 113.875705 
L 216.101583 114.699231 
L 216.448962 116.227379 
L 216.425646 116.847417 
L 216.670022 118.232683 
L 216.796342 118.768909 
L 216.812279 119.327503 
L 216.975786 120.249173 
L 217.188582 122.083216 
L 217.405804 123.28233 
L 217.63985 125.695379 
L 217.934399 127.315309 
L 218.110302 128.662897 
L 218.5294 131.365064 
L 218.505789 131.973918 
L 218.850807 133.757631 
L 219.089575 135.749934 
L 219.392978 137.565383 
L 219.710253 140.486765 
L 220.087441 142.648513 
L 220.601574 146.184342 
L 220.820272 146.687083 
L 221.382808 147.19395 
L 222.633314 147.815386 
L 224.016337 148.284645 
L 226.772349 148.876722 
L 232.266369 149.435317 
L 233.636112 149.446501 
L 235.00851 149.547021 
L 239.801869 149.547021 
L 239.801869 149.547021 
" clip-path="url(#p0e4ac77f35)" style="fill: none; stroke: #376eb5; stroke-width: 1.5; stroke-linecap: square"/>
   </g>
   <g id="line2d_10">
    <path d="M 17.967582 157 
L 17.967582 85 
" clip-path="url(#p0e4ac77f35)" style="fill: none; stroke-dasharray: 2.96,1.28; stroke-dashoffset: 0; stroke: #ed7800; stroke-width: 0.8"/>
   </g>
   <g id="line2d_11">
    <path d="M 184.01904 157 
L 184.01904 85 
" clip-path="url(#p0e4ac77f35)" style="fill: none; stroke-dasharray: 2.96,1.28; stroke-dashoffset: 0; stroke: #ed7800; stroke-width: 0.8"/>
   </g>
   <g id="patch_13">
    <path d="M 3 157 
L 291 157 
" style="fill: none; stroke: #afafaf; stroke-width: 0.8; stroke-linejoin: miter; stroke-linecap: square"/>
   </g>
   <g id="text_4">
    <!-- Timestamp -->
    <g style="fill: #ed7800" transform="translate(13.028688 146.586044) rotate(-90) scale(0.1 -0.1)">
     <defs>
      <path id="ArialMT-54" d="M 1659 0 
L 1659 4041 
L 150 4041 
L 150 4581 
L 3781 4581 
L 3781 4041 
L 2266 4041 
L 2266 0 
L 1659 0 
z
" transform="scale(0.015625)"/>
      <path id="ArialMT-6d" d="M 422 0 
L 422 3319 
L 925 3319 
L 925 2853 
Q 1081 3097 1340 3245 
Q 1600 3394 1931 3394 
Q 2300 3394 2536 3241 
Q 2772 3088 2869 2813 
Q 3263 3394 3894 3394 
Q 4388 3394 4653 3120 
Q 4919 2847 4919 2278 
L 4919 0 
L 4359 0 
L 4359 2091 
Q 4359 2428 4304 2576 
Q 4250 2725 4106 2815 
Q 3963 2906 3769 2906 
Q 3419 2906 3187 2673 
Q 2956 2441 2956 1928 
L 2956 0 
L 2394 0 
L 2394 2156 
Q 2394 2531 2256 2718 
Q 2119 2906 1806 2906 
Q 1569 2906 1367 2781 
Q 1166 2656 1075 2415 
Q 984 2175 984 1722 
L 984 0 
L 422 0 
z
" transform="scale(0.015625)"/>
      <path id="ArialMT-61" d="M 2588 409 
Q 2275 144 1986 34 
Q 1697 -75 1366 -75 
Q 819 -75 525 192 
Q 231 459 231 875 
Q 231 1119 342 1320 
Q 453 1522 633 1644 
Q 813 1766 1038 1828 
Q 1203 1872 1538 1913 
Q 2219 1994 2541 2106 
Q 2544 2222 2544 2253 
Q 2544 2597 2384 2738 
Q 2169 2928 1744 2928 
Q 1347 2928 1158 2789 
Q 969 2650 878 2297 
L 328 2372 
Q 403 2725 575 2942 
Q 747 3159 1072 3276 
Q 1397 3394 1825 3394 
Q 2250 3394 2515 3294 
Q 2781 3194 2906 3042 
Q 3031 2891 3081 2659 
Q 3109 2516 3109 2141 
L 3109 1391 
Q 3109 606 3145 398 
Q 3181 191 3288 0 
L 2700 0 
Q 2613 175 2588 409 
z
M 2541 1666 
Q 2234 1541 1622 1453 
Q 1275 1403 1131 1340 
Q 988 1278 909 1158 
Q 831 1038 831 891 
Q 831 666 1001 516 
Q 1172 366 1500 366 
Q 1825 366 2078 508 
Q 2331 650 2450 897 
Q 2541 1088 2541 1459 
L 2541 1666 
z
" transform="scale(0.015625)"/>
      <path id="ArialMT-70" d="M 422 -1272 
L 422 3319 
L 934 3319 
L 934 2888 
Q 1116 3141 1344 3267 
Q 1572 3394 1897 3394 
Q 2322 3394 2647 3175 
Q 2972 2956 3137 2557 
Q 3303 2159 3303 1684 
Q 3303 1175 3120 767 
Q 2938 359 2589 142 
Q 2241 -75 1856 -75 
Q 1575 -75 1351 44 
Q 1128 163 984 344 
L 984 -1272 
L 422 -1272 
z
M 931 1641 
Q 931 1000 1190 694 
Q 1450 388 1819 388 
Q 2194 388 2461 705 
Q 2728 1022 2728 1688 
Q 2728 2322 2467 2637 
Q 2206 2953 1844 2953 
Q 1484 2953 1207 2617 
Q 931 2281 931 1641 
z
" transform="scale(0.015625)"/>
     </defs>
     <use xlink:href="#ArialMT-54"/>
     <use xlink:href="#ArialMT-69" transform="translate(57.333984 0)"/>
     <use xlink:href="#ArialMT-6d" transform="translate(79.550781 0)"/>
     <use xlink:href="#ArialMT-65" transform="translate(162.851562 0)"/>
     <use xlink:href="#ArialMT-73" transform="translate(218.466797 0)"/>
     <use xlink:href="#ArialMT-74" transform="translate(268.466797 0)"/>
     <use xlink:href="#ArialMT-61" transform="translate(296.25 0)"/>
     <use xlink:href="#ArialMT-6d" transform="translate(351.865234 0)"/>
     <use xlink:href="#ArialMT-70" transform="translate(435.166016 0)"/>
    </g>
   </g>
   <g id="text_5">
    <!-- Timestamp -->
    <g style="fill: #ed7800" transform="translate(179.080146 146.586044) rotate(-90) scale(0.1 -0.1)">
     <use xlink:href="#ArialMT-54"/>
     <use xlink:href="#ArialMT-69" transform="translate(57.333984 0)"/>
     <use xlink:href="#ArialMT-6d" transform="translate(79.550781 0)"/>
     <use xlink:href="#ArialMT-65" transform="translate(162.851562 0)"/>
     <use xlink:href="#ArialMT-73" transform="translate(218.466797 0)"/>
     <use xlink:href="#ArialMT-74" transform="translate(268.466797 0)"/>
     <use xlink:href="#ArialMT-61" transform="translate(296.25 0)"/>
     <use xlink:href="#ArialMT-6d" transform="translate(351.865234 0)"/>
     <use xlink:href="#ArialMT-70" transform="translate(435.166016 0)"/>
    </g>
   </g>
  </g>
 </g>
 <defs>
  <clipPath id="p96212db6bd">
   <rect x="3" y="3" width="288" height="72"/>
  </clipPath>
  <clipPath id="p0e4ac77f35">
   <rect x="3" y="85" width="288" height="72"/>
  </clipPath>
 </defs>
</svg>
